<svg width="336" height="76" viewBox="0 0 336 76" fill="none" xmlns="http://www.w3.org/2000/svg">
<path d="M9.05019 47.9774C9.05019 48.5984 8.89496 49.1107 8.58449 49.5143C8.27402 49.9075 7.88076 50.218 7.4047 50.4457C6.939 50.663 6.42672 50.8079 5.86788 50.8803C5.30903 50.9631 4.78123 50.9942 4.28448 50.9735C3.69459 50.9528 3.084 50.87 2.45271 50.7251C1.82142 50.5699 1.24188 50.3318 0.71408 50.011V47.1081L2.71661 49.8558C2.95464 49.9282 3.25993 49.9955 3.6325 50.0576C4.00506 50.1093 4.37762 50.13 4.75019 50.1197C5.06066 50.1093 5.36595 50.0731 5.66607 50.011C5.96619 49.9386 6.23009 49.8351 6.45777 49.7006C6.68545 49.5557 6.86655 49.3746 7.00109 49.1572C7.14598 48.9399 7.21325 48.676 7.2029 48.3655C7.2029 47.9516 7.08388 47.6101 6.84586 47.341C6.61818 47.0719 6.33358 46.8494 5.99207 46.6735C5.6609 46.4975 5.30386 46.3527 4.92094 46.2388C4.53803 46.1146 4.19134 45.9904 3.88087 45.8663C3.50831 45.7317 3.13574 45.5868 2.76318 45.4316C2.40097 45.266 2.07497 45.0694 1.7852 44.8417C1.50578 44.6037 1.27293 44.3243 1.08664 44.0034C0.910711 43.6723 0.822745 43.279 0.822745 42.8236C0.822745 42.2855 0.941758 41.825 1.17978 41.4421C1.42816 41.0488 1.75933 40.728 2.17329 40.4796C2.5976 40.2312 3.084 40.0501 3.6325 39.9363C4.19134 39.8224 4.78123 39.7655 5.40217 39.7655C6.01276 39.7655 6.60266 39.8173 7.17185 39.9208C7.74104 40.0242 8.23262 40.1588 8.64658 40.3244V43.6309H8.61553L6.64405 40.6814H6.62853C6.50434 40.64 6.3698 40.609 6.22492 40.5883C6.08003 40.5572 5.93515 40.5365 5.79026 40.5262C5.69712 40.5158 5.60398 40.5107 5.51084 40.5107C5.4177 40.5003 5.32456 40.5003 5.23141 40.5107C4.93129 40.5107 4.63117 40.5469 4.33105 40.6193C4.04128 40.6814 3.77221 40.7849 3.52383 40.9298C3.2858 41.0643 3.08917 41.2506 2.93394 41.4886C2.78905 41.7267 2.71661 42.0164 2.71661 42.3579C2.71661 42.6374 2.76835 42.8857 2.87184 43.1031C2.97533 43.3101 3.11505 43.4912 3.29098 43.6464C3.46691 43.8016 3.66872 43.9413 3.89639 44.0655C4.13442 44.1794 4.37762 44.2829 4.626 44.376C5.03996 44.5312 5.50566 44.6916 6.02311 44.8572C6.54056 45.0228 7.02179 45.235 7.4668 45.4937C7.9118 45.7524 8.28437 46.0784 8.58449 46.4717C8.89496 46.8649 9.05019 47.3669 9.05019 47.9774ZM11.9368 47.2478C11.9886 48.1793 12.2525 48.8882 12.7285 49.3746C13.2046 49.8506 13.8048 50.0886 14.5293 50.0886C14.9536 50.0886 15.3623 49.9903 15.7556 49.7937C16.1592 49.5971 16.5732 49.2659 16.9975 48.8002L17.4321 49.2038C16.9561 49.8247 16.4438 50.2801 15.8953 50.5699C15.3468 50.8596 14.7207 51.0045 14.017 51.0045C13.4271 51.0045 12.8889 50.9062 12.4025 50.7096C11.9161 50.5026 11.5022 50.218 11.1607 49.8558C10.8191 49.4936 10.5552 49.0537 10.369 48.5363C10.1827 48.0188 10.0895 47.4445 10.0895 46.8132C10.0895 46.1715 10.1775 45.5972 10.3534 45.0901C10.5397 44.5726 10.8036 44.1328 11.1451 43.7706C11.497 43.4084 11.9213 43.1289 12.4181 42.9323C12.9252 42.7357 13.4892 42.6374 14.1101 42.6374C14.8345 42.6374 15.44 42.7616 15.9264 43.0099C16.4128 43.2583 16.7905 43.5946 17.0596 44.019C17.339 44.4433 17.5149 44.9348 17.5874 45.4937C17.6598 46.0525 17.6443 46.6373 17.5408 47.2478H11.9368ZM14.1567 43.5843C13.8876 43.5843 13.6237 43.6412 13.365 43.7551C13.1166 43.8585 12.8889 44.0241 12.682 44.2518C12.475 44.4795 12.3042 44.7796 12.1697 45.1522C12.0351 45.5144 11.9524 45.949 11.9213 46.4561H15.8488C15.8694 46.1664 15.8643 45.8559 15.8332 45.5247C15.8022 45.1832 15.7246 44.8676 15.6004 44.5778C15.4865 44.288 15.3106 44.05 15.0726 43.8637C14.8449 43.6774 14.5396 43.5843 14.1567 43.5843ZM25.2446 45.7731L23.3352 43.693C23.1593 43.6205 22.9833 43.574 22.8074 43.5533C22.6315 43.5326 22.4659 43.5222 22.3106 43.5222C22.1347 43.5222 21.9536 43.5377 21.7673 43.5688C21.581 43.5895 21.3999 43.6309 21.224 43.693C21.0584 43.7551 20.9084 43.843 20.7738 43.9569C20.6496 44.0604 20.5565 44.1897 20.4944 44.345C20.453 44.4484 20.4323 44.5519 20.4323 44.6554C20.4323 44.8728 20.4892 45.059 20.6031 45.2143C20.7272 45.3695 20.8825 45.5092 21.0688 45.6334C21.2654 45.7472 21.4879 45.8507 21.7363 45.9439C21.995 46.037 22.2641 46.1302 22.5435 46.2233C22.854 46.3371 23.1644 46.4561 23.4749 46.5803C23.7957 46.6942 24.0855 46.8391 24.3442 47.015C24.6029 47.1806 24.8203 47.3824 24.9962 47.6204C25.1825 47.8481 25.2963 48.1275 25.3377 48.4587C25.3998 49.0072 25.317 49.4522 25.0893 49.7937C24.8617 50.1249 24.5564 50.3836 24.1735 50.5699C23.7905 50.7458 23.3714 50.8648 22.9161 50.9269C22.4607 50.989 22.0312 51.0201 21.6276 51.0201C21.4103 51.0201 21.1723 50.9994 20.9135 50.958C20.6652 50.9269 20.4116 50.8803 20.1529 50.8182C19.9045 50.7562 19.6561 50.6837 19.4078 50.6009C19.1594 50.5181 18.9265 50.4302 18.7092 50.337V47.7446L20.6341 49.9955C20.8204 50.0576 21.0067 50.1042 21.193 50.1352C21.3792 50.1559 21.5603 50.1611 21.7363 50.1507C21.9122 50.1507 22.0985 50.1352 22.2951 50.1042C22.4917 50.0628 22.678 50.011 22.854 49.9489C23.0299 49.8868 23.1851 49.8092 23.3197 49.7161C23.4542 49.6126 23.5525 49.4884 23.6146 49.3435C23.656 49.24 23.6767 49.1521 23.6767 49.0796C23.6871 48.8623 23.6146 48.6708 23.4594 48.5052C23.3041 48.3293 23.1127 48.1741 22.885 48.0395C22.6573 47.905 22.4141 47.7912 22.1554 47.698C21.907 47.6049 21.6845 47.5221 21.4879 47.4496C21.1567 47.3358 20.8256 47.2116 20.4944 47.0771C20.1632 46.9425 19.8631 46.7821 19.594 46.5959C19.325 46.4096 19.1076 46.1922 18.942 45.9439C18.7765 45.6851 18.6937 45.3747 18.6937 45.0125C18.6937 44.6709 18.7713 44.3605 18.9265 44.0811C19.0818 43.7913 19.3094 43.5429 19.6096 43.3359C19.9097 43.1186 20.2822 42.953 20.7272 42.8392C21.1723 42.715 21.6845 42.6529 22.2641 42.6529C22.7505 42.6529 23.2576 42.6943 23.7854 42.7771C24.3132 42.8599 24.7996 42.9892 25.2446 43.1652V45.7731ZM32.9384 45.7731L31.029 43.693C30.8531 43.6205 30.6772 43.574 30.5012 43.5533C30.3253 43.5326 30.1597 43.5222 30.0045 43.5222C29.8285 43.5222 29.6474 43.5377 29.4611 43.5688C29.2749 43.5895 29.0938 43.6309 28.9178 43.693C28.7522 43.7551 28.6022 43.843 28.4676 43.9569C28.3435 44.0604 28.2503 44.1897 28.1882 44.345C28.1468 44.4484 28.1261 44.5519 28.1261 44.6554C28.1261 44.8728 28.183 45.059 28.2969 45.2143C28.4211 45.3695 28.5763 45.5092 28.7626 45.6334C28.9592 45.7472 29.1817 45.8507 29.4301 45.9439C29.6888 46.037 29.9579 46.1302 30.2373 46.2233C30.5478 46.3371 30.8583 46.4561 31.1687 46.5803C31.4895 46.6942 31.7793 46.8391 32.038 47.015C32.2968 47.1806 32.5141 47.3824 32.69 47.6204C32.8763 47.8481 32.9902 48.1275 33.0315 48.4587C33.0936 49.0072 33.0109 49.4522 32.7832 49.7937C32.5555 50.1249 32.2502 50.3836 31.8673 50.5699C31.4844 50.7458 31.0652 50.8648 30.6099 50.9269C30.1545 50.989 29.725 51.0201 29.3214 51.0201C29.1041 51.0201 28.8661 50.9994 28.6074 50.958C28.359 50.9269 28.1054 50.8803 27.8467 50.8182C27.5983 50.7562 27.35 50.6837 27.1016 50.6009C26.8532 50.5181 26.6203 50.4302 26.403 50.337V47.7446L28.3279 49.9955C28.5142 50.0576 28.7005 50.1042 28.8868 50.1352C29.0731 50.1559 29.2542 50.1611 29.4301 50.1507C29.606 50.1507 29.7923 50.1352 29.9889 50.1042C30.1856 50.0628 30.3719 50.011 30.5478 49.9489C30.7237 49.8868 30.879 49.8092 31.0135 49.7161C31.148 49.6126 31.2463 49.4884 31.3084 49.3435C31.3498 49.24 31.3705 49.1521 31.3705 49.0796C31.3809 48.8623 31.3084 48.6708 31.1532 48.5052C30.998 48.3293 30.8065 48.1741 30.5788 48.0395C30.3512 47.905 30.108 47.7912 29.8492 47.698C29.6009 47.6049 29.3784 47.5221 29.1817 47.4496C28.8506 47.3358 28.5194 47.2116 28.1882 47.0771C27.8571 46.9425 27.5569 46.7821 27.2879 46.5959C27.0188 46.4096 26.8015 46.1922 26.6359 45.9439C26.4703 45.6851 26.3875 45.3747 26.3875 45.0125C26.3875 44.6709 26.4651 44.3605 26.6203 44.0811C26.7756 43.7913 27.0033 43.5429 27.3034 43.3359C27.6035 43.1186 27.9761 42.953 28.4211 42.8392C28.8661 42.715 29.3784 42.6529 29.9579 42.6529C30.4443 42.6529 30.9514 42.6943 31.4792 42.7771C32.007 42.8599 32.4934 42.9892 32.9384 43.1652V45.7731ZM37.3723 50.8182H33.8019L34.7178 49.654V44.1587L33.9571 43.0875L36.4098 42.42V49.654L37.3723 50.8182ZM36.7048 39.9673L35.4319 41.3955L34.0968 40.2468L35.3387 38.7565L36.7048 39.9673ZM38.1357 46.8287C38.1357 46.1871 38.2289 45.6075 38.4152 45.0901C38.6118 44.5726 38.8912 44.1328 39.2534 43.7706C39.626 43.4084 40.071 43.1289 40.5885 42.9323C41.1163 42.7357 41.7113 42.6374 42.3737 42.6374C43.036 42.6374 43.6259 42.7357 44.1433 42.9323C44.6608 43.1289 45.1006 43.4084 45.4628 43.7706C45.825 44.1224 46.0993 44.5571 46.2856 45.0746C46.4822 45.592 46.5805 46.1664 46.5805 46.7977C46.5805 47.4393 46.4874 48.0188 46.3011 48.5363C46.1148 49.0537 45.8406 49.4936 45.4784 49.8558C45.1161 50.218 44.6711 50.5026 44.1433 50.7096C43.6259 50.9062 43.0308 51.0045 42.3581 51.0045C41.6854 51.0045 41.0852 50.9062 40.5574 50.7096C40.04 50.5129 39.6001 50.2335 39.2379 49.8713C38.8757 49.4987 38.6014 49.0589 38.4152 48.5518C38.2289 48.0344 38.1357 47.46 38.1357 46.8287ZM42.3426 43.4601C41.6285 43.4601 41.0542 43.7447 40.6195 44.3139C40.1848 44.8831 39.9675 45.7214 39.9675 46.8287C39.9675 47.9257 40.1848 48.7588 40.6195 49.328C41.0645 49.8972 41.6441 50.1818 42.3581 50.1818C43.0619 50.1818 43.6362 49.8972 44.0812 49.328C44.5366 48.7588 44.7591 47.8998 44.7487 46.7511C44.7384 46.1612 44.666 45.6593 44.5314 45.2453C44.3969 44.8314 44.2158 44.495 43.9881 44.2363C43.7708 43.9672 43.5172 43.7706 43.2274 43.6464C42.948 43.5222 42.6531 43.4601 42.3426 43.4601ZM52.5094 42.6995C52.8406 42.6995 53.151 42.7564 53.4408 42.8702C53.7409 42.9737 53.9997 43.1496 54.217 43.398C54.4447 43.636 54.6258 43.9465 54.7603 44.3294C54.8948 44.7123 54.9621 45.1832 54.9621 45.7421V49.654L55.7693 50.8182H52.4784L53.2545 49.654V46.1302C53.2545 45.3436 53.1148 44.7641 52.8354 44.3915C52.556 44.0086 52.1834 43.8172 51.7177 43.8172C51.1175 43.8172 50.4913 44.1173 49.8394 44.7175V49.654L50.6776 50.8182H47.3401L48.1628 49.654L48.1473 44.2208L47.3711 43.041L49.8394 42.4356V43.8482C50.2016 43.5067 50.6155 43.2324 51.0812 43.0255C51.5573 42.8081 52.0333 42.6995 52.5094 42.6995ZM63.1225 45.7731L61.2131 43.693C61.0372 43.6205 60.8612 43.574 60.6853 43.5533C60.5094 43.5326 60.3438 43.5222 60.1885 43.5222C60.0126 43.5222 59.8315 43.5377 59.6452 43.5688C59.4589 43.5895 59.2778 43.6309 59.1019 43.693C58.9363 43.7551 58.7863 43.843 58.6517 43.9569C58.5275 44.0604 58.4344 44.1897 58.3723 44.345C58.3309 44.4484 58.3102 44.5519 58.3102 44.6554C58.3102 44.8728 58.3671 45.059 58.481 45.2143C58.6052 45.3695 58.7604 45.5092 58.9467 45.6334C59.1433 45.7472 59.3658 45.8507 59.6142 45.9439C59.8729 46.037 60.142 46.1302 60.4214 46.2233C60.7319 46.3371 61.0423 46.4561 61.3528 46.5803C61.6736 46.6942 61.9634 46.8391 62.2221 47.015C62.4809 47.1806 62.6982 47.3824 62.8741 47.6204C63.0604 47.8481 63.1742 48.1275 63.2156 48.4587C63.2777 49.0072 63.1949 49.4522 62.9673 49.7937C62.7396 50.1249 62.4343 50.3836 62.0514 50.5699C61.6685 50.7458 61.2493 50.8648 60.794 50.9269C60.3386 50.989 59.9091 51.0201 59.5055 51.0201C59.2882 51.0201 59.0502 50.9994 58.7914 50.958C58.5431 50.9269 58.2895 50.8803 58.0308 50.8182C57.7824 50.7562 57.534 50.6837 57.2857 50.6009C57.0373 50.5181 56.8044 50.4302 56.5871 50.337V47.7446L58.512 49.9955C58.6983 50.0576 58.8846 50.1042 59.0709 50.1352C59.2571 50.1559 59.4382 50.1611 59.6142 50.1507C59.7901 50.1507 59.9764 50.1352 60.173 50.1042C60.3697 50.0628 60.5559 50.011 60.7319 49.9489C60.9078 49.8868 61.063 49.8092 61.1976 49.7161C61.3321 49.6126 61.4304 49.4884 61.4925 49.3435C61.5339 49.24 61.5546 49.1521 61.5546 49.0796C61.565 48.8623 61.4925 48.6708 61.3373 48.5052C61.1821 48.3293 60.9906 48.1741 60.7629 48.0395C60.5352 47.905 60.292 47.7912 60.0333 47.698C59.7849 47.6049 59.5624 47.5221 59.3658 47.4496C59.0346 47.3358 58.7035 47.2116 58.3723 47.0771C58.0411 46.9425 57.741 46.7821 57.4719 46.5959C57.2029 46.4096 56.9855 46.1922 56.82 45.9439C56.6544 45.6851 56.5716 45.3747 56.5716 45.0125C56.5716 44.6709 56.6492 44.3605 56.8044 44.0811C56.9597 43.7913 57.1873 43.5429 57.4875 43.3359C57.7876 43.1186 58.1601 42.953 58.6052 42.8392C59.0502 42.715 59.5624 42.6529 60.142 42.6529C60.6284 42.6529 61.1355 42.6943 61.6633 42.7771C62.1911 42.8599 62.6775 42.9892 63.1225 43.1652V45.7731Z" fill="white"/>
<path d="M11.9425 35.1369H10.7803V34.8741H10.6489C10.4367 35.056 10.3053 35.1369 10.2649 35.1369H9.88081C9.50687 35.1369 9.16326 35.056 8.84996 34.8741C8.84996 34.5911 9.14304 33.7321 9.74943 32.297V32.1757L9.61805 31.2661C9.67868 30.5789 9.75954 30.2353 9.88081 30.2353L9.74943 29.9826V27.2741C9.74943 25.1113 9.87071 22.4836 10.1335 19.4113C10.1335 19.3506 10.093 19.098 10.0122 18.6432L10.1335 17.7437C10.0526 16.8442 10.0122 16.1166 10.0122 15.5506H10.1335C9.96166 15.207 9.88081 14.9442 9.88081 14.7724H9.74943C9.25421 15.3586 8.69836 15.7426 8.07176 15.9346C7.68772 16.4602 7.3441 16.7128 7.0409 16.7128C6.69729 15.965 6.52548 15.399 6.52548 15.0352V14.3884C6.86909 13.9942 7.29357 12.5793 7.8191 10.1336C8.32442 9.40589 8.83985 7.99099 9.36538 5.88885C9.92124 5.62608 10.4367 5.4947 10.9117 5.4947L12.0739 5.62608C12.2356 5.54523 12.3569 5.4947 12.458 5.4947C12.458 5.75747 12.6298 5.88885 12.9734 5.88885C14.0548 5.88885 14.8734 5.71704 15.4191 5.37342H15.5505V5.88885C15.5505 5.9697 15.5 6.01013 15.4191 6.01013C15.4191 6.10109 15.4596 6.14151 15.5505 6.14151C15.5505 6.24258 15.5 6.36385 15.4191 6.52556L15.8032 8.85004C15.8032 8.94099 15.7628 8.98142 15.6819 8.98142C15.6819 9.06227 15.7223 9.1027 15.8032 9.1027L15.6819 9.74951C15.6819 10.2953 15.7223 10.932 15.8032 11.6798C15.7223 12.7107 15.6314 13.2261 15.5505 13.2261C15.5505 13.3171 15.5909 13.3575 15.6819 13.3575C15.5 14.0751 15.4191 14.7623 15.4191 15.4192C15.6314 15.4192 15.8032 15.8942 15.9346 16.8341L15.0351 19.0272C15.1058 19.0272 15.3585 19.3304 15.8032 19.9267C15.8032 20.3107 15.7122 20.6544 15.5505 20.9575C15.6314 21.4224 15.6819 21.8166 15.6819 22.1198C15.6819 22.2107 15.6314 22.2512 15.5505 22.2512C15.5505 22.3421 15.5909 22.3826 15.6819 22.3826L15.5505 23.0193V23.5347C15.5505 24.5453 15.5909 26.132 15.6819 28.3049C15.1564 28.8305 14.8128 29.0831 14.651 29.0831V29.2044L15.2878 29.9826V31.2661C15.5202 31.5895 15.8234 32.6204 16.1973 34.3587V34.7528L16.066 35.0055C15.884 35.0055 15.1968 34.8337 14.0042 34.4901C12.9633 34.6922 12.276 34.9145 11.9425 35.1369ZM24.6358 34.8741V34.7528L24.3831 34.8741H24.2518C23.989 34.672 23.3826 34.4597 22.4528 34.2374C20.8156 33.1257 19.9969 31.923 19.9969 30.6294C19.7746 30.4273 19.5624 30.0837 19.3602 29.5985L19.4815 28.8204C19.3097 28.8204 19.0571 27.8805 18.7134 25.9906L18.9661 25.081C18.8852 23.9491 18.7539 22.9586 18.582 22.1198C18.582 22.0389 18.7539 21.473 19.0975 20.4421C18.7539 20.0682 18.582 19.8559 18.582 19.8054V19.29C18.582 19.2091 18.6225 19.1586 18.7134 19.1586C18.7134 19.0777 18.6629 19.0272 18.582 19.0272L18.7134 18.1277V17.865C18.5315 16.6118 18.4507 15.9245 18.4507 15.8033V14.7724C18.4507 14.6916 18.4911 14.6511 18.582 14.6511C18.4102 14.2671 18.3294 13.6809 18.3294 12.9027C18.3294 12.4985 18.4102 12.1346 18.582 11.8112C18.4911 11.6697 18.4507 11.4979 18.4507 11.2958C19.2996 9.07238 20.1991 7.95056 21.1592 7.95056C22.19 7.26333 23.2209 6.7479 24.2518 6.40428C24.2518 6.02023 24.6358 5.75747 25.414 5.62608C25.414 5.54523 25.4544 5.4947 25.5454 5.4947H26.0608C26.1417 5.4947 26.1821 5.54523 26.1821 5.62608L26.4449 5.4947H26.9603L28.3752 6.78832H28.7592C28.9513 6.78832 29.1231 6.7479 29.2747 6.65694C30.2247 6.65694 31.5991 7.99099 33.3981 10.649C33.5699 11.6899 33.6608 12.549 33.6608 13.2261C33.6608 13.8527 33.6103 14.54 33.5295 15.2878L33.7922 16.7128H33.6608L33.7922 16.9655C33.4486 17.9256 33.2768 18.4815 33.2768 18.6432C33.6204 19.1586 33.7922 19.5426 33.7922 19.8054V20.3208C33.5295 21.9177 33.3981 22.8677 33.3981 23.1506V23.4134C33.3981 23.9187 33.5699 24.8182 33.9135 26.1118V27.0214C33.7417 27.6278 33.6608 27.9714 33.6608 28.0523V29.0831C33.4183 29.3863 33.2465 29.9826 33.1454 30.8821C32.5997 32.2161 31.9529 32.9438 31.2151 33.0752C29.78 33.9342 28.9209 34.3587 28.638 34.3587C28.4358 34.3587 28.264 34.4092 28.1225 34.4901C27.1523 34.3284 26.5055 34.2374 26.1821 34.2374C25.98 34.2374 25.4645 34.4496 24.6358 34.8741ZM25.6667 29.9826C26.93 29.9826 27.8294 29.2145 28.3752 27.6581C28.3752 26.3544 28.7592 25.4549 29.5374 24.9597V24.6969C29.1332 24.6767 28.8704 23.5246 28.7592 21.2203C28.7592 21.0586 28.8401 20.715 29.022 20.1895L28.8906 19.9267L29.022 19.674C28.8401 19.2799 28.7592 18.8453 28.7592 18.3804L28.8906 17.865C28.7997 17.7235 28.7592 17.5517 28.7592 17.3495C28.8805 16.6623 29.0119 16.3187 29.1534 16.3187C28.7188 15.6517 28.5066 14.5804 28.5066 13.1048C28.4156 13.1048 28.3752 13.024 28.3752 12.8421C28.3752 12.7612 28.4156 12.6298 28.5066 12.458C28.5066 11.5485 27.9002 11.033 26.6975 10.9117C24.9794 11.3969 24.0395 11.9527 23.8677 12.5894L23.6049 12.9735V13.7416L23.7363 14.3884C23.4736 14.3884 23.3523 14.8634 23.3523 15.8033V16.066C23.6959 17.4203 23.8677 18.9666 23.8677 20.7049C23.8677 20.8666 23.7363 21.4325 23.4837 22.3826C23.4837 22.807 23.6049 23.0193 23.8677 23.0193V23.282C23.8677 23.9996 23.6959 24.99 23.3523 26.2432C23.4129 26.8496 23.4938 27.1427 23.6049 27.1427L23.4837 27.7895V28.1735C23.4837 29.1235 24.2113 29.7299 25.6667 29.9826ZM41.9073 34.8741V34.7528L41.6546 34.8741H41.5233C41.2605 34.672 40.6541 34.4597 39.7243 34.2374C38.0871 33.1257 37.2684 31.923 37.2684 30.6294C37.0461 30.4273 36.8339 30.0837 36.6317 29.5985L36.753 28.8204C36.5812 28.8204 36.3285 27.8805 35.9849 25.9906L36.2376 25.081C36.1567 23.9491 36.0254 22.9586 35.8535 22.1198C35.8535 22.0389 36.0254 21.473 36.369 20.4421C36.0254 20.0682 35.8535 19.8559 35.8535 19.8054V19.29C35.8535 19.2091 35.894 19.1586 35.9849 19.1586C35.9849 19.0777 35.9344 19.0272 35.8535 19.0272L35.9849 18.1277V17.865C35.803 16.6118 35.7222 15.9245 35.7222 15.8033V14.7724C35.7222 14.6916 35.7626 14.6511 35.8535 14.6511C35.6817 14.2671 35.6009 13.6809 35.6009 12.9027C35.6009 12.4985 35.6817 12.1346 35.8535 11.8112C35.7626 11.6697 35.7222 11.4979 35.7222 11.2958C36.5711 9.07238 37.4706 7.95056 38.4307 7.95056C39.4615 7.26333 40.4924 6.7479 41.5233 6.40428C41.5233 6.02023 41.9073 5.75747 42.6855 5.62608C42.6855 5.54523 42.7259 5.4947 42.8169 5.4947H43.3323C43.4132 5.4947 43.4536 5.54523 43.4536 5.62608L43.7163 5.4947H44.2318L45.6467 6.78832H46.0307C46.2227 6.78832 46.3946 6.7479 46.5462 6.65694C47.4962 6.65694 48.8706 7.99099 50.6696 10.649C50.8414 11.6899 50.9323 12.549 50.9323 13.2261C50.9323 13.8527 50.8818 14.54 50.801 15.2878L51.0637 16.7128H50.9323L51.0637 16.9655C50.7201 17.9256 50.5483 18.4815 50.5483 18.6432C50.8919 19.1586 51.0637 19.5426 51.0637 19.8054V20.3208C50.801 21.9177 50.6696 22.8677 50.6696 23.1506V23.4134C50.6696 23.9187 50.8414 24.8182 51.185 26.1118V27.0214C51.0132 27.6278 50.9323 27.9714 50.9323 28.0523V29.0831C50.6898 29.3863 50.518 29.9826 50.4169 30.8821C49.8712 32.2161 49.2244 32.9438 48.4866 33.0752C47.0515 33.9342 46.1924 34.3587 45.9094 34.3587C45.7073 34.3587 45.5355 34.4092 45.394 34.4901C44.4238 34.3284 43.777 34.2374 43.4536 34.2374C43.2515 34.2374 42.736 34.4496 41.9073 34.8741ZM42.9382 29.9826C44.2015 29.9826 45.1009 29.2145 45.6467 27.6581C45.6467 26.3544 46.0307 25.4549 46.8089 24.9597V24.6969C46.4047 24.6767 46.1419 23.5246 46.0307 21.2203C46.0307 21.0586 46.1116 20.715 46.2935 20.1895L46.1621 19.9267L46.2935 19.674C46.1116 19.2799 46.0307 18.8453 46.0307 18.3804L46.1621 17.865C46.0711 17.7235 46.0307 17.5517 46.0307 17.3495C46.152 16.6623 46.2834 16.3187 46.4249 16.3187C45.9903 15.6517 45.7781 14.5804 45.7781 13.1048C45.6871 13.1048 45.6467 13.024 45.6467 12.8421C45.6467 12.7612 45.6871 12.6298 45.7781 12.458C45.7781 11.5485 45.1717 11.033 43.969 10.9117C42.2509 11.3969 41.311 11.9527 41.1392 12.5894L40.8764 12.9735V13.7416L41.0078 14.3884C40.7451 14.3884 40.6238 14.8634 40.6238 15.8033V16.066C40.9674 17.4203 41.1392 18.9666 41.1392 20.7049C41.1392 20.8666 41.0078 21.4325 40.7552 22.3826C40.7552 22.807 40.8764 23.0193 41.1392 23.0193V23.282C41.1392 23.9996 40.9674 24.99 40.6238 26.2432C40.6844 26.8496 40.7653 27.1427 40.8764 27.1427L40.7552 27.7895V28.1735C40.7552 29.1235 41.4828 29.7299 42.9382 29.9826Z" fill="white"/>
<path d="M58.7259 11.7995V8.95699H55.8834V8.26706H58.7259V5.41074H59.4159V8.26706H62.2722V8.95699H59.4159V11.7995H58.7259Z" fill="white"/>
<path d="M93.2482 42.259L92.4517 41.2603H94.4997L99.7334 48.7443V42.1326L99.0381 41.2603H101.086L100.366 42.1326V50.1096H98.8864L93.8802 43.0302V49.0856L94.6135 50.1096H92.5529L93.2482 49.0856V42.259ZM101.519 48.4535C101.519 48.108 101.591 47.8172 101.734 47.5812C101.878 47.3452 102.059 47.1472 102.278 46.9871C102.506 46.8185 102.758 46.6794 103.036 46.5699C103.315 46.4603 103.593 46.3592 103.871 46.2665C104.031 46.2075 104.208 46.1443 104.402 46.0768C104.604 46.0094 104.789 45.9294 104.958 45.8367C105.127 45.7355 105.27 45.6175 105.388 45.4827C105.506 45.3394 105.565 45.1666 105.565 44.9644C105.565 44.7705 105.514 44.6104 105.413 44.484C105.32 44.3491 105.186 44.2817 105.009 44.2817H103.504L102.417 45.7608L101.57 43.5864H107.17L107.019 44.2059V49.1615L107.714 50.1096H105.628V48.8833C105.392 49.2626 105.08 49.5786 104.693 49.8315C104.305 50.0759 103.883 50.2065 103.428 50.2234C103.159 50.2402 102.906 50.2065 102.67 50.1222C102.434 50.0464 102.232 49.9326 102.063 49.7809C101.895 49.6208 101.76 49.4311 101.659 49.212C101.566 48.9845 101.519 48.7316 101.519 48.4535ZM105.641 45.9884C105.489 46.2075 105.291 46.3887 105.047 46.532C104.802 46.6752 104.549 46.8101 104.288 46.9365C104.119 47.0292 103.951 47.1219 103.782 47.2146C103.622 47.2989 103.479 47.3958 103.353 47.5054C103.226 47.6065 103.125 47.7287 103.049 47.872C102.973 48.0068 102.935 48.1627 102.935 48.3397C102.935 48.5083 102.965 48.6474 103.024 48.7569C103.091 48.8665 103.176 48.955 103.277 49.0224C103.378 49.0814 103.492 49.1235 103.618 49.1488C103.753 49.1741 103.892 49.1825 104.035 49.1741C104.347 49.1488 104.642 49.0519 104.92 48.8833C105.198 48.7063 105.438 48.5083 105.641 48.2892V45.9884ZM112.024 49.3637C111.78 49.6587 111.502 49.8862 111.19 50.0464C110.878 50.1981 110.566 50.2739 110.254 50.2739C109.858 50.2739 109.525 50.1433 109.256 49.882C108.994 49.6208 108.859 49.2162 108.851 48.6684V44.2185H108.143V43.9657L110.191 41.7028V43.5864H111.556V44.2185H110.242V48.542C110.242 48.8117 110.275 49.0392 110.343 49.2247C110.419 49.4101 110.596 49.5028 110.874 49.5028C111.169 49.5028 111.481 49.3679 111.809 49.0982L112.024 49.3637ZM115.366 50.1096H112.458L113.204 49.1615V44.6862L112.585 43.814L114.582 43.2704V49.1615L115.366 50.1096ZM114.822 41.273L113.785 42.436L112.698 41.5005L113.71 40.2869L114.822 41.273ZM115.987 46.8606C115.987 46.3381 116.063 45.8661 116.215 45.4448C116.375 45.0234 116.603 44.6652 116.898 44.3702C117.201 44.0752 117.563 43.8477 117.985 43.6875C118.415 43.5274 118.899 43.4473 119.439 43.4473C119.978 43.4473 120.458 43.5274 120.88 43.6875C121.301 43.8477 121.659 44.0752 121.954 44.3702C122.249 44.6567 122.473 45.0107 122.624 45.4321C122.785 45.8535 122.865 46.3213 122.865 46.8354C122.865 47.3579 122.789 47.8298 122.637 48.2512C122.485 48.6726 122.262 49.0308 121.967 49.3258C121.672 49.6208 121.31 49.8525 120.88 50.0211C120.458 50.1812 119.974 50.2613 119.426 50.2613C118.878 50.2613 118.389 50.1812 117.96 50.0211C117.538 49.861 117.18 49.6334 116.885 49.3384C116.59 49.035 116.367 48.6768 116.215 48.2639C116.063 47.8425 115.987 47.3747 115.987 46.8606ZM119.413 44.1174C118.832 44.1174 118.364 44.3491 118.01 44.8127C117.656 45.2762 117.479 45.9589 117.479 46.8606C117.479 47.754 117.656 48.4324 118.01 48.896C118.373 49.3595 118.844 49.5913 119.426 49.5913C119.999 49.5913 120.467 49.3595 120.829 48.896C121.2 48.4324 121.381 47.7329 121.373 46.7974C121.364 46.317 121.305 45.9083 121.196 45.5712C121.086 45.2341 120.939 44.9602 120.753 44.7495C120.576 44.5303 120.37 44.3702 120.134 44.2691C119.906 44.1679 119.666 44.1174 119.413 44.1174ZM127.693 43.4979C127.963 43.4979 128.215 43.5443 128.451 43.637C128.696 43.7213 128.907 43.8645 129.083 44.0668C129.269 44.2606 129.416 44.5135 129.526 44.8253C129.636 45.1371 129.69 45.5206 129.69 45.9757V49.1615L130.348 50.1096H127.668L128.3 49.1615V46.2918C128.3 45.6512 128.186 45.1793 127.958 44.8759C127.731 44.564 127.427 44.4081 127.048 44.4081C126.559 44.4081 126.049 44.6525 125.518 45.1414V49.1615L126.201 50.1096H123.483L124.153 49.1615L124.141 44.7368L123.508 43.776L125.518 43.283V44.4334C125.813 44.1553 126.151 43.9319 126.53 43.7634C126.918 43.5864 127.305 43.4979 127.693 43.4979ZM130.773 48.4535C130.773 48.108 130.845 47.8172 130.988 47.5812C131.132 47.3452 131.313 47.1472 131.532 46.9871C131.76 46.8185 132.012 46.6794 132.29 46.5699C132.569 46.4603 132.847 46.3592 133.125 46.2665C133.285 46.2075 133.462 46.1443 133.656 46.0768C133.858 46.0094 134.043 45.9294 134.212 45.8367C134.381 45.7355 134.524 45.6175 134.642 45.4827C134.76 45.3394 134.819 45.1666 134.819 44.9644C134.819 44.7705 134.768 44.6104 134.667 44.484C134.574 44.3491 134.44 44.2817 134.263 44.2817H132.758L131.671 45.7608L130.824 43.5864H136.424L136.273 44.2059V49.1615L136.968 50.1096H134.882V48.8833C134.646 49.2626 134.334 49.5786 133.947 49.8315C133.559 50.0759 133.137 50.2065 132.682 50.2234C132.413 50.2402 132.16 50.2065 131.924 50.1222C131.688 50.0464 131.486 49.9326 131.317 49.7809C131.148 49.6208 131.014 49.4311 130.913 49.212C130.82 48.9845 130.773 48.7316 130.773 48.4535ZM134.895 45.9884C134.743 46.2075 134.545 46.3887 134.301 46.532C134.056 46.6752 133.803 46.8101 133.542 46.9365C133.373 47.0292 133.205 47.1219 133.036 47.2146C132.876 47.2989 132.733 47.3958 132.607 47.5054C132.48 47.6065 132.379 47.7287 132.303 47.872C132.227 48.0068 132.189 48.1627 132.189 48.3397C132.189 48.5083 132.219 48.6474 132.278 48.7569C132.345 48.8665 132.43 48.955 132.531 49.0224C132.632 49.0814 132.746 49.1235 132.872 49.1488C133.007 49.1741 133.146 49.1825 133.289 49.1741C133.601 49.1488 133.896 49.0519 134.174 48.8833C134.452 48.7063 134.692 48.5083 134.895 48.2892V45.9884ZM140.102 50.1096H137.397L138.054 49.1615L138.042 42.0947L137.41 41.1339L139.42 40.6282V49.1615L140.102 50.1096ZM149.63 46.9112H146.28L145.521 48.9213L146.305 50.1096H143.852L144.902 48.7316L147.481 41.943L147.064 41.2603H149.301L151.855 48.896L152.613 50.1096H149.832L150.325 49.0856L149.63 46.9112ZM146.52 46.2791H149.428L148.05 42.3222H148.012L146.52 46.2791ZM157.021 43.4979C157.291 43.4979 157.543 43.5443 157.779 43.637C158.024 43.7213 158.235 43.8645 158.412 44.0668C158.597 44.2606 158.744 44.5135 158.854 44.8253C158.964 45.1371 159.018 45.5206 159.018 45.9757V49.1615L159.676 50.1096H156.996L157.628 49.1615V46.2918C157.628 45.6512 157.514 45.1793 157.286 44.8759C157.059 44.564 156.755 44.4081 156.376 44.4081C155.887 44.4081 155.377 44.6525 154.847 45.1414V49.1615L155.529 50.1096H152.811L153.481 49.1615L153.469 44.7368L152.836 43.776L154.847 43.283V44.4334C155.142 44.1553 155.479 43.9319 155.858 43.7634C156.246 43.5864 156.633 43.4979 157.021 43.4979ZM164.273 41.1339L166.372 40.6282V49.0477L167.156 50.1096H164.994V48.9213C164.749 49.3848 164.433 49.7219 164.046 49.9326C163.666 50.1433 163.262 50.2486 162.832 50.2486C162.419 50.2486 162.053 50.1644 161.732 49.9958C161.42 49.8188 161.155 49.5828 160.936 49.2879C160.725 48.9845 160.565 48.6347 160.455 48.2386C160.346 47.8425 160.291 47.4169 160.291 46.9618C160.291 46.4308 160.363 45.9504 160.506 45.5206C160.649 45.0908 160.843 44.7284 161.088 44.4334C161.34 44.13 161.635 43.8982 161.972 43.7381C162.31 43.5696 162.676 43.4853 163.072 43.4853C163.376 43.4853 163.696 43.5443 164.033 43.6623C164.379 43.7802 164.699 43.9783 164.994 44.2564V42.0947L164.273 41.1339ZM163.477 49.212C163.772 49.212 164.037 49.1362 164.273 48.9845C164.518 48.8328 164.758 48.6052 164.994 48.3018V45.0655C164.749 44.8295 164.513 44.6652 164.286 44.5725C164.058 44.4798 163.839 44.4334 163.629 44.4334C163.376 44.4334 163.136 44.4882 162.908 44.5978C162.689 44.7073 162.495 44.8674 162.326 45.0781C162.158 45.2888 162.023 45.5501 161.922 45.8619C161.829 46.1738 161.783 46.532 161.783 46.9365C161.783 47.7034 161.943 48.2765 162.263 48.6558C162.592 49.0266 162.996 49.212 163.477 49.212ZM96.2795 61.1096H93.2834L93.9913 60.0856L93.9787 53.1832L93.2454 52.2603H96.1657L95.521 53.1832V60.0856L96.2795 61.1096ZM101.183 54.4979C101.453 54.4979 101.705 54.5443 101.941 54.637C102.186 54.7213 102.396 54.8645 102.573 55.0668C102.759 55.2606 102.906 55.5135 103.016 55.8253C103.125 56.1371 103.18 56.5206 103.18 56.9757V60.1615L103.838 61.1096H101.158L101.79 60.1615V57.2918C101.79 56.6512 101.676 56.1793 101.448 55.8759C101.221 55.564 100.917 55.4081 100.538 55.4081C100.049 55.4081 99.5394 55.6525 99.0084 56.1414V60.1615L99.6911 61.1096H96.9731L97.6431 60.1615L97.6305 55.7368L96.9984 54.776L99.0084 54.283V55.4334C99.3034 55.1553 99.6405 54.9319 100.02 54.7634C100.407 54.5864 100.795 54.4979 101.183 54.4979ZM108.144 60.3637C107.9 60.6587 107.622 60.8862 107.31 61.0464C106.998 61.1981 106.686 61.2739 106.375 61.2739C105.978 61.2739 105.646 61.1433 105.376 60.882C105.115 60.6208 104.98 60.2162 104.971 59.6684V55.2185H104.263V54.9657L106.311 52.7028V54.5864H107.677V55.2185H106.362V59.542C106.362 59.8117 106.396 60.0392 106.463 60.2247C106.539 60.4101 106.716 60.5028 106.994 60.5028C107.289 60.5028 107.601 60.3679 107.93 60.0982L108.144 60.3637ZM110.285 58.202C110.327 58.9605 110.542 59.5378 110.93 59.9339C111.317 60.3216 111.806 60.5154 112.396 60.5154C112.742 60.5154 113.075 60.4354 113.395 60.2752C113.724 60.1151 114.061 59.8454 114.406 59.4662L114.76 59.7948C114.373 60.3005 113.955 60.6713 113.509 60.9073C113.062 61.1433 112.552 61.2613 111.979 61.2613C111.499 61.2613 111.06 61.1812 110.664 61.0211C110.268 60.8525 109.931 60.6208 109.653 60.3258C109.375 60.0308 109.16 59.6726 109.008 59.2512C108.857 58.8298 108.781 58.3621 108.781 57.848C108.781 57.3255 108.852 56.8577 108.996 56.4448C109.147 56.0234 109.362 55.6652 109.64 55.3702C109.927 55.0752 110.272 54.8477 110.677 54.6875C111.09 54.5274 111.549 54.4473 112.055 54.4473C112.645 54.4473 113.138 54.5485 113.534 54.7508C113.93 54.953 114.238 55.2269 114.457 55.5725C114.684 55.918 114.828 56.3183 114.887 56.7734C114.946 57.2285 114.933 57.7047 114.849 58.202H110.285ZM112.093 55.2185C111.874 55.2185 111.659 55.2649 111.448 55.3576C111.246 55.4418 111.06 55.5767 110.892 55.7621C110.723 55.9475 110.584 56.1919 110.475 56.4953C110.365 56.7903 110.298 57.1443 110.272 57.5572H113.471C113.488 57.3213 113.483 57.0684 113.458 56.7987C113.433 56.5206 113.37 56.2636 113.269 56.0276C113.176 55.7916 113.033 55.5978 112.839 55.4461C112.653 55.2943 112.405 55.2185 112.093 55.2185ZM116.344 60.1615V55.6483L115.56 54.5864H120.844L120.377 56.508L119.125 55.1932H118.341C118.097 55.1932 117.932 55.248 117.848 55.3576C117.764 55.4587 117.722 55.6441 117.722 55.9138V60.1741L118.531 61.1096H115.661L116.344 60.1615ZM124.998 54.4979C125.268 54.4979 125.521 54.5443 125.757 54.637C126.001 54.7213 126.212 54.8645 126.389 55.0668C126.574 55.2606 126.722 55.5135 126.831 55.8253C126.941 56.1371 126.996 56.5206 126.996 56.9757V60.1615L127.653 61.1096H124.973L125.605 60.1615V57.2918C125.605 56.6512 125.491 56.1793 125.264 55.8759C125.036 55.564 124.733 55.4081 124.354 55.4081C123.865 55.4081 123.355 55.6525 122.824 56.1414V60.1615L123.507 61.1096H120.789L121.459 60.1615L121.446 55.7368L120.814 54.776L122.824 54.283V55.4334C123.119 55.1553 123.456 54.9319 123.835 54.7634C124.223 54.5864 124.611 54.4979 124.998 54.4979ZM128.079 59.4535C128.079 59.108 128.151 58.8172 128.294 58.5812C128.437 58.3452 128.618 58.1472 128.837 57.9871C129.065 57.8185 129.318 57.6794 129.596 57.5699C129.874 57.4603 130.152 57.3592 130.43 57.2665C130.59 57.2075 130.767 57.1443 130.961 57.0768C131.164 57.0094 131.349 56.9294 131.517 56.8367C131.686 56.7355 131.829 56.6175 131.947 56.4827C132.065 56.3394 132.124 56.1666 132.124 55.9644C132.124 55.7705 132.074 55.6104 131.973 55.484C131.88 55.3491 131.745 55.2817 131.568 55.2817H130.064L128.976 56.7608L128.129 54.5864H133.73L133.578 55.2059V60.1615L134.273 61.1096H132.187V59.8833C131.952 60.2626 131.64 60.5786 131.252 60.8315C130.864 61.0759 130.443 61.2065 129.988 61.2234C129.718 61.2402 129.465 61.2065 129.229 61.1222C128.993 61.0464 128.791 60.9326 128.623 60.7809C128.454 60.6208 128.319 60.4311 128.218 60.212C128.125 59.9845 128.079 59.7316 128.079 59.4535ZM132.2 56.9884C132.048 57.2075 131.85 57.3887 131.606 57.532C131.362 57.6752 131.109 57.8101 130.847 57.9365C130.679 58.0292 130.51 58.1219 130.342 58.2146C130.182 58.2989 130.038 58.3958 129.912 58.5054C129.786 58.6065 129.684 58.7287 129.609 58.872C129.533 59.0068 129.495 59.1627 129.495 59.3397C129.495 59.5083 129.524 59.6474 129.583 59.7569C129.651 59.8665 129.735 59.955 129.836 60.0224C129.937 60.0814 130.051 60.1235 130.177 60.1488C130.312 60.1741 130.451 60.1825 130.595 60.1741C130.906 60.1488 131.201 60.0519 131.48 59.8833C131.758 59.7063 131.998 59.5083 132.2 59.2892V56.9884ZM138.584 60.3637C138.339 60.6587 138.061 60.8862 137.749 61.0464C137.437 61.1981 137.126 61.2739 136.814 61.2739C136.418 61.2739 136.085 61.1433 135.815 60.882C135.554 60.6208 135.419 60.2162 135.41 59.6684V55.2185H134.703V54.9657L136.751 52.7028V54.5864H138.116V55.2185H136.801V59.542C136.801 59.8117 136.835 60.0392 136.902 60.2247C136.978 60.4101 137.155 60.5028 137.433 60.5028C137.728 60.5028 138.04 60.3679 138.369 60.0982L138.584 60.3637ZM141.925 61.1096H139.018L139.763 60.1615V55.6862L139.144 54.814L141.141 54.2704V60.1615L141.925 61.1096ZM141.382 52.273L140.345 53.436L139.258 52.5005L140.269 51.2869L141.382 52.273ZM142.547 57.8606C142.547 57.3381 142.623 56.8661 142.774 56.4448C142.935 56.0234 143.162 55.6652 143.457 55.3702C143.76 55.0752 144.123 54.8477 144.544 54.6875C144.974 54.5274 145.459 54.4473 145.998 54.4473C146.537 54.4473 147.018 54.5274 147.439 54.6875C147.861 54.8477 148.219 55.0752 148.514 55.3702C148.809 55.6567 149.032 56.0107 149.184 56.4321C149.344 56.8535 149.424 57.3213 149.424 57.8354C149.424 58.3579 149.348 58.8298 149.196 59.2512C149.045 59.6726 148.821 60.0308 148.526 60.3258C148.231 60.6208 147.869 60.8525 147.439 61.0211C147.018 61.1812 146.533 61.2613 145.985 61.2613C145.438 61.2613 144.949 61.1812 144.519 61.0211C144.098 60.861 143.739 60.6334 143.444 60.3384C143.149 60.035 142.926 59.6768 142.774 59.2639C142.623 58.8425 142.547 58.3747 142.547 57.8606ZM145.973 55.1174C145.391 55.1174 144.924 55.3491 144.57 55.8127C144.216 56.2762 144.039 56.9589 144.039 57.8606C144.039 58.754 144.216 59.4324 144.57 59.896C144.932 60.3595 145.404 60.5913 145.985 60.5913C146.559 60.5913 147.026 60.3595 147.389 59.896C147.76 59.4324 147.941 58.7329 147.932 57.7974C147.924 57.317 147.865 56.9083 147.755 56.5712C147.646 56.2341 147.498 55.9602 147.313 55.7495C147.136 55.5303 146.929 55.3702 146.693 55.2691C146.466 55.1679 146.226 55.1174 145.973 55.1174ZM154.252 54.4979C154.522 54.4979 154.775 54.5443 155.011 54.637C155.255 54.7213 155.466 54.8645 155.643 55.0668C155.828 55.2606 155.976 55.5135 156.085 55.8253C156.195 56.1371 156.25 56.5206 156.25 56.9757V60.1615L156.907 61.1096H154.227L154.859 60.1615V57.2918C154.859 56.6512 154.745 56.1793 154.518 55.8759C154.29 55.564 153.987 55.4081 153.608 55.4081C153.119 55.4081 152.609 55.6525 152.078 56.1414V60.1615L152.761 61.1096H150.043L150.713 60.1615L150.7 55.7368L150.068 54.776L152.078 54.283V55.4334C152.373 55.1553 152.71 54.9319 153.089 54.7634C153.477 54.5864 153.865 54.4979 154.252 54.4979ZM157.333 59.4535C157.333 59.108 157.405 58.8172 157.548 58.5812C157.691 58.3452 157.872 58.1472 158.091 57.9871C158.319 57.8185 158.572 57.6794 158.85 57.5699C159.128 57.4603 159.406 57.3592 159.684 57.2665C159.844 57.2075 160.021 57.1443 160.215 57.0768C160.417 57.0094 160.603 56.9294 160.771 56.8367C160.94 56.7355 161.083 56.6175 161.201 56.4827C161.319 56.3394 161.378 56.1666 161.378 55.9644C161.378 55.7705 161.328 55.6104 161.227 55.484C161.134 55.3491 160.999 55.2817 160.822 55.2817H159.318L158.23 56.7608L157.383 54.5864H162.984L162.832 55.2059V60.1615L163.527 61.1096H161.441V59.8833C161.205 60.2626 160.894 60.5786 160.506 60.8315C160.118 61.0759 159.697 61.2065 159.242 61.2234C158.972 61.2402 158.719 61.2065 158.483 61.1222C158.247 61.0464 158.045 60.9326 157.876 60.7809C157.708 60.6208 157.573 60.4311 157.472 60.212C157.379 59.9845 157.333 59.7316 157.333 59.4535ZM161.454 56.9884C161.302 57.2075 161.104 57.3887 160.86 57.532C160.616 57.6752 160.363 57.8101 160.101 57.9365C159.933 58.0292 159.764 58.1219 159.596 58.2146C159.436 58.2989 159.292 58.3958 159.166 58.5054C159.04 58.6065 158.938 58.7287 158.863 58.872C158.787 59.0068 158.749 59.1627 158.749 59.3397C158.749 59.5083 158.778 59.6474 158.837 59.7569C158.905 59.8665 158.989 59.955 159.09 60.0224C159.191 60.0814 159.305 60.1235 159.431 60.1488C159.566 60.1741 159.705 60.1825 159.849 60.1741C160.16 60.1488 160.455 60.0519 160.734 59.8833C161.012 59.7063 161.252 59.5083 161.454 59.2892V56.9884ZM166.662 61.1096H163.957L164.614 60.1615L164.601 53.0947L163.969 52.1339L165.979 51.6282V60.1615L166.662 61.1096ZM111.657 69.7961C111.657 70.3018 111.53 70.719 111.277 71.0477C111.025 71.3679 110.704 71.6208 110.317 71.8062C109.937 71.9832 109.52 72.1012 109.065 72.1602C108.61 72.2276 108.18 72.2529 107.776 72.236C107.295 72.2192 106.798 72.1517 106.284 72.0337C105.77 71.9073 105.298 71.7135 104.868 71.4522V69.0882L106.499 71.3258C106.693 71.3848 106.941 71.4396 107.245 71.4901C107.548 71.5323 107.851 71.5491 108.155 71.5407C108.408 71.5323 108.656 71.5028 108.901 71.4522C109.145 71.3932 109.36 71.3089 109.545 71.1994C109.731 71.0814 109.878 70.9339 109.988 70.7569C110.106 70.5799 110.161 70.365 110.152 70.1122C110.152 69.7751 110.055 69.4969 109.862 69.2778C109.676 69.0587 109.444 68.8775 109.166 68.7342C108.897 68.5909 108.606 68.473 108.294 68.3802C107.982 68.2791 107.7 68.178 107.447 68.0768C107.144 67.9673 106.84 67.8493 106.537 67.7229C106.242 67.588 105.976 67.4279 105.74 67.2425C105.513 67.0486 105.323 66.8211 105.171 66.5598C105.028 66.2901 104.957 65.9699 104.957 65.599C104.957 65.1608 105.053 64.7858 105.247 64.4739C105.45 64.1537 105.719 63.8924 106.056 63.6901C106.402 63.4879 106.798 63.3404 107.245 63.2477C107.7 63.155 108.18 63.1086 108.686 63.1086C109.183 63.1086 109.663 63.1507 110.127 63.235C110.591 63.3193 110.991 63.4289 111.328 63.5637V66.2564H111.303L109.697 63.8545H109.685C109.583 63.8208 109.474 63.7955 109.356 63.7786C109.238 63.7533 109.12 63.7365 109.002 63.7281C108.926 63.7196 108.85 63.7154 108.774 63.7154C108.698 63.707 108.623 63.707 108.547 63.7154C108.302 63.7154 108.058 63.7449 107.814 63.8039C107.578 63.8545 107.358 63.9388 107.156 64.0567C106.962 64.1663 106.802 64.318 106.676 64.5119C106.558 64.7057 106.499 64.9417 106.499 65.2198C106.499 65.4473 106.541 65.6496 106.625 65.8266C106.71 65.9952 106.823 66.1426 106.967 66.2691C107.11 66.3955 107.274 66.5093 107.46 66.6104C107.653 66.7031 107.851 66.7874 108.054 66.8632C108.391 66.9896 108.77 67.1203 109.192 67.2551C109.613 67.39 110.005 67.5627 110.367 67.7734C110.73 67.9841 111.033 68.2496 111.277 68.5699C111.53 68.8901 111.657 69.2989 111.657 69.7961ZM114.425 66.3702C114.711 66.0752 115.044 65.8477 115.423 65.6875C115.803 65.5274 116.182 65.4473 116.561 65.4473C116.89 65.4473 117.206 65.5106 117.509 65.637C117.821 65.755 118.091 65.9404 118.318 66.1932C118.554 66.4461 118.74 66.7621 118.875 67.1414C119.009 67.5206 119.077 67.9673 119.077 68.4814C119.077 69.0461 118.993 69.5602 118.824 70.0237C118.664 70.4788 118.441 70.8707 118.154 71.1994C117.876 71.5281 117.547 71.7851 117.168 71.9705C116.797 72.1475 116.401 72.236 115.98 72.236C115.449 72.236 114.93 72.0843 114.425 71.7809V74.1955L115.221 75.27H112.301L113.047 74.1955V66.7368L112.402 65.7634L114.425 65.2704V66.3702ZM115.638 71.2879C115.959 71.2879 116.241 71.2204 116.485 71.0856C116.73 70.9423 116.932 70.7527 117.092 70.5167C117.261 70.2807 117.383 70.0026 117.459 69.6824C117.543 69.3621 117.585 69.0208 117.585 68.6584C117.585 67.942 117.438 67.3773 117.143 66.9644C116.856 66.5514 116.477 66.3449 116.005 66.3449C115.769 66.3449 115.516 66.4039 115.246 66.5219C114.985 66.6315 114.711 66.8084 114.425 67.0529V70.9971C114.644 71.0982 114.854 71.1741 115.057 71.2247C115.267 71.2668 115.461 71.2879 115.638 71.2879ZM121.421 69.202C121.463 69.9605 121.678 70.5378 122.066 70.9339C122.454 71.3216 122.942 71.5154 123.532 71.5154C123.878 71.5154 124.211 71.4354 124.531 71.2752C124.86 71.1151 125.197 70.8454 125.542 70.4662L125.896 70.7948C125.509 71.3005 125.092 71.6713 124.645 71.9073C124.198 72.1433 123.688 72.2613 123.115 72.2613C122.635 72.2613 122.197 72.1812 121.8 72.0211C121.404 71.8525 121.067 71.6208 120.789 71.3258C120.511 71.0308 120.296 70.6726 120.144 70.2512C119.993 69.8298 119.917 69.3621 119.917 68.848C119.917 68.3255 119.988 67.8577 120.132 67.4448C120.283 67.0234 120.498 66.6652 120.776 66.3702C121.063 66.0752 121.409 65.8477 121.813 65.6875C122.226 65.5274 122.685 65.4473 123.191 65.4473C123.781 65.4473 124.274 65.5485 124.67 65.7508C125.066 65.953 125.374 66.2269 125.593 66.5725C125.821 66.918 125.964 67.3183 126.023 67.7734C126.082 68.2285 126.069 68.7047 125.985 69.202H121.421ZM123.229 66.2185C123.01 66.2185 122.795 66.2649 122.584 66.3576C122.382 66.4418 122.197 66.5767 122.028 66.7621C121.859 66.9475 121.72 67.1919 121.611 67.4953C121.501 67.7903 121.434 68.1443 121.409 68.5572H124.607C124.624 68.3213 124.62 68.0684 124.594 67.7987C124.569 67.5206 124.506 67.2636 124.405 67.0276C124.312 66.7916 124.169 66.5978 123.975 66.4461C123.789 66.2943 123.541 66.2185 123.229 66.2185ZM126.696 70.4535C126.696 70.108 126.768 69.8172 126.911 69.5812C127.054 69.3452 127.236 69.1472 127.455 68.9871C127.682 68.8185 127.935 68.6794 128.213 68.5699C128.491 68.4603 128.769 68.3592 129.048 68.2665C129.208 68.2075 129.385 68.1443 129.579 68.0768C129.781 68.0094 129.966 67.9294 130.135 67.8367C130.303 67.7355 130.447 67.6175 130.565 67.4827C130.683 67.3394 130.742 67.1666 130.742 66.9644C130.742 66.7705 130.691 66.6104 130.59 66.484C130.497 66.3491 130.362 66.2817 130.185 66.2817H128.681L127.594 67.7608L126.747 65.5864H132.347L132.195 66.2059V71.1615L132.891 72.1096H130.805V70.8833C130.569 71.2626 130.257 71.5786 129.869 71.8315C129.482 72.0759 129.06 72.2065 128.605 72.2234C128.335 72.2402 128.083 72.2065 127.847 72.1222C127.611 72.0464 127.408 71.9326 127.24 71.7809C127.071 71.6208 126.936 71.4311 126.835 71.212C126.743 70.9845 126.696 70.7316 126.696 70.4535ZM130.817 67.9884C130.666 68.2075 130.468 68.3887 130.223 68.532C129.979 68.6752 129.726 68.8101 129.465 68.9365C129.296 69.0292 129.128 69.1219 128.959 69.2146C128.799 69.2989 128.656 69.3958 128.529 69.5054C128.403 69.6065 128.302 69.7287 128.226 69.872C128.15 70.0068 128.112 70.1627 128.112 70.3397C128.112 70.5083 128.142 70.6474 128.201 70.7569C128.268 70.8665 128.352 70.955 128.453 71.0224C128.555 71.0814 128.668 71.1235 128.795 71.1488C128.93 71.1741 129.069 71.1825 129.212 71.1741C129.524 71.1488 129.819 71.0519 130.097 70.8833C130.375 70.7063 130.615 70.5083 130.817 70.2892V67.9884ZM140.033 65.599L137.403 67.6723L139.375 71.035L140.412 72.1096H138.452L136.303 68.494L135.355 69.2525V71.1615L136.025 72.1096H133.32L133.977 71.1615V64.0947L133.345 63.1339L135.355 62.6282V68.5193L137.934 66.484L137.378 65.599H140.033ZM142.033 69.202C142.075 69.9605 142.29 70.5378 142.678 70.9339C143.065 71.3216 143.554 71.5154 144.144 71.5154C144.49 71.5154 144.822 71.4354 145.143 71.2752C145.471 71.1151 145.809 70.8454 146.154 70.4662L146.508 70.7948C146.12 71.3005 145.703 71.6713 145.256 71.9073C144.81 72.1433 144.3 72.2613 143.727 72.2613C143.246 72.2613 142.808 72.1812 142.412 72.0211C142.016 71.8525 141.679 71.6208 141.401 71.3258C141.123 71.0308 140.908 70.6726 140.756 70.2512C140.604 69.8298 140.528 69.3621 140.528 68.848C140.528 68.3255 140.6 67.8577 140.743 67.4448C140.895 67.0234 141.11 66.6652 141.388 66.3702C141.675 66.0752 142.02 65.8477 142.425 65.6875C142.838 65.5274 143.297 65.4473 143.803 65.4473C144.393 65.4473 144.886 65.5485 145.282 65.7508C145.678 65.953 145.985 66.2269 146.205 66.5725C146.432 66.918 146.575 67.3183 146.634 67.7734C146.693 68.2285 146.681 68.7047 146.597 69.202H142.033ZM143.841 66.2185C143.621 66.2185 143.407 66.2649 143.196 66.3576C142.994 66.4418 142.808 66.5767 142.64 66.7621C142.471 66.9475 142.332 67.1919 142.222 67.4953C142.113 67.7903 142.045 68.1443 142.02 68.5572H145.219C145.235 68.3213 145.231 68.0684 145.206 67.7987C145.181 67.5206 145.117 67.2636 145.016 67.0276C144.924 66.7916 144.78 66.5978 144.586 66.4461C144.401 66.2943 144.152 66.2185 143.841 66.2185ZM148.092 71.1615V66.6483L147.308 65.5864H152.592L152.124 67.508L150.873 66.1932H150.089C149.845 66.1932 149.68 66.248 149.596 66.3576C149.512 66.4587 149.47 66.6441 149.47 66.9138V71.1741L150.279 72.1096H147.409L148.092 71.1615ZM158.099 68.001L156.544 66.307C156.401 66.248 156.257 66.2101 156.114 66.1932C155.971 66.1764 155.836 66.1679 155.709 66.1679C155.566 66.1679 155.419 66.1806 155.267 66.2059C155.115 66.2227 154.968 66.2564 154.825 66.307C154.69 66.3576 154.568 66.4292 154.458 66.5219C154.357 66.6062 154.281 66.7115 154.23 66.8379C154.197 66.9222 154.18 67.0065 154.18 67.0908C154.18 67.2678 154.226 67.4195 154.319 67.5459C154.42 67.6723 154.546 67.7861 154.698 67.8872C154.858 67.9799 155.039 68.0642 155.242 68.1401C155.452 68.2159 155.672 68.2918 155.899 68.3676C156.152 68.4603 156.405 68.5572 156.658 68.6584C156.919 68.7511 157.155 68.8691 157.366 69.0123C157.576 69.1472 157.753 69.3115 157.897 69.5054C158.048 69.6908 158.141 69.9183 158.175 70.188C158.225 70.6347 158.158 70.9971 157.972 71.2752C157.787 71.5449 157.538 71.7556 157.227 71.9073C156.915 72.0506 156.573 72.1475 156.203 72.1981C155.832 72.2486 155.482 72.2739 155.153 72.2739C154.976 72.2739 154.782 72.2571 154.572 72.2234C154.369 72.1981 154.163 72.1602 153.952 72.1096C153.75 72.059 153.548 72 153.345 71.9326C153.143 71.8652 152.954 71.7935 152.777 71.7177V69.6065L154.344 71.4396C154.496 71.4901 154.648 71.5281 154.799 71.5533C154.951 71.5702 155.098 71.5744 155.242 71.566C155.385 71.566 155.537 71.5533 155.697 71.5281C155.857 71.4944 156.009 71.4522 156.152 71.4016C156.295 71.3511 156.422 71.2879 156.531 71.212C156.641 71.1277 156.721 71.0266 156.771 70.9086C156.805 70.8243 156.822 70.7527 156.822 70.6937C156.83 70.5167 156.771 70.3608 156.645 70.226C156.519 70.0827 156.363 69.9563 156.177 69.8467C155.992 69.7371 155.794 69.6444 155.583 69.5686C155.381 69.4927 155.2 69.4253 155.039 69.3663C154.77 69.2736 154.5 69.1725 154.23 69.0629C153.961 68.9533 153.716 68.8227 153.497 68.671C153.278 68.5193 153.101 68.3423 152.966 68.1401C152.831 67.9294 152.764 67.6765 152.764 67.3815C152.764 67.1034 152.827 66.8506 152.954 66.623C153.08 66.3871 153.265 66.1848 153.51 66.0162C153.754 65.8392 154.058 65.7044 154.42 65.6117C154.782 65.5106 155.2 65.46 155.672 65.46C156.068 65.46 156.481 65.4937 156.91 65.5611C157.34 65.6285 157.736 65.7339 158.099 65.8772V68.001Z" fill="white"/>
<path d="M117.6 34.8737H117.085V34.6211H115.155L114.387 34.7525C113.022 34.4088 112.244 34.237 112.062 34.237L111.415 34.4897C111.335 34.4897 111.294 34.4493 111.294 34.3583C110.122 34.5402 109.394 34.6211 109.101 34.6211L108.454 34.4897C108.282 34.5806 108.151 34.6211 108.07 34.6211C106.605 33.7822 105.877 32.8322 105.877 31.7812C105.877 29.9216 106.989 27.779 109.232 25.3434C109.505 25.3434 110.102 24.7875 111.031 23.6657C112.032 22.8168 112.76 22.3822 113.224 22.3822C113.133 22.8067 113.042 23.0189 112.962 23.0189L113.093 23.2817L112.84 23.9285H113.093V24.0497L111.547 25.7274L111.678 26.3742C111.415 26.3742 111.072 26.7178 110.647 27.4051C111.335 29.0423 112.022 29.8508 112.709 29.8508L113.356 29.7195H113.992C114.073 29.7195 114.124 29.77 114.124 29.8508C114.73 29.8508 115.468 29.4668 116.317 28.6886C116.741 28.628 116.964 28.5067 116.964 28.3046V25.9902C116.964 25.8386 117.085 25.4545 117.348 24.8279C117.257 24.5247 117.216 24.3529 117.216 24.3125C117.469 23.8779 117.6 23.4434 117.6 23.0189C117.449 23.0189 117.318 22.8067 117.216 22.3822C117.297 21.796 117.348 21.321 117.348 20.9572V20.8359C117.348 20.6338 116.529 20.2093 114.902 19.5423H114.639C114.558 19.5423 114.215 19.6332 113.608 19.805H112.84C112.254 19.2896 111.87 19.0268 111.678 19.0268L111.415 19.1582L111.163 19.0268C110.991 19.1178 110.859 19.1582 110.779 19.1582V19.0268C110.455 19.2088 110.112 19.2896 109.748 19.2896C109.566 19.2896 109.485 19.2088 109.485 19.0268V18.6428C109.485 18.4609 110.122 17.5614 111.415 15.9343C111.931 14.5699 113.053 13.2864 114.771 12.0736L115.023 11.164V10.78L114.255 10.9114C114.083 10.8305 113.952 10.78 113.871 10.78C113.699 10.871 113.568 10.9114 113.477 10.9114L113.224 10.78C112.608 10.9619 112.133 11.0428 111.81 11.0428C110.859 10.9619 110.384 10.8305 110.384 10.6486L110.132 10.78H108.97L108.202 10.6486C107.939 10.6688 107.676 11.0124 107.423 11.6795C106.817 11.821 106.524 12.0433 106.524 12.3263H106.14V12.1949C106.14 11.9422 106.18 11.8108 106.261 11.8108C106.089 11.1034 106.008 10.3252 106.008 9.49648H106.14C105.958 9.03158 105.877 8.4353 105.877 7.68742C105.958 6.51508 106.008 5.78741 106.008 5.49433H106.908L107.686 5.62571C107.757 5.62571 108.1 5.50443 108.717 5.24167C109.263 5.41348 109.606 5.49433 109.748 5.49433C110.334 5.33262 110.849 5.24167 111.294 5.24167C111.294 5.35284 111.587 5.6055 112.194 6.00976H112.325C112.325 5.66614 112.709 5.49433 113.477 5.49433L114.124 5.62571L115.286 5.49433C115.893 5.58529 116.236 5.62571 116.317 5.62571L117.479 5.37305L117.732 5.49433C118.166 5.33262 118.47 5.24167 118.631 5.24167C119.076 5.33262 119.339 5.37305 119.41 5.37305L120.056 5.24167C120.481 5.41348 120.693 5.54486 120.693 5.62571L121.34 5.49433H121.724C121.896 5.52465 121.987 5.6156 121.987 5.75709L121.724 6.27252C121.987 6.61614 122.158 7.22253 122.239 8.07147C122.239 8.16243 122.199 8.20285 122.118 8.20285L122.239 8.84966V8.98105L122.118 9.23371C122.28 9.26403 122.371 9.35499 122.371 9.49648C122.371 9.66829 121.896 10.0928 120.956 10.78C119.238 12.9832 118.379 14.2263 118.379 14.5194C118.601 14.5194 118.904 14.8226 119.278 15.4188C121.421 15.9848 122.502 16.7933 122.502 17.8646L122.371 18.1274C122.623 18.855 122.755 19.3705 122.755 19.6737V19.9263C122.755 20.5529 122.623 22.2306 122.371 24.9593C122.391 25.1311 122.482 25.212 122.633 25.212C122.34 26.6774 122.169 27.4051 122.118 27.4051L122.239 27.6577L122.118 28.5673L122.239 29.3354C122.078 29.4264 121.946 29.4668 121.855 29.4668L121.987 29.7195V30.1136C121.987 30.3056 121.936 30.4774 121.855 30.629L121.987 30.8817C121.987 31.6599 121.593 32.4381 120.824 33.2062C120.824 33.8934 120.178 34.4088 118.894 34.7525C118.419 34.6716 118.075 34.6211 117.863 34.6211C117.863 34.7929 117.772 34.8737 117.6 34.8737ZM133.336 35.1365C132.83 34.6211 132.527 34.3583 132.426 34.3583H131.911C131.83 34.3583 131.486 34.4493 130.88 34.6211C130.213 34.6211 129.01 34.5806 127.272 34.4897L126.504 34.6211C125.311 34.2572 124.664 33.8328 124.563 33.3679C124.462 32.903 124.382 31.7711 124.311 29.9822C124.614 28.7593 124.958 27.7689 125.342 27.021C126.089 25.9902 126.989 25.0806 128.05 24.3125H128.434L128.303 25.212V25.8588C128.303 26.0306 128.384 26.4551 128.566 27.1423C128.475 27.3141 128.434 27.4455 128.434 27.5365C128.434 27.9609 129.03 28.2641 130.243 28.4359C130.243 28.6077 130.455 28.6886 130.88 28.6886C132.921 28.4157 134.033 28.2035 134.235 28.0519C134.468 27.7689 134.64 27.2939 134.751 26.6269L134.488 25.596C134.549 25.4545 134.64 24.9391 134.751 24.0497C134.225 23.979 133.973 23.504 133.973 22.6348C134.144 21.1795 134.235 20.371 134.235 20.1891C133.983 19.7646 133.72 19.5423 133.457 19.5423C132.921 19.8253 132.446 20.1183 132.042 20.4417H131.911C131.628 20.4417 131.416 20.4013 131.274 20.3205L130.627 20.4417C129.94 20.3811 129.596 20.0375 129.596 19.4109H129.212C128.94 19.5726 127.99 19.8253 126.372 20.1891L125.473 20.0577C125.008 20.1487 124.614 20.1891 124.311 20.1891V19.6737H124.574C124.574 19.5726 124.523 19.138 124.442 18.38C124.523 18.0869 124.574 17.9151 124.574 17.8646C124.483 17.7029 124.442 17.5816 124.442 17.4806C124.786 16.7529 124.958 16.1162 124.958 15.5502C124.776 15.2673 124.695 15.0146 124.695 14.772V14.6508C124.958 13.721 125.129 12.4374 125.21 10.78C125.038 9.93105 124.786 9.24381 124.442 8.71828C124.695 7.22253 124.826 6.28263 124.826 5.88848V5.24167C124.826 4.89805 125.594 4.72624 127.151 4.72624C127.312 4.8172 127.434 4.85762 127.535 4.85762L127.787 4.72624C128.576 4.92837 129.091 5.10018 129.334 5.24167C129.475 5.24167 129.738 5.16082 130.112 4.9789C130.263 4.9789 130.567 5.28209 131.011 5.88848H131.143C131.143 5.6055 131.608 5.43369 132.558 5.37305C133.002 5.4539 133.265 5.49433 133.336 5.49433C135.115 5.15071 136.054 4.9789 136.166 4.9789C136.509 5.16082 136.772 5.24167 136.944 5.24167C137.853 4.98901 138.541 4.85762 139.006 4.85762H139.127L139.521 5.11028L140.036 4.72624H140.158V4.85762L139.642 6.27252C139.642 6.71721 139.774 8.09168 140.036 10.3959C139.844 10.3959 139.673 10.7396 139.521 11.4268H139.39C139.066 11.4268 138.682 11.255 138.227 10.9114H138.096C137.783 11.1741 137.479 11.2954 137.196 11.2954C136.994 11.2954 136.823 11.255 136.681 11.164L136.428 11.2954C136.267 11.2146 136.095 11.164 135.913 11.164L135.003 11.5582C134.771 11.5582 133.952 11.2146 132.558 10.5273C131.85 10.8406 131.082 11.0933 130.243 11.2954C130.152 11.447 130.112 11.6188 130.112 11.8108V13.3571C130.112 13.4481 130.061 13.4885 129.98 13.4885L130.112 13.7412L129.98 14.0039C130.061 14.1758 130.112 14.3071 130.112 14.388H131.011C131.274 14.388 131.911 14.5598 132.942 14.9034L133.588 14.772C133.629 14.772 133.801 14.8226 134.104 14.9034L134.619 14.6508C136.823 15.1965 138.116 15.5805 138.49 15.8029L139.642 17.3492C139.723 18.7944 139.774 19.9162 139.774 20.7045V20.8359L139.258 22.7662V23.413C139.258 24.2317 139.379 24.9189 139.642 25.4747C139.521 26.3338 139.258 26.7583 138.874 26.7583C139.299 27.2131 139.521 27.5567 139.521 27.7891C139.43 28.9109 139.39 29.8104 139.39 30.4976V30.8817C138.591 32.7716 138.035 33.9338 137.712 34.3583C136.257 34.3583 134.791 34.6211 133.336 35.1365ZM148.141 34.3583V34.237L147.889 34.3583H147.757C147.495 34.1562 146.888 33.9439 145.958 33.7216C144.321 32.6099 143.502 31.4072 143.502 30.1136C143.28 29.9115 143.068 29.5679 142.866 29.0827L142.987 28.3046C142.815 28.3046 142.563 27.3647 142.219 25.4747L142.472 24.5652C142.391 23.4332 142.259 22.4428 142.088 21.604C142.088 21.5231 142.259 20.9572 142.603 19.9263C142.259 19.5524 142.088 19.3401 142.088 19.2896V18.7742C142.088 18.6933 142.128 18.6428 142.219 18.6428C142.219 18.5619 142.168 18.5114 142.088 18.5114L142.219 17.6119V17.3492C142.037 16.096 141.956 15.4087 141.956 15.2875V14.2566C141.956 14.1758 141.997 14.1353 142.088 14.1353C141.916 13.7513 141.835 13.1651 141.835 12.3869C141.835 11.9827 141.916 11.6188 142.088 11.2954C141.997 11.1539 141.956 10.9821 141.956 10.78C142.805 8.55658 143.705 7.43476 144.665 7.43476C145.696 6.74753 146.726 6.2321 147.757 5.88848C147.757 5.50443 148.141 5.24167 148.92 5.11028C148.92 5.02943 148.96 4.9789 149.051 4.9789H149.566C149.647 4.9789 149.688 5.02943 149.688 5.11028L149.95 4.9789H150.466L151.881 6.27252H152.265C152.457 6.27252 152.629 6.2321 152.78 6.14114C153.73 6.14114 155.105 7.47519 156.904 10.1332C157.075 11.1741 157.166 12.0332 157.166 12.7103C157.166 13.3369 157.116 14.0242 157.035 14.772L157.298 16.197H157.166L157.298 16.4497C156.954 17.4098 156.782 17.9657 156.782 18.1274C157.126 18.6428 157.298 19.0268 157.298 19.2896V19.805C157.035 21.4019 156.904 22.3519 156.904 22.6348V22.8976C156.904 23.4029 157.075 24.3024 157.419 25.596V26.5056C157.247 27.112 157.166 27.4556 157.166 27.5365V28.5673C156.924 28.8705 156.752 29.4668 156.651 30.3663C156.105 31.7003 155.458 32.428 154.721 32.5594C153.286 33.4184 152.426 33.8429 152.143 33.8429C151.941 33.8429 151.77 33.8934 151.628 33.9743C150.658 33.8126 150.011 33.7216 149.688 33.7216C149.485 33.7216 148.97 33.9338 148.141 34.3583ZM149.172 29.4668C150.435 29.4668 151.335 28.6987 151.881 27.1423C151.881 25.8386 152.265 24.9391 153.043 24.4439V24.1811C152.639 24.1609 152.376 23.0088 152.265 20.7045C152.265 20.5428 152.346 20.1992 152.528 19.6737L152.396 19.4109L152.528 19.1582C152.346 18.7641 152.265 18.3295 152.265 17.8646L152.396 17.3492C152.305 17.2077 152.265 17.0359 152.265 16.8337C152.386 16.1465 152.517 15.8029 152.659 15.8029C152.224 15.1359 152.012 14.0646 152.012 12.589C151.921 12.589 151.881 12.5082 151.881 12.3263C151.881 12.2454 151.921 12.114 152.012 11.9422C152.012 11.0327 151.406 10.5172 150.203 10.3959C148.485 10.8811 147.545 11.4369 147.373 12.0736L147.11 12.4577V13.2258L147.242 13.8726C146.979 13.8726 146.858 14.3476 146.858 15.2875V15.5502C147.201 16.9045 147.373 18.4508 147.373 20.1891C147.373 20.3508 147.242 20.9167 146.989 21.8668C146.989 22.2912 147.11 22.5035 147.373 22.5035V22.7662C147.373 23.4838 147.201 24.4742 146.858 25.7274C146.918 26.3338 146.999 26.6269 147.11 26.6269L146.989 27.2737V27.6577C146.989 28.6077 147.717 29.2141 149.172 29.4668Z" fill="white"/>
<path d="M165.08 11.7995V8.95699H162.237V8.26706H165.08V5.41074H165.77V8.26706H168.626V8.95699H165.77V11.7995H165.08Z" fill="white"/>
<path d="M205.039 53.8182H202.99L200.025 45.2648L199.621 44.1471L198.798 42.9518H202.182L201.546 44.085L204.418 52.3125L204.666 52.5764L207.802 44.2868L206.917 42.9518H209.789L208.718 44.2247L208.174 45.5287L205.039 53.8182ZM210.664 50.2478C210.716 51.1793 210.98 51.8882 211.456 52.3746C211.932 52.8506 212.532 53.0886 213.256 53.0886C213.681 53.0886 214.089 52.9903 214.483 52.7937C214.886 52.5971 215.3 52.2659 215.725 51.8002L216.159 52.2038C215.683 52.8247 215.171 53.2801 214.622 53.5699C214.074 53.8596 213.448 54.0045 212.744 54.0045C212.154 54.0045 211.616 53.9062 211.13 53.7096C210.643 53.5026 210.229 53.218 209.888 52.8558C209.546 52.4936 209.282 52.0537 209.096 51.5363C208.91 51.0188 208.817 50.4445 208.817 49.8132C208.817 49.1715 208.905 48.5972 209.081 48.0901C209.267 47.5726 209.531 47.1328 209.872 46.7706C210.224 46.4084 210.648 46.1289 211.145 45.9323C211.652 45.7357 212.216 45.6374 212.837 45.6374C213.562 45.6374 214.167 45.7616 214.653 46.0099C215.14 46.2583 215.518 46.5946 215.787 47.019C216.066 47.4433 216.242 47.9348 216.315 48.4937C216.387 49.0525 216.371 49.6373 216.268 50.2478H210.664ZM212.884 46.5843C212.615 46.5843 212.351 46.6412 212.092 46.7551C211.844 46.8585 211.616 47.0241 211.409 47.2518C211.202 47.4795 211.031 47.7796 210.897 48.1522C210.762 48.5144 210.679 48.949 210.648 49.4561H214.576C214.597 49.1664 214.591 48.8559 214.56 48.5247C214.529 48.1832 214.452 47.8676 214.328 47.5778C214.214 47.288 214.038 47.05 213.8 46.8637C213.572 46.6774 213.267 46.5843 212.884 46.5843ZM222.311 45.6995C222.642 45.6995 222.952 45.7564 223.242 45.8702C223.542 45.9737 223.801 46.1496 224.018 46.398C224.246 46.636 224.427 46.9465 224.562 47.3294C224.696 47.7123 224.763 48.1832 224.763 48.7421V52.654L225.571 53.8182H222.28L223.056 52.654V49.1302C223.056 48.3436 222.916 47.7641 222.637 47.3915C222.357 47.0086 221.985 46.8172 221.519 46.8172C220.919 46.8172 220.293 47.1173 219.641 47.7175V52.654L220.479 53.8182H217.141L217.964 52.654L217.949 47.2208L217.172 46.041L219.641 45.4356V46.8482C220.003 46.5067 220.417 46.2324 220.883 46.0255C221.359 45.8081 221.835 45.6995 222.311 45.6995ZM233.033 45.8081V52.654L233.903 53.8182H231.341V52.3435C230.948 52.9645 230.524 53.3991 230.068 53.6475C229.623 53.8855 229.158 54.0045 228.671 54.0045C228.34 54.0045 228.024 53.9476 227.724 53.8338C227.434 53.7199 227.176 53.544 226.948 53.306C226.731 53.0576 226.555 52.7419 226.42 52.359C226.296 51.9658 226.234 51.4949 226.234 50.9464V46.9724L225.411 45.8081H228.702L227.942 46.9724L227.926 50.5117C227.926 50.9671 227.962 51.3397 228.035 51.6294C228.118 51.9192 228.221 52.1469 228.345 52.3125C228.48 52.4677 228.625 52.5764 228.78 52.6385C228.945 52.6902 229.111 52.7161 229.277 52.7161C229.68 52.7161 230.063 52.6022 230.425 52.3746C230.788 52.1365 231.093 51.8468 231.341 51.5052V46.9724L230.518 45.8081H233.033ZM236.52 50.2478C236.571 51.1793 236.835 51.8882 237.311 52.3746C237.787 52.8506 238.388 53.0886 239.112 53.0886C239.536 53.0886 239.945 52.9903 240.338 52.7937C240.742 52.5971 241.156 52.2659 241.58 51.8002L242.015 52.2038C241.539 52.8247 241.027 53.2801 240.478 53.5699C239.93 53.8596 239.304 54.0045 238.6 54.0045C238.01 54.0045 237.472 53.9062 236.985 53.7096C236.499 53.5026 236.085 53.218 235.743 52.8558C235.402 52.4936 235.138 52.0537 234.952 51.5363C234.765 51.0188 234.672 50.4445 234.672 49.8132C234.672 49.1715 234.76 48.5972 234.936 48.0901C235.123 47.5726 235.386 47.1328 235.728 46.7706C236.08 46.4084 236.504 46.1289 237.001 45.9323C237.508 45.7357 238.072 45.6374 238.693 45.6374C239.417 45.6374 240.023 45.7616 240.509 46.0099C240.996 46.2583 241.373 46.5946 241.642 47.019C241.922 47.4433 242.098 47.9348 242.17 48.4937C242.243 49.0525 242.227 49.6373 242.124 50.2478H236.52ZM238.74 46.5843C238.47 46.5843 238.207 46.6412 237.948 46.7551C237.699 46.8585 237.472 47.0241 237.265 47.2518C237.058 47.4795 236.887 47.7796 236.753 48.1522C236.618 48.5144 236.535 48.949 236.504 49.4561H240.432C240.452 49.1664 240.447 48.8559 240.416 48.5247C240.385 48.1832 240.307 47.8676 240.183 47.5778C240.069 47.288 239.893 47.05 239.655 46.8637C239.428 46.6774 239.122 46.5843 238.74 46.5843ZM249.827 48.7731L247.918 46.693C247.742 46.6205 247.566 46.574 247.39 46.5533C247.214 46.5326 247.049 46.5222 246.893 46.5222C246.718 46.5222 246.536 46.5377 246.35 46.5688C246.164 46.5895 245.983 46.6309 245.807 46.693C245.641 46.7551 245.491 46.843 245.357 46.9569C245.232 47.0604 245.139 47.1897 245.077 47.345C245.036 47.4484 245.015 47.5519 245.015 47.6554C245.015 47.8728 245.072 48.059 245.186 48.2143C245.31 48.3695 245.465 48.5092 245.652 48.6334C245.848 48.7472 246.071 48.8507 246.319 48.9439C246.578 49.037 246.847 49.1302 247.126 49.2233C247.437 49.3371 247.747 49.4561 248.058 49.5803C248.379 49.6942 248.668 49.8391 248.927 50.015C249.186 50.1806 249.403 50.3824 249.579 50.6204C249.765 50.8481 249.879 51.1275 249.921 51.4587C249.983 52.0072 249.9 52.4522 249.672 52.7937C249.444 53.1249 249.139 53.3836 248.756 53.5699C248.373 53.7458 247.954 53.8648 247.499 53.9269C247.044 53.989 246.614 54.0201 246.21 54.0201C245.993 54.0201 245.755 53.9994 245.496 53.958C245.248 53.9269 244.994 53.8803 244.736 53.8182C244.487 53.7562 244.239 53.6837 243.991 53.6009C243.742 53.5181 243.509 53.4302 243.292 53.337V50.7446L245.217 52.9955C245.403 53.0576 245.589 53.1042 245.776 53.1352C245.962 53.1559 246.143 53.1611 246.319 53.1507C246.495 53.1507 246.681 53.1352 246.878 53.1042C247.075 53.0628 247.261 53.011 247.437 52.9489C247.613 52.8868 247.768 52.8092 247.902 52.7161C248.037 52.6126 248.135 52.4884 248.197 52.3435C248.239 52.24 248.26 52.1521 248.26 52.0796C248.27 51.8623 248.197 51.6708 248.042 51.5052C247.887 51.3293 247.696 51.1741 247.468 51.0395C247.24 50.905 246.997 50.7912 246.738 50.698C246.49 50.6049 246.267 50.5221 246.071 50.4496C245.74 50.3358 245.408 50.2116 245.077 50.0771C244.746 49.9425 244.446 49.7821 244.177 49.5959C243.908 49.4096 243.69 49.1922 243.525 48.9439C243.359 48.6851 243.276 48.3747 243.276 48.0125C243.276 47.6709 243.354 47.3605 243.509 47.0811C243.665 46.7913 243.892 46.5429 244.192 46.3359C244.493 46.1186 244.865 45.953 245.31 45.8392C245.755 45.715 246.267 45.6529 246.847 45.6529C247.333 45.6529 247.84 45.6943 248.368 45.7771C248.896 45.8599 249.382 45.9892 249.827 46.1652V48.7731Z" fill="white"/>
<path d="M213.035 34.8741V34.7528L212.782 34.8741H212.651C212.388 34.672 211.781 34.4597 210.852 34.2374C209.214 33.1257 208.396 31.923 208.396 30.6294C208.173 30.4273 207.961 30.0837 207.759 29.5985L207.88 28.8204C207.708 28.8204 207.456 27.8805 207.112 25.9906L207.365 25.081C207.284 23.9491 207.153 22.9586 206.981 22.1198C206.981 22.0389 207.153 21.473 207.496 20.4421C207.153 20.0682 206.981 19.8559 206.981 19.8054V19.29C206.981 19.2091 207.021 19.1586 207.112 19.1586C207.112 19.0777 207.062 19.0272 206.981 19.0272L207.112 18.1277V17.865C206.93 16.6118 206.849 15.9245 206.849 15.8033V14.7724C206.849 14.6916 206.89 14.6511 206.981 14.6511C206.809 14.2671 206.728 13.6809 206.728 12.9027C206.728 12.4985 206.809 12.1346 206.981 11.8112C206.89 11.6697 206.849 11.4979 206.849 11.2958C207.698 9.07238 208.598 7.95056 209.558 7.95056C210.589 7.26333 211.62 6.7479 212.651 6.40428C212.651 6.02023 213.035 5.75747 213.813 5.62608C213.813 5.54523 213.853 5.4947 213.944 5.4947H214.46C214.54 5.4947 214.581 5.54523 214.581 5.62608L214.844 5.4947H215.359L216.774 6.78832H217.158C217.35 6.78832 217.522 6.7479 217.673 6.65694C218.623 6.65694 219.998 7.99099 221.797 10.649C221.969 11.6899 222.06 12.549 222.06 13.2261C222.06 13.8527 222.009 14.54 221.928 15.2878L222.191 16.7128H222.06L222.191 16.9655C221.847 17.9256 221.676 18.4815 221.676 18.6432C222.019 19.1586 222.191 19.5426 222.191 19.8054V20.3208C221.928 21.9177 221.797 22.8677 221.797 23.1506V23.4134C221.797 23.9187 221.969 24.8182 222.312 26.1118V27.0214C222.14 27.6278 222.06 27.9714 222.06 28.0523V29.0831C221.817 29.3863 221.645 29.9826 221.544 30.8821C220.998 32.2161 220.352 32.9438 219.614 33.0752C218.179 33.9342 217.32 34.3587 217.037 34.3587C216.835 34.3587 216.663 34.4092 216.521 34.4901C215.551 34.3284 214.904 34.2374 214.581 34.2374C214.379 34.2374 213.863 34.4496 213.035 34.8741ZM214.065 29.9826C215.329 29.9826 216.228 29.2145 216.774 27.6581C216.774 26.3544 217.158 25.4549 217.936 24.9597V24.6969C217.532 24.6767 217.269 23.5246 217.158 21.2203C217.158 21.0586 217.239 20.715 217.421 20.1895L217.289 19.9267L217.421 19.674C217.239 19.2799 217.158 18.8453 217.158 18.3804L217.289 17.865C217.198 17.7235 217.158 17.5517 217.158 17.3495C217.279 16.6623 217.411 16.3187 217.552 16.3187C217.118 15.6517 216.905 14.5804 216.905 13.1048C216.814 13.1048 216.774 13.024 216.774 12.8421C216.774 12.7612 216.814 12.6298 216.905 12.458C216.905 11.5485 216.299 11.033 215.096 10.9117C213.378 11.3969 212.438 11.9527 212.266 12.5894L212.004 12.9735V13.7416L212.135 14.3884C211.872 14.3884 211.751 14.8634 211.751 15.8033V16.066C212.095 17.4203 212.266 18.9666 212.266 20.7049C212.266 20.8666 212.135 21.4325 211.882 22.3826C211.882 22.807 212.004 23.0193 212.266 23.0193V23.282C212.266 23.9996 212.095 24.99 211.751 26.2432C211.812 26.8496 211.893 27.1427 212.004 27.1427L211.882 27.7895V28.1735C211.882 29.1235 212.61 29.7299 214.065 29.9826ZM232.075 35.3895L231.943 35.1369C231.943 34.3486 232.236 33.6108 232.843 32.9438V32.5597L232.721 32.297C233.318 31.165 233.621 30.397 233.621 29.9826C233.469 29.9826 233.257 29.5581 232.974 28.689C233.055 28.0321 233.186 27.4762 233.358 27.0214L233.106 23.7975L233.237 23.5347C233.237 22.423 232.843 21.8671 232.075 21.8671L231.175 21.2203C230.862 21.2203 230.478 21.2708 230.013 21.3517L229.366 20.9575C229.366 21.1395 229.275 21.2203 229.113 21.2203C228.992 21.2203 228.517 21.1395 227.688 20.9575H227.436C226.627 20.9575 225.98 21.1294 225.505 21.473C223.949 21.473 223.181 20.7857 223.181 19.4113C223.09 19.4113 223.05 19.2395 223.05 18.8958C223.221 17.582 223.312 16.5916 223.312 15.9346C223.221 15.3283 223.181 14.9846 223.181 14.9038H223.312L223.181 14.6511C223.181 14.3479 223.737 13.1453 224.859 11.0431C224.859 10.6187 225.03 10.1437 225.374 9.61813C225.859 8.08195 226.597 7.30375 227.567 7.30375C227.85 6.61651 228.234 6.2729 228.719 6.2729L228.851 6.52556L228.204 10.649C228.204 10.7197 228.376 11.1947 228.719 12.074C228.719 12.2357 228.628 12.5389 228.467 12.9735C228.467 13.0139 228.507 13.1857 228.598 13.4889C228.507 13.9437 228.467 14.3681 228.467 14.7724C228.942 15.5405 229.366 15.9346 229.75 15.9346V16.066C230.872 15.5506 231.65 15.2878 232.075 15.2878H232.721C232.721 15.0352 232.762 14.9038 232.843 14.9038L232.59 13.6203C232.59 13.3777 232.711 12.5187 232.974 11.0431C232.974 10.9219 232.924 10.3155 232.843 9.23408C233.106 8.6378 233.237 8.21333 233.237 7.95056C233.055 6.57609 232.974 5.84843 232.974 5.75747H233.106L232.974 5.4947V5.24204C232.994 5.07023 233.085 4.97927 233.237 4.97927H233.752L234.52 5.11066C234.803 4.94895 235.056 4.85799 235.299 4.85799H235.683L237.229 5.88885H237.613C238.219 5.71704 238.987 5.58566 239.937 5.4947V5.88885C239.412 6.72768 239.159 7.66758 239.159 8.71865L238.775 9.36546C238.775 9.45642 238.816 9.49685 238.907 9.49685C238.725 10.0022 238.593 11.4575 238.512 13.8729C238.593 14.6814 238.644 15.4596 238.644 16.1974C238.26 16.6219 238.007 16.8341 237.876 16.8341C238.037 17.4001 238.128 17.7841 238.128 17.9964V18.8958C238.128 19.098 238.078 19.2698 237.997 19.4113C238.078 19.5831 238.128 19.7145 238.128 19.8054C238.128 19.8964 238.078 20.0278 237.997 20.1895C238.078 20.7554 238.209 21.19 238.391 21.473C238.209 21.9177 238.128 22.2208 238.128 22.3826C238.3 24.1006 238.391 25.2629 238.391 25.8592C238.391 26.5262 238.219 27.1326 237.876 27.6581C237.987 27.7794 238.118 28.2039 238.26 28.9517L238.128 29.5985V30.8821C238.128 32.8427 238.512 34.0454 239.291 34.4901L239.422 34.7528C239.281 35.0964 239.149 35.2683 239.028 35.2683H238.512C238.037 35.2683 237.441 35.2278 236.714 35.1369C236.562 35.2278 236.39 35.2683 236.198 35.2683C235.895 35.2683 235.683 34.9246 235.551 34.2374H235.299C235.299 34.7528 235.208 35.0055 235.036 35.0055C234.945 35.0055 234.814 34.9651 234.652 34.8741C234.308 34.9651 234.005 35.0055 233.752 35.0055L233.49 34.8741L232.843 35.2683C232.762 35.2683 232.721 35.2278 232.721 35.1369C232.439 35.3087 232.216 35.3895 232.075 35.3895Z" fill="white"/>
<path d="M246.768 11.7995V8.95699H243.926V8.26706H246.768V5.41074H247.458V8.26706H250.315V8.95699H247.458V11.7995H246.768Z" fill="white"/>
<path d="M293.168 51.6931L294.907 49.2869V52.4693H286.757L287.611 51.2119V42.736L286.71 41.6028H290.529L289.504 42.736V51.6931H293.168ZM295.435 50.4357C295.435 50.0114 295.523 49.6543 295.699 49.3646C295.875 49.0748 296.097 48.8316 296.366 48.635C296.646 48.428 296.956 48.2572 297.298 48.1227C297.639 47.9881 297.981 47.864 298.322 47.7501C298.519 47.6777 298.736 47.6001 298.974 47.5173C299.223 47.4345 299.45 47.3362 299.657 47.2223C299.864 47.0981 300.04 46.9532 300.185 46.7877C300.33 46.6117 300.402 46.3996 300.402 46.1512C300.402 45.9132 300.34 45.7165 300.216 45.5613C300.102 45.3957 299.937 45.3129 299.719 45.3129H297.872L296.537 47.1292L295.497 44.4591H302.374L302.188 45.2198V51.305L303.041 52.4693H300.48V50.9635C300.19 51.4292 299.807 51.8173 299.331 52.1277C298.855 52.4279 298.338 52.5883 297.779 52.609C297.448 52.6297 297.137 52.5883 296.847 52.4848C296.558 52.3916 296.309 52.2519 296.102 52.0656C295.895 51.869 295.73 51.6362 295.606 51.3671C295.492 51.0877 295.435 50.7772 295.435 50.4357ZM300.496 47.4086C300.309 47.6777 300.066 47.9002 299.766 48.0761C299.466 48.252 299.155 48.4176 298.835 48.5729C298.628 48.6867 298.421 48.8005 298.214 48.9144C298.017 49.0179 297.841 49.1369 297.686 49.2714C297.531 49.3956 297.406 49.5457 297.313 49.7216C297.22 49.8872 297.173 50.0786 297.173 50.296C297.173 50.5029 297.21 50.6737 297.282 50.8082C297.365 50.9428 297.468 51.0514 297.593 51.1342C297.717 51.2067 297.857 51.2584 298.012 51.2895C298.177 51.3205 298.348 51.3309 298.524 51.3205C298.907 51.2895 299.269 51.1705 299.611 50.9635C299.952 50.7461 300.247 50.5029 300.496 50.2339V47.4086ZM311.811 44.4747L308.582 47.0205L311.004 51.1498L312.277 52.4693H309.871L307.232 48.0295L306.068 48.9609V51.305L306.89 52.4693H303.568L304.376 51.305V42.6274L303.599 41.4476L306.068 40.8266V48.0606L309.234 45.5613L308.551 44.4747H311.811ZM317.341 44.3505C317.672 44.3505 317.983 44.4074 318.272 44.5212C318.573 44.6247 318.831 44.8007 319.049 45.049C319.276 45.2871 319.452 45.5975 319.576 45.9804C319.711 46.3633 319.778 46.8342 319.778 47.3931V51.305L320.601 52.4693H317.294L318.071 51.305V47.8277C318.071 47.3724 318.029 47.005 317.946 46.7256C317.874 46.4358 317.771 46.2081 317.636 46.0425C317.512 45.8769 317.367 45.7683 317.201 45.7165C317.036 45.6544 316.865 45.6234 316.689 45.6234C316.296 45.6234 315.934 45.7269 315.602 45.9339C315.282 46.1305 314.966 46.3789 314.655 46.679L314.671 51.305L315.494 52.4693H312.172L312.979 51.305L312.963 42.6274L312.203 41.4321L314.655 40.8266V45.4992C315.018 45.1577 315.432 44.8834 315.897 44.6765C316.373 44.4591 316.855 44.3505 317.341 44.3505ZM327.954 47.4241L326.045 45.344C325.869 45.2715 325.693 45.225 325.517 45.2043C325.341 45.1836 325.175 45.1732 325.02 45.1732C324.844 45.1732 324.663 45.1887 324.477 45.2198C324.291 45.2405 324.109 45.2819 323.934 45.344C323.768 45.4061 323.618 45.494 323.483 45.6079C323.359 45.7114 323.266 45.8407 323.204 45.996C323.163 46.0995 323.142 46.2029 323.142 46.3064C323.142 46.5238 323.199 46.71 323.313 46.8653C323.437 47.0205 323.592 47.1602 323.778 47.2844C323.975 47.3982 324.197 47.5017 324.446 47.5949C324.705 47.688 324.974 47.7812 325.253 47.8743C325.564 47.9881 325.874 48.1072 326.184 48.2313C326.505 48.3452 326.795 48.4901 327.054 48.666C327.312 48.8316 327.53 49.0334 327.706 49.2714C327.892 49.4991 328.006 49.7785 328.047 50.1097C328.109 50.6582 328.027 51.1032 327.799 51.4447C327.571 51.7759 327.266 52.0346 326.883 52.2209C326.5 52.3968 326.081 52.5158 325.626 52.5779C325.17 52.64 324.741 52.6711 324.337 52.6711C324.12 52.6711 323.882 52.6504 323.623 52.609C323.375 52.5779 323.121 52.5313 322.862 52.4693C322.614 52.4072 322.366 52.3347 322.117 52.2519C321.869 52.1691 321.636 52.0812 321.419 51.988V49.3956L323.344 51.6465C323.53 51.7086 323.716 51.7552 323.903 51.7862C324.089 51.8069 324.27 51.8121 324.446 51.8017C324.622 51.8017 324.808 51.7862 325.005 51.7552C325.201 51.7138 325.388 51.662 325.564 51.5999C325.739 51.5378 325.895 51.4602 326.029 51.3671C326.164 51.2636 326.262 51.1394 326.324 50.9945C326.366 50.891 326.386 50.8031 326.386 50.7306C326.397 50.5133 326.324 50.3218 326.169 50.1563C326.014 49.9803 325.822 49.8251 325.595 49.6905C325.367 49.556 325.124 49.4422 324.865 49.349C324.617 49.2559 324.394 49.1731 324.197 49.1007C323.866 48.9868 323.535 48.8626 323.204 48.7281C322.873 48.5936 322.573 48.4331 322.304 48.2469C322.035 48.0606 321.817 47.8433 321.652 47.5949C321.486 47.3362 321.403 47.0257 321.403 46.6635C321.403 46.322 321.481 46.0115 321.636 45.7321C321.791 45.4423 322.019 45.1939 322.319 44.9869C322.619 44.7696 322.992 44.604 323.437 44.4902C323.882 44.366 324.394 44.3039 324.974 44.3039C325.46 44.3039 325.967 44.3453 326.495 44.4281C327.023 44.5109 327.509 44.6402 327.954 44.8162V47.4241ZM281.783 63.4693H279.383L279.953 62.6593V57.1993L279.353 56.4693H282.193C283.12 56.4693 283.83 56.6593 284.323 57.0393C284.817 57.4193 285.063 57.9659 285.063 58.6793C285.063 59.0459 284.997 59.3759 284.863 59.6693C284.73 59.9626 284.54 60.2126 284.293 60.4193C284.047 60.6193 283.747 60.7759 283.393 60.8893C283.04 60.9959 282.64 61.0493 282.193 61.0493H281.183V62.6593L281.783 63.4693ZM281.183 56.9693V60.5493H282.043C282.617 60.5493 283.047 60.3859 283.333 60.0593C283.62 59.7326 283.763 59.2859 283.763 58.7193C283.763 58.1526 283.62 57.7193 283.333 57.4193C283.047 57.1193 282.643 56.9693 282.123 56.9693H281.183ZM285.276 62.1593C285.276 61.8859 285.333 61.6559 285.446 61.4693C285.56 61.2826 285.703 61.1259 285.876 60.9993C286.056 60.8659 286.256 60.7559 286.476 60.6693C286.696 60.5826 286.916 60.5026 287.136 60.4293C287.263 60.3826 287.403 60.3326 287.556 60.2793C287.716 60.2259 287.863 60.1626 287.996 60.0893C288.13 60.0093 288.243 59.9159 288.336 59.8093C288.43 59.6959 288.476 59.5593 288.476 59.3993C288.476 59.2459 288.436 59.1193 288.356 59.0193C288.283 58.9126 288.176 58.8593 288.036 58.8593H286.846L285.986 60.0293L285.316 58.3093H289.746L289.626 58.7993V62.7193L290.176 63.4693H288.526V62.4993C288.34 62.7993 288.093 63.0493 287.786 63.2493C287.48 63.4426 287.146 63.5459 286.786 63.5593C286.573 63.5726 286.373 63.5459 286.186 63.4793C286 63.4193 285.84 63.3293 285.706 63.2093C285.573 63.0826 285.466 62.9326 285.386 62.7593C285.313 62.5793 285.276 62.3793 285.276 62.1593ZM288.536 60.2093C288.416 60.3826 288.26 60.5259 288.066 60.6393C287.873 60.7526 287.673 60.8593 287.466 60.9593C287.333 61.0326 287.2 61.1059 287.066 61.1793C286.94 61.2459 286.826 61.3226 286.726 61.4093C286.626 61.4893 286.546 61.5859 286.486 61.6993C286.426 61.8059 286.396 61.9293 286.396 62.0693C286.396 62.2026 286.42 62.3126 286.466 62.3993C286.52 62.4859 286.586 62.5559 286.666 62.6093C286.746 62.6559 286.836 62.6893 286.936 62.7093C287.043 62.7293 287.153 62.7359 287.266 62.7293C287.513 62.7093 287.746 62.6326 287.966 62.4993C288.186 62.3593 288.376 62.2026 288.536 62.0293V60.2093ZM291.136 62.7193V59.1493L290.516 58.3093H294.696L294.326 59.8293L293.336 58.7893H292.716C292.523 58.7893 292.393 58.8326 292.326 58.9193C292.259 58.9993 292.226 59.1459 292.226 59.3593V62.7293L292.866 63.4693H290.596L291.136 62.7193ZM297.722 62.8793C297.529 63.1126 297.309 63.2926 297.062 63.4193C296.815 63.5393 296.569 63.5993 296.322 63.5993C296.009 63.5993 295.745 63.4959 295.532 63.2893C295.325 63.0826 295.219 62.7626 295.212 62.3293V58.8093H294.652V58.6093L296.272 56.8193V58.3093H297.352V58.8093H296.312V62.2293C296.312 62.4426 296.339 62.6226 296.392 62.7693C296.452 62.9159 296.592 62.9893 296.812 62.9893C297.045 62.9893 297.292 62.8826 297.552 62.6693L297.722 62.8793ZM300.365 63.4693H298.065L298.655 62.7193V59.1793L298.165 58.4893L299.745 58.0593V62.7193L300.365 63.4693ZM299.935 56.4793L299.115 57.3993L298.255 56.6593L299.055 55.6993L299.935 56.4793ZM305.007 59.9093L304.107 58.7793C304.054 58.7659 304 58.7593 303.947 58.7593C303.9 58.7593 303.854 58.7593 303.807 58.7593C303.5 58.7593 303.234 58.8193 303.007 58.9393C302.787 59.0526 302.604 59.2126 302.457 59.4193C302.317 59.6193 302.21 59.8559 302.137 60.1293C302.07 60.3959 302.037 60.6826 302.037 60.9893C302.037 61.3159 302.077 61.6059 302.157 61.8593C302.244 62.1126 302.36 62.3259 302.507 62.4993C302.654 62.6659 302.824 62.7959 303.017 62.8893C303.217 62.9759 303.427 63.0193 303.647 63.0193C303.78 63.0193 303.91 63.0093 304.037 62.9893C304.164 62.9693 304.294 62.9293 304.427 62.8693C304.567 62.8093 304.707 62.7259 304.847 62.6193C304.994 62.5059 305.154 62.3559 305.327 62.1693L305.607 62.4293C305.267 62.8559 304.88 63.1593 304.447 63.3393C304.014 63.5126 303.59 63.5926 303.177 63.5793C302.81 63.5593 302.484 63.4793 302.197 63.3393C301.91 63.1926 301.667 63.0026 301.467 62.7693C301.267 62.5359 301.114 62.2659 301.007 61.9593C300.907 61.6459 300.857 61.3126 300.857 60.9593C300.857 60.5326 300.927 60.1493 301.067 59.8093C301.214 59.4693 301.414 59.1826 301.667 58.9493C301.927 58.7093 302.234 58.5293 302.587 58.4093C302.947 58.2826 303.344 58.2193 303.777 58.2193C304.017 58.2193 304.267 58.2359 304.527 58.2693C304.794 58.2959 305.06 58.3326 305.327 58.3793L305.007 59.9093ZM308.129 63.4693H305.829L306.419 62.7193V59.1793L305.929 58.4893L307.509 58.0593V62.7193L308.129 63.4693ZM307.699 56.4793L306.879 57.3993L306.019 56.6593L306.819 55.6993L307.699 56.4793ZM310.151 58.9293C310.378 58.6959 310.641 58.5159 310.941 58.3893C311.241 58.2626 311.541 58.1993 311.841 58.1993C312.101 58.1993 312.351 58.2493 312.591 58.3493C312.838 58.4426 313.051 58.5893 313.231 58.7893C313.418 58.9893 313.564 59.2393 313.671 59.5393C313.778 59.8393 313.831 60.1926 313.831 60.5993C313.831 61.0459 313.764 61.4526 313.631 61.8193C313.504 62.1793 313.328 62.4893 313.101 62.7493C312.881 63.0093 312.621 63.2126 312.321 63.3593C312.028 63.4993 311.714 63.5693 311.381 63.5693C310.961 63.5693 310.551 63.4493 310.151 63.2093V65.1193L310.781 65.9693H308.471L309.061 65.1193V59.2193L308.551 58.4493L310.151 58.0593V58.9293ZM311.111 62.8193C311.364 62.8193 311.588 62.7659 311.781 62.6593C311.974 62.5459 312.134 62.3959 312.261 62.2093C312.394 62.0226 312.491 61.8026 312.551 61.5493C312.618 61.2959 312.651 61.0259 312.651 60.7393C312.651 60.1726 312.534 59.7259 312.301 59.3993C312.074 59.0726 311.774 58.9093 311.401 58.9093C311.214 58.9093 311.014 58.9559 310.801 59.0493C310.594 59.1359 310.378 59.2759 310.151 59.4693V62.5893C310.324 62.6693 310.491 62.7293 310.651 62.7693C310.818 62.8026 310.971 62.8193 311.111 62.8193ZM314.335 62.1593C314.335 61.8859 314.392 61.6559 314.505 61.4693C314.619 61.2826 314.762 61.1259 314.935 60.9993C315.115 60.8659 315.315 60.7559 315.535 60.6693C315.755 60.5826 315.975 60.5026 316.195 60.4293C316.322 60.3826 316.462 60.3326 316.615 60.2793C316.775 60.2259 316.922 60.1626 317.055 60.0893C317.189 60.0093 317.302 59.9159 317.395 59.8093C317.489 59.6959 317.535 59.5593 317.535 59.3993C317.535 59.2459 317.495 59.1193 317.415 59.0193C317.342 58.9126 317.235 58.8593 317.095 58.8593H315.905L315.045 60.0293L314.375 58.3093H318.805L318.685 58.7993V62.7193L319.235 63.4693H317.585V62.4993C317.399 62.7993 317.152 63.0493 316.845 63.2493C316.539 63.4426 316.205 63.5459 315.845 63.5593C315.632 63.5726 315.432 63.5459 315.245 63.4793C315.059 63.4193 314.899 63.3293 314.765 63.2093C314.632 63.0826 314.525 62.9326 314.445 62.7593C314.372 62.5793 314.335 62.3793 314.335 62.1593ZM317.595 60.2093C317.475 60.3826 317.319 60.5259 317.125 60.6393C316.932 60.7526 316.732 60.8593 316.525 60.9593C316.392 61.0326 316.259 61.1059 316.125 61.1793C315.999 61.2459 315.885 61.3226 315.785 61.4093C315.685 61.4893 315.605 61.5859 315.545 61.6993C315.485 61.8059 315.455 61.9293 315.455 62.0693C315.455 62.2026 315.479 62.3126 315.525 62.3993C315.579 62.4859 315.645 62.5559 315.725 62.6093C315.805 62.6559 315.895 62.6893 315.995 62.7093C316.102 62.7293 316.212 62.7359 316.325 62.7293C316.572 62.7093 316.805 62.6326 317.025 62.4993C317.245 62.3593 317.435 62.2026 317.595 62.0293V60.2093ZM322.905 58.2393C323.118 58.2393 323.318 58.2759 323.505 58.3493C323.698 58.4159 323.865 58.5293 324.005 58.6893C324.152 58.8426 324.268 59.0426 324.355 59.2893C324.442 59.5359 324.485 59.8393 324.485 60.1993V62.7193L325.005 63.4693H322.885L323.385 62.7193V60.4493C323.385 59.9426 323.295 59.5693 323.115 59.3293C322.935 59.0826 322.695 58.9593 322.395 58.9593C322.008 58.9593 321.605 59.1526 321.185 59.5393V62.7193L321.725 63.4693H319.575L320.105 62.7193L320.095 59.2193L319.595 58.4593L321.185 58.0693V58.9793C321.418 58.7593 321.685 58.5826 321.985 58.4493C322.292 58.3093 322.598 58.2393 322.905 58.2393ZM329.642 59.9093L328.742 58.7793C328.688 58.7659 328.635 58.7593 328.582 58.7593C328.535 58.7593 328.488 58.7593 328.442 58.7593C328.135 58.7593 327.868 58.8193 327.642 58.9393C327.422 59.0526 327.238 59.2126 327.092 59.4193C326.952 59.6193 326.845 59.8559 326.772 60.1293C326.705 60.3959 326.672 60.6826 326.672 60.9893C326.672 61.3159 326.712 61.6059 326.792 61.8593C326.878 62.1126 326.995 62.3259 327.142 62.4993C327.288 62.6659 327.458 62.7959 327.652 62.8893C327.852 62.9759 328.062 63.0193 328.282 63.0193C328.415 63.0193 328.545 63.0093 328.672 62.9893C328.798 62.9693 328.928 62.9293 329.062 62.8693C329.202 62.8093 329.342 62.7259 329.482 62.6193C329.628 62.5059 329.788 62.3559 329.962 62.1693L330.242 62.4293C329.902 62.8559 329.515 63.1593 329.082 63.3393C328.648 63.5126 328.225 63.5926 327.812 63.5793C327.445 63.5593 327.118 63.4793 326.832 63.3393C326.545 63.1926 326.302 63.0026 326.102 62.7693C325.902 62.5359 325.748 62.2659 325.642 61.9593C325.542 61.6459 325.492 61.3126 325.492 60.9593C325.492 60.5326 325.562 60.1493 325.702 59.8093C325.848 59.4693 326.048 59.1826 326.302 58.9493C326.562 58.7093 326.868 58.5293 327.222 58.4093C327.582 58.2826 327.978 58.2193 328.412 58.2193C328.652 58.2193 328.902 58.2359 329.162 58.2693C329.428 58.2959 329.695 58.3326 329.962 58.3793L329.642 59.9093ZM331.814 61.1693C331.847 61.7693 332.017 62.2259 332.324 62.5393C332.631 62.8459 333.017 62.9993 333.484 62.9993C333.757 62.9993 334.021 62.9359 334.274 62.8093C334.534 62.6826 334.801 62.4693 335.074 62.1693L335.354 62.4293C335.047 62.8293 334.717 63.1226 334.364 63.3093C334.011 63.4959 333.607 63.5893 333.154 63.5893C332.774 63.5893 332.427 63.5259 332.114 63.3993C331.801 63.2659 331.534 63.0826 331.314 62.8493C331.094 62.6159 330.924 62.3326 330.804 61.9993C330.684 61.6659 330.624 61.2959 330.624 60.8893C330.624 60.4759 330.681 60.1059 330.794 59.7793C330.914 59.4459 331.084 59.1626 331.304 58.9293C331.531 58.6959 331.804 58.5159 332.124 58.3893C332.451 58.2626 332.814 58.1993 333.214 58.1993C333.681 58.1993 334.071 58.2793 334.384 58.4393C334.697 58.5993 334.941 58.8159 335.114 59.0893C335.294 59.3626 335.407 59.6793 335.454 60.0393C335.501 60.3993 335.491 60.7759 335.424 61.1693H331.814ZM333.244 58.8093C333.071 58.8093 332.901 58.8459 332.734 58.9193C332.574 58.9859 332.427 59.0926 332.294 59.2393C332.161 59.3859 332.051 59.5793 331.964 59.8193C331.877 60.0526 331.824 60.3326 331.804 60.6593H334.334C334.347 60.4726 334.344 60.2726 334.324 60.0593C334.304 59.8393 334.254 59.6359 334.174 59.4493C334.101 59.2626 333.987 59.1093 333.834 58.9893C333.687 58.8693 333.491 58.8093 333.244 58.8093Z" fill="white"/>
<path d="M299.104 35.5463C297.982 35.3037 297.427 34.8287 297.427 34.1213H297.174C296.739 34.1213 296.355 34.384 296.012 34.8995L295.365 35.0309C294.698 35.0309 294.314 34.5154 294.203 33.4846C293.859 33.1612 293.647 32.8175 293.566 32.4537C293.647 31.4229 293.728 30.9074 293.819 30.9074C293.819 30.8266 293.768 30.776 293.687 30.776L293.819 30.1292C293.819 29.7452 293.768 29.1893 293.687 28.4516C293.859 27.6026 293.95 26.8244 293.95 26.1372C293.95 25.5712 293.859 24.6212 293.687 23.2973C293.687 23.1053 293.728 22.9335 293.819 22.7819C293.728 22.1957 293.687 21.7308 293.687 21.367V20.4574C293.687 20.3866 293.768 20.043 293.95 19.4265V19.1739C293.515 18.9111 293.303 17.8398 293.303 15.9499V15.0504C293.303 14.2925 293.344 13.4334 293.435 12.4733L293.303 11.8265C293.586 8.63285 293.849 6.8238 294.081 6.40943C294.526 5.81315 294.829 5.50996 294.981 5.50996C295.072 5.50996 295.203 5.56049 295.365 5.64134L296.012 5.50996C296.871 5.56049 297.305 5.64134 297.305 5.76262C297.841 5.66156 298.265 5.54028 298.589 5.37858L298.852 5.50996L299.62 5.37858C300.347 5.98496 300.863 6.27805 301.166 6.27805C301.166 5.98496 302.278 5.7323 304.521 5.50996C305.027 5.5706 305.289 5.69188 305.289 5.894C305.734 5.81315 305.997 5.76262 306.068 5.76262C307.098 5.76262 307.614 6.36901 307.614 7.57167C307.867 8.29934 308.119 9.33019 308.382 10.6642C308.311 11.0079 308.23 11.1797 308.129 11.1797C308.291 11.594 308.463 12.5845 308.645 14.1409C308.645 14.3329 308.594 14.8079 308.513 15.5659C308.594 16.8292 308.645 17.9409 308.645 18.9111H308.513L308.645 19.1739V19.3052C308.645 20.7606 308.554 21.4882 308.382 21.4882C308.554 21.9329 308.645 22.5797 308.645 23.4287C308.523 23.4287 308.392 23.651 308.261 24.0755C308.079 24.1058 307.998 24.1867 307.998 24.3281L308.513 25.2276L308.382 26.0058L308.513 26.5212C308.422 27.4207 308.382 28.1484 308.382 28.7143C308.382 28.8053 308.422 28.9367 308.513 29.0984L307.867 31.6755C307.947 31.8473 307.998 31.9787 307.998 32.0596C307.846 32.0798 307.371 32.9388 306.583 34.6367C306.34 34.9803 305.956 35.2431 305.421 35.4149C304.471 35.2027 304.006 35.0309 304.006 34.8995L302.712 35.0309H302.46C301.954 35.0309 301.267 34.9904 300.398 34.8995L299.104 35.5463ZM302.065 30.3819C302.328 30.301 302.46 30.2202 302.46 30.1292C302.369 29.6846 302.328 29.4218 302.328 29.351C302.652 28.6638 302.995 28.3202 303.359 28.3202L303.49 28.0675H303.228C303.228 27.6026 303.187 26.7941 303.106 25.6218C303.187 24.6111 303.228 23.8835 303.228 23.4287C303.228 23.3478 303.187 23.2973 303.106 23.2973L303.228 22.6505V22.0037C303.228 21.1547 303.137 20.7201 302.975 20.7201L303.106 20.2047C303.015 19.4467 302.975 18.9717 302.975 18.7898C303.743 18.2239 304.137 17.8802 304.137 17.759C303.612 17.001 303.359 16.3137 303.359 15.6871H303.49C303.49 15.6063 303.44 15.5659 303.359 15.5659C303.41 14.8786 303.501 14.535 303.622 14.535L303.49 13.8882V13.3728C303.49 13.0898 303.612 12.7866 303.875 12.4733C303.875 12.0084 303.44 11.4121 302.581 10.6642C302.53 10.6642 302.227 10.7552 301.681 10.927H300.651C300.469 11.2706 300.256 11.4424 300.004 11.4424C299.317 11.4424 298.973 11.2706 298.973 10.927H298.72C298.72 11.1898 298.629 11.7456 298.457 12.5946C298.538 13.5041 298.589 14.2318 298.589 14.7877H298.457L298.589 15.0504V15.3031C298.589 15.485 298.245 15.6568 297.558 15.8185L297.427 16.0813C298.286 16.627 298.72 16.9707 298.72 17.1121C298.72 17.5164 298.67 17.951 298.589 18.3957C298.67 19.4568 298.72 20.4877 298.72 21.4882C298.72 21.7308 298.629 21.9834 298.457 22.2664C298.72 23.1356 298.852 23.9441 298.852 24.7122C298.589 25.1468 298.457 25.4904 298.457 25.743C298.629 26.2888 298.72 26.7133 298.72 27.0367L298.589 27.9361C298.67 28.1079 298.72 28.2393 298.72 28.3202H298.589C298.67 28.9064 299.135 29.5532 300.004 30.2606C300.499 30.2606 301.186 30.301 302.065 30.3819ZM314.87 35.6777H313.708V35.4149H313.576C313.364 35.5968 313.233 35.6777 313.192 35.6777H312.808C312.434 35.6777 312.091 35.5968 311.777 35.4149C311.777 35.1319 312.07 34.2729 312.677 32.8378V32.7165L312.545 31.8069C312.606 31.1197 312.687 30.776 312.808 30.776L312.677 30.5234V27.8149C312.677 25.6521 312.798 23.0244 313.061 19.9521C313.061 19.8914 313.02 19.6388 312.94 19.184L313.061 18.2845C312.98 17.385 312.94 16.6574 312.94 16.0914H313.061C312.889 15.7478 312.808 15.485 312.808 15.3132H312.677C312.182 15.8994 311.626 16.2834 310.999 16.4754C310.615 17.001 310.271 17.2536 309.968 17.2536C309.625 16.5058 309.453 15.9398 309.453 15.576V14.9292C309.796 14.535 310.221 13.1201 310.746 10.6743C311.252 9.94668 311.767 8.53178 312.293 6.42965C312.849 6.16688 313.364 6.03549 313.839 6.03549L315.001 6.16688C315.163 6.08603 315.284 6.03549 315.385 6.03549C315.385 6.29826 315.557 6.42965 315.901 6.42965C316.982 6.42965 317.801 6.25784 318.347 5.91422H318.478V6.42965C318.478 6.5105 318.427 6.55092 318.347 6.55092C318.347 6.64188 318.387 6.68231 318.478 6.68231C318.478 6.78337 318.427 6.90465 318.347 7.06635L318.731 9.39083C318.731 9.48179 318.69 9.52221 318.609 9.52221C318.609 9.60307 318.65 9.64349 318.731 9.64349L318.609 10.2903C318.609 10.8361 318.65 11.4728 318.731 12.2206C318.65 13.2515 318.559 13.7669 318.478 13.7669C318.478 13.8579 318.518 13.8983 318.609 13.8983C318.427 14.6159 318.347 15.3031 318.347 15.96C318.559 15.96 318.731 16.435 318.862 17.3749L317.962 19.568C318.033 19.568 318.286 19.8712 318.731 20.4675C318.731 20.8515 318.64 21.1951 318.478 21.4983C318.559 21.9632 318.609 22.3574 318.609 22.6606C318.609 22.7515 318.559 22.792 318.478 22.792C318.478 22.8829 318.518 22.9233 318.609 22.9233L318.478 23.5601V24.0755C318.478 25.0861 318.518 26.6728 318.609 28.8457C318.084 29.3713 317.74 29.6239 317.578 29.6239V29.7452L318.215 30.5234V31.8069C318.448 32.1303 318.751 33.1612 319.125 34.8995V35.2936L318.993 35.5463C318.811 35.5463 318.124 35.3745 316.932 35.0309C315.891 35.233 315.203 35.4553 314.87 35.6777Z" fill="white"/>
<path d="M332.118 45.7995V42.957H329.276V42.2671H332.118V39.4107H332.808V42.2671H335.665V42.957H332.808V45.7995H332.118Z" fill="white"/>
</svg>
