<svg width="316" height="6" viewBox="0 0 316 6" fill="none" xmlns="http://www.w3.org/2000/svg">
<path d="M159.926 6C158.501 6 157.743 5.57692 157.031 5.19231C156.363 4.80769 155.695 4.42308 154.403 4.42308C153.111 4.42308 152.443 4.80769 151.775 5.19231C151.062 5.61538 150.35 6 148.88 6C147.41 6 146.697 5.57692 145.985 5.19231C145.317 4.80769 144.649 4.42308 143.357 4.42308C142.065 4.42308 141.397 4.80769 140.729 5.19231C140.016 5.61538 139.304 6 137.834 6C136.409 6 135.652 5.57692 134.939 5.19231C134.271 4.80769 133.603 4.42308 132.311 4.42308C131.019 4.42308 130.351 4.80769 129.683 5.19231C128.971 5.61538 128.258 6 126.788 6C125.363 6 124.606 5.57692 123.893 5.19231C123.225 4.80769 122.557 4.42308 121.265 4.42308C119.973 4.42308 119.305 4.80769 118.637 5.19231C117.925 5.61538 117.212 6 115.742 6C114.272 6 113.56 5.57692 112.847 5.19231C112.179 4.80769 111.511 4.42308 110.219 4.42308C108.928 4.42308 108.259 4.80769 107.591 5.19231C106.879 5.61538 106.166 6 104.696 6C103.271 6 102.514 5.57692 101.801 5.19231C101.133 4.80769 100.465 4.42308 99.1733 4.42308C97.8816 4.42308 97.2135 4.80769 96.5454 5.19231C95.8328 5.61538 95.1202 6 93.6503 6C92.1805 6 91.4679 5.57692 90.7552 5.19231C90.0871 4.80769 89.419 4.42308 88.1274 4.42308C86.8357 4.42308 86.1676 4.80769 85.4995 5.19231C84.7869 5.61538 84.0742 6 82.6044 6C81.1791 6 80.422 5.57692 79.7093 5.19231C79.0412 4.80769 78.3731 4.42308 77.0815 4.42308C75.7898 4.42308 75.1217 4.80769 74.4536 5.19231C73.741 5.61538 73.0283 6 71.5585 6C70.1332 6 69.3761 5.57692 68.6634 5.19231C67.9953 4.80769 67.3272 4.42308 66.0355 4.42308C64.7439 4.42308 64.0758 4.80769 63.4077 5.19231C62.6951 5.61538 61.9824 6 60.5126 6C59.0428 6 58.3301 5.57692 57.6175 5.19231C56.9494 4.80769 56.2813 4.42308 54.9896 4.42308C53.698 4.42308 53.0299 4.80769 52.3618 5.19231C51.6491 5.61538 50.9365 6 49.4667 6C48.0414 6 47.2842 5.57692 46.5716 5.19231C45.9035 4.80769 45.2354 4.42308 43.9437 4.42308C42.6521 4.42308 41.984 4.80769 41.3159 5.19231C40.6032 5.61538 39.8906 6 38.4208 6C36.9955 6 36.2383 5.57692 35.5257 5.19231C34.8576 4.80769 34.1895 4.42308 32.8978 4.42308C31.6061 4.42308 30.938 4.80769 30.2699 5.19231C29.5573 5.61538 28.8447 6 27.3748 6C25.9496 6 25.1924 5.57692 24.4798 5.19231C23.8117 4.80769 23.1435 4.42308 21.8519 4.42308C20.5602 4.42308 19.8921 4.80769 19.224 5.19231C18.5114 5.61538 17.7988 6 16.3289 6C14.9037 6 14.1465 5.57692 13.4338 5.19231C12.7657 4.80769 12.0976 4.42308 10.806 4.42308C9.51432 4.42308 8.84622 4.80769 8.17812 5.19231C7.46548 5.61538 6.75284 6 5.28302 6C4.30314 6 3.5905 5.57692 2.87786 5.15385C2.20976 4.76923 1.54166 4.38462 0.25 4.38462V4C1.67528 4 2.43246 4.42308 3.1451 4.80769C3.8132 5.19231 4.4813 5.57692 5.77296 5.57692C7.06462 5.57692 7.73272 5.19231 8.40082 4.80769C9.06892 4.42308 9.8261 4 11.2514 4C12.6767 4 13.4338 4.42308 14.1465 4.80769C14.8146 5.19231 15.4827 5.57692 16.7743 5.57692C18.066 5.57692 18.7341 5.19231 19.4022 4.80769C20.1148 4.42308 20.8275 4 22.2528 4C23.678 4 24.4352 4.42308 25.1479 4.80769C25.816 5.19231 26.484 5.57692 27.7757 5.57692C29.0674 5.57692 29.7355 5.19231 30.4036 4.80769C31.1162 4.42308 31.8288 4 33.2987 4C34.7239 4 35.4811 4.42308 36.1938 4.80769C36.8619 5.19231 37.53 5.57692 38.8216 5.57692C40.1133 5.57692 40.7814 5.19231 41.4495 4.80769C42.1176 4.42308 42.8302 4 44.3 4C45.7253 4 46.4825 4.42308 47.1951 4.80769C47.8632 5.19231 48.5313 5.57692 49.823 5.57692C51.1147 5.57692 51.7828 5.19231 52.4509 4.80769C53.1635 4.38462 53.8761 4 55.346 4C56.7712 4 57.5284 4.42308 58.2411 4.80769C58.9092 5.19231 59.5773 5.57692 60.8689 5.57692C62.1606 5.57692 62.8287 5.19231 63.4968 4.80769C64.2094 4.38462 64.9221 4 66.3919 4C67.8172 4 68.5743 4.42308 69.287 4.80769C69.9551 5.19231 70.6232 5.57692 71.9148 5.57692C73.2065 5.57692 73.8746 5.19231 74.5427 4.80769C75.2553 4.38462 75.968 4 77.4378 4C78.9076 4 79.6202 4.42308 80.3329 4.80769C81.001 5.19231 81.6691 5.57692 82.9607 5.57692C84.2524 5.57692 84.9205 5.19231 85.5886 4.80769C86.3012 4.38462 87.0139 4 88.4837 4C89.909 4 90.6662 4.42308 91.3788 4.80769C92.0469 5.19231 92.715 5.57692 94.0067 5.57692C95.2983 5.57692 95.9664 5.19231 96.6345 4.80769C97.3472 4.38462 98.0598 4 99.5296 4C100.955 4 101.712 4.42308 102.425 4.80769C103.093 5.19231 103.761 5.57692 105.053 5.57692C106.344 5.57692 107.012 5.19231 107.68 4.80769C108.393 4.38462 109.106 4 110.576 4C112.001 4 112.758 4.42308 113.471 4.80769C114.139 5.19231 114.807 5.57692 116.098 5.57692C117.39 5.57692 118.058 5.19231 118.726 4.80769C119.439 4.38462 120.152 4 121.621 4C123.047 4 123.804 4.42308 124.517 4.80769C125.185 5.19231 125.853 5.57692 127.144 5.57692C128.436 5.57692 129.104 5.19231 129.772 4.80769C130.485 4.38462 131.198 4 132.667 4C134.093 4 134.85 4.42308 135.562 4.80769C136.231 5.19231 136.899 5.57692 138.19 5.57692C139.482 5.57692 140.15 5.19231 140.818 4.80769C141.531 4.38462 142.243 4 143.713 4C145.139 4 145.896 4.42308 146.608 4.80769C147.276 5.19231 147.945 5.57692 149.236 5.57692C150.528 5.57692 151.196 5.19231 151.864 4.80769C152.577 4.38462 153.289 4 154.759 4C156.184 4 156.942 4.42308 157.654 4.80769C158.322 5.19231 158.99 5.57692 160.282 5.57692V6H159.926Z" fill="#030303"/>
<path d="M314.894 6C313.468 6 312.711 5.57692 311.999 5.19231C311.331 4.80769 310.662 4.42308 309.371 4.42308C308.079 4.42308 307.411 4.80769 306.743 5.19231C306.03 5.61538 305.318 6 303.848 6C302.378 6 301.665 5.57692 300.953 5.19231C300.285 4.80769 299.616 4.42308 298.325 4.42308C297.033 4.42308 296.365 4.80769 295.697 5.19231C294.984 5.61538 294.272 6 292.802 6C291.377 6 290.619 5.57692 289.907 5.19231C289.239 4.80769 288.571 4.42308 287.279 4.42308C285.987 4.42308 285.319 4.80769 284.651 5.19231C283.938 5.61538 283.226 6 281.756 6C280.331 6 279.573 5.57692 278.861 5.19231C278.193 4.80769 277.525 4.42308 276.233 4.42308C274.941 4.42308 274.273 4.80769 273.605 5.19231C272.892 5.61538 272.18 6 270.71 6C269.24 6 268.528 5.57692 267.815 5.19231C267.147 4.80769 266.479 4.42308 265.187 4.42308C263.895 4.42308 263.227 4.80769 262.559 5.19231C261.847 5.61538 261.134 6 259.664 6C258.239 6 257.482 5.57692 256.769 5.19231C256.101 4.80769 255.433 4.42308 254.141 4.42308C252.849 4.42308 252.181 4.80769 251.513 5.19231C250.801 5.61538 250.088 6 248.618 6C247.148 6 246.436 5.57692 245.723 5.19231C245.055 4.80769 244.387 4.42308 243.095 4.42308C241.804 4.42308 241.135 4.80769 240.467 5.19231C239.755 5.61538 239.042 6 237.572 6C236.147 6 235.39 5.57692 234.677 5.19231C234.009 4.80769 233.341 4.42308 232.049 4.42308C230.758 4.42308 230.09 4.80769 229.421 5.19231C228.709 5.61538 227.996 6 226.526 6C225.101 6 224.344 5.57692 223.631 5.19231C222.963 4.80769 222.295 4.42308 221.003 4.42308C219.712 4.42308 219.044 4.80769 218.376 5.19231C217.663 5.61538 216.95 6 215.48 6C214.011 6 213.298 5.57692 212.585 5.19231C211.917 4.80769 211.249 4.42308 209.957 4.42308C208.666 4.42308 207.998 4.80769 207.33 5.19231C206.617 5.61538 205.904 6 204.435 6C203.009 6 202.252 5.57692 201.539 5.19231C200.871 4.80769 200.203 4.42308 198.912 4.42308C197.62 4.42308 196.952 4.80769 196.284 5.19231C195.571 5.61538 194.858 6 193.389 6C191.963 6 191.206 5.57692 190.493 5.19231C189.825 4.80769 189.157 4.42308 187.866 4.42308C186.574 4.42308 185.906 4.80769 185.238 5.19231C184.525 5.61538 183.812 6 182.343 6C180.917 6 180.16 5.57692 179.448 5.19231C178.779 4.80769 178.111 4.42308 176.82 4.42308C175.528 4.42308 174.86 4.80769 174.192 5.19231C173.479 5.61538 172.767 6 171.297 6C169.871 6 169.114 5.57692 168.402 5.19231C167.734 4.80769 167.065 4.42308 165.774 4.42308C164.482 4.42308 163.814 4.80769 163.146 5.19231C162.433 5.61538 161.721 6 160.251 6C159.271 6 158.558 5.57692 157.846 5.15385C157.178 4.76923 156.51 4.38462 155.218 4.38462V4C156.643 4 157.4 4.42308 158.113 4.80769C158.781 5.19231 159.449 5.57692 160.741 5.57692C162.032 5.57692 162.701 5.19231 163.369 4.80769C164.037 4.42308 164.794 4 166.219 4C167.644 4 168.402 4.42308 169.114 4.80769C169.782 5.19231 170.451 5.57692 171.742 5.57692C173.034 5.57692 173.702 5.19231 174.37 4.80769C175.083 4.42308 175.795 4 177.221 4C178.646 4 179.403 4.42308 180.116 4.80769C180.784 5.19231 181.452 5.57692 182.744 5.57692C184.035 5.57692 184.703 5.19231 185.371 4.80769C186.084 4.42308 186.797 4 188.266 4C189.692 4 190.449 4.42308 191.162 4.80769C191.83 5.19231 192.498 5.57692 193.789 5.57692C195.081 5.57692 195.749 5.19231 196.417 4.80769C197.085 4.42308 197.798 4 199.268 4C200.693 4 201.45 4.42308 202.163 4.80769C202.831 5.19231 203.499 5.57692 204.791 5.57692C206.083 5.57692 206.751 5.19231 207.419 4.80769C208.131 4.38462 208.844 4 210.314 4C211.739 4 212.496 4.42308 213.209 4.80769C213.877 5.19231 214.545 5.57692 215.837 5.57692C217.128 5.57692 217.797 5.19231 218.465 4.80769C219.177 4.38462 219.89 4 221.36 4C222.785 4 223.542 4.42308 224.255 4.80769C224.923 5.19231 225.591 5.57692 226.883 5.57692C228.174 5.57692 228.842 5.19231 229.511 4.80769C230.223 4.38462 230.936 4 232.406 4C233.875 4 234.588 4.42308 235.301 4.80769C235.969 5.19231 236.637 5.57692 237.929 5.57692C239.22 5.57692 239.888 5.19231 240.556 4.80769C241.269 4.38462 241.982 4 243.452 4C244.877 4 245.634 4.42308 246.347 4.80769C247.015 5.19231 247.683 5.57692 248.974 5.57692C250.266 5.57692 250.934 5.19231 251.602 4.80769C252.315 4.38462 253.028 4 254.497 4C255.923 4 256.68 4.42308 257.393 4.80769C258.061 5.19231 258.729 5.57692 260.02 5.57692C261.312 5.57692 261.98 5.19231 262.648 4.80769C263.361 4.38462 264.074 4 265.543 4C266.969 4 267.726 4.42308 268.438 4.80769C269.107 5.19231 269.775 5.57692 271.066 5.57692C272.358 5.57692 273.026 5.19231 273.694 4.80769C274.407 4.38462 275.119 4 276.589 4C278.015 4 278.772 4.42308 279.484 4.80769C280.152 5.19231 280.821 5.57692 282.112 5.57692C283.404 5.57692 284.072 5.19231 284.74 4.80769C285.453 4.38462 286.165 4 287.635 4C289.06 4 289.818 4.42308 290.53 4.80769C291.198 5.19231 291.867 5.57692 293.158 5.57692C294.45 5.57692 295.118 5.19231 295.786 4.80769C296.499 4.38462 297.211 4 298.681 4C300.106 4 300.864 4.42308 301.576 4.80769C302.244 5.19231 302.912 5.57692 304.204 5.57692C305.496 5.57692 306.164 5.19231 306.832 4.80769C307.545 4.38462 308.257 4 309.727 4C311.152 4 311.909 4.42308 312.622 4.80769C313.29 5.19231 313.958 5.57692 315.25 5.57692V6H314.894Z" fill="#030303"/>
<path d="M159.926 2C158.501 2 157.743 1.57692 157.031 1.19231C156.363 0.807692 155.695 0.423077 154.403 0.423077C153.111 0.423077 152.443 0.807692 151.775 1.19231C151.062 1.61538 150.35 2 148.88 2C147.41 2 146.697 1.57692 145.985 1.19231C145.317 0.807692 144.649 0.423077 143.357 0.423077C142.065 0.423077 141.397 0.807692 140.729 1.19231C140.016 1.61538 139.304 2 137.834 2C136.409 2 135.652 1.57692 134.939 1.19231C134.271 0.807692 133.603 0.423077 132.311 0.423077C131.019 0.423077 130.351 0.807692 129.683 1.19231C128.971 1.61538 128.258 2 126.788 2C125.363 2 124.606 1.57692 123.893 1.19231C123.225 0.807692 122.557 0.423077 121.265 0.423077C119.973 0.423077 119.305 0.807692 118.637 1.19231C117.925 1.61538 117.212 2 115.742 2C114.272 2 113.56 1.57692 112.847 1.19231C112.179 0.807692 111.511 0.423077 110.219 0.423077C108.928 0.423077 108.259 0.807692 107.591 1.19231C106.879 1.61538 106.166 2 104.696 2C103.271 2 102.514 1.57692 101.801 1.19231C101.133 0.807692 100.465 0.423077 99.1733 0.423077C97.8816 0.423077 97.2135 0.807692 96.5454 1.19231C95.8328 1.61538 95.1202 2 93.6503 2C92.1805 2 91.4679 1.57692 90.7552 1.19231C90.0871 0.807692 89.419 0.423077 88.1274 0.423077C86.8357 0.423077 86.1676 0.807692 85.4995 1.19231C84.7869 1.61538 84.0742 2 82.6044 2C81.1791 2 80.422 1.57692 79.7093 1.19231C79.0412 0.807692 78.3731 0.423077 77.0815 0.423077C75.7898 0.423077 75.1217 0.807692 74.4536 1.19231C73.741 1.61538 73.0283 2 71.5585 2C70.1332 2 69.3761 1.57692 68.6634 1.19231C67.9953 0.807692 67.3272 0.423077 66.0355 0.423077C64.7439 0.423077 64.0758 0.807692 63.4077 1.19231C62.6951 1.61538 61.9824 2 60.5126 2C59.0428 2 58.3301 1.57692 57.6175 1.19231C56.9494 0.807692 56.2813 0.423077 54.9896 0.423077C53.698 0.423077 53.0299 0.807692 52.3618 1.19231C51.6491 1.61538 50.9365 2 49.4667 2C48.0414 2 47.2842 1.57692 46.5716 1.19231C45.9035 0.807692 45.2354 0.423077 43.9437 0.423077C42.6521 0.423077 41.984 0.807692 41.3159 1.19231C40.6032 1.61538 39.8906 2 38.4208 2C36.9955 2 36.2383 1.57692 35.5257 1.19231C34.8576 0.807692 34.1895 0.423077 32.8978 0.423077C31.6061 0.423077 30.938 0.807692 30.2699 1.19231C29.5573 1.61538 28.8447 2 27.3748 2C25.9496 2 25.1924 1.57692 24.4798 1.19231C23.8117 0.807692 23.1435 0.423077 21.8519 0.423077C20.5602 0.423077 19.8921 0.807692 19.224 1.19231C18.5114 1.61538 17.7988 2 16.3289 2C14.9037 2 14.1465 1.57692 13.4338 1.19231C12.7657 0.807692 12.0976 0.423077 10.806 0.423077C9.51432 0.423077 8.84622 0.807692 8.17812 1.19231C7.46548 1.61538 6.75284 2 5.28302 2C4.30314 2 3.5905 1.57692 2.87786 1.15385C2.20976 0.769231 1.54166 0.384615 0.25 0.384615V0C1.67528 0 2.43246 0.423077 3.1451 0.807692C3.8132 1.19231 4.4813 1.57692 5.77296 1.57692C7.06462 1.57692 7.73272 1.19231 8.40082 0.807692C9.06892 0.423077 9.8261 0 11.2514 0C12.6767 0 13.4338 0.423077 14.1465 0.807692C14.8146 1.19231 15.4827 1.57692 16.7743 1.57692C18.066 1.57692 18.7341 1.19231 19.4022 0.807692C20.1148 0.423077 20.8275 0 22.2528 0C23.678 0 24.4352 0.423077 25.1479 0.807692C25.816 1.19231 26.484 1.57692 27.7757 1.57692C29.0674 1.57692 29.7355 1.19231 30.4036 0.807692C31.1162 0.423077 31.8288 0 33.2987 0C34.7239 0 35.4811 0.423077 36.1938 0.807692C36.8619 1.19231 37.53 1.57692 38.8216 1.57692C40.1133 1.57692 40.7814 1.19231 41.4495 0.807692C42.1176 0.423077 42.8302 0 44.3 0C45.7253 0 46.4825 0.423077 47.1951 0.807692C47.8632 1.19231 48.5313 1.57692 49.823 1.57692C51.1147 1.57692 51.7828 1.19231 52.4509 0.807692C53.1635 0.384615 53.8761 0 55.346 0C56.7712 0 57.5284 0.423077 58.2411 0.807692C58.9092 1.19231 59.5773 1.57692 60.8689 1.57692C62.1606 1.57692 62.8287 1.19231 63.4968 0.807692C64.2094 0.384615 64.9221 0 66.3919 0C67.8172 0 68.5743 0.423077 69.287 0.807692C69.9551 1.19231 70.6232 1.57692 71.9148 1.57692C73.2065 1.57692 73.8746 1.19231 74.5427 0.807692C75.2553 0.384615 75.968 0 77.4378 0C78.9076 0 79.6202 0.423077 80.3329 0.807692C81.001 1.19231 81.6691 1.57692 82.9607 1.57692C84.2524 1.57692 84.9205 1.19231 85.5886 0.807692C86.3012 0.384615 87.0139 0 88.4837 0C89.909 0 90.6662 0.423077 91.3788 0.807692C92.0469 1.19231 92.715 1.57692 94.0067 1.57692C95.2983 1.57692 95.9664 1.19231 96.6345 0.807692C97.3472 0.384615 98.0598 0 99.5296 0C100.955 0 101.712 0.423077 102.425 0.807692C103.093 1.19231 103.761 1.57692 105.053 1.57692C106.344 1.57692 107.012 1.19231 107.68 0.807692C108.393 0.384615 109.106 0 110.576 0C112.001 0 112.758 0.423077 113.471 0.807692C114.139 1.19231 114.807 1.57692 116.098 1.57692C117.39 1.57692 118.058 1.19231 118.726 0.807692C119.439 0.384615 120.152 0 121.621 0C123.047 0 123.804 0.423077 124.517 0.807692C125.185 1.19231 125.853 1.57692 127.144 1.57692C128.436 1.57692 129.104 1.19231 129.772 0.807692C130.485 0.384615 131.198 0 132.667 0C134.093 0 134.85 0.423077 135.562 0.807692C136.231 1.19231 136.899 1.57692 138.19 1.57692C139.482 1.57692 140.15 1.19231 140.818 0.807692C141.531 0.384615 142.243 0 143.713 0C145.139 0 145.896 0.423077 146.608 0.807692C147.276 1.19231 147.945 1.57692 149.236 1.57692C150.528 1.57692 151.196 1.19231 151.864 0.807692C152.577 0.384615 153.289 0 154.759 0C156.184 0 156.942 0.423077 157.654 0.807692C158.322 1.19231 158.99 1.57692 160.282 1.57692V2H159.926Z" fill="#030303"/>
<path d="M314.894 2C313.468 2 312.711 1.57692 311.999 1.19231C311.331 0.807692 310.662 0.423077 309.371 0.423077C308.079 0.423077 307.411 0.807692 306.743 1.19231C306.03 1.61538 305.318 2 303.848 2C302.378 2 301.665 1.57692 300.953 1.19231C300.285 0.807692 299.616 0.423077 298.325 0.423077C297.033 0.423077 296.365 0.807692 295.697 1.19231C294.984 1.61538 294.272 2 292.802 2C291.377 2 290.619 1.57692 289.907 1.19231C289.239 0.807692 288.571 0.423077 287.279 0.423077C285.987 0.423077 285.319 0.807692 284.651 1.19231C283.938 1.61538 283.226 2 281.756 2C280.331 2 279.573 1.57692 278.861 1.19231C278.193 0.807692 277.525 0.423077 276.233 0.423077C274.941 0.423077 274.273 0.807692 273.605 1.19231C272.892 1.61538 272.18 2 270.71 2C269.24 2 268.528 1.57692 267.815 1.19231C267.147 0.807692 266.479 0.423077 265.187 0.423077C263.895 0.423077 263.227 0.807692 262.559 1.19231C261.847 1.61538 261.134 2 259.664 2C258.239 2 257.482 1.57692 256.769 1.19231C256.101 0.807692 255.433 0.423077 254.141 0.423077C252.849 0.423077 252.181 0.807692 251.513 1.19231C250.801 1.61538 250.088 2 248.618 2C247.148 2 246.436 1.57692 245.723 1.19231C245.055 0.807692 244.387 0.423077 243.095 0.423077C241.804 0.423077 241.135 0.807692 240.467 1.19231C239.755 1.61538 239.042 2 237.572 2C236.147 2 235.39 1.57692 234.677 1.19231C234.009 0.807692 233.341 0.423077 232.049 0.423077C230.758 0.423077 230.09 0.807692 229.421 1.19231C228.709 1.61538 227.996 2 226.526 2C225.101 2 224.344 1.57692 223.631 1.19231C222.963 0.807692 222.295 0.423077 221.003 0.423077C219.712 0.423077 219.044 0.807692 218.376 1.19231C217.663 1.61538 216.95 2 215.48 2C214.011 2 213.298 1.57692 212.585 1.19231C211.917 0.807692 211.249 0.423077 209.957 0.423077C208.666 0.423077 207.998 0.807692 207.33 1.19231C206.617 1.61538 205.904 2 204.435 2C203.009 2 202.252 1.57692 201.539 1.19231C200.871 0.807692 200.203 0.423077 198.912 0.423077C197.62 0.423077 196.952 0.807692 196.284 1.19231C195.571 1.61538 194.858 2 193.389 2C191.963 2 191.206 1.57692 190.493 1.19231C189.825 0.807692 189.157 0.423077 187.866 0.423077C186.574 0.423077 185.906 0.807692 185.238 1.19231C184.525 1.61538 183.812 2 182.343 2C180.917 2 180.16 1.57692 179.448 1.19231C178.779 0.807692 178.111 0.423077 176.82 0.423077C175.528 0.423077 174.86 0.807692 174.192 1.19231C173.479 1.61538 172.767 2 171.297 2C169.871 2 169.114 1.57692 168.402 1.19231C167.734 0.807692 167.065 0.423077 165.774 0.423077C164.482 0.423077 163.814 0.807692 163.146 1.19231C162.433 1.61538 161.721 2 160.251 2C159.271 2 158.558 1.57692 157.846 1.15385C157.178 0.769231 156.51 0.384615 155.218 0.384615V0C156.643 0 157.4 0.423077 158.113 0.807692C158.781 1.19231 159.449 1.57692 160.741 1.57692C162.032 1.57692 162.701 1.19231 163.369 0.807692C164.037 0.423077 164.794 0 166.219 0C167.644 0 168.402 0.423077 169.114 0.807692C169.782 1.19231 170.451 1.57692 171.742 1.57692C173.034 1.57692 173.702 1.19231 174.37 0.807692C175.083 0.423077 175.795 0 177.221 0C178.646 0 179.403 0.423077 180.116 0.807692C180.784 1.19231 181.452 1.57692 182.744 1.57692C184.035 1.57692 184.703 1.19231 185.371 0.807692C186.084 0.423077 186.797 0 188.266 0C189.692 0 190.449 0.423077 191.162 0.807692C191.83 1.19231 192.498 1.57692 193.789 1.57692C195.081 1.57692 195.749 1.19231 196.417 0.807692C197.085 0.423077 197.798 0 199.268 0C200.693 0 201.45 0.423077 202.163 0.807692C202.831 1.19231 203.499 1.57692 204.791 1.57692C206.083 1.57692 206.751 1.19231 207.419 0.807692C208.131 0.384615 208.844 0 210.314 0C211.739 0 212.496 0.423077 213.209 0.807692C213.877 1.19231 214.545 1.57692 215.837 1.57692C217.128 1.57692 217.797 1.19231 218.465 0.807692C219.177 0.384615 219.89 0 221.36 0C222.785 0 223.542 0.423077 224.255 0.807692C224.923 1.19231 225.591 1.57692 226.883 1.57692C228.174 1.57692 228.842 1.19231 229.511 0.807692C230.223 0.384615 230.936 0 232.406 0C233.875 0 234.588 0.423077 235.301 0.807692C235.969 1.19231 236.637 1.57692 237.929 1.57692C239.22 1.57692 239.888 1.19231 240.556 0.807692C241.269 0.384615 241.982 0 243.452 0C244.877 0 245.634 0.423077 246.347 0.807692C247.015 1.19231 247.683 1.57692 248.974 1.57692C250.266 1.57692 250.934 1.19231 251.602 0.807692C252.315 0.384615 253.028 0 254.497 0C255.923 0 256.68 0.423077 257.393 0.807692C258.061 1.19231 258.729 1.57692 260.02 1.57692C261.312 1.57692 261.98 1.19231 262.648 0.807692C263.361 0.384615 264.074 0 265.543 0C266.969 0 267.726 0.423077 268.438 0.807692C269.107 1.19231 269.775 1.57692 271.066 1.57692C272.358 1.57692 273.026 1.19231 273.694 0.807692C274.407 0.384615 275.119 0 276.589 0C278.015 0 278.772 0.423077 279.484 0.807692C280.152 1.19231 280.821 1.57692 282.112 1.57692C283.404 1.57692 284.072 1.19231 284.74 0.807692C285.453 0.384615 286.165 0 287.635 0C289.06 0 289.818 0.423077 290.53 0.807692C291.198 1.19231 291.867 1.57692 293.158 1.57692C294.45 1.57692 295.118 1.19231 295.786 0.807692C296.499 0.384615 297.211 0 298.681 0C300.106 0 300.864 0.423077 301.576 0.807692C302.244 1.19231 302.912 1.57692 304.204 1.57692C305.496 1.57692 306.164 1.19231 306.832 0.807692C307.545 0.384615 308.257 0 309.727 0C311.152 0 311.909 0.423077 312.622 0.807692C313.29 1.19231 313.958 1.57692 315.25 1.57692V2H314.894Z" fill="#030303"/>
</svg>
