<svg width="390" height="19" viewBox="0 0 390 19" fill="none" xmlns="http://www.w3.org/2000/svg">
<g clip-path="url(#clip0_208_1007)">
<path d="M-1 0V15.1606C1.32359 15.1606 3.04103 16.0466 4.75846 16.9326C5.16256 17.1295 5.56667 17.3264 5.86974 17.5233C9.70872 19.3938 13.4467 19.3938 16.7805 17.4249C22.2359 14.1762 27.3882 14.57 32.6415 17.228C34.0559 17.6218 35.4703 18.2124 36.7836 18.8031C37.5918 19 38.501 19 39.3092 19C41.0267 18.2124 42.7441 17.6218 44.5626 17.1295C50.22 14.1762 55.5744 14.8653 61.1308 17.9171C64.4646 19.7876 68.2026 19.3938 71.3344 17.5233C77.0928 14.0777 82.5482 14.7668 88.2056 17.7202C91.4385 19.4922 94.5703 19.3938 97.9041 17.6218C102.955 14.9637 108.31 13.8808 113.765 17.0311C118.008 19.4922 122.352 19.4922 126.595 17.0311C131.95 13.8808 137.203 14.7668 142.254 17.4249C146.194 19.4922 150.033 19.2953 153.67 17.228C158.823 14.3731 163.672 14.3731 168.723 17.228C172.663 19.4922 176.906 19.3938 180.947 17.228C185.897 14.4715 190.747 14.2746 195.798 17.1295C199.94 19.4922 204.385 19.4922 208.527 17.0311C213.376 14.2746 218.226 14.4715 223.075 17.1295C227.217 19.3938 231.359 19.4922 235.501 17.1295C240.35 14.3731 245.301 14.1762 250.352 17.1295C254.494 19.4922 258.737 19.4922 262.778 17.1295C267.93 14.1762 272.779 14.4715 277.831 17.1295C281.771 19.2953 285.812 19.3938 289.752 17.1295C295.005 14.1762 300.157 14.2746 305.31 17.228C309.048 19.2953 313.089 19.2953 316.726 17.228C321.979 14.2746 326.929 14.0777 332.284 17.1295C336.123 19.2953 340.265 19.2953 344.306 17.1295C349.458 14.1762 354.408 14.2746 359.662 17.1295C363.298 19.1969 367.137 19.4922 371.077 17.1295C376.836 13.7824 382.594 14.2746 388.252 17.3264C389.06 17.8187 389.868 18.0155 390.777 18.2124C391.485 18.4093 392.293 18.6062 393 19V0H-1Z" fill="#27A4DD"/>
</g>
<defs>
<clipPath id="clip0_208_1007">
<rect width="394" height="19" fill="white" transform="translate(-1)"/>
</clipPath>
</defs>
</svg>
