<svg width="93" height="63" viewBox="0 0 93 63" fill="none" xmlns="http://www.w3.org/2000/svg">
<g clip-path="url(#clip0_1470_335499)">
<path fill-rule="evenodd" clip-rule="evenodd" d="M55.4535 47.917C55.4535 49.5962 54.0741 50.9756 52.3949 50.9756C50.7157 50.9756 49.3364 49.5962 49.3364 47.917C49.3364 47.7371 49.3364 47.5572 49.3964 47.4373V15.5326C49.3364 10.495 45.1984 6.4769 40.1608 6.4769C35.1832 6.4769 31.1651 10.375 30.9852 15.2927V29.266V40.3607V54.8737V58.412C30.9852 58.5919 31.0452 58.7718 31.0452 58.9518C31.0452 60.8109 29.6658 62.3101 27.9866 62.3101C26.3074 62.3101 24.9281 60.8109 24.9281 58.9518C24.9281 58.7718 24.9281 58.5919 24.9881 58.412L25.048 38.2617V34.2436V15.5326C24.9281 10.2551 21.2099 6.0571 15.8125 6.0571C10.7749 6.0571 6.69685 10.0752 6.63688 15.1128V38.8014V38.9813V58.352C6.69685 58.532 6.69685 58.7119 6.69685 58.8918C6.69685 60.7509 5.31751 62.2502 3.63832 62.2502C1.95912 62.2502 0.399872 60.7509 0.399872 58.9518C0.399872 58.7718 0.399872 58.5919 0.459843 58.412V54.9337V45.3383V36.7024V15.1727C0.459843 6.77675 7.29656 0 15.6925 0C20.7901 0 25.2879 2.51879 28.0466 6.35695C30.8653 2.75868 35.2432 0.419799 40.1608 0.419799C48.5568 0.419799 55.3935 7.19655 55.4535 15.5925V47.4972C55.4535 47.6172 55.4535 47.7371 55.4535 47.917Z" fill="#0077B6"/>
<path fill-rule="evenodd" clip-rule="evenodd" d="M92.156 18.1114C92.156 19.9705 90.7767 21.4698 89.0975 21.4698C87.4183 21.4698 86.0389 19.9705 86.0389 18.1114C86.0389 17.9315 86.0989 15.2328 86.0989 15.2328C85.919 12.4741 84.5396 10.0752 82.5006 8.51597C80.9414 7.31655 79.0223 6.65686 76.9233 6.65686C71.8857 6.65686 67.8077 10.7349 67.6877 15.7125V20.3903H67.7477V24.5283H76.8633C78.6025 24.5283 80.0418 25.9676 80.0418 27.7068C80.0418 29.4459 78.6025 30.8852 76.8633 30.8852H67.7477V42.8195C67.7477 42.9395 67.7477 43.0594 67.7477 43.1194C67.7477 43.3593 67.7477 43.5992 67.7477 43.839C67.7477 43.959 67.7477 44.0189 67.7477 44.1389C67.7477 44.3188 67.7477 44.4387 67.6877 44.6187C67.6877 45.3983 67.6877 46.2379 67.6877 47.0175C67.5678 55.4135 60.911 62.3702 52.3351 62.3702C43.9391 62.3702 37.1024 55.5934 37.0424 47.1974V41.6201V23.8086V15.2927C37.0424 15.1128 36.9824 14.9329 36.9824 14.753C36.9824 13.0738 38.3618 11.6944 40.041 11.6944C41.7202 11.6944 43.0995 13.0738 43.0995 14.753C43.0995 14.9329 43.0995 15.1128 43.0395 15.2927V16.5521V20.6302V41.0804V47.1974C43.0395 48.5168 43.3394 49.7162 43.8791 50.8557C43.9991 51.0956 46.4579 56.1331 52.2751 56.1331C57.3127 56.1331 61.4507 51.9951 61.5107 46.9575V44.4987C61.5107 44.3788 61.5107 44.2588 61.5107 44.1389C61.5107 44.0789 61.5107 44.019 61.5107 43.959V15.7125C61.5707 7.31655 68.4074 0.539795 76.8034 0.539795C79.5021 0.539795 82.0209 1.25945 84.1798 2.45887C88.4378 4.79775 91.4363 9.11568 91.9761 14.2132L92.0361 14.9329C92.0361 15.1728 92.0361 15.4726 92.0361 15.7725C92.156 15.7125 92.156 17.9315 92.156 18.1114Z" fill="#0296C7"/>
<path fill-rule="evenodd" clip-rule="evenodd" d="M18.8112 58.4719C18.8112 58.6518 18.8712 58.8317 18.8712 59.0116C18.8712 60.8707 17.4918 62.37 15.8126 62.37C14.1334 62.37 12.7541 60.8707 12.7541 59.0116C12.7541 58.8317 12.7541 58.6518 12.8141 58.4719V15.5924C12.7541 15.4125 12.7541 15.2326 12.7541 15.0527C12.7541 13.3735 14.1334 11.9941 15.8126 11.9941C17.4918 11.9941 18.8712 13.3735 18.8712 15.0527C18.8712 15.2326 18.8712 15.4125 18.8112 15.5924V58.4719Z" fill="#0296C7"/>
<path d="M85.4353 24.4959L82.2125 27.7188L85.4353 30.9416L88.6581 27.7187L85.4353 24.4959Z" fill="#0077B6"/>
<g opacity="0.65">
<mask id="mask0_1470_335499" style="mask-type:luminance" maskUnits="userSpaceOnUse" x="12" y="11" width="7" height="29">
<path d="M18.8111 11.9941H12.694V39.2211H18.8111V11.9941Z" fill="white"/>
</mask>
<g mask="url(#mask0_1470_335499)">
<path fill-rule="evenodd" clip-rule="evenodd" d="M18.8711 15.0527C18.8711 15.2326 18.8711 15.4125 18.8111 15.5924V37.6018C16.6521 38.5014 14.6131 38.9812 12.754 39.2211V15.5924C12.694 15.4125 12.694 15.2326 12.694 15.0527C12.694 13.3735 14.0734 11.9941 15.7526 11.9941C17.4318 11.9941 18.8711 13.3735 18.8711 15.0527Z" fill="#02B4D7"/>
</g>
</g>
<g opacity="0.65">
<mask id="mask1_1470_335499" style="mask-type:luminance" maskUnits="userSpaceOnUse" x="36" y="11" width="8" height="13">
<path d="M43.0995 11.7544H36.9824V23.8686H43.0995V11.7544Z" fill="white"/>
</mask>
<g mask="url(#mask1_1470_335499)">
<path fill-rule="evenodd" clip-rule="evenodd" d="M43.0995 15.2925V16.5519V20.63C40.8206 21.2897 38.9016 22.4291 37.0425 23.8684V15.3525C37.0425 15.1726 36.9825 14.9927 36.9825 14.8727C36.9825 13.1935 38.3618 11.8142 40.041 11.8142C41.7202 11.8142 43.0995 13.1935 43.0995 14.8727C43.1595 14.9927 43.1595 15.1726 43.0995 15.2925Z" fill="#02B4D7"/>
</g>
</g>
<g opacity="0.65">
<mask id="mask2_1470_335499" style="mask-type:luminance" maskUnits="userSpaceOnUse" x="0" y="0" width="56" height="40">
<path d="M55.4535 0H0.399872V39.0413H55.4535V0Z" fill="white"/>
</mask>
<g mask="url(#mask2_1470_335499)">
<path fill-rule="evenodd" clip-rule="evenodd" d="M55.4535 15.5326V21.1699C53.2345 20.5102 51.1955 20.0904 49.3964 19.9704V15.5326C49.3364 10.495 45.2584 6.47689 40.2208 6.47689C35.2432 6.47689 31.2251 10.375 31.0452 15.2927V29.266C29.1861 30.9452 27.267 32.6843 24.9881 34.3036V15.5925C24.8681 10.3151 21.1499 6.11707 15.7525 6.11707C10.7149 6.11707 6.63688 10.1351 6.51694 15.1727V38.8614V39.0413C3.93817 38.5015 1.89915 37.602 0.399872 36.7024V15.1727C0.459843 6.77675 7.29656 0 15.6925 0C20.7901 0 25.2879 2.51879 28.0466 6.35695C30.8653 2.75868 35.2432 0.419799 40.1608 0.419799C48.5568 0.359827 55.3335 7.13658 55.4535 15.5326Z" fill="#02B4D7"/>
</g>
</g>
<g opacity="0.65">
<mask id="mask3_1470_335499" style="mask-type:luminance" maskUnits="userSpaceOnUse" x="61" y="0" width="24" height="24">
<path d="M84.2399 0.539795H61.5707V23.3888H84.2399V0.539795Z" fill="white"/>
</mask>
<g mask="url(#mask3_1470_335499)">
<path fill-rule="evenodd" clip-rule="evenodd" d="M84.2399 2.45887C83.8201 4.01813 83.2803 6.17709 82.4407 8.51597C80.8815 7.31654 78.9624 6.65686 76.8634 6.65686C71.8258 6.65686 67.7478 10.7349 67.6278 15.7125V20.3903H67.6878V23.2689C65.8887 23.5088 63.8496 23.4488 61.5707 22.969V15.7125C61.6307 7.31654 68.4674 0.539795 76.8634 0.539795C79.5621 0.539795 82.0809 1.25945 84.2399 2.45887Z" fill="#02B4D7"/>
</g>
</g>
</g>
<defs>
<clipPath id="clip0_1470_335499">
<rect width="91.8" height="62.3701" fill="white" transform="translate(0.399872)"/>
</clipPath>
</defs>
</svg>
