<svg width="12" height="16" viewBox="0 0 12 16" fill="none" xmlns="http://www.w3.org/2000/svg">
<g clip-path="url(#clip0_508_13)">
<path d="M0.240662 1.64827C0.240662 1.25681 0.543005 0.941864 0.918816 0.941864H2.27512H2.72723H6.23102C8.16659 0.941864 9.73482 2.57544 9.73482 4.59165C9.73482 5.613 9.33075 6.54017 8.68086 7.20243C9.83937 7.79699 10.639 9.0391 10.639 10.4784C10.639 12.4946 9.07079 14.1282 7.13523 14.1282H2.72723H2.27512H0.918816C0.543005 14.1282 0.240662 13.8133 0.240662 13.4218C0.240662 13.0303 0.543005 12.7154 0.918816 12.7154H1.59697V7.53503V2.35469H0.918816C0.543005 2.35469 0.240662 2.03974 0.240662 1.64827ZM6.23102 6.82862C7.41779 6.82862 8.37851 5.82787 8.37851 4.59165C8.37851 3.35543 7.41779 2.35469 6.23102 2.35469H2.95328V6.82862H6.23102ZM2.95328 8.24144V12.7154H7.13523C8.322 12.7154 9.28272 11.7146 9.28272 10.4784C9.28272 9.24219 8.322 8.24144 7.13523 8.24144H6.23102H2.95328Z" fill="black"/>
</g>
<defs>
<clipPath id="clip0_508_13">
<rect width="10.8505" height="15.0701" fill="white" transform="translate(0.240662)"/>
</clipPath>
</defs>
</svg>
