<svg width="19" height="18" viewBox="0 0 19 18" fill="none" xmlns="http://www.w3.org/2000/svg">
<g clip-path="url(#clip0_1130_20871)">
<path d="M1.77434 1.6875C1.77434 1.99687 2.02747 2.25 2.33684 2.25H2.89934V6.75H1.77434C1.46497 6.75 1.21184 7.00313 1.21184 7.3125C1.21184 7.62187 1.46497 7.875 1.77434 7.875H5.14934C5.45872 7.875 5.71184 7.62187 5.71184 7.3125C5.71184 7.00313 5.45872 6.75 5.14934 6.75H4.02434V1.6875C4.02434 1.37812 3.77122 1.125 3.46184 1.125H2.33684C2.02747 1.125 1.77434 1.37812 1.77434 1.6875ZM7.39934 3.375C7.39934 3.68438 7.65247 3.9375 7.96184 3.9375H18.0868C18.3962 3.9375 18.6493 3.68438 18.6493 3.375C18.6493 3.06562 18.3962 2.8125 18.0868 2.8125H7.96184C7.65247 2.8125 7.39934 3.06562 7.39934 3.375ZM7.39934 9C7.39934 9.30937 7.65247 9.5625 7.96184 9.5625H18.0868C18.3962 9.5625 18.6493 9.30937 18.6493 9C18.6493 8.69063 18.3962 8.4375 18.0868 8.4375H7.96184C7.65247 8.4375 7.39934 8.69063 7.39934 9ZM7.39934 14.625C7.39934 14.9344 7.65247 15.1875 7.96184 15.1875H18.0868C18.3962 15.1875 18.6493 14.9344 18.6493 14.625C18.6493 14.3156 18.3962 14.0625 18.0868 14.0625H7.96184C7.65247 14.0625 7.39934 14.3156 7.39934 14.625ZM2.71301 11.3871C3.10325 10.9969 3.73958 11.018 4.1052 11.4328C4.42864 11.802 4.41809 12.3539 4.08411 12.709L1.08176 15.9293C0.930593 16.0945 0.888405 16.3336 0.976296 16.5375C1.06419 16.7414 1.26809 16.875 1.49309 16.875H5.14934C5.45872 16.875 5.71184 16.6219 5.71184 16.3125C5.71184 16.0031 5.45872 15.75 5.14934 15.75H2.78684L4.90676 13.4789C5.6345 12.6984 5.65208 11.4961 4.95247 10.691C4.16145 9.7875 2.76926 9.73828 1.91848 10.5891L1.37708 11.134C1.15911 11.352 1.15911 11.7105 1.37708 11.9285C1.59505 12.1465 1.95364 12.1465 2.17161 11.9285L2.71301 11.3871Z" fill="black"/>
</g>
<defs>
<clipPath id="clip0_1130_20871">
<rect width="18" height="18" fill="white" transform="translate(0.649414)"/>
</clipPath>
</defs>
</svg>
