<svg width="19" height="16" viewBox="0 0 19 16" fill="none" xmlns="http://www.w3.org/2000/svg">
<path d="M5.24516 1.87233C5.24516 1.71997 5.30568 1.57386 5.41342 1.46612C5.52115 1.35839 5.66727 1.29787 5.81963 1.29787H18.0749C18.2273 1.29787 18.3734 1.35839 18.4812 1.46612C18.5889 1.57386 18.6494 1.71997 18.6494 1.87233C18.6494 2.02469 18.5889 2.17081 18.4812 2.27854C18.3734 2.38628 18.2273 2.4468 18.0749 2.4468H5.81963C5.66727 2.4468 5.52115 2.38628 5.41342 2.27854C5.30568 2.17081 5.24516 2.02469 5.24516 1.87233ZM18.0749 7.42553H5.81963C5.66727 7.42553 5.52115 7.48605 5.41342 7.59378C5.30568 7.70152 5.24516 7.84763 5.24516 7.99999C5.24516 8.15235 5.30568 8.29847 5.41342 8.4062C5.52115 8.51394 5.66727 8.57446 5.81963 8.57446H18.0749C18.2273 8.57446 18.3734 8.51394 18.4812 8.4062C18.5889 8.29847 18.6494 8.15235 18.6494 7.99999C18.6494 7.84763 18.5889 7.70152 18.4812 7.59378C18.3734 7.48605 18.2273 7.42553 18.0749 7.42553ZM18.0749 13.5532H5.81963C5.66727 13.5532 5.52115 13.6137 5.41342 13.7214C5.30568 13.8292 5.24516 13.9753 5.24516 14.1277C5.24516 14.28 5.30568 14.4261 5.41342 14.5339C5.52115 14.6416 5.66727 14.7021 5.81963 14.7021H18.0749C18.2273 14.7021 18.3734 14.6416 18.4812 14.5339C18.5889 14.4261 18.6494 14.28 18.6494 14.1277C18.6494 13.9753 18.5889 13.8292 18.4812 13.7214C18.3734 13.6137 18.2273 13.5532 18.0749 13.5532ZM1.60686 0.914886C1.4175 0.914886 1.23238 0.97104 1.07493 1.07625C0.917481 1.18145 0.794763 1.33098 0.722296 1.50593C0.649829 1.68088 0.630868 1.8734 0.667812 2.05912C0.704755 2.24485 0.795943 2.41545 0.929844 2.54935C1.06375 2.68325 1.23435 2.77444 1.42007 2.81138C1.6058 2.84833 1.79831 2.82937 1.97326 2.7569C2.14821 2.68443 2.29774 2.56171 2.40295 2.40426C2.50816 2.24681 2.56431 2.0617 2.56431 1.87233C2.56431 1.6184 2.46343 1.37487 2.28388 1.19532C2.10432 1.01576 1.86079 0.914886 1.60686 0.914886ZM1.60686 13.1702C1.4175 13.1702 1.23238 13.2264 1.07493 13.3316C0.917481 13.4368 0.794763 13.5863 0.722296 13.7613C0.649829 13.9362 0.630868 14.1287 0.667812 14.3144C0.704755 14.5002 0.795943 14.6708 0.929844 14.8047C1.06375 14.9386 1.23435 15.0298 1.42007 15.0667C1.6058 15.1036 1.79831 15.0847 1.97326 15.0122C2.14821 14.9398 2.29774 14.817 2.40295 14.6596C2.50816 14.5021 2.56431 14.317 2.56431 14.1277C2.56431 13.8737 2.46343 13.6302 2.28388 13.4506C2.10432 13.2711 1.86079 13.1702 1.60686 13.1702ZM1.60686 7.04255C1.4175 7.04255 1.23238 7.0987 1.07493 7.20391C0.917481 7.30911 0.794763 7.45864 0.722296 7.63359C0.649829 7.80854 0.630868 8.00105 0.667812 8.18678C0.704755 8.37251 0.795943 8.54311 0.929844 8.67701C1.06375 8.81091 1.23435 8.9021 1.42007 8.93904C1.6058 8.97599 1.79831 8.95703 1.97326 8.88456C2.14821 8.81209 2.29774 8.68937 2.40295 8.53192C2.50816 8.37447 2.56431 8.18936 2.56431 7.99999C2.56431 7.74606 2.46343 7.50253 2.28388 7.32298C2.10432 7.14342 1.86079 7.04255 1.60686 7.04255Z" fill="black"/>
</svg>
