<svg width="20" height="20" viewBox="0 0 20 20" fill="none" xmlns="http://www.w3.org/2000/svg">
<path fill-rule="evenodd" clip-rule="evenodd" d="M9.53174 10.4724C13.5208 14.4604 14.4258 9.84672 16.9656 12.3848C19.4143 14.8328 20.8216 15.3232 17.7192 18.4247C17.3306 18.737 14.8616 22.4943 6.1846 13.8197C-2.49348 5.144 1.26158 2.67244 1.57397 2.28395C4.68387 -0.826154 5.16586 0.589383 7.61449 3.03733C10.1544 5.5765 5.54266 6.48441 9.53174 10.4724Z" fill="black"/>
<path fill-rule="evenodd" clip-rule="evenodd" d="M9.53174 10.4724C13.5208 14.4604 14.4258 9.84672 16.9656 12.3848C19.4143 14.8328 20.8216 15.3232 17.7192 18.4247C17.3306 18.737 14.8616 22.4943 6.1846 13.8197C-2.49348 5.144 1.26158 2.67244 1.57397 2.28395C4.68387 -0.826154 5.16586 0.589383 7.61449 3.03733C10.1544 5.5765 5.54266 6.48441 9.53174 10.4724Z" fill="url(#paint0_linear_8_7383)"/>
<path fill-rule="evenodd" clip-rule="evenodd" d="M9.53174 10.4724C13.5208 14.4604 14.4258 9.84672 16.9656 12.3848C19.4143 14.8328 20.8216 15.3232 17.7192 18.4247C17.3306 18.737 14.8616 22.4943 6.1846 13.8197C-2.49348 5.144 1.26158 2.67244 1.57397 2.28395C4.68387 -0.826154 5.16586 0.589383 7.61449 3.03733C10.1544 5.5765 5.54266 6.48441 9.53174 10.4724Z" fill="url(#paint1_linear_8_7383)"/>
<defs>
<linearGradient id="paint0_linear_8_7383" x1="3.37879" y1="-0.783785" x2="20.7778" y2="1.31308" gradientUnits="userSpaceOnUse">
<stop offset="0.280779" stop-color="#FE9D44"/>
<stop offset="1" stop-color="#FFBC5D"/>
</linearGradient>
<linearGradient id="paint1_linear_8_7383" x1="3.85294" y1="0.5" x2="14.7676" y2="21.5589" gradientUnits="userSpaceOnUse">
<stop stop-color="#3E81C2"/>
<stop offset="1" stop-color="#49BDF2"/>
</linearGradient>
</defs>
</svg>
