<svg width="49" height="33" viewBox="0 0 49 33" fill="none" xmlns="http://www.w3.org/2000/svg">
<g clip-path="url(#clip0_1261_289589)">
<path d="M9.42436 29.6433C9.42436 30.3243 9.24152 30.8919 8.89247 31.3297C8.54342 31.7676 8.09464 32.1081 7.56275 32.3514C7.03087 32.5946 6.4325 32.773 5.80088 32.8703C5.16927 32.9676 4.5709 33 4.00577 32.9838C3.4074 32.9676 2.74254 32.8865 2.01119 32.7406C1.27985 32.5946 0.614993 32.3514 0 32.0433V28.8649L2.5597 31.8973C2.80902 31.946 3.12483 31.9946 3.4905 32.0433C3.85617 32.0757 4.22185 32.0919 4.58752 32.0757C4.8867 32.0595 5.18589 32.027 5.48507 31.946C5.76764 31.8811 6.03358 31.7676 6.24966 31.6216C6.48236 31.4757 6.64858 31.2973 6.79817 31.0865C6.94776 30.8757 6.99763 30.6162 6.99763 30.3243C6.99763 29.9027 6.88128 29.5622 6.63195 29.2865C6.38263 29.0108 6.08345 28.7838 5.7344 28.5892C5.38535 28.3946 5.00305 28.2487 4.60414 28.1027C4.20522 27.973 3.85617 27.8433 3.54037 27.7135C3.12483 27.5514 2.70929 27.373 2.31038 27.1784C1.91147 26.9838 1.54579 26.773 1.21337 26.5135C0.897558 26.2541 0.631615 25.946 0.432157 25.5892C0.2327 25.2324 0.132972 24.8108 0.132972 24.3081C0.132972 23.7406 0.265943 23.2541 0.531886 22.8487C0.797829 22.4433 1.1635 22.1027 1.61228 21.8433C2.07768 21.5838 2.60957 21.373 3.24118 21.2433C3.8728 21.1135 4.55427 21.0487 5.28562 21.0487C5.9671 21.0487 6.63195 21.0973 7.26357 21.2108C7.89518 21.3081 8.44369 21.4541 8.89247 21.6162V25.1676H8.85923L6.39925 21.973C6.2829 21.9568 6.16655 21.9243 6.0502 21.9081C5.93385 21.8919 5.8175 21.8757 5.68453 21.8595C5.60143 21.8433 5.5017 21.8433 5.40197 21.827C5.30224 21.827 5.21913 21.827 5.1194 21.8433C4.82022 21.8595 4.50441 21.8919 4.20522 21.9568C3.90604 22.0216 3.64009 22.1189 3.39077 22.2649C3.14145 22.4108 2.94199 22.5892 2.7924 22.8162C2.64281 23.0433 2.5597 23.3351 2.5597 23.6595C2.5597 23.9351 2.60957 24.1784 2.72592 24.3892C2.84227 24.6 2.99186 24.7784 3.1747 24.9568C3.35753 25.1189 3.57361 25.2649 3.82293 25.3946C4.07225 25.5243 4.3382 25.6378 4.62076 25.7351C5.06954 25.9135 5.5848 26.0919 6.13331 26.2865C6.68182 26.4811 7.2137 26.7081 7.69573 27C8.17775 27.2919 8.59328 27.6487 8.92571 28.0703C9.25814 28.4595 9.42436 28.9946 9.42436 29.6433Z" fill="white"/>
<path d="M13.1143 28.9946C13.1808 29.9351 13.4633 30.6487 13.9454 31.1514C14.4274 31.6541 15.0424 31.8973 15.7903 31.8973C16.2557 31.8973 16.7045 31.7838 17.1533 31.573C17.6021 31.346 18.0509 30.9892 18.483 30.5027L18.965 30.8919C18.4165 31.6216 17.8514 32.1568 17.2364 32.4811C16.6214 32.8216 15.9233 32.9838 15.1089 32.9838C14.4606 32.9838 13.8623 32.8865 13.3304 32.6757C12.7985 32.4649 12.3497 32.173 11.9674 31.7676C11.5851 31.3784 11.3026 30.9081 11.0865 30.3568C10.887 29.8054 10.7873 29.2054 10.7873 28.5243C10.7873 27.8433 10.887 27.227 11.0865 26.6757C11.2859 26.1243 11.5851 25.6541 11.9674 25.2649C12.3497 24.8757 12.8151 24.5676 13.3802 24.3568C13.9287 24.146 14.5604 24.0487 15.2585 24.0487C16.0563 24.0487 16.7211 24.1784 17.253 24.4378C17.7849 24.6973 18.2171 25.0541 18.5163 25.5081C18.8154 25.9622 19.0149 26.4811 19.098 27.0649C19.1811 27.6649 19.1645 28.2973 19.0481 28.9622H13.1143V28.9946ZM15.3083 25.1189C14.7432 25.1189 14.2446 25.3622 13.8124 25.8649C13.3802 26.3514 13.1475 27.1297 13.0811 28.1838H16.9871C17.0037 27.8919 16.9871 27.5514 16.9705 27.1946C16.9538 26.8378 16.8874 26.5135 16.771 26.2054C16.6547 25.8973 16.4884 25.6378 16.2557 25.427C16.023 25.2162 15.7072 25.1189 15.3083 25.1189Z" fill="white"/>
<path d="M24.234 32.8054H20.2283L21.1425 31.5243L21.1258 22.3946L20.2449 21.0973L23.2866 20.3838V31.5243L24.234 32.8054Z" fill="white"/>
<path d="M32.1791 25.1027H28.1401V31.5405L29.3368 32.8216H25.0651L25.9793 31.5405V25.1027H25.1316V24.2757H25.9793V23.5946C25.9793 22.3946 26.2452 21.5189 26.7605 20.9838C27.2924 20.4487 28.0736 20.1892 29.1041 20.1892C29.4532 20.1892 29.8189 20.2216 30.1845 20.2703C30.5502 20.3189 30.9491 20.4 31.3314 20.4811V23.1892L29.3036 21.0811H29.154C28.9213 21.0811 28.7551 21.146 28.6055 21.2595C28.4725 21.373 28.3728 21.5189 28.3063 21.6973C28.2398 21.8757 28.19 22.0703 28.1733 22.2649C28.1567 22.4757 28.1401 22.6541 28.1401 22.8324V24.2757H34.8385V31.5405L35.8857 32.8216H31.5641L32.6777 31.5405V25.8162L32.1791 25.1027ZM32.1459 21.6324L33.5753 19.946L35.1377 21.3405L33.675 22.9622L32.1459 21.6324Z" fill="white"/>
<path d="M42.501 31.8649C42.501 31.8649 42.5675 31.8649 42.7005 31.8162C42.7337 31.8 42.7836 31.8 42.8335 31.7838C42.7337 31.8162 42.6174 31.8487 42.501 31.8649ZM44.828 30.6324C44.7948 30.6811 44.7449 30.7135 44.7117 30.746C44.7616 30.7135 44.7948 30.6811 44.8447 30.6487L44.828 30.6324Z" fill="white"/>
<path d="M42.7005 31.8487C42.7005 31.8324 42.7005 31.8324 42.7005 31.8162C42.5675 31.8487 42.501 31.8649 42.501 31.8649C42.3348 31.8973 42.152 31.9135 41.9691 31.9135C41.9857 31.9135 42.2184 31.9622 42.7005 31.8487ZM42.0855 32.9351C42.1021 32.9351 42.1021 32.9351 42.1187 32.9351C42.3182 32.9027 42.5176 32.8541 42.7005 32.8054C42.4678 32.8703 42.2517 32.9189 42.0855 32.9351Z" fill="white"/>
<path d="M48.9834 25.7838C49.3989 20.5135 44.9278 16.2973 40.5896 13.5568C39.9413 13.1514 39.1435 12.827 38.5617 12.3568C38.0631 11.9514 37.498 11.5784 36.8497 11.2378C36.3677 10.9784 35.8857 10.7189 35.5533 10.2811C34.7388 9.22703 35.2375 7.7027 35.9356 6.56757C36.2181 6.0973 36.5339 5.62703 36.6004 5.07567C36.6503 4.52432 36.3345 3.90811 35.786 3.82703C34.7388 5.51351 33.7249 7.21622 32.7442 8.91892C32.2622 9.76216 31.7802 10.6054 31.3148 11.4486C31.0489 11.9189 30.3009 12.8757 31.0655 13.2811C31.4145 13.4595 31.8467 13.3946 32.229 13.3622C33.3426 13.2649 34.423 13.4757 35.4868 13.8162H35.5034C37.365 14.6757 39.1601 15.6973 40.8389 16.8486C43.4485 18.6162 46.4237 20.9838 47.4044 24.0649C47.7866 25.2486 47.7866 26.5459 47.3877 27.7297C46.8725 29.2378 45.7256 30.5351 44.2629 31.2324C43.2656 31.7027 42.0855 31.8973 41.055 31.5243C40.0244 31.1514 39.21 30.0973 39.3762 29.027C41.1879 29.0108 42.9831 28.9946 44.7948 28.9784C44.8945 28.9784 44.9942 28.9784 45.0774 28.9135C45.1605 28.8486 45.1937 28.7514 45.2269 28.6541C45.6425 27.1784 44.9278 25.4919 43.6147 24.6649C42.3016 23.8216 40.4898 23.8541 39.1601 24.6486C37.8138 25.4432 36.9827 26.9514 36.9495 28.4757C36.9162 29.6757 37.365 30.9081 38.2459 31.7514C39.3762 32.8216 41.1048 33.1622 42.6672 32.8703C45.3932 32.3514 47.903 30.2108 48.651 27.5838C48.8172 26.9676 48.9335 26.3676 48.9834 25.7838ZM40.0078 25.8486C40.44 25.3622 40.9386 25.1027 41.5037 25.1027C41.9027 25.1027 42.2185 25.2162 42.4512 25.427C42.6839 25.6378 42.8501 25.8973 42.9664 26.2054C43.0828 26.5135 43.1493 26.8378 43.1659 27.1946C43.1825 27.5513 43.1991 27.8757 43.1825 28.1838H39.2765C39.343 27.1135 39.5757 26.3513 40.0078 25.8486ZM42.7005 31.8162C42.5675 31.8486 42.501 31.8649 42.501 31.8649C42.6174 31.8486 42.7171 31.8162 42.8335 31.7838C42.7836 31.8 42.7504 31.8162 42.7005 31.8162Z" fill="white"/>
<path d="M47.6869 25.5243C47.6869 25.573 47.6869 25.6054 47.6869 25.6541C47.6869 25.6216 47.6869 25.573 47.6869 25.5243ZM42.7005 31.8162C42.7337 31.8 42.7836 31.8 42.8335 31.7838C42.7171 31.8162 42.6174 31.8486 42.501 31.8649C42.501 31.8649 42.5675 31.8649 42.7005 31.8162Z" fill="white"/>
<path d="M24.6995 8.18918C26.1621 5.64324 27.6082 3.09729 29.0709 0.551344C29.4199 -0.0486555 29.9186 -0.145953 30.5336 0.178371C31.9796 0.95675 33.4091 1.73513 34.8551 2.51351C35.52 2.87026 35.6696 3.37297 35.3039 4.03783C33.7083 6.82702 32.1126 9.59999 30.517 12.3892C30.2178 12.9243 29.6859 13.0378 29.0875 12.7135C27.6414 11.9351 26.212 11.1567 24.7826 10.3459C24.0678 9.94053 23.9681 9.47026 24.367 8.78918C24.4834 8.59459 24.5997 8.39999 24.7161 8.18918C24.6995 8.2054 24.6995 8.18918 24.6995 8.18918ZM34.4895 4.57297C34.6058 4.34594 34.7388 4.13513 34.8551 3.9081C35.0878 3.43783 34.9715 3.03243 34.5227 2.77297C33.2262 2.04324 31.9132 1.34594 30.6001 0.648642C30.0183 0.340534 29.6028 0.470263 29.2703 1.05405C27.924 3.35675 26.6109 5.65945 25.3144 7.94594C25.0153 8.48107 25.1482 8.91891 25.6801 9.2108C26.8769 9.85945 28.057 10.5243 29.2703 11.1567C30.251 11.6757 30.4837 11.6108 31.0488 10.6378C32.1957 8.62702 33.3426 6.59999 34.4895 4.57297ZM28.0902 11.6108C28.1235 11.5459 28.1567 11.4973 28.2066 11.4324C27.8908 10.9135 26.694 10.2973 26.0957 10.5243C26.827 10.9135 27.4586 11.254 28.0902 11.6108Z" fill="white"/>
<path d="M27.708 2.74054C27.2924 3.55135 27.1927 3.56757 26.4946 3.08108C26.0791 2.78919 25.6635 2.4973 25.2646 2.18919C24.8324 1.86487 24.6662 1.45946 24.9987 0.98919C25.3311 0.51892 25.7799 0.535136 26.2286 0.843244C26.6276 1.11892 27.0099 1.42703 27.4088 1.68649C27.8908 1.9946 28.0903 2.33514 27.708 2.74054Z" fill="white"/>
<path d="M26.7605 4.37838C26.345 5.20541 26.1954 5.23784 25.4973 4.75135C25.0984 4.47568 24.6828 4.21622 24.3005 3.90811C23.8351 3.53514 23.7686 3.0973 24.1011 2.72433C24.4501 2.31892 24.8657 2.31892 25.2978 2.61081C25.6967 2.88649 26.079 3.17838 26.4946 3.43784C26.96 3.6973 27.1096 3.98919 26.7605 4.37838Z" fill="white"/>
<path d="M25.7799 6.0973C25.3809 6.87568 25.2978 6.8919 24.5997 6.47027C24.2839 6.2919 23.9847 6.0973 23.7022 5.87027C23.3199 5.57838 23.1869 5.17298 23.4695 4.76757C23.7354 4.37838 24.1509 4.26487 24.5831 4.50811C24.8823 4.67027 25.1482 4.88108 25.4474 5.05946C25.9294 5.35135 26.1621 5.67568 25.7799 6.0973Z" fill="white"/>
<path d="M24.4668 8.52972C23.2368 7.92972 23.0373 7.36216 23.7354 6.59999C23.8351 6.48648 24.1343 6.45405 24.3005 6.5027C24.5332 6.58378 24.7493 6.74594 24.9155 6.92432C24.9986 7.02162 25.0651 7.23243 25.0153 7.34594C24.8657 7.76756 24.6496 8.14053 24.4668 8.52972Z" fill="white"/>
<path d="M42.9997 32.7243C42.6672 32.8541 42.3681 32.9351 42.1354 32.9514C42.1187 32.9514 42.1187 32.9514 42.1021 32.9514C42.2683 32.9189 42.4678 32.8865 42.7171 32.8216C42.8002 32.773 42.8999 32.7406 42.9997 32.7243Z" fill="white"/>
<path d="M42.8335 31.7838C42.7836 31.8 42.7337 31.8162 42.7005 31.8162C42.7005 31.8324 42.7005 31.8324 42.7005 31.8486C42.2185 31.9459 41.9858 31.9135 41.9858 31.9135C42.1686 31.9135 42.3348 31.8973 42.5177 31.8649C42.6174 31.8486 42.7337 31.8162 42.8335 31.7838Z" fill="white"/>
<path d="M47.7035 25.7676C47.7035 25.7351 47.6869 25.7027 47.6869 25.6703C47.7035 25.6865 47.7035 25.7351 47.7035 25.7676Z" fill="white"/>
</g>
<defs>
<clipPath id="clip0_1261_289589">
<rect width="49" height="33" fill="white"/>
</clipPath>
</defs>
</svg>
