<svg width="16" height="18" viewBox="0 0 16 18" fill="none" xmlns="http://www.w3.org/2000/svg">
<path d="M6 13.9292C6 13.3365 5.55312 12.8577 5 12.8577H2C1.44687 12.8577 1 12.3789 1 11.7862V2.14295C1 1.55029 1.44687 1.07147 2 1.07147H14C14.5531 1.07147 15 1.55029 15 2.14295V11.7862C15 12.3789 14.5531 12.8577 14 12.8577H9.66562C9.45 12.8577 9.2375 12.9314 9.06563 13.072L6 15.5364V13.9292ZM2 0C0.896875 0 0 0.960979 0 2.14295V11.7862C0 12.9682 0.896875 13.9292 2 13.9292H4H5V15.0006V16.6079C5 16.8121 5.10625 16.9963 5.275 17.0867C5.44375 17.1771 5.64688 17.157 5.8 17.0364L9.66562 13.9292H14C15.1031 13.9292 16 12.9682 16 11.7862V2.14295C16 0.960979 15.1031 0 14 0H2ZM4.5 4.82164C4.225 4.82164 4 5.06272 4 5.35737C4 5.65203 4.225 5.89311 4.5 5.89311H11.5C11.775 5.89311 12 5.65203 12 5.35737C12 5.06272 11.775 4.82164 11.5 4.82164H4.5ZM4.5 8.03606C4.225 8.03606 4 8.27714 4 8.5718C4 8.86645 4.225 9.10754 4.5 9.10754H8.5C8.775 9.10754 9 8.86645 9 8.5718C9 8.27714 8.775 8.03606 8.5 8.03606H4.5Z" fill="#696969"/>
</svg>
