<svg width="20" height="20" viewBox="0 0 20 20" fill="none" xmlns="http://www.w3.org/2000/svg">
<path d="M16.1041 7.89014C16.1041 7.89014 15.6516 13.5026 15.3891 15.8668C15.2641 16.996 14.5666 17.6576 13.4241 17.6785C11.2499 17.7176 9.07326 17.7201 6.89993 17.6743C5.80076 17.6518 5.11493 16.9818 4.99243 15.8726C4.72826 13.4876 4.27826 7.89014 4.27826 7.89014" stroke="white" stroke-width="1.5" stroke-linecap="round" stroke-linejoin="round"/>
<path d="M17.2569 5.19971H3.12518" stroke="white" stroke-width="1.5" stroke-linecap="round" stroke-linejoin="round"/>
<path d="M14.5339 5.19974C13.8797 5.19974 13.3164 4.73724 13.188 4.0964L12.9855 3.08307C12.8605 2.61557 12.4372 2.29224 11.9547 2.29224H8.42719C7.94469 2.29224 7.52136 2.61557 7.39636 3.08307L7.19386 4.0964C7.06552 4.73724 6.50219 5.19974 5.84802 5.19974" stroke="white" stroke-width="1.5" stroke-linecap="round" stroke-linejoin="round"/>
</svg>
