<svg width="16" height="15" viewBox="0 0 16 15" fill="none" xmlns="http://www.w3.org/2000/svg">
<path d="M1.78857 13.4143H7.22693L7.19619 13.54C7.13192 13.7971 7.14589 14.0654 7.23252 14.3085H1.78857C0.802061 14.3085 0 13.5065 0 12.52V1.78857C0 0.802061 0.802061 0 1.78857 0H6.151C6.50592 0 6.84686 0.142527 7.09838 0.394044L10.3374 3.63023C10.5889 3.88175 10.7314 4.2227 10.7314 4.57762V7.98428L9.83712 8.87856V5.3657H6.70713C5.96655 5.3657 5.3657 4.76486 5.3657 4.02428V0.894284H1.78857C1.29392 0.894284 0.894284 1.29392 0.894284 1.78857V12.52C0.894284 13.0146 1.29392 13.4143 1.78857 13.4143ZM9.82315 4.47142C9.80359 4.39317 9.76446 4.32051 9.70578 4.26462L6.46679 1.02563C6.4081 0.966945 6.33824 0.92782 6.25999 0.908257V4.02428C6.25999 4.27021 6.4612 4.47142 6.70713 4.47142H9.82315ZM14.4902 7.37784C14.3169 7.20458 14.0319 7.20458 13.8586 7.37784L13.1655 8.07091L14.2806 9.18597L14.9737 8.4929C15.1469 8.31964 15.1469 8.03458 14.9737 7.86131L14.493 7.37784H14.4902ZM9.56884 11.6676C9.51015 11.7263 9.47103 11.7962 9.45146 11.8744L9.11052 13.2438L10.4771 12.9028C10.5553 12.8833 10.628 12.8414 10.6839 12.7855L13.6518 9.81756L12.5367 8.7025L9.56884 11.6676ZM13.227 6.74625C13.7496 6.22366 14.5992 6.22366 15.1246 6.74625L15.6081 7.22973C16.1306 7.75232 16.1306 8.60189 15.6081 9.12729L11.3183 13.4171C11.145 13.5903 10.9298 13.7105 10.6951 13.7692L8.60469 14.2918C8.45098 14.3309 8.29169 14.2862 8.1799 14.1744C8.06812 14.0626 8.02341 13.9033 8.06253 13.7496L8.58513 11.6592C8.64382 11.4245 8.76678 11.2065 8.93725 11.036L13.227 6.74625Z" fill="#696969"/>
</svg>
