<svg width="12" height="12" viewBox="0 0 12 12" fill="none" xmlns="http://www.w3.org/2000/svg">
<g clip-path="url(#clip0_1084_64351)">
<path d="M6.00001 0.75C7.3925 0.75 8.72795 1.30316 9.71258 2.2878C10.6972 3.27244 11.2504 4.60789 11.2504 6.00037C11.2504 7.39286 10.6972 8.72831 9.71258 9.71295C8.72795 10.6976 7.3925 11.2508 6.00001 11.2508C4.60752 11.2508 3.27207 10.6976 2.28743 9.71295C1.3028 8.72831 0.749634 7.39286 0.749634 6.00037C0.749634 4.60789 1.3028 3.27244 2.28743 2.2878C3.27207 1.30316 4.60752 0.75 6.00001 0.75ZM6.78751 3.9735C7.17751 3.9735 7.49401 3.70275 7.49401 3.3015C7.49401 2.90025 7.17676 2.6295 6.78751 2.6295C6.39751 2.6295 6.08251 2.90025 6.08251 3.3015C6.08251 3.70275 6.39751 3.9735 6.78751 3.9735ZM6.92476 8.19375C6.92476 8.1135 6.95251 7.905 6.93676 7.7865L6.32026 8.496C6.19276 8.63025 6.03301 8.72325 5.95801 8.6985C5.92398 8.68598 5.89555 8.66172 5.87781 8.6301C5.86007 8.59848 5.85421 8.56156 5.86126 8.526L6.88876 5.28C6.97276 4.86825 6.74176 4.4925 6.25201 4.4445C5.73526 4.4445 4.97476 4.96875 4.51201 5.634C4.51201 5.7135 4.49701 5.9115 4.51276 6.03L5.12851 5.31975C5.25601 5.187 5.40451 5.09325 5.47951 5.11875C5.51646 5.13201 5.54674 5.15923 5.56385 5.19457C5.58095 5.22991 5.58352 5.27054 5.57101 5.30775L4.55251 8.538C4.43476 8.916 4.65751 9.2865 5.19751 9.3705C5.99251 9.3705 6.46201 8.859 6.92551 8.19375H6.92476Z" fill="#696969"/>
</g>
<defs>
<clipPath id="clip0_1084_64351">
<rect width="12" height="12" fill="white"/>
</clipPath>
</defs>
</svg>
