<svg width="20" height="20" viewBox="0 0 20 20" fill="none" xmlns="http://www.w3.org/2000/svg">
<g clip-path="url(#clip0_1470_249870)">
<path d="M0 17.8935C0 12.6312 0 7.36883 0 2.11042C0.0587314 2.09084 0.0391543 2.03602 0.0509005 1.99295C0.375881 0.732185 1.31558 0 2.61942 0C7.54111 0 12.4628 0 17.3845 0C17.6077 0 17.8269 0.0117463 18.0423 0.0626468C19.2326 0.344558 20 1.32733 20 2.57635C20 7.52545 20 12.4706 20 17.4197C20 17.4706 20 17.5254 19.9961 17.5764C19.9648 18.6022 19.3109 19.5027 18.3438 19.8473C18.1832 19.906 18.0149 19.9491 17.8504 20C16.4839 20 15.1175 20 13.7471 20C13.7471 17.78 13.751 15.5599 13.7431 13.3399C13.7431 13.1558 13.794 13.1167 13.9702 13.1206C14.4636 13.1323 14.9608 13.1167 15.4542 13.1284C15.5912 13.1323 15.646 13.0814 15.693 12.964C16.0063 12.1652 16.3273 11.3704 16.6445 10.5756C16.7189 10.3915 16.7933 10.2036 16.8716 10C16.7737 10 16.7032 10 16.6327 10C15.7361 10 14.8356 9.99609 13.9389 10.0039C13.7823 10.0039 13.7471 9.95693 13.7471 9.80814C13.7549 9.06421 13.751 8.3242 13.751 7.58027C13.751 7.09084 13.9233 6.91464 14.4127 6.87941C14.491 6.87549 14.5693 6.87549 14.6476 6.87549C15.1292 6.87549 15.6108 6.87157 16.0924 6.87941C16.2216 6.87941 16.2569 6.84417 16.2569 6.71496C16.2529 5.78309 16.2529 4.85513 16.2569 3.92326C16.2569 3.79013 16.2255 3.74706 16.0885 3.74706C15.3093 3.75489 14.5262 3.75098 13.7471 3.75098C13.5395 3.75098 13.332 3.77056 13.1245 3.80579C11.2999 4.13469 10.0235 5.65388 10.0078 7.5137C10 8.26938 10 9.02506 10.0117 9.78074C10.0117 9.9491 9.98042 10.0117 9.79248 10.0078C9.09554 9.99609 8.39859 10.0078 7.70164 10C7.56069 10 7.49804 10.0196 7.50196 10.184C7.50979 11.1081 7.50979 12.0321 7.50196 12.9561C7.50196 13.0932 7.5372 13.1284 7.67424 13.1284C8.37901 13.1206 9.07987 13.1323 9.78465 13.1206C9.95693 13.1167 10.0117 13.1597 10.0117 13.3399C10.0039 15.5599 10.0078 17.78 10.0078 20C7.37666 20 4.7455 20 2.11825 20C2.08692 19.9334 2.01644 19.953 1.96554 19.9374C0.963195 19.675 0.332811 19.0446 0.0704777 18.0423C0.0469851 17.9953 0.0665623 17.9248 0 17.8935Z" fill="#1B76BD"/>
<path d="M10 20C10 17.78 9.9961 15.5599 10.0039 13.3399C10.0039 13.1558 9.95303 13.1167 9.77683 13.1206C9.07206 13.1284 8.3712 13.1206 7.66642 13.1284C7.52938 13.1284 7.49414 13.0932 7.49414 12.9562C7.50197 12.0321 7.50197 11.1081 7.49414 10.184C7.49414 10.0196 7.55287 9.99609 7.69383 10C8.39077 10.0078 9.08772 9.99609 9.78467 10.0078C9.97261 10.0118 10.0039 9.94911 10.0039 9.78074C9.9961 9.02507 9.9961 8.26939 10 7.51371C10.0157 5.65388 11.2921 4.1347 13.1167 3.8058C13.3203 3.77056 13.5278 3.75099 13.7392 3.75099C14.5184 3.75099 15.3015 3.7549 16.0807 3.74707C16.2216 3.74707 16.253 3.79014 16.249 3.92326C16.2451 4.85514 16.2451 5.78309 16.249 6.71496C16.249 6.84417 16.2138 6.87941 16.0846 6.87941C15.603 6.87158 15.1214 6.8755 14.6398 6.8755C14.5615 6.8755 14.4832 6.8755 14.4049 6.87941C13.9154 6.91465 13.7471 7.09476 13.7432 7.58027C13.7432 8.3242 13.7471 9.06422 13.7392 9.80815C13.7392 9.95694 13.7706 10.0039 13.9311 10.0039C14.8277 9.99609 15.7283 10 16.6249 10C16.6954 10 16.7659 10 16.8638 10C16.7815 10.2036 16.7111 10.3876 16.6367 10.5756C16.3195 11.3704 15.9984 12.1652 15.6852 12.964C15.6382 13.0854 15.5834 13.1323 15.4464 13.1284C14.953 13.1167 14.4558 13.1323 13.9624 13.1206C13.7901 13.1167 13.7353 13.1598 13.7353 13.3399C13.7432 15.5599 13.7392 17.78 13.7392 20C12.502 20 11.249 20 10 20Z" fill="#FAFBFC"/>
</g>
<defs>
<clipPath id="clip0_1470_249870">
<rect width="20" height="20" fill="white"/>
</clipPath>
</defs>
</svg>
