<svg width="390" height="118" viewBox="0 0 390 118" fill="none" xmlns="http://www.w3.org/2000/svg">
<rect x="390" y="168" width="393" height="157" transform="rotate(-180 390 168)" fill="#3A3A9A"/>
<path d="M391 20.0001L391 4.83944C388.676 4.83944 386.959 3.95343 385.242 3.06741C384.837 2.87052 384.433 2.67363 384.13 2.47674C380.291 0.606277 376.553 0.606274 373.219 2.57519C367.764 5.82389 362.612 5.43011 357.358 2.77208C355.944 2.37829 354.53 1.78762 353.216 1.19695C352.408 1.00006 351.499 1.00006 350.691 1.00006C348.973 1.78762 347.256 2.37829 345.437 2.87052C339.78 5.82389 334.426 5.13477 328.869 2.08295C325.535 0.212488 321.797 0.606271 318.666 2.47674C312.907 5.92233 307.452 5.23321 301.794 2.27984C298.562 0.507823 295.43 0.606269 292.096 2.37829C287.045 5.03632 281.69 6.11922 276.235 2.96896C271.992 0.507821 267.648 0.507821 263.405 2.96896C258.05 6.11922 252.797 5.23321 247.746 2.57518C243.806 0.507817 239.967 0.704708 236.33 2.77207C231.177 5.62699 226.328 5.62699 221.277 2.77206C217.337 0.507816 213.094 0.606262 209.053 2.77206C204.103 5.52854 199.253 5.72543 194.202 2.87051C190.06 0.507814 185.615 0.507814 181.473 2.96895C176.624 5.72543 171.774 5.52854 166.925 2.87051C162.783 0.606258 158.641 0.507811 154.499 2.8705C149.65 5.62698 144.699 5.82387 139.648 2.8705C135.506 0.507809 131.263 0.507809 127.222 2.8705C122.07 5.82387 117.221 5.52853 112.169 2.8705C108.229 0.704699 104.188 0.606252 100.248 2.8705C94.9949 5.82387 89.8426 5.72542 84.6902 2.77205C80.9523 0.704694 76.9113 0.704694 73.2744 2.77205C68.021 5.72542 63.0708 5.92231 57.7164 2.8705C53.8774 0.704694 49.7354 0.704694 45.6944 2.8705C40.5421 5.82386 35.5918 5.72542 30.3385 2.87049C26.7015 0.803135 22.8626 0.507799 18.9226 2.87049C13.1641 6.21764 7.40564 5.72541 1.74823 2.6736C0.940004 2.18137 0.131807 1.98448 -0.777434 1.78759C-1.48459 1.5907 -2.29281 1.39381 -3 1.00002L-3 20L391 20.0001Z" fill="#3A3A9A"/>
<path d="M393 15.288C389.082 16.3197 386.64 14.1991 384.141 12.7662C380.337 10.531 376.589 10.4737 373.239 12.8808C367.674 16.9501 362.336 16.377 356.941 12.8235C353.477 10.531 349.786 10.3017 346.549 12.6516C340.473 17.0074 334.908 16.377 329.003 12.4223C325.709 10.1871 321.961 10.6456 318.838 12.8808C313.046 17.1221 307.651 16.2624 302.03 12.5943C298.85 10.4737 295.67 10.5883 292.319 12.7662C287.265 15.9758 281.984 17.3513 276.476 13.454C272.274 10.4736 267.902 10.4163 263.643 13.3967C258.305 17.1794 253.081 16.1477 248.027 12.9381C244.052 10.359 240.304 10.7029 236.613 13.1674C231.502 16.6062 226.675 16.6062 221.621 13.1101C217.646 10.359 213.444 10.4163 209.412 13.1674C204.472 16.4916 199.645 16.7209 194.648 13.282C190.503 10.4163 186.13 10.4163 181.928 13.3967C177.045 16.7782 172.275 16.5489 167.448 13.282C163.359 10.531 159.157 10.4163 155.012 13.282C150.128 16.6635 145.245 16.8355 140.248 13.3393C136.159 10.4736 131.843 10.4163 127.812 13.282C122.701 16.8355 117.817 16.5489 112.764 13.2247C108.845 10.5883 104.757 10.4736 100.839 13.2247C95.6143 16.8355 90.5036 16.7209 85.2793 13.1101C81.5883 10.5309 77.5565 10.5309 73.8654 13.1101C68.6412 16.7209 63.644 16.8928 58.363 13.2247C54.5016 10.5309 50.3562 10.5309 46.3813 13.282C41.2706 16.8355 36.2734 16.7782 31.106 13.2247C27.4717 10.7602 23.6103 10.359 19.7488 13.1674C14.0135 17.294 8.2214 16.6635 2.6564 12.8808C1.17999 11.8492 -0.466797 11.7345 -2 10.8175C-0.182861 9.90048 1.57748 10.4163 3.22427 11.3333C6.06354 12.9954 8.84604 14.7722 12.4235 14.2563C14.3542 13.9698 16.0578 13.6832 17.7046 12.5369C22.5313 9.1554 27.8124 9.27003 32.8095 12.5369C36.6141 15.0587 40.7027 15.1734 44.5074 12.6516C49.7884 9.21272 54.8423 9.21272 60.1234 12.6516C63.7576 15.0014 67.7894 15.3453 71.5372 12.8235C76.8751 9.21272 81.9857 9.09809 87.3236 12.7662C91.1282 15.4026 95.2168 15.2307 99.0214 12.6516C104.189 9.21272 109.186 9.09809 114.354 12.6516C118.215 15.3453 122.303 15.1161 126.051 12.7089C131.446 9.21273 136.5 9.21273 141.895 12.8235C145.472 15.2307 149.617 15.1161 153.138 12.8235C158.533 9.32736 163.587 9.0981 168.924 12.8235C172.899 15.5746 177.045 15.3453 181.077 12.5369C185.79 9.21273 190.616 9.15542 195.386 12.365C199.872 15.4026 204.188 15.1734 208.561 12.3077C213.16 9.32736 217.93 9.21273 222.416 12.2504C227.016 15.3453 231.388 15.1734 235.875 12.3077C240.474 9.32737 245.131 9.27005 249.673 12.365C254.216 15.46 258.645 15.288 263.132 12.3077C267.731 9.27005 272.444 9.38468 276.987 12.365C281.53 15.3453 285.903 15.288 290.445 12.3077C294.931 9.32737 299.531 9.38469 304.017 12.3077C308.56 15.288 312.762 15.3453 317.362 12.3077C321.677 9.442 326.561 9.15542 330.99 12.1931C335.874 15.5746 340.417 15.1734 345.187 12.1358C349.502 9.38469 354.159 9.32737 358.304 12.2504C362.904 15.5173 367.276 15.288 371.705 12.537C377.214 9.09812 382.381 9.55663 387.378 13.454C388.968 14.3137 391.183 13.454 393 15.288Z" fill="white"/>
<path d="M393 10.288C389.082 11.3197 386.64 9.19906 384.141 7.76621C380.337 5.53097 376.589 5.47366 373.239 7.88085C367.674 11.9501 362.336 11.377 356.941 7.82353C353.477 5.53097 349.786 5.30171 346.549 7.65158C340.473 12.0074 334.908 11.377 329.003 7.42233C325.709 5.18708 321.961 5.6456 318.838 7.88084C313.046 12.1221 307.651 11.2624 302.03 7.59427C298.85 5.47365 295.67 5.58827 292.319 7.7662C287.265 10.9758 281.984 12.3513 276.476 8.45398C272.274 5.47365 267.902 5.41633 263.643 8.39666C258.305 12.1794 253.081 11.1477 248.027 7.93814C244.052 5.35901 240.304 5.7029 236.613 8.1674C231.502 11.6062 226.675 11.6062 221.621 8.11009C217.646 5.35901 213.444 5.41633 209.412 8.1674C204.472 11.4916 199.645 11.7209 194.648 8.28203C190.503 5.41633 186.13 5.41632 181.928 8.39665C177.045 11.7782 172.275 11.5489 167.448 8.28202C163.359 5.53095 159.157 5.41632 155.012 8.28202C150.128 11.6635 145.245 11.8355 140.248 8.33933C136.159 5.47363 131.843 5.41632 127.812 8.28202C122.701 11.8355 117.817 11.5489 112.764 8.2247C108.845 5.58826 104.757 5.47363 100.839 8.2247C95.6143 11.8355 90.5036 11.7209 85.2793 8.11007C81.5883 5.53094 77.5565 5.53094 73.8654 8.11007C68.6412 11.7209 63.644 11.8928 58.363 8.2247C54.5016 5.53094 50.3562 5.53094 46.3813 8.28201C41.2706 11.8355 36.2734 11.7782 31.106 8.2247C27.4717 5.76019 23.6103 5.359 19.7488 8.16739C14.0135 12.294 8.2214 11.6635 2.6564 7.88081C1.17999 6.84916 -0.466797 6.73453 -2 5.81751C-0.182861 4.90048 1.57748 5.4163 3.22427 6.33333C6.06354 7.99544 8.84604 9.77217 12.4235 9.25635C14.3542 8.96978 16.0578 8.68321 17.7046 7.53693C22.5313 4.1554 27.8124 4.27003 32.8095 7.53693C36.6141 10.0587 40.7027 10.1734 44.5074 7.65156C49.7884 4.21272 54.8423 4.21272 60.1234 7.65156C63.7576 10.0014 67.7894 10.3453 71.5372 7.8235C76.8751 4.21272 81.9857 4.09809 87.3236 7.76619C91.1282 10.4026 95.2168 10.2307 99.0214 7.65156C104.189 4.21272 109.186 4.09809 114.354 7.65156C118.215 10.3453 122.303 10.1161 126.051 7.70888C131.446 4.21273 136.5 4.21273 141.895 7.82351C145.472 10.2307 149.617 10.1161 153.138 7.82351C158.533 4.32736 163.587 4.0981 168.924 7.82351C172.899 10.5746 177.045 10.3453 181.077 7.53694C185.79 4.21273 190.616 4.15542 195.386 7.365C199.872 10.4026 204.188 10.1734 208.561 7.30769C213.16 4.32736 217.93 4.21273 222.416 7.25038C227.016 10.3453 231.388 10.1734 235.875 7.30769C240.474 4.32737 245.131 4.27005 249.673 7.365C254.216 10.46 258.645 10.288 263.132 7.3077C267.731 4.27005 272.444 4.38468 276.987 7.36501C281.53 10.3453 285.903 10.288 290.445 7.3077C294.931 4.32737 299.531 4.38469 304.017 7.3077C308.56 10.288 312.762 10.3453 317.362 7.3077C321.677 4.442 326.561 4.15542 330.99 7.19307C335.874 10.5746 340.417 10.1734 345.187 7.13576C349.502 4.38469 354.159 4.32737 358.304 7.25039C362.904 10.5173 367.276 10.288 371.705 7.53696C377.214 4.09812 382.381 4.55663 387.378 8.45399C388.968 9.3137 391.183 8.45399 393 10.288Z" fill="white"/>
<path d="M393 5.28803C389.082 6.31969 386.64 4.19906 384.141 2.76621C380.337 0.530966 376.589 0.473659 373.239 2.88085C367.674 6.95014 362.336 6.377 356.941 2.82353C353.477 0.530967 349.786 0.301709 346.549 2.65158C340.473 7.00745 334.908 6.37699 329.003 2.42233C325.709 0.187082 321.961 0.645596 318.838 2.88084C313.046 7.12208 307.651 6.26237 302.03 2.59427C298.85 0.473652 295.67 0.588273 292.319 2.7662C287.265 5.97579 281.984 7.35133 276.476 3.45398C272.274 0.473649 267.902 0.416332 263.643 3.39666C258.305 7.17938 253.081 6.14773 248.027 2.93814C244.052 0.359014 240.304 0.702902 236.613 3.1674C231.502 6.60624 226.675 6.60624 221.621 3.11009C217.646 0.359013 213.444 0.41633 209.412 3.1674C204.472 6.49161 199.645 6.72087 194.648 3.28203C190.503 0.416326 186.13 0.416325 181.928 3.39665C177.045 6.77818 172.275 6.54892 167.448 3.28202C163.359 0.530952 159.157 0.416324 155.012 3.28202C150.128 6.66355 145.245 6.83548 140.248 3.33933C136.159 0.47363 131.843 0.416321 127.812 3.28202C122.701 6.83549 117.817 6.54891 112.764 3.2247C108.845 0.588258 104.757 0.47363 100.839 3.2247C95.6143 6.83548 90.5036 6.72086 85.2793 3.11007C81.5883 0.530943 77.5565 0.530943 73.8654 3.11007C68.6412 6.72085 63.644 6.89279 58.363 3.2247C54.5016 0.530939 50.3562 0.530942 46.3813 3.28201C41.2706 6.83548 36.2734 6.77816 31.106 3.2247C27.4717 0.760193 23.6103 0.359 19.7488 3.16739C14.0135 7.29399 8.2214 6.66354 2.6564 2.88081C1.17999 1.84916 -0.466797 1.73453 -2 0.817506C-0.182861 -0.0995179 1.57748 0.416305 3.22427 1.33333C6.06354 2.99544 8.84604 4.77217 12.4235 4.25635C14.3542 3.96978 16.0578 3.68321 17.7046 2.53693C22.5313 -0.844598 27.8124 -0.729969 32.8095 2.53693C36.6141 5.05875 40.7027 5.17337 44.5074 2.65156C49.7884 -0.787283 54.8423 -0.787283 60.1234 2.65156C63.7576 5.00143 67.7894 5.34532 71.5372 2.8235C76.8751 -0.787279 81.9857 -0.90191 87.3236 2.76619C91.1282 5.40263 95.2168 5.23069 99.0214 2.65156C104.189 -0.787279 109.186 -0.901906 114.354 2.65156C118.215 5.34532 122.303 5.11607 126.051 2.70888C131.446 -0.787272 136.5 -0.787274 141.895 2.82351C145.472 5.2307 149.617 5.11607 153.138 2.82351C158.533 -0.672644 163.587 -0.901899 168.924 2.82351C172.899 5.57458 177.045 5.34533 181.077 2.53694C185.79 -0.78727 190.616 -0.844585 195.386 2.365C199.872 5.40264 204.188 5.17339 208.561 2.30769C213.16 -0.672636 217.93 -0.787267 222.416 2.25038C227.016 5.34533 231.388 5.17339 235.875 2.30769C240.474 -0.672633 245.131 -0.729952 249.673 2.365C254.216 5.45996 258.645 5.28802 263.132 2.3077C267.731 -0.729945 272.444 -0.615322 276.987 2.36501C281.53 5.34533 285.903 5.28803 290.445 2.3077C294.931 -0.672628 299.531 -0.615314 304.017 2.3077C308.56 5.28803 312.762 5.34534 317.362 2.3077C321.677 -0.557998 326.561 -0.844575 330.99 2.19307C335.874 5.57459 340.417 5.1734 345.187 2.13576C349.502 -0.615312 354.159 -0.672627 358.304 2.25039C362.904 5.51729 367.276 5.28803 371.705 2.53696C377.214 -0.901881 382.381 -0.443365 387.378 3.45399C388.968 4.3137 391.183 3.45399 393 5.28803Z" fill="white"/>
<path d="M50.152 49V40.36H52.66C53.212 40.36 53.692 40.464 54.1 40.672C54.476 40.864 54.784 41.164 55.024 41.572C55.272 41.98 55.396 42.464 55.396 43.024C55.396 43.56 55.272 44.048 55.024 44.488C54.784 44.928 54.444 45.256 54.004 45.472L55.852 49H55.132L53.392 45.676C53.192 45.708 52.944 45.724 52.648 45.724H50.788V49H50.152ZM52.708 40.948H50.788V45.136H52.792C53.368 45.136 53.836 44.944 54.196 44.56C54.556 44.176 54.736 43.664 54.736 43.024C54.76 42.472 54.58 41.98 54.196 41.548C53.82 41.116 53.324 40.916 52.708 40.948ZM57.2262 47.368V42.568H57.8262V47.272C57.8262 47.688 57.9422 48.012 58.1742 48.244C58.4062 48.468 58.7462 48.58 59.1942 48.58C59.9222 48.58 60.8142 48.256 61.8702 47.608V42.568H62.4702V49H61.9662L61.8942 48.148C60.7502 48.812 59.8022 49.144 59.0502 49.144C58.4582 49.144 58.0062 48.992 57.6942 48.688C57.3822 48.376 57.2262 47.936 57.2262 47.368ZM69.7958 44.2V49H69.1838V44.296C69.1838 43.88 69.0678 43.56 68.8358 43.336C68.6038 43.104 68.2678 42.988 67.8278 42.988C67.1478 42.988 66.2558 43.312 65.1518 43.96V49H64.5398V42.568H65.1278V43.432C66.3358 42.76 67.2838 42.424 67.9718 42.424C68.5638 42.424 69.0158 42.58 69.3278 42.892C69.6398 43.196 69.7958 43.632 69.7958 44.2ZM77.0732 44.2V49H76.4612V44.296C76.4612 43.88 76.3452 43.56 76.1132 43.336C75.8812 43.104 75.5452 42.988 75.1052 42.988C74.4252 42.988 73.5332 43.312 72.4292 43.96V49H71.8172V42.568H72.4052V43.432C73.6132 42.76 74.5612 42.424 75.2492 42.424C75.8412 42.424 76.2932 42.58 76.6052 42.892C76.9172 43.196 77.0732 43.632 77.0732 44.2ZM79.0945 42.568H79.7065V49H79.0945V42.568ZM79.0825 40.36H79.7185V41.416H79.0825V40.36ZM87.0224 44.2V49H86.4104V44.296C86.4104 43.88 86.2944 43.56 86.0624 43.336C85.8304 43.104 85.4944 42.988 85.0544 42.988C84.3744 42.988 83.4824 43.312 82.3784 43.96V49H81.7664V42.568H82.3544V43.432C83.5624 42.76 84.5104 42.424 85.1984 42.424C85.7904 42.424 86.2424 42.58 86.5544 42.892C86.8664 43.196 87.0224 43.632 87.0224 44.2ZM88.6477 44.692C88.6477 44.084 88.8517 43.556 89.2597 43.108C89.6677 42.66 90.3037 42.436 91.1677 42.436C91.3997 42.436 91.7357 42.46 92.1757 42.508C92.6317 42.556 92.9557 42.58 93.1477 42.58C93.5797 42.58 93.9957 42.548 94.3957 42.484V43.06H92.9317C93.4517 43.428 93.7117 43.976 93.7117 44.704C93.7117 45.376 93.4957 45.912 93.0637 46.312C92.6317 46.704 92.0077 46.9 91.1917 46.9C90.8077 46.9 90.4357 46.832 90.0757 46.696C89.8677 46.96 89.7637 47.256 89.7637 47.584C89.7637 47.776 89.8237 47.932 89.9437 48.052C90.0717 48.164 90.2517 48.22 90.4837 48.22H92.5237C93.0277 48.22 93.4437 48.356 93.7717 48.628C94.1077 48.9 94.2757 49.284 94.2757 49.78C94.2757 50.396 94.0197 50.852 93.5077 51.148C93.0037 51.452 92.2237 51.604 91.1677 51.604C89.4317 51.604 88.5637 51.116 88.5637 50.14C88.5397 49.836 88.6397 49.532 88.8637 49.228C89.0957 48.924 89.3717 48.712 89.6917 48.592C89.3477 48.344 89.1757 48.06 89.1757 47.74C89.1757 47.332 89.3317 46.932 89.6437 46.54C88.9797 46.172 88.6477 45.556 88.6477 44.692ZM93.0877 44.68C93.0877 44.136 92.9237 43.712 92.5957 43.408C92.2757 43.096 91.8077 42.94 91.1917 42.94C90.5757 42.94 90.1037 43.096 89.7757 43.408C89.4477 43.712 89.2837 44.136 89.2837 44.68C89.2837 45.232 89.4437 45.66 89.7637 45.964C90.0917 46.268 90.5677 46.42 91.1917 46.42C91.8077 46.42 92.2757 46.268 92.5957 45.964C92.9237 45.66 93.0877 45.232 93.0877 44.68ZM92.3677 48.76H90.3277C90.0237 48.84 89.7797 48.972 89.5957 49.156C89.4117 49.348 89.2997 49.516 89.2597 49.66C89.2197 49.804 89.1997 49.944 89.1997 50.08C89.1997 50.424 89.3517 50.68 89.6557 50.848C89.9597 51.016 90.4797 51.1 91.2157 51.1C91.5677 51.1 91.8637 51.088 92.1037 51.064C92.3437 51.04 92.5917 50.988 92.8477 50.908C93.1037 50.828 93.2957 50.696 93.4237 50.512C93.5597 50.336 93.6277 50.108 93.6277 49.828C93.6277 49.516 93.5197 49.26 93.3037 49.06C93.0957 48.86 92.7837 48.76 92.3677 48.76ZM104.79 45.784C104.79 46.808 104.534 47.612 104.022 48.196C103.478 48.828 102.694 49.144 101.67 49.144C100.662 49.144 99.8783 48.828 99.3183 48.196C98.8143 47.612 98.5623 46.808 98.5623 45.784C98.5623 44.76 98.8143 43.956 99.3183 43.372C99.8783 42.74 100.662 42.424 101.67 42.424C102.086 42.424 102.47 42.484 102.822 42.604C103.182 42.724 103.51 42.912 103.806 43.168C104.11 43.416 104.35 43.764 104.526 44.212C104.702 44.66 104.79 45.184 104.79 45.784ZM104.142 45.784C104.142 44.912 103.93 44.228 103.506 43.732C103.09 43.228 102.482 42.976 101.682 42.976C100.978 42.976 100.398 43.188 99.9423 43.612C99.4543 44.076 99.2103 44.8 99.2103 45.784C99.2103 46.656 99.4183 47.344 99.8343 47.848C100.258 48.344 100.874 48.592 101.682 48.592C102.386 48.592 102.962 48.38 103.41 47.956C103.898 47.492 104.142 46.768 104.142 45.784ZM111.726 44.2V49H111.114V44.296C111.114 43.88 110.998 43.56 110.766 43.336C110.534 43.104 110.198 42.988 109.758 42.988C109.078 42.988 108.186 43.312 107.082 43.96V49H106.47V42.568H107.058V43.432C108.266 42.76 109.214 42.424 109.902 42.424C110.494 42.424 110.946 42.58 111.258 42.892C111.57 43.196 111.726 43.632 111.726 44.2ZM120.805 49V38.92H127.273V40.012H122.051V43.4H126.615V44.478H122.051V47.908H127.259V49H120.805ZM130.813 49.014L128.195 41.44H129.469L131.555 47.698H131.625L133.697 41.44H134.957L132.311 49.014H130.813ZM142.327 47.614V48.678C141.347 49.0047 140.395 49.168 139.471 49.168C138.249 49.168 137.329 48.846 136.713 48.202C136.107 47.558 135.803 46.5593 135.803 45.206C135.803 43.9273 136.102 42.952 136.699 42.28C137.297 41.608 138.16 41.272 139.289 41.272C140.363 41.272 141.165 41.5753 141.697 42.182C142.229 42.7887 142.495 43.7173 142.495 44.968V45.542H137.035C137.045 47.25 137.941 48.104 139.723 48.104C140.545 48.104 141.413 47.9407 142.327 47.614ZM137.021 44.646H141.263C141.263 43.05 140.587 42.252 139.233 42.252C138.645 42.2147 138.123 42.4107 137.665 42.84C137.217 43.2693 137.003 43.8713 137.021 44.646ZM150.66 43.428V49H149.47V43.638C149.47 43.2273 149.358 42.91 149.134 42.686C148.91 42.462 148.583 42.35 148.154 42.35C147.491 42.35 146.595 42.672 145.466 43.316V49H144.276V41.44H145.396V42.364C146.665 41.636 147.696 41.272 148.49 41.272C149.199 41.272 149.736 41.4587 150.1 41.832C150.473 42.196 150.66 42.728 150.66 43.428ZM154.333 39.774V41.44H156.755V42.476H154.333V47.222C154.333 47.4833 154.413 47.6933 154.571 47.852C154.739 48.0107 154.987 48.09 155.313 48.09C155.668 48.09 156.055 48.0247 156.475 47.894V48.944C155.719 49.084 155.145 49.154 154.753 49.154C154.184 49.154 153.769 49.0187 153.507 48.748C153.255 48.4773 153.129 48.062 153.129 47.502V42.476H152.065V41.72L152.317 41.44H153.129V40.516L153.843 39.774H154.333ZM158.197 49V38.92H159.443V43.344H164.959V38.92H166.205V49H164.959V44.422H159.443V49H158.197ZM174.593 47.614V48.678C173.613 49.0047 172.661 49.168 171.737 49.168C170.514 49.168 169.595 48.846 168.979 48.202C168.372 47.558 168.069 46.5593 168.069 45.206C168.069 43.9273 168.367 42.952 168.965 42.28C169.562 41.608 170.425 41.272 171.555 41.272C172.628 41.272 173.431 41.5753 173.963 42.182C174.495 42.7887 174.761 43.7173 174.761 44.968V45.542H169.301C169.31 47.25 170.206 48.104 171.989 48.104C172.81 48.104 173.678 47.9407 174.593 47.614ZM169.287 44.646H173.529C173.529 43.05 172.852 42.252 171.499 42.252C170.911 42.2147 170.388 42.4107 169.931 42.84C169.483 43.2693 169.268 43.8713 169.287 44.646ZM181.289 41.44H182.787L179.987 45.15L182.787 49H181.345L179.175 46.046L177.061 49H175.619L178.419 45.206L175.647 41.44H177.145L179.217 44.31L181.289 41.44ZM188.113 51.87V38.318H188.841V51.87H188.113ZM197.832 45.904H195.708V49H195.072V40.36H197.82C198.5 40.336 199.108 40.576 199.644 41.08C200.18 41.576 200.448 42.264 200.448 43.144C200.448 43.896 200.212 44.544 199.74 45.088C199.276 45.632 198.64 45.904 197.832 45.904ZM197.772 40.948H195.708V45.316H197.772C198.372 45.316 198.856 45.116 199.224 44.716C199.592 44.308 199.776 43.78 199.776 43.132C199.8 42.572 199.62 42.06 199.236 41.596C198.86 41.132 198.372 40.916 197.772 40.948ZM207.769 45.784C207.769 46.808 207.513 47.612 207.001 48.196C206.457 48.828 205.673 49.144 204.649 49.144C203.641 49.144 202.857 48.828 202.297 48.196C201.793 47.612 201.541 46.808 201.541 45.784C201.541 44.76 201.793 43.956 202.297 43.372C202.857 42.74 203.641 42.424 204.649 42.424C205.065 42.424 205.449 42.484 205.801 42.604C206.161 42.724 206.489 42.912 206.785 43.168C207.089 43.416 207.329 43.764 207.505 44.212C207.681 44.66 207.769 45.184 207.769 45.784ZM207.121 45.784C207.121 44.912 206.909 44.228 206.485 43.732C206.069 43.228 205.461 42.976 204.661 42.976C203.957 42.976 203.377 43.188 202.921 43.612C202.433 44.076 202.189 44.8 202.189 45.784C202.189 46.656 202.397 47.344 202.813 47.848C203.237 48.344 203.853 48.592 204.661 48.592C205.365 48.592 205.941 48.38 206.389 47.956C206.877 47.492 207.121 46.768 207.121 45.784ZM209.4 47.272V42.568H210.012V47.296C210.012 47.704 210.132 48.02 210.372 48.244C210.612 48.468 210.956 48.58 211.404 48.58C212.076 48.58 212.84 48.24 213.696 47.56C213.664 47.424 213.648 47.208 213.648 46.912V42.568H214.236V47.008C214.236 47.52 214.404 47.912 214.74 48.184C215.084 48.448 215.54 48.58 216.108 48.58C216.66 48.58 217.108 48.444 217.452 48.172C217.796 47.892 217.968 47.5 217.968 46.996V42.568H218.58V47.02C218.612 47.692 218.376 48.22 217.872 48.604C217.376 48.988 216.78 49.168 216.084 49.144C215.028 49.144 214.292 48.764 213.876 48.004C212.908 48.764 212.06 49.144 211.332 49.144C210.7 49.144 210.22 48.984 209.892 48.664C209.564 48.336 209.4 47.872 209.4 47.272ZM225.597 48.136V48.724C224.797 49.004 224.017 49.144 223.257 49.144C222.241 49.144 221.481 48.868 220.977 48.316C220.473 47.764 220.221 46.908 220.221 45.748C220.221 44.668 220.461 43.844 220.941 43.276C221.429 42.708 222.149 42.424 223.101 42.424C223.957 42.424 224.609 42.668 225.057 43.156C225.513 43.644 225.741 44.46 225.741 45.604V45.94H220.869C220.869 47.7 221.693 48.58 223.341 48.58C224.101 48.58 224.853 48.432 225.597 48.136ZM220.869 45.436H225.093C225.093 44.556 224.921 43.924 224.577 43.54C224.241 43.148 223.745 42.952 223.089 42.952C222.353 42.952 221.797 43.176 221.421 43.624C221.053 44.072 220.869 44.676 220.869 45.436ZM230.736 42.52V43.18C230.288 43.252 229.884 43.376 229.524 43.552C229.196 43.704 228.704 43.976 228.048 44.368V49H227.436V42.568H228.036V43.792C228.124 43.752 228.3 43.64 228.564 43.456C228.828 43.28 229.068 43.132 229.284 43.012C229.74 42.756 230.224 42.592 230.736 42.52ZM236.73 48.136V48.724C235.93 49.004 235.15 49.144 234.39 49.144C233.374 49.144 232.614 48.868 232.11 48.316C231.606 47.764 231.354 46.908 231.354 45.748C231.354 44.668 231.594 43.844 232.074 43.276C232.562 42.708 233.282 42.424 234.234 42.424C235.09 42.424 235.742 42.668 236.19 43.156C236.646 43.644 236.874 44.46 236.874 45.604V45.94H232.002C232.002 47.7 232.826 48.58 234.474 48.58C235.234 48.58 235.986 48.432 236.73 48.136ZM232.002 45.436H236.226C236.226 44.556 236.054 43.924 235.71 43.54C235.374 43.148 234.878 42.952 234.222 42.952C233.486 42.952 232.93 43.176 232.554 43.624C232.186 44.072 232.002 44.676 232.002 45.436ZM238.209 45.904C238.209 44.752 238.469 43.884 238.989 43.3C239.517 42.716 240.281 42.424 241.281 42.424C241.849 42.424 242.461 42.504 243.117 42.664V39.844H243.729V49H243.225L243.153 48.244C242.225 48.844 241.365 49.144 240.573 49.144C239.813 49.144 239.229 48.872 238.821 48.328C238.413 47.776 238.209 46.968 238.209 45.904ZM238.845 45.892C238.845 47.684 239.469 48.58 240.717 48.58C241.453 48.58 242.253 48.276 243.117 47.668V43.216C242.413 43.056 241.797 42.976 241.269 42.976C240.445 42.976 239.833 43.216 239.433 43.696C239.041 44.176 238.845 44.908 238.845 45.892ZM254.566 45.688C254.566 46.816 254.29 47.676 253.738 48.268C253.186 48.852 252.398 49.144 251.374 49.144C250.582 49.144 249.79 49.04 248.998 48.832V39.844H249.61V43.372C250.562 42.74 251.426 42.424 252.202 42.424C252.946 42.424 253.526 42.712 253.942 43.288C254.358 43.864 254.566 44.664 254.566 45.688ZM253.918 45.712C253.918 44.816 253.75 44.14 253.414 43.684C253.078 43.22 252.602 42.988 251.986 42.988C251.322 42.988 250.53 43.312 249.61 43.96V48.376C250.234 48.52 250.81 48.592 251.338 48.592C253.058 48.592 253.918 47.632 253.918 45.712ZM257.937 51.46H257.277L258.093 49H257.697L255.537 42.568H256.209L258.117 48.352H258.297L260.193 42.568H260.865L257.937 51.46ZM269.53 49H266.24V38.92H269.53C270.949 38.92 272.087 39.3633 272.946 40.25C273.814 41.1273 274.248 42.3687 274.248 43.974C274.248 45.5793 273.814 46.8207 272.946 47.698C272.087 48.566 270.949 49 269.53 49ZM272.022 46.83C272.657 46.1113 272.974 45.1593 272.974 43.974C272.974 42.7887 272.657 41.832 272.022 41.104C271.387 40.376 270.51 40.012 269.39 40.012H267.472V47.908H269.39C270.51 47.908 271.387 47.5487 272.022 46.83ZM278.222 44.562H280.476V43.75C280.476 42.7793 279.874 42.294 278.67 42.294C278.353 42.294 277.933 42.3313 277.41 42.406C276.85 42.49 276.435 42.5693 276.164 42.644V41.594C276.482 41.5193 276.939 41.4447 277.536 41.37C278.031 41.3047 278.498 41.272 278.936 41.272C279.814 41.272 280.49 41.4913 280.966 41.93C281.442 42.3593 281.68 42.9893 281.68 43.82V49H280.658L280.56 48.048C279.59 48.7293 278.694 49.07 277.872 49.07C277.135 49.07 276.556 48.8693 276.136 48.468C275.726 48.0667 275.52 47.53 275.52 46.858C275.52 46.13 275.758 45.5653 276.234 45.164C276.72 44.7627 277.382 44.562 278.222 44.562ZM280.476 47.18V45.458H278.348C277.826 45.458 277.424 45.5747 277.144 45.808C276.874 46.032 276.738 46.354 276.738 46.774C276.738 47.1847 276.869 47.5067 277.13 47.74C277.401 47.9733 277.765 48.09 278.222 48.09C278.568 48.09 278.95 48.006 279.37 47.838C279.79 47.6607 280.159 47.4413 280.476 47.18ZM285.345 39.774V41.44H287.767V42.476H285.345V47.222C285.345 47.4833 285.424 47.6933 285.583 47.852C285.751 48.0107 285.998 48.09 286.325 48.09C286.68 48.09 287.067 48.0247 287.487 47.894V48.944C286.731 49.084 286.157 49.154 285.765 49.154C285.196 49.154 284.78 49.0187 284.519 48.748C284.267 48.4773 284.141 48.062 284.141 47.502V42.476H283.077V41.72L283.329 41.44H284.141V40.516L284.855 39.774H285.345ZM291.197 44.562H293.451V43.75C293.451 42.7793 292.849 42.294 291.645 42.294C291.328 42.294 290.908 42.3313 290.385 42.406C289.825 42.49 289.41 42.5693 289.139 42.644V41.594C289.456 41.5193 289.914 41.4447 290.511 41.37C291.006 41.3047 291.472 41.272 291.911 41.272C292.788 41.272 293.465 41.4913 293.941 41.93C294.417 42.3593 294.655 42.9893 294.655 43.82V49H293.633L293.535 48.048C292.564 48.7293 291.668 49.07 290.847 49.07C290.11 49.07 289.531 48.8693 289.111 48.468C288.7 48.0667 288.495 47.53 288.495 46.858C288.495 46.13 288.733 45.5653 289.209 45.164C289.694 44.7627 290.357 44.562 291.197 44.562ZM293.451 47.18V45.458H291.323C290.8 45.458 290.399 45.5747 290.119 45.808C289.848 46.032 289.713 46.354 289.713 46.774C289.713 47.1847 289.844 47.5067 290.105 47.74C290.376 47.9733 290.74 48.09 291.197 48.09C291.542 48.09 291.925 48.006 292.345 47.838C292.765 47.6607 293.134 47.4413 293.451 47.18ZM296.934 49V38.92H298.18V43.344H303.696V38.92H304.942V49H303.696V44.422H298.18V49H296.934ZM313.329 47.614V48.678C312.349 49.0047 311.397 49.168 310.473 49.168C309.25 49.168 308.331 48.846 307.715 48.202C307.108 47.558 306.805 46.5593 306.805 45.206C306.805 43.9273 307.104 42.952 307.701 42.28C308.298 41.608 309.162 41.272 310.291 41.272C311.364 41.272 312.167 41.5753 312.699 42.182C313.231 42.7887 313.497 43.7173 313.497 44.968V45.542H308.037C308.046 47.25 308.942 48.104 310.725 48.104C311.546 48.104 312.414 47.9407 313.329 47.614ZM308.023 44.646H312.265C312.265 43.05 311.588 42.252 310.235 42.252C309.647 42.2147 309.124 42.4107 308.667 42.84C308.219 43.2693 308.004 43.8713 308.023 44.646ZM320.025 41.44H321.523L318.723 45.15L321.523 49H320.081L317.911 46.046L315.797 49H314.355L317.155 45.206L314.383 41.44H315.881L317.953 44.31L320.025 41.44Z" fill="white"/>
</svg>
