<svg width="390" height="216" viewBox="0 0 390 216" fill="none" xmlns="http://www.w3.org/2000/svg">
<path d="M383.173 172.024C380.707 172.779 378.991 172.186 377.328 171.269C376.095 170.568 374.861 169.814 373.628 169.113C369.982 167.118 366.711 168.682 363.6 170.514C359.203 173.048 354.967 173.426 350.516 170.568C346.28 167.765 341.99 167.603 337.593 170.622C333.571 173.426 329.174 173.426 325.045 170.676C320.272 167.442 315.661 168.142 311.21 171.161C307.188 173.857 303.327 173.048 299.466 170.838C296.731 169.221 293.997 167.765 290.726 168.682C288.42 169.328 286.275 170.407 284.291 171.808C282.36 173.156 277.159 173.372 275.228 171.862C273.512 170.514 271.582 169.652 269.651 168.843C266.219 167.334 263.109 168.897 260.482 170.838C257.532 172.94 254.368 173.318 251.097 172.725C249.167 172.401 247.665 170.676 245.949 169.652C241.767 167.172 238.174 168.52 234.796 170.784C231.846 172.779 228.897 173.048 225.68 172.455C223.535 172.024 221.926 170.514 219.995 169.598C216.081 167.765 212.595 168.52 209.163 170.622C204.82 173.318 200.476 173.426 196.347 170.568C192.111 167.657 187.875 167.765 183.907 170.407C179.188 173.534 174.469 173.318 170.125 170.461C165.46 167.442 161.384 168.789 157.255 171C153.448 173.048 149.694 173.372 145.887 171.215C143.903 170.083 141.919 168.843 139.56 168.628C136.878 168.412 134.358 169.328 132.32 170.622C127.601 173.534 122.99 173.156 118.646 170.461C114.195 167.657 110.227 168.088 106.045 170.784C102.13 173.318 98.1618 173.156 94.14 171.054C92.3168 170.083 90.6009 169.059 88.5631 168.682C85.453 168.035 82.8254 169.436 80.3051 170.892C76.1224 173.372 71.9397 173.264 67.9179 170.73C63.5208 167.927 59.1772 167.549 54.8337 170.73C50.5438 173.911 46.2002 173.318 42.1784 170.676C37.674 167.657 33.4377 168.142 29.2014 170.73C24.8579 173.372 20.568 173.372 16.3853 170.676C14.3476 169.382 12.0418 168.789 9.41418 167.711C12.0954 166.795 14.0258 167.603 15.6346 168.735C20.568 172.347 25.126 172.186 30.1667 168.735C34.6174 165.716 39.2827 167.064 43.4654 169.868C46.951 172.186 50.4901 172.186 53.7076 169.975C58.9627 166.417 63.8425 166.363 69.0977 169.975C72.3687 172.24 76.176 172.24 79.4471 169.975C84.7022 166.309 89.582 166.417 94.7835 169.975C98.1618 172.294 102.023 172.24 105.347 169.814C110.495 166.094 115.536 166.525 120.523 169.814C124.116 172.24 127.709 172.132 130.98 169.814C136.181 166.202 141.007 166.417 146.102 169.921C149.319 172.132 153.019 172.24 156.183 170.029C161.867 166.094 167.122 166.471 172.699 170.353C175.488 172.294 179.027 172.078 181.815 170.083C187.499 165.932 192.808 166.579 198.385 170.299C201.388 172.294 204.82 172.078 207.716 169.975C213.346 165.932 218.601 166.471 223.964 170.353C226.001 171.862 230.613 171.916 232.651 170.407C237.96 166.525 243.215 165.878 248.899 169.975C252.116 172.294 255.924 172.186 259.248 169.921C264.45 166.363 269.383 166.309 274.638 169.975C277.802 172.186 281.502 172.186 284.773 170.029C290.243 166.417 295.069 166.04 300.646 170.353C303.059 172.24 307.134 172.186 310.298 170.137C311.961 169.113 313.516 167.873 315.5 167.442C318.771 166.741 321.881 167.118 324.669 169.113C328.53 171.862 332.391 172.401 336.574 169.598C341.507 166.309 346.441 166.202 351.535 169.814C354.86 172.186 358.774 172.24 362.099 169.814C367.676 165.77 372.985 166.687 378.186 170.137C379.688 170.946 381.296 170.838 383.173 172.024Z" fill="#EDF4FC"/>
<path d="M196.347 179.086C341.79 179.086 459.695 178.893 459.695 178.655C459.695 178.417 341.79 178.224 196.347 178.224C50.9046 178.224 -67 178.417 -67 178.655C-67 178.893 50.9046 179.086 196.347 179.086Z" fill="#EDF4FC"/>
<path d="M382.53 152.131C258.39 152.131 134.304 152.131 10.1649 152.131C10.1649 151.969 10.1649 151.753 10.1649 151.592C134.304 151.592 258.39 151.592 382.53 151.592C382.476 151.753 382.53 151.915 382.53 152.131Z" fill="#EDF4FC"/>
<path d="M5 121.579C9.82616 121.202 11.7566 117.59 14.5451 115.056C15.9393 113.762 16.8509 113.978 17.977 115.434C21.4626 120.124 21.7843 120.07 25.7525 116.027C30.0424 111.66 34.3859 107.347 38.6759 102.926C39.802 101.794 40.4991 101.632 41.7324 102.818C47.2557 108.209 52.4036 113.978 58.3022 118.992C58.7312 119.369 58.9993 120.016 59.3211 120.555C61.3052 123.682 64.3617 124.167 67.74 123.951C65.0588 125.407 62.1632 125.03 60.3399 123.143C57.1225 119.908 53.6369 116.889 50.7412 113.385C48.8108 111.013 46.1296 111.175 44.0382 111.228C40.4454 111.336 36.8526 111.768 33.2598 111.606C32.0801 111.552 31.1685 112.361 30.4714 113.008C28.1119 115.056 26.0206 117.374 23.822 119.639C23.0713 120.393 23.5539 121.04 24.0365 121.741C24.7336 122.711 25.967 123.251 26.5568 125.084C23.5003 123.305 21.7843 120.879 19.7466 118.884C16.0465 115.38 16.1538 115.272 12.6146 118.722C11.703 119.585 10.6841 120.393 9.98703 121.418C8.70006 123.197 7.35945 123.251 5 121.579ZM37.1744 107.185C39.5338 107.832 41.9469 107.239 44.4136 107.509C39.8556 102.064 40.6063 102.117 36.799 106.754C36.4773 106.862 36.0483 107.077 36.2091 107.347C36.4773 107.832 36.8526 107.509 37.1744 107.185ZM46.9876 110.474C46.7194 109.342 46.2368 108.749 45.7006 108.695C42.1078 108.533 38.515 108.479 34.8685 108.533C34.2787 108.533 33.4207 109.342 33.5816 109.988C33.9033 111.013 34.7077 110.42 35.2975 110.096C35.6193 109.935 35.9947 109.719 36.2628 109.773C39.7483 110.851 43.2875 109.449 46.9876 110.474Z" fill="#EDF4FC"/>
<path d="M371.633 121.381C369.327 123.376 367.986 123.16 366.646 121.381C365.734 120.195 364.501 119.225 363.482 118.146C360.854 115.397 360.533 115.343 357.744 117.985C355.975 119.656 354.366 121.435 352.704 123.16C352.114 123.753 351.685 124.67 350.398 124.616C350.451 123.322 351.47 122.891 352.167 122.244C353.508 121.058 353.615 119.979 352.167 118.685C350.719 117.392 349.272 115.99 348.038 114.48C345.572 111.461 342.461 111.246 338.761 111.407C335.758 111.515 332.702 111.839 329.699 111.515C328.573 111.407 327.554 111.515 326.803 112.432C324.336 115.451 321.226 117.877 318.813 121.004C316.507 124.023 313.129 125.802 309 124.4C309.054 123.376 309.912 123.645 310.394 123.753C313.29 124.184 315.22 122.891 317.151 120.842C322.889 114.858 328.841 109.143 334.579 103.159C336.08 101.596 336.992 101.65 338.44 103.105C343.051 107.903 347.877 112.54 352.489 117.392C354.098 119.063 355.385 119.009 356.993 117.445C360.854 113.726 360.908 113.726 364.554 117.499C366.324 119.494 368.094 121.489 371.633 121.381ZM333.238 107.149C334.793 107.31 336.295 107.472 337.85 107.526C338.44 107.526 339.19 107.202 339.512 106.771C339.941 106.178 339.19 105.693 338.761 105.262C336.402 102.62 336.402 102.62 333.989 105.262C333.56 105.693 333.238 106.232 332.863 106.717C332.595 106.879 332.058 106.987 332.38 107.418C332.595 107.742 332.97 107.472 333.238 107.149ZM343.158 110.006C342.676 109.197 342.3 108.227 341.443 108.388C339.566 108.712 337.689 108.388 335.812 108.442C334.257 108.496 332.702 108.388 331.147 108.55C330.396 108.604 329.484 109.143 329.806 110.114C330.074 110.868 330.771 110.383 331.361 110.168C333.292 109.574 335.329 109.952 337.206 110.114C338.869 110.275 340.799 108.712 342.354 110.491C342.354 110.545 342.837 110.168 343.158 110.006ZM340.424 107.256C340.37 107.202 340.316 107.149 340.263 107.095C340.209 107.149 340.156 107.202 340.102 107.256C340.156 107.31 340.209 107.418 340.263 107.418C340.316 107.418 340.37 107.31 340.424 107.256Z" fill="#EDF4FC"/>
<path d="M43.5252 72.3699C43.7397 73.8794 43.6861 75.1193 41.5948 73.502C40.7368 72.8551 39.8788 73.2863 39.0745 73.7176C35.7498 75.3889 32.3715 74.6341 28.9931 74.095C28.1352 73.9872 27.3308 73.2863 27.2236 72.3159C27.1163 71.2916 28.0815 71.0221 28.7786 70.6986C32.1033 69.243 35.4816 69.0813 38.9136 70.483C39.7716 70.8064 40.6832 71.6151 41.6484 70.8064C44.1687 68.7039 43.5252 70.8603 43.5252 72.3699ZM39.1817 72.2081C35.3744 70.3212 31.7816 70.4291 29.2076 72.3699C32.4787 73.9333 35.6961 74.0411 39.1817 72.2081Z" fill="#EDF4FC"/>
<path d="M23.899 60.0781C25.3468 59.7547 26.8483 60.5094 28.3498 60.9946C29.315 61.3181 30.1194 61.7494 31.0846 60.9407C31.5136 60.5633 32.3716 59.9703 32.5861 60.8868C32.9078 61.965 32.8542 63.205 32.6933 64.3371C32.5861 65.0379 31.8889 64.6606 31.3527 64.5527C29.5831 64.2293 27.8671 64.5527 26.0976 64.984C23.3091 65.631 20.6815 65.1458 18.1612 63.9058C16.3916 62.9893 16.8206 62.0189 18.2685 61.3181C19.9844 60.4016 21.8076 60.0781 23.899 60.0781ZM18.3221 62.6659C22.0758 64.2293 25.1323 64.4449 28.6715 62.558C25.1323 60.8329 22.1294 60.8329 18.3221 62.6659Z" fill="#EDF4FC"/>
<path d="M49.8529 67.7874C47.8688 67.8952 45.992 67.3022 44.1688 66.5475C43.5789 66.3318 43.0963 65.9005 43.0427 65.1458C42.9891 64.3371 43.6326 64.1754 44.2224 63.9058C47.708 62.3963 51.1935 62.0189 54.7863 63.5824C55.8052 64.0136 56.824 64.2832 57.7357 63.3667C58.0574 63.0432 58.4864 62.7737 58.9154 63.1511C59.3444 63.4745 59.2371 63.9058 58.969 64.3371C58.8081 64.6606 58.54 65.038 58.6473 65.3075C59.7734 68.2726 58.4864 67.5179 56.7168 66.7631C55.9124 66.4396 54.7327 66.9248 53.7675 67.2483C52.5341 67.6796 51.1935 67.8413 49.8529 67.7874ZM54.84 65.2536C51.4617 63.6902 48.4587 63.6363 45.2413 65.2536C48.4587 66.9248 51.408 66.9248 54.84 65.2536Z" fill="#EDF4FC"/>
<path d="M350.277 13C351.564 13.7008 353.066 13.4852 354.621 13.1078C355.693 12.8383 356.658 13.4852 357.356 14.4556C357.731 14.9947 357.999 15.6416 357.248 16.0729C356.444 16.5581 356.498 15.6956 356.283 15.2643C355.586 14.0243 354.889 14.7252 354.138 15.2104C353.066 15.9112 352.047 17.0972 351.028 14.9947C350.438 13.8087 349.58 14.7252 348.829 15.1564C348.347 15.426 348.079 16.5581 347.382 15.8573C346.684 15.1025 347.435 14.4017 347.918 13.8087C348.508 13.2156 349.258 13 350.277 13Z" fill="#EDF4FC"/>
<path d="M332.152 19.1998C330.704 17.5286 329.31 16.073 327.702 18.6068C327.487 18.9302 327.004 19.092 326.79 18.7685C325.235 16.1269 323.733 17.5286 322.017 19.3076C321.857 16.9894 322.822 15.8034 324.484 15.8034C326.361 15.8573 328.184 15.7495 330.061 15.8034C331.67 15.8573 332.796 16.9355 332.152 19.1998Z" fill="#EDF4FC"/>
<path d="M133.929 146.74C133.232 145.015 130.926 144.368 131.033 143.236C131.141 142.049 132.91 140.432 134.143 140.217C135.001 140.055 137.146 142.211 137.039 143.02C136.825 144.314 135.162 145.392 133.929 146.74Z" fill="#EDF4FC"/>
<path d="M345.119 66.757C345.012 68.59 343.886 69.9917 341.795 69.9917C339.757 70.0456 338.47 68.8596 338.309 66.7031C338.148 64.4928 339.543 63.4146 341.419 63.0372C343.296 62.7137 345.066 64.5467 345.119 66.757ZM341.848 64.331C340.508 64.385 339.596 65.1397 339.489 66.4336C339.382 67.8892 340.347 68.8057 341.741 68.8057C343.082 68.8596 343.832 67.8353 343.94 66.5953C344.047 65.2475 343.135 64.5467 341.848 64.331Z" fill="#EDF4FC"/>
<path d="M354.752 147.009C354.592 144.691 351.16 144.583 352.715 142.373C353.144 141.726 353.841 138.815 355.771 140.756C356.576 141.564 358.935 141.996 357.916 143.667C357.273 144.583 356.093 145.446 354.752 147.009Z" fill="#EDF4FC"/>
<path d="M372.019 142.858C372.019 143.451 368.909 146.578 368.748 146.362C367.676 145.23 366.657 144.044 365.638 142.912C366.711 141.942 367.837 140.216 368.909 140.216C369.982 140.216 371.054 141.996 372.019 142.858ZM369.982 143.074C369.767 142.427 369.392 141.888 368.748 141.942C368.212 141.996 367.783 142.481 367.729 143.02C367.676 143.721 368.212 144.26 368.802 144.26C369.392 144.314 369.821 143.775 369.982 143.074Z" fill="#EDF4FC"/>
<path d="M65.2903 146.955C64.6468 146.255 64.2179 145.823 63.8425 145.338C63.2526 144.422 61.5367 143.99 61.912 142.858C62.2874 141.672 64.057 141.456 64.7005 140.217C64.9686 139.677 65.4512 140.109 65.7729 140.486C66.3092 141.079 66.7918 141.834 67.4353 142.157C68.7223 142.858 68.8295 143.343 67.4889 144.098C66.5237 144.637 65.9874 145.662 65.2903 146.955ZM66.3628 142.912C65.9874 142.589 65.6121 141.942 65.2367 141.996C64.7005 142.049 64.0034 142.481 64.1106 143.236C64.1642 143.775 64.6468 144.368 65.1831 144.314C65.773 144.26 66.2556 143.721 66.3628 142.912Z" fill="#EDF4FC"/>
<path d="M247.665 142.858C247.665 143.397 244.394 146.524 244.126 146.416C242.786 145.769 241.499 144.529 241.552 143.397C241.606 141.888 243.375 140.432 244.609 140.27C245.467 140.109 246.7 141.996 247.665 142.858ZM244.341 141.834C243.912 142.211 243.161 142.535 243.268 143.182C243.375 143.829 243.858 144.583 244.609 144.422C245.199 144.314 245.735 143.721 245.574 143.074C245.467 142.427 245.038 141.942 244.341 141.834Z" fill="#EDF4FC"/>
<path d="M106.366 146.632C105.294 145.392 104.275 144.152 103.202 142.912C104.543 141.996 105.776 140.917 106.473 139.516C107.117 139.57 107.01 140.109 107.224 140.27C110.656 142.804 108.833 144.745 106.366 146.632ZM107.653 142.804C107.331 142.535 106.902 141.942 106.527 141.942C105.937 141.942 105.347 142.427 105.401 143.182C105.455 143.721 105.991 144.206 106.473 144.206C107.171 144.206 107.546 143.667 107.653 142.804Z" fill="#EDF4FC"/>
<path d="M337.032 25.669C336.925 23.0274 338.104 22.1648 339.767 22.2187C341.376 22.2726 342.931 22.3266 344.539 22.2187C346.148 22.1648 347.435 22.9196 347.381 25.3456C345.719 23.7282 344.218 22.1648 342.663 24.9143C342.448 25.2377 341.965 25.2377 341.751 24.9143C340.196 22.0031 338.694 23.6743 337.032 25.669Z" fill="#EDF4FC"/>
<path d="M23.7854 146.74C23.2492 146.039 23.0347 145.715 22.7666 145.392C20.4607 142.804 20.4607 142.858 23.0883 140.486C23.7318 139.893 23.9463 139.893 24.4825 140.54C25.7695 142.049 28.2898 143.343 24.7507 145.122C24.4289 145.338 24.268 146.039 23.7854 146.74ZM25.126 143.235C25.0188 142.642 24.6434 142.103 24.0535 141.888C23.3028 141.618 22.9274 142.319 22.7129 142.858C22.3912 143.613 22.9811 144.044 23.5709 144.206C24.3217 144.422 24.7507 143.882 25.126 143.235Z" fill="#EDF4FC"/>
<path d="M79.0717 146.955C77.7311 145.446 77.034 143.829 75.2644 143.182C75.6398 142.804 75.9615 142.642 76.1224 142.373C77.9456 139.893 79.7152 140.055 81.6993 142.265C82.3964 143.02 82.5036 143.236 81.6457 143.829C80.5732 144.529 79.6079 145.392 79.0717 146.955ZM80.1442 142.966C79.7688 142.535 79.5007 141.726 78.8036 141.996C78.2673 142.157 77.7311 142.642 77.9456 143.397C78.1065 143.882 78.4282 144.475 79.0181 144.26C79.6079 144.098 80.0906 143.667 80.1442 142.966Z" fill="#EDF4FC"/>
<path d="M147.978 146.632C146.906 145.446 145.244 144.422 145.083 143.235C144.868 141.834 146.852 140.216 147.818 140.216C148.89 140.216 150.981 142.103 150.928 142.912C150.767 144.152 149.105 145.284 147.978 146.632ZM147.925 144.368C148.407 144.098 148.997 143.829 148.997 143.128C148.997 142.535 148.515 142.157 147.978 142.103C147.281 142.049 146.745 142.535 146.799 143.235C146.799 143.721 147.228 144.152 147.925 144.368Z" fill="#EDF4FC"/>
<path d="M296.141 143.074C296.678 142.696 297.268 142.535 297.482 142.103C299.144 139.3 300.431 140.324 301.933 142.265C302.523 143.02 303.22 143.559 301.987 143.936C300.753 144.314 300.914 147.387 298.769 145.554C297.911 144.799 297.107 143.99 296.141 143.074ZM300.86 143.128C300.7 142.427 300.324 141.888 299.627 141.888C299.037 141.888 298.715 142.535 298.662 143.02C298.608 143.667 298.93 144.368 299.627 144.368C300.271 144.368 300.7 143.775 300.86 143.128Z" fill="#EDF4FC"/>
<path d="M285.846 146.74C284.666 145.338 284.022 143.775 282.146 143.289C283.433 142.157 284.451 140.432 285.738 140.27C286.972 140.109 287.723 142.427 289.653 142.804C288.205 144.152 286.65 144.961 285.846 146.74ZM285.846 144.26C286.436 144.098 287.079 143.829 287.133 143.182C287.186 142.481 286.489 142.211 285.899 142.103C285.309 141.996 284.88 142.481 284.827 143.02C284.72 143.667 285.202 144.098 285.846 144.26Z" fill="#EDF4FC"/>
<path d="M34.4565 142.75C34.671 142.589 35.1 142.319 35.4754 141.996C36.1725 141.349 36.9232 140.109 37.5131 140.163C38.6392 140.378 39.0146 141.996 40.2479 142.481C40.4088 142.535 40.6233 143.02 40.5697 143.074C39.6581 144.152 38.8537 145.392 37.7276 146.147C36.9232 146.686 36.5479 145.392 36.0116 144.853C35.529 144.26 35.1 143.559 34.4565 142.75ZM37.5131 144.314C38.1566 144.152 38.6392 143.775 38.6928 143.074C38.7465 142.319 38.1566 141.996 37.5131 141.996C36.8696 142.049 36.387 142.535 36.3334 143.182C36.2798 143.99 36.8696 144.206 37.5131 144.314Z" fill="#EDF4FC"/>
<path d="M95.7488 142.804C94.7299 143.99 93.7647 145.068 92.7995 146.201C91.6734 145.122 90.5472 144.098 89.4211 143.02C90.4936 141.996 91.5125 140.216 92.585 140.216C93.7111 140.216 94.7835 141.942 95.7488 142.804ZM93.8719 142.804C93.5502 142.535 93.1748 141.996 92.7458 141.996C92.156 141.996 91.6197 142.535 91.6197 143.235C91.6197 143.829 92.156 144.206 92.6922 144.206C93.3357 144.152 93.7647 143.667 93.8719 142.804Z" fill="#EDF4FC"/>
<path d="M254.529 142.912C256.299 142.157 257.371 141.133 258.229 139.3C258.819 141.295 261.554 141.672 260.75 143.667C260.374 144.529 259.302 146.632 257.908 146.093C256.889 145.662 256.138 144.044 254.529 142.912ZM259.516 143.182C259.409 142.589 259.087 142.103 258.39 142.05C257.747 141.996 257.157 142.373 257.05 143.02C256.942 143.829 257.586 144.422 258.229 144.476C258.819 144.529 259.248 143.882 259.516 143.182Z" fill="#EDF4FC"/>
<path d="M203.104 146.578C202.621 145.985 202.3 145.554 201.978 145.176C201.334 144.422 200.637 143.667 199.94 142.912C200.905 142.157 201.871 141.403 202.568 140.324C202.997 139.677 203.372 140.055 203.855 140.378C206.429 142.427 206.429 142.804 204.284 145.176C203.908 145.554 203.586 145.985 203.104 146.578ZM204.337 143.074C204.123 142.427 203.694 141.834 203.05 141.834C202.46 141.834 201.817 142.427 201.871 143.074C201.924 143.775 202.353 144.529 203.211 144.368C203.747 144.314 204.23 143.775 204.337 143.074Z" fill="#EDF4FC"/>
<path d="M341.239 146.686C340.81 146.093 340.542 145.554 340.167 145.284C338.183 143.936 337.432 142.642 340.06 141.187C340.757 140.81 341.239 138.869 342.044 140.756C342.526 141.888 346.441 142.157 343.17 144.422C342.473 144.907 341.99 145.769 341.239 146.686ZM341.454 144.422C341.722 143.936 342.58 143.775 342.365 143.02C342.204 142.535 341.775 141.834 341.078 141.996C340.596 142.103 340.06 142.535 340.167 143.128C340.22 143.775 340.649 144.26 341.454 144.422Z" fill="#EDF4FC"/>
<path d="M272.118 146.632C271.045 145.392 269.329 144.314 269.222 143.074C269.115 142.157 271.045 141.025 272.064 139.947C273.029 140.971 274.853 142.049 274.853 143.074C274.799 144.26 273.137 145.392 272.118 146.632ZM273.405 143.128C273.19 142.643 272.922 141.996 272.279 141.888C271.474 141.78 270.992 142.427 270.885 143.128C270.831 143.829 271.367 144.26 272.011 144.26C272.708 144.314 273.137 143.829 273.405 143.128Z" fill="#EDF4FC"/>
<path d="M161.599 146.74C161.17 146.039 160.848 145.608 160.58 145.176C160.044 144.26 158.382 143.882 158.65 142.966C158.971 141.942 160.526 141.51 161.116 140.378C161.438 139.731 162.135 140.001 162.35 140.54C162.725 141.888 165.406 142.05 164.495 143.505C163.905 144.529 162.779 145.554 161.599 146.74ZM160.473 143.289C160.741 143.829 161.116 144.529 161.706 144.422C162.403 144.368 162.993 143.775 162.94 142.966C162.886 142.373 162.35 141.726 161.76 141.78C161.063 141.888 160.58 142.481 160.473 143.289Z" fill="#EDF4FC"/>
<path d="M216.939 146.74C216.403 145.985 216.027 145.608 215.813 145.176C215.33 144.26 213.614 143.882 213.936 142.912C214.311 141.888 215.813 141.403 216.456 140.324C216.724 139.839 217.207 139.893 217.529 140.378C218.172 141.403 219.513 141.888 219.888 142.804C220.425 144.098 218.494 144.26 217.958 145.23C217.743 145.662 217.368 146.039 216.939 146.74ZM216.832 141.996C216.188 142.157 215.652 142.535 215.706 143.236C215.759 143.882 216.242 144.475 216.885 144.475C217.582 144.422 218.172 143.829 218.119 143.074C218.065 142.373 217.475 142.103 216.832 141.996Z" fill="#EDF4FC"/>
<path d="M316.358 143.451C315.5 144.26 314.374 146.147 313.408 146.093C312.336 146.039 310.566 144.206 310.566 143.128C310.566 142.103 312.389 141.025 313.408 140.001C313.623 139.839 316.411 142.804 316.358 143.451ZM314.695 142.966C314.374 142.696 313.998 142.211 313.569 142.157C312.872 142.049 312.336 142.589 312.389 143.289C312.389 143.829 312.872 144.368 313.408 144.368C314.052 144.314 314.374 143.721 314.695 142.966Z" fill="#EDF4FC"/>
<path d="M120.255 147.063C119.558 144.961 116.769 144.529 117.788 142.427C118.164 141.672 119.343 139.623 120.738 140.54C121.595 141.133 123.311 142.103 122.99 143.397C122.775 144.529 121.167 145.176 120.255 147.063ZM121.542 143.235C121.488 142.481 121.006 142.049 120.416 141.942C119.88 141.888 119.397 142.373 119.29 142.912C119.075 143.667 119.611 144.152 120.201 144.314C120.952 144.475 121.22 143.721 121.542 143.235Z" fill="#EDF4FC"/>
<path d="M330.783 143.02C329.442 144.206 328.369 145.931 327.136 146.039C326.278 146.147 324.455 144.152 324.401 143.02C324.348 142.05 326.385 140.055 327.243 140.217C328.423 140.378 329.227 142.265 330.783 143.02ZM328.584 143.289C328.584 142.481 328.048 142.103 327.404 142.05C326.707 141.996 326.171 142.373 326.117 143.128C326.117 143.829 326.6 144.368 327.243 144.476C327.94 144.476 328.262 143.829 328.584 143.289Z" fill="#EDF4FC"/>
<path d="M175.488 146.524C175.112 146.093 174.844 145.715 174.522 145.392C172.217 142.804 172.217 142.858 174.898 140.486C175.541 139.893 175.863 139.839 176.346 140.594C176.721 141.187 176.989 141.888 177.74 142.157C179.027 142.696 179.241 143.182 177.901 144.044C176.989 144.583 176.399 145.554 175.488 146.524ZM175.702 144.475C176.238 144.152 176.882 143.775 176.775 143.074C176.667 142.373 176.185 141.618 175.327 141.888C174.737 142.049 174.201 142.589 174.362 143.289C174.522 143.936 174.951 144.422 175.702 144.475Z" fill="#EDF4FC"/>
<path d="M47.7552 143.128C48.506 142.535 49.3103 142.211 49.6857 141.564C50.8654 139.408 51.8307 139.785 52.9568 141.564C53.3321 142.157 54.6191 142.427 54.0829 143.397C53.3858 144.529 52.4205 145.446 51.4553 146.362C51.1872 146.632 50.8118 146.201 50.6509 145.877C50.0611 144.691 48.8277 144.044 47.7552 143.128ZM52.5278 143.128C52.3133 142.481 51.9379 141.888 51.2944 141.996C50.8654 142.049 50.3292 142.642 50.2756 143.074C50.1147 143.775 50.8118 144.314 51.3481 144.368C51.9379 144.368 52.3133 143.775 52.5278 143.128Z" fill="#EDF4FC"/>
<path d="M233.938 143.02C232.49 143.936 231.793 145.931 230.613 145.985C229.701 146.039 227.771 144.152 227.878 143.289C227.985 142.157 229.541 140.378 230.613 140.27C231.9 140.055 232.114 142.589 233.938 143.02ZM230.667 144.529C231.31 144.152 231.846 143.667 231.9 142.912C231.954 142.319 231.31 141.996 230.774 141.996C230.077 141.996 229.541 142.427 229.541 143.128C229.648 143.775 229.97 144.314 230.667 144.529Z" fill="#EDF4FC"/>
<path d="M339.918 74.1429C339.864 75.4907 339.328 76.3532 338.041 76.4071C336.754 76.4611 336.111 75.7602 336.003 74.5203C335.95 73.3342 336.54 72.6334 337.666 72.5795C338.899 72.4177 339.65 73.0647 339.918 74.1429Z" fill="#EDF4FC"/>
<path d="M191.307 143.99C190.663 144.799 190.073 145.662 189.43 146.47C188.572 146.308 188.411 145.5 187.982 144.961C187.392 144.26 185.891 143.775 186.32 142.858C186.749 141.78 187.928 140.971 188.84 140.27C190.02 139.354 190.02 141.241 190.717 141.726C190.556 141.888 190.449 141.996 190.288 142.157C189.376 141.834 188.465 141.78 187.982 142.804C187.66 143.397 188.196 143.775 188.572 144.152C189.644 145.176 190.073 143.829 190.824 143.559C190.985 143.721 191.146 143.882 191.307 143.99Z" fill="#EDF4FC"/>
<path d="M190.77 141.726C191.199 142.427 194.041 142.535 191.307 143.99C191.146 143.882 191.039 143.721 190.878 143.613C190.717 143.128 190.502 142.642 190.341 142.157C190.449 142.049 190.61 141.888 190.77 141.726Z" fill="#EDF4FC"/>
<path d="M278.535 103.325L277.892 104.295C277.302 103.918 276.712 103.594 276.068 103.379C274.245 102.786 272.315 102.947 270.599 103.864C270.223 104.079 269.848 104.295 269.526 104.565C270.17 104.619 270.76 104.726 271.403 104.942C272.154 105.212 272.905 105.535 273.548 105.966L272.905 106.937C272.315 106.559 271.725 106.236 271.081 106.074C270.491 105.858 269.902 105.805 269.258 105.751V125.428H268.132V106.128C267.703 106.721 267.381 107.422 267.113 108.177L266.041 107.853C266.255 107.26 266.47 106.667 266.791 106.128C264.646 106.775 262.823 108.5 262.072 110.818L261 110.495C262.019 107.314 264.754 105.158 267.864 104.726C268.507 104.026 269.258 103.433 270.17 102.947C272.154 101.923 274.406 101.707 276.551 102.408C277.141 102.57 277.892 102.893 278.535 103.325Z" fill="#EDF4FC"/>
<path d="M308.293 107.206L307.65 108.177C307.167 107.853 306.685 107.584 306.095 107.422C304.218 106.829 302.288 107.206 300.786 108.285C301.269 108.338 301.698 108.446 302.18 108.554C302.824 108.77 303.467 109.039 304.004 109.417L303.36 110.387C302.877 110.064 302.395 109.794 301.805 109.632C301.322 109.471 300.84 109.417 300.411 109.363V125.967H299.285V109.848C299.017 110.279 298.748 110.764 298.587 111.304L297.515 110.98C297.676 110.549 297.837 110.117 298.051 109.686C296.335 110.279 294.887 111.681 294.298 113.568L293.225 113.244C294.083 110.495 296.443 108.662 299.07 108.285C300.893 106.29 303.735 105.427 306.47 106.29C307.114 106.505 307.757 106.829 308.293 107.206Z" fill="#EDF4FC"/>
<path d="M111 108.325L111.643 109.295C112.233 108.918 112.823 108.594 113.467 108.379C115.29 107.786 117.22 107.947 118.936 108.864C119.312 109.079 119.687 109.295 120.009 109.565C119.365 109.619 118.775 109.726 118.132 109.942C117.381 110.212 116.631 110.535 115.987 110.966L116.631 111.937C117.22 111.559 117.81 111.236 118.454 111.074C119.044 110.858 119.633 110.805 120.277 110.751V130.428H121.403V111.128C121.832 111.721 122.154 112.422 122.422 113.177L123.494 112.853C123.28 112.26 123.065 111.667 122.744 111.128C124.889 111.775 126.712 113.5 127.463 115.818L128.535 115.495C127.516 112.314 124.781 110.158 121.671 109.726C121.028 109.026 120.277 108.433 119.365 107.947C117.381 106.923 115.129 106.707 112.984 107.408C112.394 107.57 111.643 107.893 111 108.325Z" fill="#EDF4FC"/>
<path d="M87 110.25L87.6435 111.22C88.1261 110.897 88.6087 110.627 89.1986 110.466C91.0754 109.872 93.0059 110.25 94.5074 111.328C94.0247 111.382 93.5957 111.49 93.1131 111.598C92.4696 111.813 91.8262 112.083 91.2899 112.46L91.9334 113.431C92.416 113.107 92.8986 112.838 93.4885 112.676C93.9711 112.514 94.4537 112.46 94.8827 112.406V129.011H96.0088V112.892C96.2769 113.323 96.5451 113.808 96.7059 114.347L97.7784 114.024C97.6175 113.592 97.4567 113.161 97.2422 112.73C98.9581 113.323 100.406 114.724 100.996 116.611L102.068 116.288C101.21 113.538 98.8509 111.705 96.2233 111.328C94.4001 109.333 91.558 108.471 88.8232 109.333C88.1797 109.549 87.5362 109.872 87 110.25Z" fill="#EDF4FC"/>
<path d="M102.054 116.642C102.107 116.642 102.161 116.642 102.161 116.642C102.322 116.588 102.643 116.049 102.858 115.725C103.394 114.916 103.984 114 104.949 114C105.915 114 106.504 114.916 107.041 115.725C107.255 116.049 107.577 116.588 107.738 116.642C108.06 116.749 108.703 116.426 109.186 116.156C109.99 115.779 110.794 115.348 111.438 115.779C112.081 116.156 112.242 117.073 112.349 117.989C112.403 118.475 112.51 119.283 112.725 119.391C112.886 119.445 113.529 119.122 113.905 118.96C114.655 118.582 115.46 118.205 116.157 118.367C116.747 118.529 117.122 119.122 117.551 119.768C117.873 120.254 118.355 120.955 118.677 120.955C118.999 120.955 119.481 120.254 119.803 119.768C120.232 119.122 120.608 118.529 121.197 118.367C121.948 118.205 122.699 118.582 123.45 118.96C123.771 119.122 124.415 119.445 124.629 119.391C124.844 119.283 124.951 118.475 125.005 117.989C125.112 117.073 125.273 116.156 125.916 115.779C126.56 115.402 127.418 115.779 128.168 116.156C128.705 116.426 129.348 116.749 129.616 116.642C129.777 116.588 130.099 116.049 130.313 115.725C130.85 114.916 131.44 114 132.405 114C133.37 114 133.96 114.916 134.496 115.725C134.711 116.049 135.032 116.588 135.193 116.642C135.515 116.749 136.158 116.426 136.641 116.156C137.445 115.779 138.25 115.348 138.893 115.779C139.537 116.156 139.698 117.073 139.805 117.989C139.859 118.475 139.966 119.283 140.18 119.391C140.341 119.445 140.985 119.122 141.36 118.96C142.111 118.582 142.915 118.205 143.612 118.367C144.202 118.529 144.577 119.122 145.006 119.768C145.328 120.254 145.811 120.955 146.133 120.955C146.454 120.955 146.937 120.254 147.259 119.768C147.688 119.122 148.063 118.529 148.653 118.367C149.404 118.205 150.154 118.582 150.905 118.96C151.227 119.122 151.87 119.445 152.085 119.391C152.299 119.283 152.407 118.475 152.46 117.989C152.567 117.073 152.728 116.156 153.372 115.779C154.015 115.402 154.873 115.779 155.624 116.156C156.16 116.426 156.804 116.749 157.072 116.642C157.233 116.588 157.554 116.049 157.769 115.725C158.305 114.916 158.895 114 159.86 114C160.825 114 161.415 114.916 161.952 115.725C162.166 116.049 162.488 116.588 162.649 116.642C162.97 116.749 163.614 116.426 164.097 116.156C164.901 115.779 165.705 115.348 166.349 115.779C166.992 116.156 167.153 117.073 167.26 117.989C167.314 118.475 167.421 119.283 167.636 119.391C167.797 119.445 168.44 119.122 168.815 118.96C169.566 118.582 170.371 118.205 171.068 118.367C171.658 118.529 172.033 119.122 172.462 119.768C172.784 120.254 173.266 120.955 173.588 120.955C173.91 120.955 174.392 120.254 174.714 119.768C175.143 119.122 175.518 118.529 176.108 118.367C176.859 118.205 177.61 118.582 178.361 118.96C178.682 119.122 179.379 119.445 179.54 119.391C179.755 119.283 179.862 118.475 179.916 117.989C180.023 117.127 180.184 116.156 180.827 115.779C181.471 115.402 182.329 115.779 183.079 116.156C183.616 116.426 184.206 116.749 184.527 116.642C184.688 116.588 185.01 116.049 185.224 115.725C185.761 114.916 186.35 114 187.316 114C188.281 114 188.871 114.916 189.407 115.725C189.622 116.049 189.943 116.588 190.104 116.642C190.426 116.749 191.069 116.426 191.552 116.156C192.356 115.779 193.161 115.348 193.804 115.779C194.448 116.156 194.609 117.073 194.716 117.989C194.769 118.475 194.877 119.283 195.091 119.391C195.252 119.445 195.896 119.122 196.271 118.96C197.022 118.582 197.826 118.205 198.523 118.367C199.113 118.529 199.488 119.122 199.917 119.768C200.239 120.254 200.722 120.955 201.043 120.955C201.365 120.955 201.848 120.254 202.17 119.768C202.599 119.122 202.974 118.529 203.564 118.367C204.315 118.205 205.065 118.582 205.816 118.96C206.138 119.122 206.781 119.445 206.996 119.391C207.21 119.283 207.317 118.475 207.371 117.989C207.478 117.073 207.639 116.156 208.283 115.779C208.926 115.402 209.784 115.779 210.535 116.156C211.071 116.426 211.715 116.749 211.983 116.642C212.144 116.588 212.465 116.049 212.68 115.725C213.216 114.916 213.806 114 214.771 114C215.736 114 216.326 114.916 216.863 115.725C217.077 116.049 217.399 116.588 217.56 116.642C217.881 116.749 218.525 116.426 219.007 116.156C219.812 115.779 220.616 115.348 221.26 115.779C221.903 116.156 222.064 117.073 222.171 117.989C222.225 118.475 222.332 119.283 222.547 119.391C222.708 119.445 223.351 119.122 223.726 118.96C224.477 118.582 225.281 118.205 225.979 118.367C226.568 118.529 226.944 119.122 227.373 119.768C227.695 120.254 228.177 120.955 228.499 120.955C228.821 120.955 229.303 120.254 229.625 119.768C230.054 119.122 230.429 118.529 231.019 118.367C231.77 118.205 232.521 118.582 233.271 118.96C233.593 119.122 234.29 119.445 234.451 119.391C234.666 119.283 234.773 118.475 234.827 117.989C234.934 117.073 235.095 116.156 235.738 115.779C236.382 115.402 237.24 115.779 237.99 116.156C238.527 116.426 239.17 116.749 239.438 116.642C239.599 116.588 239.921 116.049 240.135 115.725C240.672 114.916 241.261 114 242.227 114C243.192 114 243.782 114.916 244.318 115.725C244.532 116.049 244.854 116.588 245.015 116.642C245.337 116.749 245.98 116.426 246.463 116.156C247.267 115.779 248.072 115.348 248.715 115.779C249.359 116.156 249.52 117.073 249.627 117.989C249.68 118.475 249.788 119.283 250.002 119.391C250.163 119.445 250.807 119.122 251.182 118.96C251.933 118.582 252.737 118.205 253.434 118.367C254.024 118.529 254.399 119.122 254.828 119.768C255.15 120.254 255.633 120.955 255.954 120.955C256.276 120.955 256.759 120.254 257.081 119.768C257.509 119.122 257.885 118.529 258.475 118.367C259.225 118.205 259.976 118.582 260.727 118.96C261.049 119.122 261.746 119.445 261.907 119.391C262.121 119.283 262.228 118.475 262.282 117.989C262.389 117.073 262.55 116.156 263.194 115.779C263.837 115.402 264.695 115.779 265.446 116.156C265.982 116.426 266.572 116.749 266.894 116.642C267.055 116.588 267.376 116.049 267.591 115.725C268.127 114.916 268.717 114 269.682 114V115.132C269.36 115.132 268.878 115.833 268.556 116.318C268.127 116.965 267.752 117.558 267.162 117.72C266.411 117.935 265.66 117.504 264.91 117.127C264.588 116.965 263.944 116.642 263.73 116.696C263.515 116.803 263.408 117.612 263.354 118.097C263.247 119.014 263.086 119.93 262.443 120.308C261.799 120.685 260.941 120.308 260.191 119.93C259.654 119.661 259.011 119.337 258.743 119.445C258.582 119.499 258.26 120.038 258.046 120.361C257.509 121.17 256.92 122.087 255.954 122.087C254.989 122.087 254.399 121.17 253.863 120.361C253.649 120.038 253.327 119.499 253.166 119.445C252.844 119.337 252.201 119.661 251.718 119.93C250.914 120.308 250.109 120.739 249.466 120.308C248.822 119.93 248.662 119.014 248.554 118.097C248.501 117.612 248.393 116.803 248.179 116.696C248.018 116.642 247.375 116.965 246.999 117.127C246.248 117.504 245.444 117.882 244.747 117.72C244.157 117.558 243.782 116.965 243.353 116.318C243.031 115.833 242.548 115.132 242.227 115.132C241.905 115.132 241.422 115.833 241.101 116.318C240.672 116.965 240.296 117.558 239.706 117.72C238.956 117.935 238.205 117.504 237.454 117.127C237.079 116.965 236.435 116.642 236.274 116.696C236.06 116.803 235.953 117.612 235.899 118.097C235.792 119.014 235.631 119.93 234.987 120.308C234.344 120.685 233.486 120.308 232.735 119.93C232.199 119.661 231.555 119.337 231.287 119.445C231.127 119.499 230.805 120.038 230.59 120.361C230.054 121.17 229.464 122.087 228.499 122.087C227.534 122.087 226.944 121.17 226.408 120.361C226.193 120.038 225.871 119.499 225.71 119.445C225.389 119.337 224.745 119.661 224.263 119.93C223.458 120.308 222.654 120.739 222.01 120.308C221.367 119.93 221.206 119.014 221.099 118.097C221.045 117.612 220.938 116.803 220.723 116.696C220.563 116.642 219.919 116.965 219.544 117.127C218.793 117.504 217.989 117.882 217.292 117.72C216.702 117.558 216.326 116.965 215.897 116.318C215.576 115.833 215.093 115.132 214.771 115.132C214.449 115.132 213.967 115.833 213.645 116.318C213.216 116.965 212.841 117.558 212.251 117.72C211.5 117.935 210.749 117.504 209.999 117.127C209.677 116.965 208.98 116.642 208.819 116.696C208.604 116.803 208.497 117.612 208.444 118.097C208.336 119.014 208.175 119.93 207.532 120.308C206.888 120.685 206.03 120.308 205.28 119.93C204.744 119.661 204.1 119.337 203.832 119.445C203.671 119.499 203.349 120.038 203.135 120.361C202.599 121.17 202.009 122.087 201.043 122.087C200.078 122.087 199.488 121.17 198.952 120.361C198.738 120.038 198.416 119.499 198.255 119.445C197.933 119.337 197.29 119.661 196.807 119.93C196.003 120.308 195.198 120.739 194.555 120.308C193.911 119.93 193.751 119.014 193.643 118.097C193.59 117.612 193.482 116.803 193.268 116.696C193.107 116.642 192.464 116.965 192.088 117.127C191.338 117.504 190.533 117.882 189.836 117.72C189.246 117.558 188.871 116.965 188.442 116.318C188.12 115.833 187.637 115.132 187.316 115.132C186.994 115.132 186.511 115.833 186.19 116.318C185.761 116.965 185.385 117.558 184.795 117.72C184.045 117.935 183.294 117.504 182.543 117.127C182.221 116.965 181.524 116.642 181.363 116.696C181.149 116.803 181.042 117.612 180.988 118.097C180.881 119.014 180.72 119.93 180.076 120.308C179.433 120.685 178.575 120.308 177.824 119.93C177.288 119.661 176.645 119.337 176.376 119.445C176.216 119.499 175.894 120.038 175.679 120.361C175.143 121.17 174.553 122.087 173.588 122.087C172.623 122.087 172.033 121.17 171.497 120.361C171.282 120.038 170.96 119.499 170.8 119.445C170.478 119.337 169.834 119.661 169.352 119.93C168.547 120.308 167.743 120.739 167.099 120.308C166.456 119.93 166.295 119.014 166.188 118.097C166.134 117.612 166.027 116.803 165.813 116.696C165.652 116.642 165.008 116.965 164.633 117.127C163.882 117.504 163.078 117.882 162.381 117.72C161.791 117.558 161.415 116.965 160.986 116.318C160.665 115.833 160.182 115.132 159.86 115.132C159.539 115.132 159.056 115.833 158.734 116.318C158.305 116.965 157.93 117.558 157.34 117.72C156.589 117.935 155.838 117.504 155.088 117.127C154.766 116.965 154.069 116.642 153.908 116.696C153.694 116.803 153.586 117.612 153.533 118.097C153.425 119.014 153.265 119.93 152.621 120.308C151.978 120.685 151.12 120.308 150.369 119.93C149.833 119.661 149.189 119.337 148.921 119.445C148.76 119.499 148.438 120.038 148.224 120.361C147.688 121.17 147.098 122.087 146.133 122.087C145.167 122.087 144.577 121.17 144.041 120.361C143.827 120.038 143.505 119.499 143.344 119.445C143.022 119.337 142.379 119.661 141.896 119.93C141.092 120.308 140.288 120.739 139.644 120.308C139.001 119.93 138.84 119.014 138.732 118.097C138.679 117.612 138.572 116.803 138.357 116.696C138.196 116.642 137.553 116.965 137.177 117.127C136.427 117.504 135.622 117.882 134.925 117.72C134.335 117.558 133.96 116.965 133.531 116.318C133.209 115.833 132.727 115.132 132.405 115.132C132.083 115.132 131.6 115.833 131.279 116.318C130.85 116.965 130.474 117.558 129.884 117.72C129.134 117.935 128.383 117.504 127.632 117.127C127.257 116.965 126.613 116.642 126.453 116.696C126.238 116.803 126.131 117.612 126.077 118.097C125.97 119.014 125.809 119.93 125.166 120.308C124.522 120.685 123.664 120.308 122.913 119.93C122.377 119.661 121.734 119.337 121.465 119.445C121.305 119.499 120.983 120.038 120.768 120.361C120.232 121.17 119.642 122.087 118.677 122.087C117.712 122.087 117.122 121.17 116.586 120.361C116.371 120.038 116.049 119.499 115.889 119.445C115.567 119.337 114.923 119.661 114.441 119.93C113.636 120.308 112.832 120.739 112.189 120.308C111.545 119.93 111.384 119.014 111.277 118.097C111.223 117.612 111.116 116.803 110.902 116.696C110.741 116.642 110.097 116.965 109.722 117.127C108.971 117.504 108.167 117.882 107.47 117.72C106.88 117.558 106.504 116.965 106.075 116.318C105.754 115.833 105.271 115.132 104.949 115.132C104.628 115.132 104.145 115.833 103.823 116.318C103.394 116.965 103.019 117.558 102.429 117.72C102.268 117.774 102.161 117.774 102 117.774V116.642H102.054Z" fill="#EDF4FC"/>
<path d="M284.522 122.426C294.437 123.766 304.382 125.032 314.297 126.484C320.029 127.303 325.73 128.011 331.523 127.08C339.486 125.814 347.387 124.176 355.442 123.729C368.207 122.985 380.724 124.734 393.241 127.229C393.241 131.622 393.241 142.994 393.241 147.387C392.467 147.35 391.692 147.312 390.918 147.312C260.386 147.312 129.855 147.312 -0.676329 147.312C-1.41992 147.312 -2.16351 147.312 -2.9071 147.312C-2.9071 142.808 -2.9071 131.585 -2.9071 127.303C1.55445 127.973 5.89207 128.718 10.2297 129.276C17.7276 130.281 25.2874 130.542 32.7853 129.649C41.1817 128.681 49.5781 127.34 57.9435 125.888C68.9425 123.953 79.8795 123.32 90.9094 125.553C106.711 128.792 122.605 131.063 138.654 131.808C147.206 132.217 155.788 132.441 164.308 130.989C175.896 129.016 187.545 127.824 199.257 127.34C208.49 126.931 223.52 129.527 234.314 128.911C251.228 127.945 267.621 123.181 268.55 123.181C273.663 121.778 279.536 121.76 284.522 122.426Z" fill="#EDF9FF"/>
<path d="M393.241 130.487C393.241 138.752 393.241 158.442 393.241 166.708C392.839 166.603 392.436 166.429 392.033 166.394C385.155 165.417 378.277 164.232 371.367 163.569C361.515 162.627 351.693 163.255 341.903 164.755C336.109 165.626 330.222 167.021 324.428 166.777C316.373 166.429 308.41 164.685 300.354 163.778C293.538 163.011 286.722 162.244 279.875 162.139C273.244 162.034 266.583 162.732 259.953 163.185C247.312 164.057 234.64 165.103 221.999 165.871C212.951 166.429 203.842 166.463 194.795 167.021C187.236 167.475 179.707 168.347 172.178 169.079C166.322 169.637 160.497 170.3 154.641 170.962C154.301 170.997 153.96 171.137 153.619 171.241C149.498 171.241 145.378 171.241 141.226 171.241C140.792 171.137 140.327 170.962 139.894 170.962C137.074 170.788 134.224 170.683 131.404 170.509C118.422 169.707 105.595 167.684 92.7684 165.522C86.9436 164.545 80.9949 163.778 75.1081 163.778C63.9543 163.743 53.0173 166.638 41.9873 167.928C35.4499 168.695 28.8505 169.288 22.2512 169.323C16.8601 169.358 11.4691 168.591 6.07803 168.068C3.07268 167.754 0.0983143 167.161 -2.81409 166.708C-2.81409 158.373 -2.81409 138.822 -2.81409 130.487C-1.63673 130.906 -0.614294 131.324 0.408144 131.673C2.91777 132.475 5.42739 133.416 7.96799 134.044C15.3419 135.858 22.8088 136.869 30.3377 136.974C37.4948 137.078 44.6828 136.974 51.8089 136.485C60.0194 135.927 68.1989 134.742 76.4094 134.009C85.2086 133.207 93.9148 134.149 102.435 136.73C112.721 139.833 123.194 141.577 133.852 141.856C146.648 142.17 159.258 140.775 171.837 138.369C184.974 135.858 198.111 135.16 211.371 137.113C220.852 138.543 230.395 139.659 239.969 140.426C247.931 141.054 255.925 141.263 263.918 141.054C272.966 140.81 282.013 140.008 291.06 139.24C298.155 138.648 305.25 137.915 312.283 136.869C321.485 135.544 330.656 135.544 339.889 136.66C344.598 137.218 349.339 137.636 354.079 137.601C363.343 137.567 372.297 135.265 380.879 131.568C385.062 129.72 389.09 129.894 393.241 130.487Z" fill="#B8E9FF"/>
<path d="M187.545 145.787C189.311 145.787 191.047 145.787 192.813 145.787C193.308 145.857 193.804 145.951 194.3 145.974C201.55 146.138 208.707 146.769 215.678 148.219C223.362 149.81 230.984 151.611 238.667 153.248C250.751 155.82 262.927 155.376 275.134 153.879C282.415 152.99 289.232 151.026 296.11 149.178C301.718 147.681 307.326 146.348 313.336 146.091C321.175 145.74 328.89 146.419 336.574 147.377C347.913 148.804 359.377 149.646 370.841 149.973C378.339 150.184 385.899 149.856 393.427 149.763C393.427 160.241 393.427 170.695 393.427 181.172C390.019 180.681 386.518 180.307 383.203 181.243C377.564 182.856 371.832 184.236 365.853 184.868C361.887 185.289 357.89 185.873 353.924 185.803C346.581 185.686 339.238 185.031 331.895 184.821C327.372 184.681 322.848 184.751 318.325 184.985C312.128 185.335 305.931 185.967 299.735 186.435C295.645 186.739 291.524 186.972 287.435 187.206C282.911 187.464 278.388 187.768 273.864 187.885C266.521 188.072 259.147 188.235 251.804 188.235C247.095 188.212 242.354 187.931 237.645 187.627C231.603 187.253 225.531 186.809 219.52 186.294C214.408 185.873 209.326 185.078 204.214 184.868C196.561 184.54 188.878 184.587 181.225 185.335C177.662 185.686 174.099 186.084 170.536 186.481C167.035 186.879 163.472 187.136 160.002 187.721C156.531 188.329 152.968 187.651 149.591 188.516C149.498 188.539 149.374 188.516 149.281 188.516C139.088 188.75 128.895 188.96 118.794 187.674C113.744 187.043 108.725 186.177 103.674 185.429C99.8636 184.844 96.0527 183.979 92.2108 183.698C87.3464 183.347 82.4511 183.277 77.5558 183.418C71.5451 183.605 65.5654 184.119 59.5547 184.493C54.0707 184.844 48.5867 185.312 43.0717 185.476C38.6102 185.616 34.1176 185.476 29.6251 185.289C24.9467 185.101 20.2992 184.821 15.6518 184.423C9.64108 183.909 3.78529 182.903 -1.85361 181.219C-2.28738 181.079 -2.7831 180.518 -2.7831 180.143C-2.7831 170.321 -2.7831 160.474 -2.81409 150.628C-2.81409 149.856 -2.47327 149.599 -1.48182 149.576C6.48081 149.436 14.3195 148.523 22.1892 147.752C34.4275 146.559 46.7277 146.091 59.059 146.278C76.1306 146.535 93.0163 147.705 109.468 151.33C116.13 152.803 122.977 153.341 129.824 152.686C137.105 152.008 144.386 151.002 151.574 149.856C160.993 148.36 170.381 146.699 180.017 146.161C182.526 146.044 185.036 145.927 187.545 145.787Z" fill="#83D8FF"/>
<path d="M393.241 168.325C373.418 166.242 357.595 158.617 336.096 157.459C303.386 155.688 278.613 169.334 245.565 169.146C213.543 168.963 189.797 155.876 157.931 156.86C132.937 157.628 113.271 166.649 88.2517 167.339C74.17 167.723 63.2948 165.526 51.2266 162.954C35.0793 159.503 40.907 181.002 21.4342 183.443L-2.81409 208.748H393.241V168.325Z" fill="#49BDF2"/>
<path d="M-2.81409 168.359C17.0095 166.275 12.3556 157.631 33.8549 156.472C66.5651 154.701 62.5951 167.084 95.643 166.895C246.317 166.038 500.968 169.616 209.493 207.762C141.059 207.762 61.2661 208.748 -2.81409 208.748V168.359Z" fill="#49BDF2"/>
<path d="M188.685 179C190.463 179 192.21 179 193.989 179C194.488 179.07 194.987 179.164 195.486 179.188C202.787 179.352 209.993 179.986 217.013 181.44C224.75 183.036 232.425 184.843 240.163 186.485C252.33 189.066 264.591 188.621 276.883 187.119C284.215 186.227 291.079 184.256 298.005 182.402C303.652 180.901 309.299 179.563 315.351 179.305C323.245 178.953 331.013 179.634 338.75 180.596C350.169 182.027 361.713 182.872 373.256 183.2C380.806 183.411 388.419 183.083 396 182.989C396 193.501 396 189.944 396 200.456C392.568 199.963 389.043 199.588 385.704 200.526C380.026 202.145 374.255 203.53 368.233 204.163C364.24 204.586 360.215 205.172 356.222 205.102C348.828 204.985 341.433 204.328 334.039 204.116C329.484 203.976 324.929 204.046 320.374 204.281C314.135 204.633 307.895 205.266 301.655 205.735C297.537 206.04 293.388 206.275 289.269 206.51C284.714 206.768 280.159 207.073 275.604 207.19C268.21 207.378 260.785 207.542 253.391 207.542C248.649 207.519 243.875 207.237 239.133 206.932C233.049 206.557 226.934 206.111 220.882 205.595C215.734 205.172 210.617 204.374 205.47 204.163C197.764 203.835 190.026 203.882 182.32 204.633C178.732 204.985 175.144 205.383 171.557 205.782C168.031 206.181 164.443 206.439 160.949 207.026C157.455 207.636 153.867 206.956 150.466 207.824C150.373 207.847 150.248 207.824 150.154 207.824C139.89 208.058 129.626 208.27 119.455 206.979C114.369 206.345 109.315 205.477 104.23 204.726C100.392 204.14 96.555 203.272 92.6864 202.99C87.7882 202.638 82.8588 202.568 77.9294 202.708C71.8768 202.896 65.8555 203.412 59.803 203.788C54.2808 204.14 48.7586 204.609 43.2053 204.773C38.7126 204.914 34.1888 204.773 29.665 204.586C24.954 204.398 20.2742 204.116 15.5944 203.717C9.54187 203.201 3.64532 202.192 -2.03284 200.503C-2.46962 200.362 -2.9688 199.799 -2.9688 199.423C-2.9688 189.568 -2.9688 193.736 -3 183.857C-3 183.083 -2.65681 182.825 -1.65846 182.801C6.35961 182.66 14.2529 181.745 22.1773 180.971C34.5008 179.774 46.8867 179.305 59.3038 179.493C76.4942 179.751 93.4975 180.924 110.064 184.561C116.772 186.039 123.667 186.579 130.562 185.922C137.893 185.242 145.225 184.233 152.463 183.083C161.947 181.581 171.401 179.915 181.103 179.375C183.631 179.258 186.158 179.141 188.685 179Z" fill="#27A4DD"/>
<g clip-path="url(#clip0_2001_5)">
<path fill-rule="evenodd" clip-rule="evenodd" d="M134.171 53.2412C134.171 55.1069 132.638 56.6395 130.772 56.6395C128.907 56.6395 127.374 55.1069 127.374 53.2412C127.374 53.0412 127.374 52.8413 127.441 52.7081V17.2584C127.374 11.6611 122.776 7.19655 117.179 7.19655C111.648 7.19655 107.184 11.5278 106.984 16.9919V32.5177V44.8452V60.9708V64.9022C106.984 65.1021 107.05 65.302 107.05 65.5019C107.05 67.5676 105.518 69.2335 103.652 69.2335C101.786 69.2335 100.254 67.5676 100.254 65.5019C100.254 65.302 100.254 65.1021 100.32 64.9022L100.387 42.513V38.0484V17.2584C100.254 11.3945 96.1222 6.73011 90.1251 6.73011C84.5278 6.73011 79.9966 11.1946 79.93 16.792V43.1127V43.3126V64.8356C79.9966 65.0355 79.9966 65.2354 79.9966 65.4353C79.9966 67.501 78.464 69.1669 76.5983 69.1669C74.7325 69.1669 73 67.501 73 65.5019C73 65.302 73 65.1021 73.0666 64.9022V61.0374V50.3759V40.7805V16.8586C73.0666 7.52972 80.663 0 89.9918 0C95.6558 0 100.653 2.79866 103.719 7.06328C106.85 3.0652 111.715 0.466443 117.179 0.466443C126.508 0.466443 134.104 7.99617 134.171 17.325V52.7747C134.171 52.908 134.171 53.0412 134.171 53.2412Z" fill="#0077B6"/>
<path fill-rule="evenodd" clip-rule="evenodd" d="M174.951 20.1236C174.951 22.1893 173.418 23.8552 171.553 23.8552C169.687 23.8552 168.154 22.1893 168.154 20.1236C168.154 19.9237 168.221 16.9252 168.221 16.9252C168.021 13.86 166.488 11.1946 164.223 9.46209C162.49 8.12939 160.358 7.39641 158.026 7.39641C152.429 7.39641 147.897 11.9276 147.764 17.4583V22.6558H147.831V27.2536H157.959C159.892 27.2536 161.491 28.8528 161.491 30.7852C161.491 32.7176 159.892 34.3168 157.959 34.3168H147.831V47.5771C147.831 47.7104 147.831 47.8437 147.831 47.9103C147.831 48.1769 147.831 48.4434 147.831 48.7099C147.831 48.8432 147.831 48.9098 147.831 49.0431C147.831 49.243 147.831 49.3763 147.764 49.5762C147.764 50.4424 147.764 51.3753 147.764 52.2416C147.631 61.5704 140.234 69.3001 130.706 69.3001C121.377 69.3001 113.78 61.7703 113.714 52.4415V46.2445V26.4539V16.9918C113.714 16.7919 113.647 16.592 113.647 16.3921C113.647 14.5263 115.18 12.9937 117.045 12.9937C118.911 12.9937 120.444 14.5263 120.444 16.3921C120.444 16.592 120.444 16.7919 120.377 16.9918V18.3911V22.9223V45.6447V52.4415C120.377 53.9074 120.71 55.2401 121.31 56.5062C121.443 56.7727 124.175 62.3701 130.639 62.3701C136.236 62.3701 140.834 57.7723 140.901 52.1749V49.4429C140.901 49.3096 140.901 49.1764 140.901 49.0431C140.901 48.9765 140.901 48.9098 140.901 48.8432V17.4583C140.967 8.12939 148.564 0.59967 157.893 0.59967C160.891 0.59967 163.69 1.39929 166.089 2.73198C170.82 5.33074 174.151 10.1284 174.751 15.7924L174.818 16.592C174.818 16.8585 174.818 17.1917 174.818 17.5249C174.951 17.4583 174.951 19.9237 174.951 20.1236Z" fill="#0296C7"/>
<path fill-rule="evenodd" clip-rule="evenodd" d="M93.4569 64.9688C93.4569 65.1687 93.5235 65.3686 93.5235 65.5686C93.5235 67.6342 91.9909 69.3001 90.1252 69.3001C88.2594 69.3001 86.7268 67.6342 86.7268 65.5686C86.7268 65.3686 86.7268 65.1687 86.7934 64.9688V17.325C86.7268 17.1251 86.7268 16.9252 86.7268 16.7253C86.7268 14.8595 88.2594 13.3269 90.1252 13.3269C91.9909 13.3269 93.5235 14.8595 93.5235 16.7253C93.5235 16.9252 93.5235 17.1251 93.4569 17.325V64.9688Z" fill="#0296C7"/>
<path d="M167.484 27.2178L163.903 30.7987L167.484 34.3796L171.065 30.7987L167.484 27.2178Z" fill="#0077B6"/>
<g opacity="0.65">
<mask id="mask0_2001_5" style="mask-type:luminance" maskUnits="userSpaceOnUse" x="86" y="13" width="8" height="31">
<path d="M93.4568 13.3269H86.6601V43.5791H93.4568V13.3269Z" fill="white"/>
</mask>
<g mask="url(#mask0_2001_5)">
<path fill-rule="evenodd" clip-rule="evenodd" d="M93.5235 16.7253C93.5235 16.9252 93.5235 17.1251 93.4568 17.325V41.7799C91.058 42.7794 88.7924 43.3125 86.7267 43.5791V17.325C86.6601 17.1251 86.6601 16.9252 86.6601 16.7253C86.6601 14.8595 88.1927 13.3269 90.0585 13.3269C91.9242 13.3269 93.5235 14.8595 93.5235 16.7253Z" fill="#02B4D7"/>
</g>
</g>
<g opacity="0.65">
<mask id="mask1_2001_5" style="mask-type:luminance" maskUnits="userSpaceOnUse" x="113" y="13" width="8" height="14">
<path d="M120.444 13.0604H113.647V26.5206H120.444V13.0604Z" fill="white"/>
</mask>
<g mask="url(#mask1_2001_5)">
<path fill-rule="evenodd" clip-rule="evenodd" d="M120.444 16.9917V18.391V22.9222C117.912 23.6552 115.779 24.9212 113.714 26.5205V17.0583C113.714 16.8584 113.647 16.6585 113.647 16.5253C113.647 14.6595 115.18 13.1269 117.045 13.1269C118.911 13.1269 120.444 14.6595 120.444 16.5253C120.51 16.6585 120.51 16.8584 120.444 16.9917Z" fill="#02B4D7"/>
</g>
</g>
<g opacity="0.65">
<mask id="mask2_2001_5" style="mask-type:luminance" maskUnits="userSpaceOnUse" x="73" y="0" width="62" height="44">
<path d="M134.171 0H73V43.3792H134.171V0Z" fill="white"/>
</mask>
<g mask="url(#mask2_2001_5)">
<path fill-rule="evenodd" clip-rule="evenodd" d="M134.171 17.2584V23.5221C131.705 22.7891 129.44 22.3226 127.441 22.1894V17.2584C127.374 11.6611 122.843 7.19655 117.245 7.19655C111.715 7.19655 107.25 11.5278 107.05 16.9919V32.5177C104.985 34.3835 102.852 36.3159 100.32 38.1151V17.325C100.187 11.4612 96.0556 6.79674 90.0585 6.79674C84.4612 6.79674 79.93 11.2613 79.7967 16.8586V43.1793V43.3792C76.9314 42.7795 74.6659 41.78 73 40.7804V16.8586C73.0666 7.52972 80.663 0 89.9918 0C95.6558 0 100.653 2.79866 103.719 7.06328C106.85 3.0652 111.715 0.466443 117.179 0.466443C126.508 0.399808 134.037 7.92953 134.171 17.2584Z" fill="#02B4D7"/>
</g>
</g>
<g opacity="0.65">
<mask id="mask3_2001_5" style="mask-type:luminance" maskUnits="userSpaceOnUse" x="140" y="0" width="27" height="26">
<path d="M166.155 0.59967H140.967V25.9875H166.155V0.59967Z" fill="white"/>
</mask>
<g mask="url(#mask3_2001_5)">
<path fill-rule="evenodd" clip-rule="evenodd" d="M166.155 2.73198C165.689 4.46448 165.089 6.86333 164.156 9.46209C162.424 8.12939 160.291 7.39641 157.959 7.39641C152.362 7.39641 147.831 11.9276 147.698 17.4583V22.6558H147.764V25.8542C145.765 26.1208 143.5 26.0541 140.967 25.521V17.4583C141.034 8.12939 148.63 0.59967 157.959 0.59967C160.958 0.59967 163.756 1.39929 166.155 2.73198Z" fill="#02B4D7"/>
</g>
</g>
</g>
<path d="M196.344 0.31665L191.913 11.3946L187.482 0.31665H184V16.6171H185.424V3.48179L191.122 17.2501L196.661 3.48179V16.6171H199.509V0.31665H196.344Z" fill="black"/>
<path d="M209.479 0L202.833 16.617H204.257L205.839 12.5023L205.998 12.1858L206.314 11.2362L206.631 10.445L208.688 5.38073L210.745 10.445L211.062 11.2362L211.537 12.1858L212.011 13.6101L213.278 16.617H216.443L209.479 0Z" fill="black"/>
<path d="M222.773 15.3511V0.31665H219.766V16.6171H229.736V15.3511H222.773Z" fill="black"/>
<path d="M237.174 0L230.528 16.617H231.952L233.376 13.1353L233.693 12.1858L234.168 11.2362V10.9197L236.383 5.38073L238.599 10.9197L239.232 12.1858L239.865 13.6101L240.973 16.617H244.138L237.174 0Z" fill="black"/>
<path d="M258.064 9.49556C257.431 8.70427 256.64 8.2295 255.532 7.91299C256.482 7.75473 257.115 7.27996 257.59 6.64693C258.064 6.0139 258.381 5.38088 258.381 4.43133C258.381 3.64005 258.223 3.00702 257.748 2.374C257.431 1.74097 256.798 1.26619 256.165 0.949681C255.849 0.791424 255.216 0.633168 254.583 0.474911C253.95 0.316654 253.158 0.31665 252.051 0.31665H247.303V16.4589H253C254.899 16.4589 256.482 16.1423 257.431 15.3511C258.381 14.5598 258.856 13.6102 258.856 12.0277C259.014 11.0781 258.697 10.2868 258.064 9.49556ZM250.468 1.42445H251.734C253 1.42445 254.108 1.74096 254.741 2.21573C255.374 2.69051 255.691 3.48179 255.691 4.58959C255.691 5.69739 255.374 6.48867 254.899 6.96344C254.266 7.43821 253.475 7.75473 252.051 7.75473H250.626V1.42445H250.468ZM255.216 14.718C254.583 15.1928 253.633 15.5093 252.367 15.5093H250.468V8.54601H251.892C253.317 8.54601 254.266 8.86253 255.058 9.49556C255.691 10.1286 256.165 11.0781 256.165 12.3442C256.165 13.452 255.849 14.2433 255.216 14.718Z" fill="black"/>
<path d="M268.193 0L261.546 16.617H262.97L264.395 12.8188L264.553 12.1858L265.028 11.2362L265.344 10.6032L267.401 5.38073L269.617 10.7615L270.25 12.1858L270.408 12.8188L271.833 16.617H275.156L268.193 0Z" fill="black"/>
<path d="M285.601 9.0206C286.867 9.0206 287.975 8.54584 288.766 7.91281C289.558 7.27978 289.874 6.33024 289.874 5.22244C289.874 3.63987 289.399 2.53207 288.291 1.74079C287.342 0.949501 285.759 0.474731 283.702 0.474731H278.321V16.6169H281.328V1.42427H282.594C284.019 1.42427 285.126 1.74079 285.759 2.37382C286.392 3.00684 286.867 3.79812 286.867 5.06418C286.867 6.17198 286.551 6.96326 285.759 7.43803C285.126 7.9128 283.86 8.22932 282.119 8.38758L286.551 16.6169H289.874L285.601 9.0206Z" fill="black"/>
<path d="M187.007 41.305V26.4289H184V42.5711H194.128V41.305H187.007Z" fill="black"/>
<path d="M200.3 26.4289H197.294V42.5711H200.3V26.4289Z" fill="black"/>
<path d="M203.782 26.4289V27.5367H208.055V42.5711H211.062V27.5367H215.335V26.4289H203.782Z" fill="black"/>
<path d="M228.787 27.5367V26.4289H218.817V42.5711H228.787V41.305H221.824V34.6583H228.312V33.5505H221.824V27.5367H228.787Z" fill="black"/>
<path d="M240.814 34.9748C242.08 34.9748 243.188 34.5 243.979 33.867C244.771 33.234 245.087 32.2844 245.087 31.1766C245.087 29.594 244.612 28.4862 243.505 27.695C242.555 26.9037 240.972 26.4289 238.915 26.4289H233.534V42.5711H236.541V27.3784H237.807C239.232 27.3784 240.339 27.695 240.972 28.328C241.606 28.961 242.08 29.7523 242.08 31.0183C242.08 32.1261 241.764 32.9174 240.972 33.3922C240.339 33.867 239.073 34.1835 237.333 34.3417L241.764 42.5711H245.087L240.814 34.9748Z" fill="black"/>
<path d="M253 26.1124L246.353 42.5711H247.778L249.044 38.9312L249.36 38.2982L249.835 37.1904L249.993 36.7156L250.151 36.5574L252.209 31.3349L254.424 37.0322L254.583 37.1904L254.899 38.2982H255.057L255.374 39.0895V39.2477L256.64 42.5711H259.805L253 26.1124Z" fill="black"/>
<path d="M259.963 26.4289V27.5367H264.078V42.5711H267.085V27.5367H271.358V26.4289H259.963Z" fill="black"/>
<path d="M284.809 26.4289V36.2408C284.809 38.1399 284.493 39.406 284.018 40.1973C283.543 40.9885 282.594 41.3051 281.328 41.3051C280.062 41.3051 279.112 40.9885 278.637 40.1973C278.163 39.406 277.846 38.1399 277.846 36.2408V26.4289H274.839V36.7156C274.839 37.9817 274.998 38.7729 275.156 39.5642C275.314 40.1973 275.789 40.8303 276.264 41.3051C276.738 41.7798 277.371 42.2546 278.163 42.5711C278.954 42.8876 279.745 43.0459 280.695 43.0459C282.594 43.0459 284.018 42.5711 284.968 41.4633C285.917 40.3555 286.392 38.9312 286.392 36.7156V26.4289H284.809Z" fill="black"/>
<path d="M298.736 34.9748C300.16 34.9748 301.11 34.5 301.901 33.867C302.693 33.234 303.009 32.2844 303.009 31.1766C303.009 29.594 302.534 28.4862 301.426 27.695C300.319 26.9037 298.894 26.4289 296.837 26.4289H291.456V42.5711H294.463V27.3784H295.729C297.154 27.3784 298.103 27.695 298.894 28.328C299.527 28.961 300.002 29.7523 300.002 31.0183C300.002 32.1261 299.686 32.9174 298.894 33.3922C298.261 33.867 296.995 34.1835 295.254 34.3417L299.686 42.5711H303.009L298.736 34.9748Z" fill="black"/>
<path d="M317.411 27.5367V26.4289H307.44V42.5711H317.411V41.305H310.447V34.6583H316.936V33.5505H310.447V27.5367H317.411Z" fill="black"/>
<path d="M194.287 53.4908V52.383H184V68.5252H187.007V60.6124H193.97V59.5046H187.007V53.4908H194.287Z" fill="black"/>
<path d="M208.372 53.4908V52.383H198.243V68.5252H208.372V67.4174H201.25V60.7706H207.897V59.5046H201.25V53.4908H208.372Z" fill="black"/>
<path d="M221.665 61.2455C221.032 60.6125 219.924 59.8212 218.183 59.0299C217.076 58.5551 216.284 58.0804 215.81 57.6056C215.335 57.1308 215.177 56.656 215.177 56.023C215.177 55.2317 215.335 54.5987 215.968 54.1239C216.601 53.6492 217.076 53.3326 217.867 53.3326C218.658 53.3326 219.291 53.4909 219.766 53.9657C220.241 54.4404 220.716 54.9152 221.032 55.7065L222.14 54.9152C221.665 53.9657 221.032 53.3326 220.241 52.6996C219.45 52.2248 218.5 51.9083 217.234 51.9083C215.81 51.9083 214.544 52.3831 213.594 53.3326C212.644 54.2822 212.17 55.39 212.17 56.8143C212.17 57.7638 212.486 58.7134 212.961 59.3464C213.436 59.9794 214.385 60.6125 215.81 61.0872C218.183 62.0368 219.45 63.3028 219.45 64.5689C219.45 65.3602 219.133 66.1515 218.658 66.6262C218.183 67.101 217.392 67.4175 216.601 67.4175C215.968 67.4175 215.335 67.2592 214.86 66.7845C214.227 66.468 213.911 65.8349 213.436 65.2019L212.17 65.9932C212.803 66.9427 213.436 67.5758 214.227 68.0505C215.018 68.5253 215.968 68.6836 217.076 68.6836C218.658 68.6836 219.924 68.2088 220.874 67.2593C221.823 66.3097 222.298 65.0436 222.298 63.6193C222.456 62.8281 222.298 61.8785 221.665 61.2455Z" fill="black"/>
<path d="M224.989 52.383V53.4908H229.262V68.5252H232.268V53.4908H236.383V52.383H224.989Z" fill="black"/>
<path d="M243.03 52.383H240.023V68.5252H243.03V52.383Z" fill="black"/>
<path d="M257.906 52.383L253.791 63.461L249.519 52.383H246.195L253 69L259.489 52.383H257.906Z" fill="black"/>
<path d="M266.293 52.0665L259.647 68.5252H261.071L262.495 65.0436L262.812 64.2523L263.128 63.3028L263.286 62.828L265.502 57.289L267.559 62.5115L268.351 64.2523L268.667 64.8853V65.2018L270.091 68.5252H273.257L266.293 52.0665Z" fill="black"/>
<path d="M279.587 67.4174V52.383H276.58V68.5252H286.55V67.4174H279.587Z" fill="black"/>
<path d="M90.6837 92.7983H89.7058L85.8539 87.0406V92.7983H84.9658V85.6136H85.9437L89.8055 91.4412V85.6136H90.6837V92.7983ZM92.0018 90.1041C92.0018 89.2791 92.2247 88.6039 92.6704 88.0783C93.1161 87.5528 93.7781 87.29 94.6562 87.29C95.4279 87.29 96.0632 87.5229 96.5621 87.9885C97.0611 88.4476 97.3106 89.1527 97.3106 90.1041C97.3106 90.929 97.0877 91.6042 96.642 92.1298C96.1963 92.6553 95.5343 92.9181 94.6562 92.9181C93.8845 92.9181 93.2492 92.6886 92.7502 92.2295C92.2513 91.7639 92.0018 91.0554 92.0018 90.1041ZM96.4324 90.1041C96.4524 89.4854 96.2994 88.9831 95.9734 88.5972C95.6541 88.2047 95.2117 88.0185 94.6462 88.0384C94.0674 88.0384 93.6284 88.2181 93.329 88.5773C93.0296 88.9365 92.88 89.4455 92.88 90.1041C92.86 90.7227 93.0097 91.2283 93.329 91.6208C93.655 92.0133 94.1007 92.1963 94.6662 92.1697C95.2449 92.1697 95.684 91.9901 95.9834 91.6308C96.2827 91.2716 96.4324 90.7627 96.4324 90.1041ZM99.7784 92.8083L97.9123 87.4098H98.8204L100.307 91.8703H100.357L101.834 87.4098H102.732L100.846 92.8083H99.7784ZM123.981 92.7983H121.636V85.6136H123.981C124.992 85.6136 125.804 85.9296 126.416 86.5616C127.035 87.1869 127.344 88.0717 127.344 89.2159C127.344 90.3602 127.035 91.245 126.416 91.8703C125.804 92.489 124.992 92.7983 123.981 92.7983ZM125.757 91.2516C126.21 90.7394 126.436 90.0608 126.436 89.2159C126.436 88.3711 126.21 87.6892 125.757 87.1703C125.305 86.6514 124.68 86.3919 123.881 86.3919H122.514V92.02H123.881C124.68 92.02 125.305 91.7639 125.757 91.2516ZM133.011 91.8104V92.5688C132.312 92.8017 131.634 92.9181 130.975 92.9181C130.103 92.9181 129.448 92.6886 129.009 92.2295C128.577 91.7705 128.36 91.0587 128.36 90.0941C128.36 89.1827 128.573 88.4875 128.999 88.0085C129.425 87.5295 130.04 87.29 130.845 87.29C131.61 87.29 132.182 87.5062 132.562 87.9386C132.941 88.3711 133.13 89.033 133.13 89.9244V90.3336H129.239C129.245 91.551 129.884 92.1597 131.155 92.1597C131.74 92.1597 132.359 92.0433 133.011 91.8104ZM129.229 89.6949H132.252C132.252 88.5573 131.77 87.9885 130.805 87.9885C130.386 87.9619 130.014 88.1016 129.688 88.4077C129.368 88.7137 129.215 89.1428 129.229 89.6949ZM136.864 92.1597C137.35 92.1597 137.879 92.0699 138.451 91.8903V92.6586C137.872 92.8316 137.303 92.9181 136.744 92.9181C136.392 92.9181 136.066 92.8715 135.767 92.7784C135.467 92.6852 135.188 92.5356 134.928 92.3293C134.675 92.1231 134.473 91.8304 134.32 91.4512C134.173 91.072 134.1 90.623 134.1 90.1041C134.1 89.2126 134.316 88.5307 134.749 88.0584C135.241 87.5461 135.906 87.29 136.744 87.29C137.323 87.29 137.892 87.3798 138.451 87.5595V88.3278C137.872 88.1415 137.343 88.0484 136.864 88.0484C136.252 88.0484 135.783 88.2247 135.457 88.5773C135.138 88.9299 134.978 89.4388 134.978 90.1041C134.978 90.7826 135.144 91.2949 135.477 91.6408C135.816 91.9867 136.279 92.1597 136.864 92.1597Z" fill="black"/>
<path d="M200.816 92.7983H196.335V92.0699C197.3 91.2716 197.995 90.6429 198.421 90.1839C199.239 89.2991 199.648 88.5108 199.648 87.8189C199.648 87.3399 199.499 86.964 199.199 86.6913C198.9 86.4185 198.491 86.2822 197.972 86.2822C197.519 86.2822 197.01 86.3587 196.445 86.5117V85.7034C197.05 85.5637 197.609 85.4938 198.121 85.4938C198.92 85.4938 199.522 85.6934 199.928 86.0926C200.34 86.4851 200.546 87.0439 200.546 87.769C200.546 88.1016 200.476 88.4509 200.337 88.8168C200.204 89.1827 199.934 89.6084 199.528 90.0941C199.109 90.6063 198.441 91.2483 197.523 92.02H200.816V92.7983ZM202.781 89.206C202.781 91.1419 203.38 92.1098 204.578 92.1098C205.775 92.1098 206.374 91.1419 206.374 89.206C206.374 87.2767 205.775 86.3121 204.578 86.3121C203.38 86.3121 202.781 87.2767 202.781 89.206ZM201.863 89.206C201.863 88.6604 201.91 88.1715 202.003 87.7391C202.103 87.3 202.253 86.9108 202.452 86.5715C202.658 86.2256 202.941 85.9595 203.3 85.7732C203.66 85.587 204.085 85.4938 204.578 85.4938C205.423 85.4938 206.071 85.7699 206.524 86.3221C207.036 86.9474 207.292 87.9087 207.292 89.206C207.292 89.7515 207.242 90.2438 207.142 90.6828C207.049 91.1152 206.899 91.5044 206.693 91.8504C206.494 92.1896 206.214 92.4524 205.855 92.6387C205.496 92.825 205.07 92.9181 204.578 92.9181C203.733 92.9181 203.084 92.642 202.632 92.0898C202.12 91.4645 201.863 90.5032 201.863 89.206ZM212.831 92.7983H208.351V92.0699C209.315 91.2716 210.011 90.6429 210.436 90.1839C211.255 89.2991 211.664 88.5108 211.664 87.8189C211.664 87.3399 211.514 86.964 211.215 86.6913C210.915 86.4185 210.506 86.2822 209.987 86.2822C209.535 86.2822 209.026 86.3587 208.461 86.5117V85.7034C209.066 85.5637 209.625 85.4938 210.137 85.4938C210.935 85.4938 211.537 85.6934 211.943 86.0926C212.356 86.4851 212.562 87.0439 212.562 87.769C212.562 88.1016 212.492 88.4509 212.352 88.8168C212.219 89.1827 211.95 89.6084 211.544 90.0941C211.125 90.6063 210.456 91.2483 209.538 92.02H212.831V92.7983ZM213.919 86.5217V85.7433C214.112 85.6901 214.408 85.6335 214.807 85.5737C215.133 85.5271 215.442 85.5038 215.735 85.5038C216.34 85.4839 216.866 85.6502 217.312 86.0028C217.757 86.3487 217.967 86.7811 217.94 87.3C217.94 87.6992 217.817 88.065 217.571 88.3977C217.325 88.7303 217.026 88.9731 216.673 89.1261C217.112 89.2193 217.461 89.4521 217.721 89.8246C217.987 90.1972 218.107 90.5232 218.08 90.8026C218.08 91.4479 217.844 91.9634 217.372 92.3493C216.899 92.7285 216.284 92.9181 215.525 92.9181C215.279 92.9181 215 92.9048 214.687 92.8782C214.395 92.8582 214.102 92.8316 213.809 92.7983V92.0399C214.301 92.1131 214.85 92.1497 215.456 92.1497C216.001 92.1497 216.424 92.0333 216.723 91.8005C217.029 91.561 217.182 91.225 217.182 90.7926C217.182 90.4267 217.022 90.1307 216.703 89.9045C216.39 89.6716 216.008 89.5552 215.555 89.5552H214.637V88.8168H215.515C215.828 88.8434 216.167 88.7236 216.533 88.4575C216.899 88.1914 217.076 87.8455 217.062 87.4197C217.062 86.668 216.56 86.2921 215.555 86.2921C215.356 86.2921 215.07 86.3187 214.697 86.372C214.345 86.4252 214.085 86.4751 213.919 86.5217Z" fill="black"/>
<rect x="142.676" y="84" width="13.9704" height="11.9746" rx="2.39492" fill="#0077B6"/>
<path d="M146.63 89.8925C146.617 90.5657 146.721 91.1073 146.942 91.5174C147.168 91.9275 147.505 92.1203 147.952 92.0958C148.404 92.0958 148.738 91.9183 148.952 91.5633C149.173 91.2022 149.283 90.6453 149.283 89.8925C149.283 89.1458 149.173 88.5949 148.952 88.24C148.738 87.885 148.404 87.7075 147.952 87.7075C147.505 87.7075 147.171 87.885 146.951 88.24C146.737 88.5949 146.63 89.1458 146.63 89.8925ZM145.252 89.8925C145.252 89.4151 145.298 88.9805 145.39 88.5888C145.488 88.191 145.638 87.8299 145.84 87.5055C146.042 87.1811 146.32 86.9302 146.675 86.7527C147.037 86.5691 147.462 86.4773 147.952 86.4773C148.441 86.4773 148.867 86.5691 149.228 86.7527C149.589 86.9302 149.87 87.1811 150.072 87.5055C150.28 87.8299 150.43 88.191 150.522 88.5888C150.62 88.9805 150.669 89.4151 150.669 89.8925C150.669 91.0308 150.415 91.903 149.907 92.5089C149.46 93.0414 148.808 93.3076 147.952 93.3076C146.997 93.3076 146.287 92.9649 145.822 92.2794C145.442 91.6918 145.252 90.8962 145.252 89.8925ZM153.805 86.5875V93.1974H152.492V87.9921L151.326 88.4787V87.2668L152.786 86.5875H153.805Z" fill="white"/>
<rect x="159.041" y="84" width="13.9704" height="11.9746" rx="2.39492" fill="#0077B6"/>
<path d="M162.372 89.8925C162.359 90.5657 162.463 91.1073 162.684 91.5174C162.91 91.9275 163.247 92.1203 163.694 92.0958C164.147 92.0958 164.48 91.9183 164.694 91.5633C164.915 91.2022 165.025 90.6453 165.025 89.8925C165.025 89.1458 164.915 88.5949 164.694 88.24C164.48 87.885 164.147 87.7075 163.694 87.7075C163.247 87.7075 162.913 87.885 162.693 88.24C162.479 88.5949 162.372 89.1458 162.372 89.8925ZM160.995 89.8925C160.995 89.4151 161.04 88.9805 161.132 88.5888C161.23 88.191 161.38 87.8299 161.582 87.5055C161.784 87.1811 162.063 86.9302 162.418 86.7527C162.779 86.5691 163.204 86.4773 163.694 86.4773C164.183 86.4773 164.609 86.5691 164.97 86.7527C165.331 86.9302 165.612 87.1811 165.814 87.5055C166.022 87.8299 166.172 88.191 166.264 88.5888C166.362 88.9805 166.411 89.4151 166.411 89.8925C166.411 91.0308 166.157 91.903 165.649 92.5089C165.202 93.0414 164.55 93.3076 163.694 93.3076C162.739 93.3076 162.029 92.9649 161.564 92.2794C161.184 91.6918 160.995 90.8962 160.995 89.8925ZM171.539 93.1974H167.224V92.2794C169.073 90.8166 169.997 89.6385 169.997 88.7449C169.997 88.3838 169.878 88.1114 169.639 87.9278C169.4 87.7381 169.064 87.6432 168.629 87.6432C168.305 87.6432 167.861 87.7014 167.298 87.8177V86.6609C167.898 86.5385 168.421 86.4773 168.868 86.4773C169.217 86.4773 169.535 86.514 169.823 86.5875C170.11 86.6609 170.37 86.7803 170.603 86.9455C170.842 87.1046 171.025 87.328 171.154 87.6157C171.282 87.8972 171.346 88.2338 171.346 88.6255C171.346 89.1152 171.175 89.6323 170.832 90.1771C170.502 90.7034 169.933 91.3246 169.125 92.0407H171.539V93.1974Z" fill="white"/>
<rect x="175.406" y="84" width="13.9704" height="11.9746" rx="2.39492" fill="#0077B6"/>
<path d="M178.786 89.8925C178.774 90.5657 178.878 91.1073 179.099 91.5174C179.325 91.9275 179.662 92.1203 180.108 92.0958C180.561 92.0958 180.895 91.9183 181.109 91.5633C181.329 91.2022 181.44 90.6453 181.44 89.8925C181.44 89.1458 181.329 88.5949 181.109 88.24C180.895 87.885 180.561 87.7075 180.108 87.7075C179.662 87.7075 179.328 87.885 179.108 88.24C178.894 88.5949 178.786 89.1458 178.786 89.8925ZM177.409 89.8925C177.409 89.4151 177.455 88.9805 177.547 88.5888C177.645 88.191 177.795 87.8299 177.997 87.5055C178.199 87.1811 178.477 86.9302 178.832 86.7527C179.193 86.5691 179.619 86.4773 180.108 86.4773C180.598 86.4773 181.023 86.5691 181.385 86.7527C181.746 86.9302 182.027 87.1811 182.229 87.5055C182.437 87.8299 182.587 88.191 182.679 88.5888C182.777 88.9805 182.826 89.4151 182.826 89.8925C182.826 91.0308 182.572 91.903 182.064 92.5089C181.617 93.0414 180.965 93.3076 180.108 93.3076C179.154 93.3076 178.444 92.9649 177.979 92.2794C177.599 91.6918 177.409 90.8962 177.409 89.8925ZM183.703 93.1974V92.0774C184.23 92.1447 184.729 92.1784 185.2 92.1784C186.045 92.1784 186.467 91.8724 186.467 91.2604C186.467 90.9911 186.36 90.786 186.145 90.6453C185.931 90.5045 185.65 90.4341 185.301 90.4341H184.429V89.3508H185.237C185.537 89.3508 185.797 89.2682 186.017 89.1029C186.243 88.9316 186.357 88.7112 186.357 88.4419C186.369 88.1726 186.253 87.9707 186.008 87.836C185.769 87.6953 185.503 87.631 185.209 87.6432C184.97 87.6432 184.701 87.6738 184.401 87.735C184.101 87.7901 183.875 87.8421 183.722 87.8911V86.7344C184.316 86.5691 184.918 86.4865 185.53 86.4865C186.161 86.4865 186.675 86.6456 187.073 86.9639C187.477 87.276 187.679 87.7014 187.679 88.24C187.679 88.5643 187.593 88.8673 187.422 89.1488C187.256 89.4304 187.03 89.6538 186.742 89.819C186.999 89.8863 187.244 90.0669 187.477 90.3607C187.709 90.6483 187.819 90.9513 187.807 91.2695C187.807 91.6551 187.712 92.0009 187.523 92.3069C187.339 92.5885 187.051 92.8272 186.66 93.023C186.274 93.2127 185.809 93.3076 185.264 93.3076C184.854 93.3076 184.334 93.2709 183.703 93.1974Z" fill="white"/>
<rect x="104.357" y="84" width="13.9704" height="11.9746" rx="2.39492" fill="#0077B6"/>
<path d="M106.378 93.1974V92.0774C106.905 92.1447 107.404 92.1784 107.875 92.1784C108.719 92.1784 109.142 91.8724 109.142 91.2604C109.142 90.9911 109.035 90.786 108.82 90.6453C108.606 90.5045 108.325 90.4341 107.976 90.4341H107.104V89.3508H107.912C108.211 89.3508 108.472 89.2682 108.692 89.1029C108.918 88.9316 109.032 88.7112 109.032 88.4419C109.044 88.1726 108.928 87.9707 108.683 87.836C108.444 87.6953 108.178 87.631 107.884 87.6432C107.645 87.6432 107.376 87.6738 107.076 87.735C106.776 87.7901 106.55 87.8421 106.397 87.8911V86.7344C106.99 86.5691 107.593 86.4865 108.205 86.4865C108.836 86.4865 109.35 86.6456 109.748 86.9639C110.152 87.276 110.354 87.7014 110.354 88.24C110.354 88.5643 110.268 88.8673 110.097 89.1488C109.931 89.4304 109.705 89.6538 109.417 89.819C109.674 89.8863 109.919 90.0669 110.152 90.3607C110.384 90.6483 110.494 90.9513 110.482 91.2695C110.482 91.6551 110.387 92.0009 110.198 92.3069C110.014 92.5885 109.726 92.8272 109.335 93.023C108.949 93.2127 108.484 93.3076 107.939 93.3076C107.529 93.3076 107.009 93.2709 106.378 93.1974ZM112.713 89.8925C112.701 90.5657 112.805 91.1073 113.025 91.5174C113.251 91.9275 113.588 92.1203 114.035 92.0958C114.488 92.0958 114.821 91.9183 115.036 91.5633C115.256 91.2022 115.366 90.6453 115.366 89.8925C115.366 89.1458 115.256 88.5949 115.036 88.24C114.821 87.885 114.488 87.7075 114.035 87.7075C113.588 87.7075 113.255 87.885 113.034 88.24C112.82 88.5949 112.713 89.1458 112.713 89.8925ZM111.336 89.8925C111.336 89.4151 111.382 88.9805 111.474 88.5888C111.571 88.191 111.721 87.8299 111.923 87.5055C112.125 87.1811 112.404 86.9302 112.759 86.7527C113.12 86.5691 113.545 86.4773 114.035 86.4773C114.525 86.4773 114.95 86.5691 115.311 86.7527C115.672 86.9302 115.954 87.1811 116.156 87.5055C116.364 87.8299 116.514 88.191 116.605 88.5888C116.703 88.9805 116.752 89.4151 116.752 89.8925C116.752 91.0308 116.498 91.903 115.99 92.5089C115.544 93.0414 114.892 93.3076 114.035 93.3076C113.08 93.3076 112.37 92.9649 111.905 92.2794C111.526 91.6918 111.336 90.8962 111.336 89.8925Z" fill="white"/>
<path d="M228.404 91.7726L227.337 89.7768L226.159 90.2059V93H225.271V85.8152H226.159V89.3378L227.576 88.7889C228.122 88.5894 228.514 88.28 228.754 87.8609C229 87.4418 229.123 86.8963 229.123 86.2244L229.103 85.8152H229.991C229.998 85.8751 230.001 86.0913 230.001 86.4639C230.008 86.6701 229.988 86.8963 229.941 87.1424C229.895 87.3819 229.815 87.6414 229.702 87.9208C229.589 88.1935 229.416 88.4596 229.183 88.7191C228.95 88.9785 228.671 89.1881 228.345 89.3477L228.165 89.4475L229.193 91.3236C229.372 91.6495 229.562 91.8824 229.762 92.0221C229.968 92.1618 230.251 92.2316 230.61 92.2316V93.02L230.271 93.0299C229.479 93.0299 228.857 92.6108 228.404 91.7726ZM231.128 90.3057C231.128 89.4808 231.351 88.8056 231.797 88.28C232.242 87.7545 232.904 87.4917 233.782 87.4917C234.554 87.4917 235.189 87.7245 235.688 88.1902C236.187 88.6492 236.437 89.3544 236.437 90.3057C236.437 91.1306 236.214 91.8059 235.768 92.3314C235.322 92.857 234.661 93.1197 233.782 93.1197C233.011 93.1197 232.375 92.8902 231.876 92.4312C231.377 91.9655 231.128 91.257 231.128 90.3057ZM235.559 90.3057C235.579 89.687 235.426 89.1848 235.1 88.7989C234.78 88.4064 234.338 88.2201 233.772 88.2401C233.194 88.2401 232.755 88.4197 232.455 88.779C232.156 89.1382 232.006 89.6471 232.006 90.3057C231.986 90.9244 232.136 91.43 232.455 91.8225C232.781 92.215 233.227 92.3979 233.792 92.3713C234.371 92.3713 234.81 92.1917 235.11 91.8325C235.409 91.4732 235.559 90.9643 235.559 90.3057ZM240.449 88.3598H237.236V87.6114H241.567V88.2601L238.434 92.2616H241.807V93H237.296V92.3514L240.449 88.3598ZM247.467 89.0184V93H246.619V89.1781C246.619 88.892 246.536 88.6692 246.369 88.5095C246.21 88.3432 245.98 88.2601 245.681 88.2601C245.481 88.2601 245.248 88.3033 244.982 88.3898C244.676 88.4896 244.27 88.6725 243.765 88.9386V93H242.917V85.3861H243.765V88.2501C244.67 87.7445 245.388 87.4917 245.92 87.4917C246.426 87.4917 246.808 87.6214 247.068 87.8809C247.334 88.1403 247.467 88.5195 247.467 89.0184ZM248.988 87.6114H249.836V93H248.988V87.6114ZM248.968 85.6955H249.846V86.7433H248.968V85.6955ZM254.488 87.6114H255.336V87.7511C255.336 88.9087 254.874 89.7269 253.949 90.2059L254.528 91.2337C254.734 91.5996 254.937 91.8691 255.137 92.042C255.336 92.2083 255.566 92.2915 255.825 92.2915V93.0399C255.732 93.0532 255.636 93.0599 255.536 93.0599C254.884 93.0599 254.339 92.6607 253.899 91.8624L253.181 90.5452L252.243 90.9344V93H251.395V85.3861H252.243V90.176L253.151 89.8068C253.643 89.6005 253.989 89.3378 254.189 89.0184C254.388 88.6991 254.488 88.3033 254.488 87.831V87.6114ZM256.416 90.3057C256.416 89.4808 256.639 88.8056 257.085 88.28C257.53 87.7545 258.192 87.4917 259.071 87.4917C259.842 87.4917 260.478 87.7245 260.977 88.1902C261.475 88.6492 261.725 89.3544 261.725 90.3057C261.725 91.1306 261.502 91.8059 261.056 92.3314C260.611 92.857 259.949 93.1197 259.071 93.1197C258.299 93.1197 257.664 92.8902 257.165 92.4312C256.666 91.9655 256.416 91.257 256.416 90.3057ZM260.847 90.3057C260.867 89.687 260.714 89.1848 260.388 88.7989C260.068 88.4064 259.626 88.2201 259.061 88.2401C258.482 88.2401 258.043 88.4197 257.743 88.779C257.444 89.1382 257.294 89.6471 257.294 90.3057C257.274 90.9244 257.424 91.43 257.743 91.8225C258.069 92.215 258.515 92.3979 259.081 92.3713C259.659 92.3713 260.098 92.1917 260.398 91.8325C260.697 91.4732 260.847 90.9643 260.847 90.3057ZM262.702 90.4255C262.702 88.4696 263.584 87.4917 265.347 87.4917C265.706 87.4917 266.135 87.5416 266.634 87.6414V85.3861H267.482V93H266.783L266.694 92.4811C266.015 92.9002 265.366 93.1098 264.748 93.1098C264.096 93.1098 263.59 92.8803 263.231 92.4212C262.878 91.9622 262.702 91.2969 262.702 90.4255ZM263.58 90.3855C263.58 91.7094 264.036 92.3713 264.947 92.3713C265.44 92.3713 266.002 92.1718 266.634 91.7726V88.3698C266.168 88.2767 265.759 88.2301 265.406 88.2301C264.781 88.2301 264.319 88.4064 264.019 88.759C263.727 89.1049 263.58 89.6471 263.58 90.3855ZM273.404 92.0121V92.7705C272.705 93.0033 272.027 93.1197 271.368 93.1197C270.496 93.1197 269.841 92.8902 269.402 92.4312C268.97 91.9722 268.754 91.2604 268.754 90.2957C268.754 89.3843 268.966 88.6891 269.392 88.2102C269.818 87.7312 270.433 87.4917 271.238 87.4917C272.003 87.4917 272.575 87.7079 272.955 88.1403C273.334 88.5727 273.523 89.2347 273.523 90.1261V90.5352H269.632C269.638 91.7526 270.277 92.3614 271.548 92.3614C272.133 92.3614 272.752 92.2449 273.404 92.0121ZM269.622 89.8966H272.645C272.645 88.759 272.163 88.1902 271.198 88.1902C270.779 88.1636 270.407 88.3033 270.081 88.6093C269.761 88.9153 269.608 89.3444 269.622 89.8966ZM277.475 85.8152H280.149C280.715 85.8152 281.204 85.9682 281.616 86.2743C282.035 86.5803 282.245 87.026 282.245 87.6114C282.258 87.984 282.155 88.3299 281.935 88.6492C281.716 88.9619 281.456 89.1881 281.157 89.3278C281.589 89.4409 281.925 89.6471 282.165 89.9465C282.404 90.2458 282.524 90.6051 282.524 91.0242C282.524 91.6096 282.321 92.0853 281.915 92.4512C281.51 92.8171 280.971 93 280.299 93H277.475V85.8152ZM278.353 92.2316H280.249C280.708 92.2449 281.054 92.1119 281.287 91.8325C281.52 91.5464 281.626 91.2537 281.606 90.9543C281.619 90.6882 281.546 90.4587 281.387 90.2658C281.227 90.0729 281.037 89.9365 280.818 89.8567C280.598 89.7768 280.379 89.7436 280.159 89.7569H278.353V92.2316ZM278.353 86.5936V88.9985H280.069C280.342 89.0251 280.628 88.9153 280.928 88.6692C281.234 88.4164 281.383 88.1004 281.377 87.7212C281.377 87.3952 281.257 87.1258 281.017 86.9129C280.785 86.7 280.455 86.5936 280.029 86.5936H278.353ZM288.128 92.0121V92.7705C287.43 93.0033 286.751 93.1197 286.093 93.1197C285.221 93.1197 284.566 92.8902 284.127 92.4312C283.694 91.9722 283.478 91.2604 283.478 90.2957C283.478 89.3843 283.691 88.6891 284.117 88.2102C284.543 87.7312 285.158 87.4917 285.963 87.4917C286.728 87.4917 287.3 87.7079 287.679 88.1403C288.058 88.5727 288.248 89.2347 288.248 90.1261V90.5352H284.356C284.363 91.7526 285.002 92.3614 286.272 92.3614C286.858 92.3614 287.476 92.2449 288.128 92.0121ZM284.346 89.8966H287.37C287.37 88.759 286.888 88.1902 285.923 88.1902C285.504 88.1636 285.131 88.3033 284.805 88.6093C284.486 88.9153 284.333 89.3444 284.346 89.8966ZM291.044 89.8367H292.65V89.2579C292.65 88.5661 292.221 88.2201 291.363 88.2201C291.137 88.2201 290.838 88.2467 290.465 88.3C290.066 88.3598 289.77 88.4164 289.577 88.4696V87.7212C289.803 87.668 290.129 87.6148 290.555 87.5615C290.907 87.515 291.24 87.4917 291.553 87.4917C292.178 87.4917 292.66 87.648 293 87.9607C293.339 88.2667 293.509 88.7158 293.509 89.3078V93H292.78L292.71 92.3214C292.018 92.8071 291.38 93.0499 290.794 93.0499C290.269 93.0499 289.856 92.9069 289.557 92.6208C289.264 92.3347 289.118 91.9522 289.118 91.4732C289.118 90.9543 289.288 90.5519 289.627 90.2658C289.973 89.9797 290.445 89.8367 291.044 89.8367ZM292.65 91.7028V90.4754H291.134C290.761 90.4754 290.475 90.5585 290.275 90.7248C290.083 90.8845 289.986 91.114 289.986 91.4134C289.986 91.7061 290.079 91.9356 290.265 92.1019C290.458 92.2682 290.718 92.3514 291.044 92.3514C291.29 92.3514 291.563 92.2915 291.862 92.1718C292.161 92.0454 292.424 91.889 292.65 91.7028ZM297.488 92.3614C297.973 92.3614 298.502 92.2715 299.074 92.0919V92.8603C298.496 93.0333 297.927 93.1197 297.368 93.1197C297.015 93.1197 296.689 93.0732 296.39 92.98C296.091 92.8869 295.811 92.7372 295.552 92.531C295.299 92.3248 295.096 92.0321 294.943 91.6529C294.797 91.2737 294.724 90.8246 294.724 90.3057C294.724 89.4143 294.94 88.7324 295.372 88.2601C295.865 87.7478 296.53 87.4917 297.368 87.4917C297.947 87.4917 298.516 87.5815 299.074 87.7611V88.5295C298.496 88.3432 297.967 88.2501 297.488 88.2501C296.876 88.2501 296.407 88.4264 296.081 88.779C295.761 89.1315 295.602 89.6405 295.602 90.3057C295.602 90.9843 295.768 91.4965 296.101 91.8425C296.44 92.1884 296.902 92.3614 297.488 92.3614ZM304.875 89.0184V93H304.026V89.1781C304.026 88.892 303.943 88.6692 303.777 88.5095C303.617 88.3432 303.388 88.2601 303.088 88.2601C302.889 88.2601 302.656 88.3033 302.39 88.3898C302.084 88.4896 301.678 88.6725 301.172 88.9386V93H300.324V85.3861H301.172V88.2501C302.077 87.7445 302.796 87.4917 303.328 87.4917C303.833 87.4917 304.216 87.6214 304.475 87.8809C304.742 88.1403 304.875 88.5195 304.875 89.0184Z" fill="black"/>
<g clip-path="url(#clip1_2001_5)">
<path d="M-1 196V211.161C1.32359 211.161 3.04103 212.047 4.75846 212.933C5.16256 213.13 5.56667 213.326 5.86974 213.523C9.70872 215.394 13.4467 215.394 16.7805 213.425C22.2359 210.176 27.3882 210.57 32.6415 213.228C34.0559 213.622 35.4703 214.212 36.7836 214.803C37.5918 215 38.501 215 39.3092 215C41.0267 214.212 42.7441 213.622 44.5626 213.13C50.22 210.176 55.5744 210.865 61.1308 213.917C64.4646 215.788 68.2026 215.394 71.3344 213.523C77.0928 210.078 82.5482 210.767 88.2056 213.72C91.4385 215.492 94.5703 215.394 97.9041 213.622C102.955 210.964 108.31 209.881 113.765 213.031C118.008 215.492 122.352 215.492 126.595 213.031C131.95 209.881 137.203 210.767 142.254 213.425C146.194 215.492 150.033 215.295 153.67 213.228C158.823 210.373 163.672 210.373 168.723 213.228C172.663 215.492 176.906 215.394 180.947 213.228C185.897 210.472 190.747 210.275 195.798 213.13C199.94 215.492 204.385 215.492 208.527 213.031C213.376 210.275 218.226 210.472 223.075 213.13C227.217 215.394 231.359 215.492 235.501 213.13C240.35 210.373 245.301 210.176 250.352 213.13C254.494 215.492 258.737 215.492 262.778 213.13C267.93 210.176 272.779 210.472 277.831 213.13C281.771 215.295 285.812 215.394 289.752 213.13C295.005 210.176 300.157 210.275 305.31 213.228C309.048 215.295 313.089 215.295 316.726 213.228C321.979 210.275 326.929 210.078 332.284 213.13C336.123 215.295 340.265 215.295 344.306 213.13C349.458 210.176 354.408 210.275 359.662 213.13C363.298 215.197 367.137 215.492 371.077 213.13C376.836 209.782 382.594 210.275 388.252 213.326C389.06 213.819 389.868 214.016 390.777 214.212C391.485 214.409 392.293 214.606 393 215V196H-1Z" fill="#27A4DD"/>
</g>
<path d="M-3 200.712C0.9182 199.68 3.35998 201.801 5.85854 203.234C9.66317 205.469 13.411 205.526 16.7614 203.119C22.3263 199.05 27.6642 199.623 33.0588 203.177C36.5227 205.469 40.2138 205.698 43.4505 203.348C49.5266 198.993 55.0916 199.623 60.9973 203.578C64.2908 205.813 68.0387 205.354 71.1619 203.119C76.954 198.878 82.3486 199.738 87.9704 203.406C91.1504 205.526 94.3304 205.412 97.6807 203.234C102.735 200.024 108.016 198.649 113.524 202.546C117.726 205.526 122.098 205.584 126.357 202.603C131.695 198.821 136.919 199.852 141.973 203.062C145.948 205.641 149.696 205.297 153.387 202.833C158.498 199.394 163.325 199.394 168.379 202.89C172.354 205.641 176.556 205.584 180.588 202.833C185.528 199.508 190.355 199.279 195.352 202.718C199.497 205.584 203.87 205.584 208.072 202.603C212.955 199.222 217.725 199.451 222.552 202.718C226.641 205.469 230.843 205.584 234.988 202.718C239.872 199.336 244.755 199.165 249.752 202.661C253.841 205.526 258.157 205.584 262.188 202.718C267.299 199.165 272.183 199.451 277.236 202.775C281.155 205.412 285.243 205.526 289.161 202.775C294.386 199.165 299.496 199.279 304.721 202.89C308.412 205.469 312.443 205.469 316.135 202.89C321.359 199.279 326.356 199.107 331.637 202.775C335.498 205.469 339.644 205.469 343.619 202.718C348.729 199.165 353.727 199.222 358.894 202.775C362.528 205.24 366.39 205.641 370.251 202.833C375.986 198.706 381.779 199.336 387.344 203.119C388.82 204.151 390.467 204.265 392 205.183C390.183 206.1 388.423 205.584 386.776 204.667C383.936 203.005 381.154 201.228 377.576 201.744C375.646 202.03 373.942 202.317 372.295 203.463C367.469 206.845 362.188 206.73 357.19 203.463C353.386 200.941 349.297 200.827 345.493 203.348C340.212 206.787 335.158 206.787 329.877 203.348C326.242 200.999 322.211 200.655 318.463 203.177C313.125 206.787 308.014 206.902 302.676 203.234C298.872 200.597 294.783 200.769 290.979 203.348C285.811 206.787 280.814 206.902 275.646 203.348C271.785 200.655 267.697 200.884 263.949 203.291C258.554 206.787 253.5 206.787 248.105 203.177C244.528 200.769 240.383 200.884 236.862 203.177C231.467 206.673 226.413 206.902 221.076 203.177C217.101 200.425 212.955 200.655 208.923 203.463C204.21 206.787 199.384 206.845 194.614 203.635C190.128 200.597 185.812 200.827 181.439 203.692C176.84 206.673 172.07 206.787 167.584 203.75C162.984 200.655 158.612 200.827 154.125 203.692C149.526 206.673 144.869 206.73 140.327 203.635C135.784 200.54 131.355 200.712 126.868 203.692C122.269 206.73 117.556 206.615 113.013 203.635C108.47 200.655 104.097 200.712 99.5546 203.692C95.0686 206.673 90.4689 206.615 85.9829 203.692C81.44 200.712 77.2379 200.655 72.6383 203.692C68.3226 206.558 63.439 206.845 59.0098 203.807C54.1262 200.425 49.5834 200.827 44.8134 203.864C40.4977 206.615 35.8413 206.673 31.6959 203.75C27.0963 200.483 22.7238 200.712 18.2946 203.463C12.7864 206.902 7.61889 206.443 2.62176 202.546C1.03177 201.686 -1.18286 202.546 -3 200.712Z" fill="white"/>
<path d="M-3 205.712C0.9182 204.68 3.35998 206.801 5.85854 208.234C9.66317 210.469 13.411 210.526 16.7614 208.119C22.3263 204.05 27.6642 204.623 33.0588 208.177C36.5227 210.469 40.2138 210.698 43.4505 208.348C49.5266 203.993 55.0916 204.623 60.9973 208.578C64.2908 210.813 68.0387 210.354 71.1619 208.119C76.954 203.878 82.3486 204.738 87.9704 208.406C91.1504 210.526 94.3304 210.412 97.6807 208.234C102.735 205.024 108.016 203.649 113.524 207.546C117.726 210.526 122.098 210.584 126.357 207.603C131.695 203.821 136.919 204.852 141.973 208.062C145.948 210.641 149.696 210.297 153.387 207.833C158.498 204.394 163.325 204.394 168.379 207.89C172.354 210.641 176.556 210.584 180.588 207.833C185.528 204.508 190.355 204.279 195.352 207.718C199.497 210.584 203.87 210.584 208.072 207.603C212.955 204.222 217.725 204.451 222.552 207.718C226.641 210.469 230.843 210.584 234.988 207.718C239.872 204.336 244.755 204.165 249.752 207.661C253.841 210.526 258.157 210.584 262.188 207.718C267.299 204.165 272.183 204.451 277.236 207.775C281.155 210.412 285.243 210.526 289.161 207.775C294.386 204.165 299.496 204.279 304.721 207.89C308.412 210.469 312.443 210.469 316.135 207.89C321.359 204.279 326.356 204.107 331.637 207.775C335.498 210.469 339.644 210.469 343.619 207.718C348.729 204.165 353.727 204.222 358.894 207.775C362.528 210.24 366.39 210.641 370.251 207.833C375.986 203.706 381.779 204.336 387.344 208.119C388.82 209.151 390.467 209.265 392 210.183C390.183 211.1 388.423 210.584 386.776 209.667C383.936 208.005 381.154 206.228 377.576 206.744C375.646 207.03 373.942 207.317 372.295 208.463C367.469 211.845 362.188 211.73 357.19 208.463C353.386 205.941 349.297 205.827 345.493 208.348C340.212 211.787 335.158 211.787 329.877 208.348C326.242 205.999 322.211 205.655 318.463 208.177C313.125 211.787 308.014 211.902 302.676 208.234C298.872 205.597 294.783 205.769 290.979 208.348C285.811 211.787 280.814 211.902 275.646 208.348C271.785 205.655 267.697 205.884 263.949 208.291C258.554 211.787 253.5 211.787 248.105 208.177C244.528 205.769 240.383 205.884 236.862 208.177C231.467 211.673 226.413 211.902 221.076 208.177C217.101 205.425 212.955 205.655 208.923 208.463C204.21 211.787 199.384 211.845 194.614 208.635C190.128 205.597 185.812 205.827 181.439 208.692C176.84 211.673 172.07 211.787 167.584 208.75C162.984 205.655 158.612 205.827 154.125 208.692C149.526 211.673 144.869 211.73 140.327 208.635C135.784 205.54 131.355 205.712 126.868 208.692C122.269 211.73 117.556 211.615 113.013 208.635C108.47 205.655 104.097 205.712 99.5546 208.692C95.0686 211.673 90.4689 211.615 85.9829 208.692C81.44 205.712 77.2379 205.655 72.6383 208.692C68.3226 211.558 63.439 211.845 59.0098 208.807C54.1262 205.425 49.5834 205.827 44.8134 208.864C40.4977 211.615 35.8413 211.673 31.6959 208.75C27.0963 205.483 22.7238 205.712 18.2946 208.463C12.7864 211.902 7.61889 211.443 2.62176 207.546C1.03177 206.686 -1.18286 207.546 -3 205.712Z" fill="white"/>
<path d="M-3 210.712C0.9182 209.68 3.35998 211.801 5.85854 213.234C9.66317 215.469 13.411 215.526 16.7614 213.119C22.3263 209.05 27.6642 209.623 33.0588 213.177C36.5227 215.469 40.2138 215.698 43.4505 213.348C49.5266 208.993 55.0916 209.623 60.9973 213.578C64.2908 215.813 68.0387 215.354 71.1619 213.119C76.954 208.878 82.3486 209.738 87.9704 213.406C91.1504 215.526 94.3304 215.412 97.6807 213.234C102.735 210.024 108.016 208.649 113.524 212.546C117.726 215.526 122.098 215.584 126.357 212.603C131.695 208.821 136.919 209.852 141.973 213.062C145.948 215.641 149.696 215.297 153.387 212.833C158.498 209.394 163.325 209.394 168.379 212.89C172.354 215.641 176.556 215.584 180.588 212.833C185.528 209.508 190.355 209.279 195.352 212.718C199.497 215.584 203.87 215.584 208.072 212.603C212.955 209.222 217.725 209.451 222.552 212.718C226.641 215.469 230.843 215.584 234.988 212.718C239.872 209.336 244.755 209.165 249.752 212.661C253.841 215.526 258.157 215.584 262.188 212.718C267.299 209.165 272.183 209.451 277.236 212.775C281.155 215.412 285.243 215.526 289.161 212.775C294.386 209.165 299.496 209.279 304.721 212.89C308.412 215.469 312.443 215.469 316.135 212.89C321.359 209.279 326.356 209.107 331.637 212.775C335.498 215.469 339.644 215.469 343.619 212.718C348.729 209.165 353.727 209.222 358.894 212.775C362.528 215.24 366.39 215.641 370.251 212.833C375.986 208.706 381.779 209.336 387.344 213.119C388.82 214.151 390.467 214.265 392 215.183C390.183 216.1 388.423 215.584 386.776 214.667C383.936 213.005 381.154 211.228 377.576 211.744C375.646 212.03 373.942 212.317 372.295 213.463C367.469 216.845 362.188 216.73 357.19 213.463C353.386 210.941 349.297 210.827 345.493 213.348C340.212 216.787 335.158 216.787 329.877 213.348C326.242 210.999 322.211 210.655 318.463 213.177C313.125 216.787 308.014 216.902 302.676 213.234C298.872 210.597 294.783 210.769 290.979 213.348C285.811 216.787 280.814 216.902 275.646 213.348C271.785 210.655 267.697 210.884 263.949 213.291C258.554 216.787 253.5 216.787 248.105 213.177C244.528 210.769 240.383 210.884 236.862 213.177C231.467 216.673 226.413 216.902 221.076 213.177C217.101 210.425 212.955 210.655 208.923 213.463C204.21 216.787 199.384 216.845 194.614 213.635C190.128 210.597 185.812 210.827 181.439 213.692C176.84 216.673 172.07 216.787 167.584 213.75C162.984 210.655 158.612 210.827 154.125 213.692C149.526 216.673 144.869 216.73 140.327 213.635C135.784 210.54 131.355 210.712 126.868 213.692C122.269 216.73 117.556 216.615 113.013 213.635C108.47 210.655 104.097 210.712 99.5546 213.692C95.0686 216.673 90.4689 216.615 85.9829 213.692C81.44 210.712 77.2379 210.655 72.6383 213.692C68.3226 216.558 63.439 216.845 59.0098 213.807C54.1262 210.425 49.5834 210.827 44.8134 213.864C40.4977 216.615 35.8413 216.673 31.6959 213.75C27.0963 210.483 22.7238 210.712 18.2946 213.463C12.7864 216.902 7.61889 216.443 2.62176 212.546C1.03177 211.686 -1.18286 212.546 -3 210.712Z" fill="white"/>
<defs>
<clipPath id="clip0_2001_5">
<rect width="102" height="69.3001" fill="white" transform="translate(73)"/>
</clipPath>
<clipPath id="clip1_2001_5">
<rect width="394" height="19" fill="white" transform="translate(-1 196)"/>
</clipPath>
</defs>
</svg>
