<svg width="326" height="41" viewBox="0 0 326 41" fill="none" xmlns="http://www.w3.org/2000/svg">
<path d="M91.424 18.208H88.832V22H87.424V10.48H91.376C92.3893 10.48 93.2373 10.8053 93.92 11.456C94.2933 11.7973 94.576 12.2293 94.768 12.752C94.9707 13.2747 95.072 13.808 95.072 14.352C95.072 15.408 94.7413 16.3147 94.08 17.072C93.4187 17.8293 92.5333 18.208 91.424 18.208ZM91.232 11.728H88.832V16.96H91.232C91.9893 16.96 92.576 16.6987 92.992 16.176C93.408 15.6533 93.616 15.0453 93.616 14.352C93.616 13.84 93.504 13.3653 93.28 12.928C92.8747 12.128 92.192 11.728 91.232 11.728ZM99.196 16.928H101.772V16C101.772 14.8907 101.084 14.336 99.708 14.336C99.3453 14.336 98.8653 14.3787 98.268 14.464C97.628 14.56 97.1533 14.6507 96.844 14.736V13.536C97.2067 13.4507 97.7293 13.3653 98.412 13.28C98.9773 13.2053 99.5107 13.168 100.012 13.168C101.015 13.168 101.788 13.4187 102.332 13.92C102.876 14.4107 103.148 15.1307 103.148 16.08V22H101.98L101.868 20.912C100.759 21.6907 99.7347 22.08 98.796 22.08C97.9533 22.08 97.292 21.8507 96.812 21.392C96.3427 20.9333 96.108 20.32 96.108 19.552C96.108 18.72 96.38 18.0747 96.924 17.616C97.4787 17.1573 98.236 16.928 99.196 16.928ZM101.772 19.92V17.952H99.34C98.7427 17.952 98.284 18.0853 97.964 18.352C97.6547 18.608 97.5 18.976 97.5 19.456C97.5 19.9253 97.6493 20.2933 97.948 20.56C98.2573 20.8267 98.6733 20.96 99.196 20.96C99.5907 20.96 100.028 20.864 100.508 20.672C100.988 20.4693 101.409 20.2187 101.772 19.92ZM110.344 13.296V14.72C109.896 14.784 109.459 14.9013 109.032 15.072C108.573 15.2427 107.875 15.5787 106.936 16.08V22H105.576V13.36H106.888V14.912L107.704 14.384C108.707 13.7227 109.587 13.36 110.344 13.296ZM113.617 11.456V13.36H116.385V14.544H113.617V19.968C113.617 20.2667 113.708 20.5067 113.889 20.688C114.081 20.8693 114.364 20.96 114.737 20.96C115.143 20.96 115.585 20.8853 116.065 20.736V21.936C115.201 22.096 114.545 22.176 114.097 22.176C113.447 22.176 112.972 22.0213 112.673 21.712C112.385 21.4027 112.241 20.928 112.241 20.288V14.544H111.025V13.68L111.313 13.36H112.241V12.304L113.057 11.456H113.617ZM125.153 15.632V22H123.793V15.872C123.793 15.4027 123.665 15.04 123.409 14.784C123.153 14.528 122.78 14.4 122.289 14.4C121.532 14.4 120.508 14.768 119.217 15.504V22H117.857V13.36H119.137V14.416C120.588 13.584 121.767 13.168 122.673 13.168C123.484 13.168 124.097 13.3813 124.513 13.808C124.94 14.224 125.153 14.832 125.153 15.632ZM134.584 20.416V21.632C133.464 22.0053 132.376 22.192 131.32 22.192C129.922 22.192 128.872 21.824 128.168 21.088C127.474 20.352 127.128 19.2107 127.128 17.664C127.128 16.2027 127.469 15.088 128.152 14.32C128.834 13.552 129.821 13.168 131.112 13.168C132.338 13.168 133.256 13.5147 133.864 14.208C134.472 14.9013 134.776 15.9627 134.776 17.392V18.048H128.536C128.546 20 129.57 20.976 131.608 20.976C132.546 20.976 133.538 20.7893 134.584 20.416ZM128.52 17.024H133.368C133.368 15.2 132.594 14.288 131.048 14.288C130.376 14.2453 129.778 14.4693 129.256 14.96C128.744 15.4507 128.498 16.1387 128.52 17.024ZM141.579 13.296V14.72C141.131 14.784 140.693 14.9013 140.266 15.072C139.808 15.2427 139.109 15.5787 138.171 16.08V22H136.811V13.36H138.123V14.912L138.939 14.384C139.941 13.7227 140.821 13.36 141.579 13.296ZM145.54 21.008C146.884 21.008 147.556 20.512 147.556 19.52C147.513 19.0507 147.358 18.736 147.092 18.576C146.836 18.416 146.292 18.2773 145.46 18.16C144.404 18.0213 143.678 17.7653 143.284 17.392C142.9 17.008 142.686 16.448 142.644 15.712C142.644 14.016 143.79 13.168 146.084 13.168C146.841 13.168 147.641 13.2373 148.484 13.376V14.608C147.524 14.448 146.772 14.368 146.228 14.368C144.777 14.368 144.052 14.7947 144.052 15.648C144.052 15.8293 144.073 15.9893 144.116 16.128C144.169 16.256 144.26 16.368 144.388 16.464C144.516 16.5493 144.617 16.6187 144.692 16.672C144.777 16.7253 144.932 16.7787 145.156 16.832C145.38 16.8747 145.524 16.9013 145.588 16.912C145.662 16.9227 145.833 16.944 146.1 16.976C146.91 17.0933 147.492 17.2427 147.844 17.424C148.59 17.7973 148.964 18.4747 148.964 19.456C148.964 20.3307 148.676 21.008 148.1 21.488C147.534 21.9573 146.708 22.192 145.62 22.192C144.788 22.192 143.812 22.1333 142.692 22.016V20.752C143.822 20.9227 144.772 21.008 145.54 21.008ZM157.446 16.928H160.022V16C160.022 14.8907 159.334 14.336 157.958 14.336C157.595 14.336 157.115 14.3787 156.518 14.464C155.878 14.56 155.403 14.6507 155.094 14.736V13.536C155.457 13.4507 155.979 13.3653 156.662 13.28C157.227 13.2053 157.761 13.168 158.262 13.168C159.265 13.168 160.038 13.4187 160.582 13.92C161.126 14.4107 161.398 15.1307 161.398 16.08V22H160.23L160.118 20.912C159.009 21.6907 157.985 22.08 157.046 22.08C156.203 22.08 155.542 21.8507 155.062 21.392C154.593 20.9333 154.358 20.32 154.358 19.552C154.358 18.72 154.63 18.0747 155.174 17.616C155.729 17.1573 156.486 16.928 157.446 16.928ZM160.022 19.92V17.952H157.59C156.993 17.952 156.534 18.0853 156.214 18.352C155.905 18.608 155.75 18.976 155.75 19.456C155.75 19.9253 155.899 20.2933 156.198 20.56C156.507 20.8267 156.923 20.96 157.446 20.96C157.841 20.96 158.278 20.864 158.758 20.672C159.238 20.4693 159.659 20.2187 160.022 19.92ZM171.122 15.632V22H169.762V15.872C169.762 15.4027 169.634 15.04 169.378 14.784C169.122 14.528 168.749 14.4 168.258 14.4C167.501 14.4 166.477 14.768 165.186 15.504V22H163.826V13.36H165.106V14.416C166.557 13.584 167.735 13.168 168.642 13.168C169.453 13.168 170.066 13.3813 170.482 13.808C170.909 14.224 171.122 14.832 171.122 15.632ZM173.113 17.872C173.113 14.736 174.526 13.168 177.353 13.168C177.929 13.168 178.617 13.248 179.417 13.408V9.792H180.777V22H179.657L179.513 21.168C178.425 21.84 177.385 22.176 176.393 22.176C175.347 22.176 174.537 21.808 173.961 21.072C173.395 20.336 173.113 19.2693 173.113 17.872ZM174.521 17.808C174.521 19.9307 175.251 20.992 176.713 20.992C177.502 20.992 178.403 20.672 179.417 20.032V14.576C178.67 14.4267 178.014 14.352 177.449 14.352C176.446 14.352 175.705 14.6347 175.225 15.2C174.755 15.7547 174.521 16.624 174.521 17.808ZM190.22 20.944C192.108 20.944 193.052 20.1813 193.052 18.656C193.052 18.2933 192.978 17.9893 192.828 17.744C192.69 17.5093 192.46 17.3067 192.14 17.136C191.82 16.9653 191.186 16.8107 190.236 16.672C188.956 16.48 188.087 16.1173 187.628 15.584C187.18 15.0613 186.956 14.3733 186.956 13.52C186.956 11.376 188.375 10.304 191.212 10.304C191.842 10.304 192.754 10.3627 193.948 10.48V11.776C192.978 11.616 192.066 11.536 191.212 11.536C190.242 11.536 189.532 11.696 189.084 12.016C188.647 12.3253 188.428 12.816 188.428 13.488C188.428 13.7547 188.476 14.016 188.572 14.272C188.69 14.528 188.898 14.752 189.196 14.944C189.516 15.1253 190.098 15.2853 190.94 15.424C191.836 15.5733 192.471 15.7227 192.844 15.872C193.25 16.032 193.57 16.24 193.804 16.496C194.284 16.9867 194.524 17.696 194.524 18.624C194.524 19.776 194.156 20.6613 193.42 21.28C192.695 21.888 191.66 22.192 190.316 22.192C189.271 22.192 188.199 22.096 187.1 21.904V20.592C188.38 20.8267 189.42 20.944 190.22 20.944ZM197.811 21.872V25.28H196.451V13.36H197.811V14.352C198.92 13.5627 199.992 13.168 201.027 13.168C201.998 13.168 202.755 13.552 203.299 14.32C203.854 15.0773 204.131 16.128 204.131 17.472C204.131 20.5973 202.771 22.16 200.051 22.16C199.475 22.16 198.728 22.064 197.811 21.872ZM202.723 17.552C202.723 16.5067 202.536 15.7173 202.163 15.184C201.8 14.6507 201.288 14.384 200.627 14.384C199.784 14.384 198.846 14.7413 197.811 15.456V20.704C198.686 20.9067 199.39 21.008 199.923 21.008C201.79 21.008 202.723 19.856 202.723 17.552ZM205.69 17.68C205.69 16.3573 206.047 15.2747 206.762 14.432C207.477 13.5893 208.538 13.168 209.946 13.168C211.183 13.168 212.202 13.5413 213.002 14.288C213.802 15.024 214.202 16.1547 214.202 17.68C214.202 19.0027 213.845 20.0853 213.13 20.928C212.415 21.7707 211.354 22.192 209.946 22.192C208.709 22.192 207.69 21.824 206.89 21.088C206.09 20.3413 205.69 19.2053 205.69 17.68ZM212.794 17.68C212.826 16.688 212.581 15.8827 212.058 15.264C211.546 14.6347 210.837 14.336 209.93 14.368C209.002 14.368 208.298 14.656 207.818 15.232C207.338 15.808 207.098 16.624 207.098 17.68C207.066 18.672 207.306 19.4827 207.818 20.112C208.341 20.7413 209.055 21.0347 209.962 20.992C210.89 20.992 211.594 20.704 212.074 20.128C212.554 19.552 212.794 18.736 212.794 17.68ZM223.513 15.632V22H222.153V15.872C222.153 15.4027 222.025 15.04 221.769 14.784C221.513 14.528 221.139 14.4 220.649 14.4C219.891 14.4 218.867 14.768 217.577 15.504V22H216.217V13.36H217.497V14.416C218.947 13.584 220.126 13.168 221.033 13.168C221.843 13.168 222.457 13.3813 222.873 13.808C223.299 14.224 223.513 14.832 223.513 15.632ZM228.399 21.008C229.743 21.008 230.415 20.512 230.415 19.52C230.372 19.0507 230.218 18.736 229.951 18.576C229.695 18.416 229.151 18.2773 228.319 18.16C227.263 18.0213 226.538 17.7653 226.143 17.392C225.759 17.008 225.546 16.448 225.503 15.712C225.503 14.016 226.65 13.168 228.943 13.168C229.7 13.168 230.5 13.2373 231.343 13.376V14.608C230.383 14.448 229.631 14.368 229.087 14.368C227.636 14.368 226.911 14.7947 226.911 15.648C226.911 15.8293 226.932 15.9893 226.975 16.128C227.028 16.256 227.119 16.368 227.247 16.464C227.375 16.5493 227.476 16.6187 227.551 16.672C227.636 16.7253 227.791 16.7787 228.015 16.832C228.239 16.8747 228.383 16.9013 228.447 16.912C228.522 16.9227 228.692 16.944 228.959 16.976C229.77 17.0933 230.351 17.2427 230.703 17.424C231.45 17.7973 231.823 18.4747 231.823 19.456C231.823 20.3307 231.535 21.008 230.959 21.488C230.394 21.9573 229.567 22.192 228.479 22.192C227.647 22.192 226.671 22.1333 225.551 22.016V20.752C226.682 20.9227 227.631 21.008 228.399 21.008ZM233.252 17.68C233.252 16.3573 233.61 15.2747 234.324 14.432C235.039 13.5893 236.1 13.168 237.508 13.168C238.746 13.168 239.764 13.5413 240.564 14.288C241.364 15.024 241.764 16.1547 241.764 17.68C241.764 19.0027 241.407 20.0853 240.692 20.928C239.978 21.7707 238.916 22.192 237.508 22.192C236.271 22.192 235.252 21.824 234.452 21.088C233.652 20.3413 233.252 19.2053 233.252 17.68ZM240.356 17.68C240.388 16.688 240.143 15.8827 239.62 15.264C239.108 14.6347 238.399 14.336 237.492 14.368C236.564 14.368 235.86 14.656 235.38 15.232C234.9 15.808 234.66 16.624 234.66 17.68C234.628 18.672 234.868 19.4827 235.38 20.112C235.903 20.7413 236.618 21.0347 237.524 20.992C238.452 20.992 239.156 20.704 239.636 20.128C240.116 19.552 240.356 18.736 240.356 17.68ZM248.547 13.296V14.72C248.099 14.784 247.662 14.9013 247.235 15.072C246.777 15.2427 246.078 15.5787 245.139 16.08V22H243.779V13.36H245.091V14.912L245.907 14.384C246.91 13.7227 247.79 13.36 248.547 13.296ZM252.509 21.008C253.853 21.008 254.525 20.512 254.525 19.52C254.482 19.0507 254.327 18.736 254.061 18.576C253.805 18.416 253.261 18.2773 252.429 18.16C251.373 18.0213 250.647 17.7653 250.253 17.392C249.869 17.008 249.655 16.448 249.613 15.712C249.613 14.016 250.759 13.168 253.053 13.168C253.81 13.168 254.61 13.2373 255.453 13.376V14.608C254.493 14.448 253.741 14.368 253.197 14.368C251.746 14.368 251.021 14.7947 251.021 15.648C251.021 15.8293 251.042 15.9893 251.085 16.128C251.138 16.256 251.229 16.368 251.357 16.464C251.485 16.5493 251.586 16.6187 251.661 16.672C251.746 16.7253 251.901 16.7787 252.125 16.832C252.349 16.8747 252.493 16.9013 252.557 16.912C252.631 16.9227 252.802 16.944 253.069 16.976C253.879 17.0933 254.461 17.2427 254.813 17.424C255.559 17.7973 255.933 18.4747 255.933 19.456C255.933 20.3307 255.645 21.008 255.069 21.488C254.503 21.9573 253.677 22.192 252.589 22.192C251.757 22.192 250.781 22.1333 249.661 22.016V20.752C250.791 20.9227 251.741 21.008 252.509 21.008Z" fill="#1B1C3D"/>
<path d="M165.252 2C163.777 2 162.993 1.57692 162.256 1.19231C161.564 0.807692 160.873 0.423077 159.536 0.423077C158.199 0.423077 157.508 0.807692 156.816 1.19231C156.079 1.61538 155.341 2 153.82 2C152.299 2 151.562 1.57692 150.824 1.19231C150.133 0.807692 149.441 0.423077 148.104 0.423077C146.768 0.423077 146.076 0.807692 145.385 1.19231C144.647 1.61538 143.91 2 142.389 2C140.913 2 140.13 1.57692 139.392 1.19231C138.701 0.807692 138.009 0.423077 136.673 0.423077C135.336 0.423077 134.645 0.807692 133.953 1.19231C133.216 1.61538 132.478 2 130.957 2C129.482 2 128.698 1.57692 127.961 1.19231C127.269 0.807692 126.578 0.423077 125.241 0.423077C123.904 0.423077 123.213 0.807692 122.521 1.19231C121.784 1.61538 121.046 2 119.525 2C118.004 2 117.267 1.57692 116.529 1.19231C115.838 0.807692 115.146 0.423077 113.809 0.423077C112.473 0.423077 111.781 0.807692 111.09 1.19231C110.352 1.61538 109.615 2 108.094 2C106.619 2 105.835 1.57692 105.097 1.19231C104.406 0.807692 103.715 0.423077 102.378 0.423077C101.041 0.423077 100.35 0.807692 99.6581 1.19231C98.9206 1.61538 98.1831 2 96.6619 2C95.1408 2 94.4033 1.57692 93.6657 1.19231C92.9743 0.807692 92.2829 0.423077 90.9461 0.423077C89.6094 0.423077 88.9179 0.807692 88.2265 1.19231C87.489 1.61538 86.7514 2 85.2303 2C83.7552 2 82.9716 1.57692 82.2341 1.19231C81.5427 0.807692 80.8512 0.423077 79.5145 0.423077C78.1777 0.423077 77.4863 0.807692 76.7948 1.19231C76.0573 1.61538 75.3198 2 73.7987 2C72.3236 2 71.54 1.57692 70.8025 1.19231C70.111 0.807692 69.4196 0.423077 68.0828 0.423077C66.7461 0.423077 66.0546 0.807692 65.3632 1.19231C64.6257 1.61538 63.8882 2 62.367 2C60.8459 2 60.1083 1.57692 59.3708 1.19231C58.6794 0.807692 57.9879 0.423077 56.6512 0.423077C55.3144 0.423077 54.623 0.807692 53.9316 1.19231C53.194 1.61538 52.4565 2 50.9354 2C49.4603 2 48.6767 1.57692 47.9392 1.19231C47.2477 0.807692 46.5563 0.423077 45.2195 0.423077C43.8828 0.423077 43.1913 0.807692 42.4999 1.19231C41.7624 1.61538 41.0249 2 39.5037 2C38.0287 2 37.245 1.57692 36.5075 1.19231C35.8161 0.807692 35.1247 0.423077 33.7879 0.423077C32.4511 0.423077 31.7597 0.807692 31.0683 1.19231C30.3307 1.61538 29.5932 2 28.0721 2C26.597 2 25.8134 1.57692 25.0759 1.19231C24.3844 0.807692 23.693 0.423077 22.3562 0.423077C21.0195 0.423077 20.328 0.807692 19.6366 1.19231C18.8991 1.61538 18.1616 2 16.6404 2C15.1654 2 14.3817 1.57692 13.6442 1.19231C12.9528 0.807692 12.2614 0.423077 10.9246 0.423077C9.58783 0.423077 8.8964 0.807692 8.20497 1.19231C7.46745 1.61538 6.72992 2 5.20877 2C4.19468 2 3.45715 1.57692 2.71963 1.15385C2.0282 0.769231 1.33677 0.384615 0 0.384615V0C1.47505 0 2.25867 0.423077 2.9962 0.807692C3.68763 1.19231 4.37906 1.57692 5.71582 1.57692C7.05259 1.57692 7.74402 1.19231 8.43545 0.807692C9.12688 0.423077 9.9105 0 11.3856 0C12.8606 0 13.6442 0.423077 14.3817 0.807692C15.0732 1.19231 15.7646 1.57692 17.1014 1.57692C18.4381 1.57692 19.1296 1.19231 19.821 0.807692C20.5585 0.423077 21.2961 0 22.7711 0C24.2462 0 25.0298 0.423077 25.7673 0.807692C26.4587 1.19231 27.1502 1.57692 28.4869 1.57692C29.8237 1.57692 30.5151 1.19231 31.2065 0.807692C31.9441 0.423077 32.6816 0 34.2027 0C35.6778 0 36.4614 0.423077 37.1989 0.807692C37.8904 1.19231 38.5818 1.57692 39.9186 1.57692C41.2553 1.57692 41.9468 1.19231 42.6382 0.807692C43.3296 0.423077 44.0672 0 45.5883 0C47.0633 0 47.847 0.423077 48.5845 0.807692C49.2759 1.19231 49.9674 1.57692 51.3041 1.57692C52.6409 1.57692 53.3323 1.19231 54.0237 0.807692C54.7613 0.384615 55.4988 0 57.0199 0C58.495 0 59.2786 0.423077 60.0161 0.807692C60.7076 1.19231 61.399 1.57692 62.7358 1.57692C64.0725 1.57692 64.764 1.19231 65.4554 0.807692C66.1929 0.384615 66.9304 0 68.4516 0C69.9266 0 70.7103 0.423077 71.4478 0.807692C72.1392 1.19231 72.8306 1.57692 74.1674 1.57692C75.5042 1.57692 76.1956 1.19231 76.887 0.807692C77.6246 0.384615 78.3621 0 79.8832 0C81.4044 0 82.1419 0.423077 82.8794 0.807692C83.5709 1.19231 84.2623 1.57692 85.5991 1.57692C86.9358 1.57692 87.6272 1.19231 88.3187 0.807692C89.0562 0.384615 89.7937 0 91.3149 0C92.7899 0 93.5736 0.423077 94.3111 0.807692C95.0025 1.19231 95.6939 1.57692 97.0307 1.57692C98.3675 1.57692 99.0589 1.19231 99.7503 0.807692C100.488 0.384615 101.225 0 102.747 0C104.222 0 105.005 0.423077 105.743 0.807692C106.434 1.19231 107.126 1.57692 108.462 1.57692C109.799 1.57692 110.491 1.19231 111.182 0.807692C111.92 0.384615 112.657 0 114.178 0C115.653 0 116.437 0.423077 117.174 0.807692C117.866 1.19231 118.557 1.57692 119.894 1.57692C121.231 1.57692 121.922 1.19231 122.614 0.807692C123.351 0.384615 124.089 0 125.61 0C127.085 0 127.868 0.423077 128.606 0.807692C129.297 1.19231 129.989 1.57692 131.326 1.57692C132.662 1.57692 133.354 1.19231 134.045 0.807692C134.783 0.384615 135.52 0 137.041 0C138.516 0 139.3 0.423077 140.038 0.807692C140.729 1.19231 141.421 1.57692 142.757 1.57692C144.094 1.57692 144.785 1.19231 145.477 0.807692C146.214 0.384615 146.952 0 148.473 0C149.948 0 150.732 0.423077 151.469 0.807692C152.161 1.19231 152.852 1.57692 154.189 1.57692C155.526 1.57692 156.217 1.19231 156.909 0.807692C157.646 0.384615 158.384 0 159.905 0C161.38 0 162.163 0.423077 162.901 0.807692C163.592 1.19231 164.284 1.57692 165.621 1.57692V2H165.252Z" fill="#5D5D5D"/>
<path d="M325.631 2C324.156 2 323.373 1.57692 322.635 1.19231C321.944 0.807692 321.252 0.423077 319.915 0.423077C318.579 0.423077 317.887 0.807692 317.196 1.19231C316.458 1.61538 315.721 2 314.2 2C312.678 2 311.941 1.57692 311.203 1.19231C310.512 0.807692 309.821 0.423077 308.484 0.423077C307.147 0.423077 306.456 0.807692 305.764 1.19231C305.027 1.61538 304.289 2 302.768 2C301.293 2 300.509 1.57692 299.772 1.19231C299.08 0.807692 298.389 0.423077 297.052 0.423077C295.715 0.423077 295.024 0.807692 294.333 1.19231C293.595 1.61538 292.857 2 291.336 2C289.861 2 289.078 1.57692 288.34 1.19231C287.649 0.807692 286.957 0.423077 285.62 0.423077C284.284 0.423077 283.592 0.807692 282.901 1.19231C282.163 1.61538 281.426 2 279.905 2C278.383 2 277.646 1.57692 276.908 1.19231C276.217 0.807692 275.526 0.423077 274.189 0.423077C272.852 0.423077 272.161 0.807692 271.469 1.19231C270.732 1.61538 269.994 2 268.473 2C266.998 2 266.214 1.57692 265.477 1.19231C264.785 0.807692 264.094 0.423077 262.757 0.423077C261.42 0.423077 260.729 0.807692 260.038 1.19231C259.3 1.61538 258.562 2 257.041 2C255.52 2 254.783 1.57692 254.045 1.19231C253.354 0.807692 252.662 0.423077 251.326 0.423077C249.989 0.423077 249.297 0.807692 248.606 1.19231C247.868 1.61538 247.131 2 245.61 2C244.135 2 243.351 1.57692 242.614 1.19231C241.922 0.807692 241.231 0.423077 239.894 0.423077C238.557 0.423077 237.866 0.807692 237.174 1.19231C236.437 1.61538 235.699 2 234.178 2C232.703 2 231.919 1.57692 231.182 1.19231C230.49 0.807692 229.799 0.423077 228.462 0.423077C227.125 0.423077 226.434 0.807692 225.743 1.19231C225.005 1.61538 224.268 2 222.746 2C221.225 2 220.488 1.57692 219.75 1.19231C219.059 0.807692 218.367 0.423077 217.031 0.423077C215.694 0.423077 215.002 0.807692 214.311 1.19231C213.573 1.61538 212.836 2 211.315 2C209.84 2 209.056 1.57692 208.319 1.19231C207.627 0.807692 206.936 0.423077 205.599 0.423077C204.262 0.423077 203.571 0.807692 202.879 1.19231C202.142 1.61538 201.404 2 199.883 2C198.408 2 197.624 1.57692 196.887 1.19231C196.196 0.807692 195.504 0.423077 194.167 0.423077C192.831 0.423077 192.139 0.807692 191.448 1.19231C190.71 1.61538 189.973 2 188.451 2C186.976 2 186.193 1.57692 185.455 1.19231C184.764 0.807692 184.072 0.423077 182.736 0.423077C181.399 0.423077 180.707 0.807692 180.016 1.19231C179.279 1.61538 178.541 2 177.02 2C175.545 2 174.761 1.57692 174.024 1.19231C173.332 0.807692 172.641 0.423077 171.304 0.423077C169.967 0.423077 169.276 0.807692 168.584 1.19231C167.847 1.61538 167.109 2 165.588 2C164.574 2 163.837 1.57692 163.099 1.15385C162.408 0.769231 161.716 0.384615 160.379 0.384615V0C161.854 0 162.638 0.423077 163.376 0.807692C164.067 1.19231 164.758 1.57692 166.095 1.57692C167.432 1.57692 168.123 1.19231 168.815 0.807692C169.506 0.423077 170.29 0 171.765 0C173.24 0 174.024 0.423077 174.761 0.807692C175.453 1.19231 176.144 1.57692 177.481 1.57692C178.818 1.57692 179.509 1.19231 180.2 0.807692C180.938 0.423077 181.675 0 183.151 0C184.626 0 185.409 0.423077 186.147 0.807692C186.838 1.19231 187.53 1.57692 188.866 1.57692C190.203 1.57692 190.895 1.19231 191.586 0.807692C192.323 0.423077 193.061 0 194.582 0C196.057 0 196.841 0.423077 197.578 0.807692C198.27 1.19231 198.961 1.57692 200.298 1.57692C201.635 1.57692 202.326 1.19231 203.018 0.807692C203.709 0.423077 204.447 0 205.968 0C207.443 0 208.226 0.423077 208.964 0.807692C209.655 1.19231 210.347 1.57692 211.684 1.57692C213.02 1.57692 213.712 1.19231 214.403 0.807692C215.141 0.384615 215.878 0 217.399 0C218.874 0 219.658 0.423077 220.396 0.807692C221.087 1.19231 221.778 1.57692 223.115 1.57692C224.452 1.57692 225.143 1.19231 225.835 0.807692C226.572 0.384615 227.31 0 228.831 0C230.306 0 231.09 0.423077 231.827 0.807692C232.519 1.19231 233.21 1.57692 234.547 1.57692C235.884 1.57692 236.575 1.19231 237.266 0.807692C238.004 0.384615 238.742 0 240.263 0C241.784 0 242.521 0.423077 243.259 0.807692C243.95 1.19231 244.642 1.57692 245.978 1.57692C247.315 1.57692 248.007 1.19231 248.698 0.807692C249.436 0.384615 250.173 0 251.694 0C253.169 0 253.953 0.423077 254.69 0.807692C255.382 1.19231 256.073 1.57692 257.41 1.57692C258.747 1.57692 259.438 1.19231 260.13 0.807692C260.867 0.384615 261.605 0 263.126 0C264.601 0 265.385 0.423077 266.122 0.807692C266.814 1.19231 267.505 1.57692 268.842 1.57692C270.179 1.57692 270.87 1.19231 271.561 0.807692C272.299 0.384615 273.036 0 274.558 0C276.033 0 276.816 0.423077 277.554 0.807692C278.245 1.19231 278.937 1.57692 280.273 1.57692C281.61 1.57692 282.302 1.19231 282.993 0.807692C283.731 0.384615 284.468 0 285.989 0C287.464 0 288.248 0.423077 288.985 0.807692C289.677 1.19231 290.368 1.57692 291.705 1.57692C293.042 1.57692 293.733 1.19231 294.425 0.807692C295.162 0.384615 295.9 0 297.421 0C298.896 0 299.68 0.423077 300.417 0.807692C301.108 1.19231 301.8 1.57692 303.137 1.57692C304.473 1.57692 305.165 1.19231 305.856 0.807692C306.594 0.384615 307.331 0 308.853 0C310.328 0 311.111 0.423077 311.849 0.807692C312.54 1.19231 313.232 1.57692 314.568 1.57692C315.905 1.57692 316.597 1.19231 317.288 0.807692C318.025 0.384615 318.763 0 320.284 0C321.759 0 322.543 0.423077 323.28 0.807692C323.972 1.19231 324.663 1.57692 326 1.57692V2H325.631Z" fill="#5D5D5D"/>
<path d="M165.252 34C163.777 34 162.993 33.5769 162.256 33.1923C161.564 32.8077 160.873 32.4231 159.536 32.4231C158.199 32.4231 157.508 32.8077 156.816 33.1923C156.079 33.6154 155.341 34 153.82 34C152.299 34 151.562 33.5769 150.824 33.1923C150.133 32.8077 149.441 32.4231 148.104 32.4231C146.768 32.4231 146.076 32.8077 145.385 33.1923C144.647 33.6154 143.91 34 142.389 34C140.913 34 140.13 33.5769 139.392 33.1923C138.701 32.8077 138.009 32.4231 136.673 32.4231C135.336 32.4231 134.645 32.8077 133.953 33.1923C133.216 33.6154 132.478 34 130.957 34C129.482 34 128.698 33.5769 127.961 33.1923C127.269 32.8077 126.578 32.4231 125.241 32.4231C123.904 32.4231 123.213 32.8077 122.521 33.1923C121.784 33.6154 121.046 34 119.525 34C118.004 34 117.267 33.5769 116.529 33.1923C115.838 32.8077 115.146 32.4231 113.809 32.4231C112.473 32.4231 111.781 32.8077 111.09 33.1923C110.352 33.6154 109.615 34 108.094 34C106.619 34 105.835 33.5769 105.097 33.1923C104.406 32.8077 103.715 32.4231 102.378 32.4231C101.041 32.4231 100.35 32.8077 99.6581 33.1923C98.9206 33.6154 98.1831 34 96.6619 34C95.1408 34 94.4033 33.5769 93.6657 33.1923C92.9743 32.8077 92.2829 32.4231 90.9461 32.4231C89.6094 32.4231 88.9179 32.8077 88.2265 33.1923C87.489 33.6154 86.7514 34 85.2303 34C83.7552 34 82.9716 33.5769 82.2341 33.1923C81.5427 32.8077 80.8512 32.4231 79.5145 32.4231C78.1777 32.4231 77.4863 32.8077 76.7948 33.1923C76.0573 33.6154 75.3198 34 73.7987 34C72.3236 34 71.54 33.5769 70.8025 33.1923C70.111 32.8077 69.4196 32.4231 68.0828 32.4231C66.7461 32.4231 66.0546 32.8077 65.3632 33.1923C64.6257 33.6154 63.8882 34 62.367 34C60.8459 34 60.1083 33.5769 59.3708 33.1923C58.6794 32.8077 57.9879 32.4231 56.6512 32.4231C55.3144 32.4231 54.623 32.8077 53.9316 33.1923C53.194 33.6154 52.4565 34 50.9354 34C49.4603 34 48.6767 33.5769 47.9392 33.1923C47.2477 32.8077 46.5563 32.4231 45.2195 32.4231C43.8828 32.4231 43.1913 32.8077 42.4999 33.1923C41.7624 33.6154 41.0249 34 39.5037 34C38.0287 34 37.245 33.5769 36.5075 33.1923C35.8161 32.8077 35.1247 32.4231 33.7879 32.4231C32.4511 32.4231 31.7597 32.8077 31.0683 33.1923C30.3307 33.6154 29.5932 34 28.0721 34C26.597 34 25.8134 33.5769 25.0759 33.1923C24.3844 32.8077 23.693 32.4231 22.3562 32.4231C21.0195 32.4231 20.328 32.8077 19.6366 33.1923C18.8991 33.6154 18.1616 34 16.6404 34C15.1654 34 14.3817 33.5769 13.6442 33.1923C12.9528 32.8077 12.2614 32.4231 10.9246 32.4231C9.58783 32.4231 8.8964 32.8077 8.20497 33.1923C7.46745 33.6154 6.72992 34 5.20877 34C4.19468 34 3.45715 33.5769 2.71963 33.1538C2.0282 32.7692 1.33677 32.3846 0 32.3846V32C1.47505 32 2.25867 32.4231 2.9962 32.8077C3.68763 33.1923 4.37906 33.5769 5.71582 33.5769C7.05259 33.5769 7.74402 33.1923 8.43545 32.8077C9.12688 32.4231 9.9105 32 11.3856 32C12.8606 32 13.6442 32.4231 14.3817 32.8077C15.0732 33.1923 15.7646 33.5769 17.1014 33.5769C18.4381 33.5769 19.1296 33.1923 19.821 32.8077C20.5585 32.4231 21.2961 32 22.7711 32C24.2462 32 25.0298 32.4231 25.7673 32.8077C26.4587 33.1923 27.1502 33.5769 28.4869 33.5769C29.8237 33.5769 30.5151 33.1923 31.2065 32.8077C31.9441 32.4231 32.6816 32 34.2027 32C35.6778 32 36.4614 32.4231 37.1989 32.8077C37.8904 33.1923 38.5818 33.5769 39.9186 33.5769C41.2553 33.5769 41.9468 33.1923 42.6382 32.8077C43.3296 32.4231 44.0672 32 45.5883 32C47.0634 32 47.847 32.4231 48.5845 32.8077C49.2759 33.1923 49.9674 33.5769 51.3041 33.5769C52.6409 33.5769 53.3323 33.1923 54.0237 32.8077C54.7613 32.3846 55.4988 32 57.0199 32C58.495 32 59.2786 32.4231 60.0161 32.8077C60.7076 33.1923 61.399 33.5769 62.7358 33.5769C64.0725 33.5769 64.764 33.1923 65.4554 32.8077C66.1929 32.3846 66.9304 32 68.4516 32C69.9266 32 70.7103 32.4231 71.4478 32.8077C72.1392 33.1923 72.8306 33.5769 74.1674 33.5769C75.5042 33.5769 76.1956 33.1923 76.887 32.8077C77.6246 32.3846 78.3621 32 79.8832 32C81.4044 32 82.1419 32.4231 82.8794 32.8077C83.5709 33.1923 84.2623 33.5769 85.5991 33.5769C86.9358 33.5769 87.6273 33.1923 88.3187 32.8077C89.0562 32.3846 89.7937 32 91.3149 32C92.7899 32 93.5736 32.4231 94.3111 32.8077C95.0025 33.1923 95.6939 33.5769 97.0307 33.5769C98.3675 33.5769 99.0589 33.1923 99.7503 32.8077C100.488 32.3846 101.225 32 102.747 32C104.222 32 105.005 32.4231 105.743 32.8077C106.434 33.1923 107.126 33.5769 108.462 33.5769C109.799 33.5769 110.491 33.1923 111.182 32.8077C111.92 32.3846 112.657 32 114.178 32C115.653 32 116.437 32.4231 117.174 32.8077C117.866 33.1923 118.557 33.5769 119.894 33.5769C121.231 33.5769 121.922 33.1923 122.614 32.8077C123.351 32.3846 124.089 32 125.61 32C127.085 32 127.868 32.4231 128.606 32.8077C129.297 33.1923 129.989 33.5769 131.326 33.5769C132.662 33.5769 133.354 33.1923 134.045 32.8077C134.783 32.3846 135.52 32 137.041 32C138.516 32 139.3 32.4231 140.038 32.8077C140.729 33.1923 141.421 33.5769 142.757 33.5769C144.094 33.5769 144.785 33.1923 145.477 32.8077C146.214 32.3846 146.952 32 148.473 32C149.948 32 150.732 32.4231 151.469 32.8077C152.161 33.1923 152.852 33.5769 154.189 33.5769C155.526 33.5769 156.217 33.1923 156.909 32.8077C157.646 32.3846 158.384 32 159.905 32C161.38 32 162.163 32.4231 162.901 32.8077C163.592 33.1923 164.284 33.5769 165.621 33.5769V34H165.252Z" fill="#5D5D5D"/>
<path d="M325.631 34C324.156 34 323.373 33.5769 322.635 33.1923C321.944 32.8077 321.252 32.4231 319.915 32.4231C318.579 32.4231 317.887 32.8077 317.196 33.1923C316.458 33.6154 315.721 34 314.2 34C312.678 34 311.941 33.5769 311.203 33.1923C310.512 32.8077 309.821 32.4231 308.484 32.4231C307.147 32.4231 306.456 32.8077 305.764 33.1923C305.027 33.6154 304.289 34 302.768 34C301.293 34 300.509 33.5769 299.772 33.1923C299.08 32.8077 298.389 32.4231 297.052 32.4231C295.715 32.4231 295.024 32.8077 294.333 33.1923C293.595 33.6154 292.857 34 291.336 34C289.861 34 289.078 33.5769 288.34 33.1923C287.649 32.8077 286.957 32.4231 285.62 32.4231C284.284 32.4231 283.592 32.8077 282.901 33.1923C282.163 33.6154 281.426 34 279.905 34C278.383 34 277.646 33.5769 276.908 33.1923C276.217 32.8077 275.526 32.4231 274.189 32.4231C272.852 32.4231 272.161 32.8077 271.469 33.1923C270.732 33.6154 269.994 34 268.473 34C266.998 34 266.214 33.5769 265.477 33.1923C264.785 32.8077 264.094 32.4231 262.757 32.4231C261.42 32.4231 260.729 32.8077 260.038 33.1923C259.3 33.6154 258.562 34 257.041 34C255.52 34 254.783 33.5769 254.045 33.1923C253.354 32.8077 252.662 32.4231 251.326 32.4231C249.989 32.4231 249.297 32.8077 248.606 33.1923C247.868 33.6154 247.131 34 245.61 34C244.135 34 243.351 33.5769 242.614 33.1923C241.922 32.8077 241.231 32.4231 239.894 32.4231C238.557 32.4231 237.866 32.8077 237.174 33.1923C236.437 33.6154 235.699 34 234.178 34C232.703 34 231.919 33.5769 231.182 33.1923C230.49 32.8077 229.799 32.4231 228.462 32.4231C227.125 32.4231 226.434 32.8077 225.743 33.1923C225.005 33.6154 224.268 34 222.746 34C221.225 34 220.488 33.5769 219.75 33.1923C219.059 32.8077 218.367 32.4231 217.031 32.4231C215.694 32.4231 215.002 32.8077 214.311 33.1923C213.573 33.6154 212.836 34 211.315 34C209.84 34 209.056 33.5769 208.319 33.1923C207.627 32.8077 206.936 32.4231 205.599 32.4231C204.262 32.4231 203.571 32.8077 202.879 33.1923C202.142 33.6154 201.404 34 199.883 34C198.408 34 197.624 33.5769 196.887 33.1923C196.195 32.8077 195.504 32.4231 194.167 32.4231C192.831 32.4231 192.139 32.8077 191.448 33.1923C190.71 33.6154 189.973 34 188.451 34C186.976 34 186.193 33.5769 185.455 33.1923C184.764 32.8077 184.072 32.4231 182.736 32.4231C181.399 32.4231 180.707 32.8077 180.016 33.1923C179.279 33.6154 178.541 34 177.02 34C175.545 34 174.761 33.5769 174.024 33.1923C173.332 32.8077 172.641 32.4231 171.304 32.4231C169.967 32.4231 169.276 32.8077 168.584 33.1923C167.847 33.6154 167.109 34 165.588 34C164.574 34 163.837 33.5769 163.099 33.1538C162.408 32.7692 161.716 32.3846 160.379 32.3846V32C161.854 32 162.638 32.4231 163.376 32.8077C164.067 33.1923 164.758 33.5769 166.095 33.5769C167.432 33.5769 168.123 33.1923 168.815 32.8077C169.506 32.4231 170.29 32 171.765 32C173.24 32 174.024 32.4231 174.761 32.8077C175.453 33.1923 176.144 33.5769 177.481 33.5769C178.818 33.5769 179.509 33.1923 180.2 32.8077C180.938 32.4231 181.675 32 183.151 32C184.626 32 185.409 32.4231 186.147 32.8077C186.838 33.1923 187.53 33.5769 188.866 33.5769C190.203 33.5769 190.895 33.1923 191.586 32.8077C192.323 32.4231 193.061 32 194.582 32C196.057 32 196.841 32.4231 197.578 32.8077C198.27 33.1923 198.961 33.5769 200.298 33.5769C201.635 33.5769 202.326 33.1923 203.018 32.8077C203.709 32.4231 204.447 32 205.968 32C207.443 32 208.226 32.4231 208.964 32.8077C209.655 33.1923 210.347 33.5769 211.684 33.5769C213.02 33.5769 213.712 33.1923 214.403 32.8077C215.141 32.3846 215.878 32 217.399 32C218.874 32 219.658 32.4231 220.396 32.8077C221.087 33.1923 221.778 33.5769 223.115 33.5769C224.452 33.5769 225.143 33.1923 225.835 32.8077C226.572 32.3846 227.31 32 228.831 32C230.306 32 231.09 32.4231 231.827 32.8077C232.519 33.1923 233.21 33.5769 234.547 33.5769C235.884 33.5769 236.575 33.1923 237.266 32.8077C238.004 32.3846 238.742 32 240.263 32C241.784 32 242.521 32.4231 243.259 32.8077C243.95 33.1923 244.642 33.5769 245.978 33.5769C247.315 33.5769 248.007 33.1923 248.698 32.8077C249.436 32.3846 250.173 32 251.694 32C253.169 32 253.953 32.4231 254.69 32.8077C255.382 33.1923 256.073 33.5769 257.41 33.5769C258.747 33.5769 259.438 33.1923 260.13 32.8077C260.867 32.3846 261.605 32 263.126 32C264.601 32 265.385 32.4231 266.122 32.8077C266.814 33.1923 267.505 33.5769 268.842 33.5769C270.179 33.5769 270.87 33.1923 271.561 32.8077C272.299 32.3846 273.036 32 274.558 32C276.033 32 276.816 32.4231 277.554 32.8077C278.245 33.1923 278.937 33.5769 280.273 33.5769C281.61 33.5769 282.302 33.1923 282.993 32.8077C283.731 32.3846 284.468 32 285.989 32C287.464 32 288.248 32.4231 288.985 32.8077C289.677 33.1923 290.368 33.5769 291.705 33.5769C293.042 33.5769 293.733 33.1923 294.425 32.8077C295.162 32.3846 295.9 32 297.421 32C298.896 32 299.68 32.4231 300.417 32.8077C301.108 33.1923 301.8 33.5769 303.137 33.5769C304.473 33.5769 305.165 33.1923 305.856 32.8077C306.594 32.3846 307.331 32 308.853 32C310.328 32 311.111 32.4231 311.849 32.8077C312.54 33.1923 313.232 33.5769 314.568 33.5769C315.905 33.5769 316.597 33.1923 317.288 32.8077C318.025 32.3846 318.763 32 320.284 32C321.759 32 322.543 32.4231 323.28 32.8077C323.972 33.1923 324.663 33.5769 326 33.5769V34H325.631Z" fill="#5D5D5D"/>
</svg>
