<svg width="16" height="16" viewBox="0 0 16 16" fill="none" xmlns="http://www.w3.org/2000/svg">
<path d="M4.28004 11.82C2.79337 10.8467 1.83337 9.37999 1.83337 8.09332C1.83337 5.90665 4.59337 3.22665 8.00004 3.22665C9.39337 3.22665 10.6867 3.67332 11.7267 4.36665" stroke="#000034" stroke-width="1.2" stroke-linecap="round" stroke-linejoin="round"/>
<path d="M13.2332 5.74033C13.8272 6.49366 14.1732 7.32699 14.1732 8.09366C14.1732 10.2803 11.4066 12.9603 7.99992 12.9603C7.39325 12.9603 6.80058 12.8737 6.24658 12.7203" stroke="#000034" stroke-width="1.2" stroke-linecap="round" stroke-linejoin="round"/>
<path d="M6.51048 9.57821C6.11381 9.18554 5.89181 8.65021 5.89381 8.09221C5.89115 6.92888 6.83248 5.98354 7.99648 5.98154C8.55648 5.98021 9.09381 6.20221 9.48981 6.59821" stroke="#000034" stroke-width="1.2" stroke-linecap="round" stroke-linejoin="round"/>
<path d="M10.073 8.46631C9.91705 9.32764 9.24305 10.003 8.38171 10.161" stroke="#000034" stroke-width="1.2" stroke-linecap="round" stroke-linejoin="round"/>
<path d="M13.2612 2.8335L2.74518 13.3495" stroke="#000034" stroke-width="1.2" stroke-linecap="round" stroke-linejoin="round"/>
</svg>
