<svg width="390" height="142" viewBox="0 0 390 142" fill="none" xmlns="http://www.w3.org/2000/svg">
<rect x="390" y="168" width="393" height="157" transform="rotate(-180 390 168)" fill="#39B19B"/>
<path d="M391 20L391 4.83938C388.676 4.83938 386.959 3.95336 385.242 3.06735C384.837 2.87046 384.433 2.67357 384.13 2.47668C380.291 0.606215 376.553 0.606213 373.219 2.57513C367.764 5.82383 362.612 5.43005 357.358 2.77202C355.944 2.37823 354.53 1.78756 353.216 1.19688C352.408 0.999995 351.499 0.999995 350.691 0.999995C348.973 1.78756 347.256 2.37823 345.437 2.87046C339.78 5.82383 334.426 5.13471 328.869 2.08289C325.535 0.212427 321.797 0.60621 318.666 2.47668C312.907 5.92227 307.452 5.23315 301.794 2.27978C298.562 0.507762 295.43 0.606208 292.096 2.37823C287.045 5.03626 281.69 6.11916 276.235 2.9689C271.992 0.50776 267.648 0.50776 263.405 2.9689C258.05 6.11916 252.797 5.23315 247.746 2.57511C243.806 0.507756 239.967 0.704647 236.33 2.772C231.177 5.62693 226.328 5.62693 221.277 2.772C217.337 0.507755 213.094 0.606201 209.053 2.772C204.103 5.52848 199.253 5.72537 194.202 2.87045C190.06 0.507753 185.615 0.507753 181.473 2.96889C176.624 5.72537 171.774 5.52848 166.925 2.87044C162.783 0.606196 158.641 0.50775 154.499 2.87044C149.65 5.62692 144.699 5.82381 139.648 2.87044C135.506 0.507748 131.263 0.507748 127.222 2.87044C122.07 5.82381 117.221 5.52847 112.169 2.87044C108.229 0.704638 104.188 0.606191 100.248 2.87044C94.9949 5.82381 89.8426 5.72536 84.6902 2.77199C80.9523 0.704633 76.9113 0.704633 73.2744 2.77199C68.021 5.72536 63.0708 5.92225 57.7164 2.87044C53.8774 0.704633 49.7354 0.704632 45.6944 2.87043C40.5421 5.8238 35.5918 5.72536 30.3385 2.87043C26.7015 0.803074 22.8626 0.507738 18.9226 2.87043C13.1641 6.21758 7.40564 5.72535 1.74823 2.67354C0.940004 2.18131 0.131807 1.98442 -0.777434 1.78753C-1.48459 1.59064 -2.29281 1.39375 -3 0.999964L-3 20L391 20Z" fill="#39B19B"/>
<path d="M393 15.288C389.082 16.3196 386.64 14.199 384.141 12.7662C380.337 10.5309 376.589 10.4736 373.239 12.8808C367.674 16.9501 362.336 16.3769 356.941 12.8235C353.477 10.5309 349.786 10.3016 346.549 12.6515C340.473 17.0074 334.908 16.3769 329.003 12.4223C325.709 10.187 321.961 10.6455 318.838 12.8808C313.046 17.122 307.651 16.2623 302.03 12.5942C298.85 10.4736 295.67 10.5882 292.319 12.7661C287.265 15.9757 281.984 17.3513 276.476 13.4539C272.274 10.4736 267.902 10.4163 263.643 13.3966C258.305 17.1793 253.081 16.1477 248.027 12.9381C244.052 10.359 240.304 10.7028 236.613 13.1673C231.502 16.6062 226.675 16.6062 221.621 13.11C217.646 10.359 213.444 10.4163 209.412 13.1673C204.472 16.4916 199.645 16.7208 194.648 13.282C190.503 10.4163 186.13 10.4163 181.928 13.3966C177.045 16.7781 172.275 16.5489 167.448 13.282C163.359 10.5309 159.157 10.4163 155.012 13.282C150.128 16.6635 145.245 16.8354 140.248 13.3393C136.159 10.4736 131.843 10.4163 127.812 13.282C122.701 16.8354 117.817 16.5489 112.764 13.2246C108.845 10.5882 104.757 10.4736 100.839 13.2246C95.6143 16.8354 90.5036 16.7208 85.2793 13.11C81.5883 10.5309 77.5565 10.5309 73.8654 13.11C68.6412 16.7208 63.644 16.8927 58.363 13.2246C54.5016 10.5309 50.3562 10.5309 46.3813 13.282C41.2706 16.8354 36.2734 16.7781 31.106 13.2246C27.4717 10.7601 23.6103 10.3589 19.7488 13.1673C14.0135 17.2939 8.2214 16.6635 2.6564 12.8808C1.17999 11.8491 -0.466797 11.7345 -2 10.8174C-0.182861 9.90042 1.57748 10.4162 3.22427 11.3333C6.06354 12.9954 8.84604 14.7721 12.4235 14.2563C14.3542 13.9697 16.0578 13.6831 17.7046 12.5369C22.5313 9.15534 27.8124 9.26997 32.8095 12.5369C36.6141 15.0587 40.7027 15.1733 44.5074 12.6515C49.7884 9.21266 54.8423 9.21266 60.1234 12.6515C63.7576 15.0014 67.7894 15.3453 71.5372 12.8234C76.8751 9.21266 81.9857 9.09803 87.3236 12.7661C91.1282 15.4026 95.2168 15.2306 99.0214 12.6515C104.189 9.21266 109.186 9.09803 114.354 12.6515C118.215 15.3453 122.303 15.116 126.051 12.7088C131.446 9.21267 136.5 9.21267 141.895 12.8234C145.472 15.2306 149.617 15.116 153.138 12.8234C158.533 9.32729 163.587 9.09804 168.924 12.8234C172.899 15.5745 177.045 15.3453 181.077 12.5369C185.79 9.21267 190.616 9.15535 195.386 12.3649C199.872 15.4026 204.188 15.1733 208.561 12.3076C213.16 9.3273 217.93 9.21267 222.416 12.2503C227.016 15.3453 231.388 15.1733 235.875 12.3076C240.474 9.32731 245.131 9.26999 249.673 12.3649C254.216 15.4599 258.645 15.288 263.132 12.3076C267.731 9.26999 272.444 9.38462 276.987 12.3649C281.53 15.3453 285.903 15.288 290.445 12.3076C294.931 9.32731 299.531 9.38462 304.017 12.3076C308.56 15.288 312.762 15.3453 317.362 12.3076C321.677 9.44194 326.561 9.15536 330.99 12.193C335.874 15.5745 340.417 15.1733 345.187 12.1357C349.502 9.38463 354.159 9.32731 358.304 12.2503C362.904 15.5172 367.276 15.288 371.705 12.5369C377.214 9.09806 382.381 9.55657 387.378 13.4539C388.968 14.3136 391.183 13.4539 393 15.288Z" fill="white"/>
<path d="M393 10.288C389.082 11.3196 386.64 9.199 384.141 7.76615C380.337 5.5309 376.589 5.4736 373.239 7.88079C367.674 11.9501 362.336 11.3769 356.941 7.82347C353.477 5.53091 349.786 5.30165 346.549 7.65152C340.473 12.0074 334.908 11.3769 329.003 7.42227C325.709 5.18702 321.961 5.64553 318.838 7.88078C313.046 12.122 307.651 11.2623 302.03 7.59421C298.85 5.47359 295.67 5.58821 292.319 7.76614C287.265 10.9757 281.984 12.3513 276.476 8.45392C272.274 5.47359 267.902 5.41627 263.643 8.3966C258.305 12.1793 253.081 11.1477 248.027 7.93808C244.052 5.35895 240.304 5.70284 236.613 8.16734C231.502 11.6062 226.675 11.6062 221.621 8.11002C217.646 5.35895 213.444 5.41627 209.412 8.16734C204.472 11.4916 199.645 11.7208 194.648 8.28197C190.503 5.41627 186.13 5.41626 181.928 8.39659C177.045 11.7781 172.275 11.5489 167.448 8.28196C163.359 5.53089 159.157 5.41626 155.012 8.28196C150.128 11.6635 145.245 11.8354 140.248 8.33927C136.159 5.47357 131.843 5.41626 127.812 8.28196C122.701 11.8354 117.817 11.5489 112.764 8.22464C108.845 5.5882 104.757 5.47357 100.839 8.22464C95.6143 11.8354 90.5036 11.7208 85.2793 8.11001C81.5883 5.53088 77.5565 5.53088 73.8654 8.11001C68.6412 11.7208 63.644 11.8927 58.363 8.22464C54.5016 5.53088 50.3562 5.53088 46.3813 8.28195C41.2706 11.8354 36.2734 11.7781 31.106 8.22463C27.4717 5.76013 23.6103 5.35894 19.7488 8.16732C14.0135 12.2939 8.2214 11.6635 2.6564 7.88075C1.17999 6.8491 -0.466797 6.73447 -2 5.81745C-0.182861 4.90042 1.57748 5.41624 3.22427 6.33327C6.06354 7.99537 8.84604 9.77211 12.4235 9.25629C14.3542 8.96972 16.0578 8.68315 17.7046 7.53687C22.5313 4.15534 27.8124 4.26997 32.8095 7.53687C36.6141 10.0587 40.7027 10.1733 44.5074 7.6515C49.7884 4.21266 54.8423 4.21266 60.1234 7.6515C63.7576 10.0014 67.7894 10.3453 71.5372 7.82344C76.8751 4.21266 81.9857 4.09803 87.3236 7.76613C91.1282 10.4026 95.2168 10.2306 99.0214 7.6515C104.189 4.21266 109.186 4.09803 114.354 7.6515C118.215 10.3453 122.303 10.116 126.051 7.70882C131.446 4.21267 136.5 4.21267 141.895 7.82345C145.472 10.2306 149.617 10.116 153.138 7.82345C158.533 4.32729 163.587 4.09804 168.924 7.82345C172.899 10.5745 177.045 10.3453 181.077 7.53688C185.79 4.21267 190.616 4.15535 195.386 7.36494C199.872 10.4026 204.188 10.1733 208.561 7.30763C213.16 4.3273 217.93 4.21267 222.416 7.25031C227.016 10.3453 231.388 10.1733 235.875 7.30763C240.474 4.32731 245.131 4.26999 249.673 7.36494C254.216 10.4599 258.645 10.288 263.132 7.30764C267.731 4.26999 272.444 4.38462 276.987 7.36495C281.53 10.3453 285.903 10.288 290.445 7.30764C294.931 4.32731 299.531 4.38462 304.017 7.30764C308.56 10.288 312.762 10.3453 317.362 7.30764C321.677 4.44194 326.561 4.15536 330.99 7.19301C335.874 10.5745 340.417 10.1733 345.187 7.1357C349.502 4.38463 354.159 4.32731 358.304 7.25033C362.904 10.5172 367.276 10.288 371.705 7.5369C377.214 4.09806 382.381 4.55657 387.378 8.45393C388.968 9.31364 391.183 8.45392 393 10.288Z" fill="white"/>
<path d="M393 5.28797C389.082 6.31962 386.64 4.199 384.141 2.76615C380.337 0.530905 376.589 0.473598 373.239 2.88079C367.674 6.95008 362.336 6.37693 356.941 2.82347C353.477 0.530906 349.786 0.301648 346.549 2.65152C340.473 7.00738 334.908 6.37693 329.003 2.42227C325.709 0.187021 321.961 0.645535 318.838 2.88078C313.046 7.12202 307.651 6.26231 302.03 2.59421C298.85 0.473591 295.67 0.588212 292.319 2.76614C287.265 5.97573 281.984 7.35127 276.476 3.45392C272.274 0.473588 267.902 0.416271 263.643 3.3966C258.305 7.17932 253.081 6.14767 248.027 2.93808C244.052 0.358953 240.304 0.702841 236.613 3.16734C231.502 6.60618 226.675 6.60618 221.621 3.11002C217.646 0.358952 213.444 0.416269 209.412 3.16734C204.472 6.49155 199.645 6.72081 194.648 3.28197C190.503 0.416265 186.13 0.416264 181.928 3.39659C177.045 6.77812 172.275 6.54886 167.448 3.28196C163.359 0.530891 159.157 0.416263 155.012 3.28196C150.128 6.66349 145.245 6.83542 140.248 3.33927C136.159 0.473569 131.843 0.41626 127.812 3.28196C122.701 6.83543 117.817 6.54885 112.764 3.22464C108.845 0.588197 104.757 0.473569 100.839 3.22464C95.6143 6.83542 90.5036 6.72079 85.2793 3.11001C81.5883 0.530882 77.5565 0.530882 73.8654 3.11001C68.6412 6.72079 63.644 6.89273 58.363 3.22464C54.5016 0.530878 50.3562 0.530881 46.3813 3.28195C41.2706 6.83542 36.2734 6.7781 31.106 3.22463C27.4717 0.760132 23.6103 0.358939 19.7488 3.16732C14.0135 7.29393 8.2214 6.66348 2.6564 2.88075C1.17999 1.8491 -0.466797 1.73447 -2 0.817445C-0.182861 -0.0995789 1.57748 0.416244 3.22427 1.33327C6.06354 2.99537 8.84604 4.77211 12.4235 4.25629C14.3542 3.96972 16.0578 3.68315 17.7046 2.53687C22.5313 -0.844659 27.8124 -0.730031 32.8095 2.53687C36.6141 5.05868 40.7027 5.17331 44.5074 2.6515C49.7884 -0.787344 54.8423 -0.787344 60.1234 2.6515C63.7576 5.00137 67.7894 5.34526 71.5372 2.82344C76.8751 -0.78734 81.9857 -0.901971 87.3236 2.76613C91.1282 5.40257 95.2168 5.23063 99.0214 2.6515C104.189 -0.78734 109.186 -0.901967 114.354 2.6515C118.215 5.34526 122.303 5.11601 126.051 2.70882C131.446 -0.787333 136.5 -0.787335 141.895 2.82345C145.472 5.23064 149.617 5.11601 153.138 2.82345C158.533 -0.672705 163.587 -0.90196 168.924 2.82345C172.899 5.57452 177.045 5.34527 181.077 2.53688C185.79 -0.787331 190.616 -0.844646 195.386 2.36494C199.872 5.40258 204.188 5.17333 208.561 2.30763C213.16 -0.672697 217.93 -0.787328 222.416 2.25031C227.016 5.34527 231.388 5.17333 235.875 2.30763C240.474 -0.672694 245.131 -0.730013 249.673 2.36494C254.216 5.4599 258.645 5.28796 263.132 2.30764C267.731 -0.730006 272.444 -0.615383 276.987 2.36495C281.53 5.34527 285.903 5.28797 290.445 2.30764C294.931 -0.672689 299.531 -0.615375 304.017 2.30764C308.56 5.28797 312.762 5.34528 317.362 2.30764C321.677 -0.558059 326.561 -0.844636 330.99 2.19301C335.874 5.57453 340.417 5.17334 345.187 2.1357C349.502 -0.615373 354.159 -0.672688 358.304 2.25033C362.904 5.51722 367.276 5.28797 371.705 2.5369C377.214 -0.901942 382.381 -0.443426 387.378 3.45393C388.968 4.31364 391.183 3.45392 393 5.28797Z" fill="white"/>
<path d="M50.1591 60V51.2727H52.9759C53.5952 51.2727 54.1122 51.3849 54.527 51.6094C54.9446 51.831 55.2585 52.1392 55.4688 52.5341C55.6818 52.9261 55.7884 53.3764 55.7884 53.8849C55.7884 54.3935 55.6818 54.8423 55.4688 55.2315C55.2585 55.6207 54.946 55.9247 54.5312 56.1435C54.1165 56.3622 53.6023 56.4716 52.9886 56.4716H50.5895V55.7429H52.9673C53.4219 55.7429 53.7997 55.6676 54.1009 55.517C54.4048 55.3665 54.6307 55.152 54.7784 54.8736C54.929 54.5952 55.0043 54.2656 55.0043 53.8849C55.0043 53.5043 54.929 53.1719 54.7784 52.8878C54.6278 52.6009 54.4006 52.3793 54.0966 52.223C53.7955 52.0668 53.4148 51.9886 52.9545 51.9886H50.956V60H50.1591ZM54.0071 56.0625L56.1548 60H55.2344L53.108 56.0625H54.0071ZM61.7308 57.4986V53.4545H62.4893V60H61.7308V58.9134H61.6712C61.5178 59.2486 61.2749 59.5284 60.9425 59.7528C60.6101 59.9744 60.2038 60.0852 59.7237 60.0852C59.3061 60.0852 58.9354 59.9943 58.6115 59.8125C58.2876 59.6278 58.0334 59.358 57.8487 59.0028C57.6641 58.6477 57.5717 58.2116 57.5717 57.6946V53.4545H58.3303V57.6477C58.3303 58.1591 58.4808 58.571 58.782 58.8835C59.0831 59.1932 59.4695 59.348 59.9411 59.348C60.2365 59.348 60.5206 59.277 60.7933 59.1349C61.0661 58.9929 61.2905 58.7855 61.4666 58.5128C61.6428 58.2372 61.7308 57.8991 61.7308 57.4986ZM65.256 55.9091V60H64.4975V53.4545H65.2347V54.4815H65.3029C65.4563 54.1463 65.695 53.8778 66.0188 53.6761C66.3455 53.4716 66.7489 53.3693 67.229 53.3693C67.6694 53.3693 68.0558 53.4616 68.3881 53.6463C68.7234 53.8281 68.9833 54.0966 69.168 54.4517C69.3555 54.8068 69.4492 55.2429 69.4492 55.7599V60H68.6907V55.8068C68.6907 55.2699 68.5401 54.8452 68.239 54.5327C67.9407 54.2202 67.5401 54.0639 67.0373 54.0639C66.6935 54.0639 66.3881 54.1378 66.1211 54.2855C65.854 54.4332 65.6424 54.6463 65.4862 54.9247C65.3327 55.2003 65.256 55.5284 65.256 55.9091ZM72.2053 55.9091V60H71.4467V53.4545H72.1839V54.4815H72.2521C72.4055 54.1463 72.6442 53.8778 72.968 53.6761C73.2947 53.4716 73.6982 53.3693 74.1783 53.3693C74.6186 53.3693 75.005 53.4616 75.3374 53.6463C75.6726 53.8281 75.9325 54.0966 76.1172 54.4517C76.3047 54.8068 76.3984 55.2429 76.3984 55.7599V60H75.6399V55.8068C75.6399 55.2699 75.4893 54.8452 75.1882 54.5327C74.8899 54.2202 74.4893 54.0639 73.9865 54.0639C73.6428 54.0639 73.3374 54.1378 73.0703 54.2855C72.8033 54.4332 72.5916 54.6463 72.4354 54.9247C72.282 55.2003 72.2053 55.5284 72.2053 55.9091ZM78.4045 60V53.4545H79.1673V60H78.4045ZM78.7923 52.3295C78.636 52.3295 78.5025 52.277 78.3917 52.1719C78.2809 52.0639 78.2255 51.9347 78.2255 51.7841C78.2255 51.6335 78.2809 51.5057 78.3917 51.4006C78.5025 51.2926 78.636 51.2386 78.7923 51.2386C78.9485 51.2386 79.082 51.2926 79.1928 51.4006C79.3036 51.5057 79.359 51.6335 79.359 51.7841C79.359 51.9347 79.3036 52.0639 79.1928 52.1719C79.082 52.277 78.9485 52.3295 78.7923 52.3295ZM81.9318 55.9091V60H81.1733V53.4545H81.9105V54.4815H81.9787C82.1321 54.1463 82.3707 53.8778 82.6946 53.6761C83.0213 53.4716 83.4247 53.3693 83.9048 53.3693C84.3452 53.3693 84.7315 53.4616 85.0639 53.6463C85.3991 53.8281 85.6591 54.0966 85.8438 54.4517C86.0312 54.8068 86.125 55.2429 86.125 55.7599V60H85.3665V55.8068C85.3665 55.2699 85.2159 54.8452 84.9148 54.5327C84.6165 54.2202 84.2159 54.0639 83.7131 54.0639C83.3693 54.0639 83.0639 54.1378 82.7969 54.2855C82.5298 54.4332 82.3182 54.6463 82.1619 54.9247C82.0085 55.2003 81.9318 55.5284 81.9318 55.9091ZM90.6197 62.5909C90.1737 62.5909 89.783 62.5327 89.4478 62.4162C89.1126 62.3026 88.8299 62.1463 88.5998 61.9474C88.3697 61.7486 88.1907 61.5256 88.0629 61.2784L88.685 60.8693C88.7788 61.0341 88.9038 61.196 89.06 61.3551C89.2191 61.5142 89.4251 61.6463 89.6779 61.7514C89.9336 61.8565 90.2475 61.9091 90.6197 61.9091C91.1992 61.9091 91.6665 61.7642 92.0217 61.4744C92.3796 61.1847 92.5586 60.7344 92.5586 60.1236V58.6491H92.4904C92.4023 58.848 92.2759 59.0469 92.1112 59.2457C91.9464 59.4418 91.7305 59.6051 91.4634 59.7358C91.1992 59.8665 90.8711 59.9318 90.479 59.9318C89.9563 59.9318 89.4918 59.8026 89.0856 59.544C88.6822 59.2855 88.364 58.9162 88.131 58.4361C87.9009 57.9531 87.7859 57.3778 87.7859 56.7102C87.7859 56.0483 87.8981 55.4659 88.1225 54.9631C88.3498 54.4602 88.6665 54.0682 89.0728 53.7869C89.479 53.5057 89.9521 53.3651 90.4918 53.3651C90.8924 53.3651 91.2248 53.4361 91.489 53.5781C91.7532 53.7173 91.9648 53.8906 92.1239 54.098C92.2859 54.3054 92.4123 54.5071 92.5032 54.7031H92.5799V53.4545H93.3214V60.1705C93.3214 60.7244 93.2035 61.1804 92.9677 61.5384C92.7319 61.8963 92.4109 62.1605 92.0046 62.331C91.5984 62.5043 91.1367 62.5909 90.6197 62.5909ZM90.5685 59.2372C90.989 59.2372 91.3484 59.1364 91.6467 58.9347C91.945 58.7301 92.1737 58.4375 92.3327 58.0568C92.4918 57.6761 92.5714 57.223 92.5714 56.6974C92.5714 56.1861 92.4933 55.733 92.337 55.3381C92.1808 54.9403 91.9535 54.6278 91.6552 54.4006C91.3597 54.1705 90.9975 54.0554 90.5685 54.0554C90.131 54.0554 89.7617 54.1733 89.4606 54.4091C89.1594 54.6449 88.9322 54.9631 88.7788 55.3636C88.6254 55.7614 88.5487 56.206 88.5487 56.6974C88.5487 57.1974 88.6268 57.6392 88.783 58.0227C88.9393 58.4034 89.168 58.7017 89.4691 58.9176C89.7702 59.1307 90.1367 59.2372 90.5685 59.2372ZM101.249 60.1364C100.683 60.1364 100.183 59.9929 99.7486 59.706C99.3168 59.419 98.9787 59.0227 98.7344 58.517C98.4901 58.0085 98.3679 57.4219 98.3679 56.7571C98.3679 56.0866 98.4901 55.4972 98.7344 54.9886C98.9787 54.4773 99.3168 54.0795 99.7486 53.7955C100.183 53.5085 100.683 53.3651 101.249 53.3651C101.814 53.3651 102.312 53.5085 102.744 53.7955C103.176 54.0824 103.514 54.4801 103.759 54.9886C104.006 55.4972 104.129 56.0866 104.129 56.7571C104.129 57.4219 104.007 58.0085 103.763 58.517C103.518 59.0227 103.179 59.419 102.744 59.706C102.312 59.9929 101.814 60.1364 101.249 60.1364ZM101.249 59.4418C101.703 59.4418 102.088 59.3196 102.403 59.0753C102.719 58.831 102.957 58.5057 103.119 58.0994C103.284 57.6932 103.366 57.2457 103.366 56.7571C103.366 56.2685 103.284 55.8196 103.119 55.4105C102.957 55.0014 102.719 54.6733 102.403 54.4261C102.088 54.179 101.703 54.0554 101.249 54.0554C100.797 54.0554 100.412 54.179 100.094 54.4261C99.7784 54.6733 99.5384 55.0014 99.3736 55.4105C99.2116 55.8196 99.1307 56.2685 99.1307 56.7571C99.1307 57.2457 99.2116 57.6932 99.3736 58.0994C99.5384 58.5057 99.7784 58.831 100.094 59.0753C100.409 59.3196 100.794 59.4418 101.249 59.4418ZM106.553 55.9091V60H105.794V53.4545H106.532V54.4815H106.6C106.753 54.1463 106.992 53.8778 107.316 53.6761C107.642 53.4716 108.046 53.3693 108.526 53.3693C108.966 53.3693 109.353 53.4616 109.685 53.6463C110.02 53.8281 110.28 54.0966 110.465 54.4517C110.652 54.8068 110.746 55.2429 110.746 55.7599V60H109.988V55.8068C109.988 55.2699 109.837 54.8452 109.536 54.5327C109.238 54.2202 108.837 54.0639 108.334 54.0639C107.99 54.0639 107.685 54.1378 107.418 54.2855C107.151 54.4332 106.939 54.6463 106.783 54.9247C106.63 55.2003 106.553 55.5284 106.553 55.9091ZM120.333 60V48.3636H127.629V49.875H122.089V53.4205H127.248V54.9261H122.089V58.4886H127.697V60H120.333ZM137.303 51.2727L134.138 60H132.32L129.15 51.2727H130.974L133.184 57.9886H133.275L135.479 51.2727H137.303ZM142.364 60.1761C141.504 60.1761 140.764 59.9924 140.143 59.625C139.525 59.2538 139.048 58.733 138.711 58.0625C138.378 57.3883 138.211 56.5985 138.211 55.6932C138.211 54.7992 138.378 54.0114 138.711 53.3295C139.048 52.6477 139.518 52.1155 140.12 51.733C140.726 51.3504 141.434 51.1591 142.245 51.1591C142.737 51.1591 143.215 51.2405 143.677 51.4034C144.139 51.5663 144.554 51.822 144.921 52.1705C145.289 52.5189 145.578 52.9716 145.79 53.5284C146.003 54.0814 146.109 54.7538 146.109 55.5455V56.1477H139.171V54.875H144.444C144.444 54.428 144.353 54.0322 144.171 53.6875C143.989 53.339 143.734 53.0644 143.404 52.8636C143.078 52.6629 142.696 52.5625 142.256 52.5625C141.779 52.5625 141.362 52.6799 141.006 52.9148C140.654 53.1458 140.381 53.4489 140.188 53.8239C139.999 54.1951 139.904 54.5985 139.904 55.0341V56.0284C139.904 56.6117 140.006 57.108 140.211 57.517C140.419 57.9261 140.709 58.2386 141.08 58.4545C141.451 58.6667 141.885 58.7727 142.381 58.7727C142.703 58.7727 142.997 58.7273 143.262 58.6364C143.527 58.5417 143.756 58.4015 143.95 58.2159C144.143 58.0303 144.29 57.8011 144.393 57.5284L146.001 57.8182C145.872 58.2917 145.641 58.7064 145.308 59.0625C144.978 59.4148 144.563 59.6894 144.063 59.8864C143.567 60.0795 143.001 60.1761 142.364 60.1761ZM149.692 54.8182V60H147.994V51.2727H149.624V52.6932H149.732C149.933 52.2311 150.247 51.8598 150.675 51.5795C151.107 51.2992 151.651 51.1591 152.306 51.1591C152.901 51.1591 153.422 51.2841 153.869 51.5341C154.316 51.7803 154.662 52.1477 154.908 52.6364C155.155 53.125 155.278 53.7292 155.278 54.4489V60H153.579V54.6534C153.579 54.0208 153.414 53.5265 153.085 53.1705C152.755 52.8106 152.302 52.6307 151.727 52.6307C151.333 52.6307 150.982 52.7159 150.675 52.8864C150.372 53.0568 150.132 53.3068 149.954 53.6364C149.78 53.9621 149.692 54.3561 149.692 54.8182ZM161.63 51.2727V52.6364H156.863V51.2727H161.63ZM158.141 49.1818H159.84V57.4375C159.84 57.767 159.889 58.0152 159.988 58.1818C160.086 58.3447 160.213 58.4564 160.369 58.517C160.528 58.5739 160.7 58.6023 160.886 58.6023C161.022 58.6023 161.141 58.5928 161.244 58.5739C161.346 58.5549 161.425 58.5398 161.482 58.5284L161.789 59.9318C161.691 59.9697 161.55 60.0076 161.369 60.0455C161.187 60.0871 160.96 60.1098 160.687 60.1136C160.24 60.1212 159.823 60.0417 159.437 59.875C159.05 59.7083 158.738 59.4508 158.499 59.1023C158.261 58.7538 158.141 58.3163 158.141 57.7898V49.1818ZM163.833 60V48.3636H165.589V53.4205H171.39V48.3636H173.151V60H171.39V54.9261H165.589V60H163.833ZM179.333 60.1761C178.473 60.1761 177.733 59.9924 177.112 59.625C176.494 59.2538 176.017 58.733 175.68 58.0625C175.346 57.3883 175.18 56.5985 175.18 55.6932C175.18 54.7992 175.346 54.0114 175.68 53.3295C176.017 52.6477 176.487 52.1155 177.089 51.733C177.695 51.3504 178.403 51.1591 179.214 51.1591C179.706 51.1591 180.183 51.2405 180.646 51.4034C181.108 51.5663 181.522 51.822 181.89 52.1705C182.257 52.5189 182.547 52.9716 182.759 53.5284C182.971 54.0814 183.077 54.7538 183.077 55.5455V56.1477H176.14V54.875H181.413C181.413 54.428 181.322 54.0322 181.14 53.6875C180.958 53.339 180.702 53.0644 180.373 52.8636C180.047 52.6629 179.665 52.5625 179.225 52.5625C178.748 52.5625 178.331 52.6799 177.975 52.9148C177.623 53.1458 177.35 53.4489 177.157 53.8239C176.968 54.1951 176.873 54.5985 176.873 55.0341V56.0284C176.873 56.6117 176.975 57.108 177.18 57.517C177.388 57.9261 177.678 58.2386 178.049 58.4545C178.42 58.6667 178.854 58.7727 179.35 58.7727C179.672 58.7727 179.966 58.7273 180.231 58.6364C180.496 58.5417 180.725 58.4015 180.918 58.2159C181.112 58.0303 181.259 57.8011 181.362 57.5284L182.969 57.8182C182.841 58.2917 182.61 58.7064 182.276 59.0625C181.947 59.4148 181.532 59.6894 181.032 59.8864C180.536 60.0795 179.969 60.1761 179.333 60.1761ZM186.1 51.2727L188.026 54.6705L189.969 51.2727H191.827L189.106 55.6364L191.85 60H189.992L188.026 56.7386L186.066 60H184.202L186.918 55.6364L184.237 51.2727H186.1ZM198.913 46.5369V63.2812H198.142V46.5369H198.913ZM205.784 60V51.2727H208.601C209.22 51.2727 209.737 51.392 210.152 51.6307C210.57 51.8665 210.884 52.1875 211.094 52.5938C211.307 53 211.413 53.4574 211.413 53.9659C211.413 54.4744 211.308 54.9332 211.098 55.3423C210.888 55.7486 210.575 56.071 210.161 56.3097C209.746 56.5455 209.23 56.6634 208.614 56.6634H206.398V55.9474H208.592C209.05 55.9474 209.429 55.8622 209.73 55.6918C210.031 55.5185 210.256 55.2827 210.403 54.9844C210.554 54.6861 210.629 54.3466 210.629 53.9659C210.629 53.5852 210.554 53.2457 210.403 52.9474C210.256 52.6491 210.03 52.4148 209.726 52.2443C209.425 52.0739 209.043 51.9886 208.58 51.9886H206.581V60H205.784ZM215.6 60.1364C215.035 60.1364 214.535 59.9929 214.1 59.706C213.668 59.419 213.33 59.0227 213.086 58.517C212.842 58.0085 212.719 57.4219 212.719 56.7571C212.719 56.0866 212.842 55.4972 213.086 54.9886C213.33 54.4773 213.668 54.0795 214.1 53.7955C214.535 53.5085 215.035 53.3651 215.6 53.3651C216.165 53.3651 216.664 53.5085 217.096 53.7955C217.528 54.0824 217.866 54.4801 218.11 54.9886C218.357 55.4972 218.481 56.0866 218.481 56.7571C218.481 57.4219 218.359 58.0085 218.114 58.517C217.87 59.0227 217.531 59.419 217.096 59.706C216.664 59.9929 216.165 60.1364 215.6 60.1364ZM215.6 59.4418C216.055 59.4418 216.44 59.3196 216.755 59.0753C217.07 58.831 217.309 58.5057 217.471 58.0994C217.636 57.6932 217.718 57.2457 217.718 56.7571C217.718 56.2685 217.636 55.8196 217.471 55.4105C217.309 55.0014 217.07 54.6733 216.755 54.4261C216.44 54.179 216.055 54.0554 215.6 54.0554C215.148 54.0554 214.763 54.179 214.445 54.4261C214.13 54.6733 213.89 55.0014 213.725 55.4105C213.563 55.8196 213.482 56.2685 213.482 56.7571C213.482 57.2457 213.563 57.6932 213.725 58.0994C213.89 58.5057 214.13 58.831 214.445 59.0753C214.761 59.3196 215.146 59.4418 215.6 59.4418ZM221.376 60L219.399 53.4545H220.2L221.751 58.8537H221.807L223.354 53.4545H224.159L225.693 58.8409H225.753L227.304 53.4545H228.105L226.128 60H225.344L223.793 54.6349H223.712L222.161 60H221.376ZM232.003 60.1364C231.392 60.1364 230.864 59.9943 230.418 59.7102C229.972 59.4233 229.627 59.027 229.382 58.5213C229.141 58.0128 229.02 57.4276 229.02 56.7656C229.02 56.1065 229.141 55.5213 229.382 55.0099C229.627 54.4957 229.963 54.0937 230.392 53.804C230.824 53.5114 231.323 53.3651 231.888 53.3651C232.243 53.3651 232.586 53.4304 232.915 53.5611C233.245 53.6889 233.54 53.8864 233.801 54.1534C234.066 54.4176 234.275 54.7514 234.428 55.1548C234.581 55.5554 234.658 56.0298 234.658 56.5781V56.9531H229.544V56.2841H233.882C233.882 55.8636 233.797 55.4858 233.627 55.1506C233.459 54.8125 233.225 54.5455 232.924 54.3494C232.625 54.1534 232.28 54.0554 231.888 54.0554C231.473 54.0554 231.108 54.1662 230.793 54.3878C230.478 54.6094 230.23 54.902 230.051 55.2656C229.875 55.6293 229.786 56.027 229.783 56.4588V56.8594C229.783 57.3793 229.873 57.8338 230.051 58.223C230.233 58.6094 230.49 58.9091 230.823 59.1222C231.155 59.3352 231.549 59.4418 232.003 59.4418C232.313 59.4418 232.584 59.3935 232.817 59.2969C233.053 59.2003 233.25 59.071 233.409 58.9091C233.571 58.7443 233.694 58.5639 233.776 58.3679L234.496 58.6023C234.397 58.8778 234.233 59.1321 234.006 59.3651C233.782 59.598 233.5 59.7855 233.162 59.9276C232.827 60.0668 232.441 60.1364 232.003 60.1364ZM236.33 60V53.4545H237.067V54.4602H237.122C237.253 54.1307 237.48 53.8651 237.804 53.6634C238.131 53.4588 238.5 53.3565 238.912 53.3565C238.974 53.3565 239.044 53.358 239.121 53.3608C239.197 53.3636 239.261 53.3665 239.312 53.3693V54.1406C239.278 54.1349 239.219 54.1264 239.134 54.1151C239.048 54.1037 238.956 54.098 238.857 54.098C238.516 54.098 238.212 54.1705 237.945 54.3153C237.68 54.4574 237.472 54.6548 237.318 54.9077C237.165 55.1605 237.088 55.4489 237.088 55.7727V60H236.33ZM243.054 60.1364C242.443 60.1364 241.915 59.9943 241.469 59.7102C241.023 59.4233 240.678 59.027 240.433 58.5213C240.192 58.0128 240.071 57.4276 240.071 56.7656C240.071 56.1065 240.192 55.5213 240.433 55.0099C240.678 54.4957 241.014 54.0937 241.443 53.804C241.875 53.5114 242.374 53.3651 242.939 53.3651C243.294 53.3651 243.636 53.4304 243.966 53.5611C244.295 53.6889 244.591 53.8864 244.852 54.1534C245.116 54.4176 245.325 54.7514 245.479 55.1548C245.632 55.5554 245.709 56.0298 245.709 56.5781V56.9531H240.595V56.2841H244.933C244.933 55.8636 244.848 55.4858 244.678 55.1506C244.51 54.8125 244.276 54.5455 243.974 54.3494C243.676 54.1534 243.331 54.0554 242.939 54.0554C242.524 54.0554 242.159 54.1662 241.844 54.3878C241.528 54.6094 241.281 54.902 241.102 55.2656C240.926 55.6293 240.837 56.027 240.834 56.4588V56.8594C240.834 57.3793 240.923 57.8338 241.102 58.223C241.284 58.6094 241.541 58.9091 241.874 59.1222C242.206 59.3352 242.599 59.4418 243.054 59.4418C243.364 59.4418 243.635 59.3935 243.868 59.2969C244.104 59.2003 244.301 59.071 244.46 58.9091C244.622 58.7443 244.744 58.5639 244.827 58.3679L245.547 58.6023C245.447 58.8778 245.284 59.1321 245.057 59.3651C244.832 59.598 244.551 59.7855 244.213 59.9276C243.878 60.0668 243.491 60.1364 243.054 60.1364ZM249.737 60.1364C249.2 60.1364 248.73 59.9943 248.326 59.7102C247.923 59.4261 247.608 59.0298 247.38 58.5213C247.156 58.0128 247.044 57.4205 247.044 56.7443C247.044 56.071 247.156 55.4815 247.38 54.9759C247.608 54.4673 247.924 54.0724 248.331 53.7912C248.737 53.5071 249.21 53.3651 249.75 53.3651C250.147 53.3651 250.478 53.4361 250.743 53.5781C251.007 53.7173 251.218 53.8906 251.377 54.098C251.537 54.3054 251.66 54.5071 251.748 54.7031H251.816V51.2727H252.579V60H251.838V58.7855H251.748C251.66 58.9844 251.535 59.1889 251.373 59.3991C251.211 59.6065 250.997 59.7812 250.73 59.9233C250.466 60.0653 250.135 60.1364 249.737 60.1364ZM249.826 59.4418C250.25 59.4418 250.61 59.3267 250.909 59.0966C251.207 58.8636 251.434 58.544 251.591 58.1378C251.75 57.7287 251.829 57.2599 251.829 56.7315C251.829 56.2088 251.751 55.7472 251.595 55.3466C251.439 54.9432 251.211 54.6278 250.913 54.4006C250.615 54.1705 250.252 54.0554 249.826 54.0554C249.389 54.0554 249.02 54.1747 248.718 54.4134C248.42 54.6491 248.193 54.9687 248.037 55.3722C247.883 55.7756 247.806 56.2287 247.806 56.7315C247.806 57.2401 247.885 57.6989 248.041 58.108C248.197 58.517 248.424 58.8423 248.723 59.0838C249.024 59.3224 249.392 59.4418 249.826 59.4418ZM258.272 60V51.2727H259.035V54.7031H259.103C259.189 54.5071 259.311 54.3054 259.47 54.098C259.632 53.8906 259.843 53.7173 260.105 53.5781C260.369 53.4361 260.701 53.3651 261.102 53.3651C261.639 53.3651 262.11 53.5071 262.517 53.7912C262.923 54.0724 263.24 54.4673 263.467 54.9759C263.694 55.4815 263.808 56.071 263.808 56.7443C263.808 57.4205 263.694 58.0128 263.467 58.5213C263.243 59.0298 262.927 59.4261 262.521 59.7102C262.118 59.9943 261.649 60.1364 261.115 60.1364C260.717 60.1364 260.385 60.0653 260.118 59.9233C259.853 59.7812 259.64 59.6065 259.478 59.3991C259.316 59.1889 259.191 58.9844 259.103 58.7855H259.01V60H258.272ZM259.022 56.7315C259.022 57.2599 259.1 57.7287 259.257 58.1378C259.416 58.544 259.643 58.8636 259.939 59.0966C260.237 59.3267 260.598 59.4418 261.021 59.4418C261.456 59.4418 261.824 59.3224 262.125 59.0838C262.426 58.8423 262.654 58.517 262.811 58.108C262.967 57.6989 263.045 57.2401 263.045 56.7315C263.045 56.2287 262.967 55.7756 262.811 55.3722C262.657 54.9687 262.43 54.6491 262.129 54.4134C261.828 54.1747 261.458 54.0554 261.021 54.0554C260.595 54.0554 260.233 54.1705 259.934 54.4006C259.639 54.6278 259.413 54.9432 259.257 55.3466C259.1 55.7472 259.022 56.2088 259.022 56.7315ZM265.768 62.4545C265.618 62.4545 265.477 62.4403 265.346 62.4119C265.216 62.3835 265.112 62.3523 265.035 62.3182L265.24 61.6491C265.498 61.7287 265.728 61.7571 265.93 61.7344C266.132 61.7145 266.311 61.6236 266.467 61.4616C266.623 61.3026 266.762 61.0582 266.885 60.7287L267.123 60.0639L264.716 53.4545H265.538L267.481 58.9986H267.541L269.484 53.4545H270.306L267.537 61.0355C267.42 61.3509 267.277 61.6136 267.106 61.8239C266.936 62.0369 266.738 62.1946 266.514 62.2969C266.292 62.402 266.044 62.4545 265.768 62.4545ZM279.54 60H275.773V48.3636H279.659C280.799 48.3636 281.778 48.5966 282.596 49.0625C283.415 49.5246 284.041 50.1894 284.477 51.0568C284.916 51.9205 285.136 52.9564 285.136 54.1648C285.136 55.3769 284.915 56.4186 284.471 57.2898C284.032 58.161 283.396 58.8314 282.562 59.3011C281.729 59.767 280.721 60 279.54 60ZM277.528 58.4659H279.443C280.329 58.4659 281.066 58.2992 281.653 57.9659C282.24 57.6288 282.68 57.142 282.971 56.5057C283.263 55.8655 283.409 55.0852 283.409 54.1648C283.409 53.2519 283.263 52.4773 282.971 51.8409C282.684 51.2045 282.254 50.7216 281.682 50.392C281.11 50.0625 280.399 49.8977 279.551 49.8977H277.528V58.4659ZM289.723 60.1932C289.17 60.1932 288.67 60.0909 288.223 59.8864C287.776 59.678 287.422 59.3769 287.16 58.983C286.903 58.589 286.774 58.1061 286.774 57.5341C286.774 57.0417 286.869 56.6364 287.058 56.3182C287.247 56 287.503 55.7481 287.825 55.5625C288.147 55.3769 288.507 55.2367 288.905 55.142C289.302 55.0473 289.708 54.9754 290.121 54.9261C290.643 54.8655 291.068 54.8163 291.393 54.7784C291.719 54.7367 291.956 54.6705 292.104 54.5795C292.251 54.4886 292.325 54.3409 292.325 54.1364V54.0966C292.325 53.6004 292.185 53.2159 291.905 52.9432C291.628 52.6705 291.215 52.5341 290.666 52.5341C290.094 52.5341 289.643 52.661 289.314 52.9148C288.988 53.1648 288.763 53.4432 288.638 53.75L287.041 53.3864C287.23 52.8561 287.507 52.428 287.871 52.1023C288.238 51.7727 288.66 51.5341 289.138 51.3864C289.615 51.2348 290.117 51.1591 290.643 51.1591C290.992 51.1591 291.361 51.2008 291.751 51.2841C292.145 51.3636 292.513 51.5114 292.854 51.7273C293.198 51.9432 293.48 52.2519 293.7 52.6534C293.92 53.0511 294.03 53.5682 294.03 54.2045V60H292.371V58.8068H292.302C292.193 59.0265 292.028 59.2424 291.808 59.4545C291.588 59.6667 291.306 59.8428 290.961 59.983C290.617 60.1231 290.204 60.1932 289.723 60.1932ZM290.092 58.8295C290.562 58.8295 290.963 58.7367 291.297 58.5511C291.634 58.3655 291.89 58.1231 292.064 57.8239C292.242 57.5208 292.331 57.197 292.331 56.8523V55.7273C292.27 55.7879 292.153 55.8447 291.979 55.8977C291.808 55.947 291.613 55.9905 291.393 56.0284C291.174 56.0625 290.96 56.0947 290.751 56.125C290.543 56.1515 290.369 56.1742 290.229 56.1932C289.899 56.2348 289.598 56.3049 289.325 56.4034C289.056 56.5019 288.84 56.6439 288.677 56.8295C288.518 57.0114 288.439 57.2538 288.439 57.5568C288.439 57.9773 288.594 58.2955 288.905 58.5114C289.215 58.7235 289.611 58.8295 290.092 58.8295ZM300.366 51.2727V52.6364H295.599V51.2727H300.366ZM296.878 49.1818H298.577V57.4375C298.577 57.767 298.626 58.0152 298.724 58.1818C298.823 58.3447 298.95 58.4564 299.105 58.517C299.264 58.5739 299.436 58.6023 299.622 58.6023C299.758 58.6023 299.878 58.5928 299.98 58.5739C300.082 58.5549 300.162 58.5398 300.219 58.5284L300.525 59.9318C300.427 59.9697 300.287 60.0076 300.105 60.0455C299.923 60.0871 299.696 60.1098 299.423 60.1136C298.976 60.1212 298.559 60.0417 298.173 59.875C297.787 59.7083 297.474 59.4508 297.236 59.1023C296.997 58.7538 296.878 58.3163 296.878 57.7898V49.1818ZM304.785 60.1932C304.232 60.1932 303.732 60.0909 303.285 59.8864C302.838 59.678 302.484 59.3769 302.223 58.983C301.965 58.589 301.836 58.1061 301.836 57.5341C301.836 57.0417 301.931 56.6364 302.121 56.3182C302.31 56 302.566 55.7481 302.888 55.5625C303.21 55.3769 303.569 55.2367 303.967 55.142C304.365 55.0473 304.77 54.9754 305.183 54.9261C305.706 54.8655 306.13 54.8163 306.456 54.7784C306.782 54.7367 307.018 54.6705 307.166 54.5795C307.314 54.4886 307.388 54.3409 307.388 54.1364V54.0966C307.388 53.6004 307.247 53.2159 306.967 52.9432C306.691 52.6705 306.278 52.5341 305.729 52.5341C305.157 52.5341 304.706 52.661 304.376 52.9148C304.05 53.1648 303.825 53.4432 303.7 53.75L302.104 53.3864C302.293 52.8561 302.569 52.428 302.933 52.1023C303.3 51.7727 303.723 51.5341 304.2 51.3864C304.677 51.2348 305.179 51.1591 305.706 51.1591C306.054 51.1591 306.424 51.2008 306.814 51.2841C307.208 51.3636 307.575 51.5114 307.916 51.7273C308.261 51.9432 308.543 52.2519 308.763 52.6534C308.982 53.0511 309.092 53.5682 309.092 54.2045V60H307.433V58.8068H307.365C307.255 59.0265 307.09 59.2424 306.871 59.4545C306.651 59.6667 306.369 59.8428 306.024 59.983C305.679 60.1231 305.266 60.1932 304.785 60.1932ZM305.155 58.8295C305.624 58.8295 306.026 58.7367 306.359 58.5511C306.696 58.3655 306.952 58.1231 307.126 57.8239C307.304 57.5208 307.393 57.197 307.393 56.8523V55.7273C307.333 55.7879 307.215 55.8447 307.041 55.8977C306.871 55.947 306.675 55.9905 306.456 56.0284C306.236 56.0625 306.022 56.0947 305.814 56.125C305.605 56.1515 305.431 56.1742 305.291 56.1932C304.961 56.2348 304.66 56.3049 304.388 56.4034C304.119 56.5019 303.903 56.6439 303.74 56.8295C303.581 57.0114 303.501 57.2538 303.501 57.5568C303.501 57.9773 303.657 58.2955 303.967 58.5114C304.278 58.7235 304.674 58.8295 305.155 58.8295ZM311.491 60V48.3636H313.247V53.4205H319.048V48.3636H320.809V60H319.048V54.9261H313.247V60H311.491ZM326.991 60.1761C326.131 60.1761 325.391 59.9924 324.77 59.625C324.152 59.2538 323.675 58.733 323.338 58.0625C323.005 57.3883 322.838 56.5985 322.838 55.6932C322.838 54.7992 323.005 54.0114 323.338 53.3295C323.675 52.6477 324.145 52.1155 324.747 51.733C325.353 51.3504 326.061 51.1591 326.872 51.1591C327.364 51.1591 327.842 51.2405 328.304 51.4034C328.766 51.5663 329.181 51.822 329.548 52.1705C329.916 52.5189 330.205 52.9716 330.417 53.5284C330.63 54.0814 330.736 54.7538 330.736 55.5455V56.1477H323.798V54.875H329.071C329.071 54.428 328.98 54.0322 328.798 53.6875C328.616 53.339 328.361 53.0644 328.031 52.8636C327.705 52.6629 327.323 52.5625 326.883 52.5625C326.406 52.5625 325.989 52.6799 325.633 52.9148C325.281 53.1458 325.008 53.4489 324.815 53.8239C324.626 54.1951 324.531 54.5985 324.531 55.0341V56.0284C324.531 56.6117 324.633 57.108 324.838 57.517C325.046 57.9261 325.336 58.2386 325.707 58.4545C326.078 58.6667 326.512 58.7727 327.008 58.7727C327.33 58.7727 327.624 58.7273 327.889 58.6364C328.154 58.5417 328.383 58.4015 328.577 58.2159C328.77 58.0303 328.917 57.8011 329.02 57.5284L330.628 57.8182C330.499 58.2917 330.268 58.7064 329.934 59.0625C329.605 59.4148 329.19 59.6894 328.69 59.8864C328.194 60.0795 327.628 60.1761 326.991 60.1761ZM333.758 51.2727L335.684 54.6705L337.628 51.2727H339.486L336.764 55.6364L339.508 60H337.65L335.684 56.7386L333.724 60H331.861L334.577 55.6364L331.895 51.2727H333.758Z" fill="white"/>
</svg>
