<svg width="390" height="118" viewBox="0 0 390 118" fill="none" xmlns="http://www.w3.org/2000/svg">
<rect x="390" y="168" width="393" height="157" transform="rotate(-180 390 168)" fill="#3A3A9A"/>
<path d="M391 20.0001L391 4.83944C388.676 4.83944 386.959 3.95343 385.242 3.06741C384.837 2.87052 384.433 2.67363 384.13 2.47674C380.291 0.606277 376.553 0.606274 373.219 2.57519C367.764 5.82389 362.612 5.43011 357.358 2.77208C355.944 2.37829 354.53 1.78762 353.216 1.19695C352.408 1.00006 351.499 1.00006 350.691 1.00006C348.973 1.78762 347.256 2.37829 345.437 2.87052C339.78 5.82389 334.426 5.13477 328.869 2.08295C325.535 0.212488 321.797 0.606271 318.666 2.47674C312.907 5.92233 307.452 5.23321 301.794 2.27984C298.562 0.507823 295.43 0.606269 292.096 2.37829C287.045 5.03632 281.69 6.11922 276.235 2.96896C271.992 0.507821 267.648 0.507821 263.405 2.96896C258.05 6.11922 252.797 5.23321 247.746 2.57518C243.806 0.507817 239.967 0.704708 236.33 2.77207C231.177 5.62699 226.328 5.62699 221.277 2.77206C217.337 0.507816 213.094 0.606262 209.053 2.77206C204.103 5.52854 199.253 5.72543 194.202 2.87051C190.06 0.507814 185.615 0.507814 181.473 2.96895C176.624 5.72543 171.774 5.52854 166.925 2.87051C162.783 0.606258 158.641 0.507811 154.499 2.8705C149.65 5.62698 144.699 5.82387 139.648 2.8705C135.506 0.507809 131.263 0.507809 127.222 2.8705C122.07 5.82387 117.221 5.52853 112.169 2.8705C108.229 0.704699 104.188 0.606252 100.248 2.8705C94.9949 5.82387 89.8426 5.72542 84.6902 2.77205C80.9523 0.704694 76.9113 0.704694 73.2744 2.77205C68.021 5.72542 63.0708 5.92231 57.7164 2.8705C53.8774 0.704694 49.7354 0.704694 45.6944 2.8705C40.5421 5.82386 35.5918 5.72542 30.3385 2.87049C26.7015 0.803135 22.8626 0.507799 18.9226 2.87049C13.1641 6.21764 7.40564 5.72541 1.74823 2.6736C0.940004 2.18137 0.131807 1.98448 -0.777434 1.78759C-1.48459 1.5907 -2.29281 1.39381 -3 1.00002L-3 20L391 20.0001Z" fill="#3A3A9A"/>
<path d="M393 15.288C389.082 16.3197 386.64 14.1991 384.141 12.7662C380.337 10.531 376.589 10.4737 373.239 12.8808C367.674 16.9501 362.336 16.377 356.941 12.8235C353.477 10.531 349.786 10.3017 346.549 12.6516C340.473 17.0074 334.908 16.377 329.003 12.4223C325.709 10.1871 321.961 10.6456 318.838 12.8808C313.046 17.1221 307.651 16.2624 302.03 12.5943C298.85 10.4737 295.67 10.5883 292.319 12.7662C287.265 15.9758 281.984 17.3513 276.476 13.454C272.274 10.4736 267.902 10.4163 263.643 13.3967C258.305 17.1794 253.081 16.1477 248.027 12.9381C244.052 10.359 240.304 10.7029 236.613 13.1674C231.502 16.6062 226.675 16.6062 221.621 13.1101C217.646 10.359 213.444 10.4163 209.412 13.1674C204.472 16.4916 199.645 16.7209 194.648 13.282C190.503 10.4163 186.13 10.4163 181.928 13.3967C177.045 16.7782 172.275 16.5489 167.448 13.282C163.359 10.531 159.157 10.4163 155.012 13.282C150.128 16.6635 145.245 16.8355 140.248 13.3393C136.159 10.4736 131.843 10.4163 127.812 13.282C122.701 16.8355 117.817 16.5489 112.764 13.2247C108.845 10.5883 104.757 10.4736 100.839 13.2247C95.6143 16.8355 90.5036 16.7209 85.2793 13.1101C81.5883 10.5309 77.5565 10.5309 73.8654 13.1101C68.6412 16.7209 63.644 16.8928 58.363 13.2247C54.5016 10.5309 50.3562 10.5309 46.3813 13.282C41.2706 16.8355 36.2734 16.7782 31.106 13.2247C27.4717 10.7602 23.6103 10.359 19.7488 13.1674C14.0135 17.294 8.2214 16.6635 2.6564 12.8808C1.17999 11.8492 -0.466797 11.7345 -2 10.8175C-0.182861 9.90048 1.57748 10.4163 3.22427 11.3333C6.06354 12.9954 8.84604 14.7722 12.4235 14.2563C14.3542 13.9698 16.0578 13.6832 17.7046 12.5369C22.5313 9.1554 27.8124 9.27003 32.8095 12.5369C36.6141 15.0587 40.7027 15.1734 44.5074 12.6516C49.7884 9.21272 54.8423 9.21272 60.1234 12.6516C63.7576 15.0014 67.7894 15.3453 71.5372 12.8235C76.8751 9.21272 81.9857 9.09809 87.3236 12.7662C91.1282 15.4026 95.2168 15.2307 99.0214 12.6516C104.189 9.21272 109.186 9.09809 114.354 12.6516C118.215 15.3453 122.303 15.1161 126.051 12.7089C131.446 9.21273 136.5 9.21273 141.895 12.8235C145.472 15.2307 149.617 15.1161 153.138 12.8235C158.533 9.32736 163.587 9.0981 168.924 12.8235C172.899 15.5746 177.045 15.3453 181.077 12.5369C185.79 9.21273 190.616 9.15542 195.386 12.365C199.872 15.4026 204.188 15.1734 208.561 12.3077C213.16 9.32736 217.93 9.21273 222.416 12.2504C227.016 15.3453 231.388 15.1734 235.875 12.3077C240.474 9.32737 245.131 9.27005 249.673 12.365C254.216 15.46 258.645 15.288 263.132 12.3077C267.731 9.27005 272.444 9.38468 276.987 12.365C281.53 15.3453 285.903 15.288 290.445 12.3077C294.931 9.32737 299.531 9.38469 304.017 12.3077C308.56 15.288 312.762 15.3453 317.362 12.3077C321.677 9.442 326.561 9.15542 330.99 12.1931C335.874 15.5746 340.417 15.1734 345.187 12.1358C349.502 9.38469 354.159 9.32737 358.304 12.2504C362.904 15.5173 367.276 15.288 371.705 12.537C377.214 9.09812 382.381 9.55663 387.378 13.454C388.968 14.3137 391.183 13.454 393 15.288Z" fill="white"/>
<path d="M393 10.288C389.082 11.3197 386.64 9.19906 384.141 7.76621C380.337 5.53097 376.589 5.47366 373.239 7.88085C367.674 11.9501 362.336 11.377 356.941 7.82353C353.477 5.53097 349.786 5.30171 346.549 7.65158C340.473 12.0074 334.908 11.377 329.003 7.42233C325.709 5.18708 321.961 5.6456 318.838 7.88084C313.046 12.1221 307.651 11.2624 302.03 7.59427C298.85 5.47365 295.67 5.58827 292.319 7.7662C287.265 10.9758 281.984 12.3513 276.476 8.45398C272.274 5.47365 267.902 5.41633 263.643 8.39666C258.305 12.1794 253.081 11.1477 248.027 7.93814C244.052 5.35901 240.304 5.7029 236.613 8.1674C231.502 11.6062 226.675 11.6062 221.621 8.11009C217.646 5.35901 213.444 5.41633 209.412 8.1674C204.472 11.4916 199.645 11.7209 194.648 8.28203C190.503 5.41633 186.13 5.41632 181.928 8.39665C177.045 11.7782 172.275 11.5489 167.448 8.28202C163.359 5.53095 159.157 5.41632 155.012 8.28202C150.128 11.6635 145.245 11.8355 140.248 8.33933C136.159 5.47363 131.843 5.41632 127.812 8.28202C122.701 11.8355 117.817 11.5489 112.764 8.2247C108.845 5.58826 104.757 5.47363 100.839 8.2247C95.6143 11.8355 90.5036 11.7209 85.2793 8.11007C81.5883 5.53094 77.5565 5.53094 73.8654 8.11007C68.6412 11.7209 63.644 11.8928 58.363 8.2247C54.5016 5.53094 50.3562 5.53094 46.3813 8.28201C41.2706 11.8355 36.2734 11.7782 31.106 8.2247C27.4717 5.76019 23.6103 5.359 19.7488 8.16739C14.0135 12.294 8.2214 11.6635 2.6564 7.88081C1.17999 6.84916 -0.466797 6.73453 -2 5.81751C-0.182861 4.90048 1.57748 5.4163 3.22427 6.33333C6.06354 7.99544 8.84604 9.77217 12.4235 9.25635C14.3542 8.96978 16.0578 8.68321 17.7046 7.53693C22.5313 4.1554 27.8124 4.27003 32.8095 7.53693C36.6141 10.0587 40.7027 10.1734 44.5074 7.65156C49.7884 4.21272 54.8423 4.21272 60.1234 7.65156C63.7576 10.0014 67.7894 10.3453 71.5372 7.8235C76.8751 4.21272 81.9857 4.09809 87.3236 7.76619C91.1282 10.4026 95.2168 10.2307 99.0214 7.65156C104.189 4.21272 109.186 4.09809 114.354 7.65156C118.215 10.3453 122.303 10.1161 126.051 7.70888C131.446 4.21273 136.5 4.21273 141.895 7.82351C145.472 10.2307 149.617 10.1161 153.138 7.82351C158.533 4.32736 163.587 4.0981 168.924 7.82351C172.899 10.5746 177.045 10.3453 181.077 7.53694C185.79 4.21273 190.616 4.15542 195.386 7.365C199.872 10.4026 204.188 10.1734 208.561 7.30769C213.16 4.32736 217.93 4.21273 222.416 7.25038C227.016 10.3453 231.388 10.1734 235.875 7.30769C240.474 4.32737 245.131 4.27005 249.673 7.365C254.216 10.46 258.645 10.288 263.132 7.3077C267.731 4.27005 272.444 4.38468 276.987 7.36501C281.53 10.3453 285.903 10.288 290.445 7.3077C294.931 4.32737 299.531 4.38469 304.017 7.3077C308.56 10.288 312.762 10.3453 317.362 7.3077C321.677 4.442 326.561 4.15542 330.99 7.19307C335.874 10.5746 340.417 10.1734 345.187 7.13576C349.502 4.38469 354.159 4.32737 358.304 7.25039C362.904 10.5173 367.276 10.288 371.705 7.53696C377.214 4.09812 382.381 4.55663 387.378 8.45399C388.968 9.3137 391.183 8.45399 393 10.288Z" fill="white"/>
<path d="M393 5.28803C389.082 6.31969 386.64 4.19906 384.141 2.76621C380.337 0.530966 376.589 0.473659 373.239 2.88085C367.674 6.95014 362.336 6.377 356.941 2.82353C353.477 0.530967 349.786 0.301709 346.549 2.65158C340.473 7.00745 334.908 6.37699 329.003 2.42233C325.709 0.187082 321.961 0.645596 318.838 2.88084C313.046 7.12208 307.651 6.26237 302.03 2.59427C298.85 0.473652 295.67 0.588273 292.319 2.7662C287.265 5.97579 281.984 7.35133 276.476 3.45398C272.274 0.473649 267.902 0.416332 263.643 3.39666C258.305 7.17938 253.081 6.14773 248.027 2.93814C244.052 0.359014 240.304 0.702902 236.613 3.1674C231.502 6.60624 226.675 6.60624 221.621 3.11009C217.646 0.359013 213.444 0.41633 209.412 3.1674C204.472 6.49161 199.645 6.72087 194.648 3.28203C190.503 0.416326 186.13 0.416325 181.928 3.39665C177.045 6.77818 172.275 6.54892 167.448 3.28202C163.359 0.530952 159.157 0.416324 155.012 3.28202C150.128 6.66355 145.245 6.83548 140.248 3.33933C136.159 0.47363 131.843 0.416321 127.812 3.28202C122.701 6.83549 117.817 6.54891 112.764 3.2247C108.845 0.588258 104.757 0.47363 100.839 3.2247C95.6143 6.83548 90.5036 6.72086 85.2793 3.11007C81.5883 0.530943 77.5565 0.530943 73.8654 3.11007C68.6412 6.72085 63.644 6.89279 58.363 3.2247C54.5016 0.530939 50.3562 0.530942 46.3813 3.28201C41.2706 6.83548 36.2734 6.77816 31.106 3.2247C27.4717 0.760193 23.6103 0.359 19.7488 3.16739C14.0135 7.29399 8.2214 6.66354 2.6564 2.88081C1.17999 1.84916 -0.466797 1.73453 -2 0.817506C-0.182861 -0.0995179 1.57748 0.416305 3.22427 1.33333C6.06354 2.99544 8.84604 4.77217 12.4235 4.25635C14.3542 3.96978 16.0578 3.68321 17.7046 2.53693C22.5313 -0.844598 27.8124 -0.729969 32.8095 2.53693C36.6141 5.05875 40.7027 5.17337 44.5074 2.65156C49.7884 -0.787283 54.8423 -0.787283 60.1234 2.65156C63.7576 5.00143 67.7894 5.34532 71.5372 2.8235C76.8751 -0.787279 81.9857 -0.90191 87.3236 2.76619C91.1282 5.40263 95.2168 5.23069 99.0214 2.65156C104.189 -0.787279 109.186 -0.901906 114.354 2.65156C118.215 5.34532 122.303 5.11607 126.051 2.70888C131.446 -0.787272 136.5 -0.787274 141.895 2.82351C145.472 5.2307 149.617 5.11607 153.138 2.82351C158.533 -0.672644 163.587 -0.901899 168.924 2.82351C172.899 5.57458 177.045 5.34533 181.077 2.53694C185.79 -0.78727 190.616 -0.844585 195.386 2.365C199.872 5.40264 204.188 5.17339 208.561 2.30769C213.16 -0.672636 217.93 -0.787267 222.416 2.25038C227.016 5.34533 231.388 5.17339 235.875 2.30769C240.474 -0.672633 245.131 -0.729952 249.673 2.365C254.216 5.45996 258.645 5.28802 263.132 2.3077C267.731 -0.729945 272.444 -0.615322 276.987 2.36501C281.53 5.34533 285.903 5.28803 290.445 2.3077C294.931 -0.672628 299.531 -0.615314 304.017 2.3077C308.56 5.28803 312.762 5.34534 317.362 2.3077C321.677 -0.557998 326.561 -0.844575 330.99 2.19307C335.874 5.57459 340.417 5.1734 345.187 2.13576C349.502 -0.615312 354.159 -0.672627 358.304 2.25039C362.904 5.51729 367.276 5.28803 371.705 2.53696C377.214 -0.901881 382.381 -0.443365 387.378 3.45399C388.968 4.3137 391.183 3.45399 393 5.28803Z" fill="white"/>
</svg>
