<svg width="28" height="29" viewBox="0 0 28 29" fill="none" xmlns="http://www.w3.org/2000/svg">
<path d="M10.2595 26.1992V22.164C10.2595 21.1377 11.0962 20.3037 12.1329 20.2968H15.9304C16.972 20.2968 17.8165 21.1328 17.8165 22.164V26.2117C17.8162 27.0832 18.5188 27.7954 19.3987 27.8158H21.9304C24.4541 27.8158 26.5 25.7904 26.5 23.2919V11.8129C26.4865 10.83 26.0204 9.90704 25.2342 9.30662L16.5759 2.40171C15.0591 1.19943 12.9029 1.19943 11.3861 2.40171L2.76582 9.31915C1.97666 9.91713 1.50972 10.8417 1.5 11.8255V23.2919C1.5 25.7904 3.54589 27.8158 6.06962 27.8158H8.60127C9.5031 27.8158 10.2342 27.092 10.2342 26.1992" stroke="black" stroke-width="1.5" stroke-linecap="round" stroke-linejoin="round"/>
</svg>
