<svg width="33" height="34" viewBox="0 0 33 34" fill="none" xmlns="http://www.w3.org/2000/svg">
<path d="M4.38281 12.875H6.1875C6.3293 12.875 6.44531 12.759 6.44531 12.6172V6.94531H12.1172C12.259 6.94531 12.375 6.8293 12.375 6.6875V4.88281C12.375 4.74102 12.259 4.625 12.1172 4.625H6.31641C5.10469 4.625 4.125 5.60469 4.125 6.81641V12.6172C4.125 12.759 4.24102 12.875 4.38281 12.875ZM20.8828 6.94531H26.5547V12.6172C26.5547 12.759 26.6707 12.875 26.8125 12.875H28.6172C28.759 12.875 28.875 12.759 28.875 12.6172V6.81641C28.875 5.60469 27.8953 4.625 26.6836 4.625H20.8828C20.741 4.625 20.625 4.74102 20.625 4.88281V6.6875C20.625 6.8293 20.741 6.94531 20.8828 6.94531ZM12.1172 27.0547H6.44531V21.3828C6.44531 21.241 6.3293 21.125 6.1875 21.125H4.38281C4.24102 21.125 4.125 21.241 4.125 21.3828V27.1836C4.125 28.3953 5.10469 29.375 6.31641 29.375H12.1172C12.259 29.375 12.375 29.259 12.375 29.1172V27.3125C12.375 27.1707 12.259 27.0547 12.1172 27.0547ZM28.6172 21.125H26.8125C26.6707 21.125 26.5547 21.241 26.5547 21.3828V27.0547H20.8828C20.741 27.0547 20.625 27.1707 20.625 27.3125V29.1172C20.625 29.259 20.741 29.375 20.8828 29.375H26.6836C27.8953 29.375 28.875 28.3953 28.875 27.1836V21.3828C28.875 21.241 28.759 21.125 28.6172 21.125ZM29.1328 15.8398H3.86719C3.72539 15.8398 3.60938 15.9559 3.60938 16.0977V17.9023C3.60938 18.0441 3.72539 18.1602 3.86719 18.1602H29.1328C29.2746 18.1602 29.3906 18.0441 29.3906 17.9023V16.0977C29.3906 15.9559 29.2746 15.8398 29.1328 15.8398Z" fill="#1F1F1F"/>
</svg>
