<svg width="12" height="16" viewBox="0 0 12 16" fill="none" xmlns="http://www.w3.org/2000/svg">
<g clip-path="url(#clip0_168_85452)">
<path d="M3.90888 1.88374C3.90888 1.36277 4.3354 0.941864 4.86332 0.941864H10.59C11.1179 0.941864 11.5444 1.36277 11.5444 1.88374C11.5444 2.40472 11.1179 2.82563 10.59 2.82563H8.83916L4.86332 12.2444H6.7722C7.30012 12.2444 7.72664 12.6653 7.72664 13.1863C7.72664 13.7073 7.30012 14.1282 6.7722 14.1282H1.04556C0.517641 14.1282 0.0911255 13.7073 0.0911255 13.1863C0.0911255 12.6653 0.517641 12.2444 1.04556 12.2444H2.79636L6.7722 2.82563H4.86332C4.3354 2.82563 3.90888 2.40472 3.90888 1.88374Z" fill="#212121"/>
</g>
<defs>
<clipPath id="clip0_168_85452">
<rect width="11.4533" height="15.0701" fill="white" transform="translate(0.0911255)"/>
</clipPath>
</defs>
</svg>
