<svg width="20" height="20" viewBox="0 0 20 20" fill="none" xmlns="http://www.w3.org/2000/svg">
<path d="M2.34488 0C7.44568 0 12.5504 0 17.6551 0C17.6786 0.054816 17.7334 0.0352388 17.7726 0.0430697C19.0761 0.305403 19.9961 1.39389 19.9961 2.70948C20 7.57243 20 12.4354 19.9961 17.2984C19.9961 18.7862 18.7865 19.9961 17.295 19.9961C12.433 20 7.57095 20 2.70895 19.9961C1.43668 19.9961 0.360149 19.1229 0.0704639 17.8857C0.0548052 17.8191 0.0704639 17.7408 0 17.6938C0 12.5646 0 7.4354 0 2.30227C0.0704639 2.25529 0.0508906 2.17698 0.0704639 2.11041C0.336661 1.07283 0.994324 0.403289 2.01605 0.0900548C2.12566 0.0587314 2.24702 0.0704777 2.34488 0ZM10.6518 8.89193C10.6518 8.66875 10.6557 8.50039 10.6518 8.33203C10.644 8.01879 10.5069 7.88175 10.1938 7.88175C9.61441 7.87784 9.03504 7.87784 8.45567 7.88175C8.14249 7.88175 8.00548 8.02271 8.00548 8.33986C8.00548 10.8262 8.00548 13.3125 8.00548 15.7987C8.00548 16.1041 8.15424 16.2529 8.45958 16.2529C8.9998 16.2529 9.54003 16.2529 10.0803 16.2529C10.5304 16.2529 10.64 16.1433 10.64 15.6852C10.64 14.4362 10.6361 13.1872 10.64 11.9381C10.64 11.4683 10.7457 11.0219 11.0002 10.6226C11.3251 10.1214 11.8027 9.96476 12.3703 10.0431C12.8831 10.1135 13.1924 10.4268 13.3529 10.9045C13.4899 11.3117 13.5017 11.7345 13.5017 12.1574C13.5017 13.3594 13.4977 14.5654 13.4977 15.7674C13.4977 16.1237 13.6269 16.2529 13.9793 16.2529C14.5586 16.2529 15.138 16.2529 15.7174 16.2529C16.0658 16.2529 16.2028 16.1159 16.2028 15.7674C16.2028 14.3931 16.2067 13.0227 16.1989 11.6484C16.195 11.0767 16.148 10.5051 16.007 9.94518C15.7487 8.92717 15.2006 8.16758 14.1358 7.87392C13.8148 7.78387 13.4821 7.74863 13.1533 7.74863C12.3899 7.75254 11.6618 7.87392 11.0707 8.41425C10.9297 8.54346 10.8123 8.70008 10.6518 8.89193ZM4.17694 12.0556C4.17694 13.285 4.17694 14.5145 4.17694 15.7439C4.17694 16.0885 4.33353 16.2451 4.67802 16.2451C5.21824 16.2451 5.75847 16.2451 6.29869 16.2451C6.66667 16.2451 6.81934 16.0924 6.81934 15.7204C6.81934 13.2733 6.81934 10.8262 6.81934 8.37901C6.81934 8.01879 6.66667 7.87001 6.30652 7.86609C5.7663 7.86218 5.22607 7.86218 4.68585 7.86609C4.32178 7.87001 4.17694 8.01879 4.17694 8.37901C4.17694 9.60846 4.17694 10.834 4.17694 12.0556ZM7.19906 5.43461C7.1834 4.4675 6.41221 3.72749 5.44921 3.74706C4.53318 3.76664 3.78156 4.55364 3.79331 5.47768C3.80896 6.4213 4.58407 7.16523 5.53924 7.14957C6.46702 7.13782 7.21472 6.36648 7.19906 5.43461Z" fill="#007BBC"/>
</svg>
