<svg width="24" height="24" viewBox="0 0 24 24" fill="none" xmlns="http://www.w3.org/2000/svg">
<path d="M11.9934 2C16.6561 2 20.5 5.71789 20.5 10.3178C20.5 12.6357 19.657 14.7876 18.2695 16.6116C16.7388 18.6235 14.8522 20.3765 12.7285 21.7524C12.2425 22.0704 11.8039 22.0944 11.2704 21.7524C9.13474 20.3765 7.24809 18.6235 5.7305 16.6116C4.34198 14.7876 3.5 12.6357 3.5 10.3178C3.5 5.71789 7.34388 2 11.9934 2ZM11.9934 7.77683C10.4517 7.77683 9.19423 9.0478 9.19423 10.5768C9.19423 12.1177 10.4517 13.3297 11.9934 13.3297C13.5362 13.3297 14.8058 12.1177 14.8058 10.5768C14.8058 9.0478 13.5362 7.77683 11.9934 7.77683Z" fill="black"/>
<path d="M11.9934 2C16.6561 2 20.5 5.71789 20.5 10.3178C20.5 12.6357 19.657 14.7876 18.2695 16.6116C16.7388 18.6235 14.8522 20.3765 12.7285 21.7524C12.2425 22.0704 11.8039 22.0944 11.2704 21.7524C9.13474 20.3765 7.24809 18.6235 5.7305 16.6116C4.34198 14.7876 3.5 12.6357 3.5 10.3178C3.5 5.71789 7.34388 2 11.9934 2ZM11.9934 7.77683C10.4517 7.77683 9.19423 9.0478 9.19423 10.5768C9.19423 12.1177 10.4517 13.3297 11.9934 13.3297C13.5362 13.3297 14.8058 12.1177 14.8058 10.5768C14.8058 9.0478 13.5362 7.77683 11.9934 7.77683Z" fill="url(#paint0_linear_18_8529)"/>
<path d="M11.9934 2C16.6561 2 20.5 5.71789 20.5 10.3178C20.5 12.6357 19.657 14.7876 18.2695 16.6116C16.7388 18.6235 14.8522 20.3765 12.7285 21.7524C12.2425 22.0704 11.8039 22.0944 11.2704 21.7524C9.13474 20.3765 7.24809 18.6235 5.7305 16.6116C4.34198 14.7876 3.5 12.6357 3.5 10.3178C3.5 5.71789 7.34388 2 11.9934 2ZM11.9934 7.77683C10.4517 7.77683 9.19423 9.0478 9.19423 10.5768C9.19423 12.1177 10.4517 13.3297 11.9934 13.3297C13.5362 13.3297 14.8058 12.1177 14.8058 10.5768C14.8058 9.0478 13.5362 7.77683 11.9934 7.77683Z" fill="url(#paint1_linear_18_8529)"/>
<defs>
<linearGradient id="paint0_linear_18_8529" x1="6.07576" y1="0.648647" x2="21.7054" y2="2.24973" gradientUnits="userSpaceOnUse">
<stop offset="0.280779" stop-color="#FE9D44"/>
<stop offset="1" stop-color="#FFBC5D"/>
</linearGradient>
<linearGradient id="paint1_linear_18_8529" x1="6.5" y1="2" x2="19" y2="22.5" gradientUnits="userSpaceOnUse">
<stop stop-color="#3E81C2"/>
<stop offset="1" stop-color="#49BDF2"/>
</linearGradient>
</defs>
</svg>
