<svg width="390" height="167" viewBox="0 0 390 167" fill="none" xmlns="http://www.w3.org/2000/svg">
<path d="M383.173 159.024C380.707 159.779 378.991 159.186 377.328 158.269C376.095 157.568 374.861 156.814 373.628 156.113C369.982 154.118 366.711 155.682 363.6 157.514C359.203 160.048 354.967 160.426 350.516 157.568C346.28 154.765 341.99 154.603 337.593 157.622C333.571 160.426 329.174 160.426 325.045 157.676C320.272 154.442 315.661 155.142 311.21 158.161C307.188 160.857 303.327 160.048 299.466 157.838C296.731 156.221 293.997 154.765 290.726 155.682C288.42 156.328 286.275 157.407 284.291 158.808C282.36 160.156 277.159 160.372 275.228 158.862C273.512 157.514 271.582 156.652 269.651 155.843C266.219 154.334 263.109 155.897 260.482 157.838C257.532 159.94 254.368 160.318 251.097 159.725C249.167 159.401 247.665 157.676 245.949 156.652C241.767 154.172 238.174 155.52 234.796 157.784C231.846 159.779 228.897 160.048 225.68 159.455C223.535 159.024 221.926 157.514 219.995 156.598C216.081 154.765 212.595 155.52 209.163 157.622C204.82 160.318 200.476 160.426 196.347 157.568C192.111 154.657 187.875 154.765 183.907 157.407C179.188 160.534 174.469 160.318 170.125 157.461C165.46 154.442 161.384 155.789 157.255 158C153.448 160.048 149.694 160.372 145.887 158.215C143.903 157.083 141.919 155.843 139.56 155.628C136.878 155.412 134.358 156.328 132.32 157.622C127.601 160.534 122.99 160.156 118.646 157.461C114.195 154.657 110.227 155.088 106.045 157.784C102.13 160.318 98.1618 160.156 94.14 158.054C92.3168 157.083 90.6009 156.059 88.5631 155.682C85.453 155.035 82.8254 156.436 80.3051 157.892C76.1224 160.372 71.9397 160.264 67.9179 157.73C63.5208 154.927 59.1772 154.549 54.8337 157.73C50.5438 160.911 46.2002 160.318 42.1784 157.676C37.674 154.657 33.4377 155.142 29.2014 157.73C24.8579 160.372 20.568 160.372 16.3853 157.676C14.3476 156.382 12.0418 155.789 9.41418 154.711C12.0954 153.795 14.0258 154.603 15.6346 155.735C20.568 159.347 25.126 159.186 30.1667 155.735C34.6174 152.716 39.2827 154.064 43.4654 156.868C46.951 159.186 50.4901 159.186 53.7076 156.975C58.9627 153.417 63.8425 153.363 69.0977 156.975C72.3687 159.24 76.176 159.24 79.4471 156.975C84.7022 153.309 89.582 153.417 94.7835 156.975C98.1618 159.294 102.023 159.24 105.347 156.814C110.495 153.094 115.536 153.525 120.523 156.814C124.116 159.24 127.709 159.132 130.98 156.814C136.181 153.202 141.007 153.417 146.102 156.921C149.319 159.132 153.019 159.24 156.183 157.029C161.867 153.094 167.122 153.471 172.699 157.353C175.488 159.294 179.027 159.078 181.815 157.083C187.499 152.932 192.808 153.579 198.385 157.299C201.388 159.294 204.82 159.078 207.716 156.975C213.346 152.932 218.601 153.471 223.964 157.353C226.001 158.862 230.613 158.916 232.651 157.407C237.96 153.525 243.215 152.878 248.899 156.975C252.116 159.294 255.924 159.186 259.248 156.921C264.45 153.363 269.383 153.309 274.638 156.975C277.802 159.186 281.502 159.186 284.773 157.029C290.243 153.417 295.069 153.04 300.646 157.353C303.059 159.24 307.134 159.186 310.298 157.137C311.961 156.113 313.516 154.873 315.5 154.442C318.771 153.741 321.881 154.118 324.669 156.113C328.53 158.862 332.391 159.401 336.574 156.598C341.507 153.309 346.441 153.202 351.535 156.814C354.86 159.186 358.774 159.24 362.099 156.814C367.676 152.77 372.985 153.687 378.186 157.137C379.688 157.946 381.296 157.838 383.173 159.024Z" fill="#EDF4FC"/>
<path d="M196.347 166.086C341.79 166.086 459.695 165.893 459.695 165.655C459.695 165.417 341.79 165.224 196.347 165.224C50.9046 165.224 -67 165.417 -67 165.655C-67 165.893 50.9046 166.086 196.347 166.086Z" fill="#EDF4FC"/>
<path d="M382.53 139.131C258.39 139.131 134.304 139.131 10.1649 139.131C10.1649 138.969 10.1649 138.753 10.1649 138.592C134.304 138.592 258.39 138.592 382.53 138.592C382.476 138.753 382.53 138.915 382.53 139.131Z" fill="#EDF4FC"/>
<path d="M5 108.579C9.82616 108.202 11.7566 104.59 14.5451 102.056C15.9393 100.762 16.8509 100.978 17.977 102.434C21.4626 107.124 21.7843 107.07 25.7525 103.027C30.0424 98.6597 34.3859 94.3469 38.6759 89.9262C39.802 88.794 40.4991 88.6323 41.7324 89.8183C47.2557 95.2094 52.4036 100.978 58.3022 105.992C58.7312 106.369 58.9993 107.016 59.3211 107.555C61.3052 110.682 64.3617 111.167 67.74 110.951C65.0588 112.407 62.1632 112.03 60.3399 110.143C57.1225 106.908 53.6369 103.889 50.7412 100.385C48.8108 98.0128 46.1296 98.1745 44.0382 98.2285C40.4454 98.3363 36.8526 98.7676 33.2598 98.6058C32.0801 98.5519 31.1685 99.3606 30.4714 100.008C28.1119 102.056 26.0206 104.374 23.822 106.639C23.0713 107.393 23.5539 108.04 24.0365 108.741C24.7336 109.711 25.967 110.251 26.5568 112.084C23.5003 110.305 21.7843 107.879 19.7466 105.884C16.0465 102.38 16.1538 102.272 12.6146 105.722C11.703 106.585 10.6841 107.393 9.98703 108.418C8.70006 110.197 7.35945 110.251 5 108.579ZM37.1744 94.1851C39.5338 94.8321 41.9469 94.239 44.4136 94.5086C39.8556 89.0636 40.6063 89.1175 36.799 93.7538C36.4773 93.8617 36.0483 94.0773 36.2091 94.3469C36.4773 94.8321 36.8526 94.5086 37.1744 94.1851ZM46.9876 97.4737C46.7194 96.3416 46.2368 95.7485 45.7006 95.6946C42.1078 95.5329 38.515 95.479 34.8685 95.5329C34.2787 95.5329 33.4207 96.3416 33.5816 96.9885C33.9033 98.0128 34.7077 97.4198 35.2975 97.0963C35.6193 96.9346 35.9947 96.7189 36.2628 96.7728C39.7483 97.8511 43.2875 96.4494 46.9876 97.4737Z" fill="#EDF4FC"/>
<path d="M371.633 108.381C369.327 110.376 367.986 110.16 366.646 108.381C365.734 107.195 364.501 106.225 363.482 105.146C360.854 102.397 360.533 102.343 357.744 104.985C355.975 106.656 354.366 108.435 352.704 110.16C352.114 110.753 351.685 111.67 350.398 111.616C350.451 110.322 351.47 109.891 352.167 109.244C353.508 108.058 353.615 106.979 352.167 105.685C350.719 104.392 349.272 102.99 348.038 101.48C345.572 98.4614 342.461 98.2457 338.761 98.4075C335.758 98.5153 332.702 98.8387 329.699 98.5153C328.573 98.4075 327.554 98.5153 326.803 99.4318C324.336 102.451 321.226 104.877 318.813 108.004C316.507 111.023 313.129 112.802 309 111.4C309.054 110.376 309.912 110.645 310.394 110.753C313.29 111.184 315.22 109.891 317.151 107.842C322.889 101.858 328.841 96.1432 334.579 90.1591C336.08 88.5957 336.992 88.6496 338.44 90.1052C343.051 94.9033 347.877 99.5396 352.489 104.392C354.098 106.063 355.385 106.009 356.993 104.445C360.854 100.726 360.908 100.726 364.554 104.499C366.324 106.494 368.094 108.489 371.633 108.381ZM333.238 94.1485C334.793 94.3102 336.295 94.472 337.85 94.5259C338.44 94.5259 339.19 94.2024 339.512 93.7711C339.941 93.1781 339.19 92.6929 338.761 92.2616C336.402 89.62 336.402 89.62 333.989 92.2616C333.56 92.6929 333.238 93.232 332.863 93.7172C332.595 93.8789 332.058 93.9868 332.38 94.4181C332.595 94.7415 332.97 94.472 333.238 94.1485ZM343.158 97.0058C342.676 96.1971 342.3 95.2267 341.443 95.3885C339.566 95.7119 337.689 95.3885 335.812 95.4424C334.257 95.4963 332.702 95.3884 331.147 95.5502C330.396 95.6041 329.484 96.1432 329.806 97.1136C330.074 97.8684 330.771 97.3832 331.361 97.1675C333.292 96.5745 335.329 96.9519 337.206 97.1136C338.869 97.2753 340.799 95.7119 342.354 97.491C342.354 97.5449 342.837 97.1675 343.158 97.0058ZM340.424 94.2563C340.37 94.2024 340.316 94.1485 340.263 94.0946C340.209 94.1485 340.156 94.2024 340.102 94.2563C340.156 94.3102 340.209 94.4181 340.263 94.4181C340.316 94.4181 340.37 94.3102 340.424 94.2563Z" fill="#EDF4FC"/>
<path d="M43.5252 59.3698C43.7397 60.8793 43.6861 62.1193 41.5948 60.502C40.7368 59.855 39.8788 60.2863 39.0745 60.7176C35.7498 62.3888 32.3715 61.6341 28.9931 61.095C28.1352 60.9872 27.3308 60.2863 27.2236 59.3159C27.1163 58.2916 28.0815 58.022 28.7786 57.6986C32.1033 56.243 35.4816 56.0813 38.9136 57.4829C39.7716 57.8064 40.6832 58.6151 41.6484 57.8064C44.1687 55.7039 43.5252 57.8603 43.5252 59.3698ZM39.1817 59.2081C35.3744 57.3212 31.7816 57.429 29.2076 59.3698C32.4787 60.9332 35.6961 61.0411 39.1817 59.2081Z" fill="#EDF4FC"/>
<path d="M23.899 47.0781C25.3468 46.7547 26.8483 47.5094 28.3498 47.9946C29.315 48.3181 30.1194 48.7494 31.0846 47.9407C31.5136 47.5633 32.3716 46.9703 32.5861 47.8868C32.9078 48.965 32.8542 50.205 32.6933 51.3371C32.5861 52.0379 31.8889 51.6606 31.3527 51.5527C29.5831 51.2293 27.8671 51.5527 26.0976 51.984C23.3091 52.631 20.6815 52.1458 18.1612 50.9058C16.3916 49.9893 16.8206 49.0189 18.2685 48.3181C19.9844 47.4016 21.8076 47.0781 23.899 47.0781ZM18.3221 49.6659C22.0758 51.2293 25.1323 51.4449 28.6715 49.558C25.1323 47.8329 22.1294 47.8329 18.3221 49.6659Z" fill="#EDF4FC"/>
<path d="M49.8529 54.7874C47.8688 54.8952 45.992 54.3022 44.1688 53.5474C43.5789 53.3318 43.0963 52.9005 43.0427 52.1457C42.9891 51.3371 43.6326 51.1753 44.2224 50.9058C47.708 49.3963 51.1935 49.0189 54.7863 50.5823C55.8052 51.0136 56.824 51.2832 57.7357 50.3667C58.0574 50.0432 58.4864 49.7737 58.9154 50.151C59.3444 50.4745 59.2371 50.9058 58.969 51.3371C58.8081 51.6605 58.54 52.0379 58.6473 52.3075C59.7734 55.2726 58.4864 54.5178 56.7168 53.7631C55.9124 53.4396 54.7327 53.9248 53.7675 54.2483C52.5341 54.6796 51.1935 54.8413 49.8529 54.7874ZM54.84 52.2536C51.4617 50.6901 48.4587 50.6362 45.2413 52.2536C48.4587 53.9248 51.408 53.9248 54.84 52.2536Z" fill="#EDF4FC"/>
<path d="M350.277 0C351.564 0.700843 353.066 0.485201 354.621 0.107824C355.693 -0.161731 356.658 0.485202 357.356 1.4556C357.731 1.99471 357.999 2.64164 357.248 3.07293C356.444 3.55813 356.498 2.69555 356.283 2.26426C355.586 1.02431 354.889 1.72516 354.138 2.21035C353.066 2.9112 352.047 4.09724 351.028 1.99471C350.438 0.808667 349.58 1.72515 348.829 2.15644C348.347 2.426 348.079 3.55813 347.382 2.85728C346.684 2.10253 347.435 1.40169 347.918 0.808665C348.508 0.215644 349.258 0 350.277 0Z" fill="#EDF4FC"/>
<path d="M332.152 6.19976C330.704 4.52852 329.31 3.07293 327.702 5.60674C327.487 5.93021 327.004 6.09195 326.79 5.76848C325.235 3.12684 323.733 4.52853 322.017 6.30759C321.857 3.98942 322.822 2.80337 324.484 2.80337C326.361 2.85729 328.184 2.74946 330.061 2.80337C331.67 2.85729 332.796 3.9355 332.152 6.19976Z" fill="#EDF4FC"/>
<path d="M133.929 133.74C133.232 132.015 130.926 131.368 131.033 130.236C131.141 129.049 132.91 127.432 134.143 127.217C135.001 127.055 137.146 129.211 137.039 130.02C136.825 131.314 135.162 132.392 133.929 133.74Z" fill="#EDF4FC"/>
<path d="M345.119 53.757C345.012 55.59 343.886 56.9917 341.795 56.9917C339.757 57.0456 338.47 55.8596 338.309 53.7031C338.148 51.4928 339.543 50.4146 341.419 50.0372C343.296 49.7137 345.066 51.5467 345.119 53.757ZM341.848 51.331C340.508 51.385 339.596 52.1397 339.489 53.4336C339.382 54.8892 340.347 55.8057 341.741 55.8057C343.082 55.8596 343.832 54.8353 343.94 53.5953C344.047 52.2475 343.135 51.5467 341.848 51.331Z" fill="#EDF4FC"/>
<path d="M354.752 134.009C354.592 131.691 351.16 131.583 352.715 129.373C353.144 128.726 353.841 125.815 355.771 127.756C356.576 128.564 358.935 128.996 357.916 130.667C357.273 131.583 356.093 132.446 354.752 134.009Z" fill="#EDF4FC"/>
<path d="M372.019 129.858C372.019 130.451 368.909 133.578 368.748 133.362C367.676 132.23 366.657 131.044 365.638 129.912C366.711 128.942 367.837 127.217 368.909 127.217C369.982 127.217 371.054 128.996 372.019 129.858ZM369.982 130.074C369.767 129.427 369.392 128.888 368.748 128.942C368.212 128.996 367.783 129.481 367.729 130.02C367.676 130.721 368.212 131.26 368.802 131.26C369.392 131.314 369.821 130.775 369.982 130.074Z" fill="#EDF4FC"/>
<path d="M65.2903 133.955C64.6468 133.255 64.2179 132.823 63.8425 132.338C63.2526 131.422 61.5367 130.99 61.912 129.858C62.2874 128.672 64.057 128.456 64.7005 127.217C64.9686 126.677 65.4512 127.109 65.7729 127.486C66.3092 128.079 66.7918 128.834 67.4353 129.157C68.7223 129.858 68.8295 130.343 67.4889 131.098C66.5237 131.637 65.9874 132.662 65.2903 133.955ZM66.3628 129.912C65.9874 129.589 65.6121 128.942 65.2367 128.996C64.7005 129.049 64.0034 129.481 64.1106 130.236C64.1642 130.775 64.6468 131.368 65.1831 131.314C65.773 131.26 66.2556 130.721 66.3628 129.912Z" fill="#EDF4FC"/>
<path d="M247.665 129.858C247.665 130.397 244.394 133.524 244.126 133.416C242.786 132.769 241.499 131.529 241.552 130.397C241.606 128.888 243.375 127.432 244.609 127.27C245.467 127.109 246.7 128.996 247.665 129.858ZM244.341 128.834C243.912 129.211 243.161 129.535 243.268 130.182C243.375 130.829 243.858 131.583 244.609 131.422C245.199 131.314 245.735 130.721 245.574 130.074C245.467 129.427 245.038 128.942 244.341 128.834Z" fill="#EDF4FC"/>
<path d="M106.366 133.632C105.294 132.392 104.275 131.152 103.202 129.912C104.543 128.996 105.776 127.917 106.473 126.516C107.117 126.57 107.01 127.109 107.224 127.27C110.656 129.804 108.833 131.745 106.366 133.632ZM107.653 129.804C107.331 129.535 106.902 128.942 106.527 128.942C105.937 128.942 105.347 129.427 105.401 130.182C105.455 130.721 105.991 131.206 106.473 131.206C107.171 131.206 107.546 130.667 107.653 129.804Z" fill="#EDF4FC"/>
<path d="M337.032 12.6691C336.925 10.0274 338.104 9.16485 339.767 9.21876C341.376 9.27267 342.931 9.32658 344.539 9.21876C346.148 9.16485 347.435 9.9196 347.381 12.3456C345.719 10.7283 344.218 9.16485 342.663 11.9143C342.448 12.2378 341.965 12.2378 341.751 11.9143C340.196 9.00312 338.694 10.6744 337.032 12.6691Z" fill="#EDF4FC"/>
<path d="M23.7854 133.74C23.2492 133.039 23.0347 132.715 22.7666 132.392C20.4607 129.804 20.4607 129.858 23.0883 127.486C23.7318 126.893 23.9463 126.893 24.4825 127.54C25.7695 129.049 28.2898 130.343 24.7507 132.122C24.4289 132.338 24.268 133.039 23.7854 133.74ZM25.126 130.236C25.0188 129.642 24.6434 129.103 24.0535 128.888C23.3028 128.618 22.9274 129.319 22.7129 129.858C22.3912 130.613 22.9811 131.044 23.5709 131.206C24.3217 131.422 24.7507 130.882 25.126 130.236Z" fill="#EDF4FC"/>
<path d="M79.0717 133.955C77.7311 132.446 77.034 130.829 75.2644 130.182C75.6398 129.804 75.9615 129.643 76.1224 129.373C77.9456 126.893 79.7152 127.055 81.6993 129.265C82.3964 130.02 82.5036 130.236 81.6457 130.829C80.5732 131.529 79.6079 132.392 79.0717 133.955ZM80.1442 129.966C79.7688 129.535 79.5007 128.726 78.8036 128.996C78.2673 129.157 77.7311 129.643 77.9456 130.397C78.1065 130.882 78.4282 131.475 79.0181 131.26C79.6079 131.098 80.0906 130.667 80.1442 129.966Z" fill="#EDF4FC"/>
<path d="M147.978 133.632C146.906 132.446 145.244 131.422 145.083 130.236C144.868 128.834 146.852 127.217 147.818 127.217C148.89 127.217 150.981 129.103 150.928 129.912C150.767 131.152 149.105 132.284 147.978 133.632ZM147.925 131.368C148.407 131.098 148.997 130.829 148.997 130.128C148.997 129.535 148.515 129.157 147.978 129.103C147.281 129.049 146.745 129.535 146.799 130.236C146.799 130.721 147.228 131.152 147.925 131.368Z" fill="#EDF4FC"/>
<path d="M296.141 130.074C296.678 129.696 297.268 129.535 297.482 129.103C299.144 126.3 300.431 127.324 301.933 129.265C302.523 130.02 303.22 130.559 301.987 130.936C300.753 131.314 300.914 134.387 298.769 132.554C297.911 131.799 297.107 130.99 296.141 130.074ZM300.86 130.128C300.7 129.427 300.324 128.888 299.627 128.888C299.037 128.888 298.715 129.535 298.662 130.02C298.608 130.667 298.93 131.368 299.627 131.368C300.271 131.368 300.7 130.775 300.86 130.128Z" fill="#EDF4FC"/>
<path d="M285.846 133.74C284.666 132.338 284.022 130.775 282.146 130.289C283.433 129.157 284.451 127.432 285.738 127.27C286.972 127.109 287.723 129.427 289.653 129.804C288.205 131.152 286.65 131.961 285.846 133.74ZM285.846 131.26C286.436 131.098 287.079 130.829 287.133 130.182C287.186 129.481 286.489 129.211 285.899 129.103C285.309 128.996 284.88 129.481 284.827 130.02C284.72 130.667 285.202 131.098 285.846 131.26Z" fill="#EDF4FC"/>
<path d="M34.4565 129.75C34.671 129.589 35.1 129.319 35.4754 128.996C36.1725 128.349 36.9232 127.109 37.5131 127.163C38.6392 127.378 39.0146 128.996 40.2479 129.481C40.4088 129.535 40.6233 130.02 40.5697 130.074C39.6581 131.152 38.8537 132.392 37.7276 133.147C36.9232 133.686 36.5479 132.392 36.0116 131.853C35.529 131.26 35.1 130.559 34.4565 129.75ZM37.5131 131.314C38.1566 131.152 38.6392 130.775 38.6928 130.074C38.7465 129.319 38.1566 128.996 37.5131 128.996C36.8696 129.049 36.387 129.535 36.3334 130.182C36.2798 130.99 36.8696 131.206 37.5131 131.314Z" fill="#EDF4FC"/>
<path d="M95.7488 129.804C94.7299 130.99 93.7647 132.068 92.7995 133.201C91.6734 132.122 90.5472 131.098 89.4211 130.02C90.4936 128.996 91.5125 127.217 92.585 127.217C93.7111 127.217 94.7835 128.942 95.7488 129.804ZM93.8719 129.804C93.5502 129.535 93.1748 128.996 92.7458 128.996C92.156 128.996 91.6197 129.535 91.6197 130.236C91.6197 130.829 92.156 131.206 92.6922 131.206C93.3357 131.152 93.7647 130.667 93.8719 129.804Z" fill="#EDF4FC"/>
<path d="M254.529 129.912C256.299 129.157 257.371 128.133 258.229 126.3C258.819 128.295 261.554 128.672 260.75 130.667C260.374 131.529 259.302 133.632 257.908 133.093C256.889 132.662 256.138 131.044 254.529 129.912ZM259.516 130.182C259.409 129.589 259.087 129.103 258.39 129.049C257.747 128.996 257.157 129.373 257.05 130.02C256.942 130.829 257.586 131.422 258.229 131.475C258.819 131.529 259.248 130.882 259.516 130.182Z" fill="#EDF4FC"/>
<path d="M203.104 133.578C202.621 132.985 202.3 132.554 201.978 132.176C201.334 131.422 200.637 130.667 199.94 129.912C200.905 129.157 201.871 128.403 202.568 127.324C202.997 126.677 203.372 127.055 203.855 127.378C206.429 129.427 206.429 129.804 204.284 132.176C203.908 132.554 203.586 132.985 203.104 133.578ZM204.337 130.074C204.123 129.427 203.694 128.834 203.05 128.834C202.46 128.834 201.817 129.427 201.871 130.074C201.924 130.775 202.353 131.529 203.211 131.368C203.747 131.314 204.23 130.775 204.337 130.074Z" fill="#EDF4FC"/>
<path d="M341.239 133.686C340.81 133.093 340.542 132.554 340.167 132.284C338.183 130.936 337.432 129.642 340.06 128.187C340.757 127.81 341.239 125.869 342.044 127.756C342.526 128.888 346.441 129.157 343.17 131.422C342.473 131.907 341.99 132.769 341.239 133.686ZM341.454 131.422C341.722 130.936 342.58 130.775 342.365 130.02C342.204 129.535 341.775 128.834 341.078 128.996C340.596 129.103 340.06 129.535 340.167 130.128C340.22 130.775 340.649 131.26 341.454 131.422Z" fill="#EDF4FC"/>
<path d="M272.118 133.632C271.045 132.392 269.329 131.314 269.222 130.074C269.115 129.157 271.045 128.025 272.064 126.947C273.029 127.971 274.853 129.049 274.853 130.074C274.799 131.26 273.137 132.392 272.118 133.632ZM273.405 130.128C273.19 129.643 272.922 128.996 272.279 128.888C271.474 128.78 270.992 129.427 270.885 130.128C270.831 130.829 271.367 131.26 272.011 131.26C272.708 131.314 273.137 130.829 273.405 130.128Z" fill="#EDF4FC"/>
<path d="M161.599 133.74C161.17 133.039 160.848 132.608 160.58 132.176C160.044 131.26 158.382 130.882 158.65 129.966C158.971 128.942 160.526 128.51 161.116 127.378C161.438 126.731 162.135 127.001 162.35 127.54C162.725 128.888 165.406 129.049 164.495 130.505C163.905 131.529 162.779 132.554 161.599 133.74ZM160.473 130.289C160.741 130.829 161.116 131.529 161.706 131.422C162.403 131.368 162.993 130.775 162.94 129.966C162.886 129.373 162.35 128.726 161.76 128.78C161.063 128.888 160.58 129.481 160.473 130.289Z" fill="#EDF4FC"/>
<path d="M216.939 133.74C216.403 132.985 216.027 132.608 215.813 132.176C215.33 131.26 213.614 130.882 213.936 129.912C214.311 128.888 215.813 128.403 216.456 127.324C216.724 126.839 217.207 126.893 217.529 127.378C218.172 128.403 219.513 128.888 219.888 129.804C220.425 131.098 218.494 131.26 217.958 132.23C217.743 132.662 217.368 133.039 216.939 133.74ZM216.832 128.996C216.188 129.157 215.652 129.535 215.706 130.236C215.759 130.882 216.242 131.475 216.885 131.475C217.582 131.422 218.172 130.829 218.119 130.074C218.065 129.373 217.475 129.103 216.832 128.996Z" fill="#EDF4FC"/>
<path d="M316.358 130.451C315.5 131.26 314.374 133.147 313.408 133.093C312.336 133.039 310.566 131.206 310.566 130.128C310.566 129.103 312.389 128.025 313.408 127.001C313.623 126.839 316.411 129.804 316.358 130.451ZM314.695 129.966C314.374 129.696 313.998 129.211 313.569 129.157C312.872 129.049 312.336 129.589 312.389 130.289C312.389 130.829 312.872 131.368 313.408 131.368C314.052 131.314 314.374 130.721 314.695 129.966Z" fill="#EDF4FC"/>
<path d="M120.255 134.063C119.558 131.961 116.769 131.529 117.788 129.427C118.164 128.672 119.343 126.623 120.738 127.54C121.595 128.133 123.311 129.103 122.99 130.397C122.775 131.529 121.167 132.176 120.255 134.063ZM121.542 130.236C121.488 129.481 121.006 129.049 120.416 128.942C119.88 128.888 119.397 129.373 119.29 129.912C119.075 130.667 119.611 131.152 120.201 131.314C120.952 131.475 121.22 130.721 121.542 130.236Z" fill="#EDF4FC"/>
<path d="M330.783 130.02C329.442 131.206 328.369 132.931 327.136 133.039C326.278 133.147 324.455 131.152 324.401 130.02C324.348 129.049 326.385 127.055 327.243 127.217C328.423 127.378 329.227 129.265 330.783 130.02ZM328.584 130.289C328.584 129.481 328.048 129.103 327.404 129.049C326.707 128.996 326.171 129.373 326.117 130.128C326.117 130.829 326.6 131.368 327.243 131.475C327.94 131.475 328.262 130.829 328.584 130.289Z" fill="#EDF4FC"/>
<path d="M175.488 133.524C175.112 133.093 174.844 132.715 174.522 132.392C172.217 129.804 172.217 129.858 174.898 127.486C175.541 126.893 175.863 126.839 176.346 127.594C176.721 128.187 176.989 128.888 177.74 129.157C179.027 129.696 179.241 130.182 177.901 131.044C176.989 131.583 176.399 132.554 175.488 133.524ZM175.702 131.475C176.238 131.152 176.882 130.775 176.775 130.074C176.667 129.373 176.185 128.618 175.327 128.888C174.737 129.049 174.201 129.589 174.362 130.289C174.522 130.936 174.951 131.422 175.702 131.475Z" fill="#EDF4FC"/>
<path d="M47.7552 130.128C48.506 129.535 49.3103 129.211 49.6857 128.564C50.8654 126.408 51.8307 126.785 52.9568 128.564C53.3321 129.157 54.6191 129.427 54.0829 130.397C53.3858 131.529 52.4205 132.446 51.4553 133.362C51.1872 133.632 50.8118 133.201 50.6509 132.877C50.0611 131.691 48.8277 131.044 47.7552 130.128ZM52.5278 130.128C52.3133 129.481 51.9379 128.888 51.2944 128.996C50.8654 129.049 50.3292 129.642 50.2756 130.074C50.1147 130.775 50.8118 131.314 51.3481 131.368C51.9379 131.368 52.3133 130.775 52.5278 130.128Z" fill="#EDF4FC"/>
<path d="M233.938 130.02C232.49 130.936 231.793 132.931 230.613 132.985C229.701 133.039 227.771 131.152 227.878 130.289C227.985 129.157 229.541 127.378 230.613 127.27C231.9 127.055 232.114 129.589 233.938 130.02ZM230.667 131.529C231.31 131.152 231.846 130.667 231.9 129.912C231.954 129.319 231.31 128.996 230.774 128.996C230.077 128.996 229.541 129.427 229.541 130.128C229.648 130.775 229.97 131.314 230.667 131.529Z" fill="#EDF4FC"/>
<path d="M339.918 61.1429C339.864 62.4906 339.328 63.3532 338.041 63.4071C336.754 63.461 336.111 62.7602 336.003 61.5202C335.95 60.3342 336.54 59.6333 337.666 59.5794C338.899 59.4177 339.65 60.0646 339.918 61.1429Z" fill="#EDF4FC"/>
<path d="M191.307 130.99C190.663 131.799 190.073 132.662 189.43 133.47C188.572 133.308 188.411 132.5 187.982 131.961C187.392 131.26 185.891 130.775 186.32 129.858C186.749 128.78 187.928 127.971 188.84 127.27C190.02 126.354 190.02 128.241 190.717 128.726C190.556 128.888 190.449 128.996 190.288 129.157C189.376 128.834 188.465 128.78 187.982 129.804C187.66 130.397 188.196 130.775 188.572 131.152C189.644 132.176 190.073 130.829 190.824 130.559C190.985 130.721 191.146 130.882 191.307 130.99Z" fill="#EDF4FC"/>
<path d="M190.77 128.726C191.199 129.427 194.041 129.535 191.307 130.99C191.146 130.882 191.039 130.721 190.878 130.613C190.717 130.128 190.502 129.643 190.341 129.157C190.449 129.049 190.61 128.888 190.77 128.726Z" fill="#EDF4FC"/>
<path d="M278.535 90.3247L277.892 91.2951C277.302 90.9177 276.712 90.5942 276.068 90.3786C274.245 89.7856 272.315 89.9473 270.599 90.8638C270.223 91.0794 269.848 91.2951 269.526 91.5646C270.17 91.6185 270.76 91.7264 271.403 91.942C272.154 92.2116 272.905 92.535 273.548 92.9663L272.905 93.9367C272.315 93.5593 271.725 93.2359 271.081 93.0741C270.491 92.8585 269.902 92.8046 269.258 92.7507V112.428H268.132V93.128C267.703 93.7211 267.381 94.4219 267.113 95.1767L266.041 94.8532C266.255 94.2602 266.47 93.6672 266.791 93.128C264.646 93.775 262.823 95.5001 262.072 97.8183L261 97.4948C262.019 94.3141 264.754 92.1577 267.864 91.7264C268.507 91.0255 269.258 90.4325 270.17 89.9473C272.154 88.923 274.406 88.7074 276.551 89.4082C277.141 89.5699 277.892 89.8934 278.535 90.3247Z" fill="#EDF4FC"/>
<path d="M308.293 94.2063L307.65 95.1767C307.167 94.8532 306.685 94.5837 306.095 94.4219C304.218 93.8289 302.288 94.2063 300.786 95.2845C301.269 95.3384 301.698 95.4462 302.18 95.5541C302.824 95.7697 303.467 96.0393 304.004 96.4166L303.36 97.387C302.877 97.0636 302.395 96.794 301.805 96.6323C301.322 96.4706 300.84 96.4166 300.411 96.3627V112.967H299.285V96.8479C299.017 97.2792 298.748 97.7644 298.587 98.3035L297.515 97.9801C297.676 97.5488 297.837 97.1175 298.051 96.6862C296.335 97.2792 294.887 98.6809 294.298 100.568L293.225 100.244C294.083 97.4949 296.443 95.6619 299.07 95.2845C300.893 93.2898 303.735 92.4272 306.47 93.2898C307.114 93.5055 307.757 93.8289 308.293 94.2063Z" fill="#EDF4FC"/>
<path d="M111 95.3247L111.643 96.2951C112.233 95.9177 112.823 95.5942 113.467 95.3786C115.29 94.7856 117.22 94.9473 118.936 95.8638C119.312 96.0794 119.687 96.2951 120.009 96.5646C119.365 96.6185 118.775 96.7264 118.132 96.942C117.381 97.2116 116.631 97.535 115.987 97.9663L116.631 98.9367C117.22 98.5593 117.81 98.2359 118.454 98.0741C119.044 97.8585 119.633 97.8046 120.277 97.7507V117.428H121.403V98.128C121.832 98.7211 122.154 99.4219 122.422 100.177L123.494 99.8532C123.28 99.2602 123.065 98.6672 122.744 98.128C124.889 98.775 126.712 100.5 127.463 102.818L128.535 102.495C127.516 99.3141 124.781 97.1577 121.671 96.7264C121.028 96.0255 120.277 95.4325 119.365 94.9473C117.381 93.923 115.129 93.7074 112.984 94.4082C112.394 94.5699 111.643 94.8934 111 95.3247Z" fill="#EDF4FC"/>
<path d="M87 97.2499L87.6435 98.2203C88.1261 97.8968 88.6087 97.6272 89.1986 97.4655C91.0754 96.8725 93.0059 97.2499 94.5074 98.3281C94.0247 98.382 93.5957 98.4898 93.1131 98.5976C92.4696 98.8133 91.8262 99.0828 91.2899 99.4602L91.9334 100.431C92.416 100.107 92.8986 99.8376 93.4885 99.6759C93.9711 99.5141 94.4537 99.4602 94.8827 99.4063V116.011H96.0088V99.8915C96.2769 100.323 96.5451 100.808 96.7059 101.347L97.7784 101.024C97.6175 100.592 97.4567 100.161 97.2422 99.7298C98.9581 100.323 100.406 101.724 100.996 103.611L102.068 103.288C101.21 100.538 98.8509 98.7055 96.2233 98.3281C94.4001 96.3334 91.558 95.4708 88.8232 96.3334C88.1797 96.549 87.5362 96.8725 87 97.2499Z" fill="#EDF4FC"/>
<path d="M102.054 103.642C102.107 103.642 102.161 103.642 102.161 103.642C102.322 103.588 102.643 103.049 102.858 102.725C103.394 101.916 103.984 101 104.949 101C105.915 101 106.504 101.916 107.041 102.725C107.255 103.049 107.577 103.588 107.738 103.642C108.06 103.749 108.703 103.426 109.186 103.156C109.99 102.779 110.794 102.348 111.438 102.779C112.081 103.156 112.242 104.073 112.349 104.989C112.403 105.475 112.51 106.283 112.725 106.391C112.886 106.445 113.529 106.122 113.905 105.96C114.655 105.582 115.46 105.205 116.157 105.367C116.747 105.529 117.122 106.122 117.551 106.768C117.873 107.254 118.355 107.955 118.677 107.955C118.999 107.955 119.481 107.254 119.803 106.768C120.232 106.122 120.608 105.529 121.197 105.367C121.948 105.205 122.699 105.582 123.45 105.96C123.771 106.122 124.415 106.445 124.629 106.391C124.844 106.283 124.951 105.475 125.005 104.989C125.112 104.073 125.273 103.156 125.916 102.779C126.56 102.402 127.418 102.779 128.168 103.156C128.705 103.426 129.348 103.749 129.616 103.642C129.777 103.588 130.099 103.049 130.313 102.725C130.85 101.916 131.44 101 132.405 101C133.37 101 133.96 101.916 134.496 102.725C134.711 103.049 135.032 103.588 135.193 103.642C135.515 103.749 136.158 103.426 136.641 103.156C137.445 102.779 138.25 102.348 138.893 102.779C139.537 103.156 139.698 104.073 139.805 104.989C139.859 105.475 139.966 106.283 140.18 106.391C140.341 106.445 140.985 106.122 141.36 105.96C142.111 105.582 142.915 105.205 143.612 105.367C144.202 105.529 144.577 106.122 145.006 106.768C145.328 107.254 145.811 107.955 146.133 107.955C146.454 107.955 146.937 107.254 147.259 106.768C147.688 106.122 148.063 105.529 148.653 105.367C149.404 105.205 150.154 105.582 150.905 105.96C151.227 106.122 151.87 106.445 152.085 106.391C152.299 106.283 152.407 105.475 152.46 104.989C152.567 104.073 152.728 103.156 153.372 102.779C154.015 102.402 154.873 102.779 155.624 103.156C156.16 103.426 156.804 103.749 157.072 103.642C157.233 103.588 157.554 103.049 157.769 102.725C158.305 101.916 158.895 101 159.86 101C160.825 101 161.415 101.916 161.952 102.725C162.166 103.049 162.488 103.588 162.649 103.642C162.97 103.749 163.614 103.426 164.097 103.156C164.901 102.779 165.705 102.348 166.349 102.779C166.992 103.156 167.153 104.073 167.26 104.989C167.314 105.475 167.421 106.283 167.636 106.391C167.797 106.445 168.44 106.122 168.815 105.96C169.566 105.582 170.371 105.205 171.068 105.367C171.658 105.529 172.033 106.122 172.462 106.768C172.784 107.254 173.266 107.955 173.588 107.955C173.91 107.955 174.392 107.254 174.714 106.768C175.143 106.122 175.518 105.529 176.108 105.367C176.859 105.205 177.61 105.582 178.361 105.96C178.682 106.122 179.379 106.445 179.54 106.391C179.755 106.283 179.862 105.475 179.916 104.989C180.023 104.127 180.184 103.156 180.827 102.779C181.471 102.402 182.329 102.779 183.079 103.156C183.616 103.426 184.206 103.749 184.527 103.642C184.688 103.588 185.01 103.049 185.224 102.725C185.761 101.916 186.35 101 187.316 101C188.281 101 188.871 101.916 189.407 102.725C189.622 103.049 189.943 103.588 190.104 103.642C190.426 103.749 191.069 103.426 191.552 103.156C192.356 102.779 193.161 102.348 193.804 102.779C194.448 103.156 194.609 104.073 194.716 104.989C194.769 105.475 194.877 106.283 195.091 106.391C195.252 106.445 195.896 106.122 196.271 105.96C197.022 105.582 197.826 105.205 198.523 105.367C199.113 105.529 199.488 106.122 199.917 106.768C200.239 107.254 200.722 107.955 201.043 107.955C201.365 107.955 201.848 107.254 202.17 106.768C202.599 106.122 202.974 105.529 203.564 105.367C204.315 105.205 205.065 105.582 205.816 105.96C206.138 106.122 206.781 106.445 206.996 106.391C207.21 106.283 207.317 105.475 207.371 104.989C207.478 104.073 207.639 103.156 208.283 102.779C208.926 102.402 209.784 102.779 210.535 103.156C211.071 103.426 211.715 103.749 211.983 103.642C212.144 103.588 212.465 103.049 212.68 102.725C213.216 101.916 213.806 101 214.771 101C215.736 101 216.326 101.916 216.863 102.725C217.077 103.049 217.399 103.588 217.56 103.642C217.881 103.749 218.525 103.426 219.007 103.156C219.812 102.779 220.616 102.348 221.26 102.779C221.903 103.156 222.064 104.073 222.171 104.989C222.225 105.475 222.332 106.283 222.547 106.391C222.708 106.445 223.351 106.122 223.726 105.96C224.477 105.582 225.281 105.205 225.979 105.367C226.568 105.529 226.944 106.122 227.373 106.768C227.695 107.254 228.177 107.955 228.499 107.955C228.821 107.955 229.303 107.254 229.625 106.768C230.054 106.122 230.429 105.529 231.019 105.367C231.77 105.205 232.521 105.582 233.271 105.96C233.593 106.122 234.29 106.445 234.451 106.391C234.666 106.283 234.773 105.475 234.827 104.989C234.934 104.073 235.095 103.156 235.738 102.779C236.382 102.402 237.24 102.779 237.99 103.156C238.527 103.426 239.17 103.749 239.438 103.642C239.599 103.588 239.921 103.049 240.135 102.725C240.672 101.916 241.261 101 242.227 101C243.192 101 243.782 101.916 244.318 102.725C244.532 103.049 244.854 103.588 245.015 103.642C245.337 103.749 245.98 103.426 246.463 103.156C247.267 102.779 248.072 102.348 248.715 102.779C249.359 103.156 249.52 104.073 249.627 104.989C249.68 105.475 249.788 106.283 250.002 106.391C250.163 106.445 250.807 106.122 251.182 105.96C251.933 105.582 252.737 105.205 253.434 105.367C254.024 105.529 254.399 106.122 254.828 106.768C255.15 107.254 255.633 107.955 255.954 107.955C256.276 107.955 256.759 107.254 257.081 106.768C257.509 106.122 257.885 105.529 258.475 105.367C259.225 105.205 259.976 105.582 260.727 105.96C261.049 106.122 261.746 106.445 261.907 106.391C262.121 106.283 262.228 105.475 262.282 104.989C262.389 104.073 262.55 103.156 263.194 102.779C263.837 102.402 264.695 102.779 265.446 103.156C265.982 103.426 266.572 103.749 266.894 103.642C267.055 103.588 267.376 103.049 267.591 102.725C268.127 101.916 268.717 101 269.682 101V102.132C269.36 102.132 268.878 102.833 268.556 103.318C268.127 103.965 267.752 104.558 267.162 104.72C266.411 104.935 265.66 104.504 264.91 104.127C264.588 103.965 263.944 103.642 263.73 103.696C263.515 103.803 263.408 104.612 263.354 105.097C263.247 106.014 263.086 106.93 262.443 107.308C261.799 107.685 260.941 107.308 260.191 106.93C259.654 106.661 259.011 106.337 258.743 106.445C258.582 106.499 258.26 107.038 258.046 107.361C257.509 108.17 256.92 109.087 255.954 109.087C254.989 109.087 254.399 108.17 253.863 107.361C253.649 107.038 253.327 106.499 253.166 106.445C252.844 106.337 252.201 106.661 251.718 106.93C250.914 107.308 250.109 107.739 249.466 107.308C248.822 106.93 248.662 106.014 248.554 105.097C248.501 104.612 248.393 103.803 248.179 103.696C248.018 103.642 247.375 103.965 246.999 104.127C246.248 104.504 245.444 104.882 244.747 104.72C244.157 104.558 243.782 103.965 243.353 103.318C243.031 102.833 242.548 102.132 242.227 102.132C241.905 102.132 241.422 102.833 241.101 103.318C240.672 103.965 240.296 104.558 239.706 104.72C238.956 104.935 238.205 104.504 237.454 104.127C237.079 103.965 236.435 103.642 236.274 103.696C236.06 103.803 235.953 104.612 235.899 105.097C235.792 106.014 235.631 106.93 234.987 107.308C234.344 107.685 233.486 107.308 232.735 106.93C232.199 106.661 231.555 106.337 231.287 106.445C231.127 106.499 230.805 107.038 230.59 107.361C230.054 108.17 229.464 109.087 228.499 109.087C227.534 109.087 226.944 108.17 226.408 107.361C226.193 107.038 225.871 106.499 225.71 106.445C225.389 106.337 224.745 106.661 224.263 106.93C223.458 107.308 222.654 107.739 222.01 107.308C221.367 106.93 221.206 106.014 221.099 105.097C221.045 104.612 220.938 103.803 220.723 103.696C220.563 103.642 219.919 103.965 219.544 104.127C218.793 104.504 217.989 104.882 217.292 104.72C216.702 104.558 216.326 103.965 215.897 103.318C215.576 102.833 215.093 102.132 214.771 102.132C214.449 102.132 213.967 102.833 213.645 103.318C213.216 103.965 212.841 104.558 212.251 104.72C211.5 104.935 210.749 104.504 209.999 104.127C209.677 103.965 208.98 103.642 208.819 103.696C208.604 103.803 208.497 104.612 208.444 105.097C208.336 106.014 208.175 106.93 207.532 107.308C206.888 107.685 206.03 107.308 205.28 106.93C204.744 106.661 204.1 106.337 203.832 106.445C203.671 106.499 203.349 107.038 203.135 107.361C202.599 108.17 202.009 109.087 201.043 109.087C200.078 109.087 199.488 108.17 198.952 107.361C198.738 107.038 198.416 106.499 198.255 106.445C197.933 106.337 197.29 106.661 196.807 106.93C196.003 107.308 195.198 107.739 194.555 107.308C193.911 106.93 193.751 106.014 193.643 105.097C193.59 104.612 193.482 103.803 193.268 103.696C193.107 103.642 192.464 103.965 192.088 104.127C191.338 104.504 190.533 104.882 189.836 104.72C189.246 104.558 188.871 103.965 188.442 103.318C188.12 102.833 187.637 102.132 187.316 102.132C186.994 102.132 186.511 102.833 186.19 103.318C185.761 103.965 185.385 104.558 184.795 104.72C184.045 104.935 183.294 104.504 182.543 104.127C182.221 103.965 181.524 103.642 181.363 103.696C181.149 103.803 181.042 104.612 180.988 105.097C180.881 106.014 180.72 106.93 180.076 107.308C179.433 107.685 178.575 107.308 177.824 106.93C177.288 106.661 176.645 106.337 176.376 106.445C176.216 106.499 175.894 107.038 175.679 107.361C175.143 108.17 174.553 109.087 173.588 109.087C172.623 109.087 172.033 108.17 171.497 107.361C171.282 107.038 170.96 106.499 170.8 106.445C170.478 106.337 169.834 106.661 169.352 106.93C168.547 107.308 167.743 107.739 167.099 107.308C166.456 106.93 166.295 106.014 166.188 105.097C166.134 104.612 166.027 103.803 165.813 103.696C165.652 103.642 165.008 103.965 164.633 104.127C163.882 104.504 163.078 104.882 162.381 104.72C161.791 104.558 161.415 103.965 160.986 103.318C160.665 102.833 160.182 102.132 159.86 102.132C159.539 102.132 159.056 102.833 158.734 103.318C158.305 103.965 157.93 104.558 157.34 104.72C156.589 104.935 155.838 104.504 155.088 104.127C154.766 103.965 154.069 103.642 153.908 103.696C153.694 103.803 153.586 104.612 153.533 105.097C153.425 106.014 153.265 106.93 152.621 107.308C151.978 107.685 151.12 107.308 150.369 106.93C149.833 106.661 149.189 106.337 148.921 106.445C148.76 106.499 148.438 107.038 148.224 107.361C147.688 108.17 147.098 109.087 146.133 109.087C145.167 109.087 144.577 108.17 144.041 107.361C143.827 107.038 143.505 106.499 143.344 106.445C143.022 106.337 142.379 106.661 141.896 106.93C141.092 107.308 140.288 107.739 139.644 107.308C139.001 106.93 138.84 106.014 138.732 105.097C138.679 104.612 138.572 103.803 138.357 103.696C138.196 103.642 137.553 103.965 137.177 104.127C136.427 104.504 135.622 104.882 134.925 104.72C134.335 104.558 133.96 103.965 133.531 103.318C133.209 102.833 132.727 102.132 132.405 102.132C132.083 102.132 131.6 102.833 131.279 103.318C130.85 103.965 130.474 104.558 129.884 104.72C129.134 104.935 128.383 104.504 127.632 104.127C127.257 103.965 126.613 103.642 126.453 103.696C126.238 103.803 126.131 104.612 126.077 105.097C125.97 106.014 125.809 106.93 125.166 107.308C124.522 107.685 123.664 107.308 122.913 106.93C122.377 106.661 121.734 106.337 121.465 106.445C121.305 106.499 120.983 107.038 120.768 107.361C120.232 108.17 119.642 109.087 118.677 109.087C117.712 109.087 117.122 108.17 116.586 107.361C116.371 107.038 116.049 106.499 115.889 106.445C115.567 106.337 114.923 106.661 114.441 106.93C113.636 107.308 112.832 107.739 112.189 107.308C111.545 106.93 111.384 106.014 111.277 105.097C111.223 104.612 111.116 103.803 110.902 103.696C110.741 103.642 110.097 103.965 109.722 104.127C108.971 104.504 108.167 104.882 107.47 104.72C106.88 104.558 106.504 103.965 106.075 103.318C105.754 102.833 105.271 102.132 104.949 102.132C104.628 102.132 104.145 102.833 103.823 103.318C103.394 103.965 103.019 104.558 102.429 104.72C102.268 104.774 102.161 104.774 102 104.774V103.642H102.054Z" fill="#EDF4FC"/>
</svg>
