<svg width="22" height="20" viewBox="0 0 22 20" fill="none" xmlns="http://www.w3.org/2000/svg">
<g clip-path="url(#clip0_18_8561)">
<path d="M15.2564 4.6875C15.2564 6.82031 12.523 10.6211 11.3226 12.1875C11.0347 12.5625 10.5 12.5625 10.2158 12.1875C9.01549 10.6211 6.28205 6.82031 6.28205 4.6875C6.28205 2.09766 8.29006 0 10.7692 0C13.2484 0 15.2564 2.09766 15.2564 4.6875ZM15.5556 7.82812C15.6864 7.55859 15.8061 7.28906 15.9145 7.02344C15.9332 6.97656 15.9519 6.92578 15.9706 6.87891L20.3082 5.06641C20.899 4.82031 21.5385 5.27344 21.5385 5.9375V16.5156C21.5385 16.8984 21.3141 17.2422 20.9738 17.3867L15.5556 19.6484V7.82812ZM5.1453 5.40234C5.23504 5.95312 5.41453 6.50781 5.62393 7.02344C5.73237 7.28906 5.85203 7.55859 5.98291 7.82812V17.6484L1.23024 19.6367C0.639423 19.8828 0 19.4297 0 18.7656V8.1875C0 7.80469 0.224359 7.46094 0.564637 7.31641L5.14904 5.40234H5.1453ZM12.2575 12.9688C12.7772 12.2891 13.5924 11.1836 14.359 9.96094V19.6992L7.17949 17.5547V9.96094C7.94605 11.1836 8.76122 12.2891 9.28098 12.9688C10.0475 13.9688 11.4909 13.9688 12.2575 12.9688ZM10.7692 5.9375C11.1659 5.9375 11.5464 5.77288 11.8269 5.47985C12.1074 5.18683 12.265 4.7894 12.265 4.375C12.265 3.9606 12.1074 3.56317 11.8269 3.27015C11.5464 2.97712 11.1659 2.8125 10.7692 2.8125C10.3725 2.8125 9.9921 2.97712 9.71159 3.27015C9.43109 3.56317 9.2735 3.9606 9.2735 4.375C9.2735 4.7894 9.43109 5.18683 9.71159 5.47985C9.9921 5.77288 10.3725 5.9375 10.7692 5.9375Z" fill="black"/>
<path d="M15.2564 4.6875C15.2564 6.82031 12.523 10.6211 11.3226 12.1875C11.0347 12.5625 10.5 12.5625 10.2158 12.1875C9.01549 10.6211 6.28205 6.82031 6.28205 4.6875C6.28205 2.09766 8.29006 0 10.7692 0C13.2484 0 15.2564 2.09766 15.2564 4.6875ZM15.5556 7.82812C15.6864 7.55859 15.8061 7.28906 15.9145 7.02344C15.9332 6.97656 15.9519 6.92578 15.9706 6.87891L20.3082 5.06641C20.899 4.82031 21.5385 5.27344 21.5385 5.9375V16.5156C21.5385 16.8984 21.3141 17.2422 20.9738 17.3867L15.5556 19.6484V7.82812ZM5.1453 5.40234C5.23504 5.95312 5.41453 6.50781 5.62393 7.02344C5.73237 7.28906 5.85203 7.55859 5.98291 7.82812V17.6484L1.23024 19.6367C0.639423 19.8828 0 19.4297 0 18.7656V8.1875C0 7.80469 0.224359 7.46094 0.564637 7.31641L5.14904 5.40234H5.1453ZM12.2575 12.9688C12.7772 12.2891 13.5924 11.1836 14.359 9.96094V19.6992L7.17949 17.5547V9.96094C7.94605 11.1836 8.76122 12.2891 9.28098 12.9688C10.0475 13.9688 11.4909 13.9688 12.2575 12.9688ZM10.7692 5.9375C11.1659 5.9375 11.5464 5.77288 11.8269 5.47985C12.1074 5.18683 12.265 4.7894 12.265 4.375C12.265 3.9606 12.1074 3.56317 11.8269 3.27015C11.5464 2.97712 11.1659 2.8125 10.7692 2.8125C10.3725 2.8125 9.9921 2.97712 9.71159 3.27015C9.43109 3.56317 9.2735 3.9606 9.2735 4.375C9.2735 4.7894 9.43109 5.18683 9.71159 5.47985C9.9921 5.77288 10.3725 5.9375 10.7692 5.9375Z" fill="url(#paint0_linear_18_8561)"/>
</g>
<defs>
<linearGradient id="paint0_linear_18_8561" x1="3.8009" y1="2.46772e-07" x2="14.5269" y2="22.6208" gradientUnits="userSpaceOnUse">
<stop stop-color="#3E81C2"/>
<stop offset="1" stop-color="#49BDF2"/>
</linearGradient>
<clipPath id="clip0_18_8561">
<rect width="21.5385" height="20" fill="white"/>
</clipPath>
</defs>
</svg>
