
<svg width="24" height="24" viewBox="0 0 24 24" fill="none" xmlns="http://www.w3.org/2000/svg">
<path d="M17.5449 9.01901C17.5449 9.01901 14.3349 12.8716 11.987 12.8716C9.64016 12.8716 6.39404 9.01901 6.39404 9.01901" stroke="#000034" stroke-width="1.5" stroke-linecap="round" stroke-linejoin="round"/>
<path fill-rule="evenodd" clip-rule="evenodd" d="M2.45209 11.9688C2.45209 5.13069 4.83304 2.85199 11.9759 2.85199C19.1188 2.85199 21.4997 5.13069 21.4997 11.9688C21.4997 18.8059 19.1188 21.0856 11.9759 21.0856C4.83304 21.0856 2.45209 18.8059 2.45209 11.9688Z" stroke="#000034" stroke-width="1.5" stroke-linecap="round" stroke-linejoin="round"/>

<svg width="20" height="18" viewBox="0 0 20 18" fill="none" xmlns="http://www.w3.org/2000/svg">
<path d="M14.9394 0C16.2804 0 17.5704 0.53 18.5194 1.481C19.4694 2.43 20.0004 3.71 20.0004 5.05V12.95C20.0004 15.74 17.7304 18 14.9394 18H5.0604C2.2694 18 0.000396729 15.74 0.000396729 12.95V5.05C0.000396729 2.26 2.2594 0 5.0604 0H14.9394ZM16.0704 5.2C15.8604 5.189 15.6604 5.26 15.5094 5.4L11.0004 9C10.4204 9.481 9.5894 9.481 9.0004 9L4.5004 5.4C4.1894 5.17 3.7594 5.2 3.5004 5.47C3.2304 5.74 3.2004 6.17 3.4294 6.47L3.5604 6.6L8.1104 10.15C8.6704 10.59 9.3494 10.83 10.0604 10.83C10.7694 10.83 11.4604 10.59 12.0194 10.15L16.5304 6.54L16.6104 6.46C16.8494 6.17 16.8494 5.75 16.5994 5.46C16.4604 5.311 16.2694 5.22 16.0704 5.2Z" fill="black"/>
<path d="M14.9394 0C16.2804 0 17.5704 0.53 18.5194 1.481C19.4694 2.43 20.0004 3.71 20.0004 5.05V12.95C20.0004 15.74 17.7304 18 14.9394 18H5.0604C2.2694 18 0.000396729 15.74 0.000396729 12.95V5.05C0.000396729 2.26 2.2594 0 5.0604 0H14.9394ZM16.0704 5.2C15.8604 5.189 15.6604 5.26 15.5094 5.4L11.0004 9C10.4204 9.481 9.5894 9.481 9.0004 9L4.5004 5.4C4.1894 5.17 3.7594 5.2 3.5004 5.47C3.2304 5.74 3.2004 6.17 3.4294 6.47L3.5604 6.6L8.1104 10.15C8.6704 10.59 9.3494 10.83 10.0604 10.83C10.7694 10.83 11.4604 10.59 12.0194 10.15L16.5304 6.54L16.6104 6.46C16.8494 6.17 16.8494 5.75 16.5994 5.46C16.4604 5.311 16.2694 5.22 16.0704 5.2Z" fill="url(#paint0_linear_18_8537)"/>
<path d="M14.9394 0C16.2804 0 17.5704 0.53 18.5194 1.481C19.4694 2.43 20.0004 3.71 20.0004 5.05V12.95C20.0004 15.74 17.7304 18 14.9394 18H5.0604C2.2694 18 0.000396729 15.74 0.000396729 12.95V5.05C0.000396729 2.26 2.2594 0 5.0604 0H14.9394ZM16.0704 5.2C15.8604 5.189 15.6604 5.26 15.5094 5.4L11.0004 9C10.4204 9.481 9.5894 9.481 9.0004 9L4.5004 5.4C4.1894 5.17 3.7594 5.2 3.5004 5.47C3.2304 5.74 3.2004 6.17 3.4294 6.47L3.5604 6.6L8.1104 10.15C8.6704 10.59 9.3494 10.83 10.0604 10.83C10.7694 10.83 11.4604 10.59 12.0194 10.15L16.5304 6.54L16.6104 6.46C16.8494 6.17 16.8494 5.75 16.5994 5.46C16.4604 5.311 16.2694 5.22 16.0704 5.2Z" fill="url(#paint1_linear_18_8537)"/>
<defs>
<linearGradient id="paint0_linear_18_8537" x1="3.0307" y1="-1.21622" x2="21.2841" y2="1.22805" gradientUnits="userSpaceOnUse">
<stop offset="0.280779" stop-color="#FE9D44"/>
<stop offset="1" stop-color="#FFBC5D"/>
</linearGradient>
<linearGradient id="paint1_linear_18_8537" x1="3.52981" y1="2.25424e-07" x2="13.2261" y2="20.7868" gradientUnits="userSpaceOnUse">
<stop stop-color="#3E81C2"/>
<stop offset="1" stop-color="#49BDF2"/>
</linearGradient>
</defs>

<svg width="24" height="24" viewBox="0 0 24 24" fill="none" xmlns="http://www.w3.org/2000/svg">
<path d="M17.5449 9.01901C17.5449 9.01901 14.3349 12.8716 11.987 12.8716C9.64016 12.8716 6.39404 9.01901 6.39404 9.01901" stroke="#000034" stroke-width="1.5" stroke-linecap="round" stroke-linejoin="round"/>
<path fill-rule="evenodd" clip-rule="evenodd" d="M2.45209 11.9688C2.45209 5.13069 4.83304 2.85199 11.9759 2.85199C19.1188 2.85199 21.4997 5.13069 21.4997 11.9688C21.4997 18.8059 19.1188 21.0856 11.9759 21.0856C4.83304 21.0856 2.45209 18.8059 2.45209 11.9688Z" stroke="#000034" stroke-width="1.5" stroke-linecap="round" stroke-linejoin="round"/>

</svg>
