<svg width="31" height="22" viewBox="0 0 31 22" fill="none" xmlns="http://www.w3.org/2000/svg">
<g id="Frame" clip-path="url(#clip0_1470_250900)">
<g id="Group">
<g id="Vector">
<path fill-rule="evenodd" clip-rule="evenodd" d="M18.1673 16.58C18.1673 17.14 17.7141 17.6 17.1624 17.6C16.6107 17.6 16.1576 17.14 16.1576 16.58C16.1576 16.52 16.1576 16.46 16.1773 16.42V5.78001C16.1576 4.10001 14.7981 2.76001 13.143 2.76001C11.5077 2.76001 10.1876 4.06001 10.1285 5.70001V10.36V14.06V18.9V20.08C10.1285 20.14 10.1482 20.2 10.1482 20.26C10.1482 20.88 9.695 21.38 9.14332 21.38C8.59164 21.38 8.13847 20.88 8.13847 20.26C8.13847 20.2 8.13847 20.14 8.15817 20.08L8.17787 13.36V12.02V5.78001C8.13847 4.02001 6.91689 2.62001 5.14362 2.62001C3.48857 2.62001 2.14877 3.96001 2.12906 5.64001V13.54V13.6V20.06C2.14877 20.12 2.14877 20.18 2.14877 20.24C2.14877 20.86 1.6956 21.36 1.14392 21.36C0.592233 21.36 0.0799561 20.86 0.0799561 20.26C0.0799561 20.2 0.0799561 20.14 0.099659 20.08V18.92V15.72V12.84V5.66001C0.099659 2.86001 2.3458 0.600006 5.10421 0.600006C6.77896 0.600006 8.25669 1.44001 9.16302 2.72001C10.0891 1.52001 11.5274 0.740006 13.143 0.740006C15.9014 0.740006 18.1476 3.00001 18.1673 5.80001V16.44C18.1673 16.48 18.1673 16.52 18.1673 16.58Z" fill="black"/>
<path fill-rule="evenodd" clip-rule="evenodd" d="M18.1673 16.58C18.1673 17.14 17.7141 17.6 17.1624 17.6C16.6107 17.6 16.1576 17.14 16.1576 16.58C16.1576 16.52 16.1576 16.46 16.1773 16.42V5.78001C16.1576 4.10001 14.7981 2.76001 13.143 2.76001C11.5077 2.76001 10.1876 4.06001 10.1285 5.70001V10.36V14.06V18.9V20.08C10.1285 20.14 10.1482 20.2 10.1482 20.26C10.1482 20.88 9.695 21.38 9.14332 21.38C8.59164 21.38 8.13847 20.88 8.13847 20.26C8.13847 20.2 8.13847 20.14 8.15817 20.08L8.17787 13.36V12.02V5.78001C8.13847 4.02001 6.91689 2.62001 5.14362 2.62001C3.48857 2.62001 2.14877 3.96001 2.12906 5.64001V13.54V13.6V20.06C2.14877 20.12 2.14877 20.18 2.14877 20.24C2.14877 20.86 1.6956 21.36 1.14392 21.36C0.592233 21.36 0.0799561 20.86 0.0799561 20.26C0.0799561 20.2 0.0799561 20.14 0.099659 20.08V18.92V15.72V12.84V5.66001C0.099659 2.86001 2.3458 0.600006 5.10421 0.600006C6.77896 0.600006 8.25669 1.44001 9.16302 2.72001C10.0891 1.52001 11.5274 0.740006 13.143 0.740006C15.9014 0.740006 18.1476 3.00001 18.1673 5.80001V16.44C18.1673 16.48 18.1673 16.52 18.1673 16.58Z" fill="url(#paint0_linear_1470_250900)"/>
</g>
<g id="Vector_2">
<path fill-rule="evenodd" clip-rule="evenodd" d="M30.2255 6.64C30.2255 7.26 29.7723 7.76 29.2206 7.76C28.669 7.76 28.2158 7.26 28.2158 6.64C28.2158 6.58 28.2355 5.68 28.2355 5.68C28.1764 4.76 27.7232 3.96 27.0533 3.44C26.541 3.04 25.9105 2.82 25.2209 2.82C23.5659 2.82 22.2261 4.18 22.1867 5.84V7.4H22.2064V8.78H25.2012C25.7726 8.78 26.2455 9.26 26.2455 9.84C26.2455 10.42 25.7726 10.9 25.2012 10.9H22.2064V14.88C22.2064 14.92 22.2064 14.96 22.2064 14.98C22.2064 15.06 22.2064 15.14 22.2064 15.22C22.2064 15.26 22.2064 15.28 22.2064 15.32C22.2064 15.38 22.2064 15.42 22.1867 15.48C22.1867 15.74 22.1867 16.02 22.1867 16.28C22.1473 19.08 19.9602 21.4 17.1427 21.4C14.3843 21.4 12.1382 19.14 12.1185 16.34V14.48V8.54V5.7C12.1185 5.64 12.0988 5.58 12.0988 5.52C12.0988 4.96 12.5519 4.5 13.1036 4.5C13.6553 4.5 14.1085 4.96 14.1085 5.52C14.1085 5.58 14.1085 5.64 14.0888 5.7V6.12V7.48V14.3V16.34C14.0888 16.78 14.1873 17.18 14.3646 17.56C14.404 17.64 15.2118 19.32 17.123 19.32C18.7781 19.32 20.1376 17.94 20.1573 16.26V15.44C20.1573 15.4 20.1573 15.36 20.1573 15.32C20.1573 15.3 20.1573 15.28 20.1573 15.26V5.84C20.177 3.04 22.4231 0.779999 25.1815 0.779999C26.0682 0.779999 26.8957 1.02 27.605 1.42C29.0039 2.2 29.9891 3.64 30.1664 5.34L30.1861 5.58C30.1861 5.66 30.1861 5.76 30.1861 5.86C30.2255 5.84 30.2255 6.58 30.2255 6.64Z" fill="black"/>
<path fill-rule="evenodd" clip-rule="evenodd" d="M30.2255 6.64C30.2255 7.26 29.7723 7.76 29.2206 7.76C28.669 7.76 28.2158 7.26 28.2158 6.64C28.2158 6.58 28.2355 5.68 28.2355 5.68C28.1764 4.76 27.7232 3.96 27.0533 3.44C26.541 3.04 25.9105 2.82 25.2209 2.82C23.5659 2.82 22.2261 4.18 22.1867 5.84V7.4H22.2064V8.78H25.2012C25.7726 8.78 26.2455 9.26 26.2455 9.84C26.2455 10.42 25.7726 10.9 25.2012 10.9H22.2064V14.88C22.2064 14.92 22.2064 14.96 22.2064 14.98C22.2064 15.06 22.2064 15.14 22.2064 15.22C22.2064 15.26 22.2064 15.28 22.2064 15.32C22.2064 15.38 22.2064 15.42 22.1867 15.48C22.1867 15.74 22.1867 16.02 22.1867 16.28C22.1473 19.08 19.9602 21.4 17.1427 21.4C14.3843 21.4 12.1382 19.14 12.1185 16.34V14.48V8.54V5.7C12.1185 5.64 12.0988 5.58 12.0988 5.52C12.0988 4.96 12.5519 4.5 13.1036 4.5C13.6553 4.5 14.1085 4.96 14.1085 5.52C14.1085 5.58 14.1085 5.64 14.0888 5.7V6.12V7.48V14.3V16.34C14.0888 16.78 14.1873 17.18 14.3646 17.56C14.404 17.64 15.2118 19.32 17.123 19.32C18.7781 19.32 20.1376 17.94 20.1573 16.26V15.44C20.1573 15.4 20.1573 15.36 20.1573 15.32C20.1573 15.3 20.1573 15.28 20.1573 15.26V5.84C20.177 3.04 22.4231 0.779999 25.1815 0.779999C26.0682 0.779999 26.8957 1.02 27.605 1.42C29.0039 2.2 29.9891 3.64 30.1664 5.34L30.1861 5.58C30.1861 5.66 30.1861 5.76 30.1861 5.86C30.2255 5.84 30.2255 6.58 30.2255 6.64Z" fill="url(#paint1_linear_1470_250900)"/>
</g>
<g id="Vector_3">
<path fill-rule="evenodd" clip-rule="evenodd" d="M6.12879 20.1C6.12879 20.16 6.1485 20.22 6.1485 20.28C6.1485 20.9 5.69533 21.4 5.14365 21.4C4.59196 21.4 4.13879 20.9 4.13879 20.28C4.13879 20.22 4.13879 20.16 4.1585 20.1V5.80001C4.13879 5.74001 4.13879 5.68001 4.13879 5.62001C4.13879 5.06001 4.59196 4.60001 5.14365 4.60001C5.69533 4.60001 6.1485 5.06001 6.1485 5.62001C6.1485 5.68001 6.1485 5.74001 6.12879 5.80001V20.1Z" fill="black"/>
<path fill-rule="evenodd" clip-rule="evenodd" d="M6.12879 20.1C6.12879 20.16 6.1485 20.22 6.1485 20.28C6.1485 20.9 5.69533 21.4 5.14365 21.4C4.59196 21.4 4.13879 20.9 4.13879 20.28C4.13879 20.22 4.13879 20.16 4.1585 20.1V5.80001C4.13879 5.74001 4.13879 5.68001 4.13879 5.62001C4.13879 5.06001 4.59196 4.60001 5.14365 4.60001C5.69533 4.60001 6.1485 5.06001 6.1485 5.62001C6.1485 5.68001 6.1485 5.74001 6.12879 5.80001V20.1Z" fill="url(#paint2_linear_1470_250900)"/>
</g>
<g id="Vector_4">
<path d="M28.0174 8.76926L26.9586 9.84406L28.0174 10.9188L29.0763 9.84405L28.0174 8.76926Z" fill="black"/>
<path d="M28.0174 8.76926L26.9586 9.84406L28.0174 10.9188L29.0763 9.84405L28.0174 8.76926Z" fill="url(#paint3_linear_1470_250900)"/>
</g>
<g id="Group_2" opacity="0.65">
<g id="Group_3">
<g id="Clip path group">
<mask id="mask0_1470_250900" style="mask-type:luminance" maskUnits="userSpaceOnUse" x="4" y="4" width="3" height="10">
<g id="SVGID_2_">
<g id="Vector_5">
<path d="M6.12872 4.60001H4.11902V13.68H6.12872V4.60001Z" fill="white"/>
</g>
</g>
</mask>
<g mask="url(#mask0_1470_250900)">
<g id="Vector_6">
<path fill-rule="evenodd" clip-rule="evenodd" d="M6.14842 5.62001C6.14842 5.68001 6.14843 5.74001 6.12872 5.80001V13.14C5.41942 13.44 4.74951 13.6 4.13872 13.68V5.80001C4.11902 5.74001 4.11902 5.68001 4.11902 5.62001C4.11902 5.06001 4.57219 4.60001 5.12387 4.60001C5.67555 4.60001 6.14842 5.06001 6.14842 5.62001Z" fill="black"/>
<path fill-rule="evenodd" clip-rule="evenodd" d="M6.14842 5.62001C6.14842 5.68001 6.14843 5.74001 6.12872 5.80001V13.14C5.41942 13.44 4.74951 13.6 4.13872 13.68V5.80001C4.11902 5.74001 4.11902 5.68001 4.11902 5.62001C4.11902 5.06001 4.57219 4.60001 5.12387 4.60001C5.67555 4.60001 6.14842 5.06001 6.14842 5.62001Z" fill="url(#paint4_linear_1470_250900)"/>
</g>
</g>
</g>
</g>
</g>
<g id="Group_4" opacity="0.65">
<g id="Group_5">
<g id="Clip path group_2">
<mask id="mask1_1470_250900" style="mask-type:luminance" maskUnits="userSpaceOnUse" x="12" y="4" width="3" height="5">
<g id="SVGID_4_">
<g id="Vector_7">
<path d="M14.1085 4.51999H12.0988V8.55999H14.1085V4.51999Z" fill="white"/>
</g>
</g>
</mask>
<g mask="url(#mask1_1470_250900)">
<g id="Vector_8">
<path fill-rule="evenodd" clip-rule="evenodd" d="M14.1085 5.69995V6.11995V7.47995C13.3597 7.69995 12.7292 8.07995 12.1185 8.55995V5.71995C12.1185 5.65995 12.0988 5.59995 12.0988 5.55995C12.0988 4.99995 12.5519 4.53995 13.1036 4.53995C13.6553 4.53995 14.1085 4.99995 14.1085 5.55995C14.1282 5.59995 14.1282 5.65995 14.1085 5.69995Z" fill="black"/>
<path fill-rule="evenodd" clip-rule="evenodd" d="M14.1085 5.69995V6.11995V7.47995C13.3597 7.69995 12.7292 8.07995 12.1185 8.55995V5.71995C12.1185 5.65995 12.0988 5.59995 12.0988 5.55995C12.0988 4.99995 12.5519 4.53995 13.1036 4.53995C13.6553 4.53995 14.1085 4.99995 14.1085 5.55995C14.1282 5.59995 14.1282 5.65995 14.1085 5.69995Z" fill="url(#paint5_linear_1470_250900)"/>
</g>
</g>
</g>
</g>
</g>
<g id="Group_6" opacity="0.65">
<g id="Group_7">
<g id="Clip path group_3">
<mask id="mask2_1470_250900" style="mask-type:luminance" maskUnits="userSpaceOnUse" x="0" y="0" width="19" height="14">
<g id="SVGID_6_">
<g id="Vector_9">
<path d="M18.1673 0.600006H0.0799561V13.62H18.1673V0.600006Z" fill="white"/>
</g>
</g>
</mask>
<g mask="url(#mask2_1470_250900)">
<g id="Vector_10">
<path fill-rule="evenodd" clip-rule="evenodd" d="M18.1673 5.78001V7.66001C17.4383 7.44001 16.7684 7.30001 16.1773 7.26001V5.78001C16.1576 4.10001 14.8178 2.76001 13.1627 2.76001C11.5274 2.76001 10.2073 4.06001 10.1482 5.70001V10.36C9.53738 10.92 8.90689 11.5 8.15817 12.04V5.80001C8.11877 4.04001 6.89718 2.64001 5.12392 2.64001C3.46887 2.64001 2.12906 3.98001 2.08966 5.66001V13.56V13.62C1.24243 13.44 0.57253 13.14 0.0799561 12.84V5.66001C0.099659 2.86001 2.3458 0.600006 5.10421 0.600006C6.77896 0.600006 8.25669 1.44001 9.16302 2.72001C10.0891 1.52001 11.5274 0.740006 13.143 0.740006C15.9014 0.720006 18.1279 2.98001 18.1673 5.78001Z" fill="black"/>
<path fill-rule="evenodd" clip-rule="evenodd" d="M18.1673 5.78001V7.66001C17.4383 7.44001 16.7684 7.30001 16.1773 7.26001V5.78001C16.1576 4.10001 14.8178 2.76001 13.1627 2.76001C11.5274 2.76001 10.2073 4.06001 10.1482 5.70001V10.36C9.53738 10.92 8.90689 11.5 8.15817 12.04V5.80001C8.11877 4.04001 6.89718 2.64001 5.12392 2.64001C3.46887 2.64001 2.12906 3.98001 2.08966 5.66001V13.56V13.62C1.24243 13.44 0.57253 13.14 0.0799561 12.84V5.66001C0.099659 2.86001 2.3458 0.600006 5.10421 0.600006C6.77896 0.600006 8.25669 1.44001 9.16302 2.72001C10.0891 1.52001 11.5274 0.740006 13.143 0.740006C15.9014 0.720006 18.1279 2.98001 18.1673 5.78001Z" fill="url(#paint6_linear_1470_250900)"/>
</g>
</g>
</g>
</g>
</g>
<g id="Group_8" opacity="0.65">
<g id="Group_9">
<g id="Clip path group_4">
<mask id="mask3_1470_250900" style="mask-type:luminance" maskUnits="userSpaceOnUse" x="20" y="0" width="8" height="9">
<g id="SVGID_8_">
<g id="Vector_11">
<path d="M27.6247 0.779999H20.177V8.4H27.6247V0.779999Z" fill="white"/>
</g>
</g>
</mask>
<g mask="url(#mask3_1470_250900)">
<g id="Vector_12">
<path fill-rule="evenodd" clip-rule="evenodd" d="M27.6247 1.42C27.4868 1.94 27.3095 2.66 27.0336 3.44C26.5214 3.04 25.8909 2.82 25.2013 2.82C23.5462 2.82 22.2064 4.18 22.167 5.84V7.4H22.1867V8.36C21.5956 8.44 20.9257 8.42 20.177 8.26V5.84C20.1967 3.04 22.4428 0.779999 25.2013 0.779999C26.0879 0.779999 26.9154 1.02 27.6247 1.42Z" fill="black"/>
<path fill-rule="evenodd" clip-rule="evenodd" d="M27.6247 1.42C27.4868 1.94 27.3095 2.66 27.0336 3.44C26.5214 3.04 25.8909 2.82 25.2013 2.82C23.5462 2.82 22.2064 4.18 22.167 5.84V7.4H22.1867V8.36C21.5956 8.44 20.9257 8.42 20.177 8.26V5.84C20.1967 3.04 22.4428 0.779999 25.2013 0.779999C26.0879 0.779999 26.9154 1.02 27.6247 1.42Z" fill="url(#paint7_linear_1470_250900)"/>
</g>
</g>
</g>
</g>
</g>
</g>
</g>
<defs>
<linearGradient id="paint0_linear_1470_250900" x1="3.27184" y1="0.600006" x2="16.1161" y2="22.1706" gradientUnits="userSpaceOnUse">
<stop stop-color="#3E81C2"/>
<stop offset="1" stop-color="#49BDF2"/>
</linearGradient>
<linearGradient id="paint1_linear_1470_250900" x1="15.2976" y1="0.779999" x2="27.9824" y2="22.295" gradientUnits="userSpaceOnUse">
<stop stop-color="#3E81C2"/>
<stop offset="1" stop-color="#49BDF2"/>
</linearGradient>
<linearGradient id="paint2_linear_1470_250900" x1="4.49345" y1="4.60001" x2="9.66989" y2="5.79476" gradientUnits="userSpaceOnUse">
<stop stop-color="#3E81C2"/>
<stop offset="1" stop-color="#49BDF2"/>
</linearGradient>
<linearGradient id="paint3_linear_1470_250900" x1="27.1455" y1="9.65439" x2="28.9321" y2="10.2128" gradientUnits="userSpaceOnUse">
<stop stop-color="#3E81C2"/>
<stop offset="1" stop-color="#49BDF2"/>
</linearGradient>
<linearGradient id="paint4_linear_1470_250900" x1="4.47715" y1="4.60001" x2="9.11952" y2="6.60193" gradientUnits="userSpaceOnUse">
<stop stop-color="#3E81C2"/>
<stop offset="1" stop-color="#49BDF2"/>
</linearGradient>
<linearGradient id="paint5_linear_1470_250900" x1="12.456" y1="4.53995" x2="15.2811" y2="7.28496" gradientUnits="userSpaceOnUse">
<stop stop-color="#3E81C2"/>
<stop offset="1" stop-color="#49BDF2"/>
</linearGradient>
<linearGradient id="paint6_linear_1470_250900" x1="3.27184" y1="0.600006" x2="9.26754" y2="16.6705" gradientUnits="userSpaceOnUse">
<stop stop-color="#3E81C2"/>
<stop offset="1" stop-color="#49BDF2"/>
</linearGradient>
<linearGradient id="paint7_linear_1470_250900" x1="21.4913" y1="0.779999" x2="25.9311" y2="9.14635" gradientUnits="userSpaceOnUse">
<stop stop-color="#3E81C2"/>
<stop offset="1" stop-color="#49BDF2"/>
</linearGradient>
<clipPath id="clip0_1470_250900">
<rect width="30.16" height="20.8" fill="white" transform="translate(0.0799561 0.600006)"/>
</clipPath>
</defs>
</svg>
