<svg width="16" height="24" viewBox="0 0 16 24" fill="none" xmlns="http://www.w3.org/2000/svg">
<g id="Vector">
<path d="M8 0C5.59091 0 3.63636 1.95455 3.63636 4.36364V11.6364C3.63636 14.0455 5.59091 16 8 16C10.4091 16 12.3636 14.0455 12.3636 11.6364V4.36364C12.3636 1.95455 10.4091 0 8 0ZM2.18182 9.81818C2.18182 9.21364 1.69545 8.72727 1.09091 8.72727C0.486364 8.72727 0 9.21364 0 9.81818V11.6364C0 15.6864 3.00909 19.0318 6.90909 19.5636V21.0909H4.72727C4.12273 21.0909 3.63636 21.5773 3.63636 22.1818C3.63636 22.7864 4.12273 23.2727 4.72727 23.2727H8H11.2727C11.8773 23.2727 12.3636 22.7864 12.3636 22.1818C12.3636 21.5773 11.8773 21.0909 11.2727 21.0909H9.09091V19.5636C12.9909 19.0318 16 15.6864 16 11.6364V9.81818C16 9.21364 15.5136 8.72727 14.9091 8.72727C14.3045 8.72727 13.8182 9.21364 13.8182 9.81818V11.6364C13.8182 14.85 11.2136 17.4545 8 17.4545C4.78636 17.4545 2.18182 14.85 2.18182 11.6364V9.81818Z" fill="#3E81C2"/>
<path d="M8 0C5.59091 0 3.63636 1.95455 3.63636 4.36364V11.6364C3.63636 14.0455 5.59091 16 8 16C10.4091 16 12.3636 14.0455 12.3636 11.6364V4.36364C12.3636 1.95455 10.4091 0 8 0ZM2.18182 9.81818C2.18182 9.21364 1.69545 8.72727 1.09091 8.72727C0.486364 8.72727 0 9.21364 0 9.81818V11.6364C0 15.6864 3.00909 19.0318 6.90909 19.5636V21.0909H4.72727C4.12273 21.0909 3.63636 21.5773 3.63636 22.1818C3.63636 22.7864 4.12273 23.2727 4.72727 23.2727H8H11.2727C11.8773 23.2727 12.3636 22.7864 12.3636 22.1818C12.3636 21.5773 11.8773 21.0909 11.2727 21.0909H9.09091V19.5636C12.9909 19.0318 16 15.6864 16 11.6364V9.81818C16 9.21364 15.5136 8.72727 14.9091 8.72727C14.3045 8.72727 13.8182 9.21364 13.8182 9.81818V11.6364C13.8182 14.85 11.2136 17.4545 8 17.4545C4.78636 17.4545 2.18182 14.85 2.18182 11.6364V9.81818Z" fill="url(#paint0_linear_1470_250875)"/>
</g>
<defs>
<linearGradient id="paint0_linear_1470_250875" x1="2.82353" y1="2.91457e-07" x2="18.5534" y2="20.8653" gradientUnits="userSpaceOnUse">
<stop stop-color="#3E81C2"/>
<stop offset="1" stop-color="#49BDF2"/>
</linearGradient>
</defs>
</svg>
