<svg width="14" height="14" viewBox="0 0 14 14" fill="none" xmlns="http://www.w3.org/2000/svg">
<circle cx="7" cy="7" r="7" fill="#F5EAC6"/>
<path d="M5.99827 7.3791C6.03416 7.69766 6.31737 7.95879 6.6262 7.95879H7.75135C8.06019 7.95879 8.3434 7.69766 8.37928 7.3791L8.52922 6.0584C8.5651 5.73984 8.5651 5.21895 8.52922 4.89902L8.37928 3.57832C8.34212 3.25977 8.05891 3 7.75007 3H6.62492C6.31608 3 6.03287 3.26113 5.99699 3.57969L5.84834 4.89902C5.81246 5.21758 5.81246 5.73984 5.84834 6.0584L5.99827 7.3791ZM9.37372 5.33379H8.8278C8.83293 5.60039 8.82396 5.8834 8.79961 6.09395L8.64968 7.41465C8.59714 7.88359 8.20244 8.25 7.75007 8.25H6.62492C6.17384 8.25 5.77914 7.88223 5.72532 7.41465L5.57538 6.09395C5.55103 5.8834 5.54206 5.60039 5.54719 5.33379H5.00128C4.99615 5.625 5.0064 5.92988 5.03331 6.16367L5.18325 7.48438C5.26911 8.24043 5.90216 8.83242 6.62492 8.83242H6.91454V9.41621H6.09439V10H8.28189V9.41621H7.46174V8.83242H7.75135C8.47539 8.83242 9.10845 8.23906 9.19303 7.48301L9.34296 6.16094C9.36859 5.92852 9.37884 5.62363 9.37372 5.33379Z" fill="#84673A"/>
</svg>
