<svg width="40" height="27" viewBox="0 0 40 27" fill="none" xmlns="http://www.w3.org/2000/svg">
<g id="Frame" clip-path="url(#clip0_1470_304857)">
<g id="Group">
<path id="Vector" fill-rule="evenodd" clip-rule="evenodd" d="M23.5262 20.4765C23.5262 21.194 22.9367 21.7835 22.2191 21.7835C21.5016 21.7835 20.9121 21.194 20.9121 20.4765C20.9121 20.3996 20.9121 20.3227 20.9378 20.2715V6.63755C20.9121 4.48483 19.1438 2.76778 16.9911 2.76778C14.864 2.76778 13.147 4.43358 13.0701 6.53504V12.5063V17.2474V23.4493V24.9613C13.0701 25.0382 13.0957 25.1151 13.0957 25.192C13.0957 25.9864 12.5063 26.6271 11.7887 26.6271C11.0711 26.6271 10.4817 25.9864 10.4817 25.192C10.4817 25.1151 10.4817 25.0382 10.5073 24.9613L10.5329 16.3504V14.6334V6.63755C10.4817 4.38232 8.89278 2.58839 6.5863 2.58839C4.43358 2.58839 2.6909 4.30544 2.66527 6.45816V16.5811V16.658V24.9357C2.6909 25.0126 2.6909 25.0894 2.6909 25.1663C2.6909 25.9608 2.10146 26.6015 1.38389 26.6015C0.666318 26.6015 0 25.9608 0 25.192C0 25.1151 0 25.0382 0.0256276 24.9613V23.4749V19.3745V15.6841V6.48379C0.0256276 2.89592 2.94718 0 6.53504 0C8.71339 0 10.6355 1.07636 11.8143 2.71653C13.0188 1.17887 14.8896 0.179393 16.9911 0.179393C20.579 0.179393 23.5005 3.07531 23.5262 6.66318V20.2971C23.5262 20.3483 23.5262 20.3996 23.5262 20.4765Z" fill="white"/>
<path id="Vector_2" fill-rule="evenodd" clip-rule="evenodd" d="M39.2102 7.73948C39.2102 8.53394 38.6208 9.17463 37.9032 9.17463C37.1856 9.17463 36.5962 8.53394 36.5962 7.73948C36.5962 7.6626 36.6218 6.50936 36.6218 6.50936C36.545 5.33049 35.9555 4.30538 35.0842 3.63906C34.4179 3.12651 33.5978 2.84461 32.7008 2.84461C30.5481 2.84461 28.8054 4.58729 28.7542 6.71438V8.71333H28.7798V10.4816H32.6752C33.4184 10.4816 34.0335 11.0967 34.0335 11.8399C34.0335 12.5831 33.4184 13.1982 32.6752 13.1982H28.7798V18.2981C28.7798 18.3493 28.7798 18.4006 28.7798 18.4262C28.7798 18.5287 28.7798 18.6312 28.7798 18.7337C28.7798 18.785 28.7798 18.8106 28.7798 18.8619C28.7798 18.9388 28.7798 18.99 28.7542 19.0669C28.7542 19.4001 28.7542 19.7588 28.7542 20.092C28.7029 23.6799 25.8582 26.6527 22.1935 26.6527C18.6056 26.6527 15.6841 23.7567 15.6584 20.1689V17.7855V10.1741V6.53499C15.6584 6.4581 15.6328 6.38122 15.6328 6.30434C15.6328 5.58676 16.2222 4.99733 16.9398 4.99733C17.6574 4.99733 18.2468 5.58676 18.2468 6.30434C18.2468 6.38122 18.2468 6.4581 18.2212 6.53499V7.07317V8.81584V17.5549V20.1689C18.2212 20.7327 18.3493 21.2452 18.58 21.7322C18.6312 21.8347 19.682 23.9874 22.1679 23.9874C24.3206 23.9874 26.0889 22.2191 26.1145 20.0664V19.0156C26.1145 18.9644 26.1145 18.9131 26.1145 18.8619C26.1145 18.8362 26.1145 18.8106 26.1145 18.785V6.71438C26.1401 3.12651 29.0617 0.230591 32.6496 0.230591C33.8028 0.230591 34.8792 0.538122 35.8018 1.05067C37.6213 2.05015 38.9027 3.89534 39.1333 6.07369L39.159 6.38122C39.159 6.48373 39.159 6.61187 39.159 6.74001C39.2102 6.71438 39.2102 7.6626 39.2102 7.73948Z" fill="#FEFFFF"/>
<path id="Vector_3" fill-rule="evenodd" clip-rule="evenodd" d="M7.86769 24.9869C7.86769 25.0638 7.89331 25.1407 7.89331 25.2176C7.89331 26.012 7.30388 26.6527 6.58631 26.6527C5.86873 26.6527 5.2793 26.012 5.2793 25.2176C5.2793 25.1407 5.2793 25.0638 5.30492 24.9869V6.66315C5.2793 6.58626 5.2793 6.50938 5.2793 6.4325C5.2793 5.71492 5.86873 5.12549 6.58631 5.12549C7.30388 5.12549 7.89331 5.71492 7.89331 6.4325C7.89331 6.50938 7.89331 6.58626 7.86769 6.66315V24.9869Z" fill="#FEFFFF"/>
<path id="Vector_4" d="M36.3382 10.4679L34.9609 11.8451L36.3382 13.2223L37.7154 11.8451L36.3382 10.4679Z" fill="white"/>
<g id="Group_2" opacity="0.65">
<g id="Group_3">
<g id="Clip path group">
<mask id="mask0_1470_304857" style="mask-type:luminance" maskUnits="userSpaceOnUse" x="5" y="5" width="3" height="12">
<g id="SVGID_2_">
<path id="Vector_5" d="M7.86768 5.12549H5.25366V16.7604H7.86768V5.12549Z" fill="white"/>
</g>
</mask>
<g mask="url(#mask0_1470_304857)">
<path id="Vector_6" fill-rule="evenodd" clip-rule="evenodd" d="M7.89331 6.4325C7.89331 6.50938 7.89331 6.58626 7.86768 6.66314V16.0685C6.94509 16.4529 6.07375 16.6579 5.27929 16.7604V6.66314C5.25366 6.58626 5.25366 6.50938 5.25366 6.4325C5.25366 5.71492 5.8431 5.12549 6.56067 5.12549C7.27824 5.12549 7.89331 5.71492 7.89331 6.4325Z" fill="#F3FCFE"/>
</g>
</g>
</g>
</g>
<g id="Group_4" opacity="0.65">
<g id="Group_5">
<g id="Clip path group_2">
<mask id="mask1_1470_304857" style="mask-type:luminance" maskUnits="userSpaceOnUse" x="15" y="5" width="4" height="6">
<g id="SVGID_4_">
<path id="Vector_7" d="M18.2468 5.02295H15.6328V10.1997H18.2468V5.02295Z" fill="white"/>
</g>
</mask>
<g mask="url(#mask1_1470_304857)">
<path id="Vector_8" fill-rule="evenodd" clip-rule="evenodd" d="M18.2468 6.53499V7.07317V8.81584C17.273 9.09775 16.4529 9.58467 15.6584 10.1997V6.56061C15.6584 6.48373 15.6328 6.40685 15.6328 6.35559C15.6328 5.63802 16.2222 5.04858 16.9398 5.04858C17.6574 5.04858 18.2468 5.63802 18.2468 6.35559C18.2725 6.40685 18.2725 6.48373 18.2468 6.53499Z" fill="#F3FCFE"/>
</g>
</g>
</g>
</g>
<g id="Group_6" opacity="0.65">
<g id="Group_7">
<g id="Clip path group_3">
<mask id="mask2_1470_304857" style="mask-type:luminance" maskUnits="userSpaceOnUse" x="0" y="0" width="24" height="17">
<g id="SVGID_6_">
<path id="Vector_9" d="M23.5262 0H0V16.6836H23.5262V0Z" fill="white"/>
</g>
</mask>
<g mask="url(#mask2_1470_304857)">
<path id="Vector_10" fill-rule="evenodd" clip-rule="evenodd" d="M23.5262 6.63755V9.04655C22.5779 8.76465 21.7066 8.58525 20.9378 8.534V6.63755C20.9121 4.48483 19.1695 2.76778 17.0167 2.76778C14.8896 2.76778 13.1726 4.43358 13.0957 6.53504V12.5063C12.3013 13.2239 11.4812 13.9671 10.5073 14.659V6.66318C10.4561 4.40795 8.86716 2.61402 6.56067 2.61402C4.40795 2.61402 2.66527 4.33107 2.61402 6.48379V16.6067V16.6836C1.51203 16.4529 0.64069 16.0685 0 15.6841V6.48379C0.0256276 2.89592 2.94718 0 6.53504 0C8.71339 0 10.6355 1.07636 11.8143 2.71653C13.0188 1.17887 14.8896 0.179393 16.9911 0.179393C20.579 0.153766 23.4749 3.04969 23.5262 6.63755Z" fill="#F3FCFE"/>
</g>
</g>
</g>
</g>
<g id="Group_8" opacity="0.65">
<g id="Group_9">
<g id="Clip path group_4">
<mask id="mask3_1470_304857" style="mask-type:luminance" maskUnits="userSpaceOnUse" x="26" y="0" width="10" height="10">
<g id="SVGID_8_">
<path id="Vector_11" d="M35.8274 0.230591H26.1401V9.99472H35.8274V0.230591Z" fill="white"/>
</g>
</mask>
<g mask="url(#mask3_1470_304857)">
<path id="Vector_12" fill-rule="evenodd" clip-rule="evenodd" d="M35.8274 1.05067C35.648 1.71699 35.4173 2.63959 35.0585 3.63906C34.3922 3.12651 33.5721 2.84461 32.6752 2.84461C30.5225 2.84461 28.7798 4.58729 28.7285 6.71438V8.71333H28.7542V9.94346C27.9853 10.046 27.114 10.0203 26.1401 9.81532V6.71438C26.1658 3.12651 29.0873 0.230591 32.6752 0.230591C33.8284 0.230591 34.9048 0.538122 35.8274 1.05067Z" fill="#F3FCFE"/>
</g>
</g>
</g>
</g>
</g>
</g>
<defs>
<clipPath id="clip0_1470_304857">
<rect width="39.2291" height="26.6527" fill="white"/>
</clipPath>
</defs>
</svg>
