<svg width="52" height="27" viewBox="0 0 52 27" fill="none" xmlns="http://www.w3.org/2000/svg">
<g id="Group 33538">
<path id="Vector" d="M5.43793 0.121704L3.7337 4.38228L2.02947 0.121704H0.69043V6.39084H1.23821V1.33901L3.42937 6.6343L5.55966 1.33901V6.39084H6.65524V0.121704H5.43793Z" fill="white"/>
<path id="Vector_2" d="M10.4897 0L7.93335 6.39087H8.48114L9.0898 4.80837L9.15066 4.68664L9.27239 4.32144L9.39412 4.01712L10.1854 2.06942L10.9766 4.01712L11.0983 4.32144L11.2809 4.68664L11.4635 5.23443L11.9505 6.39087H13.1678L10.4897 0Z" fill="white"/>
<path id="Vector_3" d="M15.6025 5.90391V0.121704H14.446V6.39084H18.2806V5.90391H15.6025Z" fill="white"/>
<path id="Vector_4" d="M21.1413 0L18.585 6.39087H19.1328L19.6805 5.05183L19.8023 4.68664L19.9849 4.32144V4.19972L20.837 2.06942L21.6891 4.19972L21.9326 4.68664L22.176 5.23443L22.6021 6.39087H23.8194L21.1413 0Z" fill="white"/>
<path id="Vector_5" d="M29.1755 3.6519C28.932 3.34757 28.6277 3.16498 28.2016 3.04325C28.5668 2.98238 28.8103 2.79978 28.9929 2.55632C29.1755 2.31286 29.2972 2.0694 29.2972 1.70421C29.2972 1.39988 29.2363 1.15642 29.0537 0.912956C28.932 0.669495 28.6885 0.486897 28.4451 0.365167C28.3233 0.304301 28.0799 0.243436 27.8364 0.182571C27.593 0.121705 27.2886 0.121704 26.8626 0.121704H25.0366V6.32998H27.2278C27.9582 6.32998 28.5668 6.20824 28.932 5.90392C29.2972 5.59959 29.4798 5.2344 29.4798 4.62574C29.5407 4.26055 29.4189 3.95623 29.1755 3.6519ZM26.2539 0.547762H26.7409C27.2278 0.547762 27.6538 0.669493 27.8973 0.852089C28.1408 1.03469 28.2625 1.33901 28.2625 1.76507C28.2625 2.19113 28.1408 2.49546 27.9582 2.67805C27.7147 2.86065 27.4104 2.98238 26.8626 2.98238H26.3148V0.547762H26.2539ZM28.0799 5.66045C27.8364 5.84305 27.4712 5.96478 26.9843 5.96478H26.2539V3.28671H26.8017C27.3495 3.28671 27.7147 3.40844 28.019 3.6519C28.2625 3.89536 28.4451 4.26055 28.4451 4.74747C28.4451 5.17353 28.3234 5.47786 28.0799 5.66045Z" fill="white"/>
<path id="Vector_6" d="M33.0707 0L30.5144 6.39087H31.0622L31.61 4.9301L31.6708 4.68664L31.8534 4.32144L31.9752 4.07798L32.7664 2.06942L33.6185 4.13885L33.862 4.68664L33.9229 4.9301L34.4707 6.39087H35.7488L33.0707 0Z" fill="white"/>
<path id="Vector_7" d="M39.7661 3.46923C40.253 3.46923 40.6791 3.28663 40.9834 3.04317C41.2878 2.79971 41.4095 2.43451 41.4095 2.00846C41.4095 1.3998 41.2269 0.973745 40.8008 0.669418C40.4356 0.365091 39.827 0.182495 39.0357 0.182495H36.9663V6.39077H38.1228V0.547687H38.6097C39.1575 0.547687 39.5835 0.669419 39.827 0.91288C40.0705 1.15634 40.253 1.46067 40.253 1.94759C40.253 2.37365 40.1313 2.67797 39.827 2.86057C39.5835 3.04317 39.0966 3.1649 38.4271 3.22576L40.1313 6.39077H41.4095L39.7661 3.46923Z" fill="white"/>
<path id="Vector_8" d="M1.84687 15.8858V10.1644H0.69043V16.3727H4.58581V15.8858H1.84687Z" fill="white"/>
<path id="Vector_9" d="M6.95943 10.1644H5.80298V16.3727H6.95943V10.1644Z" fill="white"/>
<path id="Vector_10" d="M8.29858 10.1644V10.5905H9.94195V16.3727H11.0984V10.5905H12.7418V10.1644H8.29858Z" fill="white"/>
<path id="Vector_11" d="M17.9153 10.5905V10.1644H14.0808V16.3727H17.9153V15.8858H15.2372V13.3294H17.7327V12.9034H15.2372V10.5905H17.9153Z" fill="white"/>
<path id="Vector_12" d="M22.5413 13.4512C23.0282 13.4512 23.4542 13.2686 23.7586 13.0251C24.0629 12.7816 24.1846 12.4164 24.1846 11.9904C24.1846 11.3817 24.002 10.9557 23.576 10.6514C23.2108 10.347 22.6021 10.1644 21.8109 10.1644H19.7415V16.3727H20.8979V10.5296H21.3848C21.9326 10.5296 22.3587 10.6514 22.6021 10.8948C22.8456 11.1383 23.0282 11.4426 23.0282 11.9295C23.0282 12.3556 22.9065 12.6599 22.6021 12.8425C22.3587 13.0251 21.8717 13.1468 21.2022 13.2077L22.9065 16.3727H24.1846L22.5413 13.4512Z" fill="white"/>
<path id="Vector_13" d="M27.2277 10.0427L24.6714 16.3727H25.2192L25.7061 14.9728L25.8278 14.7294L26.0104 14.3033L26.0713 14.1207L26.1322 14.0598L26.9234 12.0513L27.7755 14.2424L27.8364 14.3033L27.9581 14.7294H28.019L28.1407 15.0337V15.0945L28.6276 16.3727H29.8449L27.2277 10.0427Z" fill="white"/>
<path id="Vector_14" d="M29.9058 10.1644V10.5905H31.4883V16.3727H32.6447V10.5905H34.2881V10.1644H29.9058Z" fill="white"/>
<path id="Vector_15" d="M39.4617 10.1644V13.9381C39.4617 14.6685 39.34 15.1554 39.1574 15.4597C38.9748 15.7641 38.6096 15.8858 38.1227 15.8858C37.6358 15.8858 37.2706 15.7641 37.088 15.4597C36.9054 15.1554 36.7836 14.6685 36.7836 13.9381V10.1644H35.6272V14.1207C35.6272 14.6076 35.6881 14.9119 35.7489 15.2163C35.8098 15.4597 35.9924 15.7032 36.175 15.8858C36.3576 16.0684 36.601 16.251 36.9054 16.3727C37.2097 16.4944 37.514 16.5553 37.8792 16.5553C38.6096 16.5553 39.1574 16.3727 39.5226 15.9466C39.8878 15.5206 40.0704 14.9728 40.0704 14.1207V10.1644H39.4617Z" fill="white"/>
<path id="Vector_16" d="M44.8176 13.4512C45.3654 13.4512 45.7306 13.2686 46.0349 13.0251C46.3393 12.7816 46.461 12.4164 46.461 11.9904C46.461 11.3817 46.2784 10.9557 45.8523 10.6514C45.4263 10.347 44.8785 10.1644 44.0873 10.1644H42.0178V16.3727H43.1743V10.5296H43.6612C44.209 10.5296 44.5742 10.6514 44.8785 10.8948C45.122 11.1383 45.3046 11.4426 45.3046 11.9295C45.3046 12.3556 45.1828 12.6599 44.8785 12.8425C44.635 13.0251 44.1481 13.1468 43.4786 13.2077L45.1828 16.3727H46.461L44.8176 13.4512Z" fill="white"/>
<path id="Vector_17" d="M52 10.5905V10.1644H48.1655V16.3727H52V15.8858H49.322V13.3294H51.8174V12.9034H49.322V10.5905H52Z" fill="white"/>
<path id="Vector_18" d="M4.64668 20.5724V20.1464H0.69043V26.3546H1.84687V23.3114H4.52495V22.8853H1.84687V20.5724H4.64668Z" fill="white"/>
<path id="Vector_19" d="M10.0638 20.5724V20.1464H6.16846V26.3546H10.0638V25.9286H7.3249V23.3722H9.88124V22.8853H7.3249V20.5724H10.0638Z" fill="white"/>
<path id="Vector_20" d="M15.1766 23.5549C14.9331 23.3115 14.5071 23.0071 13.8375 22.7028C13.4115 22.5202 13.1071 22.3376 12.9246 22.155C12.742 21.9724 12.6811 21.7898 12.6811 21.5464C12.6811 21.242 12.742 20.9986 12.9854 20.816C13.2289 20.6334 13.4115 20.5117 13.7158 20.5117C14.0201 20.5117 14.2636 20.5725 14.4462 20.7551C14.6288 20.9377 14.8114 21.1203 14.9331 21.4246L15.3592 21.1203C15.1766 20.7551 14.9331 20.5117 14.6288 20.2682C14.3245 20.0856 13.9593 19.9639 13.4723 19.9639C12.9246 19.9639 12.4376 20.1465 12.0724 20.5117C11.7073 20.8768 11.5247 21.3029 11.5247 21.8507C11.5247 22.2159 11.6464 22.5811 11.829 22.8245C12.0116 23.068 12.3768 23.3115 12.9246 23.4941C13.8375 23.8593 14.3245 24.3462 14.3245 24.8331C14.3245 25.1374 14.2027 25.4418 14.0201 25.6243C13.8375 25.8069 13.5332 25.9287 13.2289 25.9287C12.9854 25.9287 12.742 25.8678 12.5594 25.6852C12.3159 25.5635 12.1942 25.32 12.0116 25.0766L11.5247 25.3809C11.7681 25.7461 12.0116 25.9895 12.3159 26.1721C12.6202 26.3547 12.9854 26.4156 13.4115 26.4156C14.0201 26.4156 14.5071 26.233 14.8723 25.8678C15.2374 25.5026 15.42 25.0157 15.42 24.4679C15.4809 24.1636 15.42 23.7984 15.1766 23.5549Z" fill="white"/>
<path id="Vector_21" d="M16.4548 20.1464V20.5724H18.0982V26.3546H19.2546V20.5724H20.8371V20.1464H16.4548Z" fill="white"/>
<path id="Vector_22" d="M23.3933 20.1464H22.2368V26.3546H23.3933V20.1464Z" fill="white"/>
<path id="Vector_23" d="M29.1146 20.1464L27.5321 24.4069L25.8888 20.1464H24.6106L27.2278 26.5372L29.7233 20.1464H29.1146Z" fill="white"/>
<path id="Vector_24" d="M32.3403 20.0247L29.7839 26.3547H30.3317L30.8795 25.0156L31.0012 24.7113L31.123 24.3461L31.1838 24.1635L32.036 22.0332L32.8272 24.0418L33.1315 24.7113L33.2533 24.9548V25.0765L33.801 26.3547H35.0184L32.3403 20.0247Z" fill="white"/>
<path id="Vector_25" d="M37.4533 25.9286V20.1464H36.2969V26.3546H40.1314V25.9286H37.4533Z" fill="white"/>
</g>
</svg>
