<svg width="245" height="70" viewBox="0 0 245 70" fill="none" xmlns="http://www.w3.org/2000/svg">
<g clip-path="url(#clip0_203_457)">
<path fill-rule="evenodd" clip-rule="evenodd" d="M61.1707 53.2412C61.1707 55.1069 59.6381 56.6395 57.7723 56.6395C55.9065 56.6395 54.3739 55.1069 54.3739 53.2412C54.3739 53.0412 54.3739 52.8413 54.4405 52.7081V17.2584C54.3739 11.6611 49.7761 7.19655 44.1788 7.19655C38.6481 7.19655 34.1836 11.5278 33.9837 16.9919V32.5177V44.8452V60.9708V64.9022C33.9837 65.1021 34.0503 65.302 34.0503 65.5019C34.0503 67.5676 32.5177 69.2335 30.652 69.2335C28.7862 69.2335 27.2536 67.5676 27.2536 65.5019C27.2536 65.302 27.2536 65.1021 27.3202 64.9022L27.3869 42.513V38.0484V17.2584C27.2536 11.3945 23.1222 6.73011 17.1251 6.73011C11.5278 6.73011 6.99664 11.1946 6.93001 16.792V43.1127V43.3126V64.8356C6.99664 65.0355 6.99664 65.2354 6.99664 65.4353C6.99664 67.501 5.46405 69.1669 3.59827 69.1669C1.7325 69.1669 0 67.501 0 65.5019C0 65.302 0 65.1021 0.0666347 64.9022V61.0374V50.3759V40.7805V16.8586C0.0666347 7.52972 7.66299 0 16.9918 0C22.6558 0 27.6534 2.79866 30.7186 7.06328C33.8504 3.0652 38.7148 0.466443 44.1788 0.466443C53.5077 0.466443 61.104 7.99617 61.1707 17.325V52.7747C61.1707 52.908 61.1707 53.0412 61.1707 53.2412Z" fill="#0077B6"/>
<path fill-rule="evenodd" clip-rule="evenodd" d="M101.951 20.1236C101.951 22.1893 100.418 23.8552 98.5527 23.8552C96.6869 23.8552 95.1543 22.1893 95.1543 20.1236C95.1543 19.9237 95.2209 16.9252 95.2209 16.9252C95.021 13.86 93.4884 11.1946 91.2229 9.46209C89.4904 8.12939 87.3581 7.39641 85.0258 7.39641C79.4285 7.39641 74.8974 11.9276 74.7641 17.4583V22.6558H74.8307V27.2536H84.9592C86.8916 27.2536 88.4908 28.8528 88.4908 30.7852C88.4908 32.7176 86.8916 34.3168 84.9592 34.3168H74.8307V47.5771C74.8307 47.7104 74.8307 47.8437 74.8307 47.9103C74.8307 48.1769 74.8307 48.4434 74.8307 48.7099C74.8307 48.8432 74.8307 48.9098 74.8307 49.0431C74.8307 49.243 74.8307 49.3763 74.7641 49.5762C74.7641 50.4424 74.7641 51.3753 74.7641 52.2416C74.6308 61.5704 67.2344 69.3001 57.7056 69.3001C48.3767 69.3001 40.7804 61.7703 40.7137 52.4415V46.2445V26.4539V16.9918C40.7137 16.7919 40.6471 16.592 40.6471 16.3921C40.6471 14.5263 42.1797 12.9937 44.0455 12.9937C45.9112 12.9937 47.4438 14.5263 47.4438 16.3921C47.4438 16.592 47.4438 16.7919 47.3772 16.9918V18.3911V22.9223V45.6447V52.4415C47.3772 53.9074 47.7104 55.2401 48.3101 56.5062C48.4434 56.7727 51.1754 62.3701 57.639 62.3701C63.2363 62.3701 67.8341 57.7723 67.9007 52.1749V49.4429C67.9007 49.3096 67.9007 49.1764 67.9007 49.0431C67.9007 48.9765 67.9007 48.9098 67.9007 48.8432V17.4583C67.9673 8.12939 75.5637 0.59967 84.8926 0.59967C87.8911 0.59967 90.6898 1.39929 93.0886 2.73198C97.8197 5.33074 101.151 10.1284 101.751 15.7924L101.818 16.592C101.818 16.8585 101.818 17.1917 101.818 17.5249C101.951 17.4583 101.951 19.9237 101.951 20.1236Z" fill="#0296C7"/>
<path fill-rule="evenodd" clip-rule="evenodd" d="M20.4569 64.9688C20.4569 65.1687 20.5235 65.3686 20.5235 65.5686C20.5235 67.6342 18.9909 69.3001 17.1252 69.3001C15.2594 69.3001 13.7268 67.6342 13.7268 65.5686C13.7268 65.3686 13.7268 65.1687 13.7934 64.9688V17.325C13.7268 17.1251 13.7268 16.9252 13.7268 16.7253C13.7268 14.8595 15.2594 13.3269 17.1252 13.3269C18.9909 13.3269 20.5235 14.8595 20.5235 16.7253C20.5235 16.9252 20.5235 17.1251 20.4569 17.325V64.9688Z" fill="#0296C7"/>
<path d="M94.4836 27.2178L90.9027 30.7987L94.4836 34.3796L98.0646 30.7987L94.4836 27.2178Z" fill="#0077B6"/>
<g opacity="0.65">
<mask id="mask0_203_457" style="mask-type:luminance" maskUnits="userSpaceOnUse" x="13" y="13" width="8" height="31">
<path d="M20.4568 13.3269H13.66V43.5791H20.4568V13.3269Z" fill="white"/>
</mask>
<g mask="url(#mask0_203_457)">
<path fill-rule="evenodd" clip-rule="evenodd" d="M20.5234 16.7253C20.5234 16.9252 20.5234 17.1251 20.4568 17.325V41.7799C18.0579 42.7794 15.7923 43.3125 13.7267 43.5791V17.325C13.66 17.1251 13.66 16.9252 13.66 16.7253C13.66 14.8595 15.1926 13.3269 17.0584 13.3269C18.9242 13.3269 20.5234 14.8595 20.5234 16.7253Z" fill="#02B4D7"/>
</g>
</g>
<g opacity="0.65">
<mask id="mask1_203_457" style="mask-type:luminance" maskUnits="userSpaceOnUse" x="40" y="13" width="8" height="14">
<path d="M47.4438 13.0604H40.6471V26.5206H47.4438V13.0604Z" fill="white"/>
</mask>
<g mask="url(#mask1_203_457)">
<path fill-rule="evenodd" clip-rule="evenodd" d="M47.4438 16.9917V18.391V22.9222C44.9117 23.6552 42.7794 24.9212 40.7137 26.5205V17.0583C40.7137 16.8584 40.6471 16.6585 40.6471 16.5253C40.6471 14.6595 42.1797 13.1269 44.0455 13.1269C45.9112 13.1269 47.4438 14.6595 47.4438 16.5253C47.5105 16.6585 47.5105 16.8584 47.4438 16.9917Z" fill="#02B4D7"/>
</g>
</g>
<g opacity="0.65">
<mask id="mask2_203_457" style="mask-type:luminance" maskUnits="userSpaceOnUse" x="0" y="0" width="62" height="44">
<path d="M61.1707 0H0V43.3792H61.1707V0Z" fill="white"/>
</mask>
<g mask="url(#mask2_203_457)">
<path fill-rule="evenodd" clip-rule="evenodd" d="M61.1707 17.2584V23.5221C58.7052 22.7891 56.4396 22.3226 54.4405 22.1894V17.2584C54.3739 11.6611 49.8428 7.19655 44.2454 7.19655C38.7148 7.19655 34.2502 11.5278 34.0503 16.9919V32.5177C31.9847 34.3835 29.8523 36.3159 27.3202 38.1151V17.325C27.187 11.4612 23.0556 6.79674 17.0585 6.79674C11.4612 6.79674 6.93001 11.2613 6.79674 16.8586V43.1793V43.3792C3.93145 42.7795 1.66587 41.78 0 40.7804V16.8586C0.0666347 7.52972 7.66299 0 16.9918 0C22.6558 0 27.6534 2.79866 30.7186 7.06328C33.8504 3.0652 38.7148 0.466443 44.1788 0.466443C53.5077 0.399808 61.0374 7.92953 61.1707 17.2584Z" fill="#02B4D7"/>
</g>
</g>
<g opacity="0.65">
<mask id="mask3_203_457" style="mask-type:luminance" maskUnits="userSpaceOnUse" x="67" y="0" width="27" height="26">
<path d="M93.1553 0.59967H67.9674V25.9875H93.1553V0.59967Z" fill="white"/>
</mask>
<g mask="url(#mask3_203_457)">
<path fill-rule="evenodd" clip-rule="evenodd" d="M93.1553 2.73198C92.6889 4.46448 92.0892 6.86333 91.1563 9.46209C89.4238 8.12939 87.2915 7.39641 84.9593 7.39641C79.3619 7.39641 74.8308 11.9276 74.6975 17.4583V22.6558H74.7641V25.8542C72.7651 26.1208 70.4995 26.0541 67.9674 25.521V17.4583C68.034 8.12939 75.6304 0.59967 84.9593 0.59967C87.9578 0.59967 90.7565 1.39929 93.1553 2.73198Z" fill="#02B4D7"/>
</g>
</g>
</g>
<path d="M123.344 0.31665L118.913 11.3946L114.482 0.31665H111V16.6171H112.424V3.48179L118.122 17.2501L123.661 3.48179V16.6171H126.509V0.31665H123.344Z" fill="black"/>
<path d="M136.479 0L129.833 16.617H131.257L132.84 12.5023L132.998 12.1858L133.314 11.2362L133.631 10.445L135.688 5.38073L137.745 10.445L138.062 11.2362L138.537 12.1858L139.012 13.6101L140.278 16.617H143.443L136.479 0Z" fill="black"/>
<path d="M149.773 15.3511V0.31665H146.766V16.6171H156.736V15.3511H149.773Z" fill="black"/>
<path d="M164.174 0L157.528 16.617H158.952L160.376 13.1353L160.693 12.1858L161.168 11.2362V10.9197L163.383 5.38073L165.599 10.9197L166.232 12.1858L166.865 13.6101L167.973 16.617H171.138L164.174 0Z" fill="black"/>
<path d="M185.064 9.49556C184.431 8.70427 183.64 8.2295 182.532 7.91299C183.482 7.75473 184.115 7.27996 184.59 6.64693C185.064 6.0139 185.381 5.38088 185.381 4.43133C185.381 3.64005 185.223 3.00702 184.748 2.374C184.431 1.74097 183.798 1.26619 183.165 0.949681C182.849 0.791424 182.216 0.633168 181.583 0.474911C180.95 0.316654 180.158 0.31665 179.051 0.31665H174.303V16.4589H180C181.899 16.4589 183.482 16.1423 184.431 15.3511C185.381 14.5598 185.856 13.6102 185.856 12.0277C186.014 11.0781 185.697 10.2868 185.064 9.49556ZM177.468 1.42445H178.734C180 1.42445 181.108 1.74096 181.741 2.21573C182.374 2.69051 182.691 3.48179 182.691 4.58959C182.691 5.69739 182.374 6.48867 181.899 6.96344C181.266 7.43821 180.475 7.75473 179.051 7.75473H177.626V1.42445H177.468ZM182.216 14.718C181.583 15.1928 180.633 15.5093 179.367 15.5093H177.468V8.54601H178.892C180.317 8.54601 181.266 8.86253 182.058 9.49556C182.691 10.1286 183.165 11.0781 183.165 12.3442C183.165 13.452 182.849 14.2433 182.216 14.718Z" fill="black"/>
<path d="M195.193 0L188.546 16.617H189.97L191.395 12.8188L191.553 12.1858L192.028 11.2362L192.344 10.6032L194.401 5.38073L196.617 10.7615L197.25 12.1858L197.408 12.8188L198.833 16.617H202.156L195.193 0Z" fill="black"/>
<path d="M212.601 9.02057C213.867 9.02057 214.975 8.54581 215.766 7.91278C216.558 7.27975 216.874 6.33021 216.874 5.22241C216.874 3.63984 216.399 2.53204 215.291 1.74076C214.342 0.949471 212.759 0.474701 210.702 0.474701H205.321V16.6169H208.328V1.42424H209.594C211.019 1.42424 212.126 1.74076 212.759 2.37379C213.392 3.00681 213.867 3.79809 213.867 5.06415C213.867 6.17195 213.551 6.96323 212.759 7.438C212.126 7.91277 210.86 8.22929 209.119 8.38755L213.551 16.6169H216.874L212.601 9.02057Z" fill="black"/>
<path d="M114.007 41.305V26.4289H111V42.5711H121.128V41.305H114.007Z" fill="black"/>
<path d="M127.3 26.4289H124.294V42.5711H127.3V26.4289Z" fill="black"/>
<path d="M130.782 26.4289V27.5367H135.055V42.5711H138.062V27.5367H142.335V26.4289H130.782Z" fill="black"/>
<path d="M155.787 27.5367V26.4289H145.817V42.5711H155.787V41.305H148.824V34.6582H155.312V33.5504H148.824V27.5367H155.787Z" fill="black"/>
<path d="M167.814 34.9747C169.08 34.9747 170.188 34.5 170.979 33.8669C171.771 33.2339 172.087 32.2844 172.087 31.1766C172.087 29.594 171.612 28.4862 170.505 27.6949C169.555 26.9036 167.972 26.4289 165.915 26.4289H160.534V42.5711H163.541V27.3784H164.807C166.232 27.3784 167.339 27.6949 167.972 28.328C168.606 28.961 169.08 29.7523 169.08 31.0183C169.08 32.1261 168.764 32.9174 167.972 33.3922C167.339 33.8669 166.073 34.1835 164.333 34.3417L168.764 42.5711H172.087L167.814 34.9747Z" fill="black"/>
<path d="M180 26.1124L173.353 42.5711H174.778L176.044 38.9312L176.36 38.2982L176.835 37.1904L176.993 36.7156L177.151 36.5574L179.209 31.3349L181.424 37.0322L181.583 37.1904L181.899 38.2982H182.057L182.374 39.0895V39.2477L183.64 42.5711H186.805L180 26.1124Z" fill="black"/>
<path d="M186.963 26.4289V27.5367H191.078V42.5711H194.085V27.5367H198.358V26.4289H186.963Z" fill="black"/>
<path d="M211.81 26.4289V36.2408C211.81 38.1399 211.493 39.4059 211.018 40.1972C210.543 40.9885 209.594 41.305 208.328 41.305C207.062 41.305 206.112 40.9885 205.638 40.1972C205.163 39.4059 204.846 38.1399 204.846 36.2408V26.4289H201.839V36.7156C201.839 37.9816 201.998 38.7729 202.156 39.5642C202.314 40.1972 202.789 40.8303 203.264 41.305C203.738 41.7798 204.371 42.2546 205.163 42.5711C205.954 42.8876 206.745 43.0458 207.695 43.0458C209.594 43.0458 211.018 42.5711 211.968 41.4633C212.917 40.3555 213.392 38.9312 213.392 36.7156V26.4289H211.81Z" fill="black"/>
<path d="M225.736 34.9747C227.16 34.9747 228.11 34.5 228.901 33.8669C229.693 33.2339 230.009 32.2844 230.009 31.1766C230.009 29.594 229.534 28.4862 228.426 27.6949C227.319 26.9036 225.894 26.4289 223.837 26.4289H218.456V42.5711H221.463V27.3784H222.729C224.154 27.3784 225.103 27.6949 225.894 28.328C226.527 28.961 227.002 29.7523 227.002 31.0183C227.002 32.1261 226.686 32.9174 225.894 33.3922C225.261 33.8669 223.995 34.1835 222.254 34.3417L226.686 42.5711H230.009L225.736 34.9747Z" fill="black"/>
<path d="M244.411 27.5367V26.4289H234.44V42.5711H244.411V41.305H237.447V34.6582H243.936V33.5504H237.447V27.5367H244.411Z" fill="black"/>
<path d="M121.287 53.4908V52.383H111V68.5252H114.007V60.6124H120.97V59.5046H114.007V53.4908H121.287Z" fill="black"/>
<path d="M135.372 53.4908V52.383H125.243V68.5252H135.372V67.4174H128.25V60.7706H134.897V59.5046H128.25V53.4908H135.372Z" fill="black"/>
<path d="M148.665 61.2455C148.032 60.6125 146.924 59.8212 145.183 59.0299C144.076 58.5551 143.284 58.0804 142.81 57.6056C142.335 57.1308 142.177 56.6561 142.177 56.023C142.177 55.2318 142.335 54.5987 142.968 54.124C143.601 53.6492 144.076 53.3327 144.867 53.3327C145.658 53.3327 146.291 53.4909 146.766 53.9657C147.241 54.4405 147.716 54.9152 148.032 55.7065L149.14 54.9152C148.665 53.9657 148.032 53.3327 147.241 52.6996C146.449 52.2249 145.5 51.9084 144.234 51.9084C142.81 51.9084 141.544 52.3831 140.594 53.3327C139.644 54.2822 139.17 55.39 139.17 56.8143C139.17 57.7639 139.486 58.7134 139.961 59.3464C140.436 59.9795 141.385 60.6125 142.81 61.0873C145.183 62.0368 146.449 63.3029 146.449 64.5689C146.449 65.3602 146.133 66.1515 145.658 66.6263C145.183 67.101 144.392 67.4175 143.601 67.4175C142.968 67.4175 142.335 67.2593 141.86 66.7845C141.227 66.468 140.91 65.835 140.436 65.2019L139.17 65.9932C139.803 66.9428 140.436 67.5758 141.227 68.0506C142.018 68.5253 142.968 68.6836 144.076 68.6836C145.658 68.6836 146.924 68.2088 147.874 67.2593C148.823 66.3097 149.298 65.0437 149.298 63.6194C149.456 62.8281 149.298 61.8785 148.665 61.2455Z" fill="black"/>
<path d="M151.989 52.383V53.4908H156.262V68.5252H159.268V53.4908H163.383V52.383H151.989Z" fill="black"/>
<path d="M170.03 52.383H167.023V68.5252H170.03V52.383Z" fill="black"/>
<path d="M184.906 52.383L180.791 63.461L176.518 52.383H173.195L180 69L186.489 52.383H184.906Z" fill="black"/>
<path d="M193.293 52.0666L186.646 68.5253H188.071L189.495 65.0436L189.812 64.2523L190.128 63.3028L190.286 62.828L192.502 57.289L194.559 62.5115L195.351 64.2523L195.667 64.8854V65.2019L197.091 68.5253H200.257L193.293 52.0666Z" fill="black"/>
<path d="M206.587 67.4174V52.383H203.58V68.5252H213.551V67.4174H206.587Z" fill="black"/>
<defs>
<clipPath id="clip0_203_457">
<rect width="102" height="69.3001" fill="white"/>
</clipPath>
</defs>
</svg>
