<svg width="49" height="35" viewBox="0 0 49 35" fill="none" xmlns="http://www.w3.org/2000/svg">
<g clip-path="url(#clip0_1300_311504)">
<path fill-rule="evenodd" clip-rule="evenodd" d="M12.8488 14.2839C12.8488 14.6793 12.5519 15.0042 12.1905 15.0042C11.8291 15.0042 11.5323 14.6793 11.5323 14.2839C11.5323 14.2415 11.5323 14.1992 11.5452 14.1709V6.65774C11.5323 5.47144 10.6417 4.52523 9.55748 4.52523C8.48618 4.52523 7.6214 5.4432 7.58268 6.60124V9.89179V12.5045V15.9221V16.7553C7.58268 16.7977 7.59558 16.8401 7.59558 16.8824C7.59558 17.3202 7.29872 17.6733 6.93731 17.6733C6.57591 17.6733 6.27905 17.3202 6.27905 16.8824C6.27905 16.8401 6.27905 16.7977 6.29195 16.7553L6.30486 12.0102V11.064V6.65774C6.27905 5.41495 5.4788 4.42638 4.31715 4.42638C3.23295 4.42638 2.35526 5.37259 2.34235 6.55888V12.1373V12.1796V16.7412C2.35526 16.7836 2.35526 16.826 2.35526 16.8683C2.35526 17.3061 2.05839 17.6592 1.69699 17.6592C1.33559 17.6592 1 17.3061 1 16.8824C1 16.8401 1 16.7977 1.01291 16.7553V15.9362V13.6766V11.643V6.573C1.01291 4.59585 2.48433 3 4.29134 3C5.38845 3 6.35649 3.59315 6.95022 4.49699C7.55686 3.64964 8.49909 3.09886 9.55748 3.09886C11.3645 3.09886 12.8359 4.6947 12.8488 6.67186V14.185C12.8488 14.2133 12.8488 14.2415 12.8488 14.2839Z" fill="white"/>
<path fill-rule="evenodd" clip-rule="evenodd" d="M20.748 7.26498C20.748 7.70277 20.4512 8.05584 20.0898 8.05584C19.7284 8.05584 19.4315 7.70277 19.4315 7.26498C19.4315 7.22261 19.4444 6.58709 19.4444 6.58709C19.4057 5.93746 19.1088 5.37256 18.67 5.00537C18.3344 4.72292 17.9214 4.56757 17.4696 4.56757C16.3854 4.56757 15.5077 5.5279 15.4819 6.70007V7.80163H15.4948V8.77608H17.4567C17.831 8.77608 18.1408 9.11503 18.1408 9.52458C18.1408 9.93413 17.831 10.2731 17.4567 10.2731H15.4948V13.0835C15.4948 13.1117 15.4948 13.1399 15.4948 13.1541C15.4948 13.2106 15.4948 13.267 15.4948 13.3235C15.4948 13.3518 15.4948 13.3659 15.4948 13.3942C15.4948 13.4365 15.4948 13.4648 15.4819 13.5071C15.4819 13.6907 15.4819 13.8884 15.4819 14.072C15.4561 16.0492 14.0234 17.6874 12.1777 17.6874C10.3706 17.6874 8.89923 16.0916 8.88632 14.1144V12.801V8.60661V6.60122C8.88632 6.55885 8.87341 6.51648 8.87341 6.47411C8.87341 6.07868 9.17028 5.75386 9.53168 5.75386C9.89308 5.75386 10.1899 6.07868 10.1899 6.47411C10.1899 6.51648 10.1899 6.55885 10.177 6.60122V6.89779V7.85812V12.6739V14.1144C10.177 14.4251 10.2416 14.7075 10.3577 14.9759C10.3836 15.0324 10.9128 16.2187 12.1648 16.2187C13.249 16.2187 14.1396 15.2442 14.1525 14.0579V13.4789C14.1525 13.4506 14.1525 13.4224 14.1525 13.3942C14.1525 13.38 14.1525 13.3659 14.1525 13.3518V6.70007C14.1654 4.72292 15.6368 3.12708 17.4438 3.12708C18.0246 3.12708 18.5667 3.29655 19.0314 3.579C19.9478 4.12977 20.5932 5.1466 20.7093 6.34701L20.7222 6.51648C20.7222 6.57297 20.7222 6.64358 20.7222 6.7142C20.748 6.70007 20.748 7.22261 20.748 7.26498Z" fill="white"/>
<path fill-rule="evenodd" clip-rule="evenodd" d="M4.96244 16.7694C4.96244 16.8118 4.97535 16.8542 4.97535 16.8965C4.97535 17.3343 4.67848 17.6874 4.31708 17.6874C3.95568 17.6874 3.65881 17.3343 3.65881 16.8965C3.65881 16.8542 3.65881 16.8118 3.67172 16.7694V6.67181C3.65881 6.62945 3.65881 6.58708 3.65881 6.54471C3.65881 6.14928 3.95568 5.82446 4.31708 5.82446C4.67848 5.82446 4.97535 6.14928 4.97535 6.54471C4.97535 6.58708 4.97535 6.62945 4.96244 6.67181V16.7694Z" fill="white"/>
<path d="M19.3017 8.76853L18.608 9.52747L19.3017 10.2864L19.9953 9.52746L19.3017 8.76853Z" fill="white"/>
<g opacity="0.65">
<mask id="mask0_1300_311504" style="mask-type:luminance" maskUnits="userSpaceOnUse" x="3" y="5" width="2" height="8">
<path d="M4.96253 5.82446H3.646V12.2361H4.96253V5.82446Z" fill="white"/>
</mask>
<g mask="url(#mask0_1300_311504)">
<path fill-rule="evenodd" clip-rule="evenodd" d="M4.97544 6.54471C4.97544 6.58708 4.97544 6.62945 4.96253 6.67181V11.8548C4.49787 12.0666 4.05903 12.1796 3.6589 12.2361V6.67181C3.646 6.62945 3.646 6.58708 3.646 6.54471C3.646 6.14928 3.94286 5.82446 4.30426 5.82446C4.66567 5.82446 4.97544 6.14928 4.97544 6.54471Z" fill="white"/>
</g>
</g>
<g opacity="0.65">
<mask id="mask1_1300_311504" style="mask-type:luminance" maskUnits="userSpaceOnUse" x="8" y="5" width="3" height="4">
<path d="M10.1899 5.76801H8.87341V8.62075H10.1899V5.76801Z" fill="white"/>
</mask>
<g mask="url(#mask1_1300_311504)">
<path fill-rule="evenodd" clip-rule="evenodd" d="M10.1899 6.60103V6.8976V7.85793C9.69947 8.01328 9.28644 8.28161 8.88632 8.62055V6.61515C8.88632 6.57278 8.87341 6.53041 8.87341 6.50217C8.87341 6.10674 9.17028 5.78192 9.53168 5.78192C9.89308 5.78192 10.1899 6.10674 10.1899 6.50217C10.2029 6.53041 10.2029 6.57278 10.1899 6.60103Z" fill="white"/>
</g>
</g>
<g opacity="0.65">
<mask id="mask2_1300_311504" style="mask-type:luminance" maskUnits="userSpaceOnUse" x="1" y="3" width="12" height="10">
<path d="M12.8488 3H1V12.1938H12.8488V3Z" fill="white"/>
</mask>
<g mask="url(#mask2_1300_311504)">
<path fill-rule="evenodd" clip-rule="evenodd" d="M12.8488 6.65773V7.98525C12.3713 7.8299 11.9324 7.73105 11.5452 7.7028V6.65773C11.5323 5.47144 10.6546 4.52523 9.57039 4.52523C8.49909 4.52523 7.6343 5.4432 7.59558 6.60124V9.89179C7.19546 10.2872 6.78243 10.6968 6.29195 11.0781V6.67186C6.26614 5.42907 5.46589 4.4405 4.30424 4.4405C3.22004 4.4405 2.34235 5.38671 2.31654 6.573V12.1514V12.1938C1.76153 12.0667 1.32268 11.8548 1 11.643V6.573C1.01291 4.59585 2.48433 3 4.29134 3C5.38845 3 6.35649 3.59315 6.95022 4.49699C7.55686 3.64964 8.49909 3.09886 9.55748 3.09886C11.3645 3.08474 12.823 4.68058 12.8488 6.65773Z" fill="white"/>
</g>
</g>
<g opacity="0.65">
<mask id="mask3_1300_311504" style="mask-type:luminance" maskUnits="userSpaceOnUse" x="14" y="3" width="6" height="6">
<path d="M19.0443 3.12708H14.1654V8.50776H19.0443V3.12708Z" fill="white"/>
</mask>
<g mask="url(#mask3_1300_311504)">
<path fill-rule="evenodd" clip-rule="evenodd" d="M19.0443 3.579C18.954 3.94618 18.8378 4.45459 18.6571 5.00537C18.3215 4.72292 17.9085 4.56757 17.4567 4.56757C16.3725 4.56757 15.4948 5.5279 15.469 6.70007V7.80163H15.4819V8.47951C15.0947 8.536 14.6559 8.52188 14.1654 8.4089V6.70007C14.1783 4.72292 15.6497 3.12708 17.4567 3.12708C18.0376 3.12708 18.5797 3.29655 19.0443 3.579Z" fill="white"/>
</g>
</g>
</g>
<path d="M39.5339 2.27188C39.1098 2.13207 38.6858 1.95731 38.2618 1.8175C38.1639 1.78255 38.0987 1.7476 38.0661 1.64274C37.9682 1.32817 37.8704 1.01361 37.7725 0.699038C37.7725 0.524279 37.7073 0.419423 37.6747 0.279615C37.642 0.17476 37.5442 0.104856 37.479 0H37.2832C37.218 0.104856 37.1528 0.209712 37.1202 0.314567C36.9571 0.733991 36.8266 1.18837 36.6961 1.64274C36.6635 1.7476 36.6309 1.78255 36.533 1.8175C36.109 1.95731 35.685 2.13207 35.2609 2.27188C35.1305 2.30683 35 2.37673 35 2.55149C35 2.72625 35.1305 2.79615 35.2609 2.86606C35.6524 3.00587 36.0764 3.14567 36.5004 3.28548C36.6309 3.32043 36.6635 3.39034 36.7287 3.53015C36.8592 3.98452 36.9897 4.4389 37.1528 4.85832C37.1854 4.99813 37.2832 5.13793 37.4463 5.13793C37.6094 5.13793 37.6747 5.03308 37.7073 4.89327C37.7399 4.75346 37.8051 4.61366 37.8377 4.47385C37.9356 4.15928 38.0335 3.84471 38.1313 3.49519C38.1639 3.39034 38.1965 3.35539 38.2944 3.32043C38.7184 3.18063 39.1425 3.00587 39.5665 2.86606C39.697 2.83111 39.7948 2.72625 39.7948 2.58644C39.7948 2.41168 39.697 2.30683 39.5339 2.27188ZM37.9682 2.83111C37.903 2.86606 37.8377 2.86606 37.8051 2.90101C37.7399 2.97091 37.6747 3.04082 37.642 3.18063C37.5768 3.42529 37.479 3.66995 37.4137 3.94957C37.3159 3.635 37.2506 3.39034 37.1528 3.14567C37.1202 3.00587 37.0223 2.90101 36.8918 2.86606C36.6635 2.79615 36.4026 2.6913 36.1416 2.58644C36.4026 2.48159 36.6309 2.41168 36.8592 2.34178C37.0549 2.27188 37.1528 2.16702 37.1854 1.99226C37.2506 1.7476 37.3159 1.50293 37.4137 1.22332C37.5116 1.50293 37.5768 1.7476 37.642 2.02721C37.6747 2.13207 37.7399 2.23692 37.8051 2.27188C37.8377 2.30683 37.903 2.34178 37.9356 2.34178C38.1639 2.41168 38.3923 2.51654 38.6532 2.58644C38.4249 2.65635 38.1965 2.7612 37.9682 2.83111Z" fill="white"/>
<g clip-path="url(#clip1_1300_311504)">
<path d="M9.42436 31.6432C9.42436 32.3243 9.24152 32.8919 8.89247 33.3297C8.54342 33.7676 8.09464 34.1081 7.56275 34.3513C7.03087 34.5946 6.4325 34.773 5.80088 34.8703C5.16927 34.9676 4.5709 35 4.00577 34.9838C3.4074 34.9676 2.74254 34.8865 2.01119 34.7405C1.27985 34.5946 0.614993 34.3513 0 34.0432V30.8649L2.5597 33.8973C2.80902 33.9459 3.12483 33.9946 3.4905 34.0432C3.85617 34.0757 4.22185 34.0919 4.58752 34.0757C4.8867 34.0595 5.18589 34.027 5.48507 33.9459C5.76764 33.8811 6.03358 33.7676 6.24966 33.6216C6.48236 33.4757 6.64858 33.2973 6.79817 33.0865C6.94776 32.8757 6.99763 32.6162 6.99763 32.3243C6.99763 31.9027 6.88128 31.5622 6.63195 31.2865C6.38263 31.0108 6.08345 30.7838 5.7344 30.5892C5.38535 30.3946 5.00305 30.2486 4.60414 30.1027C4.20522 29.973 3.85617 29.8432 3.54037 29.7135C3.12483 29.5513 2.70929 29.373 2.31038 29.1784C1.91147 28.9838 1.54579 28.773 1.21337 28.5135C0.897558 28.2541 0.631615 27.9459 0.432157 27.5892C0.2327 27.2324 0.132972 26.8108 0.132972 26.3081C0.132972 25.7405 0.265943 25.254 0.531886 24.8486C0.797829 24.4432 1.1635 24.1027 1.61228 23.8432C2.07768 23.5838 2.60957 23.373 3.24118 23.2432C3.8728 23.1135 4.55427 23.0486 5.28562 23.0486C5.9671 23.0486 6.63195 23.0973 7.26357 23.2108C7.89518 23.3081 8.44369 23.4541 8.89247 23.6162V27.1676H8.85923L6.39925 23.973C6.2829 23.9568 6.16655 23.9243 6.0502 23.9081C5.93385 23.8919 5.8175 23.8757 5.68453 23.8595C5.60143 23.8432 5.5017 23.8432 5.40197 23.827C5.30224 23.827 5.21913 23.827 5.1194 23.8432C4.82022 23.8595 4.50441 23.8919 4.20522 23.9568C3.90604 24.0216 3.64009 24.1189 3.39077 24.2649C3.14145 24.4108 2.94199 24.5892 2.7924 24.8162C2.64281 25.0432 2.5597 25.3351 2.5597 25.6595C2.5597 25.9351 2.60957 26.1784 2.72592 26.3892C2.84227 26.6 2.99186 26.7784 3.1747 26.9568C3.35753 27.1189 3.57361 27.2649 3.82293 27.3946C4.07225 27.5243 4.3382 27.6378 4.62076 27.7351C5.06954 27.9135 5.5848 28.0919 6.13331 28.2865C6.68182 28.4811 7.2137 28.7081 7.69573 29C8.17775 29.2919 8.59328 29.6486 8.92571 30.0703C9.25814 30.4595 9.42436 30.9946 9.42436 31.6432Z" fill="white"/>
<path d="M13.1144 30.9946C13.1808 31.9351 13.4634 32.6486 13.9454 33.1513C14.4274 33.6541 15.0424 33.8973 15.7904 33.8973C16.2558 33.8973 16.7046 33.7838 17.1534 33.573C17.6021 33.3459 18.0509 32.9892 18.4831 32.5027L18.9651 32.8919C18.4166 33.6216 17.8515 34.1568 17.2365 34.4811C16.6215 34.8216 15.9234 34.9838 15.1089 34.9838C14.4607 34.9838 13.8623 34.8865 13.3304 34.6757C12.7985 34.4649 12.3498 34.173 11.9675 33.7676C11.5852 33.3784 11.3026 32.9081 11.0865 32.3568C10.8871 31.8054 10.7874 31.2054 10.7874 30.5243C10.7874 29.8432 10.8871 29.227 11.0865 28.6757C11.286 28.1243 11.5852 27.6541 11.9675 27.2649C12.3498 26.8757 12.8152 26.5676 13.3803 26.3568C13.9288 26.1459 14.5604 26.0486 15.2585 26.0486C16.0564 26.0486 16.7212 26.1784 17.2531 26.4378C17.785 26.6973 18.2171 27.0541 18.5163 27.5081C18.8155 27.9622 19.015 28.4811 19.0981 29.0649C19.1812 29.6649 19.1646 30.2973 19.0482 30.9622H13.1144V30.9946ZM15.3084 27.1189C14.7433 27.1189 14.2446 27.3622 13.8125 27.8649C13.3803 28.3513 13.1476 29.1297 13.0811 30.1838H16.9872C17.0038 29.8919 16.9872 29.5513 16.9705 29.1946C16.9539 28.8378 16.8874 28.5135 16.7711 28.2054C16.6547 27.8973 16.4885 27.6378 16.2558 27.427C16.0231 27.2162 15.7073 27.1189 15.3084 27.1189Z" fill="white"/>
<path d="M24.234 34.8054H20.2283L21.1425 33.5243L21.1258 24.3946L20.2449 23.0973L23.2866 22.3838V33.5243L24.234 34.8054Z" fill="white"/>
<path d="M32.1792 27.1027H28.1402V33.5405L29.3369 34.8216H25.0652L25.9794 33.5405V27.1027H25.1317V26.2757H25.9794V25.5946C25.9794 24.3946 26.2453 23.5189 26.7606 22.9838C27.2925 22.4486 28.0737 22.1892 29.1042 22.1892C29.4532 22.1892 29.8189 22.2216 30.1846 22.2702C30.5503 22.3189 30.9492 22.4 31.3315 22.4811V25.1892L29.3037 23.0811H29.1541C28.9214 23.0811 28.7551 23.1459 28.6056 23.2594C28.4726 23.373 28.3729 23.5189 28.3064 23.6973C28.2399 23.8757 28.19 24.0702 28.1734 24.2648C28.1568 24.4757 28.1402 24.654 28.1402 24.8324V26.2757H34.8386V33.5405L35.8857 34.8216H31.5642L32.6778 33.5405V27.8162L32.1792 27.1027ZM32.1459 23.6324L33.5754 21.9459L35.1378 23.3405L33.6751 24.9621L32.1459 23.6324Z" fill="white"/>
<path d="M42.501 33.8648C42.501 33.8648 42.5675 33.8648 42.7004 33.8162C42.7337 33.8 42.7835 33.8 42.8334 33.7837C42.7337 33.8162 42.6173 33.8486 42.501 33.8648ZM44.828 32.6324C44.7947 32.681 44.7449 32.7135 44.7116 32.7459C44.7615 32.7135 44.7947 32.681 44.8446 32.6486L44.828 32.6324Z" fill="white"/>
<path d="M42.7005 33.8487C42.7005 33.8324 42.7005 33.8324 42.7005 33.8162C42.5675 33.8487 42.501 33.8649 42.501 33.8649C42.3348 33.8973 42.152 33.9135 41.9691 33.9135C41.9857 33.9135 42.2184 33.9622 42.7005 33.8487ZM42.0855 34.9351C42.1021 34.9351 42.1021 34.9351 42.1187 34.9351C42.3182 34.9027 42.5176 34.8541 42.7005 34.8054C42.4678 34.8703 42.2517 34.9189 42.0855 34.9351Z" fill="white"/>
<path d="M48.9833 27.7838C49.3989 22.5135 44.9277 18.2973 40.5895 15.5568C39.9413 15.1514 39.1434 14.827 38.5617 14.3568C38.063 13.9514 37.4979 13.5784 36.8497 13.2378C36.3677 12.9784 35.8856 12.7189 35.5532 12.2811C34.7388 11.227 35.2374 9.7027 35.9355 8.56757C36.2181 8.0973 36.5339 7.62703 36.6004 7.07567C36.6502 6.52432 36.3344 5.90811 35.7859 5.82703C34.7388 7.51351 33.7248 9.21622 32.7442 10.9189C32.2622 11.7622 31.7801 12.6054 31.3147 13.4486C31.0488 13.9189 30.3008 14.8757 31.0654 15.2811C31.4145 15.4595 31.8466 15.3946 32.2289 15.3622C33.3426 15.2649 34.423 15.4757 35.4867 15.8162H35.5033C37.3649 16.6757 39.1601 17.6973 40.8388 18.8486C43.4484 20.6162 46.4236 22.9838 47.4043 26.0649C47.7866 27.2486 47.7866 28.5459 47.3877 29.7297C46.8724 31.2378 45.7255 32.5351 44.2628 33.2324C43.2656 33.7027 42.0854 33.8973 41.0549 33.5243C40.0244 33.1514 39.2099 32.0973 39.3761 31.027C41.1879 31.0108 42.983 30.9946 44.7947 30.9784C44.8945 30.9784 44.9942 30.9784 45.0773 30.9135C45.1604 30.8486 45.1936 30.7514 45.2269 30.6541C45.6424 29.1784 44.9277 27.4919 43.6146 26.6649C42.3015 25.8216 40.4898 25.8541 39.1601 26.6486C37.8137 27.4432 36.9827 28.9514 36.9494 30.4757C36.9162 31.6757 37.3649 32.9081 38.2459 33.7514C39.3761 34.8216 41.1048 35.1622 42.6672 34.8703C45.3931 34.3514 47.9029 32.2108 48.6509 29.5838C48.8171 28.9676 48.9335 28.3676 48.9833 27.7838ZM40.0078 27.8486C40.4399 27.3622 40.9386 27.1027 41.5037 27.1027C41.9026 27.1027 42.2184 27.2162 42.4511 27.427C42.6838 27.6378 42.85 27.8973 42.9664 28.2054C43.0827 28.5135 43.1492 28.8378 43.1658 29.1946C43.1825 29.5513 43.1991 29.8757 43.1824 30.1838H39.2764C39.3429 29.1135 39.5756 28.3513 40.0078 27.8486ZM42.7004 33.8162C42.5675 33.8486 42.501 33.8649 42.501 33.8649C42.6173 33.8486 42.717 33.8162 42.8334 33.7838C42.7835 33.8 42.7503 33.8162 42.7004 33.8162Z" fill="white"/>
<path d="M47.6869 27.5244C47.6869 27.573 47.6869 27.6054 47.6869 27.6541C47.6869 27.6217 47.6869 27.573 47.6869 27.5244ZM42.7004 33.8162C42.7337 33.8 42.7835 33.8 42.8334 33.7838C42.7171 33.8162 42.6173 33.8487 42.501 33.8649C42.501 33.8649 42.5675 33.8649 42.7004 33.8162Z" fill="white"/>
<path d="M24.6995 10.1892C26.1621 7.64327 27.6082 5.09732 29.0709 2.55137C29.4199 1.95137 29.9186 1.85408 30.5336 2.1784C31.9796 2.95678 33.4091 3.73516 34.8551 4.51354C35.52 4.87029 35.6696 5.373 35.3039 6.03786C33.7083 8.82705 32.1126 11.6 30.517 14.3892C30.2178 14.9243 29.6859 15.0379 29.0875 14.7135C27.6414 13.9352 26.212 13.1568 24.7826 12.346C24.0678 11.9406 23.9681 11.4703 24.367 10.7892C24.4834 10.5946 24.5997 10.4 24.7161 10.1892C24.6995 10.2054 24.6995 10.1892 24.6995 10.1892ZM34.4895 6.573C34.6058 6.34597 34.7388 6.13516 34.8551 5.90813C35.0878 5.43786 34.9715 5.03246 34.5227 4.773C33.2262 4.04327 31.9132 3.34597 30.6001 2.64867C30.0183 2.34056 29.6028 2.47029 29.2703 3.05408C27.924 5.35678 26.6109 7.65948 25.3144 9.94597C25.0153 10.4811 25.1482 10.9189 25.6801 11.2108C26.8769 11.8595 28.057 12.5243 29.2703 13.1568C30.251 13.6757 30.4837 13.6108 31.0488 12.6379C32.1957 10.6271 33.3426 8.60002 34.4895 6.573ZM28.0902 13.6108C28.1235 13.546 28.1567 13.4973 28.2066 13.4325C27.8908 12.9135 26.694 12.2973 26.0957 12.5243C26.827 12.9135 27.4586 13.2541 28.0902 13.6108Z" fill="white"/>
<path d="M27.708 4.74051C27.2924 5.55132 27.1927 5.56754 26.4946 5.08105C26.0791 4.78916 25.6635 4.49727 25.2646 4.18916C24.8324 3.86484 24.6662 3.45943 24.9987 2.98916C25.3311 2.51889 25.7799 2.53511 26.2286 2.84321C26.6276 3.11889 27.0099 3.427 27.4088 3.68646C27.8908 3.99457 28.0903 4.33511 27.708 4.74051Z" fill="white"/>
<path d="M26.7605 6.3784C26.345 7.20542 26.1954 7.23785 25.4973 6.75137C25.0984 6.47569 24.6828 6.21623 24.3005 5.90813C23.8351 5.53515 23.7686 5.09731 24.1011 4.72434C24.4501 4.31894 24.8657 4.31894 25.2978 4.61083C25.6967 4.8865 26.079 5.1784 26.4946 5.43785C26.96 5.69731 27.1096 5.98921 26.7605 6.3784Z" fill="white"/>
<path d="M25.7799 8.0973C25.381 8.87568 25.2979 8.8919 24.5998 8.47027C24.284 8.2919 23.9848 8.0973 23.7022 7.87027C23.3199 7.57838 23.187 7.17298 23.4695 6.76757C23.7355 6.37838 24.151 6.26487 24.5832 6.50811C24.8824 6.67027 25.1483 6.88108 25.4475 7.05946C25.9295 7.35135 26.1622 7.67568 25.7799 8.0973Z" fill="white"/>
<path d="M24.4668 10.5298C23.2368 9.92975 23.0373 9.36219 23.7354 8.60002C23.8351 8.48651 24.1343 8.45408 24.3005 8.50273C24.5332 8.58381 24.7493 8.74597 24.9155 8.92435C24.9986 9.02165 25.0651 9.23246 25.0153 9.34597C24.8657 9.76759 24.6496 10.1406 24.4668 10.5298Z" fill="white"/>
<path d="M42.9996 34.7243C42.6672 34.854 42.368 34.9351 42.1353 34.9513C42.1187 34.9513 42.1187 34.9513 42.1021 34.9513C42.2683 34.9189 42.4677 34.8865 42.717 34.8216C42.8002 34.773 42.8999 34.7405 42.9996 34.7243Z" fill="white"/>
<path d="M42.8334 33.7838C42.7835 33.8 42.7337 33.8162 42.7004 33.8162C42.7004 33.8325 42.7004 33.8325 42.7004 33.8487C42.2184 33.946 41.9857 33.9135 41.9857 33.9135C42.1686 33.9135 42.3348 33.8973 42.5176 33.8649C42.6173 33.8487 42.7337 33.8162 42.8334 33.7838Z" fill="white"/>
<path d="M47.7035 27.7676C47.7035 27.7352 47.6869 27.7027 47.6869 27.6703C47.7035 27.6865 47.7035 27.7352 47.7035 27.7676Z" fill="white"/>
</g>
<defs>
<clipPath id="clip0_1300_311504">
<rect width="19.7575" height="14.6874" fill="white" transform="translate(1 3)"/>
</clipPath>
<clipPath id="clip1_1300_311504">
<rect width="49" height="33" fill="white" transform="translate(0 2)"/>
</clipPath>
</defs>
</svg>
