<svg width="32" height="26" viewBox="0 0 32 26" fill="none" xmlns="http://www.w3.org/2000/svg">
<g clip-path="url(#clip0_193_360)">
<path fill-rule="evenodd" clip-rule="evenodd" d="M19.3917 18.3654C19.3917 18.9039 18.9559 19.3462 18.4255 19.3462C17.895 19.3462 17.4592 18.9039 17.4592 18.3654C17.4592 18.3077 17.4592 18.25 17.4782 18.2115V7.98077C17.4592 6.36539 16.152 5.07692 14.5606 5.07692C12.9882 5.07692 11.7189 6.32692 11.662 7.90385V12.3846V15.9423V20.5962V21.7308C11.662 21.7885 11.681 21.8462 11.681 21.9039C11.681 22.5 11.2452 22.9808 10.7148 22.9808C10.1843 22.9808 9.74857 22.5 9.74857 21.9039C9.74857 21.8462 9.74857 21.7885 9.76752 21.7308L9.78646 15.2692V13.9808V7.98077C9.74857 6.28846 8.57397 4.94231 6.86891 4.94231C5.27751 4.94231 3.98924 6.23077 3.9703 7.84616V15.4423V15.5V21.7115C3.98924 21.7692 3.98924 21.8269 3.98924 21.8846C3.98924 22.4808 3.5535 22.9615 3.02304 22.9615C2.49257 22.9615 2 22.4808 2 21.9039C2 21.8462 2 21.7885 2.01895 21.7308V20.6154V17.5385V14.7692V7.86539C2.01895 5.17308 4.17869 3 6.83102 3C8.44135 3 9.86224 3.80769 10.7337 5.03846C11.6241 3.88462 13.0071 3.13462 14.5606 3.13462C17.213 3.13462 19.3727 5.30769 19.3917 8V18.2308C19.3917 18.2692 19.3917 18.3077 19.3917 18.3654Z" fill="black"/>
<path fill-rule="evenodd" clip-rule="evenodd" d="M30.9861 8.80768C30.9861 9.40383 30.5503 9.8846 30.0199 9.8846C29.4894 9.8846 29.0537 9.40383 29.0537 8.80768C29.0537 8.74999 29.0726 7.8846 29.0726 7.8846C29.0158 6.99999 28.58 6.23076 27.9359 5.73076C27.4433 5.34614 26.8371 5.1346 26.174 5.1346C24.5826 5.1346 23.2943 6.4423 23.2564 8.03845V9.53845H23.2754V10.8654H26.1551C26.7045 10.8654 27.1592 11.3269 27.1592 11.8846C27.1592 12.4423 26.7045 12.9038 26.1551 12.9038H23.2754V16.7308C23.2754 16.7692 23.2754 16.8077 23.2754 16.8269C23.2754 16.9038 23.2754 16.9808 23.2754 17.0577C23.2754 17.0961 23.2754 17.1154 23.2754 17.1538C23.2754 17.2115 23.2754 17.25 23.2564 17.3077C23.2564 17.5577 23.2564 17.8269 23.2564 18.0769C23.2186 20.7692 21.1156 23 18.4065 23C15.7542 23 13.5944 20.8269 13.5755 18.1346V16.3461V10.6346V7.90383C13.5755 7.84614 13.5565 7.78845 13.5565 7.73076C13.5565 7.1923 13.9923 6.74999 14.5227 6.74999C15.0532 6.74999 15.4889 7.1923 15.4889 7.73076C15.4889 7.78845 15.4889 7.84614 15.47 7.90383V8.30768V9.61537V16.1731V18.1346C15.47 18.5577 15.5647 18.9423 15.7352 19.3077C15.7731 19.3846 16.5499 21 18.3875 21C19.9789 21 21.2861 19.6731 21.3051 18.0577V17.2692C21.3051 17.2308 21.3051 17.1923 21.3051 17.1538C21.3051 17.1346 21.3051 17.1154 21.3051 17.0961V8.03845C21.324 5.34614 23.4838 3.17307 26.1361 3.17307C26.9886 3.17307 27.7843 3.40383 28.4664 3.78845C29.8115 4.53845 30.7587 5.92307 30.9292 7.55768L30.9482 7.78845C30.9482 7.86537 30.9482 7.96153 30.9482 8.05768C30.9861 8.03845 30.9861 8.74999 30.9861 8.80768Z" fill="black"/>
<path fill-rule="evenodd" clip-rule="evenodd" d="M7.81617 21.75C7.81617 21.8077 7.83512 21.8654 7.83512 21.9231C7.83512 22.5192 7.39938 23 6.86891 23C6.33845 23 5.90271 22.5192 5.90271 21.9231C5.90271 21.8654 5.90271 21.8077 5.92166 21.75V7.99998C5.90271 7.94228 5.90271 7.88459 5.90271 7.8269C5.90271 7.28844 6.33845 6.84613 6.86891 6.84613C7.39938 6.84613 7.83512 7.28844 7.83512 7.8269C7.83512 7.88459 7.83512 7.94228 7.81617 7.99998V21.75Z" fill="black"/>
<path d="M28.863 10.855L27.8448 11.8885L28.863 12.9219L29.8811 11.8885L28.863 10.855Z" fill="black"/>
<g opacity="0.65">
<mask id="mask0_193_360" style="mask-type:luminance" maskUnits="userSpaceOnUse" x="5" y="6" width="3" height="10">
<path d="M7.81619 6.84613H5.88379V15.5769H7.81619V6.84613Z" fill="white"/>
</mask>
<g mask="url(#mask0_193_360)">
<path fill-rule="evenodd" clip-rule="evenodd" d="M7.83514 7.8269C7.83514 7.88459 7.83514 7.94228 7.8162 7.99998V15.0577C7.13417 15.3461 6.49003 15.5 5.90273 15.5769V7.99998C5.88379 7.94228 5.88379 7.88459 5.88379 7.8269C5.88379 7.28844 6.31953 6.84613 6.84999 6.84613C7.38046 6.84613 7.83514 7.28844 7.83514 7.8269Z" fill="black"/>
</g>
</g>
<g opacity="0.65">
<mask id="mask1_193_360" style="mask-type:luminance" maskUnits="userSpaceOnUse" x="13" y="6" width="3" height="5">
<path d="M15.4889 6.76923H13.5565V10.6538H15.4889V6.76923Z" fill="white"/>
</mask>
<g mask="url(#mask1_193_360)">
<path fill-rule="evenodd" clip-rule="evenodd" d="M15.4889 7.90381V8.30765V9.61534C14.769 9.82688 14.1628 10.1923 13.5755 10.6538V7.92304C13.5755 7.86534 13.5565 7.80765 13.5565 7.76919C13.5565 7.23073 13.9923 6.78842 14.5227 6.78842C15.0532 6.78842 15.4889 7.23073 15.4889 7.76919C15.5079 7.80765 15.5079 7.86534 15.4889 7.90381Z" fill="black"/>
</g>
</g>
<g opacity="0.65">
<mask id="mask2_193_360" style="mask-type:luminance" maskUnits="userSpaceOnUse" x="2" y="3" width="18" height="13">
<path d="M19.3917 3H2V15.5192H19.3917V3Z" fill="white"/>
</mask>
<g mask="url(#mask2_193_360)">
<path fill-rule="evenodd" clip-rule="evenodd" d="M19.3917 7.98077V9.78846C18.6907 9.57692 18.0465 9.44231 17.4782 9.40385V7.98077C17.4592 6.36538 16.171 5.07692 14.5796 5.07692C13.0071 5.07692 11.7378 6.32692 11.681 7.90385V12.3846C11.0937 12.9231 10.4874 13.4808 9.76752 14V8C9.72962 6.30769 8.55503 4.96154 6.84996 4.96154C5.25857 4.96154 3.9703 6.25 3.93241 7.86538V15.4615V15.5192C3.11776 15.3462 2.47363 15.0577 2 14.7692V7.86538C2.01895 5.17308 4.17869 3 6.83102 3C8.44135 3 9.86224 3.80769 10.7337 5.03846C11.6241 3.88462 13.0071 3.13462 14.5606 3.13462C17.213 3.11538 19.3538 5.28846 19.3917 7.98077Z" fill="black"/>
</g>
</g>
<g opacity="0.65">
<mask id="mask3_193_360" style="mask-type:luminance" maskUnits="userSpaceOnUse" x="21" y="3" width="8" height="8">
<path d="M28.4854 3.17307H21.3241V10.5H28.4854V3.17307Z" fill="white"/>
</mask>
<g mask="url(#mask3_193_360)">
<path fill-rule="evenodd" clip-rule="evenodd" d="M28.4854 3.78845C28.3527 4.28845 28.1822 4.98076 27.917 5.73076C27.4244 5.34614 26.8182 5.1346 26.1551 5.1346C24.5637 5.1346 23.2754 6.4423 23.2376 8.03845V9.53845H23.2565V10.4615C22.6881 10.5384 22.044 10.5192 21.3241 10.3654V8.03845C21.343 5.34614 23.5028 3.17307 26.1551 3.17307C27.0076 3.17307 27.8033 3.40383 28.4854 3.78845Z" fill="black"/>
</g>
</g>
</g>
<defs>
<clipPath id="clip0_193_360">
<rect width="29" height="20" fill="white" transform="translate(2 3)"/>
</clipPath>
</defs>
</svg>
