<svg width="115" height="58" viewBox="0 0 115 58" fill="none" xmlns="http://www.w3.org/2000/svg">
<g clip-path="url(#clip0_25_15876)">
<path d="M72.826 32.3059L71.2823 36.1649L69.7387 32.3059H68.5259V37.9842H69.022V33.4085L71.0067 38.2047L72.9362 33.4085V37.9842H73.9286V32.3059H72.826Z" fill="black"/>
<path d="M77.4019 32.1956L75.0864 37.9842H75.5826L76.1339 36.5508L76.189 36.4406L76.2993 36.1098L76.4095 35.8341L77.1262 34.07L77.8429 35.8341L77.9532 36.1098L78.1185 36.4406L78.2839 36.9367L78.725 37.9842H79.8276L77.4019 32.1956Z" fill="black"/>
<path d="M82.0326 37.5432V32.3059H80.9851V37.9842H84.4583V37.5432H82.0326Z" fill="black"/>
<path d="M87.0493 32.1956L84.7339 37.9842H85.2301L85.7262 36.7713L85.8365 36.4406L86.0019 36.1098V35.9995L86.7737 34.07L87.5455 35.9995L87.766 36.4406L87.9865 36.9367L88.3724 37.9842H89.475L87.0493 32.1956Z" fill="black"/>
<path d="M94.3264 35.5034C94.1059 35.2277 93.8303 35.0624 93.4444 34.9521C93.7751 34.897 93.9957 34.7316 94.161 34.5111C94.3264 34.2905 94.4367 34.07 94.4367 33.7392C94.4367 33.4636 94.3816 33.2431 94.2162 33.0226C94.1059 32.802 93.8854 32.6367 93.6649 32.5264C93.5546 32.4713 93.3341 32.4161 93.1136 32.361C92.8931 32.3059 92.6174 32.3059 92.2315 32.3059H90.5776V37.9291H92.5623C93.2238 37.9291 93.7751 37.8188 94.1059 37.5432C94.4367 37.2675 94.6021 36.9368 94.6021 36.3855C94.6572 36.0547 94.547 35.779 94.3264 35.5034ZM91.6802 32.6918H92.1213C92.5623 32.6918 92.9482 32.802 93.1687 32.9674C93.3892 33.1328 93.4995 33.4085 93.4995 33.7944C93.4995 34.1803 93.3892 34.4559 93.2239 34.6213C93.0033 34.7867 92.7277 34.897 92.2315 34.897H91.7353V32.6918H91.6802ZM93.3341 37.3227C93.1136 37.488 92.7828 37.5983 92.3418 37.5983H91.6802V35.1726H92.1764C92.6726 35.1726 93.0033 35.2829 93.279 35.5034C93.4995 35.7239 93.6649 36.0547 93.6649 36.4957C93.6649 36.8816 93.5546 37.1573 93.3341 37.3227Z" fill="black"/>
<path d="M97.8547 32.1956L95.5393 37.9842H96.0355L96.5316 36.6611L96.5868 36.4406L96.7522 36.1098L96.8624 35.8893L97.5791 34.07L98.3509 35.9444L98.5714 36.4406L98.6265 36.6611L99.1227 37.9842H100.28L97.8547 32.1956Z" fill="black"/>
<path d="M103.919 35.338C104.36 35.338 104.746 35.1726 105.022 34.952C105.297 34.7315 105.408 34.4008 105.408 34.0148C105.408 33.4636 105.242 33.0776 104.856 32.802C104.525 32.5263 103.974 32.361 103.257 32.361H101.383V37.9842H102.431V32.6917H102.872C103.368 32.6917 103.754 32.802 103.974 33.0225C104.195 33.243 104.36 33.5187 104.36 33.9597C104.36 34.3456 104.25 34.6213 103.974 34.7867C103.754 34.952 103.313 35.0623 102.706 35.1174L104.25 37.9842H105.408L103.919 35.338Z" fill="black"/>
<path d="M69.5733 46.5844V41.4022H68.5259V47.0254H72.0542V46.5844H69.5733Z" fill="black"/>
<path d="M74.2042 41.4022H73.1567V47.0254H74.2042V41.4022Z" fill="black"/>
<path d="M75.417 41.4022V41.7881H76.9055V47.0254H77.9529V41.7881H79.4414V41.4022H75.417Z" fill="black"/>
<path d="M84.1275 41.7881V41.4022H80.6543V47.0254H84.1275V46.5844H81.7018V44.2689H83.9621V43.883H81.7018V41.7881H84.1275Z" fill="black"/>
<path d="M88.3172 44.3792C88.7582 44.3792 89.1441 44.2138 89.4198 43.9933C89.6954 43.7728 89.8057 43.442 89.8057 43.0561C89.8057 42.5048 89.6403 42.1189 89.2544 41.8432C88.9236 41.5676 88.3723 41.4022 87.6556 41.4022H85.7812V47.0254H86.8287V41.733H87.2697C87.7659 41.733 88.1518 41.8432 88.3723 42.0637C88.5929 42.2843 88.7582 42.5599 88.7582 43.0009C88.7582 43.3869 88.648 43.6625 88.3723 43.8279C88.1518 43.9933 87.7108 44.1035 87.1044 44.1587L88.648 47.0254H89.8057L88.3172 44.3792Z" fill="black"/>
<path d="M92.5623 41.292L90.2468 47.0254H90.743L91.184 45.7574L91.2943 45.5369L91.4597 45.151L91.5148 44.9856L91.5699 44.9305L92.2866 43.1112L93.0584 45.0959L93.1136 45.151L93.2238 45.5369H93.2789L93.3892 45.8126V45.8677L93.8302 47.0254H94.9328L92.5623 41.292Z" fill="black"/>
<path d="M94.988 41.4022V41.7881H96.4214V47.0254H97.4689V41.7881H98.9574V41.4022H94.988Z" fill="black"/>
<path d="M103.643 41.4022V44.8202C103.643 45.4818 103.533 45.9228 103.368 46.1985C103.202 46.4741 102.872 46.5844 102.43 46.5844C101.989 46.5844 101.659 46.4741 101.493 46.1985C101.328 45.9228 101.218 45.4818 101.218 44.8202V41.4022H100.17V44.9856C100.17 45.4266 100.225 45.7023 100.28 45.9779C100.336 46.1985 100.501 46.419 100.666 46.5844C100.832 46.7498 101.052 46.9151 101.328 47.0254C101.604 47.1357 101.879 47.1908 102.21 47.1908C102.872 47.1908 103.368 47.0254 103.698 46.6395C104.029 46.2536 104.195 45.7574 104.195 44.9856V41.4022H103.643Z" fill="black"/>
<path d="M108.495 44.3792C108.991 44.3792 109.322 44.2138 109.597 43.9933C109.873 43.7728 109.983 43.442 109.983 43.0561C109.983 42.5048 109.818 42.1189 109.432 41.8432C109.046 41.5676 108.55 41.4022 107.833 41.4022H105.959V47.0254H107.006V41.733H107.447C107.943 41.733 108.274 41.8432 108.55 42.0637C108.77 42.2843 108.936 42.5599 108.936 43.0009C108.936 43.3869 108.825 43.6625 108.55 43.8279C108.329 43.9933 107.888 44.1035 107.282 44.1587L108.825 47.0254H109.983L108.495 44.3792Z" fill="black"/>
<path d="M115 41.7881V41.4022H111.527V47.0254H115V46.5844H112.574V44.2689H114.835V43.883H112.574V41.7881H115Z" fill="black"/>
<path d="M72.1093 50.8293V50.4434H68.5259V56.0666H69.5733V53.3102H71.999V52.9242H69.5733V50.8293H72.1093Z" fill="black"/>
<path d="M77.0158 50.8293V50.4434H73.4875V56.0666H77.0158V55.6807H74.535V53.3653H76.8504V52.9242H74.535V50.8293H77.0158Z" fill="black"/>
<path d="M81.6466 53.5307C81.4261 53.3102 81.0402 53.0345 80.4338 52.7589C80.0479 52.5935 79.7722 52.4281 79.6068 52.2627C79.4414 52.0974 79.3863 51.932 79.3863 51.7114C79.3863 51.4358 79.4415 51.2153 79.662 51.0499C79.8825 50.8845 80.0479 50.7742 80.3235 50.7742C80.5992 50.7742 80.8197 50.8294 80.9851 50.9948C81.1505 51.1601 81.3159 51.3255 81.4261 51.6012L81.812 51.3255C81.6466 50.9948 81.4261 50.7742 81.1505 50.5537C80.8748 50.3883 80.544 50.2781 80.103 50.2781C79.6068 50.2781 79.1658 50.4435 78.835 50.7742C78.5043 51.105 78.3389 51.4909 78.3389 51.9871C78.3389 52.3179 78.4491 52.6486 78.6145 52.8692C78.7799 53.0897 79.1107 53.3102 79.6068 53.4756C80.4338 53.8064 80.8748 54.2474 80.8748 54.6884C80.8748 54.9641 80.7646 55.2397 80.5992 55.4051C80.4338 55.5705 80.1581 55.6808 79.8825 55.6808C79.662 55.6808 79.4415 55.6256 79.2761 55.4602C79.0555 55.35 78.9453 55.1295 78.7799 54.9089L78.3389 55.1846C78.5594 55.5154 78.7799 55.7359 79.0555 55.9013C79.3312 56.0667 79.662 56.1218 80.0479 56.1218C80.5992 56.1218 81.0402 55.9564 81.371 55.6256C81.7018 55.2949 81.8671 54.8538 81.8671 54.3577C81.9223 54.082 81.8671 53.7512 81.6466 53.5307Z" fill="black"/>
<path d="M82.8044 50.4434V50.8293H84.2929V56.0666H85.3404V50.8293H86.7738V50.4434H82.8044Z" fill="black"/>
<path d="M89.0892 50.4434H88.0417V56.0666H89.0892V50.4434Z" fill="black"/>
<path d="M94.2715 50.4434L92.8381 54.3025L91.3496 50.4434H90.1919L92.5625 56.232L94.8228 50.4434H94.2715Z" fill="black"/>
<path d="M97.1931 50.3332L94.8777 56.0666H95.3738L95.87 54.8538L95.9803 54.5782L96.0905 54.2474L96.1457 54.082L96.9175 52.1525L97.6342 53.9717L97.9098 54.5782L98.0201 54.7987V54.9089L98.5162 56.0666H99.6188L97.1931 50.3332Z" fill="black"/>
<path d="M101.824 55.6807V50.4434H100.777V56.0666H104.25V55.6807H101.824Z" fill="black"/>
<path fill-rule="evenodd" clip-rule="evenodd" d="M50.6088 44.0484C50.6088 45.5921 49.3408 46.86 47.7972 46.86C46.2536 46.86 44.9856 45.5921 44.9856 44.0484C44.9856 43.883 44.9856 43.7177 45.0407 43.6074V14.2785C44.9856 9.64765 41.1817 5.95398 36.5508 5.95398C31.9751 5.95398 28.2814 9.5374 28.116 14.058V26.9032V37.1021V50.4435V53.6961C28.116 53.8615 28.1711 54.0269 28.1711 54.1923C28.1711 55.9013 26.9032 57.2795 25.3595 57.2795C23.8159 57.2795 22.5479 55.9013 22.5479 54.1923C22.5479 54.0269 22.5479 53.8615 22.6031 53.6961L22.6582 35.1726V31.4789V14.2785C22.5479 9.42714 19.1299 5.56808 14.1683 5.56808C9.53739 5.56808 5.78859 9.26175 5.73346 13.8926V35.6688V35.8341V53.641C5.78859 53.8064 5.78859 53.9717 5.78859 54.1371C5.78859 55.8461 4.52061 57.2244 2.97699 57.2244C1.43337 57.2244 0 55.8461 0 54.1923C0 54.0269 0 53.8615 0.0551294 53.6961V50.4986V41.6779V33.7392V13.9478C0.0551294 6.22963 6.33988 0 14.058 0C18.744 0 22.8787 2.31544 25.4147 5.84372C28.0057 2.53596 32.0302 0.385906 36.5508 0.385906C44.2689 0.385906 50.5537 6.61553 50.6088 14.3337V43.6625C50.6088 43.7728 50.6088 43.883 50.6088 44.0484Z" fill="#0077B6"/>
<path fill-rule="evenodd" clip-rule="evenodd" d="M84.348 16.6491C84.348 18.3581 83.08 19.7363 81.5364 19.7363C79.9928 19.7363 78.7248 18.3581 78.7248 16.6491C78.7248 16.4837 78.7799 14.0029 78.7799 14.0029C78.6145 11.4669 77.3466 9.26174 75.4722 7.82837C74.0388 6.72578 72.2747 6.11936 70.3451 6.11936C65.7143 6.11936 61.9654 9.86816 61.8552 14.4439V18.744H61.9103V22.5479H70.29C71.8888 22.5479 73.2119 23.871 73.2119 25.4698C73.2119 27.0685 71.8888 28.3917 70.29 28.3917H61.9103V39.3624C61.9103 39.4727 61.9103 39.5829 61.9103 39.6381C61.9103 39.8586 61.9103 40.0791 61.9103 40.2996C61.9103 40.4099 61.9103 40.465 61.9103 40.5753C61.9103 40.7406 61.9103 40.8509 61.8552 41.0163C61.8552 41.733 61.8552 42.5048 61.8552 43.2215C61.7449 50.9396 55.6256 57.3346 47.742 57.3346C40.0239 57.3346 33.7392 51.105 33.684 43.3869V38.2598V21.8864V14.058C33.684 13.8926 33.6289 13.7272 33.6289 13.5618C33.6289 12.0182 34.8969 10.7502 36.4405 10.7502C37.9841 10.7502 39.2521 12.0182 39.2521 13.5618C39.2521 13.7272 39.2521 13.8926 39.197 14.058V15.2157V18.9645V37.7637V43.3869C39.197 44.5997 39.4726 45.7023 39.9688 46.7498C40.0791 46.9703 42.3394 51.6011 47.6869 51.6011C52.3178 51.6011 56.1217 47.7972 56.1769 43.1663V40.906C56.1769 40.7958 56.1769 40.6855 56.1769 40.5753C56.1769 40.5201 56.1769 40.465 56.1769 40.4099V14.4439C56.232 6.72578 62.5167 0.496155 70.2349 0.496155C72.7157 0.496155 75.0311 1.15771 77.0158 2.2603C80.93 4.41035 83.6865 8.37967 84.1826 13.0657L84.2378 13.7272C84.2378 13.9477 84.2378 14.2234 84.2378 14.499C84.348 14.4439 84.348 16.4837 84.348 16.6491Z" fill="#0296C7"/>
<path fill-rule="evenodd" clip-rule="evenodd" d="M16.9248 53.7512C16.9248 53.9166 16.9799 54.082 16.9799 54.2474C16.9799 55.9564 15.7119 57.3346 14.1683 57.3346C12.6247 57.3346 11.3567 55.9564 11.3567 54.2474C11.3567 54.082 11.3567 53.9166 11.4118 53.7512V14.3336C11.3567 14.1683 11.3567 14.0029 11.3567 13.8375C11.3567 12.2939 12.6247 11.0259 14.1683 11.0259C15.7119 11.0259 16.9799 12.2939 16.9799 13.8375C16.9799 14.0029 16.9799 14.1683 16.9248 14.3336V53.7512Z" fill="#0296C7"/>
<path d="M78.1699 22.5183L75.2073 25.481L78.1699 28.4436L81.1325 25.481L78.1699 22.5183Z" fill="#0077B6"/>
<g opacity="0.65">
<mask id="mask0_25_15876" style="mask-type:luminance" maskUnits="userSpaceOnUse" x="11" y="11" width="6" height="26">
<path d="M16.9247 11.0259H11.3015V36.0546H16.9247V11.0259Z" fill="white"/>
</mask>
<g mask="url(#mask0_25_15876)">
<path fill-rule="evenodd" clip-rule="evenodd" d="M16.9798 13.8375C16.9798 14.0029 16.9798 14.1683 16.9247 14.3336V34.5661C14.9401 35.3931 13.0657 35.8341 11.3566 36.0546V14.3336C11.3015 14.1683 11.3015 14.0029 11.3015 13.8375C11.3015 12.2939 12.5695 11.0259 14.1131 11.0259C15.6567 11.0259 16.9798 12.2939 16.9798 13.8375Z" fill="#02B4D7"/>
</g>
</g>
<g opacity="0.65">
<mask id="mask1_25_15876" style="mask-type:luminance" maskUnits="userSpaceOnUse" x="33" y="10" width="7" height="12">
<path d="M39.2521 10.8054H33.6289V21.9415H39.2521V10.8054Z" fill="white"/>
</mask>
<g mask="url(#mask1_25_15876)">
<path fill-rule="evenodd" clip-rule="evenodd" d="M39.2521 14.0579V15.2156V18.9644C37.1572 19.5708 35.393 20.6183 33.684 21.9414V14.113C33.684 13.9476 33.6289 13.7822 33.6289 13.672C33.6289 12.1284 34.8969 10.8604 36.4405 10.8604C37.9841 10.8604 39.2521 12.1284 39.2521 13.672C39.3072 13.7822 39.3072 13.9476 39.2521 14.0579Z" fill="#02B4D7"/>
</g>
</g>
<g opacity="0.65">
<mask id="mask2_25_15876" style="mask-type:luminance" maskUnits="userSpaceOnUse" x="0" y="0" width="51" height="36">
<path d="M50.6088 0H0V35.8893H50.6088V0Z" fill="white"/>
</mask>
<g mask="url(#mask2_25_15876)">
<path fill-rule="evenodd" clip-rule="evenodd" d="M50.6088 14.2785V19.4607C48.569 18.8543 46.6946 18.4684 45.0407 18.3581V14.2785C44.9856 9.64765 41.2368 5.95398 36.6059 5.95398C32.0302 5.95398 28.3365 9.5374 28.1711 14.058V26.9032C26.4621 28.4468 24.698 30.0456 22.6031 31.534V14.3337C22.4928 9.48227 19.0748 5.6232 14.1131 5.6232C9.48226 5.6232 5.73346 9.31688 5.6232 13.9478V35.7239V35.8893C3.25264 35.3931 1.37824 34.5662 0 33.7392V13.9478C0.0551294 6.22963 6.33988 0 14.058 0C18.744 0 22.8787 2.31544 25.4147 5.84372C28.0057 2.53595 32.0302 0.385906 36.5508 0.385906C44.2689 0.330777 50.4986 6.5604 50.6088 14.2785Z" fill="#02B4D7"/>
</g>
</g>
<g opacity="0.65">
<mask id="mask3_25_15876" style="mask-type:luminance" maskUnits="userSpaceOnUse" x="56" y="0" width="22" height="22">
<path d="M77.0709 0.496155H56.2319V21.5005H77.0709V0.496155Z" fill="white"/>
</mask>
<g mask="url(#mask3_25_15876)">
<path fill-rule="evenodd" clip-rule="evenodd" d="M77.0709 2.2603C76.6849 3.69366 76.1888 5.67832 75.417 7.82837C73.9836 6.72578 72.2195 6.11936 70.2899 6.11936C65.6591 6.11936 61.9103 9.86816 61.8 14.4439V18.744H61.8551V21.3902C60.2012 21.6107 58.3269 21.5556 56.2319 21.1146V14.4439C56.2871 6.72578 62.5718 0.496155 70.2899 0.496155C72.7708 0.496155 75.0862 1.15771 77.0709 2.2603Z" fill="#02B4D7"/>
</g>
</g>
</g>
<defs>
<clipPath id="clip0_25_15876">
<rect width="115" height="57.3346" fill="white"/>
</clipPath>
</defs>
</svg>
