<svg width="42" height="32" viewBox="0 0 42 32" fill="none" xmlns="http://www.w3.org/2000/svg">
<path d="M35.652 14.023C35.5256 13.9828 35.3884 13.9945 35.2707 14.0554C35.1529 14.1164 35.0641 14.2216 35.024 14.348C34.9838 14.4744 34.9955 14.6115 35.0564 14.7293C35.1174 14.8471 35.2226 14.9358 35.349 14.976C39.257 16.221 41 18.078 41 21C41 23.599 38.629 25.616 37.217 26.588C37.1501 26.6339 37.0954 26.6954 37.0576 26.7672C37.0198 26.839 37 26.9189 37 27V30.823C35.7993 30.3676 34.7267 29.6282 33.874 28.668C33.8161 28.6036 33.7427 28.5552 33.6608 28.5273C33.5788 28.4995 33.4911 28.4932 33.406 28.509C33.121 28.564 32.83 28.642 32.535 28.721C32.025 28.858 31.499 29 31 29C28.432 29 26.634 28.448 24.796 27.097C24.6891 27.0183 24.5553 26.9854 24.4242 27.0054C24.293 27.0253 24.1751 27.0966 24.0965 27.2035C24.0178 27.3104 23.9849 27.4441 24.0048 27.5753C24.0248 27.7065 24.0961 27.8243 24.203 27.903C26.23 29.393 28.199 30 31 30C31.631 30 32.223 29.841 32.795 29.687C32.973 29.638 33.15 29.59 33.325 29.549C35.194 31.523 37.308 31.972 37.4 31.99C37.4726 32.0051 37.5477 32.0037 37.6197 31.9858C37.6917 31.968 37.7588 31.9342 37.816 31.887C37.8735 31.8402 37.9199 31.7812 37.9517 31.7143C37.9836 31.6473 38 31.5741 38 31.5V27.261C40.582 25.42 42 23.204 42 21C42 17.619 39.983 15.402 35.652 14.023Z" fill="white"/>
<path d="M33 13.5C33 5.804 25.982 0 16.677 0C7.325 0 0 5.931 0 13.502C0 18.041 3.211 21.293 6 23.261V29.897C6.00052 29.9803 6.02175 30.0621 6.06179 30.1352C6.10183 30.2082 6.15941 30.2702 6.22935 30.3154C6.29929 30.3606 6.37939 30.3878 6.46242 30.3943C6.54546 30.4009 6.62882 30.3867 6.705 30.353C6.851 30.288 10.264 28.737 13.184 25.544C14.449 25.779 15.88 26.005 17.178 26.005C26.641 26.005 33 20.979 33 13.5ZM17.177 25.005C15.867 25.005 14.378 24.754 13.094 24.509C13.0089 24.4934 12.9212 24.4998 12.8393 24.5276C12.7574 24.5554 12.684 24.6038 12.626 24.668C10.576 26.98 8.167 28.449 7 29.082V23C6.99997 22.9189 6.9802 22.839 6.94239 22.7672C6.90458 22.6954 6.84988 22.6339 6.783 22.588C4.145 20.773 1 17.725 1 13.502C1 6.491 7.886 1 16.677 1C25.413 1 32 6.374 32 13.5C32 20.382 26.043 25.005 17.177 25.005Z" fill="white"/>
<path d="M16.5 11.5C15.397 11.5 14.5 12.397 14.5 13.5C14.5 14.603 15.397 15.5 16.5 15.5C17.603 15.5 18.5 14.603 18.5 13.5C18.5 12.397 17.603 11.5 16.5 11.5ZM16.5 14.5C16.2425 14.4885 15.9994 14.3781 15.8213 14.1918C15.6431 14.0055 15.5437 13.7577 15.5437 13.5C15.5437 13.2423 15.6431 12.9945 15.8213 12.8082C15.9994 12.6219 16.2425 12.5115 16.5 12.5C16.7575 12.5115 17.0006 12.6219 17.1787 12.8082C17.3569 12.9945 17.4563 13.2423 17.4563 13.5C17.4563 13.7577 17.3569 14.0055 17.1787 14.1918C17.0006 14.3781 16.7575 14.4885 16.5 14.5ZM23.5 11.5C22.397 11.5 21.5 12.397 21.5 13.5C21.5 14.603 22.397 15.5 23.5 15.5C24.603 15.5 25.5 14.603 25.5 13.5C25.5 12.397 24.603 11.5 23.5 11.5ZM23.5 14.5C23.2425 14.4885 22.9994 14.3781 22.8213 14.1918C22.6431 14.0055 22.5437 13.7577 22.5437 13.5C22.5437 13.2423 22.6431 12.9945 22.8213 12.8082C22.9994 12.6219 23.2425 12.5115 23.5 12.5C23.7575 12.5115 24.0006 12.6219 24.1787 12.8082C24.3569 12.9945 24.4563 13.2423 24.4563 13.5C24.4563 13.7577 24.3569 14.0055 24.1787 14.1918C24.0006 14.3781 23.7575 14.4885 23.5 14.5ZM9.5 11.595C8.397 11.595 7.5 12.492 7.5 13.595C7.5 14.698 8.397 15.595 9.5 15.595C10.603 15.595 11.5 14.698 11.5 13.595C11.5 12.492 10.603 11.595 9.5 11.595ZM9.5 14.595C9.24252 14.5835 8.9994 14.4731 8.82128 14.2868C8.64315 14.1005 8.54373 13.8527 8.54373 13.595C8.54373 13.3373 8.64315 13.0895 8.82128 12.9032C8.9994 12.7169 9.24252 12.6065 9.5 12.595C9.75748 12.6065 10.0006 12.7169 10.1787 12.9032C10.3569 13.0895 10.4563 13.3373 10.4563 13.595C10.4563 13.8527 10.3569 14.1005 10.1787 14.2868C10.0006 14.4731 9.75748 14.5835 9.5 14.595Z" fill="white"/>
</svg>
