<svg width="25" height="86" viewBox="0 0 25 86" fill="none" xmlns="http://www.w3.org/2000/svg">
<g clip-path="url(#clip0_943_235476)">
<path fill-rule="evenodd" clip-rule="evenodd" d="M19.2192 64.1426C19.8723 64.1426 20.4088 64.6791 20.4088 65.3322C20.4088 65.9853 19.8723 66.5218 19.2192 66.5218C19.1492 66.5218 19.0792 66.5218 19.0326 66.4985L6.62353 66.4985C4.6642 66.5218 3.10141 68.1313 3.10141 70.0906C3.10141 72.0266 4.61755 73.5894 6.53023 73.6593L11.965 73.6593L16.2802 73.6593L21.9249 73.6593L23.3011 73.6593C23.3711 73.6593 23.4411 73.636 23.511 73.636C24.2341 73.636 24.8173 74.1725 24.8173 74.8256C24.8173 75.4787 24.2341 76.0152 23.511 76.0152C23.4411 76.0152 23.3711 76.0152 23.3011 75.9919L15.4638 75.9685L13.901 75.9685L6.62353 75.9685C4.5709 76.0152 2.93813 77.4614 2.93813 79.5606C2.93813 81.52 4.50093 83.1061 6.46025 83.1294L15.6737 83.1294L15.7437 83.1294L23.2778 83.1294C23.3478 83.1061 23.4177 83.1061 23.4877 83.1061C24.2108 83.1061 24.7939 83.6426 24.7939 84.2957C24.7939 84.9488 24.2108 85.5552 23.511 85.5552C23.4411 85.5552 23.3711 85.5552 23.3011 85.5319L21.9482 85.5319L18.2162 85.5319L14.8574 85.5319L6.48358 85.5319C3.21803 85.5319 0.582275 82.8728 0.582275 79.6073C0.582275 77.6246 1.56194 75.8752 3.05476 74.8023C1.65524 73.706 0.745552 72.0032 0.745552 70.0906C0.745552 66.825 3.38131 64.166 6.64685 64.1426L19.0559 64.1426C19.1026 64.1426 19.1492 64.1426 19.2192 64.1426Z" fill="white"/>
<path fill-rule="evenodd" clip-rule="evenodd" d="M7.62654 49.8676C8.34963 49.8676 8.93276 50.4041 8.93276 51.0572C8.93276 51.7103 8.34963 52.2467 7.62655 52.2467C7.55657 52.2467 6.50693 52.2234 6.50693 52.2234C5.43397 52.2934 4.50096 52.8299 3.8945 53.6229C3.42799 54.2294 3.17142 54.9758 3.17142 55.7922C3.17142 57.7515 4.75753 59.3376 6.69353 59.3843L8.51291 59.3843L8.51291 59.361L10.1224 59.361L10.1224 55.8155C10.1224 55.1391 10.6822 54.5793 11.3586 54.5793C12.035 54.5793 12.5948 55.1391 12.5948 55.8155L12.5948 59.361L17.2366 59.361C17.2832 59.361 17.3299 59.361 17.3532 59.361C17.4465 59.361 17.5398 59.361 17.6331 59.361C17.6797 59.361 17.7031 59.361 17.7497 59.361C17.8197 59.361 17.8663 59.361 17.9363 59.3843C18.2396 59.3843 18.5661 59.3843 18.8693 59.3843C22.1349 59.4309 24.8406 62.02 24.8406 65.3556C24.8406 68.6211 22.2048 71.2802 18.9393 71.3035L16.7701 71.3035L9.84245 71.3035L6.53026 71.3035C6.46028 71.3035 6.39031 71.3268 6.32033 71.3268C5.66722 71.3268 5.13074 70.7904 5.13074 70.1373C5.13074 69.4841 5.66722 68.9477 6.32033 68.9477C6.39031 68.9477 6.46028 68.9477 6.53026 68.971L7.02009 68.971L8.60621 68.971L16.5601 68.971L18.9393 68.971C19.4525 68.971 19.919 68.8544 20.3622 68.6444C20.4555 68.5978 22.4148 67.6414 22.4148 65.3789C22.4148 63.4196 20.8053 61.8101 18.846 61.7868L17.8897 61.7868C17.843 61.7868 17.7964 61.7868 17.7497 61.7868C17.7264 61.7868 17.7031 61.7868 17.6797 61.7868L6.69353 61.7868C3.42799 61.7635 0.792236 59.1044 0.792236 55.8388C0.792236 54.7892 1.07214 53.8095 1.53864 52.9698C2.44833 51.3137 4.12775 50.1475 6.1104 49.9375L6.3903 49.9142C6.48361 49.9142 6.60023 49.9142 6.71686 49.9142C6.69353 49.8676 7.55657 49.8676 7.62654 49.8676Z" fill="white"/>
<path fill-rule="evenodd" clip-rule="evenodd" d="M23.3244 78.3944C23.3944 78.3944 23.4644 78.371 23.5344 78.371C24.2574 78.371 24.8406 78.9075 24.8406 79.5606C24.8406 80.2137 24.2574 80.7502 23.5344 80.7502C23.4644 80.7502 23.3944 80.7502 23.3244 80.7269L6.64683 80.7269C6.57686 80.7502 6.50688 80.7502 6.43691 80.7502C5.7838 80.7502 5.24731 80.2137 5.24731 79.5606C5.24731 78.9075 5.7838 78.371 6.4369 78.371C6.50688 78.371 6.57686 78.371 6.64683 78.3944L23.3244 78.3944Z" fill="white"/>
<path d="M10.1098 52.4815L11.3633 53.735L12.6168 52.4815L11.3633 51.228L10.1098 52.4815Z" fill="white"/>
<g opacity="0.65">
<mask id="mask0_943_235476" style="mask-type:luminance" maskUnits="userSpaceOnUse" x="5" y="78" width="11" height="3">
<path d="M5.24731 78.3944L5.24731 80.7736L15.837 80.7736L15.837 78.3944L5.24731 78.3944Z" fill="white"/>
</mask>
<g mask="url(#mask0_943_235476)">
<path fill-rule="evenodd" clip-rule="evenodd" d="M6.4369 78.3711C6.50688 78.3711 6.57685 78.3711 6.64683 78.3944L15.2072 78.3944C15.5571 79.2341 15.7437 80.0271 15.837 80.7502L6.64683 80.7502C6.57686 80.7736 6.50688 80.7736 6.4369 80.7736C5.7838 80.7736 5.24731 80.2371 5.24731 79.584C5.24731 78.9309 5.7838 78.3711 6.4369 78.3711Z" fill="white"/>
</g>
</g>
<g opacity="0.65">
<mask id="mask1_943_235476" style="mask-type:luminance" maskUnits="userSpaceOnUse" x="5" y="68" width="5" height="4">
<path d="M5.15405 68.9477L5.15405 71.3268L9.86576 71.3268L9.86576 68.9477L5.15405 68.9477Z" fill="white"/>
</mask>
<g mask="url(#mask1_943_235476)">
<path fill-rule="evenodd" clip-rule="evenodd" d="M6.53023 68.9477L7.02007 68.9477L8.60619 68.9477C8.86276 69.834 9.30594 70.5804 9.86575 71.3035L6.55356 71.3035C6.48358 71.3035 6.41361 71.3268 6.36696 71.3268C5.71385 71.3268 5.17737 70.7904 5.17737 70.1373C5.17737 69.4841 5.71385 68.9477 6.36696 68.9477C6.41361 68.9243 6.48358 68.9243 6.53023 68.9477Z" fill="white"/>
</g>
</g>
<g opacity="0.65">
<mask id="mask2_943_235476" style="mask-type:luminance" maskUnits="userSpaceOnUse" x="0" y="64" width="16" height="22">
<path d="M0.582274 64.1426L0.582275 85.5552L15.767 85.5552L15.767 64.1426L0.582274 64.1426Z" fill="white"/>
</mask>
<g mask="url(#mask2_943_235476)">
<path fill-rule="evenodd" clip-rule="evenodd" d="M6.62353 64.1426L8.8161 64.1426C8.55952 65.0057 8.39625 65.7987 8.3496 66.4985L6.62353 66.4985C4.6642 66.5218 3.10141 68.1079 3.10141 70.0673C3.10141 72.0032 4.61755 73.566 6.53022 73.636L11.965 73.636C12.6181 74.3591 13.2946 75.1055 13.9243 75.9919L6.64685 75.9919C4.59423 76.0385 2.96145 77.4847 2.96145 79.584C2.96145 81.5433 4.52425 83.1294 6.48357 83.1761L15.6971 83.1761L15.767 83.1761C15.5571 84.179 15.2072 84.9721 14.8574 85.5552L6.48357 85.5552C3.21803 85.5319 0.582275 82.8728 0.582275 79.6073C0.582275 77.6246 1.56194 75.8752 3.05476 74.8023C1.65524 73.706 0.745552 72.0032 0.745552 70.0906C0.722226 66.825 3.35798 64.1893 6.62353 64.1426Z" fill="white"/>
</g>
</g>
<g opacity="0.65">
<mask id="mask3_943_235476" style="mask-type:luminance" maskUnits="userSpaceOnUse" x="0" y="52" width="10" height="10">
<path d="M0.792236 52.9465L0.792236 61.7634L9.67917 61.7634L9.67917 52.9465L0.792236 52.9465Z" fill="white"/>
</mask>
<g mask="url(#mask3_943_235476)">
<path fill-rule="evenodd" clip-rule="evenodd" d="M1.53865 52.9465C2.1451 53.1097 2.98481 53.3197 3.8945 53.6462C3.42799 54.2527 3.17142 54.9991 3.17142 55.8155C3.17142 57.7748 4.75753 59.3609 6.69353 59.4076L8.51291 59.4076L8.51291 59.3842L9.63252 59.3842C9.72582 60.084 9.70249 60.8771 9.51589 61.7634L6.69353 61.7634C3.42799 61.7401 0.792236 59.081 0.792236 55.8155C0.792236 54.7658 1.07214 53.7862 1.53865 52.9465Z" fill="white"/>
</g>
</g>
</g>
<path d="M0.693115 42.379L4.57093 43.9301L0.693115 45.4813L0.693115 46.7L6.39905 46.7L6.39905 46.2014L1.80106 46.2014L6.62064 44.2071L1.80106 42.2682L6.39905 42.2682L6.39905 41.2711L0.693115 41.2711L0.693115 42.379Z" fill="white"/>
<path d="M0.582275 37.781L6.399 40.1077L6.399 39.6091L4.95867 39.0551L4.84787 38.9997L4.51549 38.889L4.2385 38.7782L2.46579 38.058L4.2385 37.3378L4.51549 37.227L4.84787 37.0608L5.34645 36.8946L6.399 36.4515L6.399 35.3435L0.582275 37.781Z" fill="white"/>
<path d="M5.95586 33.1277L0.693115 33.1277L0.693115 34.1802L6.39904 34.1802L6.39904 30.6902L5.95586 30.6902L5.95586 33.1277Z" fill="white"/>
<path d="M0.582275 28.0865L6.399 30.4131L6.399 29.9146L5.18026 29.416L4.84787 29.3052L4.51549 29.139L4.4047 29.139L2.46579 28.3634L4.4047 27.5879L4.84787 27.3663L5.34645 27.1447L6.399 26.7569L6.399 25.649L0.582275 28.0865Z" fill="white"/>
<path d="M3.90617 20.774C3.62918 20.9956 3.46299 21.2725 3.35219 21.6603C3.29679 21.3279 3.1306 21.1063 2.90901 20.9402C2.68742 20.774 2.46583 20.6632 2.13345 20.6632C1.85646 20.6632 1.63487 20.7186 1.41328 20.8848C1.19169 20.9956 1.0255 21.2171 0.914705 21.4387C0.859308 21.5495 0.803911 21.7711 0.748514 21.9927C0.693116 22.2143 0.693115 22.4913 0.693115 22.8791L0.693115 24.541L6.34365 24.541L6.34365 22.5467C6.34365 21.8819 6.23285 21.3279 5.95587 20.9956C5.67888 20.6632 5.3465 20.497 4.79252 20.497C4.46014 20.4416 4.18315 20.5524 3.90617 20.774ZM1.0809 23.433L1.0809 22.9899C1.0809 22.5467 1.19169 22.1589 1.35788 21.9373C1.52408 21.7157 1.80106 21.6049 2.18884 21.6049C2.57663 21.6049 2.85361 21.7157 3.01981 21.8819C3.186 22.1035 3.29679 22.3805 3.29679 22.8791L3.29679 23.3776L1.0809 23.3776L1.0809 23.433ZM5.73428 21.7711C5.90047 21.9927 6.01126 22.3251 6.01126 22.7683L6.01126 23.433L3.57378 23.433L3.57378 22.9345C3.57378 22.4359 3.68458 22.1035 3.90617 21.8265C4.12775 21.6049 4.46014 21.4387 4.90332 21.4387C5.2911 21.4387 5.56808 21.5495 5.73428 21.7711Z" fill="white"/>
<path d="M0.582275 17.2286L6.399 19.5553L6.399 19.0568L5.06946 18.5582L4.84787 18.5028L4.51549 18.3366L4.2939 18.2258L2.46579 17.5056L4.3493 16.7301L4.84787 16.5085L5.06946 16.4531L6.399 15.9545L6.399 14.7912L0.582275 17.2286Z" fill="white"/>
<path d="M3.73987 11.1349C3.73987 10.6917 3.57368 10.3039 3.35209 10.0269C3.1305 9.74992 2.79812 9.63913 2.41033 9.63913C1.85636 9.63913 1.46858 9.80532 1.19159 10.1931C0.914605 10.5255 0.748413 11.0795 0.748413 11.7996L0.748413 13.6831L6.39895 13.6831L6.39895 12.6306L1.0808 12.6306L1.0808 12.1874C1.0808 11.6888 1.19159 11.301 1.41318 11.0795C1.63477 10.8579 1.91176 10.6917 2.35494 10.6917C2.74272 10.6917 3.0197 10.8025 3.1859 11.0795C3.35209 11.301 3.46288 11.7442 3.51828 12.3536L6.39895 10.8025L6.39895 9.63913L3.73987 11.1349Z" fill="white"/>
<path d="M15.0411 45.6475L9.83374 45.6475L9.83374 46.7L15.4843 46.7L15.4843 43.1546L15.0411 43.1546L15.0411 45.6475Z" fill="white"/>
<path d="M9.83374 40.9941L9.83374 42.0466L15.4843 42.0466L15.4843 40.9941L9.83374 40.9941Z" fill="white"/>
<path d="M9.83374 39.7753L10.2215 39.7753L10.2215 38.2796L15.4843 38.2796L15.4843 37.2271L10.2215 37.2271L10.2215 35.7313L9.83374 35.7313L9.83374 39.7753Z" fill="white"/>
<path d="M10.2215 31.0224L9.83374 31.0224L9.83374 34.5124L15.4843 34.5124L15.4843 31.0224L15.0411 31.0224L15.0411 33.4599L12.7144 33.4599L12.7144 31.1886L12.3266 31.1886L12.3266 33.4599L10.2215 33.4599L10.2215 31.0224Z" fill="white"/>
<path d="M12.8252 26.8124C12.8252 26.3692 12.659 25.9814 12.4374 25.7044C12.2158 25.4274 11.8834 25.3166 11.4957 25.3166C10.9417 25.3166 10.5539 25.4828 10.2769 25.8706C9.99993 26.203 9.83374 26.757 9.83374 27.4771L9.83374 29.3606L15.4843 29.3606L15.4843 28.3081L10.1661 28.3081L10.1661 27.8649C10.1661 27.3663 10.2769 26.9785 10.4985 26.757C10.7201 26.5354 10.9971 26.3692 11.4403 26.3692C11.828 26.3692 12.105 26.48 12.2712 26.757C12.4374 26.9785 12.5482 27.4217 12.6036 28.0311L15.4843 26.48L15.4843 25.3166L12.8252 26.8124Z" fill="white"/>
<path d="M9.72278 22.5468L15.4841 24.8734L15.4841 24.3749L14.21 23.9317L13.9884 23.8209L13.6006 23.6547L13.4344 23.5993L13.379 23.5439L11.5509 22.8237L13.5452 22.0482L13.6006 21.9928L13.9884 21.882L13.9884 21.8266L14.2654 21.7158L14.3208 21.7158L15.4841 21.2726L15.4841 20.1647L9.72278 22.5468Z" fill="white"/>
<path d="M9.83374 20.1092L10.2215 20.1092L10.2215 18.6689L15.4843 18.6689L15.4843 17.6163L10.2215 17.6163L10.2215 16.1206L9.83374 16.1206L9.83374 20.1092Z" fill="white"/>
<path d="M9.83374 11.4119L13.2684 11.4119C13.9332 11.4119 14.3763 11.5227 14.6533 11.6889C14.9303 11.8551 15.0411 12.1875 15.0411 12.6307C15.0411 13.0739 14.9303 13.4062 14.6533 13.5724C14.3763 13.7386 13.9332 13.8494 13.2684 13.8494L9.83374 13.8494L9.83374 14.902L13.4346 14.902C13.8778 14.902 14.1547 14.8466 14.4317 14.7912C14.6533 14.7358 14.8749 14.5696 15.0411 14.4034C15.2073 14.2372 15.3735 14.0156 15.4843 13.7386C15.5951 13.4616 15.6505 13.1847 15.6505 12.8523C15.6505 12.1875 15.4843 11.6889 15.0965 11.3565C14.7087 11.0242 14.2101 10.858 13.4346 10.858L9.83374 10.858L9.83374 11.4119Z" fill="white"/>
<path d="M12.8252 6.53695C12.8252 6.03838 12.659 5.70599 12.4374 5.429C12.2158 5.15202 11.8834 5.04122 11.4957 5.04122C10.9417 5.04122 10.5539 5.20742 10.2769 5.5952C9.99993 5.98298 9.83374 6.48155 9.83374 7.20172L9.83374 9.08524L15.4843 9.08524L15.4843 8.03268L10.1661 8.03268L10.1661 7.58951C10.1661 7.09093 10.2769 6.75855 10.4985 6.48156C10.7201 6.25997 10.9971 6.09377 11.4403 6.09377C11.828 6.09377 12.105 6.20457 12.2712 6.48156C12.4374 6.70315 12.5482 7.14632 12.6036 7.75569L15.4843 6.20457L15.4843 5.04122L12.8252 6.53695Z" fill="white"/>
<path d="M10.2215 -1.36068e-05L9.83374 -1.35899e-05L9.83374 3.49002L15.4843 3.49002L15.4843 -1.38369e-05L15.0411 -1.38175e-05L15.0411 2.43747L12.7144 2.43747L12.7144 0.16618L12.3266 0.16618L12.3266 2.43747L10.2215 2.43747L10.2215 -1.36068e-05Z" fill="white"/>
<path d="M19.3066 43.0992L18.9188 43.0992L18.9188 46.7L24.5694 46.7L24.5694 45.6475L21.7995 45.6475L21.7995 43.21L21.4117 43.21L21.4117 45.6475L19.3066 45.6475L19.3066 43.0992Z" fill="white"/>
<path d="M19.3066 38.1688L18.9188 38.1688L18.9188 41.7142L24.5694 41.7142L24.5694 38.1688L24.1816 38.1688L24.1816 40.6617L21.8549 40.6617L21.8549 38.335L21.4117 38.335L21.4117 40.6617L19.3066 40.6617L19.3066 38.1688Z" fill="white"/>
<path d="M22.021 33.5155C21.7994 33.737 21.5224 34.1248 21.2454 34.7342C21.0793 35.122 20.9131 35.399 20.7469 35.5652C20.5807 35.7314 20.4145 35.7867 20.1929 35.7867C19.9159 35.7867 19.6943 35.7314 19.5281 35.5098C19.3619 35.2882 19.2511 35.122 19.2511 34.845C19.2511 34.568 19.3065 34.3464 19.4727 34.1802C19.6389 34.014 19.8051 33.8478 20.0821 33.737L19.8051 33.3493C19.4727 33.5155 19.2511 33.737 19.0296 34.014C18.8634 34.291 18.7526 34.6234 18.7526 35.0666C18.7526 35.5652 18.9188 36.0083 19.2511 36.3407C19.5835 36.6731 19.9713 36.8393 20.4699 36.8393C20.8023 36.8393 21.1347 36.7285 21.3562 36.5623C21.5778 36.3961 21.7994 36.0637 21.9656 35.5652C22.298 34.7342 22.7412 34.291 23.1844 34.291C23.4613 34.291 23.7383 34.4018 23.9045 34.568C24.0707 34.7342 24.1815 35.0112 24.1815 35.2882C24.1815 35.5098 24.1261 35.7313 23.9599 35.8975C23.8491 36.1191 23.6275 36.2299 23.4059 36.3961L23.6829 36.8393C24.0153 36.6177 24.2369 36.3961 24.4031 36.1191C24.5693 35.8421 24.6247 35.5098 24.6247 35.122C24.6247 34.568 24.4585 34.1248 24.1261 33.7924C23.7937 33.4601 23.3505 33.2939 22.852 33.2939C22.575 33.2385 22.2426 33.2939 22.021 33.5155Z" fill="white"/>
<path d="M18.9188 32.3521L19.3066 32.3521L19.3066 30.8563L24.5694 30.8563L24.5694 29.8038L19.3066 29.8038L19.3066 28.3634L18.9188 28.3634L18.9188 32.3521Z" fill="white"/>
<path d="M18.9188 26.0367L18.9188 27.0893L24.5694 27.0893L24.5694 26.0367L18.9188 26.0367Z" fill="white"/>
<path d="M18.9188 20.8294L22.7966 22.2697L18.9188 23.7654L18.9188 24.9288L24.7355 22.5467L18.9188 20.2754L18.9188 20.8294Z" fill="white"/>
<path d="M18.8081 17.8935L24.5694 20.2202L24.5694 19.7216L23.3507 19.223L23.0737 19.1122L22.7413 19.0014L22.5751 18.946L20.6362 18.1705L22.4643 17.4503L23.0737 17.1733L23.2953 17.0625L23.4061 17.0625L24.5694 16.5639L24.5694 15.456L18.8081 17.8935Z" fill="white"/>
<path d="M24.1816 13.24L18.9188 13.24L18.9188 14.2925L24.5694 14.2925L24.5694 10.8025L24.1816 10.8025L24.1816 13.24Z" fill="white"/>
<defs>
<clipPath id="clip0_943_235476">
<rect width="35.7048" height="24.2583" fill="white" transform="translate(0.582275 85.5552) rotate(-90)"/>
</clipPath>
</defs>
</svg>
