<svg width="26" height="26" viewBox="0 0 26 26" fill="none" xmlns="http://www.w3.org/2000/svg">
<g id="Image 2">
<g id="Iconly/Bold/Image-2">
<g id="Image-2">
<g id="Vector">
<path d="M6.4375 6.40821C6.4375 4.70073 7.61465 3.3125 9.0625 3.3125H20.875C22.3229 3.3125 23.5 4.70073 23.5 6.40821V21.8868C23.5 23.5943 22.3229 24.9825 20.875 24.9825H5.78125C3.96836 24.9825 2.5 23.2508 2.5 21.1129V7.95607C2.5 7.09991 3.08652 6.40821 3.8125 6.40821C4.53848 6.40821 5.125 7.09991 5.125 7.95607V21.1129C5.125 21.5385 5.42031 21.8868 5.78125 21.8868C6.14219 21.8868 6.4375 21.5385 6.4375 21.1129V6.40821ZM9.0625 7.56911V11.4388C9.0625 12.0821 9.50137 12.5996 10.0469 12.5996H14.6406C15.1861 12.5996 15.625 12.0821 15.625 11.4388V7.56911C15.625 6.92578 15.1861 6.40821 14.6406 6.40821H10.0469C9.50137 6.40821 9.0625 6.92578 9.0625 7.56911ZM17.5938 7.18214C17.5938 7.6078 17.8891 7.95607 18.25 7.95607H20.2188C20.5797 7.95607 20.875 7.6078 20.875 7.18214C20.875 6.75648 20.5797 6.40821 20.2188 6.40821H18.25C17.8891 6.40821 17.5938 6.75648 17.5938 7.18214ZM17.5938 11.8257C17.5938 12.2514 17.8891 12.5996 18.25 12.5996H20.2188C20.5797 12.5996 20.875 12.2514 20.875 11.8257C20.875 11.4001 20.5797 11.0518 20.2188 11.0518H18.25C17.8891 11.0518 17.5938 11.4001 17.5938 11.8257ZM9.0625 16.4693C9.0625 16.8949 9.35781 17.2432 9.71875 17.2432H20.2188C20.5797 17.2432 20.875 16.8949 20.875 16.4693C20.875 16.0436 20.5797 15.6954 20.2188 15.6954H9.71875C9.35781 15.6954 9.0625 16.0436 9.0625 16.4693ZM9.0625 21.1129C9.0625 21.5385 9.35781 21.8868 9.71875 21.8868H20.2188C20.5797 21.8868 20.875 21.5385 20.875 21.1129C20.875 20.6872 20.5797 20.3389 20.2188 20.3389H9.71875C9.35781 20.3389 9.0625 20.6872 9.0625 21.1129Z" fill="black"/>
<path d="M6.4375 6.40821C6.4375 4.70073 7.61465 3.3125 9.0625 3.3125H20.875C22.3229 3.3125 23.5 4.70073 23.5 6.40821V21.8868C23.5 23.5943 22.3229 24.9825 20.875 24.9825H5.78125C3.96836 24.9825 2.5 23.2508 2.5 21.1129V7.95607C2.5 7.09991 3.08652 6.40821 3.8125 6.40821C4.53848 6.40821 5.125 7.09991 5.125 7.95607V21.1129C5.125 21.5385 5.42031 21.8868 5.78125 21.8868C6.14219 21.8868 6.4375 21.5385 6.4375 21.1129V6.40821ZM9.0625 7.56911V11.4388C9.0625 12.0821 9.50137 12.5996 10.0469 12.5996H14.6406C15.1861 12.5996 15.625 12.0821 15.625 11.4388V7.56911C15.625 6.92578 15.1861 6.40821 14.6406 6.40821H10.0469C9.50137 6.40821 9.0625 6.92578 9.0625 7.56911ZM17.5938 7.18214C17.5938 7.6078 17.8891 7.95607 18.25 7.95607H20.2188C20.5797 7.95607 20.875 7.6078 20.875 7.18214C20.875 6.75648 20.5797 6.40821 20.2188 6.40821H18.25C17.8891 6.40821 17.5938 6.75648 17.5938 7.18214ZM17.5938 11.8257C17.5938 12.2514 17.8891 12.5996 18.25 12.5996H20.2188C20.5797 12.5996 20.875 12.2514 20.875 11.8257C20.875 11.4001 20.5797 11.0518 20.2188 11.0518H18.25C17.8891 11.0518 17.5938 11.4001 17.5938 11.8257ZM9.0625 16.4693C9.0625 16.8949 9.35781 17.2432 9.71875 17.2432H20.2188C20.5797 17.2432 20.875 16.8949 20.875 16.4693C20.875 16.0436 20.5797 15.6954 20.2188 15.6954H9.71875C9.35781 15.6954 9.0625 16.0436 9.0625 16.4693ZM9.0625 21.1129C9.0625 21.5385 9.35781 21.8868 9.71875 21.8868H20.2188C20.5797 21.8868 20.875 21.5385 20.875 21.1129C20.875 20.6872 20.5797 20.3389 20.2188 20.3389H9.71875C9.35781 20.3389 9.0625 20.6872 9.0625 21.1129Z" fill="url(#paint0_linear_1470_250939)"/>
</g>
</g>
</g>
</g>
<defs>
<linearGradient id="paint0_linear_1470_250939" x1="6.20588" y1="3.3125" x2="18.8776" y2="27.0055" gradientUnits="userSpaceOnUse">
<stop stop-color="#3E81C2"/>
<stop offset="1" stop-color="#49BDF2"/>
</linearGradient>
</defs>
</svg>
