<svg width="26" height="24" viewBox="0 0 26 24" fill="none" xmlns="http://www.w3.org/2000/svg">
<path d="M2.90642 22.1725H11.7438L11.6938 22.3768C11.5894 22.7946 11.6121 23.2306 11.7528 23.6257H2.90642C1.30335 23.6257 0 22.3223 0 20.7193V3.28072C0 1.67765 1.30335 0.374298 2.90642 0.374298H9.99537C10.5721 0.374298 11.1262 0.605904 11.5349 1.01462L16.7982 6.27343C17.2069 6.68214 17.4385 7.23618 17.4385 7.81292V13.3488L15.9853 14.802V9.09357H10.8991C9.69565 9.09357 8.71927 8.11719 8.71927 6.91375V1.82751H2.90642C2.10262 1.82751 1.45321 2.47691 1.45321 3.28072V20.7193C1.45321 21.5231 2.10262 22.1725 2.90642 22.1725ZM15.9626 7.64036C15.9308 7.5132 15.8673 7.39513 15.7719 7.3043L10.5085 2.04095C10.4132 1.94558 10.2996 1.88201 10.1725 1.85022V6.91375C10.1725 7.31338 10.4995 7.64036 10.8991 7.64036H15.9626ZM23.5466 12.3633C23.265 12.0817 22.8018 12.0817 22.5202 12.3633L21.394 13.4895L23.206 15.3015L24.3322 14.1753C24.6138 13.8937 24.6138 13.4305 24.3322 13.1489L23.5511 12.3633H23.5466ZM15.5494 19.3342C15.454 19.4295 15.3904 19.5431 15.3586 19.6702L14.8046 21.8955L17.0253 21.3414C17.1524 21.3096 17.2705 21.2415 17.3613 21.1507L22.1842 16.3278L20.3722 14.5159L15.5494 19.3342ZM21.4939 11.337C22.3431 10.4877 23.7237 10.4877 24.5774 11.337L25.3631 12.1226C26.2123 12.9718 26.2123 14.3524 25.3631 15.2061L18.3922 22.177C18.1106 22.4586 17.761 22.6538 17.3795 22.7492L13.9826 23.5984C13.7328 23.662 13.474 23.5894 13.2923 23.4077C13.1107 23.226 13.038 22.9672 13.1016 22.7174L13.9508 19.3205C14.0462 18.9391 14.246 18.5849 14.523 18.3078L21.4939 11.337Z" fill="black"/>
</svg>
