<svg width="25" height="22" viewBox="0 0 25 22" fill="none" xmlns="http://www.w3.org/2000/svg">
<g id="Vector">
<path d="M0 2.70875C0 1.21471 1.21471 0 2.70875 0H9.48063V5.4175C9.48063 6.16664 10.0859 6.77187 10.835 6.77187H16.2525V12.092L12.5788 15.7658C12.1428 16.2017 11.8381 16.7435 11.6899 17.3402L10.8985 20.5103C10.8011 20.8997 10.8223 21.306 10.9535 21.6742H2.70875C1.21471 21.6742 0 20.4595 0 18.9655V2.70875ZM16.2525 5.4175H10.835V0L16.2525 5.4175ZM23.2699 9.97582L23.8793 10.5853C24.5396 11.2455 24.5396 12.3163 23.8793 12.9808L22.635 14.2252L19.63 11.2202L20.8743 9.97582C21.5346 9.31556 22.6054 9.31556 23.2699 9.97582ZM13.2009 17.6492L18.6692 12.1809L21.6742 15.1859L16.2059 20.65C16.0324 20.8235 15.8166 20.9463 15.5753 21.0055L13.0316 21.6404C12.7988 21.6996 12.5576 21.6319 12.3883 21.4626C12.219 21.2933 12.1513 21.0521 12.2105 20.8193L12.8454 18.2756C12.9047 18.0386 13.0274 17.8185 13.2009 17.645V17.6492Z" fill="black"/>
<path d="M0 2.70875C0 1.21471 1.21471 0 2.70875 0H9.48063V5.4175C9.48063 6.16664 10.0859 6.77187 10.835 6.77187H16.2525V12.092L12.5788 15.7658C12.1428 16.2017 11.8381 16.7435 11.6899 17.3402L10.8985 20.5103C10.8011 20.8997 10.8223 21.306 10.9535 21.6742H2.70875C1.21471 21.6742 0 20.4595 0 18.9655V2.70875ZM16.2525 5.4175H10.835V0L16.2525 5.4175ZM23.2699 9.97582L23.8793 10.5853C24.5396 11.2455 24.5396 12.3163 23.8793 12.9808L22.635 14.2252L19.63 11.2202L20.8743 9.97582C21.5346 9.31556 22.6054 9.31556 23.2699 9.97582ZM13.2009 17.6492L18.6692 12.1809L21.6742 15.1859L16.2059 20.65C16.0324 20.8235 15.8166 20.9463 15.5753 21.0055L13.0316 21.6404C12.7988 21.6996 12.5576 21.6319 12.3883 21.4626C12.219 21.2933 12.1513 21.0521 12.2105 20.8193L12.8454 18.2756C12.9047 18.0386 13.0274 17.8185 13.2009 17.645V17.6492Z" fill="url(#paint0_linear_1470_250946)"/>
</g>
<defs>
<linearGradient id="paint0_linear_1470_250946" x1="4.30139" y1="2.71438e-07" x2="15.8863" y2="25.1369" gradientUnits="userSpaceOnUse">
<stop stop-color="#3E81C2"/>
<stop offset="1" stop-color="#49BDF2"/>
</linearGradient>
</defs>
</svg>
