<svg width="24" height="24" viewBox="0 0 24 24" fill="none" xmlns="http://www.w3.org/2000/svg">
<path d="M19.5 2.25H15.75C15.5511 2.25 15.3603 2.32902 15.2197 2.46967C15.079 2.61032 15 2.80109 15 3C15 3.19891 15.079 3.38968 15.2197 3.53033C15.3603 3.67098 15.5511 3.75 15.75 3.75H17.6897L15.3319 6.10781C14.6396 5.46262 13.8044 4.99033 12.8947 4.72954C11.985 4.46875 11.0265 4.42684 10.0975 4.60724C9.16852 4.78764 8.29536 5.18523 7.54937 5.76754C6.80338 6.34985 6.2057 7.10036 5.80517 7.95777C5.40463 8.81519 5.21259 9.75519 5.24473 10.701C5.27688 11.6468 5.53229 12.5716 5.99011 13.3998C6.44793 14.2281 7.09517 14.9363 7.87897 15.4666C8.66278 15.9969 9.56091 16.3343 10.5 16.4513V18H8.25001C8.0511 18 7.86034 18.079 7.71968 18.2197C7.57903 18.3603 7.50001 18.5511 7.50001 18.75C7.50001 18.9489 7.57903 19.1397 7.71968 19.2803C7.86034 19.421 8.0511 19.5 8.25001 19.5H10.5V21.75C10.5 21.9489 10.579 22.1397 10.7197 22.2803C10.8603 22.421 11.0511 22.5 11.25 22.5C11.4489 22.5 11.6397 22.421 11.7803 22.2803C11.921 22.1397 12 21.9489 12 21.75V19.5H14.25C14.4489 19.5 14.6397 19.421 14.7803 19.2803C14.921 19.1397 15 18.9489 15 18.75C15 18.5511 14.921 18.3603 14.7803 18.2197C14.6397 18.079 14.4489 18 14.25 18H12V16.4513C13.0053 16.3257 13.9624 15.9473 14.7817 15.3514C15.6011 14.7555 16.256 13.9616 16.6853 13.044C17.1145 12.1263 17.3041 11.1147 17.2363 10.1039C17.1685 9.09304 16.8455 8.11588 16.2975 7.26375L18.75 4.81031V6.75C18.75 6.94891 18.829 7.13968 18.9697 7.28033C19.1103 7.42098 19.3011 7.5 19.5 7.5C19.6989 7.5 19.8897 7.42098 20.0303 7.28033C20.171 7.13968 20.25 6.94891 20.25 6.75V3C20.25 2.80109 20.171 2.61032 20.0303 2.46967C19.8897 2.32902 19.6989 2.25 19.5 2.25ZM11.25 15C10.36 15 9.48997 14.7361 8.74995 14.2416C8.00993 13.7471 7.43315 13.0443 7.09256 12.2221C6.75196 11.3998 6.66285 10.495 6.83648 9.62209C7.01011 8.74918 7.4387 7.94736 8.06803 7.31802C8.69737 6.68868 9.49919 6.2601 10.3721 6.08647C11.245 5.91283 12.1498 6.00195 12.9721 6.34254C13.7944 6.68314 14.4972 7.25991 14.9916 7.99993C15.4861 8.73995 15.75 9.60998 15.75 10.5C15.7488 11.6931 15.2743 12.837 14.4306 13.6806C13.587 14.5243 12.4431 14.9988 11.25 15Z" fill="#6E8B3D"/>
<path d="M19.5 2.25H15.75C15.5511 2.25 15.3603 2.32902 15.2197 2.46967C15.079 2.61032 15 2.80109 15 3C15 3.19891 15.079 3.38968 15.2197 3.53033C15.3603 3.67098 15.5511 3.75 15.75 3.75H17.6897L15.3319 6.10781C14.6396 5.46262 13.8044 4.99033 12.8947 4.72954C11.985 4.46875 11.0265 4.42684 10.0975 4.60724C9.16852 4.78764 8.29536 5.18523 7.54937 5.76754C6.80338 6.34985 6.2057 7.10036 5.80517 7.95777C5.40463 8.81519 5.21259 9.75519 5.24473 10.701C5.27688 11.6468 5.53229 12.5716 5.99011 13.3998C6.44793 14.2281 7.09517 14.9363 7.87897 15.4666C8.66278 15.9969 9.56091 16.3343 10.5 16.4513V18H8.25001C8.0511 18 7.86034 18.079 7.71968 18.2197C7.57903 18.3603 7.50001 18.5511 7.50001 18.75C7.50001 18.9489 7.57903 19.1397 7.71968 19.2803C7.86034 19.421 8.0511 19.5 8.25001 19.5H10.5V21.75C10.5 21.9489 10.579 22.1397 10.7197 22.2803C10.8603 22.421 11.0511 22.5 11.25 22.5C11.4489 22.5 11.6397 22.421 11.7803 22.2803C11.921 22.1397 12 21.9489 12 21.75V19.5H14.25C14.4489 19.5 14.6397 19.421 14.7803 19.2803C14.921 19.1397 15 18.9489 15 18.75C15 18.5511 14.921 18.3603 14.7803 18.2197C14.6397 18.079 14.4489 18 14.25 18H12V16.4513C13.0053 16.3257 13.9624 15.9473 14.7817 15.3514C15.6011 14.7555 16.256 13.9616 16.6853 13.044C17.1145 12.1263 17.3041 11.1147 17.2363 10.1039C17.1685 9.09304 16.8455 8.11588 16.2975 7.26375L18.75 4.81031V6.75C18.75 6.94891 18.829 7.13968 18.9697 7.28033C19.1103 7.42098 19.3011 7.5 19.5 7.5C19.6989 7.5 19.8897 7.42098 20.0303 7.28033C20.171 7.13968 20.25 6.94891 20.25 6.75V3C20.25 2.80109 20.171 2.61032 20.0303 2.46967C19.8897 2.32902 19.6989 2.25 19.5 2.25ZM11.25 15C10.36 15 9.48997 14.7361 8.74995 14.2416C8.00993 13.7471 7.43315 13.0443 7.09256 12.2221C6.75196 11.3998 6.66285 10.495 6.83648 9.62209C7.01011 8.74918 7.4387 7.94736 8.06803 7.31802C8.69737 6.68868 9.49919 6.2601 10.3721 6.08647C11.245 5.91283 12.1498 6.00195 12.9721 6.34254C13.7944 6.68314 14.4972 7.25991 14.9916 7.99993C15.4861 8.73995 15.75 9.60998 15.75 10.5C15.7488 11.6931 15.2743 12.837 14.4306 13.6806C13.587 14.5243 12.4431 14.9988 11.25 15Z" fill="url(#paint0_linear_18_8553)"/>
<path d="M19.5 2.25H15.75C15.5511 2.25 15.3603 2.32902 15.2197 2.46967C15.079 2.61032 15 2.80109 15 3C15 3.19891 15.079 3.38968 15.2197 3.53033C15.3603 3.67098 15.5511 3.75 15.75 3.75H17.6897L15.3319 6.10781C14.6396 5.46262 13.8044 4.99033 12.8947 4.72954C11.985 4.46875 11.0265 4.42684 10.0975 4.60724C9.16852 4.78764 8.29536 5.18523 7.54937 5.76754C6.80338 6.34985 6.2057 7.10036 5.80517 7.95777C5.40463 8.81519 5.21259 9.75519 5.24473 10.701C5.27688 11.6468 5.53229 12.5716 5.99011 13.3998C6.44793 14.2281 7.09517 14.9363 7.87897 15.4666C8.66278 15.9969 9.56091 16.3343 10.5 16.4513V18H8.25001C8.0511 18 7.86034 18.079 7.71968 18.2197C7.57903 18.3603 7.50001 18.5511 7.50001 18.75C7.50001 18.9489 7.57903 19.1397 7.71968 19.2803C7.86034 19.421 8.0511 19.5 8.25001 19.5H10.5V21.75C10.5 21.9489 10.579 22.1397 10.7197 22.2803C10.8603 22.421 11.0511 22.5 11.25 22.5C11.4489 22.5 11.6397 22.421 11.7803 22.2803C11.921 22.1397 12 21.9489 12 21.75V19.5H14.25C14.4489 19.5 14.6397 19.421 14.7803 19.2803C14.921 19.1397 15 18.9489 15 18.75C15 18.5511 14.921 18.3603 14.7803 18.2197C14.6397 18.079 14.4489 18 14.25 18H12V16.4513C13.0053 16.3257 13.9624 15.9473 14.7817 15.3514C15.6011 14.7555 16.256 13.9616 16.6853 13.044C17.1145 12.1263 17.3041 11.1147 17.2363 10.1039C17.1685 9.09304 16.8455 8.11588 16.2975 7.26375L18.75 4.81031V6.75C18.75 6.94891 18.829 7.13968 18.9697 7.28033C19.1103 7.42098 19.3011 7.5 19.5 7.5C19.6989 7.5 19.8897 7.42098 20.0303 7.28033C20.171 7.13968 20.25 6.94891 20.25 6.75V3C20.25 2.80109 20.171 2.61032 20.0303 2.46967C19.8897 2.32902 19.6989 2.25 19.5 2.25ZM11.25 15C10.36 15 9.48997 14.7361 8.74995 14.2416C8.00993 13.7471 7.43315 13.0443 7.09256 12.2221C6.75196 11.3998 6.66285 10.495 6.83648 9.62209C7.01011 8.74918 7.4387 7.94736 8.06803 7.31802C8.69737 6.68868 9.49919 6.2601 10.3721 6.08647C11.245 5.91283 12.1498 6.00195 12.9721 6.34254C13.7944 6.68314 14.4972 7.25991 14.9916 7.99993C15.4861 8.73995 15.75 9.60998 15.75 10.5C15.7488 11.6931 15.2743 12.837 14.4306 13.6806C13.587 14.5243 12.4431 14.9988 11.25 15Z" fill="url(#paint1_linear_18_8553)"/>
<path d="M19.5 2.25H15.75C15.5511 2.25 15.3603 2.32902 15.2197 2.46967C15.079 2.61032 15 2.80109 15 3C15 3.19891 15.079 3.38968 15.2197 3.53033C15.3603 3.67098 15.5511 3.75 15.75 3.75H17.6897L15.3319 6.10781C14.6396 5.46262 13.8044 4.99033 12.8947 4.72954C11.985 4.46875 11.0265 4.42684 10.0975 4.60724C9.16852 4.78764 8.29536 5.18523 7.54937 5.76754C6.80338 6.34985 6.2057 7.10036 5.80517 7.95777C5.40463 8.81519 5.21259 9.75519 5.24473 10.701C5.27688 11.6468 5.53229 12.5716 5.99011 13.3998C6.44793 14.2281 7.09517 14.9363 7.87897 15.4666C8.66278 15.9969 9.56091 16.3343 10.5 16.4513V18H8.25001C8.0511 18 7.86034 18.079 7.71968 18.2197C7.57903 18.3603 7.50001 18.5511 7.50001 18.75C7.50001 18.9489 7.57903 19.1397 7.71968 19.2803C7.86034 19.421 8.0511 19.5 8.25001 19.5H10.5V21.75C10.5 21.9489 10.579 22.1397 10.7197 22.2803C10.8603 22.421 11.0511 22.5 11.25 22.5C11.4489 22.5 11.6397 22.421 11.7803 22.2803C11.921 22.1397 12 21.9489 12 21.75V19.5H14.25C14.4489 19.5 14.6397 19.421 14.7803 19.2803C14.921 19.1397 15 18.9489 15 18.75C15 18.5511 14.921 18.3603 14.7803 18.2197C14.6397 18.079 14.4489 18 14.25 18H12V16.4513C13.0053 16.3257 13.9624 15.9473 14.7817 15.3514C15.6011 14.7555 16.256 13.9616 16.6853 13.044C17.1145 12.1263 17.3041 11.1147 17.2363 10.1039C17.1685 9.09304 16.8455 8.11588 16.2975 7.26375L18.75 4.81031V6.75C18.75 6.94891 18.829 7.13968 18.9697 7.28033C19.1103 7.42098 19.3011 7.5 19.5 7.5C19.6989 7.5 19.8897 7.42098 20.0303 7.28033C20.171 7.13968 20.25 6.94891 20.25 6.75V3C20.25 2.80109 20.171 2.61032 20.0303 2.46967C19.8897 2.32902 19.6989 2.25 19.5 2.25ZM11.25 15C10.36 15 9.48997 14.7361 8.74995 14.2416C8.00993 13.7471 7.43315 13.0443 7.09256 12.2221C6.75196 11.3998 6.66285 10.495 6.83648 9.62209C7.01011 8.74918 7.4387 7.94736 8.06803 7.31802C8.69737 6.68868 9.49919 6.2601 10.3721 6.08647C11.245 5.91283 12.1498 6.00195 12.9721 6.34254C13.7944 6.68314 14.4972 7.25991 14.9916 7.99993C15.4861 8.73995 15.75 9.60998 15.75 10.5C15.7488 11.6931 15.2743 12.837 14.4306 13.6806C13.587 14.5243 12.4431 14.9988 11.25 15Z" stroke="url(#paint2_linear_18_8553)" stroke-width="0.5"/>
<path d="M19.5 2.25H15.75C15.5511 2.25 15.3603 2.32902 15.2197 2.46967C15.079 2.61032 15 2.80109 15 3C15 3.19891 15.079 3.38968 15.2197 3.53033C15.3603 3.67098 15.5511 3.75 15.75 3.75H17.6897L15.3319 6.10781C14.6396 5.46262 13.8044 4.99033 12.8947 4.72954C11.985 4.46875 11.0265 4.42684 10.0975 4.60724C9.16852 4.78764 8.29536 5.18523 7.54937 5.76754C6.80338 6.34985 6.2057 7.10036 5.80517 7.95777C5.40463 8.81519 5.21259 9.75519 5.24473 10.701C5.27688 11.6468 5.53229 12.5716 5.99011 13.3998C6.44793 14.2281 7.09517 14.9363 7.87897 15.4666C8.66278 15.9969 9.56091 16.3343 10.5 16.4513V18H8.25001C8.0511 18 7.86034 18.079 7.71968 18.2197C7.57903 18.3603 7.50001 18.5511 7.50001 18.75C7.50001 18.9489 7.57903 19.1397 7.71968 19.2803C7.86034 19.421 8.0511 19.5 8.25001 19.5H10.5V21.75C10.5 21.9489 10.579 22.1397 10.7197 22.2803C10.8603 22.421 11.0511 22.5 11.25 22.5C11.4489 22.5 11.6397 22.421 11.7803 22.2803C11.921 22.1397 12 21.9489 12 21.75V19.5H14.25C14.4489 19.5 14.6397 19.421 14.7803 19.2803C14.921 19.1397 15 18.9489 15 18.75C15 18.5511 14.921 18.3603 14.7803 18.2197C14.6397 18.079 14.4489 18 14.25 18H12V16.4513C13.0053 16.3257 13.9624 15.9473 14.7817 15.3514C15.6011 14.7555 16.256 13.9616 16.6853 13.044C17.1145 12.1263 17.3041 11.1147 17.2363 10.1039C17.1685 9.09304 16.8455 8.11588 16.2975 7.26375L18.75 4.81031V6.75C18.75 6.94891 18.829 7.13968 18.9697 7.28033C19.1103 7.42098 19.3011 7.5 19.5 7.5C19.6989 7.5 19.8897 7.42098 20.0303 7.28033C20.171 7.13968 20.25 6.94891 20.25 6.75V3C20.25 2.80109 20.171 2.61032 20.0303 2.46967C19.8897 2.32902 19.6989 2.25 19.5 2.25ZM11.25 15C10.36 15 9.48997 14.7361 8.74995 14.2416C8.00993 13.7471 7.43315 13.0443 7.09256 12.2221C6.75196 11.3998 6.66285 10.495 6.83648 9.62209C7.01011 8.74918 7.4387 7.94736 8.06803 7.31802C8.69737 6.68868 9.49919 6.2601 10.3721 6.08647C11.245 5.91283 12.1498 6.00195 12.9721 6.34254C13.7944 6.68314 14.4972 7.25991 14.9916 7.99993C15.4861 8.73995 15.75 9.60998 15.75 10.5C15.7488 11.6931 15.2743 12.837 14.4306 13.6806C13.587 14.5243 12.4431 14.9988 11.25 15Z" stroke="url(#paint3_linear_18_8553)" stroke-width="0.5"/>
<defs>
<linearGradient id="paint0_linear_18_8553" x1="7.51532" y1="0.881755" x2="21.3486" y2="2.1174" gradientUnits="userSpaceOnUse">
<stop offset="0.280779" stop-color="#FE9D44"/>
<stop offset="1" stop-color="#FFBC5D"/>
</linearGradient>
<linearGradient id="paint1_linear_18_8553" x1="7.88987" y1="2.25" x2="21.262" y2="21.3725" gradientUnits="userSpaceOnUse">
<stop stop-color="#3E81C2"/>
<stop offset="1" stop-color="#49BDF2"/>
</linearGradient>
<linearGradient id="paint2_linear_18_8553" x1="7.51532" y1="0.881755" x2="21.3486" y2="2.1174" gradientUnits="userSpaceOnUse">
<stop offset="0.280779" stop-color="#FE9D44"/>
<stop offset="1" stop-color="#FFBC5D"/>
</linearGradient>
<linearGradient id="paint3_linear_18_8553" x1="7.88987" y1="2.25" x2="21.262" y2="21.3725" gradientUnits="userSpaceOnUse">
<stop stop-color="#3E81C2"/>
<stop offset="1" stop-color="#49BDF2"/>
</linearGradient>
</defs>
</svg>
