<svg width="27" height="26" viewBox="0 0 27 26" fill="none" xmlns="http://www.w3.org/2000/svg">
<g id="Image 2">
<g id="Iconly/Bold/Image-2">
<g id="Image-2">
<g id="Vector">
<path d="M18.2162 2.16711C21.8746 2.16711 24.3327 4.72595 24.3327 8.54578V17.4443C24.3327 17.6079 24.3034 17.7541 24.2948 17.9123C24.2893 18.0044 24.2904 18.0964 24.2828 18.1885C24.2785 18.2297 24.2666 18.2676 24.2623 18.3088C24.2265 18.6489 24.1713 18.9739 24.0943 19.2892C24.0748 19.3737 24.0521 19.4549 24.0293 19.5373C23.9427 19.8428 23.8408 20.1342 23.7184 20.4126C23.6827 20.4906 23.6437 20.5654 23.6068 20.6423C23.4747 20.9077 23.3317 21.1623 23.1659 21.3984L23.0056 21.6064C22.8333 21.8296 22.6535 22.043 22.4498 22.2369C22.3838 22.2998 22.309 22.3539 22.2397 22.4135C22.0306 22.5934 21.8172 22.7656 21.5821 22.9129C21.4976 22.966 21.4044 23.005 21.3178 23.0527C21.0783 23.1849 20.8368 23.3138 20.5735 23.4134C20.4652 23.4546 20.3449 23.4763 20.2323 23.512C19.9733 23.5922 19.7177 23.6756 19.4393 23.7233C19.3692 23.7356 19.2971 23.7442 19.2239 23.751L18.7795 23.7829C18.591 23.7969 18.4123 23.8338 18.2162 23.8338H8.77385C8.36652 23.8338 7.9776 23.7926 7.60168 23.7309C7.5876 23.7287 7.5746 23.7265 7.5616 23.7244C6.09585 23.4719 4.87927 22.7645 4.02668 21.6974C4.01693 21.6974 4.01693 21.6866 4.00718 21.6769C3.15027 20.5979 2.66602 19.1473 2.66602 17.4443V8.54578C2.66602 4.72595 5.12627 2.16711 8.77385 2.16711H18.2162ZM18.2162 3.67836H8.77385C5.9821 3.67836 4.17835 5.59261 4.17835 8.54578V17.4443C4.17835 18.273 4.33218 19.0129 4.59543 19.6532C4.62902 19.6131 6.72743 17.0543 6.73718 17.0456C7.48685 16.1898 8.8941 14.9136 10.7412 15.686C11.1853 15.8702 11.5753 16.1291 11.9328 16.3566C12.5536 16.7715 12.9187 16.9665 13.2978 16.934C13.4549 16.9124 13.6023 16.8658 13.742 16.7791C14.3465 16.4064 16.0549 13.9148 16.1578 13.7794C17.3387 12.241 19.1587 11.8294 20.6753 12.7394C20.7772 12.8 21.1929 13.0852 21.6436 13.4064L21.9838 13.6511C22.3218 13.8967 22.6402 14.1361 22.8214 14.2896V8.54578C22.8214 5.59261 21.0177 3.67836 18.2162 3.67836ZM9.68524 6.50001C10.4411 6.50001 11.1255 6.81784 11.6157 7.3249C12.108 7.81419 12.4167 8.48853 12.4167 9.22455C12.4167 10.6924 11.1885 11.9167 9.71358 11.9167C8.41715 11.9167 7.31177 10.9695 7.06403 9.74311C7.02309 9.55911 7 9.36987 7 9.17437C7 7.69605 8.2009 6.50001 9.68524 6.50001Z" fill="#3E81C2"/>
<path d="M18.2162 2.16711C21.8746 2.16711 24.3327 4.72595 24.3327 8.54578V17.4443C24.3327 17.6079 24.3034 17.7541 24.2948 17.9123C24.2893 18.0044 24.2904 18.0964 24.2828 18.1885C24.2785 18.2297 24.2666 18.2676 24.2623 18.3088C24.2265 18.6489 24.1713 18.9739 24.0943 19.2892C24.0748 19.3737 24.0521 19.4549 24.0293 19.5373C23.9427 19.8428 23.8408 20.1342 23.7184 20.4126C23.6827 20.4906 23.6437 20.5654 23.6068 20.6423C23.4747 20.9077 23.3317 21.1623 23.1659 21.3984L23.0056 21.6064C22.8333 21.8296 22.6535 22.043 22.4498 22.2369C22.3838 22.2998 22.309 22.3539 22.2397 22.4135C22.0306 22.5934 21.8172 22.7656 21.5821 22.9129C21.4976 22.966 21.4044 23.005 21.3178 23.0527C21.0783 23.1849 20.8368 23.3138 20.5735 23.4134C20.4652 23.4546 20.3449 23.4763 20.2323 23.512C19.9733 23.5922 19.7177 23.6756 19.4393 23.7233C19.3692 23.7356 19.2971 23.7442 19.2239 23.751L18.7795 23.7829C18.591 23.7969 18.4123 23.8338 18.2162 23.8338H8.77385C8.36652 23.8338 7.9776 23.7926 7.60168 23.7309C7.5876 23.7287 7.5746 23.7265 7.5616 23.7244C6.09585 23.4719 4.87927 22.7645 4.02668 21.6974C4.01693 21.6974 4.01693 21.6866 4.00718 21.6769C3.15027 20.5979 2.66602 19.1473 2.66602 17.4443V8.54578C2.66602 4.72595 5.12627 2.16711 8.77385 2.16711H18.2162ZM18.2162 3.67836H8.77385C5.9821 3.67836 4.17835 5.59261 4.17835 8.54578V17.4443C4.17835 18.273 4.33218 19.0129 4.59543 19.6532C4.62902 19.6131 6.72743 17.0543 6.73718 17.0456C7.48685 16.1898 8.8941 14.9136 10.7412 15.686C11.1853 15.8702 11.5753 16.1291 11.9328 16.3566C12.5536 16.7715 12.9187 16.9665 13.2978 16.934C13.4549 16.9124 13.6023 16.8658 13.742 16.7791C14.3465 16.4064 16.0549 13.9148 16.1578 13.7794C17.3387 12.241 19.1587 11.8294 20.6753 12.7394C20.7772 12.8 21.1929 13.0852 21.6436 13.4064L21.9838 13.6511C22.3218 13.8967 22.6402 14.1361 22.8214 14.2896V8.54578C22.8214 5.59261 21.0177 3.67836 18.2162 3.67836ZM9.68524 6.50001C10.4411 6.50001 11.1255 6.81784 11.6157 7.3249C12.108 7.81419 12.4167 8.48853 12.4167 9.22455C12.4167 10.6924 11.1885 11.9167 9.71358 11.9167C8.41715 11.9167 7.31177 10.9695 7.06403 9.74311C7.02309 9.55911 7 9.36987 7 9.17437C7 7.69605 8.2009 6.50001 9.68524 6.50001Z" fill="url(#paint0_linear_1470_250890)"/>
</g>
</g>
</g>
</g>
<defs>
<linearGradient id="paint0_linear_1470_250890" x1="6.48954" y1="2.16711" x2="18.9361" y2="26.1816" gradientUnits="userSpaceOnUse">
<stop stop-color="#3E81C2"/>
<stop offset="1" stop-color="#49BDF2"/>
</linearGradient>
</defs>
</svg>
