<svg width="20" height="26" viewBox="0 0 20 26" fill="none" xmlns="http://www.w3.org/2000/svg">
<path fill-rule="evenodd" clip-rule="evenodd" d="M19.9291 20.5195C19.9291 24.6664 14.2423 25.1458 9.96583 25.1458L9.6598 25.1455C6.9352 25.1389 0 24.9669 0 20.4944C0 16.4321 5.45831 15.8892 9.70223 15.8688L10.2718 15.8684C12.9963 15.875 19.9291 16.047 19.9291 20.5195ZM9.96583 17.7554C4.60484 17.7554 1.88723 18.6763 1.88723 20.4944C1.88723 22.3287 4.60484 23.2585 9.96583 23.2585C15.3256 23.2585 18.0419 22.3376 18.0419 20.5195C18.0419 18.6851 15.3256 17.7554 9.96583 17.7554ZM9.96583 0.145752C13.6497 0.145752 16.6454 3.14267 16.6454 6.82654C16.6454 10.5104 13.6497 13.5061 9.96583 13.5061H9.92557C6.24925 13.4948 3.2712 10.4966 3.28374 6.82277C3.28374 3.14267 6.2807 0.145752 9.96583 0.145752ZM9.96583 1.94239C7.27212 1.94239 5.0804 4.13284 5.0804 6.82654C5.07161 9.51144 7.24696 11.7006 9.92934 11.7107L9.96583 12.609V11.7107C12.6583 11.7107 14.8487 9.51899 14.8487 6.82654C14.8487 4.13284 12.6583 1.94239 9.96583 1.94239Z" fill="black"/>
</svg>
