<svg width="22" height="26" viewBox="0 0 22 26" fill="none" xmlns="http://www.w3.org/2000/svg">
<g clip-path="url(#clip0_1470_305468)">
<path d="M6.25 0.9375C7.11426 0.9375 7.8125 1.63574 7.8125 2.5V4.0625H14.0625V2.5C14.0625 1.63574 14.7607 0.9375 15.625 0.9375C16.4893 0.9375 17.1875 1.63574 17.1875 2.5V4.0625H19.5312C20.8252 4.0625 21.875 5.1123 21.875 6.40625V8.75H0V6.40625C0 5.1123 1.0498 4.0625 2.34375 4.0625H4.6875V2.5C4.6875 1.63574 5.38574 0.9375 6.25 0.9375ZM0 10.3125H21.875V23.5938C21.875 24.8877 20.8252 25.9375 19.5312 25.9375H2.34375C1.0498 25.9375 0 24.8877 0 23.5938V10.3125ZM3.90625 13.4375C3.47656 13.4375 3.125 13.7891 3.125 14.2188V18.9062C3.125 19.3359 3.47656 19.6875 3.90625 19.6875H8.59375C9.02344 19.6875 9.375 19.3359 9.375 18.9062V14.2188C9.375 13.7891 9.02344 13.4375 8.59375 13.4375H3.90625Z" fill="#3E81C2"/>
</g>
<defs>
<clipPath id="clip0_1470_305468">
<rect width="21.875" height="25" fill="white" transform="translate(0 0.9375)"/>
</clipPath>
</defs>
</svg>
