<svg width="24" height="28" viewBox="0 0 24 28" fill="none" xmlns="http://www.w3.org/2000/svg">
<g id="Frame" clip-path="url(#clip0_1470_250871)">
<g id="Vector">
<path d="M6.19143 0C7.04759 0 7.73929 0.766071 7.73929 1.71429V3.42857H13.9307V1.71429C13.9307 0.766071 14.6224 0 15.4786 0C16.3347 0 17.0264 0.766071 17.0264 1.71429V3.42857H19.3482C20.63 3.42857 21.67 4.58036 21.67 6V8.57143H0V6C0 4.58036 1.03997 3.42857 2.32179 3.42857H4.64357V1.71429C4.64357 0.766071 5.33527 0 6.19143 0ZM0 10.2857H21.67V24.8571C21.67 26.2768 20.63 27.4286 19.3482 27.4286H2.32179C1.03997 27.4286 0 26.2768 0 24.8571V10.2857ZM3.86964 13.7143C3.44398 13.7143 3.09571 14.1 3.09571 14.5714V19.7143C3.09571 20.1857 3.44398 20.5714 3.86964 20.5714H8.51321C8.93888 20.5714 9.28714 20.1857 9.28714 19.7143V14.5714C9.28714 14.1 8.93888 13.7143 8.51321 13.7143H3.86964Z" fill="black"/>
<path d="M6.19143 0C7.04759 0 7.73929 0.766071 7.73929 1.71429V3.42857H13.9307V1.71429C13.9307 0.766071 14.6224 0 15.4786 0C16.3347 0 17.0264 0.766071 17.0264 1.71429V3.42857H19.3482C20.63 3.42857 21.67 4.58036 21.67 6V8.57143H0V6C0 4.58036 1.03997 3.42857 2.32179 3.42857H4.64357V1.71429C4.64357 0.766071 5.33527 0 6.19143 0ZM0 10.2857H21.67V24.8571C21.67 26.2768 20.63 27.4286 19.3482 27.4286H2.32179C1.03997 27.4286 0 26.2768 0 24.8571V10.2857ZM3.86964 13.7143C3.44398 13.7143 3.09571 14.1 3.09571 14.5714V19.7143C3.09571 20.1857 3.44398 20.5714 3.86964 20.5714H8.51321C8.93888 20.5714 9.28714 20.1857 9.28714 19.7143V14.5714C9.28714 14.1 8.93888 13.7143 8.51321 13.7143H3.86964Z" fill="url(#paint0_linear_1470_250871)"/>
</g>
</g>
<defs>
<linearGradient id="paint0_linear_1470_250871" x1="3.82412" y1="3.43503e-07" x2="21.5126" y2="26.9632" gradientUnits="userSpaceOnUse">
<stop stop-color="#3E81C2"/>
<stop offset="1" stop-color="#49BDF2"/>
</linearGradient>
<clipPath id="clip0_1470_250871">
<rect width="24" height="27.4286" fill="white"/>
</clipPath>
</defs>
</svg>
