<svg width="25" height="26" viewBox="0 0 25 26" fill="none" xmlns="http://www.w3.org/2000/svg">
<path d="M9.1 21.1259C9.1 20.227 8.42224 19.5008 7.58333 19.5008H3.03333C2.19443 19.5008 1.51667 18.7746 1.51667 17.8758V3.25014C1.51667 2.35127 2.19443 1.62507 3.03333 1.62507H21.2333C22.0722 1.62507 22.75 2.35127 22.75 3.25014V17.8758C22.75 18.7746 22.0722 19.5008 21.2333 19.5008H14.6595C14.3325 19.5008 14.0102 19.6126 13.7495 19.8259L9.1 23.5635V21.1259ZM3.03333 0C1.36026 0 0 1.45748 0 3.25014V17.8758C0 19.6684 1.36026 21.1259 3.03333 21.1259H6.06667H7.58333V22.751V25.1886C7.58333 25.4984 7.74448 25.7777 8.00042 25.9148C8.25635 26.0519 8.56443 26.0214 8.79667 25.8386L14.6595 21.1259H21.2333C22.9064 21.1259 24.2667 19.6684 24.2667 17.8758V3.25014C24.2667 1.45748 22.9064 0 21.2333 0H3.03333ZM7.99568 6.18542L7.9862 6.22097C7.88193 6.65263 8.12365 7.09952 8.52651 7.21125C8.92937 7.32297 9.34646 7.06398 9.45073 6.63232L9.46021 6.59677C9.59292 6.05846 10.0432 5.68775 10.5598 5.68775H13.2708C14.105 5.68775 14.7875 6.42411 14.7875 7.32805C14.7875 7.94253 14.4652 8.50623 13.9581 8.78553L11.7873 9.97387C11.5314 10.111 11.375 10.3903 11.375 10.7001V12.188C11.375 12.6349 11.7162 13.0006 12.1333 13.0006C12.5504 13.0006 12.8917 12.6349 12.8917 12.188V11.1876L14.6501 10.2278C15.6691 9.66917 16.3042 8.54177 16.3042 7.32297C16.3042 5.53539 14.9534 4.06267 13.2708 4.06267H10.5645C9.35594 4.06267 8.30375 4.93615 7.99568 6.18542ZM13.2708 15.4382C13.2708 15.1149 13.151 14.8049 12.9377 14.5763C12.7243 14.3478 12.435 14.2194 12.1333 14.2194C11.8316 14.2194 11.5423 14.3478 11.329 14.5763C11.1157 14.8049 10.9958 15.1149 10.9958 15.4382C10.9958 15.7614 11.1157 16.0714 11.329 16.3C11.5423 16.5286 11.8316 16.657 12.1333 16.657C12.435 16.657 12.7243 16.5286 12.9377 16.3C13.151 16.0714 13.2708 15.7614 13.2708 15.4382Z" fill="black"/>
</svg>
