<svg width="16" height="18" viewBox="0 0 16 18" fill="none" xmlns="http://www.w3.org/2000/svg">
<path d="M6 13.9292C6 13.3365 5.55312 12.8577 5 12.8577H2C1.44687 12.8577 1 12.3789 1 11.7862V2.14295C1 1.55029 1.44687 1.07147 2 1.07147H14C14.5531 1.07147 15 1.55029 15 2.14295V11.7862C15 12.3789 14.5531 12.8577 14 12.8577H9.66562C9.45 12.8577 9.2375 12.9314 9.06563 13.072L6 15.5364V13.9292ZM2 0C0.896875 0 0 0.960979 0 2.14295V11.7862C0 12.9682 0.896875 13.9292 2 13.9292H4H5V15.0006V16.6079C5 16.8121 5.10625 16.9963 5.275 17.0867C5.44375 17.1771 5.64688 17.157 5.8 17.0365L9.66562 13.9292H14C15.1031 13.9292 16 12.9682 16 11.7862V2.14295C16 0.960979 15.1031 0 14 0H2ZM5.27187 4.0783L5.26562 4.10174C5.19688 4.38635 5.35625 4.68101 5.62187 4.75467C5.8875 4.82833 6.1625 4.65757 6.23125 4.37296L6.2375 4.34952C6.325 3.99459 6.62188 3.75016 6.9625 3.75016H8.75C9.3 3.75016 9.75 4.23567 9.75 4.83168C9.75 5.23683 9.5375 5.6085 9.20312 5.79266L7.77187 6.57618C7.60313 6.66658 7.5 6.85074 7.5 7.05499V8.03606C7.5 8.33072 7.725 8.5718 8 8.5718C8.275 8.5718 8.5 8.33072 8.5 8.03606V7.37644L9.65938 6.7436C10.3313 6.37528 10.75 5.63194 10.75 4.82833C10.75 3.64971 9.85938 2.67869 8.75 2.67869H6.96562C6.16875 2.67869 5.475 3.25461 5.27187 4.0783ZM8.75 10.179C8.75 9.96588 8.67098 9.76148 8.53033 9.61078C8.38968 9.46007 8.19891 9.37541 8 9.37541C7.80109 9.37541 7.61032 9.46007 7.46967 9.61078C7.32902 9.76148 7.25 9.96588 7.25 10.179C7.25 10.3921 7.32902 10.5965 7.46967 10.7472C7.61032 10.898 7.80109 10.9826 8 10.9826C8.19891 10.9826 8.38968 10.898 8.53033 10.7472C8.67098 10.5965 8.75 10.3921 8.75 10.179Z" fill="#696969"/>
</svg>
