<svg width="23" height="26" viewBox="0 0 23 26" fill="none" xmlns="http://www.w3.org/2000/svg">
<path d="M16.4888 0.885372C20.35 0.885372 22.5 3.11037 22.5 6.92287V19.8354C22.5 23.7104 20.35 25.8854 16.4888 25.8854H6.0125C2.2125 25.8854 0 23.7104 0 19.8354V6.92287C0 3.11037 2.2125 0.885372 6.0125 0.885372H16.4888ZM6.35 18.0604C5.975 18.0229 5.6125 18.1979 5.4125 18.5229C5.2125 18.8354 5.2125 19.2479 5.4125 19.5729C5.6125 19.8854 5.975 20.0729 6.35 20.0229H16.15C16.6488 19.9729 17.025 19.5466 17.025 19.0479C17.025 18.5354 16.6488 18.1104 16.15 18.0604H6.35ZM16.15 12.3591H6.35C5.81125 12.3591 5.375 12.7979 5.375 13.3354C5.375 13.8729 5.81125 14.3104 6.35 14.3104H16.15C16.6875 14.3104 17.125 13.8729 17.125 13.3354C17.125 12.7979 16.6875 12.3591 16.15 12.3591ZM10.0863 6.69787H6.35V6.71037C5.81125 6.71037 5.375 7.14787 5.375 7.68537C5.375 8.22287 5.81125 8.66037 6.35 8.66037H10.0863C10.625 8.66037 11.0625 8.22287 11.0625 7.67162C11.0625 7.13537 10.625 6.69787 10.0863 6.69787Z" fill="#3E81C2"/>
</svg>
