<svg width="31" height="26" viewBox="0 0 31 26" fill="none" xmlns="http://www.w3.org/2000/svg">
<path d="M29.4986 13.0573C30.0819 13.0573 30.5556 13.5217 30.5556 14.0951C30.5556 14.6671 30.0819 15.1301 29.4986 15.1301H28.0236V20.074C28.0236 23.0676 25.5417 25.5 22.4917 25.5H20.2792C19.6944 25.5 19.2208 25.0356 19.2208 24.4622C19.2208 23.8902 19.6944 23.4258 20.2792 23.4258H22.4917C24.3764 23.4258 25.9097 21.9235 25.9097 20.074V15.1301H22.2667V16.5071C22.2806 18.2299 20.8708 19.6382 19.1139 19.6545H11.4417C9.68611 19.6382 8.27639 18.2299 8.29028 16.5071V15.1301H4.64722V20.0795C4.64722 21.9222 6.17639 23.4217 8.05556 23.4244L10.3167 23.4258C10.9 23.4258 11.3736 23.8902 11.3736 24.4622C11.3722 25.0356 10.9 25.5 10.3153 25.5L8.05278 25.4986C5.00972 25.4959 2.53194 23.0648 2.53194 20.0795V15.1301H1.05833C0.475 15.1301 0 14.6671 0 14.0951C0 13.5217 0.475 13.0573 1.05833 13.0573H29.4986ZM19.1146 5.69814C19.9549 5.69814 20.7618 6.02909 21.3493 6.61881C21.941 7.21398 22.2687 8.01344 22.2674 8.84559V10.5753C22.2604 10.7782 22.0951 10.943 21.8882 10.9484H8.66597C8.46042 10.9416 8.29514 10.7768 8.29085 10.5753V8.84559C8.27569 7.12273 9.6868 5.71584 11.4424 5.69814H19.1146ZM22.4911 0.500409C25.5425 0.500409 28.0231 2.93284 28.0231 5.92504V8.5032C28.0231 9.07521 27.5508 9.541 26.9661 9.541C26.3828 9.541 25.9092 9.07521 25.9092 8.5032V5.92504C25.9092 4.07688 24.3758 2.57329 22.4911 2.57329H20.2786C19.6953 2.57329 19.2217 2.11023 19.2217 1.53821C19.2217 0.964832 19.6953 0.500409 20.2786 0.500409H22.4911ZM10.3162 0.5C10.8996 0.5 11.3732 0.964423 11.3732 1.5378C11.3732 2.10982 10.901 2.57424 10.3162 2.57424L8.05375 2.5756C6.17597 2.57833 4.64819 4.07783 4.64819 5.92054V8.50279C4.64819 9.07481 4.17319 9.54059 3.58986 9.54059C3.00653 9.54059 2.53292 9.07481 2.53292 8.50279V5.92054C2.53292 2.93516 5.00931 0.504086 8.05236 0.501362L10.3162 0.5Z" fill="#3E81C2"/>
</svg>
