<svg width="27" height="26" viewBox="0 0 27 26" fill="none" xmlns="http://www.w3.org/2000/svg">
<path d="M1.38281 8.875H3.1875C3.3293 8.875 3.44531 8.75898 3.44531 8.61719V2.94531H9.11719C9.25898 2.94531 9.375 2.8293 9.375 2.6875V0.882812C9.375 0.741016 9.25898 0.625 9.11719 0.625H3.31641C2.10469 0.625 1.125 1.60469 1.125 2.81641V8.61719C1.125 8.75898 1.24102 8.875 1.38281 8.875ZM17.8828 2.94531H23.5547V8.61719C23.5547 8.75898 23.6707 8.875 23.8125 8.875H25.6172C25.759 8.875 25.875 8.75898 25.875 8.61719V2.81641C25.875 1.60469 24.8953 0.625 23.6836 0.625H17.8828C17.741 0.625 17.625 0.741016 17.625 0.882812V2.6875C17.625 2.8293 17.741 2.94531 17.8828 2.94531ZM9.11719 23.0547H3.44531V17.3828C3.44531 17.241 3.3293 17.125 3.1875 17.125H1.38281C1.24102 17.125 1.125 17.241 1.125 17.3828V23.1836C1.125 24.3953 2.10469 25.375 3.31641 25.375H9.11719C9.25898 25.375 9.375 25.259 9.375 25.1172V23.3125C9.375 23.1707 9.25898 23.0547 9.11719 23.0547ZM25.6172 17.125H23.8125C23.6707 17.125 23.5547 17.241 23.5547 17.3828V23.0547H17.8828C17.741 23.0547 17.625 23.1707 17.625 23.3125V25.1172C17.625 25.259 17.741 25.375 17.8828 25.375H23.6836C24.8953 25.375 25.875 24.3953 25.875 23.1836V17.3828C25.875 17.241 25.759 17.125 25.6172 17.125ZM26.1328 11.8398H0.867188C0.725391 11.8398 0.609375 11.9559 0.609375 12.0977V13.9023C0.609375 14.0441 0.725391 14.1602 0.867188 14.1602H26.1328C26.2746 14.1602 26.3906 14.0441 26.3906 13.9023V12.0977C26.3906 11.9559 26.2746 11.8398 26.1328 11.8398Z" fill="white"/>
</svg>
