<svg width="15" height="15" viewBox="0 0 15 15" fill="none" xmlns="http://www.w3.org/2000/svg">
<path d="M0.45 4.8H1.5C1.5825 4.8 1.65 4.7325 1.65 4.65V1.35H4.95C5.0325 1.35 5.1 1.2825 5.1 1.2V0.15C5.1 0.0675 5.0325 0 4.95 0H1.575C0.87 0 0.3 0.57 0.3 1.275V4.65C0.3 4.7325 0.3675 4.8 0.45 4.8ZM10.05 1.35H13.35V4.65C13.35 4.7325 13.4175 4.8 13.5 4.8H14.55C14.6325 4.8 14.7 4.7325 14.7 4.65V1.275C14.7 0.57 14.13 0 13.425 0H10.05C9.9675 0 9.9 0.0675 9.9 0.15V1.2C9.9 1.2825 9.9675 1.35 10.05 1.35ZM4.95 13.05H1.65V9.75C1.65 9.6675 1.5825 9.6 1.5 9.6H0.45C0.3675 9.6 0.3 9.6675 0.3 9.75V13.125C0.3 13.83 0.87 14.4 1.575 14.4H4.95C5.0325 14.4 5.1 14.3325 5.1 14.25V13.2C5.1 13.1175 5.0325 13.05 4.95 13.05ZM14.55 9.6H13.5C13.4175 9.6 13.35 9.6675 13.35 9.75V13.05H10.05C9.9675 13.05 9.9 13.1175 9.9 13.2V14.25C9.9 14.3325 9.9675 14.4 10.05 14.4H13.425C14.13 14.4 14.7 13.83 14.7 13.125V9.75C14.7 9.6675 14.6325 9.6 14.55 9.6ZM14.85 6.525H0.15C0.0675 6.525 0 6.5925 0 6.675V7.725C0 7.8075 0.0675 7.875 0.15 7.875H14.85C14.9325 7.875 15 7.8075 15 7.725V6.675C15 6.5925 14.9325 6.525 14.85 6.525Z" fill="#696969"/>
</svg>
