<svg width="30" height="26" viewBox="0 0 30 26" fill="none" xmlns="http://www.w3.org/2000/svg">
<path fill-rule="evenodd" clip-rule="evenodd" d="M4.49066 19.5274C4.49066 21.7181 6.27365 23.5011 8.46575 23.5011H10.1128C10.6645 23.5011 11.1122 23.9489 11.1122 24.5006C11.1122 25.0523 10.6645 25.5 10.1128 25.5H8.46575C5.17161 25.5 2.49179 22.8202 2.49179 19.5274L2.49059 15.0971L0.999435 15.0983C0.447747 15.0983 0 14.6505 0 14.0988C0 13.5472 0.447747 13.0994 0.999435 13.0994L3.47215 13.0979C3.47849 13.0977 3.48485 13.0977 3.49123 13.0977L3.51002 13.0982L26.4715 13.0979C26.4782 13.0977 26.4849 13.0977 26.4917 13.0977L26.5103 13.0982L28.9836 13.0994C29.5353 13.0994 29.983 13.5472 29.983 14.0988C29.983 14.6505 29.5353 15.0983 28.9836 15.0983L27.4911 15.0971V19.5274C27.4911 22.8202 24.8113 25.5 21.5172 25.5H19.9114C19.3597 25.5 18.912 25.0523 18.912 24.5006C18.912 23.9489 19.3597 23.5011 19.9114 23.5011H21.5172C23.7093 23.5011 25.4923 21.7181 25.4923 19.5274V15.0971H4.48946L4.49066 19.5274ZM21.517 0.5C24.8112 0.5 27.491 3.17982 27.491 6.47129V8.48882C27.491 9.0405 27.0432 9.48825 26.4916 9.48825C25.9399 9.48825 25.4921 9.0405 25.4921 8.48882V6.47129C25.4921 4.28186 23.7091 2.49887 21.517 2.49887H19.9113C19.3596 2.49887 18.9118 2.05112 18.9118 1.49943C18.9118 0.947747 19.3596 0.5 19.9113 0.5H21.517ZM10.1131 0.5C10.6648 0.5 11.1125 0.947747 11.1125 1.49943C11.1125 2.05112 10.6648 2.49887 10.1131 2.49887H8.46601C6.27392 2.49887 4.49093 4.28186 4.49093 6.47129V8.48882C4.49093 9.0405 4.04318 9.48825 3.49149 9.48825C2.9398 9.48825 2.49206 9.0405 2.49206 8.48882V6.47129C2.49206 3.17982 5.17188 0.5 8.46601 0.5H10.1131Z" fill="black"/>
</svg>
