<svg width="390" height="112" viewBox="0 0 390 112" fill="none" xmlns="http://www.w3.org/2000/svg">
<path d="M396.241 0.486991C396.241 8.75216 396.241 28.4423 396.241 36.7075C395.839 36.6029 395.436 36.4285 395.033 36.3937C388.155 35.4172 381.277 34.2315 374.367 33.5689C364.515 32.6273 354.693 33.255 344.903 34.7546C339.109 35.6264 333.222 37.0214 327.428 36.7773C319.373 36.4285 311.41 34.6848 303.354 33.7781C296.538 33.0109 289.722 32.2436 282.875 32.139C276.244 32.0344 269.583 32.7319 262.953 33.1852C250.312 34.0571 237.64 35.1033 224.999 35.8705C215.951 36.4285 206.842 36.4634 197.795 37.0214C190.236 37.4748 182.707 38.3466 175.178 39.079C169.322 39.637 163.497 40.2996 157.641 40.9622C157.301 40.997 156.96 41.1365 156.619 41.2412C152.498 41.2412 148.378 41.2412 144.226 41.2412C143.792 41.1365 143.327 40.9622 142.894 40.9622C140.074 40.7878 137.224 40.6832 134.404 40.5088C121.422 39.7067 108.595 37.684 95.7684 35.5218C89.9436 34.5453 83.9949 33.7781 78.1081 33.7781C66.9543 33.7432 56.0173 36.6378 44.9873 37.9281C38.4499 38.6954 31.8505 39.2882 25.2512 39.3231C19.8601 39.358 14.4691 38.5907 9.07803 38.0676C6.07268 37.7537 3.09831 37.1609 0.185913 36.7075C0.185913 28.3726 0.185913 8.82191 0.185913 0.486991C1.36327 0.905481 2.38571 1.32397 3.40814 1.67271C5.91777 2.47482 8.42739 3.41642 10.968 4.04415C18.3419 5.85761 25.8088 6.86896 33.3377 6.97358C40.4948 7.0782 47.6828 6.97358 54.8089 6.48534C63.0194 5.92736 71.1989 4.74164 79.4094 4.00928C88.2086 3.20717 96.9148 4.14878 105.435 6.72946C115.721 9.83326 126.194 11.577 136.852 11.856C149.648 12.1698 162.258 10.7749 174.837 8.36855C187.974 5.85761 201.111 5.16013 214.371 7.11308C223.852 8.54292 233.395 9.65889 242.969 10.4261C250.931 11.0539 258.925 11.2631 266.918 11.0539C275.966 10.8097 285.013 10.0076 294.06 9.2404C301.155 8.64754 308.25 7.91518 315.283 6.86896C324.485 5.54374 333.656 5.54374 342.889 6.65971C347.598 7.2177 352.339 7.63619 357.079 7.60132C366.343 7.56644 375.297 5.26475 383.879 1.56809C388.062 -0.280241 392.09 -0.105869 396.241 0.486991Z" fill="#B8E9FF"/>
<path d="M190.545 15.787C192.311 15.787 194.047 15.787 195.813 15.787C196.308 15.8571 196.804 15.9507 197.3 15.9741C204.55 16.1378 211.707 16.7693 218.678 18.2193C226.362 19.8096 233.984 21.6105 241.667 23.2476C253.751 25.8202 265.927 25.3759 278.134 23.8791C285.415 22.9903 292.232 21.0258 299.11 19.1782C304.718 17.6814 310.326 16.3483 316.336 16.091C324.175 15.7402 331.89 16.4185 339.574 17.3773C350.913 18.804 362.377 19.6459 373.841 19.9734C381.339 20.1838 388.899 19.8564 396.427 19.7629C396.427 30.2405 396.427 40.6947 396.427 51.1723C393.019 50.6812 389.518 50.307 386.203 51.2425C380.564 52.8562 374.832 54.2361 368.853 54.8676C364.887 55.2885 360.89 55.8732 356.924 55.8031C349.581 55.6861 342.238 55.0313 334.895 54.8208C330.372 54.6805 325.848 54.7506 321.325 54.9845C315.128 55.3353 308.931 55.9668 302.735 56.4345C298.645 56.7386 294.524 56.9724 290.435 57.2063C285.911 57.4636 281.388 57.7676 276.864 57.8846C269.521 58.0717 262.147 58.2354 254.804 58.2354C250.095 58.212 245.354 57.9313 240.645 57.6273C234.603 57.2531 228.531 56.8087 222.52 56.2942C217.408 55.8732 212.326 55.078 207.214 54.8676C199.561 54.5401 191.878 54.5869 184.225 55.3353C180.662 55.6861 177.099 56.0837 173.536 56.4813C170.035 56.8789 166.472 57.1362 163.002 57.7208C159.531 58.3289 155.968 57.6507 152.591 58.516C152.498 58.5394 152.374 58.516 152.281 58.516C142.088 58.7499 131.895 58.9604 121.794 57.6741C116.744 57.0426 111.725 56.1773 106.674 55.4289C102.864 54.8442 99.0527 53.9788 95.2108 53.6982C90.3464 53.3474 85.4511 53.2772 80.5558 53.4175C74.5451 53.6046 68.5654 54.1192 62.5547 54.4934C57.0707 54.8442 51.5867 55.3119 46.0717 55.4756C41.6102 55.616 37.1176 55.4756 32.6251 55.2885C27.9467 55.1014 23.2992 54.8208 18.6518 54.4232C12.6411 53.9087 6.78529 52.903 1.14639 51.2191C0.712624 51.0788 0.216896 50.5175 0.216896 50.1433C0.216896 40.3205 0.216896 30.4744 0.185913 20.6282C0.185913 19.8564 0.526726 19.5992 1.51818 19.5758C9.48081 19.4354 17.3195 18.5233 25.1892 17.7515C37.4275 16.5588 49.7277 16.091 62.059 16.2781C79.1306 16.5354 96.0163 17.7048 112.468 21.3298C119.13 22.8033 125.977 23.3412 132.824 22.6863C140.105 22.0081 147.386 21.0024 154.574 19.8564C163.993 18.3596 173.381 16.6991 183.017 16.1612C185.526 16.0443 188.036 15.9273 190.545 15.787Z" fill="#83D8FF"/>
<path d="M396 38.8404C376.179 36.6159 360.359 28.4755 338.863 27.2381C306.157 25.3472 281.388 39.9179 248.344 39.7163C216.327 39.5217 192.584 25.5488 160.723 26.5985C135.732 27.4188 116.069 37.0505 91.0531 37.7874C76.9734 38.1976 66.0997 35.8512 54.0332 33.1053C37.8882 29.4209 43.7151 52.3751 24.245 54.9819L0.00012207 82H396V38.8404Z" fill="#27A4DD"/>
<path d="M0.00012207 38.8764C19.8209 36.6519 15.1677 27.4225 36.664 26.1851C69.3696 24.2943 65.4001 37.5154 98.4434 37.3138C249.096 36.3979 503.712 40.2188 212.278 80.947C143.853 80.947 64.0713 82 0.00012207 82V38.8764Z" fill="#27A4DD"/>
<rect x="7.00012" y="64" width="378" height="48" fill="#27A4DD"/>
</svg>
