<svg width="390" height="94" viewBox="0 0 390 94" fill="none" xmlns="http://www.w3.org/2000/svg">
<path d="M284.522 0.426142C294.437 1.76639 304.382 3.03218 314.297 4.48412C320.029 5.30316 325.73 6.01051 331.523 5.07978C339.486 3.81399 347.387 2.17591 355.442 1.72916C368.207 0.984579 380.724 2.73435 393.241 5.2287C393.241 9.62174 393.241 20.9938 393.241 25.3868C392.467 25.3496 391.692 25.3124 390.918 25.3124C260.386 25.3124 129.855 25.3124 -0.676329 25.3124C-1.41992 25.3124 -2.16351 25.3124 -2.9071 25.3124C-2.9071 20.8077 -2.9071 9.58451 -2.9071 5.30316C1.55445 5.97328 5.89207 6.71787 10.2297 7.2763C17.7276 8.28149 25.2874 8.5421 32.7853 7.6486C41.1817 6.68064 49.5781 5.34039 57.9435 3.88845C68.9425 1.95254 79.8795 1.31964 90.9094 3.55339C106.711 6.79232 122.605 9.0633 138.654 9.80789C147.206 10.2174 155.788 10.4408 164.308 8.98884C175.896 7.0157 187.545 5.82437 199.257 5.34039C208.49 4.93087 223.52 7.52701 234.314 6.91068C251.228 5.94493 267.621 1.18075 268.55 1.18075C273.663 -0.222495 279.536 -0.239581 284.522 0.426142Z" fill="#EDF9FF"/>
<path d="M393.241 8.48705C393.241 16.7522 393.241 36.4424 393.241 44.7076C392.839 44.603 392.436 44.4286 392.033 44.3937C385.155 43.4172 378.277 42.2315 371.367 41.5689C361.515 40.6273 351.693 41.255 341.903 42.7546C336.109 43.6265 330.222 45.0215 324.428 44.7773C316.373 44.4286 308.41 42.6849 300.354 41.7782C293.538 41.0109 286.722 40.2437 279.875 40.1391C273.244 40.0344 266.583 40.7319 259.953 41.1853C247.312 42.0571 234.64 43.1034 221.999 43.8706C212.951 44.4286 203.842 44.4635 194.795 45.0214C187.236 45.4748 179.707 46.3467 172.178 47.079C166.322 47.637 160.497 48.2996 154.641 48.9622C154.301 48.9971 153.96 49.1366 153.619 49.2412C149.498 49.2412 145.378 49.2412 141.226 49.2412C140.792 49.1366 140.327 48.9622 139.894 48.9622C137.074 48.7879 134.224 48.6832 131.404 48.5089C118.422 47.7068 105.595 45.6841 92.7684 43.5219C86.9436 42.5454 80.9949 41.7782 75.1081 41.7782C63.9543 41.7433 53.0173 44.6378 41.9873 45.9282C35.4499 46.6954 28.8505 47.2883 22.2512 47.3231C16.8601 47.358 11.4691 46.5908 6.07803 46.0677C3.07268 45.7538 0.0983143 45.1609 -2.81409 44.7076C-2.81409 36.3727 -2.81409 16.822 -2.81409 8.48705C-1.63673 8.90554 -0.614294 9.32403 0.408144 9.67277C2.91777 10.4749 5.42739 11.4165 7.96799 12.0442C15.3419 13.8577 22.8088 14.869 30.3377 14.9736C37.4948 15.0783 44.6828 14.9736 51.8089 14.4854C60.0194 13.9274 68.1989 12.7417 76.4094 12.0093C85.2086 11.2072 93.9148 12.1488 102.435 14.7295C112.721 17.8333 123.194 19.577 133.852 19.856C146.648 20.1699 159.258 18.7749 171.837 16.3686C184.974 13.8577 198.111 13.1602 211.371 15.1131C220.852 16.543 230.395 17.659 239.969 18.4262C247.931 19.0539 255.925 19.2632 263.918 19.0539C272.966 18.8098 282.013 18.0077 291.06 17.2405C298.155 16.6476 305.25 15.9152 312.283 14.869C321.485 13.5438 330.656 13.5438 339.889 14.6598C344.598 15.2178 349.339 15.6363 354.079 15.6014C363.343 15.5665 372.297 13.2648 380.879 9.56815C385.062 7.71982 389.09 7.89419 393.241 8.48705Z" fill="#B8E9FF"/>
<path d="M187.545 23.787C189.311 23.787 191.047 23.787 192.813 23.787C193.308 23.8572 193.804 23.9508 194.3 23.9742C201.55 24.1379 208.707 24.7693 215.678 26.2194C223.362 27.8097 230.984 29.6105 238.667 31.2477C250.751 33.8203 262.927 33.3759 275.134 31.8791C282.415 30.9904 289.232 29.0259 296.11 27.1782C301.718 25.6814 307.326 24.3484 313.336 24.0911C321.175 23.7403 328.89 24.4185 336.574 25.3774C347.913 26.804 359.377 27.646 370.841 27.9734C378.339 28.1839 385.899 27.8565 393.427 27.7629C393.427 38.2405 393.427 48.6948 393.427 59.1724C390.019 58.6813 386.518 58.3071 383.203 59.2426C377.564 60.8563 371.832 62.2362 365.853 62.8676C361.887 63.2886 357.89 63.8733 353.924 63.8031C346.581 63.6862 339.238 63.0313 331.895 62.8208C327.372 62.6805 322.848 62.7507 318.325 62.9846C312.128 63.3354 305.931 63.9668 299.735 64.4346C295.645 64.7386 291.524 64.9725 287.435 65.2064C282.911 65.4636 278.388 65.7677 273.864 65.8846C266.521 66.0717 259.147 66.2354 251.804 66.2354C247.095 66.212 242.354 65.9314 237.645 65.6273C231.603 65.2531 225.531 64.8088 219.52 64.2943C214.408 63.8733 209.326 63.0781 204.214 62.8676C196.561 62.5402 188.878 62.587 181.225 63.3354C177.662 63.6862 174.099 64.0838 170.536 64.4814C167.035 64.8789 163.472 65.1362 160.002 65.7209C156.531 66.329 152.968 65.6507 149.591 66.5161C149.498 66.5395 149.374 66.5161 149.281 66.5161C139.088 66.75 128.895 66.9604 118.794 65.6741C113.744 65.0427 108.725 64.1773 103.674 63.4289C99.8636 62.8442 96.0527 61.9789 92.2108 61.6982C87.3464 61.3474 82.4511 61.2773 77.5558 61.4176C71.5451 61.6047 65.5654 62.1192 59.5547 62.4934C54.0707 62.8442 48.5867 63.312 43.0717 63.4757C38.6102 63.616 34.1176 63.4757 29.6251 63.2886C24.9467 63.1015 20.2992 62.8208 15.6518 62.4233C9.64108 61.9087 3.78529 60.9031 -1.85361 59.2192C-2.28738 59.0788 -2.7831 58.5175 -2.7831 58.1433C-2.7831 48.3206 -2.7831 38.4744 -2.81409 28.6283C-2.81409 27.8565 -2.47327 27.5992 -1.48182 27.5758C6.48081 27.4355 14.3195 26.5234 22.1892 25.7516C34.4275 24.5588 46.7277 24.0911 59.059 24.2782C76.1306 24.5355 93.0163 25.7048 109.468 29.3299C116.13 30.8033 122.977 31.3412 129.824 30.6864C137.105 30.0081 144.386 29.0025 151.574 27.8565C160.993 26.3597 170.381 24.6992 180.017 24.1613C182.526 24.0443 185.036 23.9274 187.545 23.787Z" fill="#83D8FF"/>
<path d="M393.241 46.3252C373.418 44.2417 357.595 36.6175 336.096 35.4585C303.386 33.6876 278.613 47.3344 245.565 47.1456C213.543 46.9633 189.797 33.8764 157.931 34.8595C132.937 35.6278 113.271 44.6488 88.2517 45.339C74.17 45.7231 63.2948 43.5255 51.2266 40.9537C35.0793 37.5029 40.907 59.0017 21.4342 61.4432L-2.81409 86.7482H393.241V46.3252Z" fill="#49BDF2"/>
<path d="M-2.81409 46.3589C17.0095 44.2755 12.3556 35.6313 33.8549 34.4723C66.5651 32.7014 62.5951 45.0842 95.643 44.8954C246.317 44.0376 500.968 47.6162 209.493 85.762C141.059 85.762 61.2661 86.7482 -2.81409 86.7482V46.3589Z" fill="#49BDF2"/>
<path d="M188.685 57C190.463 57 192.21 57 193.989 57C194.488 57.0704 194.987 57.1643 195.486 57.1877C202.787 57.352 209.993 57.9855 217.013 59.4403C224.75 61.0359 232.425 62.8427 240.163 64.4852C252.33 67.0663 264.591 66.6205 276.883 65.1188C284.215 64.2271 291.079 62.2561 298.005 60.4024C303.652 58.9006 309.299 57.5632 315.351 57.305C323.245 56.9531 331.013 57.6336 338.75 58.5956C350.169 60.0269 361.713 60.8717 373.256 61.2002C380.806 61.4114 388.419 61.0829 396 60.989C396 71.5012 396 67.9437 396 78.4559C392.568 77.9631 389.043 77.5877 385.704 78.5263C380.026 80.1453 374.255 81.5297 368.233 82.1633C364.24 82.5856 360.215 83.1723 356.222 83.1019C348.828 82.9845 341.433 82.3275 334.039 82.1163C329.484 81.9756 324.929 82.046 320.374 82.2806C314.135 82.6326 307.895 83.2661 301.655 83.7354C297.537 84.0405 293.388 84.2751 289.269 84.5097C284.714 84.7679 280.159 85.0729 275.604 85.1902C268.21 85.3779 260.785 85.5422 253.391 85.5422C248.649 85.5187 243.875 85.2372 239.133 84.9321C233.049 84.5567 226.934 84.1109 220.882 83.5946C215.734 83.1723 210.617 82.3745 205.47 82.1633C197.764 81.8348 190.026 81.8817 182.32 82.6326C178.732 82.9845 175.144 83.3834 171.557 83.7823C168.031 84.1812 164.443 84.4394 160.949 85.026C157.455 85.6361 153.867 84.9556 150.466 85.8238C150.373 85.8472 150.248 85.8238 150.154 85.8238C139.89 86.0584 129.626 86.2696 119.455 84.979C114.369 84.3455 109.315 83.4773 104.23 82.7264C100.392 82.1398 96.555 81.2716 92.6864 80.99C87.7882 80.6381 82.8588 80.5677 77.9294 80.7085C71.8768 80.8962 65.8555 81.4124 59.803 81.7878C54.2808 82.1398 48.7586 82.6091 43.2053 82.7734C38.7126 82.9142 34.1888 82.7734 29.665 82.5856C24.954 82.3979 20.2742 82.1164 15.5944 81.7175C9.54187 81.2012 3.64532 80.1922 -2.03284 78.5028C-2.46962 78.362 -2.9688 77.7989 -2.9688 77.4234C-2.9688 67.5683 -2.9688 71.7358 -3 61.8572C-3 61.0829 -2.65681 60.8247 -1.65846 60.8013C6.35961 60.6605 14.2529 59.7454 22.1773 58.971C34.5008 57.7743 46.8867 57.305 59.3038 57.4928C76.4942 57.7509 93.4975 58.9241 110.064 62.5611C116.772 64.0394 123.667 64.5791 130.562 63.9221C137.893 63.2416 145.225 62.2326 152.463 61.0828C161.947 59.5811 171.401 57.9151 181.103 57.3754C183.631 57.2581 186.158 57.1408 188.685 57Z" fill="#27A4DD"/>
<g clip-path="url(#clip0_2001_5)">
<path d="M-1 74V89.1606C1.32359 89.1606 3.04103 90.0466 4.75846 90.9326C5.16256 91.1295 5.56667 91.3264 5.86974 91.5233C9.70872 93.3938 13.4467 93.3938 16.7805 91.4249C22.2359 88.1762 27.3882 88.57 32.6415 91.228C34.0559 91.6218 35.4703 92.2124 36.7836 92.8031C37.5918 93 38.501 93 39.3092 93C41.0267 92.2124 42.7441 91.6218 44.5626 91.1295C50.22 88.1762 55.5744 88.8653 61.1308 91.9171C64.4646 93.7876 68.2026 93.3938 71.3344 91.5233C77.0928 88.0777 82.5482 88.7668 88.2056 91.7202C91.4385 93.4922 94.5703 93.3938 97.9041 91.6218C102.955 88.9637 108.31 87.8808 113.765 91.0311C118.008 93.4922 122.352 93.4922 126.595 91.0311C131.95 87.8808 137.203 88.7668 142.254 91.4249C146.194 93.4922 150.033 93.2953 153.67 91.228C158.823 88.3731 163.672 88.3731 168.723 91.228C172.663 93.4922 176.906 93.3938 180.947 91.228C185.897 88.4715 190.747 88.2746 195.798 91.1295C199.94 93.4922 204.385 93.4922 208.527 91.0311C213.376 88.2746 218.226 88.4715 223.075 91.1295C227.217 93.3938 231.359 93.4922 235.501 91.1295C240.35 88.3731 245.301 88.1762 250.352 91.1295C254.494 93.4922 258.737 93.4922 262.778 91.1295C267.93 88.1762 272.779 88.4715 277.831 91.1295C281.771 93.2953 285.812 93.3938 289.752 91.1295C295.005 88.1762 300.157 88.2746 305.31 91.228C309.048 93.2953 313.089 93.2953 316.726 91.228C321.979 88.2746 326.929 88.0777 332.284 91.1295C336.123 93.2953 340.265 93.2953 344.306 91.1295C349.458 88.1762 354.408 88.2746 359.662 91.1295C363.298 93.1969 367.137 93.4922 371.077 91.1295C376.836 87.7824 382.594 88.2746 388.252 91.3264C389.06 91.8187 389.868 92.0155 390.777 92.2124C391.485 92.4093 392.293 92.6062 393 93V74H-1Z" fill="#27A4DD"/>
</g>
<path d="M-3 78.712C0.9182 77.6804 3.35998 79.801 5.85854 81.2338C9.66317 83.4691 13.411 83.5264 16.7614 81.1192C22.3263 77.0499 27.6642 77.6231 33.0588 81.1765C36.5227 83.4691 40.2138 83.6983 43.4505 81.3485C49.5266 76.9926 55.0916 77.6231 60.9973 81.5777C64.2908 83.813 68.0387 83.3545 71.1619 81.1192C76.954 76.878 82.3486 77.7377 87.9704 81.4058C91.1504 83.5264 94.3304 83.4118 97.6807 81.2338C102.735 78.0243 108.016 76.6487 113.524 80.5461C117.726 83.5264 122.098 83.5837 126.357 80.6034C131.695 76.8207 136.919 77.8523 141.973 81.0619C145.948 83.641 149.696 83.2971 153.387 80.8326C158.498 77.3938 163.325 77.3938 168.379 80.89C172.354 83.641 176.556 83.5837 180.588 80.8326C185.528 77.5084 190.355 77.2792 195.352 80.718C199.497 83.5837 203.87 83.5837 208.072 80.6034C212.955 77.2219 217.725 77.4511 222.552 80.718C226.641 83.4691 230.843 83.5837 234.988 80.718C239.872 77.3365 244.755 77.1646 249.752 80.6607C253.841 83.5264 258.157 83.5837 262.188 80.718C267.299 77.1645 272.183 77.4511 277.236 80.7753C281.155 83.4118 285.243 83.5264 289.161 80.7753C294.386 77.1646 299.496 77.2792 304.721 80.89C308.412 83.4691 312.443 83.4691 316.135 80.89C321.359 77.2792 326.356 77.1072 331.637 80.7753C335.498 83.4691 339.644 83.4691 343.619 80.718C348.729 77.1645 353.727 77.2219 358.894 80.7753C362.528 83.2398 366.39 83.641 370.251 80.8326C375.986 76.706 381.779 77.3365 387.344 81.1192C388.82 82.1509 390.467 82.2655 392 83.1825C390.183 84.0995 388.423 83.5837 386.776 82.6667C383.936 81.0046 381.154 79.2279 377.576 79.7437C375.646 80.0303 373.942 80.3168 372.295 81.4631C367.469 84.8446 362.188 84.73 357.19 81.4631C353.386 78.9413 349.297 78.8267 345.493 81.3485C340.212 84.7873 335.158 84.7873 329.877 81.3485C326.242 78.9986 322.211 78.6547 318.463 81.1765C313.125 84.7873 308.014 84.9019 302.676 81.2338C298.872 78.5974 294.783 78.7693 290.979 81.3485C285.811 84.7873 280.814 84.9019 275.646 81.3485C271.785 78.6547 267.697 78.884 263.949 81.2912C258.554 84.7873 253.5 84.7873 248.105 81.1765C244.528 78.7693 240.383 78.884 236.862 81.1765C231.467 84.6727 226.413 84.9019 221.076 81.1765C217.101 78.4255 212.955 78.6547 208.923 81.4631C204.21 84.7873 199.384 84.8446 194.614 81.635C190.128 78.5974 185.812 78.8267 181.439 81.6924C176.84 84.6727 172.07 84.7873 167.584 81.7497C162.984 78.6547 158.612 78.8267 154.125 81.6924C149.526 84.6727 144.869 84.73 140.327 81.635C135.784 78.5401 131.355 78.712 126.868 81.6924C122.269 84.73 117.556 84.6154 113.013 81.635C108.47 78.6547 104.097 78.712 99.5546 81.6924C95.0686 84.6727 90.4689 84.6154 85.9829 81.6924C81.44 78.712 77.2379 78.6547 72.6383 81.6924C68.3226 84.5581 63.439 84.8446 59.0098 81.807C54.1262 78.4255 49.5834 78.8267 44.8134 81.8643C40.4977 84.6154 35.8413 84.6727 31.6959 81.7497C27.0963 78.4828 22.7238 78.712 18.2946 81.4631C12.7864 84.9019 7.61889 84.4434 2.62176 80.5461C1.03177 79.6864 -1.18286 80.5461 -3 78.712Z" fill="white"/>
<path d="M-3 83.712C0.9182 82.6804 3.35998 84.801 5.85854 86.2338C9.66317 88.4691 13.411 88.5264 16.7614 86.1192C22.3263 82.0499 27.6642 82.6231 33.0588 86.1765C36.5227 88.4691 40.2138 88.6983 43.4505 86.3485C49.5266 81.9926 55.0916 82.6231 60.9973 86.5777C64.2908 88.813 68.0387 88.3545 71.1619 86.1192C76.954 81.878 82.3486 82.7377 87.9704 86.4058C91.1504 88.5264 94.3304 88.4118 97.6807 86.2338C102.735 83.0243 108.016 81.6487 113.524 85.5461C117.726 88.5264 122.098 88.5837 126.357 85.6034C131.695 81.8207 136.919 82.8523 141.973 86.0619C145.948 88.641 149.696 88.2971 153.387 85.8326C158.498 82.3938 163.325 82.3938 168.379 85.89C172.354 88.641 176.556 88.5837 180.588 85.8326C185.528 82.5084 190.355 82.2792 195.352 85.718C199.497 88.5837 203.87 88.5837 208.072 85.6034C212.955 82.2219 217.725 82.4511 222.552 85.718C226.641 88.4691 230.843 88.5837 234.988 85.718C239.872 82.3365 244.755 82.1646 249.752 85.6607C253.841 88.5264 258.157 88.5837 262.188 85.718C267.299 82.1645 272.183 82.4511 277.236 85.7753C281.155 88.4118 285.243 88.5264 289.161 85.7753C294.386 82.1646 299.496 82.2792 304.721 85.89C308.412 88.4691 312.443 88.4691 316.135 85.89C321.359 82.2792 326.356 82.1072 331.637 85.7753C335.498 88.4691 339.644 88.4691 343.619 85.718C348.729 82.1645 353.727 82.2219 358.894 85.7753C362.528 88.2398 366.39 88.641 370.251 85.8326C375.986 81.706 381.779 82.3365 387.344 86.1192C388.82 87.1509 390.467 87.2655 392 88.1825C390.183 89.0995 388.423 88.5837 386.776 87.6667C383.936 86.0046 381.154 84.2279 377.576 84.7437C375.646 85.0303 373.942 85.3168 372.295 86.4631C367.469 89.8446 362.188 89.73 357.19 86.4631C353.386 83.9413 349.297 83.8267 345.493 86.3485C340.212 89.7873 335.158 89.7873 329.877 86.3485C326.242 83.9986 322.211 83.6547 318.463 86.1765C313.125 89.7873 308.014 89.9019 302.676 86.2338C298.872 83.5974 294.783 83.7693 290.979 86.3485C285.811 89.7873 280.814 89.9019 275.646 86.3485C271.785 83.6547 267.697 83.884 263.949 86.2912C258.554 89.7873 253.5 89.7873 248.105 86.1765C244.528 83.7693 240.383 83.884 236.862 86.1765C231.467 89.6727 226.413 89.9019 221.076 86.1765C217.101 83.4255 212.955 83.6547 208.923 86.4631C204.21 89.7873 199.384 89.8446 194.614 86.635C190.128 83.5974 185.812 83.8267 181.439 86.6924C176.84 89.6727 172.07 89.7873 167.584 86.7497C162.984 83.6547 158.612 83.8267 154.125 86.6924C149.526 89.6727 144.869 89.73 140.327 86.635C135.784 83.5401 131.355 83.712 126.868 86.6924C122.269 89.73 117.556 89.6154 113.013 86.635C108.47 83.6547 104.097 83.712 99.5546 86.6924C95.0686 89.6727 90.4689 89.6154 85.9829 86.6924C81.44 83.712 77.2379 83.6547 72.6383 86.6924C68.3226 89.5581 63.439 89.8446 59.0098 86.807C54.1262 83.4255 49.5834 83.8267 44.8134 86.8643C40.4977 89.6154 35.8413 89.6727 31.6959 86.7497C27.0963 83.4828 22.7238 83.712 18.2946 86.4631C12.7864 89.9019 7.61889 89.4434 2.62176 85.5461C1.03177 84.6864 -1.18286 85.5461 -3 83.712Z" fill="white"/>
<path d="M-3 88.712C0.9182 87.6804 3.35998 89.801 5.85854 91.2338C9.66317 93.4691 13.411 93.5264 16.7614 91.1192C22.3263 87.0499 27.6642 87.6231 33.0588 91.1765C36.5227 93.4691 40.2138 93.6983 43.4505 91.3485C49.5266 86.9926 55.0916 87.6231 60.9973 91.5777C64.2908 93.813 68.0387 93.3545 71.1619 91.1192C76.954 86.878 82.3486 87.7377 87.9704 91.4058C91.1504 93.5264 94.3304 93.4118 97.6807 91.2338C102.735 88.0243 108.016 86.6487 113.524 90.5461C117.726 93.5264 122.098 93.5837 126.357 90.6034C131.695 86.8207 136.919 87.8523 141.973 91.0619C145.948 93.641 149.696 93.2971 153.387 90.8326C158.498 87.3938 163.325 87.3938 168.379 90.89C172.354 93.641 176.556 93.5837 180.588 90.8326C185.528 87.5084 190.355 87.2792 195.352 90.718C199.497 93.5837 203.87 93.5837 208.072 90.6034C212.955 87.2219 217.725 87.4511 222.552 90.718C226.641 93.4691 230.843 93.5837 234.988 90.718C239.872 87.3365 244.755 87.1646 249.752 90.6607C253.841 93.5264 258.157 93.5837 262.188 90.718C267.299 87.1645 272.183 87.4511 277.236 90.7753C281.155 93.4118 285.243 93.5264 289.161 90.7753C294.386 87.1646 299.496 87.2792 304.721 90.89C308.412 93.4691 312.443 93.4691 316.135 90.89C321.359 87.2792 326.356 87.1072 331.637 90.7753C335.498 93.4691 339.644 93.4691 343.619 90.718C348.729 87.1645 353.727 87.2219 358.894 90.7753C362.528 93.2398 366.39 93.641 370.251 90.8326C375.986 86.706 381.779 87.3365 387.344 91.1192C388.82 92.1509 390.467 92.2655 392 93.1825C390.183 94.0995 388.423 93.5837 386.776 92.6667C383.936 91.0046 381.154 89.2279 377.576 89.7437C375.646 90.0303 373.942 90.3168 372.295 91.4631C367.469 94.8446 362.188 94.73 357.19 91.4631C353.386 88.9413 349.297 88.8267 345.493 91.3485C340.212 94.7873 335.158 94.7873 329.877 91.3485C326.242 88.9986 322.211 88.6547 318.463 91.1765C313.125 94.7873 308.014 94.9019 302.676 91.2338C298.872 88.5974 294.783 88.7693 290.979 91.3485C285.811 94.7873 280.814 94.9019 275.646 91.3485C271.785 88.6547 267.697 88.884 263.949 91.2912C258.554 94.7873 253.5 94.7873 248.105 91.1765C244.528 88.7693 240.383 88.884 236.862 91.1765C231.467 94.6727 226.413 94.9019 221.076 91.1765C217.101 88.4255 212.955 88.6547 208.923 91.4631C204.21 94.7873 199.384 94.8446 194.614 91.635C190.128 88.5974 185.812 88.8267 181.439 91.6924C176.84 94.6727 172.07 94.7873 167.584 91.7497C162.984 88.6547 158.612 88.8267 154.125 91.6924C149.526 94.6727 144.869 94.73 140.327 91.635C135.784 88.5401 131.355 88.712 126.868 91.6924C122.269 94.73 117.556 94.6154 113.013 91.635C108.47 88.6547 104.097 88.712 99.5546 91.6924C95.0686 94.6727 90.4689 94.6154 85.9829 91.6924C81.44 88.712 77.2379 88.6547 72.6383 91.6924C68.3226 94.5581 63.439 94.8446 59.0098 91.807C54.1262 88.4255 49.5834 88.8267 44.8134 91.8643C40.4977 94.6154 35.8413 94.6727 31.6959 91.7497C27.0963 88.4828 22.7238 88.712 18.2946 91.4631C12.7864 94.9019 7.61889 94.4434 2.62176 90.5461C1.03177 89.6864 -1.18286 90.5461 -3 88.712Z" fill="white"/>
<defs>
<clipPath id="clip0_2001_5">
<rect width="394" height="19" fill="white" transform="translate(-1 74)"/>
</clipPath>
</defs>
</svg>
