<svg width="22" height="18" viewBox="0 0 22 18" fill="none" xmlns="http://www.w3.org/2000/svg">
<path d="M3.3 -1.52588e-05C2.08656 -1.52588e-05 1.1 0.959143 1.1 2.13887V8.30155C1.68438 7.79356 2.45438 7.4861 3.3 7.4861V2.13887H18.7V7.4861C19.5456 7.4861 20.3156 7.79356 20.9 8.30155V2.13887C20.9 0.959143 19.9134 -1.52588e-05 18.7 -1.52588e-05H3.3ZM5.5 10.6944C5.5 10.1272 5.26822 9.58313 4.85564 9.18201C4.44306 8.78089 3.88348 8.55554 3.3 8.55554C2.71652 8.55554 2.15695 8.78089 1.74437 9.18201C1.33179 9.58313 1.1 10.1272 1.1 10.6944C1.1 11.2617 1.33179 11.8057 1.74437 12.2069C2.15695 12.608 2.71652 12.8333 3.3 12.8333C3.88348 12.8333 4.44306 12.608 4.85564 12.2069C5.26822 11.8057 5.5 11.2617 5.5 10.6944ZM0 16.0417C0 16.6332 0.491562 17.1111 1.1 17.1111H5.5C6.10844 17.1111 6.6 16.6332 6.6 16.0417C6.6 14.8619 5.61344 13.9028 4.4 13.9028H2.2C0.986563 13.9028 0 14.8619 0 16.0417ZM13.2 10.6944C13.2 10.1272 12.9682 9.58313 12.5556 9.18201C12.1431 8.78089 11.5835 8.55554 11 8.55554C10.4165 8.55554 9.85695 8.78089 9.44437 9.18201C9.03179 9.58313 8.8 10.1272 8.8 10.6944C8.8 11.2617 9.03179 11.8057 9.44437 12.2069C9.85695 12.608 10.4165 12.8333 11 12.8333C11.5835 12.8333 12.1431 12.608 12.5556 12.2069C12.9682 11.8057 13.2 11.2617 13.2 10.6944ZM7.7 16.0417C7.7 16.6332 8.19156 17.1111 8.8 17.1111H13.2C13.8084 17.1111 14.3 16.6332 14.3 16.0417C14.3 14.8619 13.3134 13.9028 12.1 13.9028H9.9C8.68656 13.9028 7.7 14.8619 7.7 16.0417ZM18.7 12.8333C19.2835 12.8333 19.8431 12.608 20.2556 12.2069C20.6682 11.8057 20.9 11.2617 20.9 10.6944C20.9 10.1272 20.6682 9.58313 20.2556 9.18201C19.8431 8.78089 19.2835 8.55554 18.7 8.55554C18.1165 8.55554 17.5569 8.78089 17.1444 9.18201C16.7318 9.58313 16.5 10.1272 16.5 10.6944C16.5 11.2617 16.7318 11.8057 17.1444 12.2069C17.5569 12.608 18.1165 12.8333 18.7 12.8333ZM17.6 13.9028C16.3866 13.9028 15.4 14.8619 15.4 16.0417C15.4 16.6332 15.8916 17.1111 16.5 17.1111H20.9C21.5084 17.1111 22 16.6332 22 16.0417C22 14.8619 21.0134 13.9028 19.8 13.9028H17.6Z" fill="#84673A"/>
</svg>
