<svg width="19" height="16" viewBox="0 0 19 16" fill="none" xmlns="http://www.w3.org/2000/svg">
<path d="M1.33612 0.150064C1.03246 -0.0912929 0.591566 -0.0353687 0.352139 0.270743C0.112713 0.576854 0.16819 1.0213 0.471852 1.26266L17.7572 14.9199C18.0609 15.1613 18.5018 15.1054 18.7412 14.7993C18.9807 14.4931 18.9252 14.0487 18.6215 13.8073L10.3905 7.30247L11.7774 2.35465H15.4243L15.1761 3.36129C15.0827 3.74098 15.3104 4.12362 15.6871 4.21781C16.0637 4.312 16.4433 4.08242 16.5368 3.70272L16.8579 2.40469C17.039 1.66296 16.4813 0.941833 15.7221 0.941833H5.94069C5.40345 0.941833 4.93627 1.30975 4.8078 1.83368L4.58881 2.71963L1.33612 0.150064ZM5.7947 3.67329L6.12172 2.35465H10.3204L9.19923 6.36353L5.7947 3.67329ZM7.47069 12.524L7.41813 12.7153H5.8093C5.42096 12.7153 5.10854 13.0303 5.10854 13.4218C5.10854 13.8132 5.42096 14.1282 5.8093 14.1282H10.481C10.8694 14.1282 11.1818 13.8132 11.1818 13.4218C11.1818 13.0303 10.8694 12.7153 10.481 12.7153H8.8722L9.56128 10.2576L8.36999 9.3128L7.47069 12.524Z" fill="#212121"/>
</svg>
