<svg width="19" height="22" viewBox="0 0 19 22" fill="none" xmlns="http://www.w3.org/2000/svg">
<g id="Frame" clip-path="url(#clip0_1470_250934)">
<g id="Vector">
<path d="M0 2.65714V3.98571H18.6V2.65714C18.6 1.19156 17.4084 0 15.9429 0H2.65714C1.19156 0 0 1.19156 0 2.65714ZM0 5.31429V18.6C0 20.0656 1.19156 21.2571 2.65714 21.2571H15.9429C17.4084 21.2571 18.6 20.0656 18.6 18.6V5.31429H0ZM3.98571 9.3C3.98571 8.93464 4.28464 8.63571 4.65 8.63571H13.95C14.3154 8.63571 14.6143 8.93464 14.6143 9.3C14.6143 9.66536 14.3154 9.96429 13.95 9.96429H4.65C4.28464 9.96429 3.98571 9.66536 3.98571 9.3ZM3.98571 13.2857C3.98571 12.9204 4.28464 12.6214 4.65 12.6214H13.95C14.3154 12.6214 14.6143 12.9204 14.6143 13.2857C14.6143 13.6511 14.3154 13.95 13.95 13.95H4.65C4.28464 13.95 3.98571 13.6511 3.98571 13.2857ZM3.98571 17.2714C3.98571 16.9061 4.28464 16.6071 4.65 16.6071H8.63571C9.00107 16.6071 9.3 16.9061 9.3 17.2714C9.3 17.6368 9.00107 17.9357 8.63571 17.9357H4.65C4.28464 17.9357 3.98571 17.6368 3.98571 17.2714Z" fill="black"/>
<path d="M0 2.65714V3.98571H18.6V2.65714C18.6 1.19156 17.4084 0 15.9429 0H2.65714C1.19156 0 0 1.19156 0 2.65714ZM0 5.31429V18.6C0 20.0656 1.19156 21.2571 2.65714 21.2571H15.9429C17.4084 21.2571 18.6 20.0656 18.6 18.6V5.31429H0ZM3.98571 9.3C3.98571 8.93464 4.28464 8.63571 4.65 8.63571H13.95C14.3154 8.63571 14.6143 8.93464 14.6143 9.3C14.6143 9.66536 14.3154 9.96429 13.95 9.96429H4.65C4.28464 9.96429 3.98571 9.66536 3.98571 9.3ZM3.98571 13.2857C3.98571 12.9204 4.28464 12.6214 4.65 12.6214H13.95C14.3154 12.6214 14.6143 12.9204 14.6143 13.2857C14.6143 13.6511 14.3154 13.95 13.95 13.95H4.65C4.28464 13.95 3.98571 13.6511 3.98571 13.2857ZM3.98571 17.2714C3.98571 16.9061 4.28464 16.6071 4.65 16.6071H8.63571C9.00107 16.6071 9.3 16.9061 9.3 17.2714C9.3 17.6368 9.00107 17.9357 8.63571 17.9357H4.65C4.28464 17.9357 3.98571 17.6368 3.98571 17.2714Z" fill="url(#paint0_linear_1470_250934)"/>
</g>
</g>
<defs>
<linearGradient id="paint0_linear_1470_250934" x1="3.28235" y1="2.66215e-07" x2="16.3886" y2="22.1264" gradientUnits="userSpaceOnUse">
<stop stop-color="#3E81C2"/>
<stop offset="1" stop-color="#49BDF2"/>
</linearGradient>
<clipPath id="clip0_1470_250934">
<rect width="18.6" height="21.2571" fill="white"/>
</clipPath>
</defs>
</svg>
