<svg width="14" height="15" viewBox="0 0 14 15" fill="none" xmlns="http://www.w3.org/2000/svg">
<path d="M0.996506 1.34555C0.996506 0.933952 1.29885 0.602814 1.67466 0.602814H4.38728C4.76309 0.602814 5.06543 0.933952 5.06543 1.34555C5.06543 1.75716 4.76309 2.08829 4.38728 2.08829H3.70912V6.54474C3.70912 8.46039 5.12477 10.0109 6.87384 10.0109C8.62292 10.0109 10.0386 8.46039 10.0386 6.54474V2.08829H9.36041C8.9846 2.08829 8.68225 1.75716 8.68225 1.34555C8.68225 0.933952 8.9846 0.602814 9.36041 0.602814H12.073C12.4488 0.602814 12.7512 0.933952 12.7512 1.34555C12.7512 1.75716 12.4488 2.08829 12.073 2.08829H11.3949V6.54474C11.3949 9.2805 9.37171 11.4963 6.87384 11.4963C4.37597 11.4963 2.35281 9.2805 2.35281 6.54474V2.08829H1.67466C1.29885 2.08829 0.996506 1.75716 0.996506 1.34555ZM0.544403 13.7246C0.544403 13.313 0.846747 12.9818 1.22256 12.9818H12.5251C12.9009 12.9818 13.2033 13.313 13.2033 13.7246C13.2033 14.1362 12.9009 14.4673 12.5251 14.4673H1.22256C0.846747 14.4673 0.544403 14.1362 0.544403 13.7246Z" fill="#212121"/>
</svg>
