<svg width="25" height="26" viewBox="0 0 25 26" fill="none" xmlns="http://www.w3.org/2000/svg">
<path d="M12.5 1.875C15.4008 1.875 18.1828 3.02734 20.234 5.07852C22.2852 7.1297 23.4375 9.91169 23.4375 12.8125C23.4375 15.7133 22.2852 18.4953 20.234 20.5465C18.1828 22.5977 15.4008 23.75 12.5 23.75C9.59919 23.75 6.8172 22.5977 4.76602 20.5465C2.71484 18.4953 1.5625 15.7133 1.5625 12.8125C1.5625 9.91169 2.71484 7.1297 4.76602 5.07852C6.8172 3.02734 9.59919 1.875 12.5 1.875ZM12.5 25.3125C15.8152 25.3125 18.9946 23.9955 21.3388 21.6513C23.683 19.3071 25 16.1277 25 12.8125C25 9.49729 23.683 6.31787 21.3388 3.97367C18.9946 1.62946 15.8152 0.3125 12.5 0.3125C9.18479 0.3125 6.00537 1.62946 3.66117 3.97367C1.31696 6.31787 0 9.49729 0 12.8125C0 16.1277 1.31696 19.3071 3.66117 21.6513C6.00537 23.9955 9.18479 25.3125 12.5 25.3125ZM12.5 5.78125C12.0508 5.78125 11.6211 5.95215 11.2939 6.25488L6.85059 10.3564C6.46973 10.708 6.25 11.2061 6.25 11.7285C6.25 12.7588 7.08496 13.5986 8.12012 13.5986H9.375V17.5049C9.375 18.7988 10.4248 19.8486 11.7188 19.8486H13.2812C14.5752 19.8486 15.625 18.7988 15.625 17.5049V13.5938H16.8799C17.9102 13.5938 18.75 12.7588 18.75 11.7236C18.75 11.2012 18.5303 10.7031 18.1494 10.3516L13.7061 6.25C13.3789 5.94727 12.9443 5.77637 12.5 5.77637V5.78125ZM12.3535 7.40234C12.3926 7.36328 12.4463 7.34375 12.5 7.34375C12.5537 7.34375 12.6074 7.36328 12.6465 7.40234L17.0898 11.5039C17.1533 11.5625 17.1875 11.6455 17.1875 11.7285C17.1875 11.8994 17.0508 12.0361 16.8799 12.0361H14.8438C14.4141 12.0361 14.0625 12.3877 14.0625 12.8174V17.5049C14.0625 17.9346 13.7109 18.2861 13.2812 18.2861H11.7188C11.2891 18.2861 10.9375 17.9346 10.9375 17.5049V12.8125C10.9375 12.3828 10.5859 12.0312 10.1562 12.0312H8.12012C7.94922 12.0312 7.8125 11.8945 7.8125 11.7236C7.8125 11.6406 7.84668 11.5576 7.91016 11.499L12.3535 7.39746V7.40234Z" fill="black"/>
</svg>
