<svg width="22" height="26" viewBox="0 0 22 26" fill="none" xmlns="http://www.w3.org/2000/svg">
<path d="M8.57898 21.574C9.20387 21.4418 13.0116 21.4418 13.6365 21.574C14.1707 21.6973 14.7484 21.9856 14.7484 22.6151C14.7173 23.2144 14.3657 23.7456 13.88 24.083C13.2501 24.574 12.5109 24.885 11.7382 24.997C11.3109 25.0524 10.8909 25.0537 10.4785 24.997C9.70452 24.885 8.96534 24.574 8.33672 24.0818C7.84973 23.7456 7.49815 23.2144 7.46709 22.6151C7.46709 21.9856 8.04478 21.6973 8.57898 21.574ZM11.1815 0.0390625C13.7817 0.0390625 16.4378 1.27284 18.0156 3.31989C19.0392 4.63802 19.5088 5.95488 19.5088 8.00194V8.53448C19.5088 10.1044 19.9238 11.0297 20.8369 12.0961C21.5289 12.8816 21.75 13.8901 21.75 14.9841C21.75 16.0769 21.391 17.1142 20.6717 17.9565C19.73 18.9662 18.4019 19.6107 17.0466 19.7228C15.0824 19.8902 13.1171 20.0312 11.1256 20.0312C9.13293 20.0312 7.16881 19.9469 5.20469 19.7228C3.84807 19.6107 2.52002 18.9662 1.57958 17.9565C0.860275 17.1142 0.5 16.0769 0.5 14.9841C0.5 13.8901 0.722377 12.8816 1.41311 12.0961C2.35479 11.0297 2.7424 10.1044 2.7424 8.53448V8.00194C2.7424 5.89949 3.26666 4.52471 4.34624 3.17889C5.95133 1.21618 8.52419 0.0390625 11.0697 0.0390625H11.1815Z" fill="#3E81C2"/>
</svg>
