<svg width="333" height="2" viewBox="0 0 333 2" fill="none" xmlns="http://www.w3.org/2000/svg">
<path d="M168.8 2C167.293 2 166.493 1.57692 165.74 1.19231C165.033 0.807692 164.327 0.423077 162.962 0.423077C161.596 0.423077 160.89 0.807692 160.184 1.19231C159.43 1.61538 158.677 2 157.123 2C155.569 2 154.816 1.57692 154.063 1.19231C153.356 0.807692 152.65 0.423077 151.285 0.423077C149.919 0.423077 149.213 0.807692 148.506 1.19231C147.753 1.61538 147 2 145.446 2C143.939 2 143.139 1.57692 142.385 1.19231C141.679 0.807692 140.973 0.423077 139.607 0.423077C138.242 0.423077 137.536 0.807692 136.829 1.19231C136.076 1.61538 135.323 2 133.769 2C132.262 2 131.462 1.57692 130.708 1.19231C130.002 0.807692 129.296 0.423077 127.93 0.423077C126.565 0.423077 125.859 0.807692 125.152 1.19231C124.399 1.61538 123.646 2 122.092 2C120.538 2 119.785 1.57692 119.031 1.19231C118.325 0.807692 117.619 0.423077 116.253 0.423077C114.888 0.423077 114.181 0.807692 113.475 1.19231C112.722 1.61538 111.968 2 110.415 2C108.908 2 108.107 1.57692 107.354 1.19231C106.648 0.807692 105.942 0.423077 104.576 0.423077C103.211 0.423077 102.504 0.807692 101.798 1.19231C101.045 1.61538 100.291 2 98.7375 2C97.1837 2 96.4303 1.57692 95.677 1.19231C94.9707 0.807692 94.2644 0.423077 92.8989 0.423077C91.5335 0.423077 90.8272 0.807692 90.1209 1.19231C89.3676 1.61538 88.6142 2 87.0604 2C85.5537 2 84.7532 1.57692 83.9999 1.19231C83.2936 0.807692 82.5873 0.423077 81.2218 0.423077C79.8564 0.423077 79.1501 0.807692 78.4438 1.19231C77.6905 1.61538 76.9371 2 75.3833 2C73.8766 2 73.0761 1.57692 72.3228 1.19231C71.6165 0.807692 70.9102 0.423077 69.5447 0.423077C68.1793 0.423077 67.473 0.807692 66.7667 1.19231C66.0133 1.61538 65.26 2 63.7062 2C62.1524 2 61.399 1.57692 60.6456 1.19231C59.9394 0.807692 59.2331 0.423077 57.8676 0.423077C56.5021 0.423077 55.7959 0.807692 55.0896 1.19231C54.3362 1.61538 53.5829 2 52.0291 2C50.5223 2 49.7219 1.57692 48.9685 1.19231C48.2623 0.807692 47.556 0.423077 46.1905 0.423077C44.825 0.423077 44.1188 0.807692 43.4125 1.19231C42.6591 1.61538 41.9058 2 40.352 2C38.8452 2 38.0448 1.57692 37.2914 1.19231C36.5851 0.807692 35.8789 0.423077 34.5134 0.423077C33.1479 0.423077 32.4417 0.807692 31.7354 1.19231C30.982 1.61538 30.2286 2 28.6748 2C27.1681 2 26.3677 1.57692 25.6143 1.19231C24.908 0.807692 24.2018 0.423077 22.8363 0.423077C21.4708 0.423077 20.7645 0.807692 20.0583 1.19231C19.3049 1.61538 18.5515 2 16.9977 2C15.491 2 14.6906 1.57692 13.9372 1.19231C13.2309 0.807692 12.5246 0.423077 11.1592 0.423077C9.79371 0.423077 9.08743 0.807692 8.38115 1.19231C7.62779 1.61538 6.87443 2 5.32062 2C4.28475 2 3.53138 1.57692 2.77802 1.15385C2.07175 0.769231 1.36547 0.384615 0 0.384615V0C1.50672 0 2.30717 0.423077 3.06053 0.807692C3.76681 1.19231 4.47309 1.57692 5.83856 1.57692C7.20402 1.57692 7.9103 1.19231 8.61658 0.807692C9.32285 0.423077 10.1233 0 11.63 0C13.1367 0 13.9372 0.423077 14.6906 0.807692C15.3968 1.19231 16.1031 1.57692 17.4686 1.57692C18.834 1.57692 19.5403 1.19231 20.2466 0.807692C21 0.423077 21.7533 0 23.2601 0C24.7668 0 25.5672 0.423077 26.3206 0.807692C27.0269 1.19231 27.7331 1.57692 29.0986 1.57692C30.4641 1.57692 31.1704 1.19231 31.8766 0.807692C32.63 0.423077 33.3834 0 34.9372 0C36.4439 0 37.2443 0.423077 37.9977 0.807692C38.704 1.19231 39.4102 1.57692 40.7757 1.57692C42.1412 1.57692 42.8475 1.19231 43.5537 0.807692C44.26 0.423077 45.0134 0 46.5672 0C48.0739 0 48.8744 0.423077 49.6277 0.807692C50.334 1.19231 51.0403 1.57692 52.4057 1.57692C53.7712 1.57692 54.4775 1.19231 55.1838 0.807692C55.9371 0.384615 56.6905 0 58.2443 0C59.751 0 60.5515 0.423077 61.3048 0.807692C62.0111 1.19231 62.7174 1.57692 64.0829 1.57692C65.4483 1.57692 66.1546 1.19231 66.8609 0.807692C67.6142 0.384615 68.3676 0 69.9214 0C71.4281 0 72.2286 0.423077 72.9819 0.807692C73.6882 1.19231 74.3945 1.57692 75.76 1.57692C77.1254 1.57692 77.8317 1.19231 78.538 0.807692C79.2914 0.384615 80.0447 0 81.5985 0C83.1523 0 83.9057 0.423077 84.659 0.807692C85.3653 1.19231 86.0716 1.57692 87.4371 1.57692C88.8025 1.57692 89.5088 1.19231 90.2151 0.807692C90.9685 0.384615 91.7218 0 93.2756 0C94.7824 0 95.5828 0.423077 96.3362 0.807692C97.0424 1.19231 97.7487 1.57692 99.1142 1.57692C100.48 1.57692 101.186 1.19231 101.892 0.807692C102.646 0.384615 103.399 0 104.953 0C106.459 0 107.26 0.423077 108.013 0.807692C108.72 1.19231 109.426 1.57692 110.791 1.57692C112.157 1.57692 112.863 1.19231 113.569 0.807692C114.323 0.384615 115.076 0 116.63 0C118.137 0 118.937 0.423077 119.69 0.807692C120.397 1.19231 121.103 1.57692 122.468 1.57692C123.834 1.57692 124.54 1.19231 125.246 0.807692C126 0.384615 126.753 0 128.307 0C129.814 0 130.614 0.423077 131.367 0.807692C132.074 1.19231 132.78 1.57692 134.146 1.57692C135.511 1.57692 136.217 1.19231 136.924 0.807692C137.677 0.384615 138.43 0 139.984 0C141.491 0 142.291 0.423077 143.045 0.807692C143.751 1.19231 144.457 1.57692 145.823 1.57692C147.188 1.57692 147.894 1.19231 148.601 0.807692C149.354 0.384615 150.107 0 151.661 0C153.168 0 153.968 0.423077 154.722 0.807692C155.428 1.19231 156.134 1.57692 157.5 1.57692C158.865 1.57692 159.571 1.19231 160.278 0.807692C161.031 0.384615 161.784 0 163.338 0C164.845 0 165.645 0.423077 166.399 0.807692C167.105 1.19231 167.811 1.57692 169.177 1.57692V2H168.8Z" fill="#84673A"/>
<path d="M332.623 2C331.117 2 330.316 1.57692 329.563 1.19231C328.857 0.807692 328.15 0.423077 326.785 0.423077C325.419 0.423077 324.713 0.807692 324.007 1.19231C323.253 1.61538 322.5 2 320.946 2C319.392 2 318.639 1.57692 317.886 1.19231C317.179 0.807692 316.473 0.423077 315.108 0.423077C313.742 0.423077 313.036 0.807692 312.33 1.19231C311.576 1.61538 310.823 2 309.269 2C307.762 2 306.962 1.57692 306.209 1.19231C305.502 0.807692 304.796 0.423077 303.431 0.423077C302.065 0.423077 301.359 0.807692 300.653 1.19231C299.899 1.61538 299.146 2 297.592 2C296.085 2 295.285 1.57692 294.531 1.19231C293.825 0.807692 293.119 0.423077 291.753 0.423077C290.388 0.423077 289.682 0.807692 288.975 1.19231C288.222 1.61538 287.469 2 285.915 2C284.361 2 283.608 1.57692 282.854 1.19231C282.148 0.807692 281.442 0.423077 280.076 0.423077C278.711 0.423077 278.005 0.807692 277.298 1.19231C276.545 1.61538 275.792 2 274.238 2C272.731 2 271.931 1.57692 271.177 1.19231C270.471 0.807692 269.765 0.423077 268.399 0.423077C267.034 0.423077 266.327 0.807692 265.621 1.19231C264.868 1.61538 264.114 2 262.561 2C261.007 2 260.253 1.57692 259.5 1.19231C258.794 0.807692 258.088 0.423077 256.722 0.423077C255.357 0.423077 254.65 0.807692 253.944 1.19231C253.191 1.61538 252.437 2 250.884 2C249.377 2 248.576 1.57692 247.823 1.19231C247.117 0.807692 246.41 0.423077 245.045 0.423077C243.68 0.423077 242.973 0.807692 242.267 1.19231C241.514 1.61538 240.76 2 239.206 2C237.7 2 236.899 1.57692 236.146 1.19231C235.44 0.807692 234.733 0.423077 233.368 0.423077C232.002 0.423077 231.296 0.807692 230.59 1.19231C229.837 1.61538 229.083 2 227.529 2C225.976 2 225.222 1.57692 224.469 1.19231C223.762 0.807692 223.056 0.423077 221.691 0.423077C220.325 0.423077 219.619 0.807692 218.913 1.19231C218.159 1.61538 217.406 2 215.852 2C214.345 2 213.545 1.57692 212.792 1.19231C212.085 0.807692 211.379 0.423077 210.014 0.423077C208.648 0.423077 207.942 0.807692 207.236 1.19231C206.482 1.61538 205.729 2 204.175 2C202.668 2 201.868 1.57692 201.115 1.19231C200.408 0.807692 199.702 0.423077 198.337 0.423077C196.971 0.423077 196.265 0.807692 195.559 1.19231C194.805 1.61538 194.052 2 192.498 2C190.991 2 190.191 1.57692 189.437 1.19231C188.731 0.807692 188.025 0.423077 186.659 0.423077C185.294 0.423077 184.588 0.807692 183.881 1.19231C183.128 1.61538 182.375 2 180.821 2C179.314 2 178.514 1.57692 177.76 1.19231C177.054 0.807692 176.348 0.423077 174.982 0.423077C173.617 0.423077 172.911 0.807692 172.204 1.19231C171.451 1.61538 170.698 2 169.144 2C168.108 2 167.355 1.57692 166.601 1.15385C165.895 0.769231 165.189 0.384615 163.823 0.384615V0C165.33 0 166.13 0.423077 166.884 0.807692C167.59 1.19231 168.296 1.57692 169.662 1.57692C171.027 1.57692 171.733 1.19231 172.44 0.807692C173.146 0.423077 173.946 0 175.453 0C176.96 0 177.76 0.423077 178.514 0.807692C179.22 1.19231 179.926 1.57692 181.292 1.57692C182.657 1.57692 183.363 1.19231 184.07 0.807692C184.823 0.423077 185.576 0 187.083 0C188.59 0 189.39 0.423077 190.144 0.807692C190.85 1.19231 191.556 1.57692 192.922 1.57692C194.287 1.57692 194.993 1.19231 195.7 0.807692C196.453 0.423077 197.206 0 198.76 0C200.267 0 201.067 0.423077 201.821 0.807692C202.527 1.19231 203.233 1.57692 204.599 1.57692C205.964 1.57692 206.671 1.19231 207.377 0.807692C208.083 0.423077 208.837 0 210.39 0C211.897 0 212.698 0.423077 213.451 0.807692C214.157 1.19231 214.863 1.57692 216.229 1.57692C217.594 1.57692 218.301 1.19231 219.007 0.807692C219.76 0.384615 220.514 0 222.067 0C223.574 0 224.375 0.423077 225.128 0.807692C225.834 1.19231 226.541 1.57692 227.906 1.57692C229.271 1.57692 229.978 1.19231 230.684 0.807692C231.437 0.384615 232.191 0 233.745 0C235.251 0 236.052 0.423077 236.805 0.807692C237.511 1.19231 238.218 1.57692 239.583 1.57692C240.949 1.57692 241.655 1.19231 242.361 0.807692C243.114 0.384615 243.868 0 245.422 0C246.975 0 247.729 0.423077 248.482 0.807692C249.188 1.19231 249.895 1.57692 251.26 1.57692C252.626 1.57692 253.332 1.19231 254.038 0.807692C254.792 0.384615 255.545 0 257.099 0C258.605 0 259.406 0.423077 260.159 0.807692C260.866 1.19231 261.572 1.57692 262.937 1.57692C264.303 1.57692 265.009 1.19231 265.715 0.807692C266.469 0.384615 267.222 0 268.776 0C270.283 0 271.083 0.423077 271.836 0.807692C272.543 1.19231 273.249 1.57692 274.614 1.57692C275.98 1.57692 276.686 1.19231 277.392 0.807692C278.146 0.384615 278.899 0 280.453 0C281.96 0 282.76 0.423077 283.514 0.807692C284.22 1.19231 284.926 1.57692 286.292 1.57692C287.657 1.57692 288.363 1.19231 289.07 0.807692C289.823 0.384615 290.576 0 292.13 0C293.637 0 294.437 0.423077 295.191 0.807692C295.897 1.19231 296.603 1.57692 297.969 1.57692C299.334 1.57692 300.04 1.19231 300.747 0.807692C301.5 0.384615 302.253 0 303.807 0C305.314 0 306.114 0.423077 306.868 0.807692C307.574 1.19231 308.28 1.57692 309.646 1.57692C311.011 1.57692 311.718 1.19231 312.424 0.807692C313.177 0.384615 313.931 0 315.484 0C316.991 0 317.792 0.423077 318.545 0.807692C319.251 1.19231 319.957 1.57692 321.323 1.57692C322.688 1.57692 323.395 1.19231 324.101 0.807692C324.854 0.384615 325.608 0 327.161 0C328.668 0 329.469 0.423077 330.222 0.807692C330.928 1.19231 331.635 1.57692 333 1.57692V2H332.623Z" fill="#84673A"/>
</svg>
