<svg width="390" height="87" viewBox="0 0 390 87" fill="none" xmlns="http://www.w3.org/2000/svg">
<path d="M284.522 0.426142C294.437 1.76639 304.382 3.03218 314.297 4.48412C320.029 5.30316 325.73 6.01051 331.523 5.07978C339.486 3.81399 347.387 2.17591 355.442 1.72916C368.207 0.984579 380.724 2.73435 393.241 5.2287C393.241 9.62174 393.241 20.9938 393.241 25.3868C392.467 25.3496 391.692 25.3124 390.918 25.3124C260.386 25.3124 129.855 25.3124 -0.676329 25.3124C-1.41992 25.3124 -2.16351 25.3124 -2.9071 25.3124C-2.9071 20.8077 -2.9071 9.58451 -2.9071 5.30316C1.55445 5.97328 5.89207 6.71787 10.2297 7.2763C17.7276 8.28149 25.2874 8.5421 32.7853 7.6486C41.1817 6.68064 49.5781 5.34039 57.9435 3.88845C68.9425 1.95254 79.8795 1.31964 90.9094 3.55339C106.711 6.79232 122.605 9.0633 138.654 9.80789C147.206 10.2174 155.788 10.4408 164.308 8.98884C175.896 7.0157 187.545 5.82437 199.257 5.34039C208.49 4.93087 223.52 7.52701 234.314 6.91068C251.228 5.94493 267.621 1.18075 268.55 1.18075C273.663 -0.222495 279.536 -0.239581 284.522 0.426142Z" fill="#EDF9FF"/>
<path d="M393.241 8.48704C393.241 16.7522 393.241 36.4424 393.241 44.7076C392.839 44.6029 392.436 44.4286 392.033 44.3937C385.155 43.4172 378.277 42.2315 371.367 41.5689C361.515 40.6273 351.693 41.255 341.903 42.7546C336.109 43.6265 330.222 45.0214 324.428 44.7773C316.373 44.4286 308.41 42.6849 300.354 41.7781C293.538 41.0109 286.722 40.2437 279.875 40.1391C273.244 40.0344 266.583 40.7319 259.953 41.1853C247.312 42.0571 234.64 43.1034 221.999 43.8706C212.951 44.4286 203.842 44.4634 194.795 45.0214C187.236 45.4748 179.707 46.3467 172.178 47.079C166.322 47.637 160.497 48.2996 154.641 48.9622C154.301 48.9971 153.96 49.1366 153.619 49.2412C149.498 49.2412 145.378 49.2412 141.226 49.2412C140.792 49.1366 140.327 48.9622 139.894 48.9622C137.074 48.7878 134.224 48.6832 131.404 48.5089C118.422 47.7067 105.595 45.6841 92.7684 43.5219C86.9436 42.5454 80.9949 41.7781 75.1081 41.7781C63.9543 41.7433 53.0173 44.6378 41.9873 45.9282C35.4499 46.6954 28.8505 47.2883 22.2512 47.3231C16.8601 47.358 11.4691 46.5908 6.07803 46.0677C3.07268 45.7538 0.0983143 45.1609 -2.81409 44.7076C-2.81409 36.3726 -2.81409 16.822 -2.81409 8.48704C-1.63673 8.90553 -0.614294 9.32402 0.408144 9.67276C2.91777 10.4749 5.42739 11.4165 7.96799 12.0442C15.3419 13.8577 22.8088 14.869 30.3377 14.9736C37.4948 15.0782 44.6828 14.9736 51.8089 14.4854C60.0194 13.9274 68.1989 12.7417 76.4094 12.0093C85.2086 11.2072 93.9148 12.1488 102.435 14.7295C112.721 17.8333 123.194 19.577 133.852 19.856C146.648 20.1699 159.258 18.7749 171.837 16.3686C184.974 13.8577 198.111 13.1602 211.371 15.1131C220.852 16.543 230.395 17.6589 239.969 18.4262C247.931 19.0539 255.925 19.2631 263.918 19.0539C272.966 18.8098 282.013 18.0077 291.06 17.2404C298.155 16.6476 305.25 15.9152 312.283 14.869C321.485 13.5438 330.656 13.5438 339.889 14.6598C344.598 15.2177 349.339 15.6362 354.079 15.6014C363.343 15.5665 372.297 13.2648 380.879 9.56813C385.062 7.71981 389.09 7.89418 393.241 8.48704Z" fill="#B8E9FF"/>
<path d="M187.545 23.787C189.311 23.787 191.047 23.787 192.813 23.787C193.308 23.8572 193.804 23.9507 194.3 23.9741C201.55 24.1378 208.707 24.7693 215.678 26.2193C223.362 27.8097 230.984 29.6105 238.667 31.2476C250.751 33.8203 262.927 33.3759 275.134 31.8791C282.415 30.9904 289.232 29.0258 296.11 27.1782C301.718 25.6814 307.326 24.3483 313.336 24.0911C321.175 23.7402 328.89 24.4185 336.574 25.3774C347.913 26.804 359.377 27.646 370.841 27.9734C378.339 28.1839 385.899 27.8564 393.427 27.7629C393.427 38.2405 393.427 48.6947 393.427 59.1724C390.019 58.6812 386.518 58.307 383.203 59.2425C377.564 60.8563 371.832 62.2361 365.853 62.8676C361.887 63.2886 357.89 63.8733 353.924 63.8031C346.581 63.6862 339.238 63.0313 331.895 62.8208C327.372 62.6805 322.848 62.7507 318.325 62.9845C312.128 63.3353 305.931 63.9668 299.735 64.4346C295.645 64.7386 291.524 64.9725 287.435 65.2063C282.911 65.4636 278.388 65.7676 273.864 65.8846C266.521 66.0717 259.147 66.2354 251.804 66.2354C247.095 66.212 242.354 65.9314 237.645 65.6273C231.603 65.2531 225.531 64.8088 219.52 64.2942C214.408 63.8733 209.326 63.0781 204.214 62.8676C196.561 62.5402 188.878 62.5869 181.225 63.3353C177.662 63.6862 174.099 64.0837 170.536 64.4813C167.035 64.8789 163.472 65.1362 160.002 65.7209C156.531 66.3289 152.968 65.6507 149.591 66.516C149.498 66.5394 149.374 66.516 149.281 66.516C139.088 66.7499 128.895 66.9604 118.794 65.6741C113.744 65.0426 108.725 64.1773 103.674 63.4289C99.8636 62.8442 96.0527 61.9789 92.2108 61.6982C87.3464 61.3474 82.4511 61.2772 77.5558 61.4176C71.5451 61.6047 65.5654 62.1192 59.5547 62.4934C54.0707 62.8442 48.5867 63.312 43.0717 63.4757C38.6102 63.616 34.1176 63.4757 29.6251 63.2886C24.9467 63.1015 20.2992 62.8208 15.6518 62.4232C9.64108 61.9087 3.78529 60.903 -1.85361 59.2191C-2.28738 59.0788 -2.7831 58.5175 -2.7831 58.1433C-2.7831 48.3205 -2.7831 38.4744 -2.81409 28.6282C-2.81409 27.8565 -2.47327 27.5992 -1.48182 27.5758C6.48081 27.4355 14.3195 26.5234 22.1892 25.7516C34.4275 24.5588 46.7277 24.0911 59.059 24.2782C76.1306 24.5354 93.0163 25.7048 109.468 29.3299C116.13 30.8033 122.977 31.3412 129.824 30.6863C137.105 30.0081 144.386 29.0024 151.574 27.8564C160.993 26.3596 170.381 24.6991 180.017 24.1612C182.526 24.0443 185.036 23.9273 187.545 23.787Z" fill="#83D8FF"/>
<path d="M393.241 46.3252C373.418 44.2417 357.595 36.6175 336.096 35.4585C303.386 33.6876 278.613 47.3344 245.565 47.1456C213.543 46.9633 189.797 33.8764 157.931 34.8595C132.937 35.6278 113.271 44.6488 88.2517 45.339C74.17 45.7231 63.2948 43.5255 51.2266 40.9537C35.0793 37.503 40.907 59.0017 21.4342 61.4432L-2.81409 86.7482H393.241V46.3252Z" fill="#49BDF2"/>
<path d="M-2.81409 46.359C17.0095 44.2755 12.3556 35.6313 33.8549 34.4724C66.5651 32.7014 62.5951 45.0842 95.643 44.8954C246.317 44.0376 500.968 47.6162 209.493 85.762C141.059 85.762 61.2661 86.7482 -2.81409 86.7482V46.359Z" fill="#49BDF2"/>
<path d="M188.685 57C190.463 57 192.21 57 193.989 57C194.488 57.0704 194.987 57.1643 195.486 57.1877C202.787 57.352 209.993 57.9855 217.013 59.4403C224.75 61.0359 232.425 62.8427 240.163 64.4852C252.33 67.0663 264.591 66.6205 276.883 65.1188C284.215 64.2271 291.079 62.2561 298.005 60.4024C303.652 58.9006 309.299 57.5632 315.351 57.305C323.245 56.9531 331.013 57.6336 338.75 58.5956C350.169 60.0269 361.713 60.8717 373.256 61.2002C380.806 61.4114 388.419 61.0829 396 60.989C396 71.5012 396 67.9437 396 78.4559C392.568 77.9631 389.043 77.5877 385.704 78.5263C380.026 80.1453 374.255 81.5297 368.233 82.1633C364.24 82.5856 360.215 83.1723 356.222 83.1019C348.828 82.9845 341.433 82.3275 334.039 82.1163C329.484 81.9756 324.929 82.046 320.374 82.2806C314.135 82.6326 307.895 83.2661 301.655 83.7354C297.537 84.0405 293.388 84.2751 289.269 84.5097C284.714 84.7679 280.159 85.0729 275.604 85.1902C268.21 85.3779 260.785 85.5422 253.391 85.5422C248.649 85.5187 243.875 85.2372 239.133 84.9321C233.049 84.5567 226.934 84.1109 220.882 83.5946C215.734 83.1723 210.617 82.3745 205.47 82.1633C197.764 81.8348 190.026 81.8817 182.32 82.6326C178.732 82.9845 175.144 83.3834 171.557 83.7823C168.031 84.1812 164.443 84.4394 160.949 85.026C157.455 85.6361 153.867 84.9556 150.466 85.8238C150.373 85.8472 150.248 85.8238 150.154 85.8238C139.89 86.0584 129.626 86.2696 119.455 84.979C114.369 84.3455 109.315 83.4773 104.23 82.7264C100.392 82.1398 96.555 81.2716 92.6864 80.99C87.7882 80.6381 82.8588 80.5677 77.9294 80.7085C71.8768 80.8962 65.8555 81.4124 59.803 81.7878C54.2808 82.1398 48.7586 82.6091 43.2053 82.7734C38.7126 82.9142 34.1888 82.7734 29.665 82.5856C24.954 82.3979 20.2742 82.1164 15.5944 81.7175C9.54187 81.2012 3.64532 80.1922 -2.03284 78.5028C-2.46962 78.362 -2.9688 77.7989 -2.9688 77.4234C-2.9688 67.5683 -2.9688 71.7358 -3 61.8572C-3 61.0829 -2.65681 60.8247 -1.65846 60.8013C6.35961 60.6605 14.2529 59.7454 22.1773 58.971C34.5008 57.7743 46.8867 57.305 59.3038 57.4928C76.4942 57.7509 93.4975 58.9241 110.064 62.5611C116.772 64.0394 123.667 64.5791 130.562 63.9221C137.893 63.2416 145.225 62.2326 152.463 61.0828C161.947 59.5811 171.401 57.9151 181.103 57.3754C183.631 57.2581 186.158 57.1408 188.685 57Z" fill="#27A4DD"/>
</svg>
