<svg width="20" height="20" viewBox="0 0 20 20" fill="none" xmlns="http://www.w3.org/2000/svg">
<g clip-path="url(#clip0_1470_249866)">
<path d="M20 1.83562C20 7.27984 20 12.7202 20 18.1644C19.9883 18.1996 19.9687 18.2309 19.9609 18.2661C19.7534 19.2642 18.8845 19.9961 17.8826 19.9961C12.6301 20 7.37378 20 2.12133 19.9961C0.970644 19.9961 0.00391198 19.0294 0.00391198 17.8787C-1.91096e-06 12.6262 -1.91096e-06 7.37378 0.00391198 2.11742C0.00391198 1.42466 0.31311 0.868885 0.853227 0.438356C1.14286 0.207436 1.48728 0.101761 1.83561 0C7.27984 0 12.7202 0 18.1644 0C18.1996 0.0117417 18.2309 0.0313112 18.2661 0.0391389C18.8376 0.16047 19.3072 0.450098 19.6125 0.939335C19.7847 1.21331 19.8748 1.53425 20 1.83562ZM10.7671 8.15264C10.7123 8.07828 10.6732 8.0274 10.638 7.9726C9.54207 6.37965 8.4501 4.79061 7.35812 3.19374C7.27984 3.08023 7.20156 3.03327 7.06066 3.03327C5.84344 3.0411 4.62622 3.03718 3.409 3.03718C3.35421 3.03718 3.2955 3.0411 3.20156 3.04892C4.97847 5.63601 6.73972 8.19961 8.5088 10.775C6.74364 12.8297 4.98239 14.8767 3.19374 16.955C3.59295 16.955 3.9452 16.9589 4.29745 16.9511C4.35616 16.9511 4.43053 16.9041 4.46967 16.8532C5.60078 15.5421 6.72798 14.2309 7.8591 12.9198C8.25049 12.4658 8.64188 12.0157 9.04109 11.5499C9.0998 11.6321 9.14677 11.7025 9.19374 11.7691C10.3483 13.4481 11.499 15.1233 12.6497 16.8023C12.7202 16.908 12.7945 16.9589 12.9315 16.9589C14.1566 16.9511 15.3777 16.955 16.6027 16.955C16.6575 16.955 16.7162 16.9511 16.8023 16.9472C14.955 14.2583 13.1233 11.593 11.2916 8.92759C12.9785 6.96673 14.6536 5.02153 16.3601 3.03718C16 3.03718 15.6908 3.04501 15.3816 3.03327C15.2329 3.02935 15.1311 3.07241 15.0333 3.18591C14.1213 4.2544 13.2016 5.31898 12.2857 6.38748C11.7847 6.97065 11.2838 7.5499 10.7671 8.15264Z" fill="black"/>
<path d="M15.1741 16.0938C15.0215 15.8746 14.8923 15.6946 14.7671 15.5106C12.1056 11.7024 9.4442 7.8981 6.78667 4.08988C6.70839 3.97638 6.6262 3.92549 6.4853 3.92941C6.09391 3.93724 5.70252 3.93332 5.31504 3.93332C5.1624 3.93332 5.00976 3.93332 4.82581 3.93332C4.88843 4.02726 4.92365 4.08596 4.96279 4.14467C6.61054 6.50084 8.25829 8.857 9.90604 11.2132C11.0058 12.7866 12.1056 14.3599 13.2055 15.9294C13.2524 15.9959 13.3346 16.086 13.4011 16.0899C13.9765 16.1016 14.5557 16.0938 15.1741 16.0938Z" fill="white"/>
<path d="M15.1741 16.0938C14.5557 16.0938 13.9804 16.0977 13.4011 16.086C13.3346 16.086 13.2524 15.996 13.2055 15.9255C12.1017 14.356 11.0058 12.7826 9.90604 11.2093C8.25829 8.85309 6.61054 6.49693 4.96279 4.14077C4.92365 4.08206 4.88843 4.02335 4.82581 3.92942C5.00976 3.92942 5.1624 3.92942 5.31504 3.92942C5.70643 3.92942 6.09782 3.93724 6.4853 3.9255C6.6262 3.92159 6.70839 3.97247 6.78667 4.08597C9.4442 7.89419 12.1056 11.7024 14.7671 15.5067C14.8923 15.6946 15.0176 15.8746 15.1741 16.0938Z" fill="black"/>
</g>
<defs>
<clipPath id="clip0_1470_249866">
<rect width="20" height="20" fill="white"/>
</clipPath>
</defs>
</svg>
