<svg width="390" height="16" viewBox="0 0 390 16" fill="none" xmlns="http://www.w3.org/2000/svg">
<path d="M-3 0.712027C0.9182 -0.319625 3.35998 1.801 5.85854 3.23385C9.66317 5.46909 13.411 5.5264 16.7614 3.11921C22.3263 -0.950081 27.6642 -0.376937 33.0588 3.17653C36.5227 5.46909 40.2138 5.69835 43.4505 3.34847C49.5266 -1.00739 55.0916 -0.376939 60.9973 3.57773C64.2908 5.81297 68.0387 5.35446 71.1619 3.11921C76.954 -1.12202 82.3486 -0.262313 87.9704 3.40578C91.1504 5.5264 94.3304 5.41178 97.6807 3.23385C102.735 0.0242644 108.016 -1.35128 113.524 2.54607C117.726 5.5264 122.098 5.58372 126.357 2.60339C131.695 -1.17933 136.919 -0.147679 141.973 3.0619C145.948 5.64103 149.696 5.29715 153.387 2.83264C158.498 -0.606197 163.325 -0.606193 168.379 2.88996C172.354 5.64103 176.556 5.58371 180.588 2.83264C185.528 -0.491569 190.355 -0.720823 195.352 2.71802C199.497 5.58372 203.87 5.58372 208.072 2.60339C212.955 -0.778135 217.725 -0.548881 222.552 2.71802C226.641 5.46909 230.843 5.58372 234.988 2.71802C239.872 -0.663509 244.755 -0.835446 249.752 2.66071C253.841 5.52641 258.157 5.58372 262.188 2.71802C267.299 -0.835451 272.183 -0.548877 277.236 2.77533C281.155 5.41178 285.243 5.52641 289.161 2.77533C294.386 -0.835447 299.496 -0.720821 304.721 2.88996C308.412 5.46909 312.443 5.46909 316.135 2.88996C321.359 -0.720821 326.356 -0.892761 331.637 2.77533C335.498 5.46909 339.644 5.46909 343.619 2.71802C348.729 -0.835451 353.727 -0.778133 358.894 2.77533C362.528 5.23984 366.39 5.64103 370.251 2.83264C375.986 -1.29396 381.779 -0.663511 387.344 3.11921C388.82 4.15087 390.467 4.2655 392 5.18252C390.183 6.09954 388.423 5.58372 386.776 4.6667C383.936 3.00459 381.154 1.22785 377.576 1.74368C375.646 2.03025 373.942 2.31682 372.295 3.4631C367.469 6.84463 362.188 6.73 357.19 3.4631C353.386 0.941285 349.297 0.826659 345.493 3.34847C340.212 6.78731 335.158 6.78731 329.877 3.34847C326.242 0.998601 322.211 0.654715 318.463 3.17653C313.125 6.78731 308.014 6.90194 302.676 3.23385C298.872 0.597404 294.783 0.769345 290.979 3.34847C285.811 6.78731 280.814 6.90194 275.646 3.34847C271.785 0.654717 267.697 0.883969 263.949 3.29116C258.554 6.78731 253.5 6.78731 248.105 3.17653C244.528 0.769343 240.383 0.883971 236.862 3.17653C231.467 6.67268 226.413 6.90194 221.076 3.17653C217.101 0.425459 212.955 0.654715 208.923 3.4631C204.21 6.78731 199.384 6.84463 194.614 3.63504C190.128 0.597403 185.812 0.826653 181.439 3.69235C176.84 6.67268 172.07 6.78731 167.584 3.74967C162.984 0.654715 158.612 0.826653 154.125 3.69235C149.526 6.67268 144.869 6.73 140.327 3.63504C135.784 0.540089 131.355 0.712025 126.868 3.69235C122.269 6.73 117.556 6.61537 113.013 3.63504C108.47 0.654717 104.097 0.712025 99.5546 3.69235C95.0686 6.67268 90.4689 6.61537 85.9829 3.69235C81.44 0.712025 77.2379 0.654711 72.6383 3.69235C68.3226 6.55805 63.439 6.84463 59.0098 3.80699C54.1262 0.425462 49.5834 0.826655 44.8134 3.8643C40.4977 6.61537 35.8413 6.67268 31.6959 3.74967C27.0963 0.482773 22.7238 0.712029 18.2946 3.4631C12.7864 6.90194 7.61889 6.44343 2.62176 2.54607C1.03177 1.68636 -1.18286 2.54607 -3 0.712027Z" fill="#FFDC99"/>
<path d="M-3 5.71203C0.9182 4.68038 3.35998 6.801 5.85854 8.23385C9.66317 10.4691 13.411 10.5264 16.7614 8.11921C22.3263 4.04992 27.6642 4.62306 33.0588 8.17653C36.5227 10.4691 40.2138 10.6983 43.4505 8.34847C49.5266 3.99261 55.0916 4.62306 60.9973 8.57773C64.2908 10.813 68.0387 10.3545 71.1619 8.11921C76.954 3.87798 82.3486 4.73769 87.9704 8.40578C91.1504 10.5264 94.3304 10.4118 97.6807 8.23385C102.735 5.02426 108.016 3.64872 113.524 7.54607C117.726 10.5264 122.098 10.5837 126.357 7.60339C131.695 3.82067 136.919 4.85232 141.973 8.0619C145.948 10.641 149.696 10.2971 153.387 7.83264C158.498 4.3938 163.325 4.39381 168.379 7.88996C172.354 10.641 176.556 10.5837 180.588 7.83264C185.528 4.50843 190.355 4.27918 195.352 7.71802C199.497 10.5837 203.87 10.5837 208.072 7.60339C212.955 4.22186 217.725 4.45112 222.552 7.71802C226.641 10.4691 230.843 10.5837 234.988 7.71802C239.872 4.33649 244.755 4.16455 249.752 7.66071C253.841 10.5264 258.157 10.5837 262.188 7.71802C267.299 4.16455 272.183 4.45112 277.236 7.77533C281.155 10.4118 285.243 10.5264 289.161 7.77533C294.386 4.16455 299.496 4.27918 304.721 7.88996C308.412 10.4691 312.443 10.4691 316.135 7.88996C321.359 4.27918 326.356 4.10724 331.637 7.77533C335.498 10.4691 339.644 10.4691 343.619 7.71802C348.729 4.16455 353.727 4.22187 358.894 7.77533C362.528 10.2398 366.39 10.641 370.251 7.83264C375.986 3.70604 381.779 4.33649 387.344 8.11921C388.82 9.15087 390.467 9.2655 392 10.1825C390.183 11.0995 388.423 10.5837 386.776 9.6667C383.936 8.00459 381.154 6.22785 377.576 6.74368C375.646 7.03025 373.942 7.31682 372.295 8.4631C367.469 11.8446 362.188 11.73 357.19 8.4631C353.386 5.94128 349.297 5.82666 345.493 8.34847C340.212 11.7873 335.158 11.7873 329.877 8.34847C326.242 5.9986 322.211 5.65471 318.463 8.17653C313.125 11.7873 308.014 11.9019 302.676 8.23385C298.872 5.5974 294.783 5.76934 290.979 8.34847C285.811 11.7873 280.814 11.9019 275.646 8.34847C271.785 5.65472 267.697 5.88397 263.949 8.29116C258.554 11.7873 253.5 11.7873 248.105 8.17653C244.528 5.76934 240.383 5.88397 236.862 8.17653C231.467 11.6727 226.413 11.9019 221.076 8.17653C217.101 5.42546 212.955 5.65471 208.923 8.4631C204.21 11.7873 199.384 11.8446 194.614 8.63504C190.128 5.5974 185.812 5.82665 181.439 8.69235C176.84 11.6727 172.07 11.7873 167.584 8.74967C162.984 5.65471 158.612 5.82665 154.125 8.69235C149.526 11.6727 144.869 11.73 140.327 8.63504C135.784 5.54009 131.355 5.71203 126.868 8.69235C122.269 11.73 117.556 11.6154 113.013 8.63504C108.47 5.65472 104.097 5.71203 99.5546 8.69235C95.0686 11.6727 90.4689 11.6154 85.9829 8.69235C81.44 5.71203 77.2379 5.65471 72.6383 8.69235C68.3226 11.5581 63.439 11.8446 59.0098 8.80699C54.1262 5.42546 49.5834 5.82665 44.8134 8.8643C40.4977 11.6154 35.8413 11.6727 31.6959 8.74967C27.0963 5.48277 22.7238 5.71203 18.2946 8.4631C12.7864 11.9019 7.61889 11.4434 2.62176 7.54607C1.03177 6.68636 -1.18286 7.54607 -3 5.71203Z" fill="#FFDC99"/>
<path d="M-3 10.712C0.9182 9.68038 3.35998 11.801 5.85854 13.2338C9.66317 15.4691 13.411 15.5264 16.7614 13.1192C22.3263 9.04992 27.6642 9.62306 33.0588 13.1765C36.5227 15.4691 40.2138 15.6983 43.4505 13.3485C49.5266 8.99261 55.0916 9.62306 60.9973 13.5777C64.2908 15.813 68.0387 15.3545 71.1619 13.1192C76.954 8.87798 82.3486 9.73769 87.9704 13.4058C91.1504 15.5264 94.3304 15.4118 97.6807 13.2338C102.735 10.0243 108.016 8.64872 113.524 12.5461C117.726 15.5264 122.098 15.5837 126.357 12.6034C131.695 8.82067 136.919 9.85232 141.973 13.0619C145.948 15.641 149.696 15.2971 153.387 12.8326C158.498 9.3938 163.325 9.39381 168.379 12.89C172.354 15.641 176.556 15.5837 180.588 12.8326C185.528 9.50843 190.355 9.27918 195.352 12.718C199.497 15.5837 203.87 15.5837 208.072 12.6034C212.955 9.22186 217.725 9.45112 222.552 12.718C226.641 15.4691 230.843 15.5837 234.988 12.718C239.872 9.33649 244.755 9.16455 249.752 12.6607C253.841 15.5264 258.157 15.5837 262.188 12.718C267.299 9.16455 272.183 9.45112 277.236 12.7753C281.155 15.4118 285.243 15.5264 289.161 12.7753C294.386 9.16455 299.496 9.27918 304.721 12.89C308.412 15.4691 312.443 15.4691 316.135 12.89C321.359 9.27918 326.356 9.10724 331.637 12.7753C335.498 15.4691 339.644 15.4691 343.619 12.718C348.729 9.16455 353.727 9.22187 358.894 12.7753C362.528 15.2398 366.39 15.641 370.251 12.8326C375.986 8.70604 381.779 9.33649 387.344 13.1192C388.82 14.1509 390.467 14.2655 392 15.1825C390.183 16.0995 388.423 15.5837 386.776 14.6667C383.936 13.0046 381.154 11.2279 377.576 11.7437C375.646 12.0303 373.942 12.3168 372.295 13.4631C367.469 16.8446 362.188 16.73 357.19 13.4631C353.386 10.9413 349.297 10.8267 345.493 13.3485C340.212 16.7873 335.158 16.7873 329.877 13.3485C326.242 10.9986 322.211 10.6547 318.463 13.1765C313.125 16.7873 308.014 16.9019 302.676 13.2338C298.872 10.5974 294.783 10.7693 290.979 13.3485C285.811 16.7873 280.814 16.9019 275.646 13.3485C271.785 10.6547 267.697 10.884 263.949 13.2912C258.554 16.7873 253.5 16.7873 248.105 13.1765C244.528 10.7693 240.383 10.884 236.862 13.1765C231.467 16.6727 226.413 16.9019 221.076 13.1765C217.101 10.4255 212.955 10.6547 208.923 13.4631C204.21 16.7873 199.384 16.8446 194.614 13.635C190.128 10.5974 185.812 10.8267 181.439 13.6924C176.84 16.6727 172.07 16.7873 167.584 13.7497C162.984 10.6547 158.612 10.8267 154.125 13.6924C149.526 16.6727 144.869 16.73 140.327 13.635C135.784 10.5401 131.355 10.712 126.868 13.6924C122.269 16.73 117.556 16.6154 113.013 13.635C108.47 10.6547 104.097 10.712 99.5546 13.6924C95.0686 16.6727 90.4689 16.6154 85.9829 13.6924C81.44 10.712 77.2379 10.6547 72.6383 13.6924C68.3226 16.5581 63.439 16.8446 59.0098 13.807C54.1262 10.4255 49.5834 10.8267 44.8134 13.8643C40.4977 16.6154 35.8413 16.6727 31.6959 13.7497C27.0963 10.4828 22.7238 10.712 18.2946 13.4631C12.7864 16.9019 7.61889 16.4434 2.62176 12.5461C1.03177 11.6864 -1.18286 12.5461 -3 10.712Z" fill="#FFDC99"/>
</svg>
